G04 #@! TF.GenerationSoftware,KiCad,Pcbnew,(5.0.1)-3*
G04 #@! TF.CreationDate,2019-01-09T23:58:32-05:00*
G04 #@! TF.ProjectId,SMA_Driver_V1,534D415F4472697665725F56312E6B69,rev?*
G04 #@! TF.SameCoordinates,Original*
G04 #@! TF.FileFunction,Soldermask,Top*
G04 #@! TF.FilePolarity,Negative*
%FSLAX46Y46*%
G04 Gerber Fmt 4.6, Leading zero omitted, Abs format (unit mm)*
G04 Created by KiCad (PCBNEW (5.0.1)-3) date 1/9/2019 23:58:32*
%MOMM*%
%LPD*%
G01*
G04 APERTURE LIST*
%ADD10C,0.100000*%
G04 APERTURE END LIST*
D10*
G36*
X61178677Y-89931465D02*
X61216364Y-89942898D01*
X61251103Y-89961466D01*
X61281548Y-89986452D01*
X61306534Y-90016897D01*
X61325102Y-90051636D01*
X61336535Y-90089323D01*
X61341000Y-90134661D01*
X61341000Y-91221339D01*
X61336535Y-91266677D01*
X61325102Y-91304364D01*
X61306534Y-91339103D01*
X61281548Y-91369548D01*
X61251103Y-91394534D01*
X61216364Y-91413102D01*
X61178677Y-91424535D01*
X61133339Y-91429000D01*
X60296661Y-91429000D01*
X60251323Y-91424535D01*
X60213636Y-91413102D01*
X60178897Y-91394534D01*
X60148452Y-91369548D01*
X60123466Y-91339103D01*
X60104898Y-91304364D01*
X60093465Y-91266677D01*
X60089000Y-91221339D01*
X60089000Y-90134661D01*
X60093465Y-90089323D01*
X60104898Y-90051636D01*
X60123466Y-90016897D01*
X60148452Y-89986452D01*
X60178897Y-89961466D01*
X60213636Y-89942898D01*
X60251323Y-89931465D01*
X60296661Y-89927000D01*
X61133339Y-89927000D01*
X61178677Y-89931465D01*
X61178677Y-89931465D01*
G37*
G36*
X59128677Y-89931465D02*
X59166364Y-89942898D01*
X59201103Y-89961466D01*
X59231548Y-89986452D01*
X59256534Y-90016897D01*
X59275102Y-90051636D01*
X59286535Y-90089323D01*
X59291000Y-90134661D01*
X59291000Y-91221339D01*
X59286535Y-91266677D01*
X59275102Y-91304364D01*
X59256534Y-91339103D01*
X59231548Y-91369548D01*
X59201103Y-91394534D01*
X59166364Y-91413102D01*
X59128677Y-91424535D01*
X59083339Y-91429000D01*
X58246661Y-91429000D01*
X58201323Y-91424535D01*
X58163636Y-91413102D01*
X58128897Y-91394534D01*
X58098452Y-91369548D01*
X58073466Y-91339103D01*
X58054898Y-91304364D01*
X58043465Y-91266677D01*
X58039000Y-91221339D01*
X58039000Y-90134661D01*
X58043465Y-90089323D01*
X58054898Y-90051636D01*
X58073466Y-90016897D01*
X58098452Y-89986452D01*
X58128897Y-89961466D01*
X58163636Y-89942898D01*
X58201323Y-89931465D01*
X58246661Y-89927000D01*
X59083339Y-89927000D01*
X59128677Y-89931465D01*
X59128677Y-89931465D01*
G37*
G36*
X4525331Y-87268211D02*
X4853092Y-87403974D01*
X5148073Y-87601074D01*
X5398926Y-87851927D01*
X5596026Y-88146908D01*
X5731789Y-88474669D01*
X5801000Y-88822616D01*
X5801000Y-89177384D01*
X5731789Y-89525331D01*
X5596026Y-89853092D01*
X5398926Y-90148073D01*
X5148073Y-90398926D01*
X4853092Y-90596026D01*
X4525331Y-90731789D01*
X4177384Y-90801000D01*
X3822616Y-90801000D01*
X3474669Y-90731789D01*
X3146908Y-90596026D01*
X2851927Y-90398926D01*
X2601074Y-90148073D01*
X2403974Y-89853092D01*
X2268211Y-89525331D01*
X2199000Y-89177384D01*
X2199000Y-88822616D01*
X2268211Y-88474669D01*
X2403974Y-88146908D01*
X2601074Y-87851927D01*
X2851927Y-87601074D01*
X3146908Y-87403974D01*
X3474669Y-87268211D01*
X3822616Y-87199000D01*
X4177384Y-87199000D01*
X4525331Y-87268211D01*
X4525331Y-87268211D01*
G37*
G36*
X89525331Y-87268211D02*
X89853092Y-87403974D01*
X90148073Y-87601074D01*
X90398926Y-87851927D01*
X90596026Y-88146908D01*
X90731789Y-88474669D01*
X90801000Y-88822616D01*
X90801000Y-89177384D01*
X90731789Y-89525331D01*
X90596026Y-89853092D01*
X90398926Y-90148073D01*
X90148073Y-90398926D01*
X89853092Y-90596026D01*
X89525331Y-90731789D01*
X89177384Y-90801000D01*
X88822616Y-90801000D01*
X88474669Y-90731789D01*
X88146908Y-90596026D01*
X87851927Y-90398926D01*
X87601074Y-90148073D01*
X87403974Y-89853092D01*
X87268211Y-89525331D01*
X87199000Y-89177384D01*
X87199000Y-88822616D01*
X87268211Y-88474669D01*
X87403974Y-88146908D01*
X87601074Y-87851927D01*
X87851927Y-87601074D01*
X88146908Y-87403974D01*
X88474669Y-87268211D01*
X88822616Y-87199000D01*
X89177384Y-87199000D01*
X89525331Y-87268211D01*
X89525331Y-87268211D01*
G37*
G36*
X76163621Y-87426313D02*
X76163624Y-87426314D01*
X76163625Y-87426314D01*
X76324039Y-87474975D01*
X76324041Y-87474976D01*
X76324044Y-87474977D01*
X76471878Y-87553995D01*
X76601459Y-87660341D01*
X76707805Y-87789922D01*
X76786823Y-87937756D01*
X76835487Y-88098179D01*
X76851917Y-88265000D01*
X76835487Y-88431821D01*
X76835486Y-88431824D01*
X76835486Y-88431825D01*
X76822490Y-88474668D01*
X76786823Y-88592244D01*
X76707805Y-88740078D01*
X76601459Y-88869659D01*
X76471878Y-88976005D01*
X76324044Y-89055023D01*
X76324041Y-89055024D01*
X76324039Y-89055025D01*
X76163625Y-89103686D01*
X76163624Y-89103686D01*
X76163621Y-89103687D01*
X76038604Y-89116000D01*
X75954996Y-89116000D01*
X75829979Y-89103687D01*
X75829976Y-89103686D01*
X75829975Y-89103686D01*
X75669561Y-89055025D01*
X75669559Y-89055024D01*
X75669556Y-89055023D01*
X75521722Y-88976005D01*
X75392141Y-88869659D01*
X75285795Y-88740078D01*
X75206777Y-88592244D01*
X75171111Y-88474668D01*
X75158114Y-88431825D01*
X75158114Y-88431824D01*
X75158113Y-88431821D01*
X75141683Y-88265000D01*
X75158113Y-88098179D01*
X75206777Y-87937756D01*
X75285795Y-87789922D01*
X75392141Y-87660341D01*
X75521722Y-87553995D01*
X75669556Y-87474977D01*
X75669559Y-87474976D01*
X75669561Y-87474975D01*
X75829975Y-87426314D01*
X75829976Y-87426314D01*
X75829979Y-87426313D01*
X75954996Y-87414000D01*
X76038604Y-87414000D01*
X76163621Y-87426313D01*
X76163621Y-87426313D01*
G37*
G36*
X78703621Y-87426313D02*
X78703624Y-87426314D01*
X78703625Y-87426314D01*
X78864039Y-87474975D01*
X78864041Y-87474976D01*
X78864044Y-87474977D01*
X79011878Y-87553995D01*
X79141459Y-87660341D01*
X79247805Y-87789922D01*
X79326823Y-87937756D01*
X79375487Y-88098179D01*
X79391917Y-88265000D01*
X79375487Y-88431821D01*
X79375486Y-88431824D01*
X79375486Y-88431825D01*
X79362490Y-88474668D01*
X79326823Y-88592244D01*
X79247805Y-88740078D01*
X79141459Y-88869659D01*
X79011878Y-88976005D01*
X78864044Y-89055023D01*
X78864041Y-89055024D01*
X78864039Y-89055025D01*
X78703625Y-89103686D01*
X78703624Y-89103686D01*
X78703621Y-89103687D01*
X78578604Y-89116000D01*
X78494996Y-89116000D01*
X78369979Y-89103687D01*
X78369976Y-89103686D01*
X78369975Y-89103686D01*
X78209561Y-89055025D01*
X78209559Y-89055024D01*
X78209556Y-89055023D01*
X78061722Y-88976005D01*
X77932141Y-88869659D01*
X77825795Y-88740078D01*
X77746777Y-88592244D01*
X77711111Y-88474668D01*
X77698114Y-88431825D01*
X77698114Y-88431824D01*
X77698113Y-88431821D01*
X77681683Y-88265000D01*
X77698113Y-88098179D01*
X77746777Y-87937756D01*
X77825795Y-87789922D01*
X77932141Y-87660341D01*
X78061722Y-87553995D01*
X78209556Y-87474977D01*
X78209559Y-87474976D01*
X78209561Y-87474975D01*
X78369975Y-87426314D01*
X78369976Y-87426314D01*
X78369979Y-87426313D01*
X78494996Y-87414000D01*
X78578604Y-87414000D01*
X78703621Y-87426313D01*
X78703621Y-87426313D01*
G37*
G36*
X43827800Y-89116000D02*
X42125800Y-89116000D01*
X42125800Y-87414000D01*
X43827800Y-87414000D01*
X43827800Y-89116000D01*
X43827800Y-89116000D01*
G37*
G36*
X45683621Y-87426313D02*
X45683624Y-87426314D01*
X45683625Y-87426314D01*
X45844039Y-87474975D01*
X45844041Y-87474976D01*
X45844044Y-87474977D01*
X45991878Y-87553995D01*
X46121459Y-87660341D01*
X46227805Y-87789922D01*
X46306823Y-87937756D01*
X46355487Y-88098179D01*
X46371917Y-88265000D01*
X46355487Y-88431821D01*
X46355486Y-88431824D01*
X46355486Y-88431825D01*
X46342490Y-88474668D01*
X46306823Y-88592244D01*
X46227805Y-88740078D01*
X46121459Y-88869659D01*
X45991878Y-88976005D01*
X45844044Y-89055023D01*
X45844041Y-89055024D01*
X45844039Y-89055025D01*
X45683625Y-89103686D01*
X45683624Y-89103686D01*
X45683621Y-89103687D01*
X45558604Y-89116000D01*
X45474996Y-89116000D01*
X45349979Y-89103687D01*
X45349976Y-89103686D01*
X45349975Y-89103686D01*
X45189561Y-89055025D01*
X45189559Y-89055024D01*
X45189556Y-89055023D01*
X45041722Y-88976005D01*
X44912141Y-88869659D01*
X44805795Y-88740078D01*
X44726777Y-88592244D01*
X44691111Y-88474668D01*
X44678114Y-88431825D01*
X44678114Y-88431824D01*
X44678113Y-88431821D01*
X44661683Y-88265000D01*
X44678113Y-88098179D01*
X44726777Y-87937756D01*
X44805795Y-87789922D01*
X44912141Y-87660341D01*
X45041722Y-87553995D01*
X45189556Y-87474977D01*
X45189559Y-87474976D01*
X45189561Y-87474975D01*
X45349975Y-87426314D01*
X45349976Y-87426314D01*
X45349979Y-87426313D01*
X45474996Y-87414000D01*
X45558604Y-87414000D01*
X45683621Y-87426313D01*
X45683621Y-87426313D01*
G37*
G36*
X48223621Y-87426313D02*
X48223624Y-87426314D01*
X48223625Y-87426314D01*
X48384039Y-87474975D01*
X48384041Y-87474976D01*
X48384044Y-87474977D01*
X48531878Y-87553995D01*
X48661459Y-87660341D01*
X48767805Y-87789922D01*
X48846823Y-87937756D01*
X48895487Y-88098179D01*
X48911917Y-88265000D01*
X48895487Y-88431821D01*
X48895486Y-88431824D01*
X48895486Y-88431825D01*
X48882490Y-88474668D01*
X48846823Y-88592244D01*
X48767805Y-88740078D01*
X48661459Y-88869659D01*
X48531878Y-88976005D01*
X48384044Y-89055023D01*
X48384041Y-89055024D01*
X48384039Y-89055025D01*
X48223625Y-89103686D01*
X48223624Y-89103686D01*
X48223621Y-89103687D01*
X48098604Y-89116000D01*
X48014996Y-89116000D01*
X47889979Y-89103687D01*
X47889976Y-89103686D01*
X47889975Y-89103686D01*
X47729561Y-89055025D01*
X47729559Y-89055024D01*
X47729556Y-89055023D01*
X47581722Y-88976005D01*
X47452141Y-88869659D01*
X47345795Y-88740078D01*
X47266777Y-88592244D01*
X47231111Y-88474668D01*
X47218114Y-88431825D01*
X47218114Y-88431824D01*
X47218113Y-88431821D01*
X47201683Y-88265000D01*
X47218113Y-88098179D01*
X47266777Y-87937756D01*
X47345795Y-87789922D01*
X47452141Y-87660341D01*
X47581722Y-87553995D01*
X47729556Y-87474977D01*
X47729559Y-87474976D01*
X47729561Y-87474975D01*
X47889975Y-87426314D01*
X47889976Y-87426314D01*
X47889979Y-87426313D01*
X48014996Y-87414000D01*
X48098604Y-87414000D01*
X48223621Y-87426313D01*
X48223621Y-87426313D01*
G37*
G36*
X50763621Y-87426313D02*
X50763624Y-87426314D01*
X50763625Y-87426314D01*
X50924039Y-87474975D01*
X50924041Y-87474976D01*
X50924044Y-87474977D01*
X51071878Y-87553995D01*
X51201459Y-87660341D01*
X51307805Y-87789922D01*
X51386823Y-87937756D01*
X51435487Y-88098179D01*
X51451917Y-88265000D01*
X51435487Y-88431821D01*
X51435486Y-88431824D01*
X51435486Y-88431825D01*
X51422490Y-88474668D01*
X51386823Y-88592244D01*
X51307805Y-88740078D01*
X51201459Y-88869659D01*
X51071878Y-88976005D01*
X50924044Y-89055023D01*
X50924041Y-89055024D01*
X50924039Y-89055025D01*
X50763625Y-89103686D01*
X50763624Y-89103686D01*
X50763621Y-89103687D01*
X50638604Y-89116000D01*
X50554996Y-89116000D01*
X50429979Y-89103687D01*
X50429976Y-89103686D01*
X50429975Y-89103686D01*
X50269561Y-89055025D01*
X50269559Y-89055024D01*
X50269556Y-89055023D01*
X50121722Y-88976005D01*
X49992141Y-88869659D01*
X49885795Y-88740078D01*
X49806777Y-88592244D01*
X49771111Y-88474668D01*
X49758114Y-88431825D01*
X49758114Y-88431824D01*
X49758113Y-88431821D01*
X49741683Y-88265000D01*
X49758113Y-88098179D01*
X49806777Y-87937756D01*
X49885795Y-87789922D01*
X49992141Y-87660341D01*
X50121722Y-87553995D01*
X50269556Y-87474977D01*
X50269559Y-87474976D01*
X50269561Y-87474975D01*
X50429975Y-87426314D01*
X50429976Y-87426314D01*
X50429979Y-87426313D01*
X50554996Y-87414000D01*
X50638604Y-87414000D01*
X50763621Y-87426313D01*
X50763621Y-87426313D01*
G37*
G36*
X53303621Y-87426313D02*
X53303624Y-87426314D01*
X53303625Y-87426314D01*
X53464039Y-87474975D01*
X53464041Y-87474976D01*
X53464044Y-87474977D01*
X53611878Y-87553995D01*
X53741459Y-87660341D01*
X53847805Y-87789922D01*
X53926823Y-87937756D01*
X53975487Y-88098179D01*
X53991917Y-88265000D01*
X53975487Y-88431821D01*
X53975486Y-88431824D01*
X53975486Y-88431825D01*
X53962490Y-88474668D01*
X53926823Y-88592244D01*
X53847805Y-88740078D01*
X53741459Y-88869659D01*
X53611878Y-88976005D01*
X53464044Y-89055023D01*
X53464041Y-89055024D01*
X53464039Y-89055025D01*
X53303625Y-89103686D01*
X53303624Y-89103686D01*
X53303621Y-89103687D01*
X53178604Y-89116000D01*
X53094996Y-89116000D01*
X52969979Y-89103687D01*
X52969976Y-89103686D01*
X52969975Y-89103686D01*
X52809561Y-89055025D01*
X52809559Y-89055024D01*
X52809556Y-89055023D01*
X52661722Y-88976005D01*
X52532141Y-88869659D01*
X52425795Y-88740078D01*
X52346777Y-88592244D01*
X52311111Y-88474668D01*
X52298114Y-88431825D01*
X52298114Y-88431824D01*
X52298113Y-88431821D01*
X52281683Y-88265000D01*
X52298113Y-88098179D01*
X52346777Y-87937756D01*
X52425795Y-87789922D01*
X52532141Y-87660341D01*
X52661722Y-87553995D01*
X52809556Y-87474977D01*
X52809559Y-87474976D01*
X52809561Y-87474975D01*
X52969975Y-87426314D01*
X52969976Y-87426314D01*
X52969979Y-87426313D01*
X53094996Y-87414000D01*
X53178604Y-87414000D01*
X53303621Y-87426313D01*
X53303621Y-87426313D01*
G37*
G36*
X55843621Y-87426313D02*
X55843624Y-87426314D01*
X55843625Y-87426314D01*
X56004039Y-87474975D01*
X56004041Y-87474976D01*
X56004044Y-87474977D01*
X56151878Y-87553995D01*
X56281459Y-87660341D01*
X56387805Y-87789922D01*
X56466823Y-87937756D01*
X56515487Y-88098179D01*
X56531917Y-88265000D01*
X56515487Y-88431821D01*
X56515486Y-88431824D01*
X56515486Y-88431825D01*
X56502490Y-88474668D01*
X56466823Y-88592244D01*
X56387805Y-88740078D01*
X56281459Y-88869659D01*
X56151878Y-88976005D01*
X56004044Y-89055023D01*
X56004041Y-89055024D01*
X56004039Y-89055025D01*
X55843625Y-89103686D01*
X55843624Y-89103686D01*
X55843621Y-89103687D01*
X55718604Y-89116000D01*
X55634996Y-89116000D01*
X55509979Y-89103687D01*
X55509976Y-89103686D01*
X55509975Y-89103686D01*
X55349561Y-89055025D01*
X55349559Y-89055024D01*
X55349556Y-89055023D01*
X55201722Y-88976005D01*
X55072141Y-88869659D01*
X54965795Y-88740078D01*
X54886777Y-88592244D01*
X54851111Y-88474668D01*
X54838114Y-88431825D01*
X54838114Y-88431824D01*
X54838113Y-88431821D01*
X54821683Y-88265000D01*
X54838113Y-88098179D01*
X54886777Y-87937756D01*
X54965795Y-87789922D01*
X55072141Y-87660341D01*
X55201722Y-87553995D01*
X55349556Y-87474977D01*
X55349559Y-87474976D01*
X55349561Y-87474975D01*
X55509975Y-87426314D01*
X55509976Y-87426314D01*
X55509979Y-87426313D01*
X55634996Y-87414000D01*
X55718604Y-87414000D01*
X55843621Y-87426313D01*
X55843621Y-87426313D01*
G37*
G36*
X58383621Y-87426313D02*
X58383624Y-87426314D01*
X58383625Y-87426314D01*
X58544039Y-87474975D01*
X58544041Y-87474976D01*
X58544044Y-87474977D01*
X58691878Y-87553995D01*
X58821459Y-87660341D01*
X58927805Y-87789922D01*
X59006823Y-87937756D01*
X59055487Y-88098179D01*
X59071917Y-88265000D01*
X59055487Y-88431821D01*
X59055486Y-88431824D01*
X59055486Y-88431825D01*
X59042490Y-88474668D01*
X59006823Y-88592244D01*
X58927805Y-88740078D01*
X58821459Y-88869659D01*
X58691878Y-88976005D01*
X58544044Y-89055023D01*
X58544041Y-89055024D01*
X58544039Y-89055025D01*
X58383625Y-89103686D01*
X58383624Y-89103686D01*
X58383621Y-89103687D01*
X58258604Y-89116000D01*
X58174996Y-89116000D01*
X58049979Y-89103687D01*
X58049976Y-89103686D01*
X58049975Y-89103686D01*
X57889561Y-89055025D01*
X57889559Y-89055024D01*
X57889556Y-89055023D01*
X57741722Y-88976005D01*
X57612141Y-88869659D01*
X57505795Y-88740078D01*
X57426777Y-88592244D01*
X57391111Y-88474668D01*
X57378114Y-88431825D01*
X57378114Y-88431824D01*
X57378113Y-88431821D01*
X57361683Y-88265000D01*
X57378113Y-88098179D01*
X57426777Y-87937756D01*
X57505795Y-87789922D01*
X57612141Y-87660341D01*
X57741722Y-87553995D01*
X57889556Y-87474977D01*
X57889559Y-87474976D01*
X57889561Y-87474975D01*
X58049975Y-87426314D01*
X58049976Y-87426314D01*
X58049979Y-87426313D01*
X58174996Y-87414000D01*
X58258604Y-87414000D01*
X58383621Y-87426313D01*
X58383621Y-87426313D01*
G37*
G36*
X60923621Y-87426313D02*
X60923624Y-87426314D01*
X60923625Y-87426314D01*
X61084039Y-87474975D01*
X61084041Y-87474976D01*
X61084044Y-87474977D01*
X61231878Y-87553995D01*
X61361459Y-87660341D01*
X61467805Y-87789922D01*
X61546823Y-87937756D01*
X61595487Y-88098179D01*
X61611917Y-88265000D01*
X61595487Y-88431821D01*
X61595486Y-88431824D01*
X61595486Y-88431825D01*
X61582490Y-88474668D01*
X61546823Y-88592244D01*
X61467805Y-88740078D01*
X61361459Y-88869659D01*
X61231878Y-88976005D01*
X61084044Y-89055023D01*
X61084041Y-89055024D01*
X61084039Y-89055025D01*
X60923625Y-89103686D01*
X60923624Y-89103686D01*
X60923621Y-89103687D01*
X60798604Y-89116000D01*
X60714996Y-89116000D01*
X60589979Y-89103687D01*
X60589976Y-89103686D01*
X60589975Y-89103686D01*
X60429561Y-89055025D01*
X60429559Y-89055024D01*
X60429556Y-89055023D01*
X60281722Y-88976005D01*
X60152141Y-88869659D01*
X60045795Y-88740078D01*
X59966777Y-88592244D01*
X59931111Y-88474668D01*
X59918114Y-88431825D01*
X59918114Y-88431824D01*
X59918113Y-88431821D01*
X59901683Y-88265000D01*
X59918113Y-88098179D01*
X59966777Y-87937756D01*
X60045795Y-87789922D01*
X60152141Y-87660341D01*
X60281722Y-87553995D01*
X60429556Y-87474977D01*
X60429559Y-87474976D01*
X60429561Y-87474975D01*
X60589975Y-87426314D01*
X60589976Y-87426314D01*
X60589979Y-87426313D01*
X60714996Y-87414000D01*
X60798604Y-87414000D01*
X60923621Y-87426313D01*
X60923621Y-87426313D01*
G37*
G36*
X66003621Y-87426313D02*
X66003624Y-87426314D01*
X66003625Y-87426314D01*
X66164039Y-87474975D01*
X66164041Y-87474976D01*
X66164044Y-87474977D01*
X66311878Y-87553995D01*
X66441459Y-87660341D01*
X66547805Y-87789922D01*
X66626823Y-87937756D01*
X66675487Y-88098179D01*
X66691917Y-88265000D01*
X66675487Y-88431821D01*
X66675486Y-88431824D01*
X66675486Y-88431825D01*
X66662490Y-88474668D01*
X66626823Y-88592244D01*
X66547805Y-88740078D01*
X66441459Y-88869659D01*
X66311878Y-88976005D01*
X66164044Y-89055023D01*
X66164041Y-89055024D01*
X66164039Y-89055025D01*
X66003625Y-89103686D01*
X66003624Y-89103686D01*
X66003621Y-89103687D01*
X65878604Y-89116000D01*
X65794996Y-89116000D01*
X65669979Y-89103687D01*
X65669976Y-89103686D01*
X65669975Y-89103686D01*
X65509561Y-89055025D01*
X65509559Y-89055024D01*
X65509556Y-89055023D01*
X65361722Y-88976005D01*
X65232141Y-88869659D01*
X65125795Y-88740078D01*
X65046777Y-88592244D01*
X65011111Y-88474668D01*
X64998114Y-88431825D01*
X64998114Y-88431824D01*
X64998113Y-88431821D01*
X64981683Y-88265000D01*
X64998113Y-88098179D01*
X65046777Y-87937756D01*
X65125795Y-87789922D01*
X65232141Y-87660341D01*
X65361722Y-87553995D01*
X65509556Y-87474977D01*
X65509559Y-87474976D01*
X65509561Y-87474975D01*
X65669975Y-87426314D01*
X65669976Y-87426314D01*
X65669979Y-87426313D01*
X65794996Y-87414000D01*
X65878604Y-87414000D01*
X66003621Y-87426313D01*
X66003621Y-87426313D01*
G37*
G36*
X68543621Y-87426313D02*
X68543624Y-87426314D01*
X68543625Y-87426314D01*
X68704039Y-87474975D01*
X68704041Y-87474976D01*
X68704044Y-87474977D01*
X68851878Y-87553995D01*
X68981459Y-87660341D01*
X69087805Y-87789922D01*
X69166823Y-87937756D01*
X69215487Y-88098179D01*
X69231917Y-88265000D01*
X69215487Y-88431821D01*
X69215486Y-88431824D01*
X69215486Y-88431825D01*
X69202490Y-88474668D01*
X69166823Y-88592244D01*
X69087805Y-88740078D01*
X68981459Y-88869659D01*
X68851878Y-88976005D01*
X68704044Y-89055023D01*
X68704041Y-89055024D01*
X68704039Y-89055025D01*
X68543625Y-89103686D01*
X68543624Y-89103686D01*
X68543621Y-89103687D01*
X68418604Y-89116000D01*
X68334996Y-89116000D01*
X68209979Y-89103687D01*
X68209976Y-89103686D01*
X68209975Y-89103686D01*
X68049561Y-89055025D01*
X68049559Y-89055024D01*
X68049556Y-89055023D01*
X67901722Y-88976005D01*
X67772141Y-88869659D01*
X67665795Y-88740078D01*
X67586777Y-88592244D01*
X67551111Y-88474668D01*
X67538114Y-88431825D01*
X67538114Y-88431824D01*
X67538113Y-88431821D01*
X67521683Y-88265000D01*
X67538113Y-88098179D01*
X67586777Y-87937756D01*
X67665795Y-87789922D01*
X67772141Y-87660341D01*
X67901722Y-87553995D01*
X68049556Y-87474977D01*
X68049559Y-87474976D01*
X68049561Y-87474975D01*
X68209975Y-87426314D01*
X68209976Y-87426314D01*
X68209979Y-87426313D01*
X68334996Y-87414000D01*
X68418604Y-87414000D01*
X68543621Y-87426313D01*
X68543621Y-87426313D01*
G37*
G36*
X71083621Y-87426313D02*
X71083624Y-87426314D01*
X71083625Y-87426314D01*
X71244039Y-87474975D01*
X71244041Y-87474976D01*
X71244044Y-87474977D01*
X71391878Y-87553995D01*
X71521459Y-87660341D01*
X71627805Y-87789922D01*
X71706823Y-87937756D01*
X71755487Y-88098179D01*
X71771917Y-88265000D01*
X71755487Y-88431821D01*
X71755486Y-88431824D01*
X71755486Y-88431825D01*
X71742490Y-88474668D01*
X71706823Y-88592244D01*
X71627805Y-88740078D01*
X71521459Y-88869659D01*
X71391878Y-88976005D01*
X71244044Y-89055023D01*
X71244041Y-89055024D01*
X71244039Y-89055025D01*
X71083625Y-89103686D01*
X71083624Y-89103686D01*
X71083621Y-89103687D01*
X70958604Y-89116000D01*
X70874996Y-89116000D01*
X70749979Y-89103687D01*
X70749976Y-89103686D01*
X70749975Y-89103686D01*
X70589561Y-89055025D01*
X70589559Y-89055024D01*
X70589556Y-89055023D01*
X70441722Y-88976005D01*
X70312141Y-88869659D01*
X70205795Y-88740078D01*
X70126777Y-88592244D01*
X70091111Y-88474668D01*
X70078114Y-88431825D01*
X70078114Y-88431824D01*
X70078113Y-88431821D01*
X70061683Y-88265000D01*
X70078113Y-88098179D01*
X70126777Y-87937756D01*
X70205795Y-87789922D01*
X70312141Y-87660341D01*
X70441722Y-87553995D01*
X70589556Y-87474977D01*
X70589559Y-87474976D01*
X70589561Y-87474975D01*
X70749975Y-87426314D01*
X70749976Y-87426314D01*
X70749979Y-87426313D01*
X70874996Y-87414000D01*
X70958604Y-87414000D01*
X71083621Y-87426313D01*
X71083621Y-87426313D01*
G37*
G36*
X73623621Y-87426313D02*
X73623624Y-87426314D01*
X73623625Y-87426314D01*
X73784039Y-87474975D01*
X73784041Y-87474976D01*
X73784044Y-87474977D01*
X73931878Y-87553995D01*
X74061459Y-87660341D01*
X74167805Y-87789922D01*
X74246823Y-87937756D01*
X74295487Y-88098179D01*
X74311917Y-88265000D01*
X74295487Y-88431821D01*
X74295486Y-88431824D01*
X74295486Y-88431825D01*
X74282490Y-88474668D01*
X74246823Y-88592244D01*
X74167805Y-88740078D01*
X74061459Y-88869659D01*
X73931878Y-88976005D01*
X73784044Y-89055023D01*
X73784041Y-89055024D01*
X73784039Y-89055025D01*
X73623625Y-89103686D01*
X73623624Y-89103686D01*
X73623621Y-89103687D01*
X73498604Y-89116000D01*
X73414996Y-89116000D01*
X73289979Y-89103687D01*
X73289976Y-89103686D01*
X73289975Y-89103686D01*
X73129561Y-89055025D01*
X73129559Y-89055024D01*
X73129556Y-89055023D01*
X72981722Y-88976005D01*
X72852141Y-88869659D01*
X72745795Y-88740078D01*
X72666777Y-88592244D01*
X72631111Y-88474668D01*
X72618114Y-88431825D01*
X72618114Y-88431824D01*
X72618113Y-88431821D01*
X72601683Y-88265000D01*
X72618113Y-88098179D01*
X72666777Y-87937756D01*
X72745795Y-87789922D01*
X72852141Y-87660341D01*
X72981722Y-87553995D01*
X73129556Y-87474977D01*
X73129559Y-87474976D01*
X73129561Y-87474975D01*
X73289975Y-87426314D01*
X73289976Y-87426314D01*
X73289979Y-87426313D01*
X73414996Y-87414000D01*
X73498604Y-87414000D01*
X73623621Y-87426313D01*
X73623621Y-87426313D01*
G37*
G36*
X63695000Y-85687000D02*
X60593000Y-85687000D01*
X60593000Y-83985000D01*
X63695000Y-83985000D01*
X63695000Y-85687000D01*
X63695000Y-85687000D01*
G37*
G36*
X59295000Y-85687000D02*
X56193000Y-85687000D01*
X56193000Y-83985000D01*
X59295000Y-83985000D01*
X59295000Y-85687000D01*
X59295000Y-85687000D01*
G37*
G36*
X59128677Y-80025465D02*
X59166364Y-80036898D01*
X59201103Y-80055466D01*
X59231548Y-80080452D01*
X59256534Y-80110897D01*
X59275102Y-80145636D01*
X59286535Y-80183323D01*
X59291000Y-80228661D01*
X59291000Y-81315339D01*
X59286535Y-81360677D01*
X59275102Y-81398364D01*
X59256534Y-81433103D01*
X59231548Y-81463548D01*
X59201103Y-81488534D01*
X59166364Y-81507102D01*
X59128677Y-81518535D01*
X59083339Y-81523000D01*
X58246661Y-81523000D01*
X58201323Y-81518535D01*
X58163636Y-81507102D01*
X58128897Y-81488534D01*
X58098452Y-81463548D01*
X58073466Y-81433103D01*
X58054898Y-81398364D01*
X58043465Y-81360677D01*
X58039000Y-81315339D01*
X58039000Y-80228661D01*
X58043465Y-80183323D01*
X58054898Y-80145636D01*
X58073466Y-80110897D01*
X58098452Y-80080452D01*
X58128897Y-80055466D01*
X58163636Y-80036898D01*
X58201323Y-80025465D01*
X58246661Y-80021000D01*
X59083339Y-80021000D01*
X59128677Y-80025465D01*
X59128677Y-80025465D01*
G37*
G36*
X61178677Y-80025465D02*
X61216364Y-80036898D01*
X61251103Y-80055466D01*
X61281548Y-80080452D01*
X61306534Y-80110897D01*
X61325102Y-80145636D01*
X61336535Y-80183323D01*
X61341000Y-80228661D01*
X61341000Y-81315339D01*
X61336535Y-81360677D01*
X61325102Y-81398364D01*
X61306534Y-81433103D01*
X61281548Y-81463548D01*
X61251103Y-81488534D01*
X61216364Y-81507102D01*
X61178677Y-81518535D01*
X61133339Y-81523000D01*
X60296661Y-81523000D01*
X60251323Y-81518535D01*
X60213636Y-81507102D01*
X60178897Y-81488534D01*
X60148452Y-81463548D01*
X60123466Y-81433103D01*
X60104898Y-81398364D01*
X60093465Y-81360677D01*
X60089000Y-81315339D01*
X60089000Y-80228661D01*
X60093465Y-80183323D01*
X60104898Y-80145636D01*
X60123466Y-80110897D01*
X60148452Y-80080452D01*
X60178897Y-80055466D01*
X60213636Y-80036898D01*
X60251323Y-80025465D01*
X60296661Y-80021000D01*
X61133339Y-80021000D01*
X61178677Y-80025465D01*
X61178677Y-80025465D01*
G37*
G36*
X33082800Y-79006000D02*
X31280800Y-79006000D01*
X31280800Y-77204000D01*
X33082800Y-77204000D01*
X33082800Y-79006000D01*
X33082800Y-79006000D01*
G37*
G36*
X50862800Y-77101000D02*
X49060800Y-77101000D01*
X49060800Y-75299000D01*
X50862800Y-75299000D01*
X50862800Y-77101000D01*
X50862800Y-77101000D01*
G37*
G36*
X46736266Y-75666065D02*
X46774937Y-75677796D01*
X46810579Y-75696848D01*
X46841817Y-75722483D01*
X46867452Y-75753721D01*
X46886504Y-75789363D01*
X46898235Y-75828034D01*
X46902800Y-75874388D01*
X46902800Y-76525612D01*
X46898235Y-76571966D01*
X46886504Y-76610637D01*
X46867452Y-76646279D01*
X46841817Y-76677517D01*
X46810579Y-76703152D01*
X46774937Y-76722204D01*
X46736266Y-76733935D01*
X46689912Y-76738500D01*
X45613688Y-76738500D01*
X45567334Y-76733935D01*
X45528663Y-76722204D01*
X45493021Y-76703152D01*
X45461783Y-76677517D01*
X45436148Y-76646279D01*
X45417096Y-76610637D01*
X45405365Y-76571966D01*
X45400800Y-76525612D01*
X45400800Y-75874388D01*
X45405365Y-75828034D01*
X45417096Y-75789363D01*
X45436148Y-75753721D01*
X45461783Y-75722483D01*
X45493021Y-75696848D01*
X45528663Y-75677796D01*
X45567334Y-75666065D01*
X45613688Y-75661500D01*
X46689912Y-75661500D01*
X46736266Y-75666065D01*
X46736266Y-75666065D01*
G37*
G36*
X32292242Y-74670518D02*
X32358427Y-74677037D01*
X32471653Y-74711384D01*
X32528267Y-74728557D01*
X32556853Y-74743837D01*
X32684791Y-74812222D01*
X32720529Y-74841552D01*
X32821986Y-74924814D01*
X32905248Y-75026271D01*
X32934578Y-75062009D01*
X32934579Y-75062011D01*
X33018243Y-75218533D01*
X33018243Y-75218534D01*
X33069763Y-75388373D01*
X33087159Y-75565000D01*
X33069763Y-75741627D01*
X33066094Y-75753721D01*
X33018243Y-75911467D01*
X32944148Y-76050087D01*
X32934578Y-76067991D01*
X32905248Y-76103729D01*
X32821986Y-76205186D01*
X32720529Y-76288448D01*
X32684791Y-76317778D01*
X32684789Y-76317779D01*
X32528267Y-76401443D01*
X32471653Y-76418616D01*
X32358427Y-76452963D01*
X32292243Y-76459481D01*
X32226060Y-76466000D01*
X32137540Y-76466000D01*
X32071357Y-76459481D01*
X32005173Y-76452963D01*
X31891947Y-76418616D01*
X31835333Y-76401443D01*
X31678811Y-76317779D01*
X31678809Y-76317778D01*
X31643071Y-76288448D01*
X31541614Y-76205186D01*
X31458352Y-76103729D01*
X31429022Y-76067991D01*
X31419452Y-76050087D01*
X31345357Y-75911467D01*
X31297506Y-75753721D01*
X31293837Y-75741627D01*
X31276441Y-75565000D01*
X31293837Y-75388373D01*
X31345357Y-75218534D01*
X31345357Y-75218533D01*
X31429021Y-75062011D01*
X31429022Y-75062009D01*
X31458352Y-75026271D01*
X31541614Y-74924814D01*
X31643071Y-74841552D01*
X31678809Y-74812222D01*
X31806747Y-74743837D01*
X31835333Y-74728557D01*
X31891947Y-74711384D01*
X32005173Y-74677037D01*
X32071358Y-74670518D01*
X32137540Y-74664000D01*
X32226060Y-74664000D01*
X32292242Y-74670518D01*
X32292242Y-74670518D01*
G37*
G36*
X46736266Y-73791065D02*
X46774937Y-73802796D01*
X46810579Y-73821848D01*
X46841817Y-73847483D01*
X46867452Y-73878721D01*
X46886504Y-73914363D01*
X46898235Y-73953034D01*
X46902800Y-73999388D01*
X46902800Y-74650612D01*
X46898235Y-74696966D01*
X46886504Y-74735637D01*
X46867452Y-74771279D01*
X46841817Y-74802517D01*
X46810579Y-74828152D01*
X46774937Y-74847204D01*
X46736266Y-74858935D01*
X46689912Y-74863500D01*
X45613688Y-74863500D01*
X45567334Y-74858935D01*
X45528663Y-74847204D01*
X45493021Y-74828152D01*
X45461783Y-74802517D01*
X45436148Y-74771279D01*
X45417096Y-74735637D01*
X45405365Y-74696966D01*
X45400800Y-74650612D01*
X45400800Y-73999388D01*
X45405365Y-73953034D01*
X45417096Y-73914363D01*
X45436148Y-73878721D01*
X45461783Y-73847483D01*
X45493021Y-73821848D01*
X45528663Y-73802796D01*
X45567334Y-73791065D01*
X45613688Y-73786500D01*
X46689912Y-73786500D01*
X46736266Y-73791065D01*
X46736266Y-73791065D01*
G37*
G36*
X50072242Y-72765518D02*
X50138427Y-72772037D01*
X50251653Y-72806384D01*
X50308267Y-72823557D01*
X50446887Y-72897652D01*
X50464791Y-72907222D01*
X50500529Y-72936552D01*
X50601986Y-73019814D01*
X50685248Y-73121271D01*
X50714578Y-73157009D01*
X50714579Y-73157011D01*
X50798243Y-73313533D01*
X50798243Y-73313534D01*
X50849763Y-73483373D01*
X50867159Y-73660000D01*
X50849763Y-73836627D01*
X50826607Y-73912963D01*
X50798243Y-74006467D01*
X50771900Y-74055750D01*
X50714578Y-74162991D01*
X50685248Y-74198729D01*
X50601986Y-74300186D01*
X50500529Y-74383448D01*
X50464791Y-74412778D01*
X50464789Y-74412779D01*
X50308267Y-74496443D01*
X50251653Y-74513616D01*
X50138427Y-74547963D01*
X50072242Y-74554482D01*
X50006060Y-74561000D01*
X49917540Y-74561000D01*
X49851358Y-74554482D01*
X49785173Y-74547963D01*
X49671947Y-74513616D01*
X49615333Y-74496443D01*
X49458811Y-74412779D01*
X49458809Y-74412778D01*
X49423071Y-74383448D01*
X49321614Y-74300186D01*
X49238352Y-74198729D01*
X49209022Y-74162991D01*
X49151700Y-74055750D01*
X49125357Y-74006467D01*
X49096993Y-73912963D01*
X49073837Y-73836627D01*
X49056441Y-73660000D01*
X49073837Y-73483373D01*
X49125357Y-73313534D01*
X49125357Y-73313533D01*
X49209021Y-73157011D01*
X49209022Y-73157009D01*
X49238352Y-73121271D01*
X49321614Y-73019814D01*
X49423071Y-72936552D01*
X49458809Y-72907222D01*
X49476713Y-72897652D01*
X49615333Y-72823557D01*
X49671947Y-72806384D01*
X49785173Y-72772037D01*
X49851358Y-72765518D01*
X49917540Y-72759000D01*
X50006060Y-72759000D01*
X50072242Y-72765518D01*
X50072242Y-72765518D01*
G37*
G36*
X32292243Y-72130519D02*
X32358427Y-72137037D01*
X32471653Y-72171384D01*
X32528267Y-72188557D01*
X32666887Y-72262652D01*
X32684791Y-72272222D01*
X32720529Y-72301552D01*
X32821986Y-72384814D01*
X32905248Y-72486271D01*
X32934578Y-72522009D01*
X32934579Y-72522011D01*
X33018243Y-72678533D01*
X33018243Y-72678534D01*
X33069763Y-72848373D01*
X33087159Y-73025000D01*
X33069763Y-73201627D01*
X33035817Y-73313533D01*
X33018243Y-73371467D01*
X32958427Y-73483373D01*
X32934578Y-73527991D01*
X32905248Y-73563729D01*
X32821986Y-73665186D01*
X32720529Y-73748448D01*
X32684791Y-73777778D01*
X32684789Y-73777779D01*
X32528267Y-73861443D01*
X32471653Y-73878616D01*
X32358427Y-73912963D01*
X32292243Y-73919481D01*
X32226060Y-73926000D01*
X32137540Y-73926000D01*
X32071357Y-73919481D01*
X32005173Y-73912963D01*
X31891947Y-73878616D01*
X31835333Y-73861443D01*
X31678811Y-73777779D01*
X31678809Y-73777778D01*
X31643071Y-73748448D01*
X31541614Y-73665186D01*
X31458352Y-73563729D01*
X31429022Y-73527991D01*
X31405173Y-73483373D01*
X31345357Y-73371467D01*
X31327783Y-73313533D01*
X31293837Y-73201627D01*
X31276441Y-73025000D01*
X31293837Y-72848373D01*
X31345357Y-72678534D01*
X31345357Y-72678533D01*
X31429021Y-72522011D01*
X31429022Y-72522009D01*
X31458352Y-72486271D01*
X31541614Y-72384814D01*
X31643071Y-72301552D01*
X31678809Y-72272222D01*
X31696713Y-72262652D01*
X31835333Y-72188557D01*
X31891947Y-72171384D01*
X32005173Y-72137037D01*
X32071357Y-72130519D01*
X32137540Y-72124000D01*
X32226060Y-72124000D01*
X32292243Y-72130519D01*
X32292243Y-72130519D01*
G37*
G36*
X50072242Y-70225518D02*
X50138427Y-70232037D01*
X50251653Y-70266384D01*
X50308267Y-70283557D01*
X50446887Y-70357652D01*
X50464791Y-70367222D01*
X50500529Y-70396552D01*
X50601986Y-70479814D01*
X50685248Y-70581271D01*
X50714578Y-70617009D01*
X50714579Y-70617011D01*
X50798243Y-70773533D01*
X50798243Y-70773534D01*
X50849763Y-70943373D01*
X50867159Y-71120000D01*
X50849763Y-71296627D01*
X50842235Y-71321443D01*
X50798243Y-71466467D01*
X50725932Y-71601750D01*
X50714578Y-71622991D01*
X50688901Y-71654278D01*
X50601986Y-71760186D01*
X50510029Y-71835652D01*
X50464791Y-71872778D01*
X50464789Y-71872779D01*
X50308267Y-71956443D01*
X50251653Y-71973616D01*
X50138427Y-72007963D01*
X50072243Y-72014481D01*
X50006060Y-72021000D01*
X49917540Y-72021000D01*
X49851357Y-72014481D01*
X49785173Y-72007963D01*
X49671947Y-71973616D01*
X49615333Y-71956443D01*
X49458811Y-71872779D01*
X49458809Y-71872778D01*
X49413571Y-71835652D01*
X49321614Y-71760186D01*
X49234699Y-71654278D01*
X49209022Y-71622991D01*
X49197668Y-71601750D01*
X49125357Y-71466467D01*
X49081365Y-71321443D01*
X49073837Y-71296627D01*
X49056441Y-71120000D01*
X49073837Y-70943373D01*
X49125357Y-70773534D01*
X49125357Y-70773533D01*
X49209021Y-70617011D01*
X49209022Y-70617009D01*
X49238352Y-70581271D01*
X49321614Y-70479814D01*
X49423071Y-70396552D01*
X49458809Y-70367222D01*
X49476713Y-70357652D01*
X49615333Y-70283557D01*
X49671947Y-70266384D01*
X49785173Y-70232037D01*
X49851358Y-70225518D01*
X49917540Y-70219000D01*
X50006060Y-70219000D01*
X50072242Y-70225518D01*
X50072242Y-70225518D01*
G37*
G36*
X81319466Y-70373565D02*
X81358137Y-70385296D01*
X81393779Y-70404348D01*
X81425017Y-70429983D01*
X81450652Y-70461221D01*
X81469704Y-70496863D01*
X81481435Y-70535534D01*
X81486000Y-70581888D01*
X81486000Y-71658112D01*
X81481435Y-71704466D01*
X81469704Y-71743137D01*
X81450652Y-71778779D01*
X81425017Y-71810017D01*
X81393779Y-71835652D01*
X81358137Y-71854704D01*
X81319466Y-71866435D01*
X81273112Y-71871000D01*
X80621888Y-71871000D01*
X80575534Y-71866435D01*
X80536863Y-71854704D01*
X80501221Y-71835652D01*
X80469983Y-71810017D01*
X80444348Y-71778779D01*
X80425296Y-71743137D01*
X80413565Y-71704466D01*
X80409000Y-71658112D01*
X80409000Y-70581888D01*
X80413565Y-70535534D01*
X80425296Y-70496863D01*
X80444348Y-70461221D01*
X80469983Y-70429983D01*
X80501221Y-70404348D01*
X80536863Y-70385296D01*
X80575534Y-70373565D01*
X80621888Y-70369000D01*
X81273112Y-70369000D01*
X81319466Y-70373565D01*
X81319466Y-70373565D01*
G37*
G36*
X79444466Y-70373565D02*
X79483137Y-70385296D01*
X79518779Y-70404348D01*
X79550017Y-70429983D01*
X79575652Y-70461221D01*
X79594704Y-70496863D01*
X79606435Y-70535534D01*
X79611000Y-70581888D01*
X79611000Y-71658112D01*
X79606435Y-71704466D01*
X79594704Y-71743137D01*
X79575652Y-71778779D01*
X79550017Y-71810017D01*
X79518779Y-71835652D01*
X79483137Y-71854704D01*
X79444466Y-71866435D01*
X79398112Y-71871000D01*
X78746888Y-71871000D01*
X78700534Y-71866435D01*
X78661863Y-71854704D01*
X78626221Y-71835652D01*
X78594983Y-71810017D01*
X78569348Y-71778779D01*
X78550296Y-71743137D01*
X78538565Y-71704466D01*
X78534000Y-71658112D01*
X78534000Y-70581888D01*
X78538565Y-70535534D01*
X78550296Y-70496863D01*
X78569348Y-70461221D01*
X78594983Y-70429983D01*
X78626221Y-70404348D01*
X78661863Y-70385296D01*
X78700534Y-70373565D01*
X78746888Y-70369000D01*
X79398112Y-70369000D01*
X79444466Y-70373565D01*
X79444466Y-70373565D01*
G37*
G36*
X32292242Y-69590518D02*
X32358427Y-69597037D01*
X32471653Y-69631384D01*
X32528267Y-69648557D01*
X32666887Y-69722652D01*
X32684791Y-69732222D01*
X32720529Y-69761552D01*
X32821986Y-69844814D01*
X32890664Y-69928500D01*
X32934578Y-69982009D01*
X32934579Y-69982011D01*
X33018243Y-70138533D01*
X33021620Y-70149667D01*
X33069763Y-70308373D01*
X33087159Y-70485000D01*
X33069763Y-70661627D01*
X33035817Y-70773533D01*
X33018243Y-70831467D01*
X32958427Y-70943373D01*
X32934578Y-70987991D01*
X32905248Y-71023729D01*
X32821986Y-71125186D01*
X32720529Y-71208448D01*
X32684791Y-71237778D01*
X32684789Y-71237779D01*
X32528267Y-71321443D01*
X32471653Y-71338616D01*
X32358427Y-71372963D01*
X32292242Y-71379482D01*
X32226060Y-71386000D01*
X32137540Y-71386000D01*
X32071358Y-71379482D01*
X32005173Y-71372963D01*
X31891947Y-71338616D01*
X31835333Y-71321443D01*
X31678811Y-71237779D01*
X31678809Y-71237778D01*
X31643071Y-71208448D01*
X31541614Y-71125186D01*
X31458352Y-71023729D01*
X31429022Y-70987991D01*
X31405173Y-70943373D01*
X31345357Y-70831467D01*
X31327783Y-70773533D01*
X31293837Y-70661627D01*
X31276441Y-70485000D01*
X31293837Y-70308373D01*
X31341980Y-70149667D01*
X31345357Y-70138533D01*
X31429021Y-69982011D01*
X31429022Y-69982009D01*
X31472936Y-69928500D01*
X31541614Y-69844814D01*
X31643071Y-69761552D01*
X31678809Y-69732222D01*
X31696713Y-69722652D01*
X31835333Y-69648557D01*
X31891947Y-69631384D01*
X32005173Y-69597037D01*
X32071358Y-69590518D01*
X32137540Y-69584000D01*
X32226060Y-69584000D01*
X32292242Y-69590518D01*
X32292242Y-69590518D01*
G37*
G36*
X89901483Y-69255725D02*
X89931944Y-69264966D01*
X89960023Y-69279975D01*
X89984631Y-69300169D01*
X90004825Y-69324777D01*
X90019834Y-69352856D01*
X90029075Y-69383317D01*
X90032800Y-69421140D01*
X90032800Y-69984860D01*
X90029075Y-70022683D01*
X90019834Y-70053144D01*
X90004825Y-70081223D01*
X89984631Y-70105831D01*
X89960023Y-70126025D01*
X89931944Y-70141034D01*
X89901483Y-70150275D01*
X89863660Y-70154000D01*
X88799940Y-70154000D01*
X88762117Y-70150275D01*
X88731656Y-70141034D01*
X88703577Y-70126025D01*
X88678969Y-70105831D01*
X88658775Y-70081223D01*
X88643766Y-70053144D01*
X88634525Y-70022683D01*
X88630800Y-69984860D01*
X88630800Y-69421140D01*
X88634525Y-69383317D01*
X88643766Y-69352856D01*
X88658775Y-69324777D01*
X88678969Y-69300169D01*
X88703577Y-69279975D01*
X88731656Y-69264966D01*
X88762117Y-69255725D01*
X88799940Y-69252000D01*
X89863660Y-69252000D01*
X89901483Y-69255725D01*
X89901483Y-69255725D01*
G37*
G36*
X50072243Y-67685519D02*
X50138427Y-67692037D01*
X50251653Y-67726384D01*
X50308267Y-67743557D01*
X50446887Y-67817652D01*
X50464791Y-67827222D01*
X50500529Y-67856552D01*
X50601986Y-67939814D01*
X50679538Y-68034313D01*
X50714578Y-68077009D01*
X50714579Y-68077011D01*
X50798243Y-68233533D01*
X50798243Y-68233534D01*
X50849763Y-68403373D01*
X50867159Y-68580000D01*
X50849763Y-68756627D01*
X50844660Y-68773448D01*
X50798243Y-68926467D01*
X50724148Y-69065087D01*
X50714578Y-69082991D01*
X50685248Y-69118729D01*
X50601986Y-69220186D01*
X50516911Y-69290004D01*
X50464791Y-69332778D01*
X50464789Y-69332779D01*
X50308267Y-69416443D01*
X50252013Y-69433507D01*
X50138427Y-69467963D01*
X50072242Y-69474482D01*
X50006060Y-69481000D01*
X49917540Y-69481000D01*
X49851358Y-69474482D01*
X49785173Y-69467963D01*
X49671587Y-69433507D01*
X49615333Y-69416443D01*
X49458811Y-69332779D01*
X49458809Y-69332778D01*
X49406689Y-69290004D01*
X49321614Y-69220186D01*
X49238352Y-69118729D01*
X49209022Y-69082991D01*
X49199452Y-69065087D01*
X49125357Y-68926467D01*
X49078940Y-68773448D01*
X49073837Y-68756627D01*
X49056441Y-68580000D01*
X49073837Y-68403373D01*
X49125357Y-68233534D01*
X49125357Y-68233533D01*
X49209021Y-68077011D01*
X49209022Y-68077009D01*
X49244062Y-68034313D01*
X49321614Y-67939814D01*
X49423071Y-67856552D01*
X49458809Y-67827222D01*
X49476713Y-67817652D01*
X49615333Y-67743557D01*
X49671947Y-67726384D01*
X49785173Y-67692037D01*
X49851357Y-67685519D01*
X49917540Y-67679000D01*
X50006060Y-67679000D01*
X50072243Y-67685519D01*
X50072243Y-67685519D01*
G37*
G36*
X89670213Y-68008525D02*
X89745256Y-68031290D01*
X89755225Y-68034314D01*
X89833574Y-68076193D01*
X89902248Y-68132552D01*
X89958607Y-68201226D01*
X90000486Y-68279575D01*
X90000487Y-68279579D01*
X90026275Y-68364587D01*
X90034982Y-68453000D01*
X90026275Y-68541413D01*
X90003510Y-68616456D01*
X90000486Y-68626425D01*
X89958607Y-68704774D01*
X89902248Y-68773448D01*
X89833574Y-68829807D01*
X89755225Y-68871686D01*
X89745256Y-68874710D01*
X89670213Y-68897475D01*
X89603958Y-68904000D01*
X89059642Y-68904000D01*
X88993387Y-68897475D01*
X88918344Y-68874710D01*
X88908375Y-68871686D01*
X88830026Y-68829807D01*
X88761352Y-68773448D01*
X88704993Y-68704774D01*
X88663114Y-68626425D01*
X88660090Y-68616456D01*
X88637325Y-68541413D01*
X88628618Y-68453000D01*
X88637325Y-68364587D01*
X88663113Y-68279579D01*
X88663114Y-68279575D01*
X88704993Y-68201226D01*
X88761352Y-68132552D01*
X88830026Y-68076193D01*
X88908375Y-68034314D01*
X88918344Y-68031290D01*
X88993387Y-68008525D01*
X89059642Y-68002000D01*
X89603958Y-68002000D01*
X89670213Y-68008525D01*
X89670213Y-68008525D01*
G37*
G36*
X32292243Y-67050519D02*
X32358427Y-67057037D01*
X32471653Y-67091384D01*
X32528267Y-67108557D01*
X32666887Y-67182652D01*
X32684791Y-67192222D01*
X32720529Y-67221552D01*
X32821986Y-67304814D01*
X32905248Y-67406271D01*
X32934578Y-67442009D01*
X32934579Y-67442011D01*
X33018243Y-67598533D01*
X33033089Y-67647474D01*
X33069763Y-67768373D01*
X33087159Y-67945000D01*
X33069763Y-68121627D01*
X33045617Y-68201225D01*
X33018243Y-68291467D01*
X32979159Y-68364587D01*
X32934578Y-68447991D01*
X32930467Y-68453000D01*
X32821986Y-68585186D01*
X32720529Y-68668448D01*
X32684791Y-68697778D01*
X32671701Y-68704775D01*
X32528267Y-68781443D01*
X32471653Y-68798616D01*
X32358427Y-68832963D01*
X32292243Y-68839481D01*
X32226060Y-68846000D01*
X32137540Y-68846000D01*
X32071357Y-68839481D01*
X32005173Y-68832963D01*
X31891947Y-68798616D01*
X31835333Y-68781443D01*
X31691899Y-68704775D01*
X31678809Y-68697778D01*
X31643071Y-68668448D01*
X31541614Y-68585186D01*
X31433133Y-68453000D01*
X31429022Y-68447991D01*
X31384441Y-68364587D01*
X31345357Y-68291467D01*
X31317983Y-68201225D01*
X31293837Y-68121627D01*
X31276441Y-67945000D01*
X31293837Y-67768373D01*
X31330511Y-67647474D01*
X31345357Y-67598533D01*
X31429021Y-67442011D01*
X31429022Y-67442009D01*
X31458352Y-67406271D01*
X31541614Y-67304814D01*
X31643071Y-67221552D01*
X31678809Y-67192222D01*
X31696713Y-67182652D01*
X31835333Y-67108557D01*
X31891947Y-67091384D01*
X32005173Y-67057037D01*
X32071357Y-67050519D01*
X32137540Y-67044000D01*
X32226060Y-67044000D01*
X32292243Y-67050519D01*
X32292243Y-67050519D01*
G37*
G36*
X89670213Y-66758525D02*
X89745256Y-66781290D01*
X89755225Y-66784314D01*
X89833574Y-66826193D01*
X89902248Y-66882552D01*
X89958607Y-66951226D01*
X90000486Y-67029575D01*
X90000487Y-67029579D01*
X90026275Y-67114587D01*
X90034982Y-67203000D01*
X90026275Y-67291413D01*
X90003510Y-67366456D01*
X90000486Y-67376425D01*
X89958607Y-67454774D01*
X89902248Y-67523448D01*
X89833574Y-67579807D01*
X89755225Y-67621686D01*
X89745256Y-67624710D01*
X89670213Y-67647475D01*
X89603958Y-67654000D01*
X89059642Y-67654000D01*
X88993387Y-67647475D01*
X88918344Y-67624710D01*
X88908375Y-67621686D01*
X88830026Y-67579807D01*
X88761352Y-67523448D01*
X88704993Y-67454774D01*
X88663114Y-67376425D01*
X88660090Y-67366456D01*
X88637325Y-67291413D01*
X88628618Y-67203000D01*
X88637325Y-67114587D01*
X88663113Y-67029579D01*
X88663114Y-67029575D01*
X88704993Y-66951226D01*
X88761352Y-66882552D01*
X88830026Y-66826193D01*
X88908375Y-66784314D01*
X88918344Y-66781290D01*
X88993387Y-66758525D01*
X89059642Y-66752000D01*
X89603958Y-66752000D01*
X89670213Y-66758525D01*
X89670213Y-66758525D01*
G37*
G36*
X50072242Y-65145518D02*
X50138427Y-65152037D01*
X50251653Y-65186384D01*
X50308267Y-65203557D01*
X50446887Y-65277652D01*
X50464791Y-65287222D01*
X50500529Y-65316552D01*
X50601986Y-65399814D01*
X50685248Y-65501271D01*
X50714578Y-65537009D01*
X50714579Y-65537011D01*
X50798243Y-65693533D01*
X50815416Y-65750147D01*
X50849763Y-65863373D01*
X50867159Y-66040000D01*
X50849763Y-66216627D01*
X50826607Y-66292963D01*
X50798243Y-66386467D01*
X50792359Y-66397475D01*
X50714578Y-66542991D01*
X50685248Y-66578729D01*
X50601986Y-66680186D01*
X50514479Y-66752000D01*
X50464791Y-66792778D01*
X50464789Y-66792779D01*
X50308267Y-66876443D01*
X50251653Y-66893616D01*
X50138427Y-66927963D01*
X50072242Y-66934482D01*
X50006060Y-66941000D01*
X49917540Y-66941000D01*
X49851358Y-66934482D01*
X49785173Y-66927963D01*
X49671947Y-66893616D01*
X49615333Y-66876443D01*
X49458811Y-66792779D01*
X49458809Y-66792778D01*
X49409121Y-66752000D01*
X49321614Y-66680186D01*
X49238352Y-66578729D01*
X49209022Y-66542991D01*
X49131241Y-66397475D01*
X49125357Y-66386467D01*
X49096993Y-66292963D01*
X49073837Y-66216627D01*
X49056441Y-66040000D01*
X49073837Y-65863373D01*
X49108184Y-65750147D01*
X49125357Y-65693533D01*
X49209021Y-65537011D01*
X49209022Y-65537009D01*
X49238352Y-65501271D01*
X49321614Y-65399814D01*
X49423071Y-65316552D01*
X49458809Y-65287222D01*
X49476713Y-65277652D01*
X49615333Y-65203557D01*
X49671947Y-65186384D01*
X49785173Y-65152037D01*
X49851358Y-65145518D01*
X49917540Y-65139000D01*
X50006060Y-65139000D01*
X50072242Y-65145518D01*
X50072242Y-65145518D01*
G37*
G36*
X89670213Y-65508525D02*
X89745256Y-65531290D01*
X89755225Y-65534314D01*
X89833574Y-65576193D01*
X89902248Y-65632552D01*
X89958607Y-65701226D01*
X90000486Y-65779575D01*
X90000487Y-65779579D01*
X90026275Y-65864587D01*
X90034982Y-65953000D01*
X90026275Y-66041413D01*
X90003510Y-66116456D01*
X90000486Y-66126425D01*
X89958607Y-66204774D01*
X89902248Y-66273448D01*
X89833574Y-66329807D01*
X89755225Y-66371686D01*
X89745256Y-66374710D01*
X89670213Y-66397475D01*
X89603958Y-66404000D01*
X89059642Y-66404000D01*
X88993387Y-66397475D01*
X88918344Y-66374710D01*
X88908375Y-66371686D01*
X88830026Y-66329807D01*
X88761352Y-66273448D01*
X88704993Y-66204774D01*
X88663114Y-66126425D01*
X88660090Y-66116456D01*
X88637325Y-66041413D01*
X88628618Y-65953000D01*
X88637325Y-65864587D01*
X88663113Y-65779579D01*
X88663114Y-65779575D01*
X88704993Y-65701226D01*
X88761352Y-65632552D01*
X88830026Y-65576193D01*
X88908375Y-65534314D01*
X88918344Y-65531290D01*
X88993387Y-65508525D01*
X89059642Y-65502000D01*
X89603958Y-65502000D01*
X89670213Y-65508525D01*
X89670213Y-65508525D01*
G37*
G36*
X32292242Y-64510518D02*
X32358427Y-64517037D01*
X32471653Y-64551384D01*
X32528267Y-64568557D01*
X32666887Y-64642652D01*
X32684791Y-64652222D01*
X32720529Y-64681552D01*
X32821986Y-64764814D01*
X32905248Y-64866271D01*
X32934578Y-64902009D01*
X32934579Y-64902011D01*
X33018243Y-65058533D01*
X33018243Y-65058534D01*
X33069763Y-65228373D01*
X33087159Y-65405000D01*
X33069763Y-65581627D01*
X33054315Y-65632552D01*
X33018243Y-65751467D01*
X32958427Y-65863373D01*
X32934578Y-65907991D01*
X32905248Y-65943729D01*
X32821986Y-66045186D01*
X32720529Y-66128448D01*
X32684791Y-66157778D01*
X32684789Y-66157779D01*
X32528267Y-66241443D01*
X32471653Y-66258616D01*
X32358427Y-66292963D01*
X32292243Y-66299481D01*
X32226060Y-66306000D01*
X32137540Y-66306000D01*
X32071357Y-66299481D01*
X32005173Y-66292963D01*
X31891947Y-66258616D01*
X31835333Y-66241443D01*
X31678811Y-66157779D01*
X31678809Y-66157778D01*
X31643071Y-66128448D01*
X31541614Y-66045186D01*
X31458352Y-65943729D01*
X31429022Y-65907991D01*
X31405173Y-65863373D01*
X31345357Y-65751467D01*
X31309285Y-65632552D01*
X31293837Y-65581627D01*
X31276441Y-65405000D01*
X31293837Y-65228373D01*
X31345357Y-65058534D01*
X31345357Y-65058533D01*
X31429021Y-64902011D01*
X31429022Y-64902009D01*
X31458352Y-64866271D01*
X31541614Y-64764814D01*
X31643071Y-64681552D01*
X31678809Y-64652222D01*
X31696713Y-64642652D01*
X31835333Y-64568557D01*
X31891947Y-64551384D01*
X32005173Y-64517037D01*
X32071358Y-64510518D01*
X32137540Y-64504000D01*
X32226060Y-64504000D01*
X32292242Y-64510518D01*
X32292242Y-64510518D01*
G37*
G36*
X89670213Y-64258525D02*
X89745256Y-64281290D01*
X89755225Y-64284314D01*
X89833574Y-64326193D01*
X89902248Y-64382552D01*
X89958607Y-64451226D01*
X90000486Y-64529575D01*
X90000487Y-64529579D01*
X90026275Y-64614587D01*
X90034982Y-64703000D01*
X90026275Y-64791413D01*
X90003510Y-64866456D01*
X90000486Y-64876425D01*
X89958607Y-64954774D01*
X89902248Y-65023448D01*
X89833574Y-65079807D01*
X89755225Y-65121686D01*
X89745256Y-65124710D01*
X89670213Y-65147475D01*
X89603958Y-65154000D01*
X89059642Y-65154000D01*
X88993387Y-65147475D01*
X88918344Y-65124710D01*
X88908375Y-65121686D01*
X88830026Y-65079807D01*
X88761352Y-65023448D01*
X88704993Y-64954774D01*
X88663114Y-64876425D01*
X88660090Y-64866456D01*
X88637325Y-64791413D01*
X88628618Y-64703000D01*
X88637325Y-64614587D01*
X88663113Y-64529579D01*
X88663114Y-64529575D01*
X88704993Y-64451226D01*
X88761352Y-64382552D01*
X88830026Y-64326193D01*
X88908375Y-64284314D01*
X88918344Y-64281290D01*
X88993387Y-64258525D01*
X89059642Y-64252000D01*
X89603958Y-64252000D01*
X89670213Y-64258525D01*
X89670213Y-64258525D01*
G37*
G36*
X50072242Y-62605518D02*
X50138427Y-62612037D01*
X50251653Y-62646384D01*
X50308267Y-62663557D01*
X50446887Y-62737652D01*
X50464791Y-62747222D01*
X50500529Y-62776552D01*
X50601986Y-62859814D01*
X50685248Y-62961271D01*
X50714578Y-62997009D01*
X50714579Y-62997011D01*
X50798243Y-63153533D01*
X50798243Y-63153534D01*
X50849763Y-63323373D01*
X50867159Y-63500000D01*
X50849763Y-63676627D01*
X50841224Y-63704775D01*
X50798243Y-63846467D01*
X50724148Y-63985087D01*
X50714578Y-64002991D01*
X50685248Y-64038729D01*
X50601986Y-64140186D01*
X50500529Y-64223448D01*
X50464791Y-64252778D01*
X50464789Y-64252779D01*
X50308267Y-64336443D01*
X50251653Y-64353616D01*
X50138427Y-64387963D01*
X50072242Y-64394482D01*
X50006060Y-64401000D01*
X49917540Y-64401000D01*
X49851358Y-64394482D01*
X49785173Y-64387963D01*
X49671947Y-64353616D01*
X49615333Y-64336443D01*
X49458811Y-64252779D01*
X49458809Y-64252778D01*
X49423071Y-64223448D01*
X49321614Y-64140186D01*
X49238352Y-64038729D01*
X49209022Y-64002991D01*
X49199452Y-63985087D01*
X49125357Y-63846467D01*
X49082376Y-63704775D01*
X49073837Y-63676627D01*
X49056441Y-63500000D01*
X49073837Y-63323373D01*
X49125357Y-63153534D01*
X49125357Y-63153533D01*
X49209021Y-62997011D01*
X49209022Y-62997009D01*
X49238352Y-62961271D01*
X49321614Y-62859814D01*
X49423071Y-62776552D01*
X49458809Y-62747222D01*
X49476713Y-62737652D01*
X49615333Y-62663557D01*
X49671947Y-62646384D01*
X49785173Y-62612037D01*
X49851358Y-62605518D01*
X49917540Y-62599000D01*
X50006060Y-62599000D01*
X50072242Y-62605518D01*
X50072242Y-62605518D01*
G37*
G36*
X89670213Y-63008525D02*
X89745256Y-63031290D01*
X89755225Y-63034314D01*
X89833574Y-63076193D01*
X89902248Y-63132552D01*
X89958607Y-63201226D01*
X90000486Y-63279575D01*
X90000487Y-63279579D01*
X90026275Y-63364587D01*
X90034982Y-63453000D01*
X90026275Y-63541413D01*
X90003510Y-63616456D01*
X90000486Y-63626425D01*
X89958607Y-63704774D01*
X89902248Y-63773448D01*
X89833574Y-63829807D01*
X89755225Y-63871686D01*
X89745256Y-63874710D01*
X89670213Y-63897475D01*
X89603958Y-63904000D01*
X89059642Y-63904000D01*
X88993387Y-63897475D01*
X88918344Y-63874710D01*
X88908375Y-63871686D01*
X88830026Y-63829807D01*
X88761352Y-63773448D01*
X88704993Y-63704774D01*
X88663114Y-63626425D01*
X88660090Y-63616456D01*
X88637325Y-63541413D01*
X88628618Y-63453000D01*
X88637325Y-63364587D01*
X88663113Y-63279579D01*
X88663114Y-63279575D01*
X88704993Y-63201226D01*
X88761352Y-63132552D01*
X88830026Y-63076193D01*
X88908375Y-63034314D01*
X88918344Y-63031290D01*
X88993387Y-63008525D01*
X89059642Y-63002000D01*
X89603958Y-63002000D01*
X89670213Y-63008525D01*
X89670213Y-63008525D01*
G37*
G36*
X32292243Y-61970519D02*
X32358427Y-61977037D01*
X32471653Y-62011384D01*
X32528267Y-62028557D01*
X32666887Y-62102652D01*
X32684791Y-62112222D01*
X32720529Y-62141552D01*
X32821986Y-62224814D01*
X32905248Y-62326271D01*
X32934578Y-62362009D01*
X32934579Y-62362011D01*
X33018243Y-62518533D01*
X33018243Y-62518534D01*
X33069763Y-62688373D01*
X33087159Y-62865000D01*
X33069763Y-63041627D01*
X33059277Y-63076194D01*
X33018243Y-63211467D01*
X32981838Y-63279575D01*
X32934578Y-63367991D01*
X32905248Y-63403729D01*
X32821986Y-63505186D01*
X32720529Y-63588448D01*
X32684791Y-63617778D01*
X32684789Y-63617779D01*
X32528267Y-63701443D01*
X32471653Y-63718616D01*
X32358427Y-63752963D01*
X32292242Y-63759482D01*
X32226060Y-63766000D01*
X32137540Y-63766000D01*
X32071358Y-63759482D01*
X32005173Y-63752963D01*
X31891947Y-63718616D01*
X31835333Y-63701443D01*
X31678811Y-63617779D01*
X31678809Y-63617778D01*
X31643071Y-63588448D01*
X31541614Y-63505186D01*
X31458352Y-63403729D01*
X31429022Y-63367991D01*
X31381762Y-63279575D01*
X31345357Y-63211467D01*
X31304323Y-63076194D01*
X31293837Y-63041627D01*
X31276441Y-62865000D01*
X31293837Y-62688373D01*
X31345357Y-62518534D01*
X31345357Y-62518533D01*
X31429021Y-62362011D01*
X31429022Y-62362009D01*
X31458352Y-62326271D01*
X31541614Y-62224814D01*
X31643071Y-62141552D01*
X31678809Y-62112222D01*
X31696713Y-62102652D01*
X31835333Y-62028557D01*
X31891947Y-62011384D01*
X32005173Y-61977037D01*
X32071357Y-61970519D01*
X32137540Y-61964000D01*
X32226060Y-61964000D01*
X32292243Y-61970519D01*
X32292243Y-61970519D01*
G37*
G36*
X89670213Y-61758525D02*
X89745256Y-61781290D01*
X89755225Y-61784314D01*
X89833574Y-61826193D01*
X89902248Y-61882552D01*
X89958607Y-61951226D01*
X90000486Y-62029575D01*
X90000487Y-62029579D01*
X90026275Y-62114587D01*
X90034982Y-62203000D01*
X90026275Y-62291413D01*
X90004859Y-62362009D01*
X90000486Y-62376425D01*
X89958607Y-62454774D01*
X89902248Y-62523448D01*
X89833574Y-62579807D01*
X89755225Y-62621686D01*
X89745256Y-62624710D01*
X89670213Y-62647475D01*
X89603958Y-62654000D01*
X89059642Y-62654000D01*
X88993387Y-62647475D01*
X88918344Y-62624710D01*
X88908375Y-62621686D01*
X88830026Y-62579807D01*
X88761352Y-62523448D01*
X88704993Y-62454774D01*
X88663114Y-62376425D01*
X88658741Y-62362009D01*
X88637325Y-62291413D01*
X88628618Y-62203000D01*
X88637325Y-62114587D01*
X88663113Y-62029579D01*
X88663114Y-62029575D01*
X88704993Y-61951226D01*
X88761352Y-61882552D01*
X88830026Y-61826193D01*
X88908375Y-61784314D01*
X88918344Y-61781290D01*
X88993387Y-61758525D01*
X89059642Y-61752000D01*
X89603958Y-61752000D01*
X89670213Y-61758525D01*
X89670213Y-61758525D01*
G37*
G36*
X50072242Y-60065518D02*
X50138427Y-60072037D01*
X50251653Y-60106384D01*
X50308267Y-60123557D01*
X50446887Y-60197652D01*
X50464791Y-60207222D01*
X50500529Y-60236552D01*
X50601986Y-60319814D01*
X50685248Y-60421271D01*
X50714578Y-60457009D01*
X50714579Y-60457011D01*
X50798243Y-60613533D01*
X50798243Y-60613534D01*
X50849763Y-60783373D01*
X50867159Y-60960000D01*
X50849763Y-61136627D01*
X50826607Y-61212963D01*
X50798243Y-61306467D01*
X50749598Y-61397474D01*
X50714578Y-61462991D01*
X50685248Y-61498729D01*
X50601986Y-61600186D01*
X50500529Y-61683448D01*
X50464791Y-61712778D01*
X50464789Y-61712779D01*
X50308267Y-61796443D01*
X50251653Y-61813616D01*
X50138427Y-61847963D01*
X50072243Y-61854481D01*
X50006060Y-61861000D01*
X49917540Y-61861000D01*
X49851357Y-61854481D01*
X49785173Y-61847963D01*
X49671947Y-61813616D01*
X49615333Y-61796443D01*
X49458811Y-61712779D01*
X49458809Y-61712778D01*
X49423071Y-61683448D01*
X49321614Y-61600186D01*
X49238352Y-61498729D01*
X49209022Y-61462991D01*
X49174002Y-61397474D01*
X49125357Y-61306467D01*
X49096993Y-61212963D01*
X49073837Y-61136627D01*
X49056441Y-60960000D01*
X49073837Y-60783373D01*
X49125357Y-60613534D01*
X49125357Y-60613533D01*
X49209021Y-60457011D01*
X49209022Y-60457009D01*
X49238352Y-60421271D01*
X49321614Y-60319814D01*
X49423071Y-60236552D01*
X49458809Y-60207222D01*
X49476713Y-60197652D01*
X49615333Y-60123557D01*
X49671947Y-60106384D01*
X49785173Y-60072037D01*
X49851358Y-60065518D01*
X49917540Y-60059000D01*
X50006060Y-60059000D01*
X50072242Y-60065518D01*
X50072242Y-60065518D01*
G37*
G36*
X89670213Y-60508525D02*
X89745256Y-60531290D01*
X89755225Y-60534314D01*
X89833574Y-60576193D01*
X89902248Y-60632552D01*
X89958607Y-60701226D01*
X90000486Y-60779575D01*
X90000487Y-60779579D01*
X90026275Y-60864587D01*
X90034982Y-60953000D01*
X90026275Y-61041413D01*
X90003510Y-61116456D01*
X90000486Y-61126425D01*
X89958607Y-61204774D01*
X89902248Y-61273448D01*
X89833574Y-61329807D01*
X89755225Y-61371686D01*
X89745256Y-61374710D01*
X89670213Y-61397475D01*
X89603958Y-61404000D01*
X89059642Y-61404000D01*
X88993387Y-61397475D01*
X88918344Y-61374710D01*
X88908375Y-61371686D01*
X88830026Y-61329807D01*
X88761352Y-61273448D01*
X88704993Y-61204774D01*
X88663114Y-61126425D01*
X88660090Y-61116456D01*
X88637325Y-61041413D01*
X88628618Y-60953000D01*
X88637325Y-60864587D01*
X88663113Y-60779579D01*
X88663114Y-60779575D01*
X88704993Y-60701226D01*
X88761352Y-60632552D01*
X88830026Y-60576193D01*
X88908375Y-60534314D01*
X88918344Y-60531290D01*
X88993387Y-60508525D01*
X89059642Y-60502000D01*
X89603958Y-60502000D01*
X89670213Y-60508525D01*
X89670213Y-60508525D01*
G37*
G36*
X32292242Y-59430518D02*
X32358427Y-59437037D01*
X32471653Y-59471384D01*
X32528267Y-59488557D01*
X32666887Y-59562652D01*
X32684791Y-59572222D01*
X32720529Y-59601552D01*
X32821986Y-59684814D01*
X32905248Y-59786271D01*
X32934578Y-59822009D01*
X32934579Y-59822011D01*
X33018243Y-59978533D01*
X33035416Y-60035147D01*
X33069763Y-60148373D01*
X33087159Y-60325000D01*
X33069763Y-60501627D01*
X33047143Y-60576194D01*
X33018243Y-60671467D01*
X33002336Y-60701226D01*
X32934578Y-60827991D01*
X32905248Y-60863729D01*
X32821986Y-60965186D01*
X32729104Y-61041411D01*
X32684791Y-61077778D01*
X32684789Y-61077779D01*
X32528267Y-61161443D01*
X32471653Y-61178616D01*
X32358427Y-61212963D01*
X32292242Y-61219482D01*
X32226060Y-61226000D01*
X32137540Y-61226000D01*
X32071358Y-61219482D01*
X32005173Y-61212963D01*
X31891947Y-61178616D01*
X31835333Y-61161443D01*
X31678811Y-61077779D01*
X31678809Y-61077778D01*
X31634496Y-61041411D01*
X31541614Y-60965186D01*
X31458352Y-60863729D01*
X31429022Y-60827991D01*
X31361264Y-60701226D01*
X31345357Y-60671467D01*
X31316457Y-60576194D01*
X31293837Y-60501627D01*
X31276441Y-60325000D01*
X31293837Y-60148373D01*
X31328184Y-60035147D01*
X31345357Y-59978533D01*
X31429021Y-59822011D01*
X31429022Y-59822009D01*
X31458352Y-59786271D01*
X31541614Y-59684814D01*
X31643071Y-59601552D01*
X31678809Y-59572222D01*
X31696713Y-59562652D01*
X31835333Y-59488557D01*
X31891947Y-59471384D01*
X32005173Y-59437037D01*
X32071358Y-59430518D01*
X32137540Y-59424000D01*
X32226060Y-59424000D01*
X32292242Y-59430518D01*
X32292242Y-59430518D01*
G37*
G36*
X89670213Y-59258525D02*
X89745256Y-59281290D01*
X89755225Y-59284314D01*
X89833574Y-59326193D01*
X89902248Y-59382552D01*
X89958607Y-59451226D01*
X90000486Y-59529575D01*
X90000487Y-59529579D01*
X90026275Y-59614587D01*
X90034982Y-59703000D01*
X90026275Y-59791413D01*
X90003510Y-59866456D01*
X90000486Y-59876425D01*
X89958607Y-59954774D01*
X89902248Y-60023448D01*
X89833574Y-60079807D01*
X89755225Y-60121686D01*
X89749057Y-60123557D01*
X89670213Y-60147475D01*
X89603958Y-60154000D01*
X89059642Y-60154000D01*
X88993387Y-60147475D01*
X88914543Y-60123557D01*
X88908375Y-60121686D01*
X88830026Y-60079807D01*
X88761352Y-60023448D01*
X88704993Y-59954774D01*
X88663114Y-59876425D01*
X88660090Y-59866456D01*
X88637325Y-59791413D01*
X88628618Y-59703000D01*
X88637325Y-59614587D01*
X88663113Y-59529579D01*
X88663114Y-59529575D01*
X88704993Y-59451226D01*
X88761352Y-59382552D01*
X88830026Y-59326193D01*
X88908375Y-59284314D01*
X88918344Y-59281290D01*
X88993387Y-59258525D01*
X89059642Y-59252000D01*
X89603958Y-59252000D01*
X89670213Y-59258525D01*
X89670213Y-59258525D01*
G37*
G36*
X50072243Y-57525519D02*
X50138427Y-57532037D01*
X50251653Y-57566384D01*
X50308267Y-57583557D01*
X50427847Y-57647475D01*
X50464791Y-57667222D01*
X50500529Y-57696552D01*
X50601986Y-57779814D01*
X50685248Y-57881271D01*
X50714578Y-57917009D01*
X50714579Y-57917011D01*
X50798243Y-58073533D01*
X50798243Y-58073534D01*
X50849763Y-58243373D01*
X50867159Y-58420000D01*
X50849763Y-58596627D01*
X50826607Y-58672963D01*
X50798243Y-58766467D01*
X50742001Y-58871686D01*
X50714578Y-58922991D01*
X50685248Y-58958729D01*
X50601986Y-59060186D01*
X50500529Y-59143448D01*
X50464791Y-59172778D01*
X50464789Y-59172779D01*
X50308267Y-59256443D01*
X50251653Y-59273616D01*
X50138427Y-59307963D01*
X50072242Y-59314482D01*
X50006060Y-59321000D01*
X49917540Y-59321000D01*
X49851358Y-59314482D01*
X49785173Y-59307963D01*
X49671947Y-59273616D01*
X49615333Y-59256443D01*
X49458811Y-59172779D01*
X49458809Y-59172778D01*
X49423071Y-59143448D01*
X49321614Y-59060186D01*
X49238352Y-58958729D01*
X49209022Y-58922991D01*
X49181599Y-58871686D01*
X49125357Y-58766467D01*
X49096993Y-58672963D01*
X49073837Y-58596627D01*
X49056441Y-58420000D01*
X49073837Y-58243373D01*
X49125357Y-58073534D01*
X49125357Y-58073533D01*
X49209021Y-57917011D01*
X49209022Y-57917009D01*
X49238352Y-57881271D01*
X49321614Y-57779814D01*
X49423071Y-57696552D01*
X49458809Y-57667222D01*
X49495753Y-57647475D01*
X49615333Y-57583557D01*
X49671947Y-57566384D01*
X49785173Y-57532037D01*
X49851357Y-57525519D01*
X49917540Y-57519000D01*
X50006060Y-57519000D01*
X50072243Y-57525519D01*
X50072243Y-57525519D01*
G37*
G36*
X89670213Y-58008525D02*
X89745256Y-58031290D01*
X89755225Y-58034314D01*
X89833574Y-58076193D01*
X89902248Y-58132552D01*
X89958607Y-58201226D01*
X90000486Y-58279575D01*
X90000487Y-58279579D01*
X90026275Y-58364587D01*
X90034982Y-58453000D01*
X90026275Y-58541413D01*
X90009525Y-58596627D01*
X90000486Y-58626425D01*
X89958607Y-58704774D01*
X89902248Y-58773448D01*
X89833574Y-58829807D01*
X89755225Y-58871686D01*
X89745256Y-58874710D01*
X89670213Y-58897475D01*
X89603958Y-58904000D01*
X89059642Y-58904000D01*
X88993387Y-58897475D01*
X88918344Y-58874710D01*
X88908375Y-58871686D01*
X88830026Y-58829807D01*
X88761352Y-58773448D01*
X88704993Y-58704774D01*
X88663114Y-58626425D01*
X88654075Y-58596627D01*
X88637325Y-58541413D01*
X88628618Y-58453000D01*
X88637325Y-58364587D01*
X88663113Y-58279579D01*
X88663114Y-58279575D01*
X88704993Y-58201226D01*
X88761352Y-58132552D01*
X88830026Y-58076193D01*
X88908375Y-58034314D01*
X88918344Y-58031290D01*
X88993387Y-58008525D01*
X89059642Y-58002000D01*
X89603958Y-58002000D01*
X89670213Y-58008525D01*
X89670213Y-58008525D01*
G37*
G36*
X32292242Y-56890518D02*
X32358427Y-56897037D01*
X32471653Y-56931384D01*
X32528267Y-56948557D01*
X32666887Y-57022652D01*
X32684791Y-57032222D01*
X32720529Y-57061552D01*
X32821986Y-57144814D01*
X32869737Y-57203000D01*
X32934578Y-57282009D01*
X32939605Y-57291413D01*
X33018243Y-57438533D01*
X33023170Y-57454775D01*
X33069763Y-57608373D01*
X33087159Y-57785000D01*
X33069763Y-57961627D01*
X33035817Y-58073533D01*
X33018243Y-58131467D01*
X33017663Y-58132552D01*
X32934578Y-58287991D01*
X32905248Y-58323729D01*
X32821986Y-58425186D01*
X32720529Y-58508448D01*
X32684791Y-58537778D01*
X32684789Y-58537779D01*
X32528267Y-58621443D01*
X32511856Y-58626421D01*
X32358427Y-58672963D01*
X32292242Y-58679482D01*
X32226060Y-58686000D01*
X32137540Y-58686000D01*
X32071358Y-58679482D01*
X32005173Y-58672963D01*
X31851744Y-58626421D01*
X31835333Y-58621443D01*
X31678811Y-58537779D01*
X31678809Y-58537778D01*
X31643071Y-58508448D01*
X31541614Y-58425186D01*
X31458352Y-58323729D01*
X31429022Y-58287991D01*
X31345937Y-58132552D01*
X31345357Y-58131467D01*
X31327783Y-58073533D01*
X31293837Y-57961627D01*
X31276441Y-57785000D01*
X31293837Y-57608373D01*
X31340430Y-57454775D01*
X31345357Y-57438533D01*
X31423995Y-57291413D01*
X31429022Y-57282009D01*
X31493863Y-57203000D01*
X31541614Y-57144814D01*
X31643071Y-57061552D01*
X31678809Y-57032222D01*
X31696713Y-57022652D01*
X31835333Y-56948557D01*
X31891947Y-56931384D01*
X32005173Y-56897037D01*
X32071358Y-56890518D01*
X32137540Y-56884000D01*
X32226060Y-56884000D01*
X32292242Y-56890518D01*
X32292242Y-56890518D01*
G37*
G36*
X89670213Y-56758525D02*
X89745256Y-56781290D01*
X89755225Y-56784314D01*
X89833574Y-56826193D01*
X89902248Y-56882552D01*
X89958607Y-56951226D01*
X90000486Y-57029575D01*
X90001289Y-57032222D01*
X90026275Y-57114587D01*
X90034982Y-57203000D01*
X90026275Y-57291413D01*
X90003510Y-57366456D01*
X90000486Y-57376425D01*
X89958607Y-57454774D01*
X89902248Y-57523448D01*
X89833574Y-57579807D01*
X89755225Y-57621686D01*
X89745256Y-57624710D01*
X89670213Y-57647475D01*
X89603958Y-57654000D01*
X89059642Y-57654000D01*
X88993387Y-57647475D01*
X88918344Y-57624710D01*
X88908375Y-57621686D01*
X88830026Y-57579807D01*
X88761352Y-57523448D01*
X88704993Y-57454774D01*
X88663114Y-57376425D01*
X88660090Y-57366456D01*
X88637325Y-57291413D01*
X88628618Y-57203000D01*
X88637325Y-57114587D01*
X88662311Y-57032222D01*
X88663114Y-57029575D01*
X88704993Y-56951226D01*
X88761352Y-56882552D01*
X88830026Y-56826193D01*
X88908375Y-56784314D01*
X88918344Y-56781290D01*
X88993387Y-56758525D01*
X89059642Y-56752000D01*
X89603958Y-56752000D01*
X89670213Y-56758525D01*
X89670213Y-56758525D01*
G37*
G36*
X89670213Y-55508525D02*
X89745256Y-55531290D01*
X89755225Y-55534314D01*
X89833574Y-55576193D01*
X89902248Y-55632552D01*
X89958607Y-55701226D01*
X90000486Y-55779575D01*
X90000487Y-55779579D01*
X90026275Y-55864587D01*
X90034982Y-55953000D01*
X90026275Y-56041413D01*
X90003510Y-56116456D01*
X90000486Y-56126425D01*
X89958607Y-56204774D01*
X89902248Y-56273448D01*
X89833574Y-56329807D01*
X89755225Y-56371686D01*
X89745256Y-56374710D01*
X89670213Y-56397475D01*
X89603958Y-56404000D01*
X89059642Y-56404000D01*
X88993387Y-56397475D01*
X88918344Y-56374710D01*
X88908375Y-56371686D01*
X88830026Y-56329807D01*
X88761352Y-56273448D01*
X88704993Y-56204774D01*
X88663114Y-56126425D01*
X88660090Y-56116456D01*
X88637325Y-56041413D01*
X88628618Y-55953000D01*
X88637325Y-55864587D01*
X88663113Y-55779579D01*
X88663114Y-55779575D01*
X88704993Y-55701226D01*
X88761352Y-55632552D01*
X88830026Y-55576193D01*
X88908375Y-55534314D01*
X88918344Y-55531290D01*
X88993387Y-55508525D01*
X89059642Y-55502000D01*
X89603958Y-55502000D01*
X89670213Y-55508525D01*
X89670213Y-55508525D01*
G37*
G36*
X89670213Y-54258525D02*
X89745256Y-54281290D01*
X89755225Y-54284314D01*
X89833574Y-54326193D01*
X89902248Y-54382552D01*
X89958607Y-54451226D01*
X90000486Y-54529575D01*
X90000487Y-54529579D01*
X90026275Y-54614587D01*
X90034982Y-54703000D01*
X90026275Y-54791413D01*
X90003510Y-54866456D01*
X90000486Y-54876425D01*
X89958607Y-54954774D01*
X89902248Y-55023448D01*
X89833574Y-55079807D01*
X89755225Y-55121686D01*
X89745256Y-55124710D01*
X89670213Y-55147475D01*
X89603958Y-55154000D01*
X89059642Y-55154000D01*
X88993387Y-55147475D01*
X88918344Y-55124710D01*
X88908375Y-55121686D01*
X88830026Y-55079807D01*
X88761352Y-55023448D01*
X88704993Y-54954774D01*
X88663114Y-54876425D01*
X88660090Y-54866456D01*
X88637325Y-54791413D01*
X88628618Y-54703000D01*
X88637325Y-54614587D01*
X88663113Y-54529579D01*
X88663114Y-54529575D01*
X88704993Y-54451226D01*
X88761352Y-54382552D01*
X88830026Y-54326193D01*
X88908375Y-54284314D01*
X88918344Y-54281290D01*
X88993387Y-54258525D01*
X89059642Y-54252000D01*
X89603958Y-54252000D01*
X89670213Y-54258525D01*
X89670213Y-54258525D01*
G37*
G36*
X89670213Y-53008525D02*
X89745256Y-53031290D01*
X89755225Y-53034314D01*
X89833574Y-53076193D01*
X89902248Y-53132552D01*
X89958607Y-53201226D01*
X90000486Y-53279575D01*
X90000487Y-53279579D01*
X90026275Y-53364587D01*
X90034982Y-53453000D01*
X90026275Y-53541413D01*
X90003510Y-53616456D01*
X90000486Y-53626425D01*
X89958607Y-53704774D01*
X89902248Y-53773448D01*
X89833574Y-53829807D01*
X89755225Y-53871686D01*
X89745256Y-53874710D01*
X89670213Y-53897475D01*
X89603958Y-53904000D01*
X89059642Y-53904000D01*
X88993387Y-53897475D01*
X88918344Y-53874710D01*
X88908375Y-53871686D01*
X88830026Y-53829807D01*
X88761352Y-53773448D01*
X88704993Y-53704774D01*
X88663114Y-53626425D01*
X88660090Y-53616456D01*
X88637325Y-53541413D01*
X88628618Y-53453000D01*
X88637325Y-53364587D01*
X88663113Y-53279579D01*
X88663114Y-53279575D01*
X88704993Y-53201226D01*
X88761352Y-53132552D01*
X88830026Y-53076193D01*
X88908375Y-53034314D01*
X88918344Y-53031290D01*
X88993387Y-53008525D01*
X89059642Y-53002000D01*
X89603958Y-53002000D01*
X89670213Y-53008525D01*
X89670213Y-53008525D01*
G37*
G36*
X39663466Y-49418565D02*
X39702137Y-49430296D01*
X39737779Y-49449348D01*
X39769017Y-49474983D01*
X39794652Y-49506221D01*
X39813704Y-49541863D01*
X39825435Y-49580534D01*
X39830000Y-49626888D01*
X39830000Y-50703112D01*
X39825435Y-50749466D01*
X39813704Y-50788137D01*
X39794652Y-50823779D01*
X39769017Y-50855017D01*
X39737779Y-50880652D01*
X39702137Y-50899704D01*
X39663466Y-50911435D01*
X39617112Y-50916000D01*
X38965888Y-50916000D01*
X38919534Y-50911435D01*
X38880863Y-50899704D01*
X38845221Y-50880652D01*
X38813983Y-50855017D01*
X38788348Y-50823779D01*
X38769296Y-50788137D01*
X38757565Y-50749466D01*
X38753000Y-50703112D01*
X38753000Y-49626888D01*
X38757565Y-49580534D01*
X38769296Y-49541863D01*
X38788348Y-49506221D01*
X38813983Y-49474983D01*
X38845221Y-49449348D01*
X38880863Y-49430296D01*
X38919534Y-49418565D01*
X38965888Y-49414000D01*
X39617112Y-49414000D01*
X39663466Y-49418565D01*
X39663466Y-49418565D01*
G37*
G36*
X37788466Y-49418565D02*
X37827137Y-49430296D01*
X37862779Y-49449348D01*
X37894017Y-49474983D01*
X37919652Y-49506221D01*
X37938704Y-49541863D01*
X37950435Y-49580534D01*
X37955000Y-49626888D01*
X37955000Y-50703112D01*
X37950435Y-50749466D01*
X37938704Y-50788137D01*
X37919652Y-50823779D01*
X37894017Y-50855017D01*
X37862779Y-50880652D01*
X37827137Y-50899704D01*
X37788466Y-50911435D01*
X37742112Y-50916000D01*
X37090888Y-50916000D01*
X37044534Y-50911435D01*
X37005863Y-50899704D01*
X36970221Y-50880652D01*
X36938983Y-50855017D01*
X36913348Y-50823779D01*
X36894296Y-50788137D01*
X36882565Y-50749466D01*
X36878000Y-50703112D01*
X36878000Y-49626888D01*
X36882565Y-49580534D01*
X36894296Y-49541863D01*
X36913348Y-49506221D01*
X36938983Y-49474983D01*
X36970221Y-49449348D01*
X37005863Y-49430296D01*
X37044534Y-49418565D01*
X37090888Y-49414000D01*
X37742112Y-49414000D01*
X37788466Y-49418565D01*
X37788466Y-49418565D01*
G37*
G36*
X43727466Y-49418565D02*
X43766137Y-49430296D01*
X43801779Y-49449348D01*
X43833017Y-49474983D01*
X43858652Y-49506221D01*
X43877704Y-49541863D01*
X43889435Y-49580534D01*
X43894000Y-49626888D01*
X43894000Y-50703112D01*
X43889435Y-50749466D01*
X43877704Y-50788137D01*
X43858652Y-50823779D01*
X43833017Y-50855017D01*
X43801779Y-50880652D01*
X43766137Y-50899704D01*
X43727466Y-50911435D01*
X43681112Y-50916000D01*
X43029888Y-50916000D01*
X42983534Y-50911435D01*
X42944863Y-50899704D01*
X42909221Y-50880652D01*
X42877983Y-50855017D01*
X42852348Y-50823779D01*
X42833296Y-50788137D01*
X42821565Y-50749466D01*
X42817000Y-50703112D01*
X42817000Y-49626888D01*
X42821565Y-49580534D01*
X42833296Y-49541863D01*
X42852348Y-49506221D01*
X42877983Y-49474983D01*
X42909221Y-49449348D01*
X42944863Y-49430296D01*
X42983534Y-49418565D01*
X43029888Y-49414000D01*
X43681112Y-49414000D01*
X43727466Y-49418565D01*
X43727466Y-49418565D01*
G37*
G36*
X41852466Y-49418565D02*
X41891137Y-49430296D01*
X41926779Y-49449348D01*
X41958017Y-49474983D01*
X41983652Y-49506221D01*
X42002704Y-49541863D01*
X42014435Y-49580534D01*
X42019000Y-49626888D01*
X42019000Y-50703112D01*
X42014435Y-50749466D01*
X42002704Y-50788137D01*
X41983652Y-50823779D01*
X41958017Y-50855017D01*
X41926779Y-50880652D01*
X41891137Y-50899704D01*
X41852466Y-50911435D01*
X41806112Y-50916000D01*
X41154888Y-50916000D01*
X41108534Y-50911435D01*
X41069863Y-50899704D01*
X41034221Y-50880652D01*
X41002983Y-50855017D01*
X40977348Y-50823779D01*
X40958296Y-50788137D01*
X40946565Y-50749466D01*
X40942000Y-50703112D01*
X40942000Y-49626888D01*
X40946565Y-49580534D01*
X40958296Y-49541863D01*
X40977348Y-49506221D01*
X41002983Y-49474983D01*
X41034221Y-49449348D01*
X41069863Y-49430296D01*
X41108534Y-49418565D01*
X41154888Y-49414000D01*
X41806112Y-49414000D01*
X41852466Y-49418565D01*
X41852466Y-49418565D01*
G37*
G36*
X54759327Y-45351736D02*
X54859210Y-45371604D01*
X55141474Y-45488521D01*
X55395505Y-45658259D01*
X55611541Y-45874295D01*
X55781279Y-46128326D01*
X55898196Y-46410590D01*
X55957800Y-46710240D01*
X55957800Y-47015760D01*
X55898196Y-47315410D01*
X55781279Y-47597674D01*
X55611541Y-47851705D01*
X55395505Y-48067741D01*
X55141474Y-48237479D01*
X54859210Y-48354396D01*
X54759327Y-48374264D01*
X54559562Y-48414000D01*
X54254038Y-48414000D01*
X54054273Y-48374264D01*
X53954390Y-48354396D01*
X53672126Y-48237479D01*
X53418095Y-48067741D01*
X53202059Y-47851705D01*
X53032321Y-47597674D01*
X52915404Y-47315410D01*
X52855800Y-47015760D01*
X52855800Y-46710240D01*
X52915404Y-46410590D01*
X53032321Y-46128326D01*
X53202059Y-45874295D01*
X53418095Y-45658259D01*
X53672126Y-45488521D01*
X53954390Y-45371604D01*
X54054273Y-45351736D01*
X54254038Y-45312000D01*
X54559562Y-45312000D01*
X54759327Y-45351736D01*
X54759327Y-45351736D01*
G37*
G36*
X73623621Y-39166313D02*
X73623624Y-39166314D01*
X73623625Y-39166314D01*
X73784039Y-39214975D01*
X73784041Y-39214976D01*
X73784044Y-39214977D01*
X73931878Y-39293995D01*
X74061459Y-39400341D01*
X74167805Y-39529922D01*
X74246823Y-39677756D01*
X74295487Y-39838179D01*
X74311917Y-40005000D01*
X74295487Y-40171821D01*
X74246823Y-40332244D01*
X74167805Y-40480078D01*
X74061459Y-40609659D01*
X73931878Y-40716005D01*
X73784044Y-40795023D01*
X73784041Y-40795024D01*
X73784039Y-40795025D01*
X73623625Y-40843686D01*
X73623624Y-40843686D01*
X73623621Y-40843687D01*
X73498604Y-40856000D01*
X73414996Y-40856000D01*
X73289979Y-40843687D01*
X73289976Y-40843686D01*
X73289975Y-40843686D01*
X73129561Y-40795025D01*
X73129559Y-40795024D01*
X73129556Y-40795023D01*
X72981722Y-40716005D01*
X72852141Y-40609659D01*
X72745795Y-40480078D01*
X72666777Y-40332244D01*
X72618113Y-40171821D01*
X72601683Y-40005000D01*
X72618113Y-39838179D01*
X72666777Y-39677756D01*
X72745795Y-39529922D01*
X72852141Y-39400341D01*
X72981722Y-39293995D01*
X73129556Y-39214977D01*
X73129559Y-39214976D01*
X73129561Y-39214975D01*
X73289975Y-39166314D01*
X73289976Y-39166314D01*
X73289979Y-39166313D01*
X73414996Y-39154000D01*
X73498604Y-39154000D01*
X73623621Y-39166313D01*
X73623621Y-39166313D01*
G37*
G36*
X71083621Y-39166313D02*
X71083624Y-39166314D01*
X71083625Y-39166314D01*
X71244039Y-39214975D01*
X71244041Y-39214976D01*
X71244044Y-39214977D01*
X71391878Y-39293995D01*
X71521459Y-39400341D01*
X71627805Y-39529922D01*
X71706823Y-39677756D01*
X71755487Y-39838179D01*
X71771917Y-40005000D01*
X71755487Y-40171821D01*
X71706823Y-40332244D01*
X71627805Y-40480078D01*
X71521459Y-40609659D01*
X71391878Y-40716005D01*
X71244044Y-40795023D01*
X71244041Y-40795024D01*
X71244039Y-40795025D01*
X71083625Y-40843686D01*
X71083624Y-40843686D01*
X71083621Y-40843687D01*
X70958604Y-40856000D01*
X70874996Y-40856000D01*
X70749979Y-40843687D01*
X70749976Y-40843686D01*
X70749975Y-40843686D01*
X70589561Y-40795025D01*
X70589559Y-40795024D01*
X70589556Y-40795023D01*
X70441722Y-40716005D01*
X70312141Y-40609659D01*
X70205795Y-40480078D01*
X70126777Y-40332244D01*
X70078113Y-40171821D01*
X70061683Y-40005000D01*
X70078113Y-39838179D01*
X70126777Y-39677756D01*
X70205795Y-39529922D01*
X70312141Y-39400341D01*
X70441722Y-39293995D01*
X70589556Y-39214977D01*
X70589559Y-39214976D01*
X70589561Y-39214975D01*
X70749975Y-39166314D01*
X70749976Y-39166314D01*
X70749979Y-39166313D01*
X70874996Y-39154000D01*
X70958604Y-39154000D01*
X71083621Y-39166313D01*
X71083621Y-39166313D01*
G37*
G36*
X36543621Y-39166313D02*
X36543624Y-39166314D01*
X36543625Y-39166314D01*
X36704039Y-39214975D01*
X36704041Y-39214976D01*
X36704044Y-39214977D01*
X36851878Y-39293995D01*
X36981459Y-39400341D01*
X37087805Y-39529922D01*
X37166823Y-39677756D01*
X37215487Y-39838179D01*
X37231917Y-40005000D01*
X37215487Y-40171821D01*
X37166823Y-40332244D01*
X37087805Y-40480078D01*
X36981459Y-40609659D01*
X36851878Y-40716005D01*
X36704044Y-40795023D01*
X36704041Y-40795024D01*
X36704039Y-40795025D01*
X36543625Y-40843686D01*
X36543624Y-40843686D01*
X36543621Y-40843687D01*
X36418604Y-40856000D01*
X36334996Y-40856000D01*
X36209979Y-40843687D01*
X36209976Y-40843686D01*
X36209975Y-40843686D01*
X36049561Y-40795025D01*
X36049559Y-40795024D01*
X36049556Y-40795023D01*
X35901722Y-40716005D01*
X35772141Y-40609659D01*
X35665795Y-40480078D01*
X35586777Y-40332244D01*
X35538113Y-40171821D01*
X35521683Y-40005000D01*
X35538113Y-39838179D01*
X35586777Y-39677756D01*
X35665795Y-39529922D01*
X35772141Y-39400341D01*
X35901722Y-39293995D01*
X36049556Y-39214977D01*
X36049559Y-39214976D01*
X36049561Y-39214975D01*
X36209975Y-39166314D01*
X36209976Y-39166314D01*
X36209979Y-39166313D01*
X36334996Y-39154000D01*
X36418604Y-39154000D01*
X36543621Y-39166313D01*
X36543621Y-39166313D01*
G37*
G36*
X60923621Y-39166313D02*
X60923624Y-39166314D01*
X60923625Y-39166314D01*
X61084039Y-39214975D01*
X61084041Y-39214976D01*
X61084044Y-39214977D01*
X61231878Y-39293995D01*
X61361459Y-39400341D01*
X61467805Y-39529922D01*
X61546823Y-39677756D01*
X61595487Y-39838179D01*
X61611917Y-40005000D01*
X61595487Y-40171821D01*
X61546823Y-40332244D01*
X61467805Y-40480078D01*
X61361459Y-40609659D01*
X61231878Y-40716005D01*
X61084044Y-40795023D01*
X61084041Y-40795024D01*
X61084039Y-40795025D01*
X60923625Y-40843686D01*
X60923624Y-40843686D01*
X60923621Y-40843687D01*
X60798604Y-40856000D01*
X60714996Y-40856000D01*
X60589979Y-40843687D01*
X60589976Y-40843686D01*
X60589975Y-40843686D01*
X60429561Y-40795025D01*
X60429559Y-40795024D01*
X60429556Y-40795023D01*
X60281722Y-40716005D01*
X60152141Y-40609659D01*
X60045795Y-40480078D01*
X59966777Y-40332244D01*
X59918113Y-40171821D01*
X59901683Y-40005000D01*
X59918113Y-39838179D01*
X59966777Y-39677756D01*
X60045795Y-39529922D01*
X60152141Y-39400341D01*
X60281722Y-39293995D01*
X60429556Y-39214977D01*
X60429559Y-39214976D01*
X60429561Y-39214975D01*
X60589975Y-39166314D01*
X60589976Y-39166314D01*
X60589979Y-39166313D01*
X60714996Y-39154000D01*
X60798604Y-39154000D01*
X60923621Y-39166313D01*
X60923621Y-39166313D01*
G37*
G36*
X34003621Y-39166313D02*
X34003624Y-39166314D01*
X34003625Y-39166314D01*
X34164039Y-39214975D01*
X34164041Y-39214976D01*
X34164044Y-39214977D01*
X34311878Y-39293995D01*
X34441459Y-39400341D01*
X34547805Y-39529922D01*
X34626823Y-39677756D01*
X34675487Y-39838179D01*
X34691917Y-40005000D01*
X34675487Y-40171821D01*
X34626823Y-40332244D01*
X34547805Y-40480078D01*
X34441459Y-40609659D01*
X34311878Y-40716005D01*
X34164044Y-40795023D01*
X34164041Y-40795024D01*
X34164039Y-40795025D01*
X34003625Y-40843686D01*
X34003624Y-40843686D01*
X34003621Y-40843687D01*
X33878604Y-40856000D01*
X33794996Y-40856000D01*
X33669979Y-40843687D01*
X33669976Y-40843686D01*
X33669975Y-40843686D01*
X33509561Y-40795025D01*
X33509559Y-40795024D01*
X33509556Y-40795023D01*
X33361722Y-40716005D01*
X33232141Y-40609659D01*
X33125795Y-40480078D01*
X33046777Y-40332244D01*
X32998113Y-40171821D01*
X32981683Y-40005000D01*
X32998113Y-39838179D01*
X33046777Y-39677756D01*
X33125795Y-39529922D01*
X33232141Y-39400341D01*
X33361722Y-39293995D01*
X33509556Y-39214977D01*
X33509559Y-39214976D01*
X33509561Y-39214975D01*
X33669975Y-39166314D01*
X33669976Y-39166314D01*
X33669979Y-39166313D01*
X33794996Y-39154000D01*
X33878604Y-39154000D01*
X34003621Y-39166313D01*
X34003621Y-39166313D01*
G37*
G36*
X68543621Y-39166313D02*
X68543624Y-39166314D01*
X68543625Y-39166314D01*
X68704039Y-39214975D01*
X68704041Y-39214976D01*
X68704044Y-39214977D01*
X68851878Y-39293995D01*
X68981459Y-39400341D01*
X69087805Y-39529922D01*
X69166823Y-39677756D01*
X69215487Y-39838179D01*
X69231917Y-40005000D01*
X69215487Y-40171821D01*
X69166823Y-40332244D01*
X69087805Y-40480078D01*
X68981459Y-40609659D01*
X68851878Y-40716005D01*
X68704044Y-40795023D01*
X68704041Y-40795024D01*
X68704039Y-40795025D01*
X68543625Y-40843686D01*
X68543624Y-40843686D01*
X68543621Y-40843687D01*
X68418604Y-40856000D01*
X68334996Y-40856000D01*
X68209979Y-40843687D01*
X68209976Y-40843686D01*
X68209975Y-40843686D01*
X68049561Y-40795025D01*
X68049559Y-40795024D01*
X68049556Y-40795023D01*
X67901722Y-40716005D01*
X67772141Y-40609659D01*
X67665795Y-40480078D01*
X67586777Y-40332244D01*
X67538113Y-40171821D01*
X67521683Y-40005000D01*
X67538113Y-39838179D01*
X67586777Y-39677756D01*
X67665795Y-39529922D01*
X67772141Y-39400341D01*
X67901722Y-39293995D01*
X68049556Y-39214977D01*
X68049559Y-39214976D01*
X68049561Y-39214975D01*
X68209975Y-39166314D01*
X68209976Y-39166314D01*
X68209979Y-39166313D01*
X68334996Y-39154000D01*
X68418604Y-39154000D01*
X68543621Y-39166313D01*
X68543621Y-39166313D01*
G37*
G36*
X78703621Y-39166313D02*
X78703624Y-39166314D01*
X78703625Y-39166314D01*
X78864039Y-39214975D01*
X78864041Y-39214976D01*
X78864044Y-39214977D01*
X79011878Y-39293995D01*
X79141459Y-39400341D01*
X79247805Y-39529922D01*
X79326823Y-39677756D01*
X79375487Y-39838179D01*
X79391917Y-40005000D01*
X79375487Y-40171821D01*
X79326823Y-40332244D01*
X79247805Y-40480078D01*
X79141459Y-40609659D01*
X79011878Y-40716005D01*
X78864044Y-40795023D01*
X78864041Y-40795024D01*
X78864039Y-40795025D01*
X78703625Y-40843686D01*
X78703624Y-40843686D01*
X78703621Y-40843687D01*
X78578604Y-40856000D01*
X78494996Y-40856000D01*
X78369979Y-40843687D01*
X78369976Y-40843686D01*
X78369975Y-40843686D01*
X78209561Y-40795025D01*
X78209559Y-40795024D01*
X78209556Y-40795023D01*
X78061722Y-40716005D01*
X77932141Y-40609659D01*
X77825795Y-40480078D01*
X77746777Y-40332244D01*
X77698113Y-40171821D01*
X77681683Y-40005000D01*
X77698113Y-39838179D01*
X77746777Y-39677756D01*
X77825795Y-39529922D01*
X77932141Y-39400341D01*
X78061722Y-39293995D01*
X78209556Y-39214977D01*
X78209559Y-39214976D01*
X78209561Y-39214975D01*
X78369975Y-39166314D01*
X78369976Y-39166314D01*
X78369979Y-39166313D01*
X78494996Y-39154000D01*
X78578604Y-39154000D01*
X78703621Y-39166313D01*
X78703621Y-39166313D01*
G37*
G36*
X39083621Y-39166313D02*
X39083624Y-39166314D01*
X39083625Y-39166314D01*
X39244039Y-39214975D01*
X39244041Y-39214976D01*
X39244044Y-39214977D01*
X39391878Y-39293995D01*
X39521459Y-39400341D01*
X39627805Y-39529922D01*
X39706823Y-39677756D01*
X39755487Y-39838179D01*
X39771917Y-40005000D01*
X39755487Y-40171821D01*
X39706823Y-40332244D01*
X39627805Y-40480078D01*
X39521459Y-40609659D01*
X39391878Y-40716005D01*
X39244044Y-40795023D01*
X39244041Y-40795024D01*
X39244039Y-40795025D01*
X39083625Y-40843686D01*
X39083624Y-40843686D01*
X39083621Y-40843687D01*
X38958604Y-40856000D01*
X38874996Y-40856000D01*
X38749979Y-40843687D01*
X38749976Y-40843686D01*
X38749975Y-40843686D01*
X38589561Y-40795025D01*
X38589559Y-40795024D01*
X38589556Y-40795023D01*
X38441722Y-40716005D01*
X38312141Y-40609659D01*
X38205795Y-40480078D01*
X38126777Y-40332244D01*
X38078113Y-40171821D01*
X38061683Y-40005000D01*
X38078113Y-39838179D01*
X38126777Y-39677756D01*
X38205795Y-39529922D01*
X38312141Y-39400341D01*
X38441722Y-39293995D01*
X38589556Y-39214977D01*
X38589559Y-39214976D01*
X38589561Y-39214975D01*
X38749975Y-39166314D01*
X38749976Y-39166314D01*
X38749979Y-39166313D01*
X38874996Y-39154000D01*
X38958604Y-39154000D01*
X39083621Y-39166313D01*
X39083621Y-39166313D01*
G37*
G36*
X41623621Y-39166313D02*
X41623624Y-39166314D01*
X41623625Y-39166314D01*
X41784039Y-39214975D01*
X41784041Y-39214976D01*
X41784044Y-39214977D01*
X41931878Y-39293995D01*
X42061459Y-39400341D01*
X42167805Y-39529922D01*
X42246823Y-39677756D01*
X42295487Y-39838179D01*
X42311917Y-40005000D01*
X42295487Y-40171821D01*
X42246823Y-40332244D01*
X42167805Y-40480078D01*
X42061459Y-40609659D01*
X41931878Y-40716005D01*
X41784044Y-40795023D01*
X41784041Y-40795024D01*
X41784039Y-40795025D01*
X41623625Y-40843686D01*
X41623624Y-40843686D01*
X41623621Y-40843687D01*
X41498604Y-40856000D01*
X41414996Y-40856000D01*
X41289979Y-40843687D01*
X41289976Y-40843686D01*
X41289975Y-40843686D01*
X41129561Y-40795025D01*
X41129559Y-40795024D01*
X41129556Y-40795023D01*
X40981722Y-40716005D01*
X40852141Y-40609659D01*
X40745795Y-40480078D01*
X40666777Y-40332244D01*
X40618113Y-40171821D01*
X40601683Y-40005000D01*
X40618113Y-39838179D01*
X40666777Y-39677756D01*
X40745795Y-39529922D01*
X40852141Y-39400341D01*
X40981722Y-39293995D01*
X41129556Y-39214977D01*
X41129559Y-39214976D01*
X41129561Y-39214975D01*
X41289975Y-39166314D01*
X41289976Y-39166314D01*
X41289979Y-39166313D01*
X41414996Y-39154000D01*
X41498604Y-39154000D01*
X41623621Y-39166313D01*
X41623621Y-39166313D01*
G37*
G36*
X44163621Y-39166313D02*
X44163624Y-39166314D01*
X44163625Y-39166314D01*
X44324039Y-39214975D01*
X44324041Y-39214976D01*
X44324044Y-39214977D01*
X44471878Y-39293995D01*
X44601459Y-39400341D01*
X44707805Y-39529922D01*
X44786823Y-39677756D01*
X44835487Y-39838179D01*
X44851917Y-40005000D01*
X44835487Y-40171821D01*
X44786823Y-40332244D01*
X44707805Y-40480078D01*
X44601459Y-40609659D01*
X44471878Y-40716005D01*
X44324044Y-40795023D01*
X44324041Y-40795024D01*
X44324039Y-40795025D01*
X44163625Y-40843686D01*
X44163624Y-40843686D01*
X44163621Y-40843687D01*
X44038604Y-40856000D01*
X43954996Y-40856000D01*
X43829979Y-40843687D01*
X43829976Y-40843686D01*
X43829975Y-40843686D01*
X43669561Y-40795025D01*
X43669559Y-40795024D01*
X43669556Y-40795023D01*
X43521722Y-40716005D01*
X43392141Y-40609659D01*
X43285795Y-40480078D01*
X43206777Y-40332244D01*
X43158113Y-40171821D01*
X43141683Y-40005000D01*
X43158113Y-39838179D01*
X43206777Y-39677756D01*
X43285795Y-39529922D01*
X43392141Y-39400341D01*
X43521722Y-39293995D01*
X43669556Y-39214977D01*
X43669559Y-39214976D01*
X43669561Y-39214975D01*
X43829975Y-39166314D01*
X43829976Y-39166314D01*
X43829979Y-39166313D01*
X43954996Y-39154000D01*
X44038604Y-39154000D01*
X44163621Y-39166313D01*
X44163621Y-39166313D01*
G37*
G36*
X46703621Y-39166313D02*
X46703624Y-39166314D01*
X46703625Y-39166314D01*
X46864039Y-39214975D01*
X46864041Y-39214976D01*
X46864044Y-39214977D01*
X47011878Y-39293995D01*
X47141459Y-39400341D01*
X47247805Y-39529922D01*
X47326823Y-39677756D01*
X47375487Y-39838179D01*
X47391917Y-40005000D01*
X47375487Y-40171821D01*
X47326823Y-40332244D01*
X47247805Y-40480078D01*
X47141459Y-40609659D01*
X47011878Y-40716005D01*
X46864044Y-40795023D01*
X46864041Y-40795024D01*
X46864039Y-40795025D01*
X46703625Y-40843686D01*
X46703624Y-40843686D01*
X46703621Y-40843687D01*
X46578604Y-40856000D01*
X46494996Y-40856000D01*
X46369979Y-40843687D01*
X46369976Y-40843686D01*
X46369975Y-40843686D01*
X46209561Y-40795025D01*
X46209559Y-40795024D01*
X46209556Y-40795023D01*
X46061722Y-40716005D01*
X45932141Y-40609659D01*
X45825795Y-40480078D01*
X45746777Y-40332244D01*
X45698113Y-40171821D01*
X45681683Y-40005000D01*
X45698113Y-39838179D01*
X45746777Y-39677756D01*
X45825795Y-39529922D01*
X45932141Y-39400341D01*
X46061722Y-39293995D01*
X46209556Y-39214977D01*
X46209559Y-39214976D01*
X46209561Y-39214975D01*
X46369975Y-39166314D01*
X46369976Y-39166314D01*
X46369979Y-39166313D01*
X46494996Y-39154000D01*
X46578604Y-39154000D01*
X46703621Y-39166313D01*
X46703621Y-39166313D01*
G37*
G36*
X49243621Y-39166313D02*
X49243624Y-39166314D01*
X49243625Y-39166314D01*
X49404039Y-39214975D01*
X49404041Y-39214976D01*
X49404044Y-39214977D01*
X49551878Y-39293995D01*
X49681459Y-39400341D01*
X49787805Y-39529922D01*
X49866823Y-39677756D01*
X49915487Y-39838179D01*
X49931917Y-40005000D01*
X49915487Y-40171821D01*
X49866823Y-40332244D01*
X49787805Y-40480078D01*
X49681459Y-40609659D01*
X49551878Y-40716005D01*
X49404044Y-40795023D01*
X49404041Y-40795024D01*
X49404039Y-40795025D01*
X49243625Y-40843686D01*
X49243624Y-40843686D01*
X49243621Y-40843687D01*
X49118604Y-40856000D01*
X49034996Y-40856000D01*
X48909979Y-40843687D01*
X48909976Y-40843686D01*
X48909975Y-40843686D01*
X48749561Y-40795025D01*
X48749559Y-40795024D01*
X48749556Y-40795023D01*
X48601722Y-40716005D01*
X48472141Y-40609659D01*
X48365795Y-40480078D01*
X48286777Y-40332244D01*
X48238113Y-40171821D01*
X48221683Y-40005000D01*
X48238113Y-39838179D01*
X48286777Y-39677756D01*
X48365795Y-39529922D01*
X48472141Y-39400341D01*
X48601722Y-39293995D01*
X48749556Y-39214977D01*
X48749559Y-39214976D01*
X48749561Y-39214975D01*
X48909975Y-39166314D01*
X48909976Y-39166314D01*
X48909979Y-39166313D01*
X49034996Y-39154000D01*
X49118604Y-39154000D01*
X49243621Y-39166313D01*
X49243621Y-39166313D01*
G37*
G36*
X51783621Y-39166313D02*
X51783624Y-39166314D01*
X51783625Y-39166314D01*
X51944039Y-39214975D01*
X51944041Y-39214976D01*
X51944044Y-39214977D01*
X52091878Y-39293995D01*
X52221459Y-39400341D01*
X52327805Y-39529922D01*
X52406823Y-39677756D01*
X52455487Y-39838179D01*
X52471917Y-40005000D01*
X52455487Y-40171821D01*
X52406823Y-40332244D01*
X52327805Y-40480078D01*
X52221459Y-40609659D01*
X52091878Y-40716005D01*
X51944044Y-40795023D01*
X51944041Y-40795024D01*
X51944039Y-40795025D01*
X51783625Y-40843686D01*
X51783624Y-40843686D01*
X51783621Y-40843687D01*
X51658604Y-40856000D01*
X51574996Y-40856000D01*
X51449979Y-40843687D01*
X51449976Y-40843686D01*
X51449975Y-40843686D01*
X51289561Y-40795025D01*
X51289559Y-40795024D01*
X51289556Y-40795023D01*
X51141722Y-40716005D01*
X51012141Y-40609659D01*
X50905795Y-40480078D01*
X50826777Y-40332244D01*
X50778113Y-40171821D01*
X50761683Y-40005000D01*
X50778113Y-39838179D01*
X50826777Y-39677756D01*
X50905795Y-39529922D01*
X51012141Y-39400341D01*
X51141722Y-39293995D01*
X51289556Y-39214977D01*
X51289559Y-39214976D01*
X51289561Y-39214975D01*
X51449975Y-39166314D01*
X51449976Y-39166314D01*
X51449979Y-39166313D01*
X51574996Y-39154000D01*
X51658604Y-39154000D01*
X51783621Y-39166313D01*
X51783621Y-39166313D01*
G37*
G36*
X54323621Y-39166313D02*
X54323624Y-39166314D01*
X54323625Y-39166314D01*
X54484039Y-39214975D01*
X54484041Y-39214976D01*
X54484044Y-39214977D01*
X54631878Y-39293995D01*
X54761459Y-39400341D01*
X54867805Y-39529922D01*
X54946823Y-39677756D01*
X54995487Y-39838179D01*
X55011917Y-40005000D01*
X54995487Y-40171821D01*
X54946823Y-40332244D01*
X54867805Y-40480078D01*
X54761459Y-40609659D01*
X54631878Y-40716005D01*
X54484044Y-40795023D01*
X54484041Y-40795024D01*
X54484039Y-40795025D01*
X54323625Y-40843686D01*
X54323624Y-40843686D01*
X54323621Y-40843687D01*
X54198604Y-40856000D01*
X54114996Y-40856000D01*
X53989979Y-40843687D01*
X53989976Y-40843686D01*
X53989975Y-40843686D01*
X53829561Y-40795025D01*
X53829559Y-40795024D01*
X53829556Y-40795023D01*
X53681722Y-40716005D01*
X53552141Y-40609659D01*
X53445795Y-40480078D01*
X53366777Y-40332244D01*
X53318113Y-40171821D01*
X53301683Y-40005000D01*
X53318113Y-39838179D01*
X53366777Y-39677756D01*
X53445795Y-39529922D01*
X53552141Y-39400341D01*
X53681722Y-39293995D01*
X53829556Y-39214977D01*
X53829559Y-39214976D01*
X53829561Y-39214975D01*
X53989975Y-39166314D01*
X53989976Y-39166314D01*
X53989979Y-39166313D01*
X54114996Y-39154000D01*
X54198604Y-39154000D01*
X54323621Y-39166313D01*
X54323621Y-39166313D01*
G37*
G36*
X56863621Y-39166313D02*
X56863624Y-39166314D01*
X56863625Y-39166314D01*
X57024039Y-39214975D01*
X57024041Y-39214976D01*
X57024044Y-39214977D01*
X57171878Y-39293995D01*
X57301459Y-39400341D01*
X57407805Y-39529922D01*
X57486823Y-39677756D01*
X57535487Y-39838179D01*
X57551917Y-40005000D01*
X57535487Y-40171821D01*
X57486823Y-40332244D01*
X57407805Y-40480078D01*
X57301459Y-40609659D01*
X57171878Y-40716005D01*
X57024044Y-40795023D01*
X57024041Y-40795024D01*
X57024039Y-40795025D01*
X56863625Y-40843686D01*
X56863624Y-40843686D01*
X56863621Y-40843687D01*
X56738604Y-40856000D01*
X56654996Y-40856000D01*
X56529979Y-40843687D01*
X56529976Y-40843686D01*
X56529975Y-40843686D01*
X56369561Y-40795025D01*
X56369559Y-40795024D01*
X56369556Y-40795023D01*
X56221722Y-40716005D01*
X56092141Y-40609659D01*
X55985795Y-40480078D01*
X55906777Y-40332244D01*
X55858113Y-40171821D01*
X55841683Y-40005000D01*
X55858113Y-39838179D01*
X55906777Y-39677756D01*
X55985795Y-39529922D01*
X56092141Y-39400341D01*
X56221722Y-39293995D01*
X56369556Y-39214977D01*
X56369559Y-39214976D01*
X56369561Y-39214975D01*
X56529975Y-39166314D01*
X56529976Y-39166314D01*
X56529979Y-39166313D01*
X56654996Y-39154000D01*
X56738604Y-39154000D01*
X56863621Y-39166313D01*
X56863621Y-39166313D01*
G37*
G36*
X63463621Y-39166313D02*
X63463624Y-39166314D01*
X63463625Y-39166314D01*
X63624039Y-39214975D01*
X63624041Y-39214976D01*
X63624044Y-39214977D01*
X63771878Y-39293995D01*
X63901459Y-39400341D01*
X64007805Y-39529922D01*
X64086823Y-39677756D01*
X64135487Y-39838179D01*
X64151917Y-40005000D01*
X64135487Y-40171821D01*
X64086823Y-40332244D01*
X64007805Y-40480078D01*
X63901459Y-40609659D01*
X63771878Y-40716005D01*
X63624044Y-40795023D01*
X63624041Y-40795024D01*
X63624039Y-40795025D01*
X63463625Y-40843686D01*
X63463624Y-40843686D01*
X63463621Y-40843687D01*
X63338604Y-40856000D01*
X63254996Y-40856000D01*
X63129979Y-40843687D01*
X63129976Y-40843686D01*
X63129975Y-40843686D01*
X62969561Y-40795025D01*
X62969559Y-40795024D01*
X62969556Y-40795023D01*
X62821722Y-40716005D01*
X62692141Y-40609659D01*
X62585795Y-40480078D01*
X62506777Y-40332244D01*
X62458113Y-40171821D01*
X62441683Y-40005000D01*
X62458113Y-39838179D01*
X62506777Y-39677756D01*
X62585795Y-39529922D01*
X62692141Y-39400341D01*
X62821722Y-39293995D01*
X62969556Y-39214977D01*
X62969559Y-39214976D01*
X62969561Y-39214975D01*
X63129975Y-39166314D01*
X63129976Y-39166314D01*
X63129979Y-39166313D01*
X63254996Y-39154000D01*
X63338604Y-39154000D01*
X63463621Y-39166313D01*
X63463621Y-39166313D01*
G37*
G36*
X76163621Y-39166313D02*
X76163624Y-39166314D01*
X76163625Y-39166314D01*
X76324039Y-39214975D01*
X76324041Y-39214976D01*
X76324044Y-39214977D01*
X76471878Y-39293995D01*
X76601459Y-39400341D01*
X76707805Y-39529922D01*
X76786823Y-39677756D01*
X76835487Y-39838179D01*
X76851917Y-40005000D01*
X76835487Y-40171821D01*
X76786823Y-40332244D01*
X76707805Y-40480078D01*
X76601459Y-40609659D01*
X76471878Y-40716005D01*
X76324044Y-40795023D01*
X76324041Y-40795024D01*
X76324039Y-40795025D01*
X76163625Y-40843686D01*
X76163624Y-40843686D01*
X76163621Y-40843687D01*
X76038604Y-40856000D01*
X75954996Y-40856000D01*
X75829979Y-40843687D01*
X75829976Y-40843686D01*
X75829975Y-40843686D01*
X75669561Y-40795025D01*
X75669559Y-40795024D01*
X75669556Y-40795023D01*
X75521722Y-40716005D01*
X75392141Y-40609659D01*
X75285795Y-40480078D01*
X75206777Y-40332244D01*
X75158113Y-40171821D01*
X75141683Y-40005000D01*
X75158113Y-39838179D01*
X75206777Y-39677756D01*
X75285795Y-39529922D01*
X75392141Y-39400341D01*
X75521722Y-39293995D01*
X75669556Y-39214977D01*
X75669559Y-39214976D01*
X75669561Y-39214975D01*
X75829975Y-39166314D01*
X75829976Y-39166314D01*
X75829979Y-39166313D01*
X75954996Y-39154000D01*
X76038604Y-39154000D01*
X76163621Y-39166313D01*
X76163621Y-39166313D01*
G37*
G36*
X66003621Y-39166313D02*
X66003624Y-39166314D01*
X66003625Y-39166314D01*
X66164039Y-39214975D01*
X66164041Y-39214976D01*
X66164044Y-39214977D01*
X66311878Y-39293995D01*
X66441459Y-39400341D01*
X66547805Y-39529922D01*
X66626823Y-39677756D01*
X66675487Y-39838179D01*
X66691917Y-40005000D01*
X66675487Y-40171821D01*
X66626823Y-40332244D01*
X66547805Y-40480078D01*
X66441459Y-40609659D01*
X66311878Y-40716005D01*
X66164044Y-40795023D01*
X66164041Y-40795024D01*
X66164039Y-40795025D01*
X66003625Y-40843686D01*
X66003624Y-40843686D01*
X66003621Y-40843687D01*
X65878604Y-40856000D01*
X65794996Y-40856000D01*
X65669979Y-40843687D01*
X65669976Y-40843686D01*
X65669975Y-40843686D01*
X65509561Y-40795025D01*
X65509559Y-40795024D01*
X65509556Y-40795023D01*
X65361722Y-40716005D01*
X65232141Y-40609659D01*
X65125795Y-40480078D01*
X65046777Y-40332244D01*
X64998113Y-40171821D01*
X64981683Y-40005000D01*
X64998113Y-39838179D01*
X65046777Y-39677756D01*
X65125795Y-39529922D01*
X65232141Y-39400341D01*
X65361722Y-39293995D01*
X65509556Y-39214977D01*
X65509559Y-39214976D01*
X65509561Y-39214975D01*
X65669975Y-39166314D01*
X65669976Y-39166314D01*
X65669979Y-39166313D01*
X65794996Y-39154000D01*
X65878604Y-39154000D01*
X66003621Y-39166313D01*
X66003621Y-39166313D01*
G37*
G36*
X64338466Y-37233565D02*
X64377137Y-37245296D01*
X64412779Y-37264348D01*
X64444017Y-37289983D01*
X64469652Y-37321221D01*
X64488704Y-37356863D01*
X64500435Y-37395534D01*
X64505000Y-37441888D01*
X64505000Y-38093112D01*
X64500435Y-38139466D01*
X64488704Y-38178137D01*
X64469652Y-38213779D01*
X64444017Y-38245017D01*
X64412779Y-38270652D01*
X64377137Y-38289704D01*
X64338466Y-38301435D01*
X64292112Y-38306000D01*
X63215888Y-38306000D01*
X63169534Y-38301435D01*
X63130863Y-38289704D01*
X63095221Y-38270652D01*
X63063983Y-38245017D01*
X63038348Y-38213779D01*
X63019296Y-38178137D01*
X63007565Y-38139466D01*
X63003000Y-38093112D01*
X63003000Y-37441888D01*
X63007565Y-37395534D01*
X63019296Y-37356863D01*
X63038348Y-37321221D01*
X63063983Y-37289983D01*
X63095221Y-37264348D01*
X63130863Y-37245296D01*
X63169534Y-37233565D01*
X63215888Y-37229000D01*
X64292112Y-37229000D01*
X64338466Y-37233565D01*
X64338466Y-37233565D01*
G37*
G36*
X50107466Y-36718565D02*
X50146137Y-36730296D01*
X50181779Y-36749348D01*
X50213017Y-36774983D01*
X50238652Y-36806221D01*
X50257704Y-36841863D01*
X50269435Y-36880534D01*
X50274000Y-36926888D01*
X50274000Y-38003112D01*
X50269435Y-38049466D01*
X50257704Y-38088137D01*
X50238652Y-38123779D01*
X50213017Y-38155017D01*
X50181779Y-38180652D01*
X50146137Y-38199704D01*
X50107466Y-38211435D01*
X50061112Y-38216000D01*
X49409888Y-38216000D01*
X49363534Y-38211435D01*
X49324863Y-38199704D01*
X49289221Y-38180652D01*
X49257983Y-38155017D01*
X49232348Y-38123779D01*
X49213296Y-38088137D01*
X49201565Y-38049466D01*
X49197000Y-38003112D01*
X49197000Y-36926888D01*
X49201565Y-36880534D01*
X49213296Y-36841863D01*
X49232348Y-36806221D01*
X49257983Y-36774983D01*
X49289221Y-36749348D01*
X49324863Y-36730296D01*
X49363534Y-36718565D01*
X49409888Y-36714000D01*
X50061112Y-36714000D01*
X50107466Y-36718565D01*
X50107466Y-36718565D01*
G37*
G36*
X51982466Y-36718565D02*
X52021137Y-36730296D01*
X52056779Y-36749348D01*
X52088017Y-36774983D01*
X52113652Y-36806221D01*
X52132704Y-36841863D01*
X52144435Y-36880534D01*
X52149000Y-36926888D01*
X52149000Y-38003112D01*
X52144435Y-38049466D01*
X52132704Y-38088137D01*
X52113652Y-38123779D01*
X52088017Y-38155017D01*
X52056779Y-38180652D01*
X52021137Y-38199704D01*
X51982466Y-38211435D01*
X51936112Y-38216000D01*
X51284888Y-38216000D01*
X51238534Y-38211435D01*
X51199863Y-38199704D01*
X51164221Y-38180652D01*
X51132983Y-38155017D01*
X51107348Y-38123779D01*
X51088296Y-38088137D01*
X51076565Y-38049466D01*
X51072000Y-38003112D01*
X51072000Y-36926888D01*
X51076565Y-36880534D01*
X51088296Y-36841863D01*
X51107348Y-36806221D01*
X51132983Y-36774983D01*
X51164221Y-36749348D01*
X51199863Y-36730296D01*
X51238534Y-36718565D01*
X51284888Y-36714000D01*
X51936112Y-36714000D01*
X51982466Y-36718565D01*
X51982466Y-36718565D01*
G37*
G36*
X54686466Y-37106565D02*
X54725137Y-37118296D01*
X54760779Y-37137348D01*
X54792017Y-37162983D01*
X54817652Y-37194221D01*
X54836704Y-37229863D01*
X54848435Y-37268534D01*
X54853000Y-37314888D01*
X54853000Y-37966112D01*
X54848435Y-38012466D01*
X54836704Y-38051137D01*
X54817652Y-38086779D01*
X54792017Y-38118017D01*
X54760779Y-38143652D01*
X54725137Y-38162704D01*
X54686466Y-38174435D01*
X54640112Y-38179000D01*
X53563888Y-38179000D01*
X53517534Y-38174435D01*
X53478863Y-38162704D01*
X53443221Y-38143652D01*
X53411983Y-38118017D01*
X53386348Y-38086779D01*
X53367296Y-38051137D01*
X53355565Y-38012466D01*
X53351000Y-37966112D01*
X53351000Y-37314888D01*
X53355565Y-37268534D01*
X53367296Y-37229863D01*
X53386348Y-37194221D01*
X53411983Y-37162983D01*
X53443221Y-37137348D01*
X53478863Y-37118296D01*
X53517534Y-37106565D01*
X53563888Y-37102000D01*
X54640112Y-37102000D01*
X54686466Y-37106565D01*
X54686466Y-37106565D01*
G37*
G36*
X67894466Y-36296065D02*
X67933137Y-36307796D01*
X67968779Y-36326848D01*
X68000017Y-36352483D01*
X68025652Y-36383721D01*
X68044704Y-36419363D01*
X68056435Y-36458034D01*
X68061000Y-36504388D01*
X68061000Y-37155612D01*
X68056435Y-37201966D01*
X68044704Y-37240637D01*
X68025652Y-37276279D01*
X68000017Y-37307517D01*
X67968779Y-37333152D01*
X67933137Y-37352204D01*
X67894466Y-37363935D01*
X67848112Y-37368500D01*
X66771888Y-37368500D01*
X66725534Y-37363935D01*
X66686863Y-37352204D01*
X66651221Y-37333152D01*
X66619983Y-37307517D01*
X66594348Y-37276279D01*
X66575296Y-37240637D01*
X66563565Y-37201966D01*
X66559000Y-37155612D01*
X66559000Y-36504388D01*
X66563565Y-36458034D01*
X66575296Y-36419363D01*
X66594348Y-36383721D01*
X66619983Y-36352483D01*
X66651221Y-36326848D01*
X66686863Y-36307796D01*
X66725534Y-36296065D01*
X66771888Y-36291500D01*
X67848112Y-36291500D01*
X67894466Y-36296065D01*
X67894466Y-36296065D01*
G37*
G36*
X31340527Y-34302736D02*
X31440410Y-34322604D01*
X31722674Y-34439521D01*
X31976705Y-34609259D01*
X32192741Y-34825295D01*
X32362479Y-35079326D01*
X32479396Y-35361590D01*
X32493504Y-35432517D01*
X32539000Y-35661238D01*
X32539000Y-35966762D01*
X32500214Y-36161750D01*
X32479396Y-36266410D01*
X32362479Y-36548674D01*
X32192741Y-36802705D01*
X31976705Y-37018741D01*
X31722674Y-37188479D01*
X31440410Y-37305396D01*
X31360852Y-37321221D01*
X31140762Y-37365000D01*
X30835238Y-37365000D01*
X30615148Y-37321221D01*
X30535590Y-37305396D01*
X30253326Y-37188479D01*
X29999295Y-37018741D01*
X29783259Y-36802705D01*
X29613521Y-36548674D01*
X29496604Y-36266410D01*
X29475786Y-36161750D01*
X29437000Y-35966762D01*
X29437000Y-35661238D01*
X29482496Y-35432517D01*
X29496604Y-35361590D01*
X29613521Y-35079326D01*
X29783259Y-34825295D01*
X29999295Y-34609259D01*
X30253326Y-34439521D01*
X30535590Y-34322604D01*
X30635473Y-34302736D01*
X30835238Y-34263000D01*
X31140762Y-34263000D01*
X31340527Y-34302736D01*
X31340527Y-34302736D01*
G37*
G36*
X71091527Y-34302736D02*
X71191410Y-34322604D01*
X71473674Y-34439521D01*
X71727705Y-34609259D01*
X71943741Y-34825295D01*
X72113479Y-35079326D01*
X72230396Y-35361590D01*
X72244504Y-35432517D01*
X72290000Y-35661238D01*
X72290000Y-35966762D01*
X72251214Y-36161750D01*
X72230396Y-36266410D01*
X72113479Y-36548674D01*
X71943741Y-36802705D01*
X71727705Y-37018741D01*
X71473674Y-37188479D01*
X71191410Y-37305396D01*
X71111852Y-37321221D01*
X70891762Y-37365000D01*
X70586238Y-37365000D01*
X70366148Y-37321221D01*
X70286590Y-37305396D01*
X70004326Y-37188479D01*
X69750295Y-37018741D01*
X69534259Y-36802705D01*
X69364521Y-36548674D01*
X69247604Y-36266410D01*
X69226786Y-36161750D01*
X69188000Y-35966762D01*
X69188000Y-35661238D01*
X69233496Y-35432517D01*
X69247604Y-35361590D01*
X69364521Y-35079326D01*
X69534259Y-34825295D01*
X69750295Y-34609259D01*
X70004326Y-34439521D01*
X70286590Y-34322604D01*
X70386473Y-34302736D01*
X70586238Y-34263000D01*
X70891762Y-34263000D01*
X71091527Y-34302736D01*
X71091527Y-34302736D01*
G37*
G36*
X75282527Y-34302736D02*
X75382410Y-34322604D01*
X75664674Y-34439521D01*
X75918705Y-34609259D01*
X76134741Y-34825295D01*
X76304479Y-35079326D01*
X76421396Y-35361590D01*
X76435504Y-35432517D01*
X76481000Y-35661238D01*
X76481000Y-35966762D01*
X76442214Y-36161750D01*
X76421396Y-36266410D01*
X76304479Y-36548674D01*
X76134741Y-36802705D01*
X75918705Y-37018741D01*
X75664674Y-37188479D01*
X75382410Y-37305396D01*
X75302852Y-37321221D01*
X75082762Y-37365000D01*
X74777238Y-37365000D01*
X74557148Y-37321221D01*
X74477590Y-37305396D01*
X74195326Y-37188479D01*
X73941295Y-37018741D01*
X73725259Y-36802705D01*
X73555521Y-36548674D01*
X73438604Y-36266410D01*
X73417786Y-36161750D01*
X73379000Y-35966762D01*
X73379000Y-35661238D01*
X73424496Y-35432517D01*
X73438604Y-35361590D01*
X73555521Y-35079326D01*
X73725259Y-34825295D01*
X73941295Y-34609259D01*
X74195326Y-34439521D01*
X74477590Y-34322604D01*
X74577473Y-34302736D01*
X74777238Y-34263000D01*
X75082762Y-34263000D01*
X75282527Y-34302736D01*
X75282527Y-34302736D01*
G37*
G36*
X35658527Y-34302736D02*
X35758410Y-34322604D01*
X36040674Y-34439521D01*
X36294705Y-34609259D01*
X36510741Y-34825295D01*
X36680479Y-35079326D01*
X36797396Y-35361590D01*
X36811504Y-35432517D01*
X36857000Y-35661238D01*
X36857000Y-35966762D01*
X36818214Y-36161750D01*
X36797396Y-36266410D01*
X36680479Y-36548674D01*
X36510741Y-36802705D01*
X36294705Y-37018741D01*
X36040674Y-37188479D01*
X35758410Y-37305396D01*
X35678852Y-37321221D01*
X35458762Y-37365000D01*
X35153238Y-37365000D01*
X34933148Y-37321221D01*
X34853590Y-37305396D01*
X34571326Y-37188479D01*
X34317295Y-37018741D01*
X34101259Y-36802705D01*
X33931521Y-36548674D01*
X33814604Y-36266410D01*
X33793786Y-36161750D01*
X33755000Y-35966762D01*
X33755000Y-35661238D01*
X33800496Y-35432517D01*
X33814604Y-35361590D01*
X33931521Y-35079326D01*
X34101259Y-34825295D01*
X34317295Y-34609259D01*
X34571326Y-34439521D01*
X34853590Y-34322604D01*
X34953473Y-34302736D01*
X35153238Y-34263000D01*
X35458762Y-34263000D01*
X35658527Y-34302736D01*
X35658527Y-34302736D01*
G37*
G36*
X64338466Y-35358565D02*
X64377137Y-35370296D01*
X64412779Y-35389348D01*
X64444017Y-35414983D01*
X64469652Y-35446221D01*
X64488704Y-35481863D01*
X64500435Y-35520534D01*
X64505000Y-35566888D01*
X64505000Y-36218112D01*
X64500435Y-36264466D01*
X64488704Y-36303137D01*
X64469652Y-36338779D01*
X64444017Y-36370017D01*
X64412779Y-36395652D01*
X64377137Y-36414704D01*
X64338466Y-36426435D01*
X64292112Y-36431000D01*
X63215888Y-36431000D01*
X63169534Y-36426435D01*
X63130863Y-36414704D01*
X63095221Y-36395652D01*
X63063983Y-36370017D01*
X63038348Y-36338779D01*
X63019296Y-36303137D01*
X63007565Y-36264466D01*
X63003000Y-36218112D01*
X63003000Y-35566888D01*
X63007565Y-35520534D01*
X63019296Y-35481863D01*
X63038348Y-35446221D01*
X63063983Y-35414983D01*
X63095221Y-35389348D01*
X63130863Y-35370296D01*
X63169534Y-35358565D01*
X63215888Y-35354000D01*
X64292112Y-35354000D01*
X64338466Y-35358565D01*
X64338466Y-35358565D01*
G37*
G36*
X54686466Y-35231565D02*
X54725137Y-35243296D01*
X54760779Y-35262348D01*
X54792017Y-35287983D01*
X54817652Y-35319221D01*
X54836704Y-35354863D01*
X54848435Y-35393534D01*
X54853000Y-35439888D01*
X54853000Y-36091112D01*
X54848435Y-36137466D01*
X54836704Y-36176137D01*
X54817652Y-36211779D01*
X54792017Y-36243017D01*
X54760779Y-36268652D01*
X54725137Y-36287704D01*
X54686466Y-36299435D01*
X54640112Y-36304000D01*
X53563888Y-36304000D01*
X53517534Y-36299435D01*
X53478863Y-36287704D01*
X53443221Y-36268652D01*
X53411983Y-36243017D01*
X53386348Y-36211779D01*
X53367296Y-36176137D01*
X53355565Y-36137466D01*
X53351000Y-36091112D01*
X53351000Y-35439888D01*
X53355565Y-35393534D01*
X53367296Y-35354863D01*
X53386348Y-35319221D01*
X53411983Y-35287983D01*
X53443221Y-35262348D01*
X53478863Y-35243296D01*
X53517534Y-35231565D01*
X53563888Y-35227000D01*
X54640112Y-35227000D01*
X54686466Y-35231565D01*
X54686466Y-35231565D01*
G37*
G36*
X59653252Y-32063818D02*
X59653254Y-32063819D01*
X59653255Y-32063819D01*
X60026513Y-32218427D01*
X60144963Y-32297573D01*
X60362439Y-32442886D01*
X60648114Y-32728561D01*
X60648116Y-32728564D01*
X60872573Y-33064487D01*
X60974576Y-33310745D01*
X61027182Y-33437748D01*
X61106000Y-33833993D01*
X61106000Y-34238007D01*
X61027387Y-34633222D01*
X61027181Y-34634255D01*
X60872573Y-35007513D01*
X60690094Y-35280612D01*
X60648114Y-35343439D01*
X60362439Y-35629114D01*
X60362436Y-35629116D01*
X60026513Y-35853573D01*
X59653255Y-36008181D01*
X59653254Y-36008181D01*
X59653252Y-36008182D01*
X59257007Y-36087000D01*
X58852993Y-36087000D01*
X58456748Y-36008182D01*
X58456746Y-36008181D01*
X58456745Y-36008181D01*
X58083487Y-35853573D01*
X57747564Y-35629116D01*
X57747561Y-35629114D01*
X57461886Y-35343439D01*
X57419906Y-35280612D01*
X57237427Y-35007513D01*
X57082819Y-34634255D01*
X57082614Y-34633222D01*
X57004000Y-34238007D01*
X57004000Y-33833993D01*
X57082818Y-33437748D01*
X57135424Y-33310745D01*
X57237427Y-33064487D01*
X57461884Y-32728564D01*
X57461886Y-32728561D01*
X57747561Y-32442886D01*
X57965037Y-32297573D01*
X58083487Y-32218427D01*
X58456745Y-32063819D01*
X58456746Y-32063819D01*
X58456748Y-32063818D01*
X58852993Y-31985000D01*
X59257007Y-31985000D01*
X59653252Y-32063818D01*
X59653252Y-32063818D01*
G37*
G36*
X47207252Y-31936818D02*
X47207254Y-31936819D01*
X47207255Y-31936819D01*
X47580513Y-32091427D01*
X47770583Y-32218428D01*
X47916439Y-32315886D01*
X48202114Y-32601561D01*
X48202116Y-32601564D01*
X48426573Y-32937487D01*
X48581181Y-33310745D01*
X48581182Y-33310748D01*
X48660000Y-33706993D01*
X48660000Y-34111007D01*
X48590208Y-34461877D01*
X48581181Y-34507255D01*
X48426573Y-34880513D01*
X48426572Y-34880514D01*
X48202114Y-35216439D01*
X47916439Y-35502114D01*
X47916436Y-35502116D01*
X47580513Y-35726573D01*
X47207255Y-35881181D01*
X47207254Y-35881181D01*
X47207252Y-35881182D01*
X46811007Y-35960000D01*
X46406993Y-35960000D01*
X46010748Y-35881182D01*
X46010746Y-35881181D01*
X46010745Y-35881181D01*
X45637487Y-35726573D01*
X45301564Y-35502116D01*
X45301561Y-35502114D01*
X45015886Y-35216439D01*
X44791428Y-34880514D01*
X44791427Y-34880513D01*
X44636819Y-34507255D01*
X44627793Y-34461877D01*
X44558000Y-34111007D01*
X44558000Y-33706993D01*
X44636818Y-33310748D01*
X44636819Y-33310745D01*
X44791427Y-32937487D01*
X45015884Y-32601564D01*
X45015886Y-32601561D01*
X45301561Y-32315886D01*
X45447417Y-32218428D01*
X45637487Y-32091427D01*
X46010745Y-31936819D01*
X46010746Y-31936819D01*
X46010748Y-31936818D01*
X46406993Y-31858000D01*
X46811007Y-31858000D01*
X47207252Y-31936818D01*
X47207252Y-31936818D01*
G37*
G36*
X67894466Y-34421065D02*
X67933137Y-34432796D01*
X67968779Y-34451848D01*
X68000017Y-34477483D01*
X68025652Y-34508721D01*
X68044704Y-34544363D01*
X68056435Y-34583034D01*
X68061000Y-34629388D01*
X68061000Y-35280612D01*
X68056435Y-35326966D01*
X68044704Y-35365637D01*
X68025652Y-35401279D01*
X68000017Y-35432517D01*
X67968779Y-35458152D01*
X67933137Y-35477204D01*
X67894466Y-35488935D01*
X67848112Y-35493500D01*
X66771888Y-35493500D01*
X66725534Y-35488935D01*
X66686863Y-35477204D01*
X66651221Y-35458152D01*
X66619983Y-35432517D01*
X66594348Y-35401279D01*
X66575296Y-35365637D01*
X66563565Y-35326966D01*
X66559000Y-35280612D01*
X66559000Y-34629388D01*
X66563565Y-34583034D01*
X66575296Y-34544363D01*
X66594348Y-34508721D01*
X66619983Y-34477483D01*
X66651221Y-34451848D01*
X66686863Y-34432796D01*
X66725534Y-34421065D01*
X66771888Y-34416500D01*
X67848112Y-34416500D01*
X67894466Y-34421065D01*
X67894466Y-34421065D01*
G37*
G36*
X79592252Y-28507818D02*
X79592254Y-28507819D01*
X79592255Y-28507819D01*
X79965513Y-28662427D01*
X80109368Y-28758548D01*
X80301439Y-28886886D01*
X80587114Y-29172561D01*
X80587116Y-29172564D01*
X80811573Y-29508487D01*
X80966181Y-29881745D01*
X81045000Y-30277994D01*
X81045000Y-30682006D01*
X80966181Y-31078255D01*
X80811573Y-31451513D01*
X80811572Y-31451514D01*
X80587114Y-31787439D01*
X80301439Y-32073114D01*
X80301436Y-32073116D01*
X79965513Y-32297573D01*
X79592255Y-32452181D01*
X79592254Y-32452181D01*
X79592252Y-32452182D01*
X79196007Y-32531000D01*
X78791993Y-32531000D01*
X78395748Y-32452182D01*
X78395746Y-32452181D01*
X78395745Y-32452181D01*
X78022487Y-32297573D01*
X77686564Y-32073116D01*
X77686561Y-32073114D01*
X77400886Y-31787439D01*
X77176428Y-31451514D01*
X77176427Y-31451513D01*
X77021819Y-31078255D01*
X76943000Y-30682006D01*
X76943000Y-30277994D01*
X77021819Y-29881745D01*
X77176427Y-29508487D01*
X77400884Y-29172564D01*
X77400886Y-29172561D01*
X77686561Y-28886886D01*
X77878632Y-28758548D01*
X78022487Y-28662427D01*
X78395745Y-28507819D01*
X78395746Y-28507819D01*
X78395748Y-28507818D01*
X78791993Y-28429000D01*
X79196007Y-28429000D01*
X79592252Y-28507818D01*
X79592252Y-28507818D01*
G37*
G36*
X27268252Y-28507818D02*
X27268254Y-28507819D01*
X27268255Y-28507819D01*
X27641513Y-28662427D01*
X27785368Y-28758548D01*
X27977439Y-28886886D01*
X28263114Y-29172561D01*
X28263116Y-29172564D01*
X28487573Y-29508487D01*
X28642181Y-29881745D01*
X28721000Y-30277994D01*
X28721000Y-30682006D01*
X28642181Y-31078255D01*
X28487573Y-31451513D01*
X28487572Y-31451514D01*
X28263114Y-31787439D01*
X27977439Y-32073114D01*
X27977436Y-32073116D01*
X27641513Y-32297573D01*
X27268255Y-32452181D01*
X27268254Y-32452181D01*
X27268252Y-32452182D01*
X26872007Y-32531000D01*
X26467993Y-32531000D01*
X26071748Y-32452182D01*
X26071746Y-32452181D01*
X26071745Y-32452181D01*
X25698487Y-32297573D01*
X25362564Y-32073116D01*
X25362561Y-32073114D01*
X25076886Y-31787439D01*
X24852428Y-31451514D01*
X24852427Y-31451513D01*
X24697819Y-31078255D01*
X24619000Y-30682006D01*
X24619000Y-30277994D01*
X24697819Y-29881745D01*
X24852427Y-29508487D01*
X25076884Y-29172564D01*
X25076886Y-29172561D01*
X25362561Y-28886886D01*
X25554632Y-28758548D01*
X25698487Y-28662427D01*
X26071745Y-28507819D01*
X26071746Y-28507819D01*
X26071748Y-28507818D01*
X26467993Y-28429000D01*
X26872007Y-28429000D01*
X27268252Y-28507818D01*
X27268252Y-28507818D01*
G37*
G36*
X16634477Y-27320465D02*
X16672164Y-27331898D01*
X16706903Y-27350466D01*
X16737348Y-27375452D01*
X16762334Y-27405897D01*
X16780902Y-27440636D01*
X16792335Y-27478323D01*
X16796800Y-27523661D01*
X16796800Y-28610339D01*
X16792335Y-28655677D01*
X16780902Y-28693364D01*
X16762334Y-28728103D01*
X16737348Y-28758548D01*
X16706903Y-28783534D01*
X16672164Y-28802102D01*
X16634477Y-28813535D01*
X16589139Y-28818000D01*
X15752461Y-28818000D01*
X15707123Y-28813535D01*
X15669436Y-28802102D01*
X15634697Y-28783534D01*
X15604252Y-28758548D01*
X15579266Y-28728103D01*
X15560698Y-28693364D01*
X15549265Y-28655677D01*
X15544800Y-28610339D01*
X15544800Y-27523661D01*
X15549265Y-27478323D01*
X15560698Y-27440636D01*
X15579266Y-27405897D01*
X15604252Y-27375452D01*
X15634697Y-27350466D01*
X15669436Y-27331898D01*
X15707123Y-27320465D01*
X15752461Y-27316000D01*
X16589139Y-27316000D01*
X16634477Y-27320465D01*
X16634477Y-27320465D01*
G37*
G36*
X18684477Y-27320465D02*
X18722164Y-27331898D01*
X18756903Y-27350466D01*
X18787348Y-27375452D01*
X18812334Y-27405897D01*
X18830902Y-27440636D01*
X18842335Y-27478323D01*
X18846800Y-27523661D01*
X18846800Y-28610339D01*
X18842335Y-28655677D01*
X18830902Y-28693364D01*
X18812334Y-28728103D01*
X18787348Y-28758548D01*
X18756903Y-28783534D01*
X18722164Y-28802102D01*
X18684477Y-28813535D01*
X18639139Y-28818000D01*
X17802461Y-28818000D01*
X17757123Y-28813535D01*
X17719436Y-28802102D01*
X17684697Y-28783534D01*
X17654252Y-28758548D01*
X17629266Y-28728103D01*
X17610698Y-28693364D01*
X17599265Y-28655677D01*
X17594800Y-28610339D01*
X17594800Y-27523661D01*
X17599265Y-27478323D01*
X17610698Y-27440636D01*
X17629266Y-27405897D01*
X17654252Y-27375452D01*
X17684697Y-27350466D01*
X17719436Y-27331898D01*
X17757123Y-27320465D01*
X17802461Y-27316000D01*
X18639139Y-27316000D01*
X18684477Y-27320465D01*
X18684477Y-27320465D01*
G37*
G36*
X56986252Y-24697818D02*
X56986254Y-24697819D01*
X56986255Y-24697819D01*
X57359513Y-24852427D01*
X57359514Y-24852428D01*
X57695439Y-25076886D01*
X57981114Y-25362561D01*
X57981116Y-25362564D01*
X58205573Y-25698487D01*
X58360181Y-26071745D01*
X58439000Y-26467994D01*
X58439000Y-26872006D01*
X58360181Y-27268255D01*
X58205573Y-27641513D01*
X58205572Y-27641514D01*
X57981114Y-27977439D01*
X57695439Y-28263114D01*
X57695436Y-28263116D01*
X57359513Y-28487573D01*
X56986255Y-28642181D01*
X56986254Y-28642181D01*
X56986252Y-28642182D01*
X56590007Y-28721000D01*
X56185993Y-28721000D01*
X55789748Y-28642182D01*
X55789746Y-28642181D01*
X55789745Y-28642181D01*
X55416487Y-28487573D01*
X55080564Y-28263116D01*
X55080561Y-28263114D01*
X54794886Y-27977439D01*
X54570428Y-27641514D01*
X54570427Y-27641513D01*
X54415819Y-27268255D01*
X54337000Y-26872006D01*
X54337000Y-26467994D01*
X54415819Y-26071745D01*
X54570427Y-25698487D01*
X54794884Y-25362564D01*
X54794886Y-25362561D01*
X55080561Y-25076886D01*
X55416486Y-24852428D01*
X55416487Y-24852427D01*
X55789745Y-24697819D01*
X55789746Y-24697819D01*
X55789748Y-24697818D01*
X56185993Y-24619000D01*
X56590007Y-24619000D01*
X56986252Y-24697818D01*
X56986252Y-24697818D01*
G37*
G36*
X49620252Y-24697818D02*
X49620254Y-24697819D01*
X49620255Y-24697819D01*
X49993513Y-24852427D01*
X49993514Y-24852428D01*
X50329439Y-25076886D01*
X50615114Y-25362561D01*
X50615116Y-25362564D01*
X50839573Y-25698487D01*
X50994181Y-26071745D01*
X51073000Y-26467994D01*
X51073000Y-26872006D01*
X50994181Y-27268255D01*
X50839573Y-27641513D01*
X50839572Y-27641514D01*
X50615114Y-27977439D01*
X50329439Y-28263114D01*
X50329436Y-28263116D01*
X49993513Y-28487573D01*
X49620255Y-28642181D01*
X49620254Y-28642181D01*
X49620252Y-28642182D01*
X49224007Y-28721000D01*
X48819993Y-28721000D01*
X48423748Y-28642182D01*
X48423746Y-28642181D01*
X48423745Y-28642181D01*
X48050487Y-28487573D01*
X47714564Y-28263116D01*
X47714561Y-28263114D01*
X47428886Y-27977439D01*
X47204428Y-27641514D01*
X47204427Y-27641513D01*
X47049819Y-27268255D01*
X46971000Y-26872006D01*
X46971000Y-26467994D01*
X47049819Y-26071745D01*
X47204427Y-25698487D01*
X47428884Y-25362564D01*
X47428886Y-25362561D01*
X47714561Y-25076886D01*
X48050486Y-24852428D01*
X48050487Y-24852427D01*
X48423745Y-24697819D01*
X48423746Y-24697819D01*
X48423748Y-24697818D01*
X48819993Y-24619000D01*
X49224007Y-24619000D01*
X49620252Y-24697818D01*
X49620252Y-24697818D01*
G37*
G36*
X18684477Y-25288465D02*
X18722164Y-25299898D01*
X18756903Y-25318466D01*
X18787348Y-25343452D01*
X18812334Y-25373897D01*
X18830902Y-25408636D01*
X18842335Y-25446323D01*
X18846800Y-25491661D01*
X18846800Y-26578339D01*
X18842335Y-26623677D01*
X18830902Y-26661364D01*
X18812334Y-26696103D01*
X18787348Y-26726548D01*
X18756903Y-26751534D01*
X18722164Y-26770102D01*
X18684477Y-26781535D01*
X18639139Y-26786000D01*
X17802461Y-26786000D01*
X17757123Y-26781535D01*
X17719436Y-26770102D01*
X17684697Y-26751534D01*
X17654252Y-26726548D01*
X17629266Y-26696103D01*
X17610698Y-26661364D01*
X17599265Y-26623677D01*
X17594800Y-26578339D01*
X17594800Y-25491661D01*
X17599265Y-25446323D01*
X17610698Y-25408636D01*
X17629266Y-25373897D01*
X17654252Y-25343452D01*
X17684697Y-25318466D01*
X17719436Y-25299898D01*
X17757123Y-25288465D01*
X17802461Y-25284000D01*
X18639139Y-25284000D01*
X18684477Y-25288465D01*
X18684477Y-25288465D01*
G37*
G36*
X16634477Y-25288465D02*
X16672164Y-25299898D01*
X16706903Y-25318466D01*
X16737348Y-25343452D01*
X16762334Y-25373897D01*
X16780902Y-25408636D01*
X16792335Y-25446323D01*
X16796800Y-25491661D01*
X16796800Y-26578339D01*
X16792335Y-26623677D01*
X16780902Y-26661364D01*
X16762334Y-26696103D01*
X16737348Y-26726548D01*
X16706903Y-26751534D01*
X16672164Y-26770102D01*
X16634477Y-26781535D01*
X16589139Y-26786000D01*
X15752461Y-26786000D01*
X15707123Y-26781535D01*
X15669436Y-26770102D01*
X15634697Y-26751534D01*
X15604252Y-26726548D01*
X15579266Y-26696103D01*
X15560698Y-26661364D01*
X15549265Y-26623677D01*
X15544800Y-26578339D01*
X15544800Y-25491661D01*
X15549265Y-25446323D01*
X15560698Y-25408636D01*
X15579266Y-25373897D01*
X15604252Y-25343452D01*
X15634697Y-25318466D01*
X15669436Y-25299898D01*
X15707123Y-25288465D01*
X15752461Y-25284000D01*
X16589139Y-25284000D01*
X16634477Y-25288465D01*
X16634477Y-25288465D01*
G37*
G36*
X18684477Y-23256465D02*
X18722164Y-23267898D01*
X18756903Y-23286466D01*
X18787348Y-23311452D01*
X18812334Y-23341897D01*
X18830902Y-23376636D01*
X18842335Y-23414323D01*
X18846800Y-23459661D01*
X18846800Y-24546339D01*
X18842335Y-24591677D01*
X18830902Y-24629364D01*
X18812334Y-24664103D01*
X18787348Y-24694548D01*
X18756903Y-24719534D01*
X18722164Y-24738102D01*
X18684477Y-24749535D01*
X18639139Y-24754000D01*
X17802461Y-24754000D01*
X17757123Y-24749535D01*
X17719436Y-24738102D01*
X17684697Y-24719534D01*
X17654252Y-24694548D01*
X17629266Y-24664103D01*
X17610698Y-24629364D01*
X17599265Y-24591677D01*
X17594800Y-24546339D01*
X17594800Y-23459661D01*
X17599265Y-23414323D01*
X17610698Y-23376636D01*
X17629266Y-23341897D01*
X17654252Y-23311452D01*
X17684697Y-23286466D01*
X17719436Y-23267898D01*
X17757123Y-23256465D01*
X17802461Y-23252000D01*
X18639139Y-23252000D01*
X18684477Y-23256465D01*
X18684477Y-23256465D01*
G37*
G36*
X16634477Y-23256465D02*
X16672164Y-23267898D01*
X16706903Y-23286466D01*
X16737348Y-23311452D01*
X16762334Y-23341897D01*
X16780902Y-23376636D01*
X16792335Y-23414323D01*
X16796800Y-23459661D01*
X16796800Y-24546339D01*
X16792335Y-24591677D01*
X16780902Y-24629364D01*
X16762334Y-24664103D01*
X16737348Y-24694548D01*
X16706903Y-24719534D01*
X16672164Y-24738102D01*
X16634477Y-24749535D01*
X16589139Y-24754000D01*
X15752461Y-24754000D01*
X15707123Y-24749535D01*
X15669436Y-24738102D01*
X15634697Y-24719534D01*
X15604252Y-24694548D01*
X15579266Y-24664103D01*
X15560698Y-24629364D01*
X15549265Y-24591677D01*
X15544800Y-24546339D01*
X15544800Y-23459661D01*
X15549265Y-23414323D01*
X15560698Y-23376636D01*
X15579266Y-23341897D01*
X15604252Y-23311452D01*
X15634697Y-23286466D01*
X15669436Y-23267898D01*
X15707123Y-23256465D01*
X15752461Y-23252000D01*
X16589139Y-23252000D01*
X16634477Y-23256465D01*
X16634477Y-23256465D01*
G37*
G36*
X42457466Y-21859565D02*
X42496137Y-21871296D01*
X42531779Y-21890348D01*
X42563017Y-21915983D01*
X42588652Y-21947221D01*
X42607704Y-21982863D01*
X42619435Y-22021534D01*
X42624000Y-22067888D01*
X42624000Y-23144112D01*
X42619435Y-23190466D01*
X42607704Y-23229137D01*
X42588652Y-23264779D01*
X42563017Y-23296017D01*
X42531779Y-23321652D01*
X42496137Y-23340704D01*
X42457466Y-23352435D01*
X42411112Y-23357000D01*
X41759888Y-23357000D01*
X41713534Y-23352435D01*
X41674863Y-23340704D01*
X41639221Y-23321652D01*
X41607983Y-23296017D01*
X41582348Y-23264779D01*
X41563296Y-23229137D01*
X41551565Y-23190466D01*
X41547000Y-23144112D01*
X41547000Y-22067888D01*
X41551565Y-22021534D01*
X41563296Y-21982863D01*
X41582348Y-21947221D01*
X41607983Y-21915983D01*
X41639221Y-21890348D01*
X41674863Y-21871296D01*
X41713534Y-21859565D01*
X41759888Y-21855000D01*
X42411112Y-21855000D01*
X42457466Y-21859565D01*
X42457466Y-21859565D01*
G37*
G36*
X40582466Y-21859565D02*
X40621137Y-21871296D01*
X40656779Y-21890348D01*
X40688017Y-21915983D01*
X40713652Y-21947221D01*
X40732704Y-21982863D01*
X40744435Y-22021534D01*
X40749000Y-22067888D01*
X40749000Y-23144112D01*
X40744435Y-23190466D01*
X40732704Y-23229137D01*
X40713652Y-23264779D01*
X40688017Y-23296017D01*
X40656779Y-23321652D01*
X40621137Y-23340704D01*
X40582466Y-23352435D01*
X40536112Y-23357000D01*
X39884888Y-23357000D01*
X39838534Y-23352435D01*
X39799863Y-23340704D01*
X39764221Y-23321652D01*
X39732983Y-23296017D01*
X39707348Y-23264779D01*
X39688296Y-23229137D01*
X39676565Y-23190466D01*
X39672000Y-23144112D01*
X39672000Y-22067888D01*
X39676565Y-22021534D01*
X39688296Y-21982863D01*
X39707348Y-21947221D01*
X39732983Y-21915983D01*
X39764221Y-21890348D01*
X39799863Y-21871296D01*
X39838534Y-21859565D01*
X39884888Y-21855000D01*
X40536112Y-21855000D01*
X40582466Y-21859565D01*
X40582466Y-21859565D01*
G37*
G36*
X46013466Y-21859565D02*
X46052137Y-21871296D01*
X46087779Y-21890348D01*
X46119017Y-21915983D01*
X46144652Y-21947221D01*
X46163704Y-21982863D01*
X46175435Y-22021534D01*
X46180000Y-22067888D01*
X46180000Y-23144112D01*
X46175435Y-23190466D01*
X46163704Y-23229137D01*
X46144652Y-23264779D01*
X46119017Y-23296017D01*
X46087779Y-23321652D01*
X46052137Y-23340704D01*
X46013466Y-23352435D01*
X45967112Y-23357000D01*
X45315888Y-23357000D01*
X45269534Y-23352435D01*
X45230863Y-23340704D01*
X45195221Y-23321652D01*
X45163983Y-23296017D01*
X45138348Y-23264779D01*
X45119296Y-23229137D01*
X45107565Y-23190466D01*
X45103000Y-23144112D01*
X45103000Y-22067888D01*
X45107565Y-22021534D01*
X45119296Y-21982863D01*
X45138348Y-21947221D01*
X45163983Y-21915983D01*
X45195221Y-21890348D01*
X45230863Y-21871296D01*
X45269534Y-21859565D01*
X45315888Y-21855000D01*
X45967112Y-21855000D01*
X46013466Y-21859565D01*
X46013466Y-21859565D01*
G37*
G36*
X44138466Y-21859565D02*
X44177137Y-21871296D01*
X44212779Y-21890348D01*
X44244017Y-21915983D01*
X44269652Y-21947221D01*
X44288704Y-21982863D01*
X44300435Y-22021534D01*
X44305000Y-22067888D01*
X44305000Y-23144112D01*
X44300435Y-23190466D01*
X44288704Y-23229137D01*
X44269652Y-23264779D01*
X44244017Y-23296017D01*
X44212779Y-23321652D01*
X44177137Y-23340704D01*
X44138466Y-23352435D01*
X44092112Y-23357000D01*
X43440888Y-23357000D01*
X43394534Y-23352435D01*
X43355863Y-23340704D01*
X43320221Y-23321652D01*
X43288983Y-23296017D01*
X43263348Y-23264779D01*
X43244296Y-23229137D01*
X43232565Y-23190466D01*
X43228000Y-23144112D01*
X43228000Y-22067888D01*
X43232565Y-22021534D01*
X43244296Y-21982863D01*
X43263348Y-21947221D01*
X43288983Y-21915983D01*
X43320221Y-21890348D01*
X43355863Y-21871296D01*
X43394534Y-21859565D01*
X43440888Y-21855000D01*
X44092112Y-21855000D01*
X44138466Y-21859565D01*
X44138466Y-21859565D01*
G37*
G36*
X21502000Y-23026000D02*
X19900000Y-23026000D01*
X19900000Y-21424000D01*
X21502000Y-21424000D01*
X21502000Y-23026000D01*
X21502000Y-23026000D01*
G37*
G36*
X18505266Y-20970565D02*
X18543937Y-20982296D01*
X18579579Y-21001348D01*
X18610817Y-21026983D01*
X18636452Y-21058221D01*
X18655504Y-21093863D01*
X18667235Y-21132534D01*
X18671800Y-21178888D01*
X18671800Y-22255112D01*
X18667235Y-22301466D01*
X18655504Y-22340137D01*
X18636452Y-22375779D01*
X18610817Y-22407017D01*
X18579579Y-22432652D01*
X18543937Y-22451704D01*
X18505266Y-22463435D01*
X18458912Y-22468000D01*
X17807688Y-22468000D01*
X17761334Y-22463435D01*
X17722663Y-22451704D01*
X17687021Y-22432652D01*
X17655783Y-22407017D01*
X17630148Y-22375779D01*
X17611096Y-22340137D01*
X17599365Y-22301466D01*
X17594800Y-22255112D01*
X17594800Y-21178888D01*
X17599365Y-21132534D01*
X17611096Y-21093863D01*
X17630148Y-21058221D01*
X17655783Y-21026983D01*
X17687021Y-21001348D01*
X17722663Y-20982296D01*
X17761334Y-20970565D01*
X17807688Y-20966000D01*
X18458912Y-20966000D01*
X18505266Y-20970565D01*
X18505266Y-20970565D01*
G37*
G36*
X16630266Y-20970565D02*
X16668937Y-20982296D01*
X16704579Y-21001348D01*
X16735817Y-21026983D01*
X16761452Y-21058221D01*
X16780504Y-21093863D01*
X16792235Y-21132534D01*
X16796800Y-21178888D01*
X16796800Y-22255112D01*
X16792235Y-22301466D01*
X16780504Y-22340137D01*
X16761452Y-22375779D01*
X16735817Y-22407017D01*
X16704579Y-22432652D01*
X16668937Y-22451704D01*
X16630266Y-22463435D01*
X16583912Y-22468000D01*
X15932688Y-22468000D01*
X15886334Y-22463435D01*
X15847663Y-22451704D01*
X15812021Y-22432652D01*
X15780783Y-22407017D01*
X15755148Y-22375779D01*
X15736096Y-22340137D01*
X15724365Y-22301466D01*
X15719800Y-22255112D01*
X15719800Y-21178888D01*
X15724365Y-21132534D01*
X15736096Y-21093863D01*
X15755148Y-21058221D01*
X15780783Y-21026983D01*
X15812021Y-21001348D01*
X15847663Y-20982296D01*
X15886334Y-20970565D01*
X15932688Y-20966000D01*
X16583912Y-20966000D01*
X16630266Y-20970565D01*
X16630266Y-20970565D01*
G37*
G36*
X44118200Y-20834400D02*
X42566200Y-20834400D01*
X42566200Y-18332400D01*
X44118200Y-18332400D01*
X44118200Y-20834400D01*
X44118200Y-20834400D01*
G37*
G36*
X48518200Y-20834400D02*
X46966200Y-20834400D01*
X46966200Y-18332400D01*
X48518200Y-18332400D01*
X48518200Y-20834400D01*
X48518200Y-20834400D01*
G37*
G36*
X22494477Y-18938465D02*
X22532164Y-18949898D01*
X22566903Y-18968466D01*
X22597348Y-18993452D01*
X22622334Y-19023897D01*
X22640902Y-19058636D01*
X22652335Y-19096323D01*
X22656800Y-19141661D01*
X22656800Y-20228339D01*
X22652335Y-20273677D01*
X22640902Y-20311364D01*
X22622334Y-20346103D01*
X22597348Y-20376548D01*
X22566903Y-20401534D01*
X22532164Y-20420102D01*
X22494477Y-20431535D01*
X22449139Y-20436000D01*
X21612461Y-20436000D01*
X21567123Y-20431535D01*
X21529436Y-20420102D01*
X21494697Y-20401534D01*
X21464252Y-20376548D01*
X21439266Y-20346103D01*
X21420698Y-20311364D01*
X21409265Y-20273677D01*
X21404800Y-20228339D01*
X21404800Y-19141661D01*
X21409265Y-19096323D01*
X21420698Y-19058636D01*
X21439266Y-19023897D01*
X21464252Y-18993452D01*
X21494697Y-18968466D01*
X21529436Y-18949898D01*
X21567123Y-18938465D01*
X21612461Y-18934000D01*
X22449139Y-18934000D01*
X22494477Y-18938465D01*
X22494477Y-18938465D01*
G37*
G36*
X20444477Y-18938465D02*
X20482164Y-18949898D01*
X20516903Y-18968466D01*
X20547348Y-18993452D01*
X20572334Y-19023897D01*
X20590902Y-19058636D01*
X20602335Y-19096323D01*
X20606800Y-19141661D01*
X20606800Y-20228339D01*
X20602335Y-20273677D01*
X20590902Y-20311364D01*
X20572334Y-20346103D01*
X20547348Y-20376548D01*
X20516903Y-20401534D01*
X20482164Y-20420102D01*
X20444477Y-20431535D01*
X20399139Y-20436000D01*
X19562461Y-20436000D01*
X19517123Y-20431535D01*
X19479436Y-20420102D01*
X19444697Y-20401534D01*
X19414252Y-20376548D01*
X19389266Y-20346103D01*
X19370698Y-20311364D01*
X19359265Y-20273677D01*
X19354800Y-20228339D01*
X19354800Y-19141661D01*
X19359265Y-19096323D01*
X19370698Y-19058636D01*
X19389266Y-19023897D01*
X19414252Y-18993452D01*
X19444697Y-18968466D01*
X19479436Y-18949898D01*
X19517123Y-18938465D01*
X19562461Y-18934000D01*
X20399139Y-18934000D01*
X20444477Y-18938465D01*
X20444477Y-18938465D01*
G37*
G36*
X18556400Y-20283600D02*
X17816400Y-20283600D01*
X17816400Y-18593600D01*
X18556400Y-18593600D01*
X18556400Y-20283600D01*
X18556400Y-20283600D01*
G37*
G36*
X17286400Y-20283600D02*
X16546400Y-20283600D01*
X16546400Y-18593600D01*
X17286400Y-18593600D01*
X17286400Y-20283600D01*
X17286400Y-20283600D01*
G37*
G36*
X16016400Y-20283600D02*
X15276400Y-20283600D01*
X15276400Y-18593600D01*
X16016400Y-18593600D01*
X16016400Y-20283600D01*
X16016400Y-20283600D01*
G37*
G36*
X14746400Y-20283600D02*
X14006400Y-20283600D01*
X14006400Y-18593600D01*
X14746400Y-18593600D01*
X14746400Y-20283600D01*
X14746400Y-20283600D01*
G37*
G36*
X12206400Y-20283600D02*
X11466400Y-20283600D01*
X11466400Y-18593600D01*
X12206400Y-18593600D01*
X12206400Y-20283600D01*
X12206400Y-20283600D01*
G37*
G36*
X10936400Y-20283600D02*
X10196400Y-20283600D01*
X10196400Y-18593600D01*
X10936400Y-18593600D01*
X10936400Y-20283600D01*
X10936400Y-20283600D01*
G37*
G36*
X9666400Y-20283600D02*
X8926400Y-20283600D01*
X8926400Y-18593600D01*
X9666400Y-18593600D01*
X9666400Y-20283600D01*
X9666400Y-20283600D01*
G37*
G36*
X13476400Y-20283600D02*
X12736400Y-20283600D01*
X12736400Y-18593600D01*
X13476400Y-18593600D01*
X13476400Y-20283600D01*
X13476400Y-20283600D01*
G37*
G36*
X5903683Y-18221725D02*
X5934144Y-18230966D01*
X5962223Y-18245975D01*
X5986831Y-18266169D01*
X6007025Y-18290777D01*
X6022034Y-18318856D01*
X6031275Y-18349317D01*
X6035000Y-18387140D01*
X6035000Y-18950860D01*
X6031275Y-18988683D01*
X6022034Y-19019144D01*
X6007025Y-19047223D01*
X5986831Y-19071831D01*
X5962223Y-19092025D01*
X5934144Y-19107034D01*
X5903683Y-19116275D01*
X5865860Y-19120000D01*
X4802140Y-19120000D01*
X4764317Y-19116275D01*
X4733856Y-19107034D01*
X4705777Y-19092025D01*
X4681169Y-19071831D01*
X4660975Y-19047223D01*
X4645966Y-19019144D01*
X4636725Y-18988683D01*
X4633000Y-18950860D01*
X4633000Y-18387140D01*
X4636725Y-18349317D01*
X4645966Y-18318856D01*
X4660975Y-18290777D01*
X4681169Y-18266169D01*
X4705777Y-18245975D01*
X4733856Y-18230966D01*
X4764317Y-18221725D01*
X4802140Y-18218000D01*
X5865860Y-18218000D01*
X5903683Y-18221725D01*
X5903683Y-18221725D01*
G37*
G36*
X20444477Y-16906465D02*
X20482164Y-16917898D01*
X20516903Y-16936466D01*
X20547348Y-16961452D01*
X20572334Y-16991897D01*
X20590902Y-17026636D01*
X20602335Y-17064323D01*
X20606800Y-17109661D01*
X20606800Y-18196339D01*
X20602335Y-18241677D01*
X20590902Y-18279364D01*
X20572334Y-18314103D01*
X20547348Y-18344548D01*
X20516903Y-18369534D01*
X20482164Y-18388102D01*
X20444477Y-18399535D01*
X20399139Y-18404000D01*
X19562461Y-18404000D01*
X19517123Y-18399535D01*
X19479436Y-18388102D01*
X19444697Y-18369534D01*
X19414252Y-18344548D01*
X19389266Y-18314103D01*
X19370698Y-18279364D01*
X19359265Y-18241677D01*
X19354800Y-18196339D01*
X19354800Y-17109661D01*
X19359265Y-17064323D01*
X19370698Y-17026636D01*
X19389266Y-16991897D01*
X19414252Y-16961452D01*
X19444697Y-16936466D01*
X19479436Y-16917898D01*
X19517123Y-16906465D01*
X19562461Y-16902000D01*
X20399139Y-16902000D01*
X20444477Y-16906465D01*
X20444477Y-16906465D01*
G37*
G36*
X22494477Y-16906465D02*
X22532164Y-16917898D01*
X22566903Y-16936466D01*
X22597348Y-16961452D01*
X22622334Y-16991897D01*
X22640902Y-17026636D01*
X22652335Y-17064323D01*
X22656800Y-17109661D01*
X22656800Y-18196339D01*
X22652335Y-18241677D01*
X22640902Y-18279364D01*
X22622334Y-18314103D01*
X22597348Y-18344548D01*
X22566903Y-18369534D01*
X22532164Y-18388102D01*
X22494477Y-18399535D01*
X22449139Y-18404000D01*
X21612461Y-18404000D01*
X21567123Y-18399535D01*
X21529436Y-18388102D01*
X21494697Y-18369534D01*
X21464252Y-18344548D01*
X21439266Y-18314103D01*
X21420698Y-18279364D01*
X21409265Y-18241677D01*
X21404800Y-18196339D01*
X21404800Y-17109661D01*
X21409265Y-17064323D01*
X21420698Y-17026636D01*
X21439266Y-16991897D01*
X21464252Y-16961452D01*
X21494697Y-16936466D01*
X21529436Y-16917898D01*
X21567123Y-16906465D01*
X21612461Y-16902000D01*
X22449139Y-16902000D01*
X22494477Y-16906465D01*
X22494477Y-16906465D01*
G37*
G36*
X5672413Y-16974525D02*
X5747456Y-16997290D01*
X5757425Y-17000314D01*
X5835774Y-17042193D01*
X5904448Y-17098552D01*
X5960807Y-17167226D01*
X6002686Y-17245575D01*
X6002687Y-17245579D01*
X6028475Y-17330587D01*
X6037182Y-17419000D01*
X6028475Y-17507413D01*
X6005710Y-17582456D01*
X6002686Y-17592425D01*
X5960807Y-17670774D01*
X5904448Y-17739448D01*
X5835774Y-17795807D01*
X5757425Y-17837686D01*
X5747456Y-17840710D01*
X5672413Y-17863475D01*
X5606158Y-17870000D01*
X5061842Y-17870000D01*
X4995587Y-17863475D01*
X4920544Y-17840710D01*
X4910575Y-17837686D01*
X4832226Y-17795807D01*
X4763552Y-17739448D01*
X4707193Y-17670774D01*
X4665314Y-17592425D01*
X4662290Y-17582456D01*
X4639525Y-17507413D01*
X4630818Y-17419000D01*
X4639525Y-17330587D01*
X4665313Y-17245579D01*
X4665314Y-17245575D01*
X4707193Y-17167226D01*
X4763552Y-17098552D01*
X4832226Y-17042193D01*
X4910575Y-17000314D01*
X4920544Y-16997290D01*
X4995587Y-16974525D01*
X5061842Y-16968000D01*
X5606158Y-16968000D01*
X5672413Y-16974525D01*
X5672413Y-16974525D01*
G37*
G36*
X48199277Y-16017465D02*
X48236964Y-16028898D01*
X48271703Y-16047466D01*
X48302148Y-16072452D01*
X48327134Y-16102897D01*
X48345702Y-16137636D01*
X48357135Y-16175323D01*
X48361600Y-16220661D01*
X48361600Y-17307339D01*
X48357135Y-17352677D01*
X48345702Y-17390364D01*
X48327134Y-17425103D01*
X48302148Y-17455548D01*
X48271703Y-17480534D01*
X48236964Y-17499102D01*
X48199277Y-17510535D01*
X48153939Y-17515000D01*
X47317261Y-17515000D01*
X47271923Y-17510535D01*
X47234236Y-17499102D01*
X47199497Y-17480534D01*
X47169052Y-17455548D01*
X47144066Y-17425103D01*
X47125498Y-17390364D01*
X47114065Y-17352677D01*
X47109600Y-17307339D01*
X47109600Y-16220661D01*
X47114065Y-16175323D01*
X47125498Y-16137636D01*
X47144066Y-16102897D01*
X47169052Y-16072452D01*
X47199497Y-16047466D01*
X47234236Y-16028898D01*
X47271923Y-16017465D01*
X47317261Y-16013000D01*
X48153939Y-16013000D01*
X48199277Y-16017465D01*
X48199277Y-16017465D01*
G37*
G36*
X46149277Y-16017465D02*
X46186964Y-16028898D01*
X46221703Y-16047466D01*
X46252148Y-16072452D01*
X46277134Y-16102897D01*
X46295702Y-16137636D01*
X46307135Y-16175323D01*
X46311600Y-16220661D01*
X46311600Y-17307339D01*
X46307135Y-17352677D01*
X46295702Y-17390364D01*
X46277134Y-17425103D01*
X46252148Y-17455548D01*
X46221703Y-17480534D01*
X46186964Y-17499102D01*
X46149277Y-17510535D01*
X46103939Y-17515000D01*
X45267261Y-17515000D01*
X45221923Y-17510535D01*
X45184236Y-17499102D01*
X45149497Y-17480534D01*
X45119052Y-17455548D01*
X45094066Y-17425103D01*
X45075498Y-17390364D01*
X45064065Y-17352677D01*
X45059600Y-17307339D01*
X45059600Y-16220661D01*
X45064065Y-16175323D01*
X45075498Y-16137636D01*
X45094066Y-16102897D01*
X45119052Y-16072452D01*
X45149497Y-16047466D01*
X45184236Y-16028898D01*
X45221923Y-16017465D01*
X45267261Y-16013000D01*
X46103939Y-16013000D01*
X46149277Y-16017465D01*
X46149277Y-16017465D01*
G37*
G36*
X59385466Y-15643565D02*
X59424137Y-15655296D01*
X59459779Y-15674348D01*
X59491017Y-15699983D01*
X59516652Y-15731221D01*
X59535704Y-15766863D01*
X59547435Y-15805534D01*
X59552000Y-15851888D01*
X59552000Y-16503112D01*
X59547435Y-16549466D01*
X59535704Y-16588137D01*
X59516652Y-16623779D01*
X59491017Y-16655017D01*
X59459779Y-16680652D01*
X59424137Y-16699704D01*
X59385466Y-16711435D01*
X59339112Y-16716000D01*
X58262888Y-16716000D01*
X58216534Y-16711435D01*
X58177863Y-16699704D01*
X58142221Y-16680652D01*
X58110983Y-16655017D01*
X58085348Y-16623779D01*
X58066296Y-16588137D01*
X58054565Y-16549466D01*
X58050000Y-16503112D01*
X58050000Y-15851888D01*
X58054565Y-15805534D01*
X58066296Y-15766863D01*
X58085348Y-15731221D01*
X58110983Y-15699983D01*
X58142221Y-15674348D01*
X58177863Y-15655296D01*
X58216534Y-15643565D01*
X58262888Y-15639000D01*
X59339112Y-15639000D01*
X59385466Y-15643565D01*
X59385466Y-15643565D01*
G37*
G36*
X5672413Y-15724525D02*
X5747456Y-15747290D01*
X5757425Y-15750314D01*
X5835774Y-15792193D01*
X5904448Y-15848552D01*
X5960807Y-15917226D01*
X6002686Y-15995575D01*
X6002687Y-15995579D01*
X6028475Y-16080587D01*
X6037182Y-16169000D01*
X6028475Y-16257413D01*
X6011749Y-16312548D01*
X6002686Y-16342425D01*
X5960807Y-16420774D01*
X5904448Y-16489448D01*
X5835774Y-16545807D01*
X5757425Y-16587686D01*
X5755938Y-16588137D01*
X5672413Y-16613475D01*
X5606158Y-16620000D01*
X5061842Y-16620000D01*
X4995587Y-16613475D01*
X4912062Y-16588137D01*
X4910575Y-16587686D01*
X4832226Y-16545807D01*
X4763552Y-16489448D01*
X4707193Y-16420774D01*
X4665314Y-16342425D01*
X4656251Y-16312548D01*
X4639525Y-16257413D01*
X4630818Y-16169000D01*
X4639525Y-16080587D01*
X4665313Y-15995579D01*
X4665314Y-15995575D01*
X4707193Y-15917226D01*
X4763552Y-15848552D01*
X4832226Y-15792193D01*
X4910575Y-15750314D01*
X4920544Y-15747290D01*
X4995587Y-15724525D01*
X5061842Y-15718000D01*
X5606158Y-15718000D01*
X5672413Y-15724525D01*
X5672413Y-15724525D01*
G37*
G36*
X57004000Y-16438000D02*
X54502000Y-16438000D01*
X54502000Y-14886000D01*
X57004000Y-14886000D01*
X57004000Y-16438000D01*
X57004000Y-16438000D01*
G37*
G36*
X20444477Y-14874465D02*
X20482164Y-14885898D01*
X20516903Y-14904466D01*
X20547348Y-14929452D01*
X20572334Y-14959897D01*
X20590902Y-14994636D01*
X20602335Y-15032323D01*
X20606800Y-15077661D01*
X20606800Y-16164339D01*
X20602335Y-16209677D01*
X20590902Y-16247364D01*
X20572334Y-16282103D01*
X20547348Y-16312548D01*
X20516903Y-16337534D01*
X20482164Y-16356102D01*
X20444477Y-16367535D01*
X20399139Y-16372000D01*
X19562461Y-16372000D01*
X19517123Y-16367535D01*
X19479436Y-16356102D01*
X19444697Y-16337534D01*
X19414252Y-16312548D01*
X19389266Y-16282103D01*
X19370698Y-16247364D01*
X19359265Y-16209677D01*
X19354800Y-16164339D01*
X19354800Y-15077661D01*
X19359265Y-15032323D01*
X19370698Y-14994636D01*
X19389266Y-14959897D01*
X19414252Y-14929452D01*
X19444697Y-14904466D01*
X19479436Y-14885898D01*
X19517123Y-14874465D01*
X19562461Y-14870000D01*
X20399139Y-14870000D01*
X20444477Y-14874465D01*
X20444477Y-14874465D01*
G37*
G36*
X22494477Y-14874465D02*
X22532164Y-14885898D01*
X22566903Y-14904466D01*
X22597348Y-14929452D01*
X22622334Y-14959897D01*
X22640902Y-14994636D01*
X22652335Y-15032323D01*
X22656800Y-15077661D01*
X22656800Y-16164339D01*
X22652335Y-16209677D01*
X22640902Y-16247364D01*
X22622334Y-16282103D01*
X22597348Y-16312548D01*
X22566903Y-16337534D01*
X22532164Y-16356102D01*
X22494477Y-16367535D01*
X22449139Y-16372000D01*
X21612461Y-16372000D01*
X21567123Y-16367535D01*
X21529436Y-16356102D01*
X21494697Y-16337534D01*
X21464252Y-16312548D01*
X21439266Y-16282103D01*
X21420698Y-16247364D01*
X21409265Y-16209677D01*
X21404800Y-16164339D01*
X21404800Y-15077661D01*
X21409265Y-15032323D01*
X21420698Y-14994636D01*
X21439266Y-14959897D01*
X21464252Y-14929452D01*
X21494697Y-14904466D01*
X21529436Y-14885898D01*
X21567123Y-14874465D01*
X21612461Y-14870000D01*
X22449139Y-14870000D01*
X22494477Y-14874465D01*
X22494477Y-14874465D01*
G37*
G36*
X46149277Y-13985465D02*
X46186964Y-13996898D01*
X46221703Y-14015466D01*
X46252148Y-14040452D01*
X46277134Y-14070897D01*
X46295702Y-14105636D01*
X46307135Y-14143323D01*
X46311600Y-14188661D01*
X46311600Y-15275339D01*
X46307135Y-15320677D01*
X46295702Y-15358364D01*
X46277134Y-15393103D01*
X46252148Y-15423548D01*
X46221703Y-15448534D01*
X46186964Y-15467102D01*
X46149277Y-15478535D01*
X46103939Y-15483000D01*
X45267261Y-15483000D01*
X45221923Y-15478535D01*
X45184236Y-15467102D01*
X45149497Y-15448534D01*
X45119052Y-15423548D01*
X45094066Y-15393103D01*
X45075498Y-15358364D01*
X45064065Y-15320677D01*
X45059600Y-15275339D01*
X45059600Y-14188661D01*
X45064065Y-14143323D01*
X45075498Y-14105636D01*
X45094066Y-14070897D01*
X45119052Y-14040452D01*
X45149497Y-14015466D01*
X45184236Y-13996898D01*
X45221923Y-13985465D01*
X45267261Y-13981000D01*
X46103939Y-13981000D01*
X46149277Y-13985465D01*
X46149277Y-13985465D01*
G37*
G36*
X48199277Y-13985465D02*
X48236964Y-13996898D01*
X48271703Y-14015466D01*
X48302148Y-14040452D01*
X48327134Y-14070897D01*
X48345702Y-14105636D01*
X48357135Y-14143323D01*
X48361600Y-14188661D01*
X48361600Y-15275339D01*
X48357135Y-15320677D01*
X48345702Y-15358364D01*
X48327134Y-15393103D01*
X48302148Y-15423548D01*
X48271703Y-15448534D01*
X48236964Y-15467102D01*
X48199277Y-15478535D01*
X48153939Y-15483000D01*
X47317261Y-15483000D01*
X47271923Y-15478535D01*
X47234236Y-15467102D01*
X47199497Y-15448534D01*
X47169052Y-15423548D01*
X47144066Y-15393103D01*
X47125498Y-15358364D01*
X47114065Y-15320677D01*
X47109600Y-15275339D01*
X47109600Y-14188661D01*
X47114065Y-14143323D01*
X47125498Y-14105636D01*
X47144066Y-14070897D01*
X47169052Y-14040452D01*
X47199497Y-14015466D01*
X47234236Y-13996898D01*
X47271923Y-13985465D01*
X47317261Y-13981000D01*
X48153939Y-13981000D01*
X48199277Y-13985465D01*
X48199277Y-13985465D01*
G37*
G36*
X9666400Y-14883600D02*
X8926400Y-14883600D01*
X8926400Y-13193600D01*
X9666400Y-13193600D01*
X9666400Y-14883600D01*
X9666400Y-14883600D01*
G37*
G36*
X13476400Y-14883600D02*
X12736400Y-14883600D01*
X12736400Y-13193600D01*
X13476400Y-13193600D01*
X13476400Y-14883600D01*
X13476400Y-14883600D01*
G37*
G36*
X12206400Y-14883600D02*
X11466400Y-14883600D01*
X11466400Y-13193600D01*
X12206400Y-13193600D01*
X12206400Y-14883600D01*
X12206400Y-14883600D01*
G37*
G36*
X10936400Y-14883600D02*
X10196400Y-14883600D01*
X10196400Y-13193600D01*
X10936400Y-13193600D01*
X10936400Y-14883600D01*
X10936400Y-14883600D01*
G37*
G36*
X18556400Y-14883600D02*
X17816400Y-14883600D01*
X17816400Y-13193600D01*
X18556400Y-13193600D01*
X18556400Y-14883600D01*
X18556400Y-14883600D01*
G37*
G36*
X14746400Y-14883600D02*
X14006400Y-14883600D01*
X14006400Y-13193600D01*
X14746400Y-13193600D01*
X14746400Y-14883600D01*
X14746400Y-14883600D01*
G37*
G36*
X16016400Y-14883600D02*
X15276400Y-14883600D01*
X15276400Y-13193600D01*
X16016400Y-13193600D01*
X16016400Y-14883600D01*
X16016400Y-14883600D01*
G37*
G36*
X17286400Y-14883600D02*
X16546400Y-14883600D01*
X16546400Y-13193600D01*
X17286400Y-13193600D01*
X17286400Y-14883600D01*
X17286400Y-14883600D01*
G37*
G36*
X59385466Y-13768565D02*
X59424137Y-13780296D01*
X59459779Y-13799348D01*
X59491017Y-13824983D01*
X59516652Y-13856221D01*
X59535704Y-13891863D01*
X59547435Y-13930534D01*
X59552000Y-13976888D01*
X59552000Y-14628112D01*
X59547435Y-14674466D01*
X59535704Y-14713137D01*
X59516652Y-14748779D01*
X59491017Y-14780017D01*
X59459779Y-14805652D01*
X59424137Y-14824704D01*
X59385466Y-14836435D01*
X59339112Y-14841000D01*
X58262888Y-14841000D01*
X58216534Y-14836435D01*
X58177863Y-14824704D01*
X58142221Y-14805652D01*
X58110983Y-14780017D01*
X58085348Y-14748779D01*
X58066296Y-14713137D01*
X58054565Y-14674466D01*
X58050000Y-14628112D01*
X58050000Y-13976888D01*
X58054565Y-13930534D01*
X58066296Y-13891863D01*
X58085348Y-13856221D01*
X58110983Y-13824983D01*
X58142221Y-13799348D01*
X58177863Y-13780296D01*
X58216534Y-13768565D01*
X58262888Y-13764000D01*
X59339112Y-13764000D01*
X59385466Y-13768565D01*
X59385466Y-13768565D01*
G37*
G36*
X20444477Y-12842465D02*
X20482164Y-12853898D01*
X20516903Y-12872466D01*
X20547348Y-12897452D01*
X20572334Y-12927897D01*
X20590902Y-12962636D01*
X20602335Y-13000323D01*
X20606800Y-13045661D01*
X20606800Y-14132339D01*
X20602335Y-14177677D01*
X20590902Y-14215364D01*
X20572334Y-14250103D01*
X20547348Y-14280548D01*
X20516903Y-14305534D01*
X20482164Y-14324102D01*
X20444477Y-14335535D01*
X20399139Y-14340000D01*
X19562461Y-14340000D01*
X19517123Y-14335535D01*
X19479436Y-14324102D01*
X19444697Y-14305534D01*
X19414252Y-14280548D01*
X19389266Y-14250103D01*
X19370698Y-14215364D01*
X19359265Y-14177677D01*
X19354800Y-14132339D01*
X19354800Y-13045661D01*
X19359265Y-13000323D01*
X19370698Y-12962636D01*
X19389266Y-12927897D01*
X19414252Y-12897452D01*
X19444697Y-12872466D01*
X19479436Y-12853898D01*
X19517123Y-12842465D01*
X19562461Y-12838000D01*
X20399139Y-12838000D01*
X20444477Y-12842465D01*
X20444477Y-12842465D01*
G37*
G36*
X22494477Y-12842465D02*
X22532164Y-12853898D01*
X22566903Y-12872466D01*
X22597348Y-12897452D01*
X22622334Y-12927897D01*
X22640902Y-12962636D01*
X22652335Y-13000323D01*
X22656800Y-13045661D01*
X22656800Y-14132339D01*
X22652335Y-14177677D01*
X22640902Y-14215364D01*
X22622334Y-14250103D01*
X22597348Y-14280548D01*
X22566903Y-14305534D01*
X22532164Y-14324102D01*
X22494477Y-14335535D01*
X22449139Y-14340000D01*
X21612461Y-14340000D01*
X21567123Y-14335535D01*
X21529436Y-14324102D01*
X21494697Y-14305534D01*
X21464252Y-14280548D01*
X21439266Y-14250103D01*
X21420698Y-14215364D01*
X21409265Y-14177677D01*
X21404800Y-14132339D01*
X21404800Y-13045661D01*
X21409265Y-13000323D01*
X21420698Y-12962636D01*
X21439266Y-12927897D01*
X21464252Y-12897452D01*
X21494697Y-12872466D01*
X21529436Y-12853898D01*
X21567123Y-12842465D01*
X21612461Y-12838000D01*
X22449139Y-12838000D01*
X22494477Y-12842465D01*
X22494477Y-12842465D01*
G37*
G36*
X53420677Y-12722465D02*
X53458364Y-12733898D01*
X53493103Y-12752466D01*
X53523548Y-12777452D01*
X53548534Y-12807897D01*
X53567102Y-12842636D01*
X53578535Y-12880323D01*
X53583000Y-12925661D01*
X53583000Y-13762339D01*
X53578535Y-13807677D01*
X53567102Y-13845364D01*
X53548534Y-13880103D01*
X53523548Y-13910548D01*
X53493103Y-13935534D01*
X53458364Y-13954102D01*
X53420677Y-13965535D01*
X53375339Y-13970000D01*
X52288661Y-13970000D01*
X52243323Y-13965535D01*
X52205636Y-13954102D01*
X52170897Y-13935534D01*
X52140452Y-13910548D01*
X52115466Y-13880103D01*
X52096898Y-13845364D01*
X52085465Y-13807677D01*
X52081000Y-13762339D01*
X52081000Y-12925661D01*
X52085465Y-12880323D01*
X52096898Y-12842636D01*
X52115466Y-12807897D01*
X52140452Y-12777452D01*
X52170897Y-12752466D01*
X52205636Y-12733898D01*
X52243323Y-12722465D01*
X52288661Y-12718000D01*
X53375339Y-12718000D01*
X53420677Y-12722465D01*
X53420677Y-12722465D01*
G37*
G36*
X51388677Y-12722465D02*
X51426364Y-12733898D01*
X51461103Y-12752466D01*
X51491548Y-12777452D01*
X51516534Y-12807897D01*
X51535102Y-12842636D01*
X51546535Y-12880323D01*
X51551000Y-12925661D01*
X51551000Y-13762339D01*
X51546535Y-13807677D01*
X51535102Y-13845364D01*
X51516534Y-13880103D01*
X51491548Y-13910548D01*
X51461103Y-13935534D01*
X51426364Y-13954102D01*
X51388677Y-13965535D01*
X51343339Y-13970000D01*
X50256661Y-13970000D01*
X50211323Y-13965535D01*
X50173636Y-13954102D01*
X50138897Y-13935534D01*
X50108452Y-13910548D01*
X50083466Y-13880103D01*
X50064898Y-13845364D01*
X50053465Y-13807677D01*
X50049000Y-13762339D01*
X50049000Y-12925661D01*
X50053465Y-12880323D01*
X50064898Y-12842636D01*
X50083466Y-12807897D01*
X50108452Y-12777452D01*
X50138897Y-12752466D01*
X50173636Y-12733898D01*
X50211323Y-12722465D01*
X50256661Y-12718000D01*
X51343339Y-12718000D01*
X51388677Y-12722465D01*
X51388677Y-12722465D01*
G37*
G36*
X59385466Y-12087565D02*
X59424137Y-12099296D01*
X59459779Y-12118348D01*
X59491017Y-12143983D01*
X59516652Y-12175221D01*
X59535704Y-12210863D01*
X59547435Y-12249534D01*
X59552000Y-12295888D01*
X59552000Y-12947112D01*
X59547435Y-12993466D01*
X59535704Y-13032137D01*
X59516652Y-13067779D01*
X59491017Y-13099017D01*
X59459779Y-13124652D01*
X59424137Y-13143704D01*
X59385466Y-13155435D01*
X59339112Y-13160000D01*
X58262888Y-13160000D01*
X58216534Y-13155435D01*
X58177863Y-13143704D01*
X58142221Y-13124652D01*
X58110983Y-13099017D01*
X58085348Y-13067779D01*
X58066296Y-13032137D01*
X58054565Y-12993466D01*
X58050000Y-12947112D01*
X58050000Y-12295888D01*
X58054565Y-12249534D01*
X58066296Y-12210863D01*
X58085348Y-12175221D01*
X58110983Y-12143983D01*
X58142221Y-12118348D01*
X58177863Y-12099296D01*
X58216534Y-12087565D01*
X58262888Y-12083000D01*
X59339112Y-12083000D01*
X59385466Y-12087565D01*
X59385466Y-12087565D01*
G37*
G36*
X13284466Y-11579565D02*
X13323137Y-11591296D01*
X13358779Y-11610348D01*
X13390017Y-11635983D01*
X13415652Y-11667221D01*
X13434704Y-11702863D01*
X13446435Y-11741534D01*
X13451000Y-11787888D01*
X13451000Y-12439112D01*
X13446435Y-12485466D01*
X13434704Y-12524137D01*
X13415652Y-12559779D01*
X13390017Y-12591017D01*
X13358779Y-12616652D01*
X13323137Y-12635704D01*
X13284466Y-12647435D01*
X13238112Y-12652000D01*
X12161888Y-12652000D01*
X12115534Y-12647435D01*
X12076863Y-12635704D01*
X12041221Y-12616652D01*
X12009983Y-12591017D01*
X11984348Y-12559779D01*
X11965296Y-12524137D01*
X11953565Y-12485466D01*
X11949000Y-12439112D01*
X11949000Y-11787888D01*
X11953565Y-11741534D01*
X11965296Y-11702863D01*
X11984348Y-11667221D01*
X12009983Y-11635983D01*
X12041221Y-11610348D01*
X12076863Y-11591296D01*
X12115534Y-11579565D01*
X12161888Y-11575000D01*
X13238112Y-11575000D01*
X13284466Y-11579565D01*
X13284466Y-11579565D01*
G37*
G36*
X11256677Y-11325465D02*
X11294364Y-11336898D01*
X11329103Y-11355466D01*
X11359548Y-11380452D01*
X11384534Y-11410897D01*
X11403102Y-11445636D01*
X11414535Y-11483323D01*
X11419000Y-11528661D01*
X11419000Y-12365339D01*
X11414535Y-12410677D01*
X11403102Y-12448364D01*
X11384534Y-12483103D01*
X11359548Y-12513548D01*
X11329103Y-12538534D01*
X11294364Y-12557102D01*
X11256677Y-12568535D01*
X11211339Y-12573000D01*
X10124661Y-12573000D01*
X10079323Y-12568535D01*
X10041636Y-12557102D01*
X10006897Y-12538534D01*
X9976452Y-12513548D01*
X9951466Y-12483103D01*
X9932898Y-12448364D01*
X9921465Y-12410677D01*
X9917000Y-12365339D01*
X9917000Y-11528661D01*
X9921465Y-11483323D01*
X9932898Y-11445636D01*
X9951466Y-11410897D01*
X9976452Y-11380452D01*
X10006897Y-11355466D01*
X10041636Y-11336898D01*
X10079323Y-11325465D01*
X10124661Y-11321000D01*
X11211339Y-11321000D01*
X11256677Y-11325465D01*
X11256677Y-11325465D01*
G37*
G36*
X20879066Y-11249365D02*
X20917737Y-11261096D01*
X20953379Y-11280148D01*
X20984617Y-11305783D01*
X21010252Y-11337021D01*
X21029304Y-11372663D01*
X21041035Y-11411334D01*
X21045600Y-11457688D01*
X21045600Y-12108912D01*
X21041035Y-12155266D01*
X21029304Y-12193937D01*
X21010252Y-12229579D01*
X20984617Y-12260817D01*
X20953379Y-12286452D01*
X20917737Y-12305504D01*
X20879066Y-12317235D01*
X20832712Y-12321800D01*
X19756488Y-12321800D01*
X19710134Y-12317235D01*
X19671463Y-12305504D01*
X19635821Y-12286452D01*
X19604583Y-12260817D01*
X19578948Y-12229579D01*
X19559896Y-12193937D01*
X19548165Y-12155266D01*
X19543600Y-12108912D01*
X19543600Y-11457688D01*
X19548165Y-11411334D01*
X19559896Y-11372663D01*
X19578948Y-11337021D01*
X19604583Y-11305783D01*
X19635821Y-11280148D01*
X19671463Y-11261096D01*
X19710134Y-11249365D01*
X19756488Y-11244800D01*
X20832712Y-11244800D01*
X20879066Y-11249365D01*
X20879066Y-11249365D01*
G37*
G36*
X16833466Y-10556565D02*
X16872137Y-10568296D01*
X16907779Y-10587348D01*
X16939017Y-10612983D01*
X16964652Y-10644221D01*
X16983704Y-10679863D01*
X16995435Y-10718534D01*
X17000000Y-10764888D01*
X17000000Y-11841112D01*
X16995435Y-11887466D01*
X16983704Y-11926137D01*
X16964652Y-11961779D01*
X16939017Y-11993017D01*
X16907779Y-12018652D01*
X16872137Y-12037704D01*
X16833466Y-12049435D01*
X16787112Y-12054000D01*
X16135888Y-12054000D01*
X16089534Y-12049435D01*
X16050863Y-12037704D01*
X16015221Y-12018652D01*
X15983983Y-11993017D01*
X15958348Y-11961779D01*
X15939296Y-11926137D01*
X15927565Y-11887466D01*
X15923000Y-11841112D01*
X15923000Y-10764888D01*
X15927565Y-10718534D01*
X15939296Y-10679863D01*
X15958348Y-10644221D01*
X15983983Y-10612983D01*
X16015221Y-10587348D01*
X16050863Y-10568296D01*
X16089534Y-10556565D01*
X16135888Y-10552000D01*
X16787112Y-10552000D01*
X16833466Y-10556565D01*
X16833466Y-10556565D01*
G37*
G36*
X18708466Y-10556565D02*
X18747137Y-10568296D01*
X18782779Y-10587348D01*
X18814017Y-10612983D01*
X18839652Y-10644221D01*
X18858704Y-10679863D01*
X18870435Y-10718534D01*
X18875000Y-10764888D01*
X18875000Y-11841112D01*
X18870435Y-11887466D01*
X18858704Y-11926137D01*
X18839652Y-11961779D01*
X18814017Y-11993017D01*
X18782779Y-12018652D01*
X18747137Y-12037704D01*
X18708466Y-12049435D01*
X18662112Y-12054000D01*
X18010888Y-12054000D01*
X17964534Y-12049435D01*
X17925863Y-12037704D01*
X17890221Y-12018652D01*
X17858983Y-11993017D01*
X17833348Y-11961779D01*
X17814296Y-11926137D01*
X17802565Y-11887466D01*
X17798000Y-11841112D01*
X17798000Y-10764888D01*
X17802565Y-10718534D01*
X17814296Y-10679863D01*
X17833348Y-10644221D01*
X17858983Y-10612983D01*
X17890221Y-10587348D01*
X17925863Y-10568296D01*
X17964534Y-10556565D01*
X18010888Y-10552000D01*
X18662112Y-10552000D01*
X18708466Y-10556565D01*
X18708466Y-10556565D01*
G37*
G36*
X57004000Y-12038000D02*
X54502000Y-12038000D01*
X54502000Y-10486000D01*
X57004000Y-10486000D01*
X57004000Y-12038000D01*
X57004000Y-12038000D01*
G37*
G36*
X51388677Y-10672465D02*
X51426364Y-10683898D01*
X51461103Y-10702466D01*
X51491548Y-10727452D01*
X51516534Y-10757897D01*
X51535102Y-10792636D01*
X51546535Y-10830323D01*
X51551000Y-10875661D01*
X51551000Y-11712339D01*
X51546535Y-11757677D01*
X51535102Y-11795364D01*
X51516534Y-11830103D01*
X51491548Y-11860548D01*
X51461103Y-11885534D01*
X51426364Y-11904102D01*
X51388677Y-11915535D01*
X51343339Y-11920000D01*
X50256661Y-11920000D01*
X50211323Y-11915535D01*
X50173636Y-11904102D01*
X50138897Y-11885534D01*
X50108452Y-11860548D01*
X50083466Y-11830103D01*
X50064898Y-11795364D01*
X50053465Y-11757677D01*
X50049000Y-11712339D01*
X50049000Y-10875661D01*
X50053465Y-10830323D01*
X50064898Y-10792636D01*
X50083466Y-10757897D01*
X50108452Y-10727452D01*
X50138897Y-10702466D01*
X50173636Y-10683898D01*
X50211323Y-10672465D01*
X50256661Y-10668000D01*
X51343339Y-10668000D01*
X51388677Y-10672465D01*
X51388677Y-10672465D01*
G37*
G36*
X53420677Y-10672465D02*
X53458364Y-10683898D01*
X53493103Y-10702466D01*
X53523548Y-10727452D01*
X53548534Y-10757897D01*
X53567102Y-10792636D01*
X53578535Y-10830323D01*
X53583000Y-10875661D01*
X53583000Y-11712339D01*
X53578535Y-11757677D01*
X53567102Y-11795364D01*
X53548534Y-11830103D01*
X53523548Y-11860548D01*
X53493103Y-11885534D01*
X53458364Y-11904102D01*
X53420677Y-11915535D01*
X53375339Y-11920000D01*
X52288661Y-11920000D01*
X52243323Y-11915535D01*
X52205636Y-11904102D01*
X52170897Y-11885534D01*
X52140452Y-11860548D01*
X52115466Y-11830103D01*
X52096898Y-11795364D01*
X52085465Y-11757677D01*
X52081000Y-11712339D01*
X52081000Y-10875661D01*
X52085465Y-10830323D01*
X52096898Y-10792636D01*
X52115466Y-10757897D01*
X52140452Y-10727452D01*
X52170897Y-10702466D01*
X52205636Y-10683898D01*
X52243323Y-10672465D01*
X52288661Y-10668000D01*
X53375339Y-10668000D01*
X53420677Y-10672465D01*
X53420677Y-10672465D01*
G37*
G36*
X59385466Y-10212565D02*
X59424137Y-10224296D01*
X59459779Y-10243348D01*
X59491017Y-10268983D01*
X59516652Y-10300221D01*
X59535704Y-10335863D01*
X59547435Y-10374534D01*
X59552000Y-10420888D01*
X59552000Y-11072112D01*
X59547435Y-11118466D01*
X59535704Y-11157137D01*
X59516652Y-11192779D01*
X59491017Y-11224017D01*
X59459779Y-11249652D01*
X59424137Y-11268704D01*
X59385466Y-11280435D01*
X59339112Y-11285000D01*
X58262888Y-11285000D01*
X58216534Y-11280435D01*
X58177863Y-11268704D01*
X58142221Y-11249652D01*
X58110983Y-11224017D01*
X58085348Y-11192779D01*
X58066296Y-11157137D01*
X58054565Y-11118466D01*
X58050000Y-11072112D01*
X58050000Y-10420888D01*
X58054565Y-10374534D01*
X58066296Y-10335863D01*
X58085348Y-10300221D01*
X58110983Y-10268983D01*
X58142221Y-10243348D01*
X58177863Y-10224296D01*
X58216534Y-10212565D01*
X58262888Y-10208000D01*
X59339112Y-10208000D01*
X59385466Y-10212565D01*
X59385466Y-10212565D01*
G37*
G36*
X13284466Y-9704565D02*
X13323137Y-9716296D01*
X13358779Y-9735348D01*
X13390017Y-9760983D01*
X13415652Y-9792221D01*
X13434704Y-9827863D01*
X13446435Y-9866534D01*
X13451000Y-9912888D01*
X13451000Y-10564112D01*
X13446435Y-10610466D01*
X13434704Y-10649137D01*
X13415652Y-10684779D01*
X13390017Y-10716017D01*
X13358779Y-10741652D01*
X13323137Y-10760704D01*
X13284466Y-10772435D01*
X13238112Y-10777000D01*
X12161888Y-10777000D01*
X12115534Y-10772435D01*
X12076863Y-10760704D01*
X12041221Y-10741652D01*
X12009983Y-10716017D01*
X11984348Y-10684779D01*
X11965296Y-10649137D01*
X11953565Y-10610466D01*
X11949000Y-10564112D01*
X11949000Y-9912888D01*
X11953565Y-9866534D01*
X11965296Y-9827863D01*
X11984348Y-9792221D01*
X12009983Y-9760983D01*
X12041221Y-9735348D01*
X12076863Y-9716296D01*
X12115534Y-9704565D01*
X12161888Y-9700000D01*
X13238112Y-9700000D01*
X13284466Y-9704565D01*
X13284466Y-9704565D01*
G37*
G36*
X11256677Y-9275465D02*
X11294364Y-9286898D01*
X11329103Y-9305466D01*
X11359548Y-9330452D01*
X11384534Y-9360897D01*
X11403102Y-9395636D01*
X11414535Y-9433323D01*
X11419000Y-9478661D01*
X11419000Y-10315339D01*
X11414535Y-10360677D01*
X11403102Y-10398364D01*
X11384534Y-10433103D01*
X11359548Y-10463548D01*
X11329103Y-10488534D01*
X11294364Y-10507102D01*
X11256677Y-10518535D01*
X11211339Y-10523000D01*
X10124661Y-10523000D01*
X10079323Y-10518535D01*
X10041636Y-10507102D01*
X10006897Y-10488534D01*
X9976452Y-10463548D01*
X9951466Y-10433103D01*
X9932898Y-10398364D01*
X9921465Y-10360677D01*
X9917000Y-10315339D01*
X9917000Y-9478661D01*
X9921465Y-9433323D01*
X9932898Y-9395636D01*
X9951466Y-9360897D01*
X9976452Y-9330452D01*
X10006897Y-9305466D01*
X10041636Y-9286898D01*
X10079323Y-9275465D01*
X10124661Y-9271000D01*
X11211339Y-9271000D01*
X11256677Y-9275465D01*
X11256677Y-9275465D01*
G37*
G36*
X20879066Y-9374365D02*
X20917737Y-9386096D01*
X20953379Y-9405148D01*
X20984617Y-9430783D01*
X21010252Y-9462021D01*
X21029304Y-9497663D01*
X21041035Y-9536334D01*
X21045600Y-9582688D01*
X21045600Y-10233912D01*
X21041035Y-10280266D01*
X21029304Y-10318937D01*
X21010252Y-10354579D01*
X20984617Y-10385817D01*
X20953379Y-10411452D01*
X20917737Y-10430504D01*
X20879066Y-10442235D01*
X20832712Y-10446800D01*
X19756488Y-10446800D01*
X19710134Y-10442235D01*
X19671463Y-10430504D01*
X19635821Y-10411452D01*
X19604583Y-10385817D01*
X19578948Y-10354579D01*
X19559896Y-10318937D01*
X19548165Y-10280266D01*
X19543600Y-10233912D01*
X19543600Y-9582688D01*
X19548165Y-9536334D01*
X19559896Y-9497663D01*
X19578948Y-9462021D01*
X19604583Y-9430783D01*
X19635821Y-9405148D01*
X19671463Y-9386096D01*
X19710134Y-9374365D01*
X19756488Y-9369800D01*
X20832712Y-9369800D01*
X20879066Y-9374365D01*
X20879066Y-9374365D01*
G37*
G36*
X48250966Y-8524565D02*
X48289637Y-8536296D01*
X48325279Y-8555348D01*
X48356517Y-8580983D01*
X48382152Y-8612221D01*
X48401204Y-8647863D01*
X48412935Y-8686534D01*
X48417500Y-8732888D01*
X48417500Y-9809112D01*
X48412935Y-9855466D01*
X48401204Y-9894137D01*
X48382152Y-9929779D01*
X48356517Y-9961017D01*
X48325279Y-9986652D01*
X48289637Y-10005704D01*
X48250966Y-10017435D01*
X48204612Y-10022000D01*
X47553388Y-10022000D01*
X47507034Y-10017435D01*
X47468363Y-10005704D01*
X47432721Y-9986652D01*
X47401483Y-9961017D01*
X47375848Y-9929779D01*
X47356796Y-9894137D01*
X47345065Y-9855466D01*
X47340500Y-9809112D01*
X47340500Y-8732888D01*
X47345065Y-8686534D01*
X47356796Y-8647863D01*
X47375848Y-8612221D01*
X47401483Y-8580983D01*
X47432721Y-8555348D01*
X47468363Y-8536296D01*
X47507034Y-8524565D01*
X47553388Y-8520000D01*
X48204612Y-8520000D01*
X48250966Y-8524565D01*
X48250966Y-8524565D01*
G37*
G36*
X46375966Y-8524565D02*
X46414637Y-8536296D01*
X46450279Y-8555348D01*
X46481517Y-8580983D01*
X46507152Y-8612221D01*
X46526204Y-8647863D01*
X46537935Y-8686534D01*
X46542500Y-8732888D01*
X46542500Y-9809112D01*
X46537935Y-9855466D01*
X46526204Y-9894137D01*
X46507152Y-9929779D01*
X46481517Y-9961017D01*
X46450279Y-9986652D01*
X46414637Y-10005704D01*
X46375966Y-10017435D01*
X46329612Y-10022000D01*
X45678388Y-10022000D01*
X45632034Y-10017435D01*
X45593363Y-10005704D01*
X45557721Y-9986652D01*
X45526483Y-9961017D01*
X45500848Y-9929779D01*
X45481796Y-9894137D01*
X45470065Y-9855466D01*
X45465500Y-9809112D01*
X45465500Y-8732888D01*
X45470065Y-8686534D01*
X45481796Y-8647863D01*
X45500848Y-8612221D01*
X45526483Y-8580983D01*
X45557721Y-8555348D01*
X45593363Y-8536296D01*
X45632034Y-8524565D01*
X45678388Y-8520000D01*
X46329612Y-8520000D01*
X46375966Y-8524565D01*
X46375966Y-8524565D01*
G37*
G36*
X52542677Y-8397465D02*
X52580364Y-8408898D01*
X52615103Y-8427466D01*
X52645548Y-8452452D01*
X52670534Y-8482897D01*
X52689102Y-8517636D01*
X52700535Y-8555323D01*
X52705000Y-8600661D01*
X52705000Y-9687339D01*
X52700535Y-9732677D01*
X52689102Y-9770364D01*
X52670534Y-9805103D01*
X52645548Y-9835548D01*
X52615103Y-9860534D01*
X52580364Y-9879102D01*
X52542677Y-9890535D01*
X52497339Y-9895000D01*
X51660661Y-9895000D01*
X51615323Y-9890535D01*
X51577636Y-9879102D01*
X51542897Y-9860534D01*
X51512452Y-9835548D01*
X51487466Y-9805103D01*
X51468898Y-9770364D01*
X51457465Y-9732677D01*
X51453000Y-9687339D01*
X51453000Y-8600661D01*
X51457465Y-8555323D01*
X51468898Y-8517636D01*
X51487466Y-8482897D01*
X51512452Y-8452452D01*
X51542897Y-8427466D01*
X51577636Y-8408898D01*
X51615323Y-8397465D01*
X51660661Y-8393000D01*
X52497339Y-8393000D01*
X52542677Y-8397465D01*
X52542677Y-8397465D01*
G37*
G36*
X50492677Y-8397465D02*
X50530364Y-8408898D01*
X50565103Y-8427466D01*
X50595548Y-8452452D01*
X50620534Y-8482897D01*
X50639102Y-8517636D01*
X50650535Y-8555323D01*
X50655000Y-8600661D01*
X50655000Y-9687339D01*
X50650535Y-9732677D01*
X50639102Y-9770364D01*
X50620534Y-9805103D01*
X50595548Y-9835548D01*
X50565103Y-9860534D01*
X50530364Y-9879102D01*
X50492677Y-9890535D01*
X50447339Y-9895000D01*
X49610661Y-9895000D01*
X49565323Y-9890535D01*
X49527636Y-9879102D01*
X49492897Y-9860534D01*
X49462452Y-9835548D01*
X49437466Y-9805103D01*
X49418898Y-9770364D01*
X49407465Y-9732677D01*
X49403000Y-9687339D01*
X49403000Y-8600661D01*
X49407465Y-8555323D01*
X49418898Y-8517636D01*
X49437466Y-8482897D01*
X49462452Y-8452452D01*
X49492897Y-8427466D01*
X49527636Y-8408898D01*
X49565323Y-8397465D01*
X49610661Y-8393000D01*
X50447339Y-8393000D01*
X50492677Y-8397465D01*
X50492677Y-8397465D01*
G37*
G36*
X15008877Y-8181565D02*
X15046564Y-8192998D01*
X15081303Y-8211566D01*
X15111748Y-8236552D01*
X15136734Y-8266997D01*
X15155302Y-8301736D01*
X15166735Y-8339423D01*
X15171200Y-8384761D01*
X15171200Y-9471439D01*
X15166735Y-9516777D01*
X15155302Y-9554464D01*
X15136734Y-9589203D01*
X15111748Y-9619648D01*
X15081303Y-9644634D01*
X15046564Y-9663202D01*
X15008877Y-9674635D01*
X14963539Y-9679100D01*
X14126861Y-9679100D01*
X14081523Y-9674635D01*
X14043836Y-9663202D01*
X14009097Y-9644634D01*
X13978652Y-9619648D01*
X13953666Y-9589203D01*
X13935098Y-9554464D01*
X13923665Y-9516777D01*
X13919200Y-9471439D01*
X13919200Y-8384761D01*
X13923665Y-8339423D01*
X13935098Y-8301736D01*
X13953666Y-8266997D01*
X13978652Y-8236552D01*
X14009097Y-8211566D01*
X14043836Y-8192998D01*
X14081523Y-8181565D01*
X14126861Y-8177100D01*
X14963539Y-8177100D01*
X15008877Y-8181565D01*
X15008877Y-8181565D01*
G37*
G36*
X17058877Y-8181565D02*
X17096564Y-8192998D01*
X17131303Y-8211566D01*
X17161748Y-8236552D01*
X17186734Y-8266997D01*
X17205302Y-8301736D01*
X17216735Y-8339423D01*
X17221200Y-8384761D01*
X17221200Y-9471439D01*
X17216735Y-9516777D01*
X17205302Y-9554464D01*
X17186734Y-9589203D01*
X17161748Y-9619648D01*
X17131303Y-9644634D01*
X17096564Y-9663202D01*
X17058877Y-9674635D01*
X17013539Y-9679100D01*
X16176861Y-9679100D01*
X16131523Y-9674635D01*
X16093836Y-9663202D01*
X16059097Y-9644634D01*
X16028652Y-9619648D01*
X16003666Y-9589203D01*
X15985098Y-9554464D01*
X15973665Y-9516777D01*
X15969200Y-9471439D01*
X15969200Y-8384761D01*
X15973665Y-8339423D01*
X15985098Y-8301736D01*
X16003666Y-8266997D01*
X16028652Y-8236552D01*
X16059097Y-8211566D01*
X16093836Y-8192998D01*
X16131523Y-8181565D01*
X16176861Y-8177100D01*
X17013539Y-8177100D01*
X17058877Y-8181565D01*
X17058877Y-8181565D01*
G37*
G36*
X52654466Y-6499565D02*
X52693137Y-6511296D01*
X52728779Y-6530348D01*
X52760017Y-6555983D01*
X52785652Y-6587221D01*
X52804704Y-6622863D01*
X52816435Y-6661534D01*
X52821000Y-6707888D01*
X52821000Y-7359112D01*
X52816435Y-7405466D01*
X52804704Y-7444137D01*
X52785652Y-7479779D01*
X52760017Y-7511017D01*
X52728779Y-7536652D01*
X52693137Y-7555704D01*
X52654466Y-7567435D01*
X52608112Y-7572000D01*
X51531888Y-7572000D01*
X51485534Y-7567435D01*
X51446863Y-7555704D01*
X51411221Y-7536652D01*
X51379983Y-7511017D01*
X51354348Y-7479779D01*
X51335296Y-7444137D01*
X51323565Y-7405466D01*
X51319000Y-7359112D01*
X51319000Y-6707888D01*
X51323565Y-6661534D01*
X51335296Y-6622863D01*
X51354348Y-6587221D01*
X51379983Y-6555983D01*
X51411221Y-6530348D01*
X51446863Y-6511296D01*
X51485534Y-6499565D01*
X51531888Y-6495000D01*
X52608112Y-6495000D01*
X52654466Y-6499565D01*
X52654466Y-6499565D01*
G37*
G36*
X4525331Y-2268211D02*
X4853092Y-2403974D01*
X5148073Y-2601074D01*
X5398926Y-2851927D01*
X5596026Y-3146908D01*
X5731789Y-3474669D01*
X5801000Y-3822616D01*
X5801000Y-4177384D01*
X5731789Y-4525331D01*
X5596026Y-4853092D01*
X5398926Y-5148073D01*
X5148073Y-5398926D01*
X4853092Y-5596026D01*
X4525331Y-5731789D01*
X4177384Y-5801000D01*
X3822616Y-5801000D01*
X3474669Y-5731789D01*
X3146908Y-5596026D01*
X2851927Y-5398926D01*
X2601074Y-5148073D01*
X2403974Y-4853092D01*
X2268211Y-4525331D01*
X2199000Y-4177384D01*
X2199000Y-3822616D01*
X2268211Y-3474669D01*
X2403974Y-3146908D01*
X2601074Y-2851927D01*
X2851927Y-2601074D01*
X3146908Y-2403974D01*
X3474669Y-2268211D01*
X3822616Y-2199000D01*
X4177384Y-2199000D01*
X4525331Y-2268211D01*
X4525331Y-2268211D01*
G37*
G36*
X89525331Y-2268211D02*
X89853092Y-2403974D01*
X90148073Y-2601074D01*
X90398926Y-2851927D01*
X90596026Y-3146908D01*
X90731789Y-3474669D01*
X90801000Y-3822616D01*
X90801000Y-4177384D01*
X90731789Y-4525331D01*
X90596026Y-4853092D01*
X90398926Y-5148073D01*
X90148073Y-5398926D01*
X89853092Y-5596026D01*
X89525331Y-5731789D01*
X89177384Y-5801000D01*
X88822616Y-5801000D01*
X88474669Y-5731789D01*
X88146908Y-5596026D01*
X87851927Y-5398926D01*
X87601074Y-5148073D01*
X87403974Y-4853092D01*
X87268211Y-4525331D01*
X87199000Y-4177384D01*
X87199000Y-3822616D01*
X87268211Y-3474669D01*
X87403974Y-3146908D01*
X87601074Y-2851927D01*
X87851927Y-2601074D01*
X88146908Y-2403974D01*
X88474669Y-2268211D01*
X88822616Y-2199000D01*
X89177384Y-2199000D01*
X89525331Y-2268211D01*
X89525331Y-2268211D01*
G37*
G36*
X52654466Y-4624565D02*
X52693137Y-4636296D01*
X52728779Y-4655348D01*
X52760017Y-4680983D01*
X52785652Y-4712221D01*
X52804704Y-4747863D01*
X52816435Y-4786534D01*
X52821000Y-4832888D01*
X52821000Y-5484112D01*
X52816435Y-5530466D01*
X52804704Y-5569137D01*
X52785652Y-5604779D01*
X52760017Y-5636017D01*
X52728779Y-5661652D01*
X52693137Y-5680704D01*
X52654466Y-5692435D01*
X52608112Y-5697000D01*
X51531888Y-5697000D01*
X51485534Y-5692435D01*
X51446863Y-5680704D01*
X51411221Y-5661652D01*
X51379983Y-5636017D01*
X51354348Y-5604779D01*
X51335296Y-5569137D01*
X51323565Y-5530466D01*
X51319000Y-5484112D01*
X51319000Y-4832888D01*
X51323565Y-4786534D01*
X51335296Y-4747863D01*
X51354348Y-4712221D01*
X51379983Y-4680983D01*
X51411221Y-4655348D01*
X51446863Y-4636296D01*
X51485534Y-4624565D01*
X51531888Y-4620000D01*
X52608112Y-4620000D01*
X52654466Y-4624565D01*
X52654466Y-4624565D01*
G37*
G36*
X18894527Y-2425736D02*
X18994410Y-2445604D01*
X19276674Y-2562521D01*
X19530705Y-2732259D01*
X19746741Y-2948295D01*
X19916479Y-3202326D01*
X20033396Y-3484590D01*
X20093000Y-3784240D01*
X20093000Y-4089760D01*
X20033396Y-4389410D01*
X19916479Y-4671674D01*
X19746741Y-4925705D01*
X19530705Y-5141741D01*
X19276674Y-5311479D01*
X18994410Y-5428396D01*
X18894527Y-5448264D01*
X18694762Y-5488000D01*
X18389238Y-5488000D01*
X18189473Y-5448264D01*
X18089590Y-5428396D01*
X17807326Y-5311479D01*
X17553295Y-5141741D01*
X17337259Y-4925705D01*
X17167521Y-4671674D01*
X17050604Y-4389410D01*
X16991000Y-4089760D01*
X16991000Y-3784240D01*
X17050604Y-3484590D01*
X17167521Y-3202326D01*
X17337259Y-2948295D01*
X17553295Y-2732259D01*
X17807326Y-2562521D01*
X18089590Y-2445604D01*
X18189473Y-2425736D01*
X18389238Y-2386000D01*
X18694762Y-2386000D01*
X18894527Y-2425736D01*
X18894527Y-2425736D01*
G37*
G36*
X14767027Y-2362236D02*
X14866910Y-2382104D01*
X15149174Y-2499021D01*
X15403205Y-2668759D01*
X15619241Y-2884795D01*
X15788979Y-3138826D01*
X15905896Y-3421090D01*
X15965500Y-3720740D01*
X15965500Y-4026260D01*
X15905896Y-4325910D01*
X15788979Y-4608174D01*
X15619241Y-4862205D01*
X15403205Y-5078241D01*
X15149174Y-5247979D01*
X14866910Y-5364896D01*
X14767027Y-5384764D01*
X14567262Y-5424500D01*
X14261738Y-5424500D01*
X14061973Y-5384764D01*
X13962090Y-5364896D01*
X13679826Y-5247979D01*
X13425795Y-5078241D01*
X13209759Y-4862205D01*
X13040021Y-4608174D01*
X12923104Y-4325910D01*
X12863500Y-4026260D01*
X12863500Y-3720740D01*
X12923104Y-3421090D01*
X13040021Y-3138826D01*
X13209759Y-2884795D01*
X13425795Y-2668759D01*
X13679826Y-2499021D01*
X13962090Y-2382104D01*
X14061973Y-2362236D01*
X14261738Y-2322500D01*
X14567262Y-2322500D01*
X14767027Y-2362236D01*
X14767027Y-2362236D01*
G37*
G36*
X23466527Y-2362236D02*
X23566410Y-2382104D01*
X23848674Y-2499021D01*
X24102705Y-2668759D01*
X24318741Y-2884795D01*
X24488479Y-3138826D01*
X24605396Y-3421090D01*
X24665000Y-3720740D01*
X24665000Y-4026260D01*
X24605396Y-4325910D01*
X24488479Y-4608174D01*
X24318741Y-4862205D01*
X24102705Y-5078241D01*
X23848674Y-5247979D01*
X23566410Y-5364896D01*
X23466527Y-5384764D01*
X23266762Y-5424500D01*
X22961238Y-5424500D01*
X22761473Y-5384764D01*
X22661590Y-5364896D01*
X22379326Y-5247979D01*
X22125295Y-5078241D01*
X21909259Y-4862205D01*
X21739521Y-4608174D01*
X21622604Y-4325910D01*
X21563000Y-4026260D01*
X21563000Y-3720740D01*
X21622604Y-3421090D01*
X21739521Y-3138826D01*
X21909259Y-2884795D01*
X22125295Y-2668759D01*
X22379326Y-2499021D01*
X22661590Y-2382104D01*
X22761473Y-2362236D01*
X22961238Y-2322500D01*
X23266762Y-2322500D01*
X23466527Y-2362236D01*
X23466527Y-2362236D01*
G37*
G36*
X28165527Y-2298736D02*
X28265410Y-2318604D01*
X28547674Y-2435521D01*
X28801705Y-2605259D01*
X29017741Y-2821295D01*
X29187479Y-3075326D01*
X29304396Y-3357590D01*
X29364000Y-3657240D01*
X29364000Y-3962760D01*
X29304396Y-4262410D01*
X29187479Y-4544674D01*
X29017741Y-4798705D01*
X28801705Y-5014741D01*
X28547674Y-5184479D01*
X28265410Y-5301396D01*
X28214719Y-5311479D01*
X27965762Y-5361000D01*
X27660238Y-5361000D01*
X27411281Y-5311479D01*
X27360590Y-5301396D01*
X27078326Y-5184479D01*
X26824295Y-5014741D01*
X26608259Y-4798705D01*
X26438521Y-4544674D01*
X26321604Y-4262410D01*
X26262000Y-3962760D01*
X26262000Y-3657240D01*
X26321604Y-3357590D01*
X26438521Y-3075326D01*
X26608259Y-2821295D01*
X26824295Y-2605259D01*
X27078326Y-2435521D01*
X27360590Y-2318604D01*
X27460473Y-2298736D01*
X27660238Y-2259000D01*
X27965762Y-2259000D01*
X28165527Y-2298736D01*
X28165527Y-2298736D01*
G37*
G36*
X32229527Y-2298736D02*
X32329410Y-2318604D01*
X32611674Y-2435521D01*
X32865705Y-2605259D01*
X33081741Y-2821295D01*
X33251479Y-3075326D01*
X33368396Y-3357590D01*
X33428000Y-3657240D01*
X33428000Y-3962760D01*
X33368396Y-4262410D01*
X33251479Y-4544674D01*
X33081741Y-4798705D01*
X32865705Y-5014741D01*
X32611674Y-5184479D01*
X32329410Y-5301396D01*
X32278719Y-5311479D01*
X32029762Y-5361000D01*
X31724238Y-5361000D01*
X31475281Y-5311479D01*
X31424590Y-5301396D01*
X31142326Y-5184479D01*
X30888295Y-5014741D01*
X30672259Y-4798705D01*
X30502521Y-4544674D01*
X30385604Y-4262410D01*
X30326000Y-3962760D01*
X30326000Y-3657240D01*
X30385604Y-3357590D01*
X30502521Y-3075326D01*
X30672259Y-2821295D01*
X30888295Y-2605259D01*
X31142326Y-2435521D01*
X31424590Y-2318604D01*
X31524473Y-2298736D01*
X31724238Y-2259000D01*
X32029762Y-2259000D01*
X32229527Y-2298736D01*
X32229527Y-2298736D01*
G37*
M02*
