G04 #@! TF.GenerationSoftware,KiCad,Pcbnew,(5.0.1)-3*
G04 #@! TF.CreationDate,2019-01-09T23:58:32-05:00*
G04 #@! TF.ProjectId,SMA_Driver_V1,534D415F4472697665725F56312E6B69,rev?*
G04 #@! TF.SameCoordinates,Original*
G04 #@! TF.FileFunction,Paste,Bot*
G04 #@! TF.FilePolarity,Positive*
%FSLAX46Y46*%
G04 Gerber Fmt 4.6, Leading zero omitted, Abs format (unit mm)*
G04 Created by KiCad (PCBNEW (5.0.1)-3) date 1/9/2019 23:58:32*
%MOMM*%
%LPD*%
G01*
G04 APERTURE LIST*
%ADD10C,0.100000*%
%ADD11C,1.525000*%
%ADD12R,0.495000X0.905000*%
%ADD13R,4.560000X3.955000*%
%ADD14R,0.750000X1.000000*%
%ADD15R,0.750000X0.575000*%
%ADD16R,1.730000X2.440000*%
%ADD17R,2.440000X1.730000*%
%ADD18R,4.060000X1.780000*%
%ADD19R,2.790000X2.130000*%
%ADD20R,1.010000X1.010000*%
%ADD21C,1.150000*%
%ADD22R,1.600000X3.000000*%
%ADD23C,2.250000*%
G04 APERTURE END LIST*
D10*
G04 #@! TO.C,R2*
G36*
X57202505Y-15618704D02*
X57226773Y-15622304D01*
X57250572Y-15628265D01*
X57273671Y-15636530D01*
X57295850Y-15647020D01*
X57316893Y-15659632D01*
X57336599Y-15674247D01*
X57354777Y-15690723D01*
X57371253Y-15708901D01*
X57385868Y-15728607D01*
X57398480Y-15749650D01*
X57408970Y-15771829D01*
X57417235Y-15794928D01*
X57423196Y-15818727D01*
X57426796Y-15842995D01*
X57428000Y-15867499D01*
X57428000Y-16892501D01*
X57426796Y-16917005D01*
X57423196Y-16941273D01*
X57417235Y-16965072D01*
X57408970Y-16988171D01*
X57398480Y-17010350D01*
X57385868Y-17031393D01*
X57371253Y-17051099D01*
X57354777Y-17069277D01*
X57336599Y-17085753D01*
X57316893Y-17100368D01*
X57295850Y-17112980D01*
X57273671Y-17123470D01*
X57250572Y-17131735D01*
X57226773Y-17137696D01*
X57202505Y-17141296D01*
X57178001Y-17142500D01*
X54327999Y-17142500D01*
X54303495Y-17141296D01*
X54279227Y-17137696D01*
X54255428Y-17131735D01*
X54232329Y-17123470D01*
X54210150Y-17112980D01*
X54189107Y-17100368D01*
X54169401Y-17085753D01*
X54151223Y-17069277D01*
X54134747Y-17051099D01*
X54120132Y-17031393D01*
X54107520Y-17010350D01*
X54097030Y-16988171D01*
X54088765Y-16965072D01*
X54082804Y-16941273D01*
X54079204Y-16917005D01*
X54078000Y-16892501D01*
X54078000Y-15867499D01*
X54079204Y-15842995D01*
X54082804Y-15818727D01*
X54088765Y-15794928D01*
X54097030Y-15771829D01*
X54107520Y-15749650D01*
X54120132Y-15728607D01*
X54134747Y-15708901D01*
X54151223Y-15690723D01*
X54169401Y-15674247D01*
X54189107Y-15659632D01*
X54210150Y-15647020D01*
X54232329Y-15636530D01*
X54255428Y-15628265D01*
X54279227Y-15622304D01*
X54303495Y-15618704D01*
X54327999Y-15617500D01*
X57178001Y-15617500D01*
X57202505Y-15618704D01*
X57202505Y-15618704D01*
G37*
D11*
X55753000Y-16380000D03*
D10*
G36*
X57202505Y-21593704D02*
X57226773Y-21597304D01*
X57250572Y-21603265D01*
X57273671Y-21611530D01*
X57295850Y-21622020D01*
X57316893Y-21634632D01*
X57336599Y-21649247D01*
X57354777Y-21665723D01*
X57371253Y-21683901D01*
X57385868Y-21703607D01*
X57398480Y-21724650D01*
X57408970Y-21746829D01*
X57417235Y-21769928D01*
X57423196Y-21793727D01*
X57426796Y-21817995D01*
X57428000Y-21842499D01*
X57428000Y-22867501D01*
X57426796Y-22892005D01*
X57423196Y-22916273D01*
X57417235Y-22940072D01*
X57408970Y-22963171D01*
X57398480Y-22985350D01*
X57385868Y-23006393D01*
X57371253Y-23026099D01*
X57354777Y-23044277D01*
X57336599Y-23060753D01*
X57316893Y-23075368D01*
X57295850Y-23087980D01*
X57273671Y-23098470D01*
X57250572Y-23106735D01*
X57226773Y-23112696D01*
X57202505Y-23116296D01*
X57178001Y-23117500D01*
X54327999Y-23117500D01*
X54303495Y-23116296D01*
X54279227Y-23112696D01*
X54255428Y-23106735D01*
X54232329Y-23098470D01*
X54210150Y-23087980D01*
X54189107Y-23075368D01*
X54169401Y-23060753D01*
X54151223Y-23044277D01*
X54134747Y-23026099D01*
X54120132Y-23006393D01*
X54107520Y-22985350D01*
X54097030Y-22963171D01*
X54088765Y-22940072D01*
X54082804Y-22916273D01*
X54079204Y-22892005D01*
X54078000Y-22867501D01*
X54078000Y-21842499D01*
X54079204Y-21817995D01*
X54082804Y-21793727D01*
X54088765Y-21769928D01*
X54097030Y-21746829D01*
X54107520Y-21724650D01*
X54120132Y-21703607D01*
X54134747Y-21683901D01*
X54151223Y-21665723D01*
X54169401Y-21649247D01*
X54189107Y-21634632D01*
X54210150Y-21622020D01*
X54232329Y-21611530D01*
X54255428Y-21603265D01*
X54279227Y-21597304D01*
X54303495Y-21593704D01*
X54327999Y-21592500D01*
X57178001Y-21592500D01*
X57202505Y-21593704D01*
X57202505Y-21593704D01*
G37*
D11*
X55753000Y-22355000D03*
G04 #@! TD*
D12*
G04 #@! TO.C,Q3*
X70370500Y-28244500D03*
X75425500Y-28244500D03*
D13*
X72898000Y-29349500D03*
D14*
X74803000Y-25902000D03*
X73533000Y-25902000D03*
X72263000Y-25902000D03*
X70993000Y-25902000D03*
D15*
X74803000Y-31614500D03*
X70993000Y-31614500D03*
G04 #@! TD*
G04 #@! TO.C,Q4*
X62865000Y-31614500D03*
X66675000Y-31614500D03*
D14*
X62865000Y-25902000D03*
X64135000Y-25902000D03*
X65405000Y-25902000D03*
X66675000Y-25902000D03*
D13*
X64770000Y-29349500D03*
D12*
X67297500Y-28244500D03*
X62242500Y-28244500D03*
G04 #@! TD*
D15*
G04 #@! TO.C,Q2*
X38989000Y-31475000D03*
X42799000Y-31475000D03*
D14*
X38989000Y-25762500D03*
X40259000Y-25762500D03*
X41529000Y-25762500D03*
X42799000Y-25762500D03*
D13*
X40894000Y-29210000D03*
D12*
X43421500Y-28105000D03*
X38366500Y-28105000D03*
G04 #@! TD*
D15*
G04 #@! TO.C,Q1*
X30734000Y-31487500D03*
X34544000Y-31487500D03*
D14*
X30734000Y-25775000D03*
X32004000Y-25775000D03*
X33274000Y-25775000D03*
X34544000Y-25775000D03*
D13*
X32639000Y-29222500D03*
D12*
X35166500Y-28117500D03*
X30111500Y-28117500D03*
G04 #@! TD*
D16*
G04 #@! TO.C,U1*
X44079171Y-2240008D03*
X44079171Y-6440008D03*
D17*
X44329171Y-10880008D03*
D18*
X48529171Y-10780008D03*
D17*
X52719171Y-10880008D03*
D18*
X57159171Y-10780008D03*
D19*
X61349171Y-2270008D03*
D20*
X51949171Y-3900008D03*
D17*
X61609171Y-10880008D03*
X61609171Y-6440008D03*
D20*
X58809171Y-1610008D03*
X56529171Y-1610008D03*
D17*
X52719171Y-1990008D03*
D20*
X51949171Y-8470008D03*
X56529171Y-8470008D03*
X49669171Y-6180008D03*
G04 #@! TD*
D10*
G04 #@! TO.C,C1*
G36*
X69435505Y-560204D02*
X69459773Y-563804D01*
X69483572Y-569765D01*
X69506671Y-578030D01*
X69528850Y-588520D01*
X69549893Y-601132D01*
X69569599Y-615747D01*
X69587777Y-632223D01*
X69604253Y-650401D01*
X69618868Y-670107D01*
X69631480Y-691150D01*
X69641970Y-713329D01*
X69650235Y-736428D01*
X69656196Y-760227D01*
X69659796Y-784495D01*
X69661000Y-808999D01*
X69661000Y-1459001D01*
X69659796Y-1483505D01*
X69656196Y-1507773D01*
X69650235Y-1531572D01*
X69641970Y-1554671D01*
X69631480Y-1576850D01*
X69618868Y-1597893D01*
X69604253Y-1617599D01*
X69587777Y-1635777D01*
X69569599Y-1652253D01*
X69549893Y-1666868D01*
X69528850Y-1679480D01*
X69506671Y-1689970D01*
X69483572Y-1698235D01*
X69459773Y-1704196D01*
X69435505Y-1707796D01*
X69411001Y-1709000D01*
X68510999Y-1709000D01*
X68486495Y-1707796D01*
X68462227Y-1704196D01*
X68438428Y-1698235D01*
X68415329Y-1689970D01*
X68393150Y-1679480D01*
X68372107Y-1666868D01*
X68352401Y-1652253D01*
X68334223Y-1635777D01*
X68317747Y-1617599D01*
X68303132Y-1597893D01*
X68290520Y-1576850D01*
X68280030Y-1554671D01*
X68271765Y-1531572D01*
X68265804Y-1507773D01*
X68262204Y-1483505D01*
X68261000Y-1459001D01*
X68261000Y-808999D01*
X68262204Y-784495D01*
X68265804Y-760227D01*
X68271765Y-736428D01*
X68280030Y-713329D01*
X68290520Y-691150D01*
X68303132Y-670107D01*
X68317747Y-650401D01*
X68334223Y-632223D01*
X68352401Y-615747D01*
X68372107Y-601132D01*
X68393150Y-588520D01*
X68415329Y-578030D01*
X68438428Y-569765D01*
X68462227Y-563804D01*
X68486495Y-560204D01*
X68510999Y-559000D01*
X69411001Y-559000D01*
X69435505Y-560204D01*
X69435505Y-560204D01*
G37*
D21*
X68961000Y-1134000D03*
D10*
G36*
X69435505Y-2610204D02*
X69459773Y-2613804D01*
X69483572Y-2619765D01*
X69506671Y-2628030D01*
X69528850Y-2638520D01*
X69549893Y-2651132D01*
X69569599Y-2665747D01*
X69587777Y-2682223D01*
X69604253Y-2700401D01*
X69618868Y-2720107D01*
X69631480Y-2741150D01*
X69641970Y-2763329D01*
X69650235Y-2786428D01*
X69656196Y-2810227D01*
X69659796Y-2834495D01*
X69661000Y-2858999D01*
X69661000Y-3509001D01*
X69659796Y-3533505D01*
X69656196Y-3557773D01*
X69650235Y-3581572D01*
X69641970Y-3604671D01*
X69631480Y-3626850D01*
X69618868Y-3647893D01*
X69604253Y-3667599D01*
X69587777Y-3685777D01*
X69569599Y-3702253D01*
X69549893Y-3716868D01*
X69528850Y-3729480D01*
X69506671Y-3739970D01*
X69483572Y-3748235D01*
X69459773Y-3754196D01*
X69435505Y-3757796D01*
X69411001Y-3759000D01*
X68510999Y-3759000D01*
X68486495Y-3757796D01*
X68462227Y-3754196D01*
X68438428Y-3748235D01*
X68415329Y-3739970D01*
X68393150Y-3729480D01*
X68372107Y-3716868D01*
X68352401Y-3702253D01*
X68334223Y-3685777D01*
X68317747Y-3667599D01*
X68303132Y-3647893D01*
X68290520Y-3626850D01*
X68280030Y-3604671D01*
X68271765Y-3581572D01*
X68265804Y-3557773D01*
X68262204Y-3533505D01*
X68261000Y-3509001D01*
X68261000Y-2858999D01*
X68262204Y-2834495D01*
X68265804Y-2810227D01*
X68271765Y-2786428D01*
X68280030Y-2763329D01*
X68290520Y-2741150D01*
X68303132Y-2720107D01*
X68317747Y-2700401D01*
X68334223Y-2682223D01*
X68352401Y-2665747D01*
X68372107Y-2651132D01*
X68393150Y-2638520D01*
X68415329Y-2628030D01*
X68438428Y-2619765D01*
X68462227Y-2613804D01*
X68486495Y-2610204D01*
X68510999Y-2609000D01*
X69411001Y-2609000D01*
X69435505Y-2610204D01*
X69435505Y-2610204D01*
G37*
D21*
X68961000Y-3184000D03*
G04 #@! TD*
D10*
G04 #@! TO.C,C2*
G36*
X65117505Y-2601204D02*
X65141773Y-2604804D01*
X65165572Y-2610765D01*
X65188671Y-2619030D01*
X65210850Y-2629520D01*
X65231893Y-2642132D01*
X65251599Y-2656747D01*
X65269777Y-2673223D01*
X65286253Y-2691401D01*
X65300868Y-2711107D01*
X65313480Y-2732150D01*
X65323970Y-2754329D01*
X65332235Y-2777428D01*
X65338196Y-2801227D01*
X65341796Y-2825495D01*
X65343000Y-2849999D01*
X65343000Y-3500001D01*
X65341796Y-3524505D01*
X65338196Y-3548773D01*
X65332235Y-3572572D01*
X65323970Y-3595671D01*
X65313480Y-3617850D01*
X65300868Y-3638893D01*
X65286253Y-3658599D01*
X65269777Y-3676777D01*
X65251599Y-3693253D01*
X65231893Y-3707868D01*
X65210850Y-3720480D01*
X65188671Y-3730970D01*
X65165572Y-3739235D01*
X65141773Y-3745196D01*
X65117505Y-3748796D01*
X65093001Y-3750000D01*
X64192999Y-3750000D01*
X64168495Y-3748796D01*
X64144227Y-3745196D01*
X64120428Y-3739235D01*
X64097329Y-3730970D01*
X64075150Y-3720480D01*
X64054107Y-3707868D01*
X64034401Y-3693253D01*
X64016223Y-3676777D01*
X63999747Y-3658599D01*
X63985132Y-3638893D01*
X63972520Y-3617850D01*
X63962030Y-3595671D01*
X63953765Y-3572572D01*
X63947804Y-3548773D01*
X63944204Y-3524505D01*
X63943000Y-3500001D01*
X63943000Y-2849999D01*
X63944204Y-2825495D01*
X63947804Y-2801227D01*
X63953765Y-2777428D01*
X63962030Y-2754329D01*
X63972520Y-2732150D01*
X63985132Y-2711107D01*
X63999747Y-2691401D01*
X64016223Y-2673223D01*
X64034401Y-2656747D01*
X64054107Y-2642132D01*
X64075150Y-2629520D01*
X64097329Y-2619030D01*
X64120428Y-2610765D01*
X64144227Y-2604804D01*
X64168495Y-2601204D01*
X64192999Y-2600000D01*
X65093001Y-2600000D01*
X65117505Y-2601204D01*
X65117505Y-2601204D01*
G37*
D21*
X64643000Y-3175000D03*
D10*
G36*
X65117505Y-551204D02*
X65141773Y-554804D01*
X65165572Y-560765D01*
X65188671Y-569030D01*
X65210850Y-579520D01*
X65231893Y-592132D01*
X65251599Y-606747D01*
X65269777Y-623223D01*
X65286253Y-641401D01*
X65300868Y-661107D01*
X65313480Y-682150D01*
X65323970Y-704329D01*
X65332235Y-727428D01*
X65338196Y-751227D01*
X65341796Y-775495D01*
X65343000Y-799999D01*
X65343000Y-1450001D01*
X65341796Y-1474505D01*
X65338196Y-1498773D01*
X65332235Y-1522572D01*
X65323970Y-1545671D01*
X65313480Y-1567850D01*
X65300868Y-1588893D01*
X65286253Y-1608599D01*
X65269777Y-1626777D01*
X65251599Y-1643253D01*
X65231893Y-1657868D01*
X65210850Y-1670480D01*
X65188671Y-1680970D01*
X65165572Y-1689235D01*
X65141773Y-1695196D01*
X65117505Y-1698796D01*
X65093001Y-1700000D01*
X64192999Y-1700000D01*
X64168495Y-1698796D01*
X64144227Y-1695196D01*
X64120428Y-1689235D01*
X64097329Y-1680970D01*
X64075150Y-1670480D01*
X64054107Y-1657868D01*
X64034401Y-1643253D01*
X64016223Y-1626777D01*
X63999747Y-1608599D01*
X63985132Y-1588893D01*
X63972520Y-1567850D01*
X63962030Y-1545671D01*
X63953765Y-1522572D01*
X63947804Y-1498773D01*
X63944204Y-1474505D01*
X63943000Y-1450001D01*
X63943000Y-799999D01*
X63944204Y-775495D01*
X63947804Y-751227D01*
X63953765Y-727428D01*
X63962030Y-704329D01*
X63972520Y-682150D01*
X63985132Y-661107D01*
X63999747Y-641401D01*
X64016223Y-623223D01*
X64034401Y-606747D01*
X64054107Y-592132D01*
X64075150Y-579520D01*
X64097329Y-569030D01*
X64120428Y-560765D01*
X64144227Y-554804D01*
X64168495Y-551204D01*
X64192999Y-550000D01*
X65093001Y-550000D01*
X65117505Y-551204D01*
X65117505Y-551204D01*
G37*
D21*
X64643000Y-1125000D03*
G04 #@! TD*
D10*
G04 #@! TO.C,C3*
G36*
X67276505Y-560204D02*
X67300773Y-563804D01*
X67324572Y-569765D01*
X67347671Y-578030D01*
X67369850Y-588520D01*
X67390893Y-601132D01*
X67410599Y-615747D01*
X67428777Y-632223D01*
X67445253Y-650401D01*
X67459868Y-670107D01*
X67472480Y-691150D01*
X67482970Y-713329D01*
X67491235Y-736428D01*
X67497196Y-760227D01*
X67500796Y-784495D01*
X67502000Y-808999D01*
X67502000Y-1459001D01*
X67500796Y-1483505D01*
X67497196Y-1507773D01*
X67491235Y-1531572D01*
X67482970Y-1554671D01*
X67472480Y-1576850D01*
X67459868Y-1597893D01*
X67445253Y-1617599D01*
X67428777Y-1635777D01*
X67410599Y-1652253D01*
X67390893Y-1666868D01*
X67369850Y-1679480D01*
X67347671Y-1689970D01*
X67324572Y-1698235D01*
X67300773Y-1704196D01*
X67276505Y-1707796D01*
X67252001Y-1709000D01*
X66351999Y-1709000D01*
X66327495Y-1707796D01*
X66303227Y-1704196D01*
X66279428Y-1698235D01*
X66256329Y-1689970D01*
X66234150Y-1679480D01*
X66213107Y-1666868D01*
X66193401Y-1652253D01*
X66175223Y-1635777D01*
X66158747Y-1617599D01*
X66144132Y-1597893D01*
X66131520Y-1576850D01*
X66121030Y-1554671D01*
X66112765Y-1531572D01*
X66106804Y-1507773D01*
X66103204Y-1483505D01*
X66102000Y-1459001D01*
X66102000Y-808999D01*
X66103204Y-784495D01*
X66106804Y-760227D01*
X66112765Y-736428D01*
X66121030Y-713329D01*
X66131520Y-691150D01*
X66144132Y-670107D01*
X66158747Y-650401D01*
X66175223Y-632223D01*
X66193401Y-615747D01*
X66213107Y-601132D01*
X66234150Y-588520D01*
X66256329Y-578030D01*
X66279428Y-569765D01*
X66303227Y-563804D01*
X66327495Y-560204D01*
X66351999Y-559000D01*
X67252001Y-559000D01*
X67276505Y-560204D01*
X67276505Y-560204D01*
G37*
D21*
X66802000Y-1134000D03*
D10*
G36*
X67276505Y-2610204D02*
X67300773Y-2613804D01*
X67324572Y-2619765D01*
X67347671Y-2628030D01*
X67369850Y-2638520D01*
X67390893Y-2651132D01*
X67410599Y-2665747D01*
X67428777Y-2682223D01*
X67445253Y-2700401D01*
X67459868Y-2720107D01*
X67472480Y-2741150D01*
X67482970Y-2763329D01*
X67491235Y-2786428D01*
X67497196Y-2810227D01*
X67500796Y-2834495D01*
X67502000Y-2858999D01*
X67502000Y-3509001D01*
X67500796Y-3533505D01*
X67497196Y-3557773D01*
X67491235Y-3581572D01*
X67482970Y-3604671D01*
X67472480Y-3626850D01*
X67459868Y-3647893D01*
X67445253Y-3667599D01*
X67428777Y-3685777D01*
X67410599Y-3702253D01*
X67390893Y-3716868D01*
X67369850Y-3729480D01*
X67347671Y-3739970D01*
X67324572Y-3748235D01*
X67300773Y-3754196D01*
X67276505Y-3757796D01*
X67252001Y-3759000D01*
X66351999Y-3759000D01*
X66327495Y-3757796D01*
X66303227Y-3754196D01*
X66279428Y-3748235D01*
X66256329Y-3739970D01*
X66234150Y-3729480D01*
X66213107Y-3716868D01*
X66193401Y-3702253D01*
X66175223Y-3685777D01*
X66158747Y-3667599D01*
X66144132Y-3647893D01*
X66131520Y-3626850D01*
X66121030Y-3604671D01*
X66112765Y-3581572D01*
X66106804Y-3557773D01*
X66103204Y-3533505D01*
X66102000Y-3509001D01*
X66102000Y-2858999D01*
X66103204Y-2834495D01*
X66106804Y-2810227D01*
X66112765Y-2786428D01*
X66121030Y-2763329D01*
X66131520Y-2741150D01*
X66144132Y-2720107D01*
X66158747Y-2700401D01*
X66175223Y-2682223D01*
X66193401Y-2665747D01*
X66213107Y-2651132D01*
X66234150Y-2638520D01*
X66256329Y-2628030D01*
X66279428Y-2619765D01*
X66303227Y-2613804D01*
X66327495Y-2610204D01*
X66351999Y-2609000D01*
X67252001Y-2609000D01*
X67276505Y-2610204D01*
X67276505Y-2610204D01*
G37*
D21*
X66802000Y-3184000D03*
G04 #@! TD*
D10*
G04 #@! TO.C,C6*
G36*
X46321505Y-16308204D02*
X46345773Y-16311804D01*
X46369572Y-16317765D01*
X46392671Y-16326030D01*
X46414850Y-16336520D01*
X46435893Y-16349132D01*
X46455599Y-16363747D01*
X46473777Y-16380223D01*
X46490253Y-16398401D01*
X46504868Y-16418107D01*
X46517480Y-16439150D01*
X46527970Y-16461329D01*
X46536235Y-16484428D01*
X46542196Y-16508227D01*
X46545796Y-16532495D01*
X46547000Y-16556999D01*
X46547000Y-17207001D01*
X46545796Y-17231505D01*
X46542196Y-17255773D01*
X46536235Y-17279572D01*
X46527970Y-17302671D01*
X46517480Y-17324850D01*
X46504868Y-17345893D01*
X46490253Y-17365599D01*
X46473777Y-17383777D01*
X46455599Y-17400253D01*
X46435893Y-17414868D01*
X46414850Y-17427480D01*
X46392671Y-17437970D01*
X46369572Y-17446235D01*
X46345773Y-17452196D01*
X46321505Y-17455796D01*
X46297001Y-17457000D01*
X45396999Y-17457000D01*
X45372495Y-17455796D01*
X45348227Y-17452196D01*
X45324428Y-17446235D01*
X45301329Y-17437970D01*
X45279150Y-17427480D01*
X45258107Y-17414868D01*
X45238401Y-17400253D01*
X45220223Y-17383777D01*
X45203747Y-17365599D01*
X45189132Y-17345893D01*
X45176520Y-17324850D01*
X45166030Y-17302671D01*
X45157765Y-17279572D01*
X45151804Y-17255773D01*
X45148204Y-17231505D01*
X45147000Y-17207001D01*
X45147000Y-16556999D01*
X45148204Y-16532495D01*
X45151804Y-16508227D01*
X45157765Y-16484428D01*
X45166030Y-16461329D01*
X45176520Y-16439150D01*
X45189132Y-16418107D01*
X45203747Y-16398401D01*
X45220223Y-16380223D01*
X45238401Y-16363747D01*
X45258107Y-16349132D01*
X45279150Y-16336520D01*
X45301329Y-16326030D01*
X45324428Y-16317765D01*
X45348227Y-16311804D01*
X45372495Y-16308204D01*
X45396999Y-16307000D01*
X46297001Y-16307000D01*
X46321505Y-16308204D01*
X46321505Y-16308204D01*
G37*
D21*
X45847000Y-16882000D03*
D10*
G36*
X46321505Y-18358204D02*
X46345773Y-18361804D01*
X46369572Y-18367765D01*
X46392671Y-18376030D01*
X46414850Y-18386520D01*
X46435893Y-18399132D01*
X46455599Y-18413747D01*
X46473777Y-18430223D01*
X46490253Y-18448401D01*
X46504868Y-18468107D01*
X46517480Y-18489150D01*
X46527970Y-18511329D01*
X46536235Y-18534428D01*
X46542196Y-18558227D01*
X46545796Y-18582495D01*
X46547000Y-18606999D01*
X46547000Y-19257001D01*
X46545796Y-19281505D01*
X46542196Y-19305773D01*
X46536235Y-19329572D01*
X46527970Y-19352671D01*
X46517480Y-19374850D01*
X46504868Y-19395893D01*
X46490253Y-19415599D01*
X46473777Y-19433777D01*
X46455599Y-19450253D01*
X46435893Y-19464868D01*
X46414850Y-19477480D01*
X46392671Y-19487970D01*
X46369572Y-19496235D01*
X46345773Y-19502196D01*
X46321505Y-19505796D01*
X46297001Y-19507000D01*
X45396999Y-19507000D01*
X45372495Y-19505796D01*
X45348227Y-19502196D01*
X45324428Y-19496235D01*
X45301329Y-19487970D01*
X45279150Y-19477480D01*
X45258107Y-19464868D01*
X45238401Y-19450253D01*
X45220223Y-19433777D01*
X45203747Y-19415599D01*
X45189132Y-19395893D01*
X45176520Y-19374850D01*
X45166030Y-19352671D01*
X45157765Y-19329572D01*
X45151804Y-19305773D01*
X45148204Y-19281505D01*
X45147000Y-19257001D01*
X45147000Y-18606999D01*
X45148204Y-18582495D01*
X45151804Y-18558227D01*
X45157765Y-18534428D01*
X45166030Y-18511329D01*
X45176520Y-18489150D01*
X45189132Y-18468107D01*
X45203747Y-18448401D01*
X45220223Y-18430223D01*
X45238401Y-18413747D01*
X45258107Y-18399132D01*
X45279150Y-18386520D01*
X45301329Y-18376030D01*
X45324428Y-18367765D01*
X45348227Y-18361804D01*
X45372495Y-18358204D01*
X45396999Y-18357000D01*
X46297001Y-18357000D01*
X46321505Y-18358204D01*
X46321505Y-18358204D01*
G37*
D21*
X45847000Y-18932000D03*
G04 #@! TD*
D10*
G04 #@! TO.C,C7*
G36*
X60037505Y-18358204D02*
X60061773Y-18361804D01*
X60085572Y-18367765D01*
X60108671Y-18376030D01*
X60130850Y-18386520D01*
X60151893Y-18399132D01*
X60171599Y-18413747D01*
X60189777Y-18430223D01*
X60206253Y-18448401D01*
X60220868Y-18468107D01*
X60233480Y-18489150D01*
X60243970Y-18511329D01*
X60252235Y-18534428D01*
X60258196Y-18558227D01*
X60261796Y-18582495D01*
X60263000Y-18606999D01*
X60263000Y-19257001D01*
X60261796Y-19281505D01*
X60258196Y-19305773D01*
X60252235Y-19329572D01*
X60243970Y-19352671D01*
X60233480Y-19374850D01*
X60220868Y-19395893D01*
X60206253Y-19415599D01*
X60189777Y-19433777D01*
X60171599Y-19450253D01*
X60151893Y-19464868D01*
X60130850Y-19477480D01*
X60108671Y-19487970D01*
X60085572Y-19496235D01*
X60061773Y-19502196D01*
X60037505Y-19505796D01*
X60013001Y-19507000D01*
X59112999Y-19507000D01*
X59088495Y-19505796D01*
X59064227Y-19502196D01*
X59040428Y-19496235D01*
X59017329Y-19487970D01*
X58995150Y-19477480D01*
X58974107Y-19464868D01*
X58954401Y-19450253D01*
X58936223Y-19433777D01*
X58919747Y-19415599D01*
X58905132Y-19395893D01*
X58892520Y-19374850D01*
X58882030Y-19352671D01*
X58873765Y-19329572D01*
X58867804Y-19305773D01*
X58864204Y-19281505D01*
X58863000Y-19257001D01*
X58863000Y-18606999D01*
X58864204Y-18582495D01*
X58867804Y-18558227D01*
X58873765Y-18534428D01*
X58882030Y-18511329D01*
X58892520Y-18489150D01*
X58905132Y-18468107D01*
X58919747Y-18448401D01*
X58936223Y-18430223D01*
X58954401Y-18413747D01*
X58974107Y-18399132D01*
X58995150Y-18386520D01*
X59017329Y-18376030D01*
X59040428Y-18367765D01*
X59064227Y-18361804D01*
X59088495Y-18358204D01*
X59112999Y-18357000D01*
X60013001Y-18357000D01*
X60037505Y-18358204D01*
X60037505Y-18358204D01*
G37*
D21*
X59563000Y-18932000D03*
D10*
G36*
X60037505Y-16308204D02*
X60061773Y-16311804D01*
X60085572Y-16317765D01*
X60108671Y-16326030D01*
X60130850Y-16336520D01*
X60151893Y-16349132D01*
X60171599Y-16363747D01*
X60189777Y-16380223D01*
X60206253Y-16398401D01*
X60220868Y-16418107D01*
X60233480Y-16439150D01*
X60243970Y-16461329D01*
X60252235Y-16484428D01*
X60258196Y-16508227D01*
X60261796Y-16532495D01*
X60263000Y-16556999D01*
X60263000Y-17207001D01*
X60261796Y-17231505D01*
X60258196Y-17255773D01*
X60252235Y-17279572D01*
X60243970Y-17302671D01*
X60233480Y-17324850D01*
X60220868Y-17345893D01*
X60206253Y-17365599D01*
X60189777Y-17383777D01*
X60171599Y-17400253D01*
X60151893Y-17414868D01*
X60130850Y-17427480D01*
X60108671Y-17437970D01*
X60085572Y-17446235D01*
X60061773Y-17452196D01*
X60037505Y-17455796D01*
X60013001Y-17457000D01*
X59112999Y-17457000D01*
X59088495Y-17455796D01*
X59064227Y-17452196D01*
X59040428Y-17446235D01*
X59017329Y-17437970D01*
X58995150Y-17427480D01*
X58974107Y-17414868D01*
X58954401Y-17400253D01*
X58936223Y-17383777D01*
X58919747Y-17365599D01*
X58905132Y-17345893D01*
X58892520Y-17324850D01*
X58882030Y-17302671D01*
X58873765Y-17279572D01*
X58867804Y-17255773D01*
X58864204Y-17231505D01*
X58863000Y-17207001D01*
X58863000Y-16556999D01*
X58864204Y-16532495D01*
X58867804Y-16508227D01*
X58873765Y-16484428D01*
X58882030Y-16461329D01*
X58892520Y-16439150D01*
X58905132Y-16418107D01*
X58919747Y-16398401D01*
X58936223Y-16380223D01*
X58954401Y-16363747D01*
X58974107Y-16349132D01*
X58995150Y-16336520D01*
X59017329Y-16326030D01*
X59040428Y-16317765D01*
X59064227Y-16311804D01*
X59088495Y-16308204D01*
X59112999Y-16307000D01*
X60013001Y-16307000D01*
X60037505Y-16308204D01*
X60037505Y-16308204D01*
G37*
D21*
X59563000Y-16882000D03*
G04 #@! TD*
D22*
G04 #@! TO.C,C8*
X73025000Y-6518000D03*
X73025000Y-2118000D03*
G04 #@! TD*
G04 #@! TO.C,C9*
X78994000Y-2118000D03*
X78994000Y-6518000D03*
G04 #@! TD*
D10*
G04 #@! TO.C,C13*
G36*
X75471505Y-14218204D02*
X75495773Y-14221804D01*
X75519572Y-14227765D01*
X75542671Y-14236030D01*
X75564850Y-14246520D01*
X75585893Y-14259132D01*
X75605599Y-14273747D01*
X75623777Y-14290223D01*
X75640253Y-14308401D01*
X75654868Y-14328107D01*
X75667480Y-14349150D01*
X75677970Y-14371329D01*
X75686235Y-14394428D01*
X75692196Y-14418227D01*
X75695796Y-14442495D01*
X75697000Y-14466999D01*
X75697000Y-16217001D01*
X75695796Y-16241505D01*
X75692196Y-16265773D01*
X75686235Y-16289572D01*
X75677970Y-16312671D01*
X75667480Y-16334850D01*
X75654868Y-16355893D01*
X75640253Y-16375599D01*
X75623777Y-16393777D01*
X75605599Y-16410253D01*
X75585893Y-16424868D01*
X75564850Y-16437480D01*
X75542671Y-16447970D01*
X75519572Y-16456235D01*
X75495773Y-16462196D01*
X75471505Y-16465796D01*
X75447001Y-16467000D01*
X73396999Y-16467000D01*
X73372495Y-16465796D01*
X73348227Y-16462196D01*
X73324428Y-16456235D01*
X73301329Y-16447970D01*
X73279150Y-16437480D01*
X73258107Y-16424868D01*
X73238401Y-16410253D01*
X73220223Y-16393777D01*
X73203747Y-16375599D01*
X73189132Y-16355893D01*
X73176520Y-16334850D01*
X73166030Y-16312671D01*
X73157765Y-16289572D01*
X73151804Y-16265773D01*
X73148204Y-16241505D01*
X73147000Y-16217001D01*
X73147000Y-14466999D01*
X73148204Y-14442495D01*
X73151804Y-14418227D01*
X73157765Y-14394428D01*
X73166030Y-14371329D01*
X73176520Y-14349150D01*
X73189132Y-14328107D01*
X73203747Y-14308401D01*
X73220223Y-14290223D01*
X73238401Y-14273747D01*
X73258107Y-14259132D01*
X73279150Y-14246520D01*
X73301329Y-14236030D01*
X73324428Y-14227765D01*
X73348227Y-14221804D01*
X73372495Y-14218204D01*
X73396999Y-14217000D01*
X75447001Y-14217000D01*
X75471505Y-14218204D01*
X75471505Y-14218204D01*
G37*
D23*
X74422000Y-15342000D03*
D10*
G36*
X75471505Y-20618204D02*
X75495773Y-20621804D01*
X75519572Y-20627765D01*
X75542671Y-20636030D01*
X75564850Y-20646520D01*
X75585893Y-20659132D01*
X75605599Y-20673747D01*
X75623777Y-20690223D01*
X75640253Y-20708401D01*
X75654868Y-20728107D01*
X75667480Y-20749150D01*
X75677970Y-20771329D01*
X75686235Y-20794428D01*
X75692196Y-20818227D01*
X75695796Y-20842495D01*
X75697000Y-20866999D01*
X75697000Y-22617001D01*
X75695796Y-22641505D01*
X75692196Y-22665773D01*
X75686235Y-22689572D01*
X75677970Y-22712671D01*
X75667480Y-22734850D01*
X75654868Y-22755893D01*
X75640253Y-22775599D01*
X75623777Y-22793777D01*
X75605599Y-22810253D01*
X75585893Y-22824868D01*
X75564850Y-22837480D01*
X75542671Y-22847970D01*
X75519572Y-22856235D01*
X75495773Y-22862196D01*
X75471505Y-22865796D01*
X75447001Y-22867000D01*
X73396999Y-22867000D01*
X73372495Y-22865796D01*
X73348227Y-22862196D01*
X73324428Y-22856235D01*
X73301329Y-22847970D01*
X73279150Y-22837480D01*
X73258107Y-22824868D01*
X73238401Y-22810253D01*
X73220223Y-22793777D01*
X73203747Y-22775599D01*
X73189132Y-22755893D01*
X73176520Y-22734850D01*
X73166030Y-22712671D01*
X73157765Y-22689572D01*
X73151804Y-22665773D01*
X73148204Y-22641505D01*
X73147000Y-22617001D01*
X73147000Y-20866999D01*
X73148204Y-20842495D01*
X73151804Y-20818227D01*
X73157765Y-20794428D01*
X73166030Y-20771329D01*
X73176520Y-20749150D01*
X73189132Y-20728107D01*
X73203747Y-20708401D01*
X73220223Y-20690223D01*
X73238401Y-20673747D01*
X73258107Y-20659132D01*
X73279150Y-20646520D01*
X73301329Y-20636030D01*
X73324428Y-20627765D01*
X73348227Y-20621804D01*
X73372495Y-20618204D01*
X73396999Y-20617000D01*
X75447001Y-20617000D01*
X75471505Y-20618204D01*
X75471505Y-20618204D01*
G37*
D23*
X74422000Y-21742000D03*
G04 #@! TD*
D10*
G04 #@! TO.C,C14*
G36*
X70264505Y-14218204D02*
X70288773Y-14221804D01*
X70312572Y-14227765D01*
X70335671Y-14236030D01*
X70357850Y-14246520D01*
X70378893Y-14259132D01*
X70398599Y-14273747D01*
X70416777Y-14290223D01*
X70433253Y-14308401D01*
X70447868Y-14328107D01*
X70460480Y-14349150D01*
X70470970Y-14371329D01*
X70479235Y-14394428D01*
X70485196Y-14418227D01*
X70488796Y-14442495D01*
X70490000Y-14466999D01*
X70490000Y-16217001D01*
X70488796Y-16241505D01*
X70485196Y-16265773D01*
X70479235Y-16289572D01*
X70470970Y-16312671D01*
X70460480Y-16334850D01*
X70447868Y-16355893D01*
X70433253Y-16375599D01*
X70416777Y-16393777D01*
X70398599Y-16410253D01*
X70378893Y-16424868D01*
X70357850Y-16437480D01*
X70335671Y-16447970D01*
X70312572Y-16456235D01*
X70288773Y-16462196D01*
X70264505Y-16465796D01*
X70240001Y-16467000D01*
X68189999Y-16467000D01*
X68165495Y-16465796D01*
X68141227Y-16462196D01*
X68117428Y-16456235D01*
X68094329Y-16447970D01*
X68072150Y-16437480D01*
X68051107Y-16424868D01*
X68031401Y-16410253D01*
X68013223Y-16393777D01*
X67996747Y-16375599D01*
X67982132Y-16355893D01*
X67969520Y-16334850D01*
X67959030Y-16312671D01*
X67950765Y-16289572D01*
X67944804Y-16265773D01*
X67941204Y-16241505D01*
X67940000Y-16217001D01*
X67940000Y-14466999D01*
X67941204Y-14442495D01*
X67944804Y-14418227D01*
X67950765Y-14394428D01*
X67959030Y-14371329D01*
X67969520Y-14349150D01*
X67982132Y-14328107D01*
X67996747Y-14308401D01*
X68013223Y-14290223D01*
X68031401Y-14273747D01*
X68051107Y-14259132D01*
X68072150Y-14246520D01*
X68094329Y-14236030D01*
X68117428Y-14227765D01*
X68141227Y-14221804D01*
X68165495Y-14218204D01*
X68189999Y-14217000D01*
X70240001Y-14217000D01*
X70264505Y-14218204D01*
X70264505Y-14218204D01*
G37*
D23*
X69215000Y-15342000D03*
D10*
G36*
X70264505Y-20618204D02*
X70288773Y-20621804D01*
X70312572Y-20627765D01*
X70335671Y-20636030D01*
X70357850Y-20646520D01*
X70378893Y-20659132D01*
X70398599Y-20673747D01*
X70416777Y-20690223D01*
X70433253Y-20708401D01*
X70447868Y-20728107D01*
X70460480Y-20749150D01*
X70470970Y-20771329D01*
X70479235Y-20794428D01*
X70485196Y-20818227D01*
X70488796Y-20842495D01*
X70490000Y-20866999D01*
X70490000Y-22617001D01*
X70488796Y-22641505D01*
X70485196Y-22665773D01*
X70479235Y-22689572D01*
X70470970Y-22712671D01*
X70460480Y-22734850D01*
X70447868Y-22755893D01*
X70433253Y-22775599D01*
X70416777Y-22793777D01*
X70398599Y-22810253D01*
X70378893Y-22824868D01*
X70357850Y-22837480D01*
X70335671Y-22847970D01*
X70312572Y-22856235D01*
X70288773Y-22862196D01*
X70264505Y-22865796D01*
X70240001Y-22867000D01*
X68189999Y-22867000D01*
X68165495Y-22865796D01*
X68141227Y-22862196D01*
X68117428Y-22856235D01*
X68094329Y-22847970D01*
X68072150Y-22837480D01*
X68051107Y-22824868D01*
X68031401Y-22810253D01*
X68013223Y-22793777D01*
X67996747Y-22775599D01*
X67982132Y-22755893D01*
X67969520Y-22734850D01*
X67959030Y-22712671D01*
X67950765Y-22689572D01*
X67944804Y-22665773D01*
X67941204Y-22641505D01*
X67940000Y-22617001D01*
X67940000Y-20866999D01*
X67941204Y-20842495D01*
X67944804Y-20818227D01*
X67950765Y-20794428D01*
X67959030Y-20771329D01*
X67969520Y-20749150D01*
X67982132Y-20728107D01*
X67996747Y-20708401D01*
X68013223Y-20690223D01*
X68031401Y-20673747D01*
X68051107Y-20659132D01*
X68072150Y-20646520D01*
X68094329Y-20636030D01*
X68117428Y-20627765D01*
X68141227Y-20621804D01*
X68165495Y-20618204D01*
X68189999Y-20617000D01*
X70240001Y-20617000D01*
X70264505Y-20618204D01*
X70264505Y-20618204D01*
G37*
D23*
X69215000Y-21742000D03*
G04 #@! TD*
D10*
G04 #@! TO.C,C15*
G36*
X65184505Y-14176212D02*
X65208773Y-14179812D01*
X65232572Y-14185773D01*
X65255671Y-14194038D01*
X65277850Y-14204528D01*
X65298893Y-14217140D01*
X65318599Y-14231755D01*
X65336777Y-14248231D01*
X65353253Y-14266409D01*
X65367868Y-14286115D01*
X65380480Y-14307158D01*
X65390970Y-14329337D01*
X65399235Y-14352436D01*
X65405196Y-14376235D01*
X65408796Y-14400503D01*
X65410000Y-14425007D01*
X65410000Y-16175009D01*
X65408796Y-16199513D01*
X65405196Y-16223781D01*
X65399235Y-16247580D01*
X65390970Y-16270679D01*
X65380480Y-16292858D01*
X65367868Y-16313901D01*
X65353253Y-16333607D01*
X65336777Y-16351785D01*
X65318599Y-16368261D01*
X65298893Y-16382876D01*
X65277850Y-16395488D01*
X65255671Y-16405978D01*
X65232572Y-16414243D01*
X65208773Y-16420204D01*
X65184505Y-16423804D01*
X65160001Y-16425008D01*
X63109999Y-16425008D01*
X63085495Y-16423804D01*
X63061227Y-16420204D01*
X63037428Y-16414243D01*
X63014329Y-16405978D01*
X62992150Y-16395488D01*
X62971107Y-16382876D01*
X62951401Y-16368261D01*
X62933223Y-16351785D01*
X62916747Y-16333607D01*
X62902132Y-16313901D01*
X62889520Y-16292858D01*
X62879030Y-16270679D01*
X62870765Y-16247580D01*
X62864804Y-16223781D01*
X62861204Y-16199513D01*
X62860000Y-16175009D01*
X62860000Y-14425007D01*
X62861204Y-14400503D01*
X62864804Y-14376235D01*
X62870765Y-14352436D01*
X62879030Y-14329337D01*
X62889520Y-14307158D01*
X62902132Y-14286115D01*
X62916747Y-14266409D01*
X62933223Y-14248231D01*
X62951401Y-14231755D01*
X62971107Y-14217140D01*
X62992150Y-14204528D01*
X63014329Y-14194038D01*
X63037428Y-14185773D01*
X63061227Y-14179812D01*
X63085495Y-14176212D01*
X63109999Y-14175008D01*
X65160001Y-14175008D01*
X65184505Y-14176212D01*
X65184505Y-14176212D01*
G37*
D23*
X64135000Y-15300008D03*
D10*
G36*
X65184505Y-20576212D02*
X65208773Y-20579812D01*
X65232572Y-20585773D01*
X65255671Y-20594038D01*
X65277850Y-20604528D01*
X65298893Y-20617140D01*
X65318599Y-20631755D01*
X65336777Y-20648231D01*
X65353253Y-20666409D01*
X65367868Y-20686115D01*
X65380480Y-20707158D01*
X65390970Y-20729337D01*
X65399235Y-20752436D01*
X65405196Y-20776235D01*
X65408796Y-20800503D01*
X65410000Y-20825007D01*
X65410000Y-22575009D01*
X65408796Y-22599513D01*
X65405196Y-22623781D01*
X65399235Y-22647580D01*
X65390970Y-22670679D01*
X65380480Y-22692858D01*
X65367868Y-22713901D01*
X65353253Y-22733607D01*
X65336777Y-22751785D01*
X65318599Y-22768261D01*
X65298893Y-22782876D01*
X65277850Y-22795488D01*
X65255671Y-22805978D01*
X65232572Y-22814243D01*
X65208773Y-22820204D01*
X65184505Y-22823804D01*
X65160001Y-22825008D01*
X63109999Y-22825008D01*
X63085495Y-22823804D01*
X63061227Y-22820204D01*
X63037428Y-22814243D01*
X63014329Y-22805978D01*
X62992150Y-22795488D01*
X62971107Y-22782876D01*
X62951401Y-22768261D01*
X62933223Y-22751785D01*
X62916747Y-22733607D01*
X62902132Y-22713901D01*
X62889520Y-22692858D01*
X62879030Y-22670679D01*
X62870765Y-22647580D01*
X62864804Y-22623781D01*
X62861204Y-22599513D01*
X62860000Y-22575009D01*
X62860000Y-20825007D01*
X62861204Y-20800503D01*
X62864804Y-20776235D01*
X62870765Y-20752436D01*
X62879030Y-20729337D01*
X62889520Y-20707158D01*
X62902132Y-20686115D01*
X62916747Y-20666409D01*
X62933223Y-20648231D01*
X62951401Y-20631755D01*
X62971107Y-20617140D01*
X62992150Y-20604528D01*
X63014329Y-20594038D01*
X63037428Y-20585773D01*
X63061227Y-20579812D01*
X63085495Y-20576212D01*
X63109999Y-20575008D01*
X65160001Y-20575008D01*
X65184505Y-20576212D01*
X65184505Y-20576212D01*
G37*
D23*
X64135000Y-21700008D03*
G04 #@! TD*
D10*
G04 #@! TO.C,C17*
G36*
X32037505Y-20491204D02*
X32061773Y-20494804D01*
X32085572Y-20500765D01*
X32108671Y-20509030D01*
X32130850Y-20519520D01*
X32151893Y-20532132D01*
X32171599Y-20546747D01*
X32189777Y-20563223D01*
X32206253Y-20581401D01*
X32220868Y-20601107D01*
X32233480Y-20622150D01*
X32243970Y-20644329D01*
X32252235Y-20667428D01*
X32258196Y-20691227D01*
X32261796Y-20715495D01*
X32263000Y-20739999D01*
X32263000Y-22490001D01*
X32261796Y-22514505D01*
X32258196Y-22538773D01*
X32252235Y-22562572D01*
X32243970Y-22585671D01*
X32233480Y-22607850D01*
X32220868Y-22628893D01*
X32206253Y-22648599D01*
X32189777Y-22666777D01*
X32171599Y-22683253D01*
X32151893Y-22697868D01*
X32130850Y-22710480D01*
X32108671Y-22720970D01*
X32085572Y-22729235D01*
X32061773Y-22735196D01*
X32037505Y-22738796D01*
X32013001Y-22740000D01*
X29962999Y-22740000D01*
X29938495Y-22738796D01*
X29914227Y-22735196D01*
X29890428Y-22729235D01*
X29867329Y-22720970D01*
X29845150Y-22710480D01*
X29824107Y-22697868D01*
X29804401Y-22683253D01*
X29786223Y-22666777D01*
X29769747Y-22648599D01*
X29755132Y-22628893D01*
X29742520Y-22607850D01*
X29732030Y-22585671D01*
X29723765Y-22562572D01*
X29717804Y-22538773D01*
X29714204Y-22514505D01*
X29713000Y-22490001D01*
X29713000Y-20739999D01*
X29714204Y-20715495D01*
X29717804Y-20691227D01*
X29723765Y-20667428D01*
X29732030Y-20644329D01*
X29742520Y-20622150D01*
X29755132Y-20601107D01*
X29769747Y-20581401D01*
X29786223Y-20563223D01*
X29804401Y-20546747D01*
X29824107Y-20532132D01*
X29845150Y-20519520D01*
X29867329Y-20509030D01*
X29890428Y-20500765D01*
X29914227Y-20494804D01*
X29938495Y-20491204D01*
X29962999Y-20490000D01*
X32013001Y-20490000D01*
X32037505Y-20491204D01*
X32037505Y-20491204D01*
G37*
D23*
X30988000Y-21615000D03*
D10*
G36*
X32037505Y-14091204D02*
X32061773Y-14094804D01*
X32085572Y-14100765D01*
X32108671Y-14109030D01*
X32130850Y-14119520D01*
X32151893Y-14132132D01*
X32171599Y-14146747D01*
X32189777Y-14163223D01*
X32206253Y-14181401D01*
X32220868Y-14201107D01*
X32233480Y-14222150D01*
X32243970Y-14244329D01*
X32252235Y-14267428D01*
X32258196Y-14291227D01*
X32261796Y-14315495D01*
X32263000Y-14339999D01*
X32263000Y-16090001D01*
X32261796Y-16114505D01*
X32258196Y-16138773D01*
X32252235Y-16162572D01*
X32243970Y-16185671D01*
X32233480Y-16207850D01*
X32220868Y-16228893D01*
X32206253Y-16248599D01*
X32189777Y-16266777D01*
X32171599Y-16283253D01*
X32151893Y-16297868D01*
X32130850Y-16310480D01*
X32108671Y-16320970D01*
X32085572Y-16329235D01*
X32061773Y-16335196D01*
X32037505Y-16338796D01*
X32013001Y-16340000D01*
X29962999Y-16340000D01*
X29938495Y-16338796D01*
X29914227Y-16335196D01*
X29890428Y-16329235D01*
X29867329Y-16320970D01*
X29845150Y-16310480D01*
X29824107Y-16297868D01*
X29804401Y-16283253D01*
X29786223Y-16266777D01*
X29769747Y-16248599D01*
X29755132Y-16228893D01*
X29742520Y-16207850D01*
X29732030Y-16185671D01*
X29723765Y-16162572D01*
X29717804Y-16138773D01*
X29714204Y-16114505D01*
X29713000Y-16090001D01*
X29713000Y-14339999D01*
X29714204Y-14315495D01*
X29717804Y-14291227D01*
X29723765Y-14267428D01*
X29732030Y-14244329D01*
X29742520Y-14222150D01*
X29755132Y-14201107D01*
X29769747Y-14181401D01*
X29786223Y-14163223D01*
X29804401Y-14146747D01*
X29824107Y-14132132D01*
X29845150Y-14119520D01*
X29867329Y-14109030D01*
X29890428Y-14100765D01*
X29914227Y-14094804D01*
X29938495Y-14091204D01*
X29962999Y-14090000D01*
X32013001Y-14090000D01*
X32037505Y-14091204D01*
X32037505Y-14091204D01*
G37*
D23*
X30988000Y-15215000D03*
G04 #@! TD*
D10*
G04 #@! TO.C,C18*
G36*
X38717705Y-4651212D02*
X38741973Y-4654812D01*
X38765772Y-4660773D01*
X38788871Y-4669038D01*
X38811050Y-4679528D01*
X38832093Y-4692140D01*
X38851799Y-4706755D01*
X38869977Y-4723231D01*
X38886453Y-4741409D01*
X38901068Y-4761115D01*
X38913680Y-4782158D01*
X38924170Y-4804337D01*
X38932435Y-4827436D01*
X38938396Y-4851235D01*
X38941996Y-4875503D01*
X38943200Y-4900007D01*
X38943200Y-6650009D01*
X38941996Y-6674513D01*
X38938396Y-6698781D01*
X38932435Y-6722580D01*
X38924170Y-6745679D01*
X38913680Y-6767858D01*
X38901068Y-6788901D01*
X38886453Y-6808607D01*
X38869977Y-6826785D01*
X38851799Y-6843261D01*
X38832093Y-6857876D01*
X38811050Y-6870488D01*
X38788871Y-6880978D01*
X38765772Y-6889243D01*
X38741973Y-6895204D01*
X38717705Y-6898804D01*
X38693201Y-6900008D01*
X36643199Y-6900008D01*
X36618695Y-6898804D01*
X36594427Y-6895204D01*
X36570628Y-6889243D01*
X36547529Y-6880978D01*
X36525350Y-6870488D01*
X36504307Y-6857876D01*
X36484601Y-6843261D01*
X36466423Y-6826785D01*
X36449947Y-6808607D01*
X36435332Y-6788901D01*
X36422720Y-6767858D01*
X36412230Y-6745679D01*
X36403965Y-6722580D01*
X36398004Y-6698781D01*
X36394404Y-6674513D01*
X36393200Y-6650009D01*
X36393200Y-4900007D01*
X36394404Y-4875503D01*
X36398004Y-4851235D01*
X36403965Y-4827436D01*
X36412230Y-4804337D01*
X36422720Y-4782158D01*
X36435332Y-4761115D01*
X36449947Y-4741409D01*
X36466423Y-4723231D01*
X36484601Y-4706755D01*
X36504307Y-4692140D01*
X36525350Y-4679528D01*
X36547529Y-4669038D01*
X36570628Y-4660773D01*
X36594427Y-4654812D01*
X36618695Y-4651212D01*
X36643199Y-4650008D01*
X38693201Y-4650008D01*
X38717705Y-4651212D01*
X38717705Y-4651212D01*
G37*
D23*
X37668200Y-5775008D03*
D10*
G36*
X38717705Y-11051212D02*
X38741973Y-11054812D01*
X38765772Y-11060773D01*
X38788871Y-11069038D01*
X38811050Y-11079528D01*
X38832093Y-11092140D01*
X38851799Y-11106755D01*
X38869977Y-11123231D01*
X38886453Y-11141409D01*
X38901068Y-11161115D01*
X38913680Y-11182158D01*
X38924170Y-11204337D01*
X38932435Y-11227436D01*
X38938396Y-11251235D01*
X38941996Y-11275503D01*
X38943200Y-11300007D01*
X38943200Y-13050009D01*
X38941996Y-13074513D01*
X38938396Y-13098781D01*
X38932435Y-13122580D01*
X38924170Y-13145679D01*
X38913680Y-13167858D01*
X38901068Y-13188901D01*
X38886453Y-13208607D01*
X38869977Y-13226785D01*
X38851799Y-13243261D01*
X38832093Y-13257876D01*
X38811050Y-13270488D01*
X38788871Y-13280978D01*
X38765772Y-13289243D01*
X38741973Y-13295204D01*
X38717705Y-13298804D01*
X38693201Y-13300008D01*
X36643199Y-13300008D01*
X36618695Y-13298804D01*
X36594427Y-13295204D01*
X36570628Y-13289243D01*
X36547529Y-13280978D01*
X36525350Y-13270488D01*
X36504307Y-13257876D01*
X36484601Y-13243261D01*
X36466423Y-13226785D01*
X36449947Y-13208607D01*
X36435332Y-13188901D01*
X36422720Y-13167858D01*
X36412230Y-13145679D01*
X36403965Y-13122580D01*
X36398004Y-13098781D01*
X36394404Y-13074513D01*
X36393200Y-13050009D01*
X36393200Y-11300007D01*
X36394404Y-11275503D01*
X36398004Y-11251235D01*
X36403965Y-11227436D01*
X36412230Y-11204337D01*
X36422720Y-11182158D01*
X36435332Y-11161115D01*
X36449947Y-11141409D01*
X36466423Y-11123231D01*
X36484601Y-11106755D01*
X36504307Y-11092140D01*
X36525350Y-11079528D01*
X36547529Y-11069038D01*
X36570628Y-11060773D01*
X36594427Y-11054812D01*
X36618695Y-11051212D01*
X36643199Y-11050008D01*
X38693201Y-11050008D01*
X38717705Y-11051212D01*
X38717705Y-11051212D01*
G37*
D23*
X37668200Y-12175008D03*
G04 #@! TD*
D10*
G04 #@! TO.C,C19*
G36*
X68486505Y-11051212D02*
X68510773Y-11054812D01*
X68534572Y-11060773D01*
X68557671Y-11069038D01*
X68579850Y-11079528D01*
X68600893Y-11092140D01*
X68620599Y-11106755D01*
X68638777Y-11123231D01*
X68655253Y-11141409D01*
X68669868Y-11161115D01*
X68682480Y-11182158D01*
X68692970Y-11204337D01*
X68701235Y-11227436D01*
X68707196Y-11251235D01*
X68710796Y-11275503D01*
X68712000Y-11300007D01*
X68712000Y-13050009D01*
X68710796Y-13074513D01*
X68707196Y-13098781D01*
X68701235Y-13122580D01*
X68692970Y-13145679D01*
X68682480Y-13167858D01*
X68669868Y-13188901D01*
X68655253Y-13208607D01*
X68638777Y-13226785D01*
X68620599Y-13243261D01*
X68600893Y-13257876D01*
X68579850Y-13270488D01*
X68557671Y-13280978D01*
X68534572Y-13289243D01*
X68510773Y-13295204D01*
X68486505Y-13298804D01*
X68462001Y-13300008D01*
X66411999Y-13300008D01*
X66387495Y-13298804D01*
X66363227Y-13295204D01*
X66339428Y-13289243D01*
X66316329Y-13280978D01*
X66294150Y-13270488D01*
X66273107Y-13257876D01*
X66253401Y-13243261D01*
X66235223Y-13226785D01*
X66218747Y-13208607D01*
X66204132Y-13188901D01*
X66191520Y-13167858D01*
X66181030Y-13145679D01*
X66172765Y-13122580D01*
X66166804Y-13098781D01*
X66163204Y-13074513D01*
X66162000Y-13050009D01*
X66162000Y-11300007D01*
X66163204Y-11275503D01*
X66166804Y-11251235D01*
X66172765Y-11227436D01*
X66181030Y-11204337D01*
X66191520Y-11182158D01*
X66204132Y-11161115D01*
X66218747Y-11141409D01*
X66235223Y-11123231D01*
X66253401Y-11106755D01*
X66273107Y-11092140D01*
X66294150Y-11079528D01*
X66316329Y-11069038D01*
X66339428Y-11060773D01*
X66363227Y-11054812D01*
X66387495Y-11051212D01*
X66411999Y-11050008D01*
X68462001Y-11050008D01*
X68486505Y-11051212D01*
X68486505Y-11051212D01*
G37*
D23*
X67437000Y-12175008D03*
D10*
G36*
X68486505Y-4651212D02*
X68510773Y-4654812D01*
X68534572Y-4660773D01*
X68557671Y-4669038D01*
X68579850Y-4679528D01*
X68600893Y-4692140D01*
X68620599Y-4706755D01*
X68638777Y-4723231D01*
X68655253Y-4741409D01*
X68669868Y-4761115D01*
X68682480Y-4782158D01*
X68692970Y-4804337D01*
X68701235Y-4827436D01*
X68707196Y-4851235D01*
X68710796Y-4875503D01*
X68712000Y-4900007D01*
X68712000Y-6650009D01*
X68710796Y-6674513D01*
X68707196Y-6698781D01*
X68701235Y-6722580D01*
X68692970Y-6745679D01*
X68682480Y-6767858D01*
X68669868Y-6788901D01*
X68655253Y-6808607D01*
X68638777Y-6826785D01*
X68620599Y-6843261D01*
X68600893Y-6857876D01*
X68579850Y-6870488D01*
X68557671Y-6880978D01*
X68534572Y-6889243D01*
X68510773Y-6895204D01*
X68486505Y-6898804D01*
X68462001Y-6900008D01*
X66411999Y-6900008D01*
X66387495Y-6898804D01*
X66363227Y-6895204D01*
X66339428Y-6889243D01*
X66316329Y-6880978D01*
X66294150Y-6870488D01*
X66273107Y-6857876D01*
X66253401Y-6843261D01*
X66235223Y-6826785D01*
X66218747Y-6808607D01*
X66204132Y-6788901D01*
X66191520Y-6767858D01*
X66181030Y-6745679D01*
X66172765Y-6722580D01*
X66166804Y-6698781D01*
X66163204Y-6674513D01*
X66162000Y-6650009D01*
X66162000Y-4900007D01*
X66163204Y-4875503D01*
X66166804Y-4851235D01*
X66172765Y-4827436D01*
X66181030Y-4804337D01*
X66191520Y-4782158D01*
X66204132Y-4761115D01*
X66218747Y-4741409D01*
X66235223Y-4723231D01*
X66253401Y-4706755D01*
X66273107Y-4692140D01*
X66294150Y-4679528D01*
X66316329Y-4669038D01*
X66339428Y-4660773D01*
X66363227Y-4654812D01*
X66387495Y-4651212D01*
X66411999Y-4650008D01*
X68462001Y-4650008D01*
X68486505Y-4651212D01*
X68486505Y-4651212D01*
G37*
D23*
X67437000Y-5775008D03*
G04 #@! TD*
D10*
G04 #@! TO.C,C20*
G36*
X42578505Y-20491204D02*
X42602773Y-20494804D01*
X42626572Y-20500765D01*
X42649671Y-20509030D01*
X42671850Y-20519520D01*
X42692893Y-20532132D01*
X42712599Y-20546747D01*
X42730777Y-20563223D01*
X42747253Y-20581401D01*
X42761868Y-20601107D01*
X42774480Y-20622150D01*
X42784970Y-20644329D01*
X42793235Y-20667428D01*
X42799196Y-20691227D01*
X42802796Y-20715495D01*
X42804000Y-20739999D01*
X42804000Y-22490001D01*
X42802796Y-22514505D01*
X42799196Y-22538773D01*
X42793235Y-22562572D01*
X42784970Y-22585671D01*
X42774480Y-22607850D01*
X42761868Y-22628893D01*
X42747253Y-22648599D01*
X42730777Y-22666777D01*
X42712599Y-22683253D01*
X42692893Y-22697868D01*
X42671850Y-22710480D01*
X42649671Y-22720970D01*
X42626572Y-22729235D01*
X42602773Y-22735196D01*
X42578505Y-22738796D01*
X42554001Y-22740000D01*
X40503999Y-22740000D01*
X40479495Y-22738796D01*
X40455227Y-22735196D01*
X40431428Y-22729235D01*
X40408329Y-22720970D01*
X40386150Y-22710480D01*
X40365107Y-22697868D01*
X40345401Y-22683253D01*
X40327223Y-22666777D01*
X40310747Y-22648599D01*
X40296132Y-22628893D01*
X40283520Y-22607850D01*
X40273030Y-22585671D01*
X40264765Y-22562572D01*
X40258804Y-22538773D01*
X40255204Y-22514505D01*
X40254000Y-22490001D01*
X40254000Y-20739999D01*
X40255204Y-20715495D01*
X40258804Y-20691227D01*
X40264765Y-20667428D01*
X40273030Y-20644329D01*
X40283520Y-20622150D01*
X40296132Y-20601107D01*
X40310747Y-20581401D01*
X40327223Y-20563223D01*
X40345401Y-20546747D01*
X40365107Y-20532132D01*
X40386150Y-20519520D01*
X40408329Y-20509030D01*
X40431428Y-20500765D01*
X40455227Y-20494804D01*
X40479495Y-20491204D01*
X40503999Y-20490000D01*
X42554001Y-20490000D01*
X42578505Y-20491204D01*
X42578505Y-20491204D01*
G37*
D23*
X41529000Y-21615000D03*
D10*
G36*
X42578505Y-14091204D02*
X42602773Y-14094804D01*
X42626572Y-14100765D01*
X42649671Y-14109030D01*
X42671850Y-14119520D01*
X42692893Y-14132132D01*
X42712599Y-14146747D01*
X42730777Y-14163223D01*
X42747253Y-14181401D01*
X42761868Y-14201107D01*
X42774480Y-14222150D01*
X42784970Y-14244329D01*
X42793235Y-14267428D01*
X42799196Y-14291227D01*
X42802796Y-14315495D01*
X42804000Y-14339999D01*
X42804000Y-16090001D01*
X42802796Y-16114505D01*
X42799196Y-16138773D01*
X42793235Y-16162572D01*
X42784970Y-16185671D01*
X42774480Y-16207850D01*
X42761868Y-16228893D01*
X42747253Y-16248599D01*
X42730777Y-16266777D01*
X42712599Y-16283253D01*
X42692893Y-16297868D01*
X42671850Y-16310480D01*
X42649671Y-16320970D01*
X42626572Y-16329235D01*
X42602773Y-16335196D01*
X42578505Y-16338796D01*
X42554001Y-16340000D01*
X40503999Y-16340000D01*
X40479495Y-16338796D01*
X40455227Y-16335196D01*
X40431428Y-16329235D01*
X40408329Y-16320970D01*
X40386150Y-16310480D01*
X40365107Y-16297868D01*
X40345401Y-16283253D01*
X40327223Y-16266777D01*
X40310747Y-16248599D01*
X40296132Y-16228893D01*
X40283520Y-16207850D01*
X40273030Y-16185671D01*
X40264765Y-16162572D01*
X40258804Y-16138773D01*
X40255204Y-16114505D01*
X40254000Y-16090001D01*
X40254000Y-14339999D01*
X40255204Y-14315495D01*
X40258804Y-14291227D01*
X40264765Y-14267428D01*
X40273030Y-14244329D01*
X40283520Y-14222150D01*
X40296132Y-14201107D01*
X40310747Y-14181401D01*
X40327223Y-14163223D01*
X40345401Y-14146747D01*
X40365107Y-14132132D01*
X40386150Y-14119520D01*
X40408329Y-14109030D01*
X40431428Y-14100765D01*
X40455227Y-14094804D01*
X40479495Y-14091204D01*
X40503999Y-14090000D01*
X42554001Y-14090000D01*
X42578505Y-14091204D01*
X42578505Y-14091204D01*
G37*
D23*
X41529000Y-15215000D03*
G04 #@! TD*
D10*
G04 #@! TO.C,C21*
G36*
X37371505Y-14091204D02*
X37395773Y-14094804D01*
X37419572Y-14100765D01*
X37442671Y-14109030D01*
X37464850Y-14119520D01*
X37485893Y-14132132D01*
X37505599Y-14146747D01*
X37523777Y-14163223D01*
X37540253Y-14181401D01*
X37554868Y-14201107D01*
X37567480Y-14222150D01*
X37577970Y-14244329D01*
X37586235Y-14267428D01*
X37592196Y-14291227D01*
X37595796Y-14315495D01*
X37597000Y-14339999D01*
X37597000Y-16090001D01*
X37595796Y-16114505D01*
X37592196Y-16138773D01*
X37586235Y-16162572D01*
X37577970Y-16185671D01*
X37567480Y-16207850D01*
X37554868Y-16228893D01*
X37540253Y-16248599D01*
X37523777Y-16266777D01*
X37505599Y-16283253D01*
X37485893Y-16297868D01*
X37464850Y-16310480D01*
X37442671Y-16320970D01*
X37419572Y-16329235D01*
X37395773Y-16335196D01*
X37371505Y-16338796D01*
X37347001Y-16340000D01*
X35296999Y-16340000D01*
X35272495Y-16338796D01*
X35248227Y-16335196D01*
X35224428Y-16329235D01*
X35201329Y-16320970D01*
X35179150Y-16310480D01*
X35158107Y-16297868D01*
X35138401Y-16283253D01*
X35120223Y-16266777D01*
X35103747Y-16248599D01*
X35089132Y-16228893D01*
X35076520Y-16207850D01*
X35066030Y-16185671D01*
X35057765Y-16162572D01*
X35051804Y-16138773D01*
X35048204Y-16114505D01*
X35047000Y-16090001D01*
X35047000Y-14339999D01*
X35048204Y-14315495D01*
X35051804Y-14291227D01*
X35057765Y-14267428D01*
X35066030Y-14244329D01*
X35076520Y-14222150D01*
X35089132Y-14201107D01*
X35103747Y-14181401D01*
X35120223Y-14163223D01*
X35138401Y-14146747D01*
X35158107Y-14132132D01*
X35179150Y-14119520D01*
X35201329Y-14109030D01*
X35224428Y-14100765D01*
X35248227Y-14094804D01*
X35272495Y-14091204D01*
X35296999Y-14090000D01*
X37347001Y-14090000D01*
X37371505Y-14091204D01*
X37371505Y-14091204D01*
G37*
D23*
X36322000Y-15215000D03*
D10*
G36*
X37371505Y-20491204D02*
X37395773Y-20494804D01*
X37419572Y-20500765D01*
X37442671Y-20509030D01*
X37464850Y-20519520D01*
X37485893Y-20532132D01*
X37505599Y-20546747D01*
X37523777Y-20563223D01*
X37540253Y-20581401D01*
X37554868Y-20601107D01*
X37567480Y-20622150D01*
X37577970Y-20644329D01*
X37586235Y-20667428D01*
X37592196Y-20691227D01*
X37595796Y-20715495D01*
X37597000Y-20739999D01*
X37597000Y-22490001D01*
X37595796Y-22514505D01*
X37592196Y-22538773D01*
X37586235Y-22562572D01*
X37577970Y-22585671D01*
X37567480Y-22607850D01*
X37554868Y-22628893D01*
X37540253Y-22648599D01*
X37523777Y-22666777D01*
X37505599Y-22683253D01*
X37485893Y-22697868D01*
X37464850Y-22710480D01*
X37442671Y-22720970D01*
X37419572Y-22729235D01*
X37395773Y-22735196D01*
X37371505Y-22738796D01*
X37347001Y-22740000D01*
X35296999Y-22740000D01*
X35272495Y-22738796D01*
X35248227Y-22735196D01*
X35224428Y-22729235D01*
X35201329Y-22720970D01*
X35179150Y-22710480D01*
X35158107Y-22697868D01*
X35138401Y-22683253D01*
X35120223Y-22666777D01*
X35103747Y-22648599D01*
X35089132Y-22628893D01*
X35076520Y-22607850D01*
X35066030Y-22585671D01*
X35057765Y-22562572D01*
X35051804Y-22538773D01*
X35048204Y-22514505D01*
X35047000Y-22490001D01*
X35047000Y-20739999D01*
X35048204Y-20715495D01*
X35051804Y-20691227D01*
X35057765Y-20667428D01*
X35066030Y-20644329D01*
X35076520Y-20622150D01*
X35089132Y-20601107D01*
X35103747Y-20581401D01*
X35120223Y-20563223D01*
X35138401Y-20546747D01*
X35158107Y-20532132D01*
X35179150Y-20519520D01*
X35201329Y-20509030D01*
X35224428Y-20500765D01*
X35248227Y-20494804D01*
X35272495Y-20491204D01*
X35296999Y-20490000D01*
X37347001Y-20490000D01*
X37371505Y-20491204D01*
X37371505Y-20491204D01*
G37*
D23*
X36322000Y-21615000D03*
G04 #@! TD*
D10*
G04 #@! TO.C,R4*
G36*
X51233505Y-15640212D02*
X51257773Y-15643812D01*
X51281572Y-15649773D01*
X51304671Y-15658038D01*
X51326850Y-15668528D01*
X51347893Y-15681140D01*
X51367599Y-15695755D01*
X51385777Y-15712231D01*
X51402253Y-15730409D01*
X51416868Y-15750115D01*
X51429480Y-15771158D01*
X51439970Y-15793337D01*
X51448235Y-15816436D01*
X51454196Y-15840235D01*
X51457796Y-15864503D01*
X51459000Y-15889007D01*
X51459000Y-16914009D01*
X51457796Y-16938513D01*
X51454196Y-16962781D01*
X51448235Y-16986580D01*
X51439970Y-17009679D01*
X51429480Y-17031858D01*
X51416868Y-17052901D01*
X51402253Y-17072607D01*
X51385777Y-17090785D01*
X51367599Y-17107261D01*
X51347893Y-17121876D01*
X51326850Y-17134488D01*
X51304671Y-17144978D01*
X51281572Y-17153243D01*
X51257773Y-17159204D01*
X51233505Y-17162804D01*
X51209001Y-17164008D01*
X48358999Y-17164008D01*
X48334495Y-17162804D01*
X48310227Y-17159204D01*
X48286428Y-17153243D01*
X48263329Y-17144978D01*
X48241150Y-17134488D01*
X48220107Y-17121876D01*
X48200401Y-17107261D01*
X48182223Y-17090785D01*
X48165747Y-17072607D01*
X48151132Y-17052901D01*
X48138520Y-17031858D01*
X48128030Y-17009679D01*
X48119765Y-16986580D01*
X48113804Y-16962781D01*
X48110204Y-16938513D01*
X48109000Y-16914009D01*
X48109000Y-15889007D01*
X48110204Y-15864503D01*
X48113804Y-15840235D01*
X48119765Y-15816436D01*
X48128030Y-15793337D01*
X48138520Y-15771158D01*
X48151132Y-15750115D01*
X48165747Y-15730409D01*
X48182223Y-15712231D01*
X48200401Y-15695755D01*
X48220107Y-15681140D01*
X48241150Y-15668528D01*
X48263329Y-15658038D01*
X48286428Y-15649773D01*
X48310227Y-15643812D01*
X48334495Y-15640212D01*
X48358999Y-15639008D01*
X51209001Y-15639008D01*
X51233505Y-15640212D01*
X51233505Y-15640212D01*
G37*
D11*
X49784000Y-16401508D03*
D10*
G36*
X51233505Y-21615212D02*
X51257773Y-21618812D01*
X51281572Y-21624773D01*
X51304671Y-21633038D01*
X51326850Y-21643528D01*
X51347893Y-21656140D01*
X51367599Y-21670755D01*
X51385777Y-21687231D01*
X51402253Y-21705409D01*
X51416868Y-21725115D01*
X51429480Y-21746158D01*
X51439970Y-21768337D01*
X51448235Y-21791436D01*
X51454196Y-21815235D01*
X51457796Y-21839503D01*
X51459000Y-21864007D01*
X51459000Y-22889009D01*
X51457796Y-22913513D01*
X51454196Y-22937781D01*
X51448235Y-22961580D01*
X51439970Y-22984679D01*
X51429480Y-23006858D01*
X51416868Y-23027901D01*
X51402253Y-23047607D01*
X51385777Y-23065785D01*
X51367599Y-23082261D01*
X51347893Y-23096876D01*
X51326850Y-23109488D01*
X51304671Y-23119978D01*
X51281572Y-23128243D01*
X51257773Y-23134204D01*
X51233505Y-23137804D01*
X51209001Y-23139008D01*
X48358999Y-23139008D01*
X48334495Y-23137804D01*
X48310227Y-23134204D01*
X48286428Y-23128243D01*
X48263329Y-23119978D01*
X48241150Y-23109488D01*
X48220107Y-23096876D01*
X48200401Y-23082261D01*
X48182223Y-23065785D01*
X48165747Y-23047607D01*
X48151132Y-23027901D01*
X48138520Y-23006858D01*
X48128030Y-22984679D01*
X48119765Y-22961580D01*
X48113804Y-22937781D01*
X48110204Y-22913513D01*
X48109000Y-22889009D01*
X48109000Y-21864007D01*
X48110204Y-21839503D01*
X48113804Y-21815235D01*
X48119765Y-21791436D01*
X48128030Y-21768337D01*
X48138520Y-21746158D01*
X48151132Y-21725115D01*
X48165747Y-21705409D01*
X48182223Y-21687231D01*
X48200401Y-21670755D01*
X48220107Y-21656140D01*
X48241150Y-21643528D01*
X48263329Y-21633038D01*
X48286428Y-21624773D01*
X48310227Y-21618812D01*
X48334495Y-21615212D01*
X48358999Y-21614008D01*
X51209001Y-21614008D01*
X51233505Y-21615212D01*
X51233505Y-21615212D01*
G37*
D11*
X49784000Y-22376508D03*
G04 #@! TD*
M02*
