M48
;DRILL file {KiCad (5.0.1)-3} date 1/9/2019 23:59:21
;FORMAT={-:-/ absolute / inch / decimal}
FMAT,2
INCH,TZ
T1C0.0157
T2C0.0197
T3C0.0315
T4C0.0394
T5C0.0630
T6C0.1181
%
G90
G05
M72
T1
X0.3295Y-0.765
X0.342Y-1.425
X0.342Y-1.475
X0.342Y-1.525
X0.342Y-1.575
X0.36Y-0.39
X0.367Y-0.71
X0.367Y-0.82
X0.417Y-1.2
X0.417Y-1.335
X0.417Y-1.265
X0.42Y-0.335
X0.487Y-1.335
X0.517Y-1.265
X0.537Y-0.3515
X0.5865Y-0.2965
X0.5865Y-0.4065
X0.587Y-0.945
X0.587Y-1.025
X0.587Y-1.105
X0.592Y-0.82
X0.592Y-1.2
X0.617Y-0.7075
X0.637Y-1.155
X0.6525Y-0.301
X0.7225Y-0.3025
X0.9156Y-1.4669
X0.917Y-0.615
X0.917Y-0.695
X0.917Y-0.775
X0.92Y-0.54
X0.9525Y-1.5075
X0.9675Y-0.34
X0.9975Y-0.305
X1.075Y-1.47
X1.297Y-1.8581
X1.367Y-1.8581
X1.405Y-1.0184
X1.5827Y-1.4423
X1.617Y-3.175
X1.617Y-3.225
X1.65Y-0.42
X1.73Y-1.0433
X1.775Y-2.695
X1.8Y-2.17
X1.867Y-3.125
X1.867Y-3.165
X1.872Y-2.456
X1.875Y-1.67
X1.875Y-2.07
X1.892Y-3.295
X1.8944Y-0.4914
X1.9005Y-2.695
X1.9059Y-1.7891
X1.95Y-1.72
X1.9606Y-0.731
X1.9613Y-0.806
X2.Y-0.73
X2.Y-0.77
X2.0188Y-3.068
X2.067Y-3.22
X2.08Y-0.73
X2.08Y-0.77
X2.11Y-0.36
X2.1115Y-0.1535
X2.15Y-2.95
X2.16Y-0.765
X2.167Y-2.245
X2.167Y-2.345
X2.19Y-3.32
X2.19Y-3.36
X2.235Y-0.765
X2.25Y-3.18
X2.26Y-3.57
X2.31Y-3.13
X2.31Y-3.62
X2.35Y-3.32
X2.35Y-3.36
X2.675Y-1.02
X2.792Y-3.32
X2.995Y-1.02
X3.25Y-2.8
X3.2637Y-3.1637
X3.35Y-2.475
X3.36Y-2.69
X3.36Y-2.94
X3.38Y-2.27
X3.42Y-2.69
X3.42Y-2.895
X3.435Y-0.462
X3.435Y-0.502
X3.485Y-0.465
X3.485Y-0.502
T2
X3.517Y-2.1044
X3.517Y-2.1537
X3.517Y-2.2029
X3.517Y-2.2521
X3.517Y-2.3013
X3.517Y-2.3505
X3.517Y-2.3997
X3.517Y-2.4489
X3.517Y-2.4981
X3.517Y-2.5474
X3.517Y-2.5966
X3.517Y-2.6458
X3.517Y-2.695
X3.517Y-2.7442
X0.21Y-0.6366
X0.21Y-0.6858
X0.21Y-0.735
T3
X1.3322Y-1.575
X1.4322Y-1.575
X1.5322Y-1.575
X1.6322Y-1.575
X1.692Y-3.475
X1.7322Y-1.575
X1.792Y-3.475
X1.8322Y-1.575
X1.892Y-3.475
X1.9322Y-1.575
X1.992Y-3.475
X2.0322Y-1.575
X2.092Y-3.475
X2.1322Y-1.575
X2.192Y-3.475
X2.2322Y-1.575
X2.292Y-3.475
X2.392Y-1.575
X2.392Y-3.475
X2.492Y-1.575
X2.592Y-1.575
X2.592Y-3.475
X2.692Y-1.575
X2.692Y-3.475
X2.792Y-1.575
X2.792Y-3.475
X2.892Y-1.575
X2.892Y-3.475
X2.992Y-1.575
X2.992Y-3.475
X3.092Y-1.575
X3.092Y-3.475
T4
X1.967Y-2.3
X1.967Y-2.4
X1.967Y-2.5
X1.967Y-2.6
X1.967Y-2.7
X1.967Y-2.8
X1.967Y-2.9
X1.967Y-3.
X1.267Y-2.275
X1.267Y-2.375
X1.267Y-2.475
X1.267Y-2.575
X1.267Y-2.675
X1.267Y-2.775
X1.267Y-2.875
X1.267Y-2.975
X1.267Y-3.075
T5
X1.22Y-1.41
X0.91Y-0.1525
X1.39Y-1.41
X2.142Y-1.845
X2.785Y-1.41
X1.095Y-0.15
X0.73Y-0.155
X0.5675Y-0.1525
X1.255Y-0.15
X2.95Y-1.41
T6
X1.835Y-1.335
X3.11Y-1.2
X1.93Y-1.05
X1.05Y-1.2
X2.325Y-1.34
X2.22Y-1.05
T0
M30
