G04 #@! TF.GenerationSoftware,KiCad,Pcbnew,(5.0.1)-3*
G04 #@! TF.CreationDate,2019-01-09T23:58:32-05:00*
G04 #@! TF.ProjectId,SMA_Driver_V1,534D415F4472697665725F56312E6B69,rev?*
G04 #@! TF.SameCoordinates,Original*
G04 #@! TF.FileFunction,Paste,Top*
G04 #@! TF.FilePolarity,Positive*
%FSLAX46Y46*%
G04 Gerber Fmt 4.6, Leading zero omitted, Abs format (unit mm)*
G04 Created by KiCad (PCBNEW (5.0.1)-3) date 1/9/2019 23:58:32*
%MOMM*%
%LPD*%
G01*
G04 APERTURE LIST*
%ADD10C,0.100000*%
%ADD11C,0.975000*%
%ADD12R,3.000000X1.600000*%
%ADD13C,1.150000*%
%ADD14R,1.450000X0.450000*%
%ADD15R,0.450000X1.450000*%
%ADD16R,0.600000X1.550000*%
G04 APERTURE END LIST*
D10*
G04 #@! TO.C,R20*
G36*
X81215142Y-70421174D02*
X81238803Y-70424684D01*
X81262007Y-70430496D01*
X81284529Y-70438554D01*
X81306153Y-70448782D01*
X81326670Y-70461079D01*
X81345883Y-70475329D01*
X81363607Y-70491393D01*
X81379671Y-70509117D01*
X81393921Y-70528330D01*
X81406218Y-70548847D01*
X81416446Y-70570471D01*
X81424504Y-70592993D01*
X81430316Y-70616197D01*
X81433826Y-70639858D01*
X81435000Y-70663750D01*
X81435000Y-71576250D01*
X81433826Y-71600142D01*
X81430316Y-71623803D01*
X81424504Y-71647007D01*
X81416446Y-71669529D01*
X81406218Y-71691153D01*
X81393921Y-71711670D01*
X81379671Y-71730883D01*
X81363607Y-71748607D01*
X81345883Y-71764671D01*
X81326670Y-71778921D01*
X81306153Y-71791218D01*
X81284529Y-71801446D01*
X81262007Y-71809504D01*
X81238803Y-71815316D01*
X81215142Y-71818826D01*
X81191250Y-71820000D01*
X80703750Y-71820000D01*
X80679858Y-71818826D01*
X80656197Y-71815316D01*
X80632993Y-71809504D01*
X80610471Y-71801446D01*
X80588847Y-71791218D01*
X80568330Y-71778921D01*
X80549117Y-71764671D01*
X80531393Y-71748607D01*
X80515329Y-71730883D01*
X80501079Y-71711670D01*
X80488782Y-71691153D01*
X80478554Y-71669529D01*
X80470496Y-71647007D01*
X80464684Y-71623803D01*
X80461174Y-71600142D01*
X80460000Y-71576250D01*
X80460000Y-70663750D01*
X80461174Y-70639858D01*
X80464684Y-70616197D01*
X80470496Y-70592993D01*
X80478554Y-70570471D01*
X80488782Y-70548847D01*
X80501079Y-70528330D01*
X80515329Y-70509117D01*
X80531393Y-70491393D01*
X80549117Y-70475329D01*
X80568330Y-70461079D01*
X80588847Y-70448782D01*
X80610471Y-70438554D01*
X80632993Y-70430496D01*
X80656197Y-70424684D01*
X80679858Y-70421174D01*
X80703750Y-70420000D01*
X81191250Y-70420000D01*
X81215142Y-70421174D01*
X81215142Y-70421174D01*
G37*
D11*
X80947500Y-71120000D03*
D10*
G36*
X79340142Y-70421174D02*
X79363803Y-70424684D01*
X79387007Y-70430496D01*
X79409529Y-70438554D01*
X79431153Y-70448782D01*
X79451670Y-70461079D01*
X79470883Y-70475329D01*
X79488607Y-70491393D01*
X79504671Y-70509117D01*
X79518921Y-70528330D01*
X79531218Y-70548847D01*
X79541446Y-70570471D01*
X79549504Y-70592993D01*
X79555316Y-70616197D01*
X79558826Y-70639858D01*
X79560000Y-70663750D01*
X79560000Y-71576250D01*
X79558826Y-71600142D01*
X79555316Y-71623803D01*
X79549504Y-71647007D01*
X79541446Y-71669529D01*
X79531218Y-71691153D01*
X79518921Y-71711670D01*
X79504671Y-71730883D01*
X79488607Y-71748607D01*
X79470883Y-71764671D01*
X79451670Y-71778921D01*
X79431153Y-71791218D01*
X79409529Y-71801446D01*
X79387007Y-71809504D01*
X79363803Y-71815316D01*
X79340142Y-71818826D01*
X79316250Y-71820000D01*
X78828750Y-71820000D01*
X78804858Y-71818826D01*
X78781197Y-71815316D01*
X78757993Y-71809504D01*
X78735471Y-71801446D01*
X78713847Y-71791218D01*
X78693330Y-71778921D01*
X78674117Y-71764671D01*
X78656393Y-71748607D01*
X78640329Y-71730883D01*
X78626079Y-71711670D01*
X78613782Y-71691153D01*
X78603554Y-71669529D01*
X78595496Y-71647007D01*
X78589684Y-71623803D01*
X78586174Y-71600142D01*
X78585000Y-71576250D01*
X78585000Y-70663750D01*
X78586174Y-70639858D01*
X78589684Y-70616197D01*
X78595496Y-70592993D01*
X78603554Y-70570471D01*
X78613782Y-70548847D01*
X78626079Y-70528330D01*
X78640329Y-70509117D01*
X78656393Y-70491393D01*
X78674117Y-70475329D01*
X78693330Y-70461079D01*
X78713847Y-70448782D01*
X78735471Y-70438554D01*
X78757993Y-70430496D01*
X78781197Y-70424684D01*
X78804858Y-70421174D01*
X78828750Y-70420000D01*
X79316250Y-70420000D01*
X79340142Y-70421174D01*
X79340142Y-70421174D01*
G37*
D11*
X79072500Y-71120000D03*
G04 #@! TD*
D12*
G04 #@! TO.C,C32*
X62144000Y-84836000D03*
X57744000Y-84836000D03*
G04 #@! TD*
D10*
G04 #@! TO.C,C23*
G36*
X61064505Y-89979204D02*
X61088773Y-89982804D01*
X61112572Y-89988765D01*
X61135671Y-89997030D01*
X61157850Y-90007520D01*
X61178893Y-90020132D01*
X61198599Y-90034747D01*
X61216777Y-90051223D01*
X61233253Y-90069401D01*
X61247868Y-90089107D01*
X61260480Y-90110150D01*
X61270970Y-90132329D01*
X61279235Y-90155428D01*
X61285196Y-90179227D01*
X61288796Y-90203495D01*
X61290000Y-90227999D01*
X61290000Y-91128001D01*
X61288796Y-91152505D01*
X61285196Y-91176773D01*
X61279235Y-91200572D01*
X61270970Y-91223671D01*
X61260480Y-91245850D01*
X61247868Y-91266893D01*
X61233253Y-91286599D01*
X61216777Y-91304777D01*
X61198599Y-91321253D01*
X61178893Y-91335868D01*
X61157850Y-91348480D01*
X61135671Y-91358970D01*
X61112572Y-91367235D01*
X61088773Y-91373196D01*
X61064505Y-91376796D01*
X61040001Y-91378000D01*
X60389999Y-91378000D01*
X60365495Y-91376796D01*
X60341227Y-91373196D01*
X60317428Y-91367235D01*
X60294329Y-91358970D01*
X60272150Y-91348480D01*
X60251107Y-91335868D01*
X60231401Y-91321253D01*
X60213223Y-91304777D01*
X60196747Y-91286599D01*
X60182132Y-91266893D01*
X60169520Y-91245850D01*
X60159030Y-91223671D01*
X60150765Y-91200572D01*
X60144804Y-91176773D01*
X60141204Y-91152505D01*
X60140000Y-91128001D01*
X60140000Y-90227999D01*
X60141204Y-90203495D01*
X60144804Y-90179227D01*
X60150765Y-90155428D01*
X60159030Y-90132329D01*
X60169520Y-90110150D01*
X60182132Y-90089107D01*
X60196747Y-90069401D01*
X60213223Y-90051223D01*
X60231401Y-90034747D01*
X60251107Y-90020132D01*
X60272150Y-90007520D01*
X60294329Y-89997030D01*
X60317428Y-89988765D01*
X60341227Y-89982804D01*
X60365495Y-89979204D01*
X60389999Y-89978000D01*
X61040001Y-89978000D01*
X61064505Y-89979204D01*
X61064505Y-89979204D01*
G37*
D13*
X60715000Y-90678000D03*
D10*
G36*
X59014505Y-89979204D02*
X59038773Y-89982804D01*
X59062572Y-89988765D01*
X59085671Y-89997030D01*
X59107850Y-90007520D01*
X59128893Y-90020132D01*
X59148599Y-90034747D01*
X59166777Y-90051223D01*
X59183253Y-90069401D01*
X59197868Y-90089107D01*
X59210480Y-90110150D01*
X59220970Y-90132329D01*
X59229235Y-90155428D01*
X59235196Y-90179227D01*
X59238796Y-90203495D01*
X59240000Y-90227999D01*
X59240000Y-91128001D01*
X59238796Y-91152505D01*
X59235196Y-91176773D01*
X59229235Y-91200572D01*
X59220970Y-91223671D01*
X59210480Y-91245850D01*
X59197868Y-91266893D01*
X59183253Y-91286599D01*
X59166777Y-91304777D01*
X59148599Y-91321253D01*
X59128893Y-91335868D01*
X59107850Y-91348480D01*
X59085671Y-91358970D01*
X59062572Y-91367235D01*
X59038773Y-91373196D01*
X59014505Y-91376796D01*
X58990001Y-91378000D01*
X58339999Y-91378000D01*
X58315495Y-91376796D01*
X58291227Y-91373196D01*
X58267428Y-91367235D01*
X58244329Y-91358970D01*
X58222150Y-91348480D01*
X58201107Y-91335868D01*
X58181401Y-91321253D01*
X58163223Y-91304777D01*
X58146747Y-91286599D01*
X58132132Y-91266893D01*
X58119520Y-91245850D01*
X58109030Y-91223671D01*
X58100765Y-91200572D01*
X58094804Y-91176773D01*
X58091204Y-91152505D01*
X58090000Y-91128001D01*
X58090000Y-90227999D01*
X58091204Y-90203495D01*
X58094804Y-90179227D01*
X58100765Y-90155428D01*
X58109030Y-90132329D01*
X58119520Y-90110150D01*
X58132132Y-90089107D01*
X58146747Y-90069401D01*
X58163223Y-90051223D01*
X58181401Y-90034747D01*
X58201107Y-90020132D01*
X58222150Y-90007520D01*
X58244329Y-89997030D01*
X58267428Y-89988765D01*
X58291227Y-89982804D01*
X58315495Y-89979204D01*
X58339999Y-89978000D01*
X58990001Y-89978000D01*
X59014505Y-89979204D01*
X59014505Y-89979204D01*
G37*
D13*
X58665000Y-90678000D03*
G04 #@! TD*
D10*
G04 #@! TO.C,C22*
G36*
X61064505Y-80073204D02*
X61088773Y-80076804D01*
X61112572Y-80082765D01*
X61135671Y-80091030D01*
X61157850Y-80101520D01*
X61178893Y-80114132D01*
X61198599Y-80128747D01*
X61216777Y-80145223D01*
X61233253Y-80163401D01*
X61247868Y-80183107D01*
X61260480Y-80204150D01*
X61270970Y-80226329D01*
X61279235Y-80249428D01*
X61285196Y-80273227D01*
X61288796Y-80297495D01*
X61290000Y-80321999D01*
X61290000Y-81222001D01*
X61288796Y-81246505D01*
X61285196Y-81270773D01*
X61279235Y-81294572D01*
X61270970Y-81317671D01*
X61260480Y-81339850D01*
X61247868Y-81360893D01*
X61233253Y-81380599D01*
X61216777Y-81398777D01*
X61198599Y-81415253D01*
X61178893Y-81429868D01*
X61157850Y-81442480D01*
X61135671Y-81452970D01*
X61112572Y-81461235D01*
X61088773Y-81467196D01*
X61064505Y-81470796D01*
X61040001Y-81472000D01*
X60389999Y-81472000D01*
X60365495Y-81470796D01*
X60341227Y-81467196D01*
X60317428Y-81461235D01*
X60294329Y-81452970D01*
X60272150Y-81442480D01*
X60251107Y-81429868D01*
X60231401Y-81415253D01*
X60213223Y-81398777D01*
X60196747Y-81380599D01*
X60182132Y-81360893D01*
X60169520Y-81339850D01*
X60159030Y-81317671D01*
X60150765Y-81294572D01*
X60144804Y-81270773D01*
X60141204Y-81246505D01*
X60140000Y-81222001D01*
X60140000Y-80321999D01*
X60141204Y-80297495D01*
X60144804Y-80273227D01*
X60150765Y-80249428D01*
X60159030Y-80226329D01*
X60169520Y-80204150D01*
X60182132Y-80183107D01*
X60196747Y-80163401D01*
X60213223Y-80145223D01*
X60231401Y-80128747D01*
X60251107Y-80114132D01*
X60272150Y-80101520D01*
X60294329Y-80091030D01*
X60317428Y-80082765D01*
X60341227Y-80076804D01*
X60365495Y-80073204D01*
X60389999Y-80072000D01*
X61040001Y-80072000D01*
X61064505Y-80073204D01*
X61064505Y-80073204D01*
G37*
D13*
X60715000Y-80772000D03*
D10*
G36*
X59014505Y-80073204D02*
X59038773Y-80076804D01*
X59062572Y-80082765D01*
X59085671Y-80091030D01*
X59107850Y-80101520D01*
X59128893Y-80114132D01*
X59148599Y-80128747D01*
X59166777Y-80145223D01*
X59183253Y-80163401D01*
X59197868Y-80183107D01*
X59210480Y-80204150D01*
X59220970Y-80226329D01*
X59229235Y-80249428D01*
X59235196Y-80273227D01*
X59238796Y-80297495D01*
X59240000Y-80321999D01*
X59240000Y-81222001D01*
X59238796Y-81246505D01*
X59235196Y-81270773D01*
X59229235Y-81294572D01*
X59220970Y-81317671D01*
X59210480Y-81339850D01*
X59197868Y-81360893D01*
X59183253Y-81380599D01*
X59166777Y-81398777D01*
X59148599Y-81415253D01*
X59128893Y-81429868D01*
X59107850Y-81442480D01*
X59085671Y-81452970D01*
X59062572Y-81461235D01*
X59038773Y-81467196D01*
X59014505Y-81470796D01*
X58990001Y-81472000D01*
X58339999Y-81472000D01*
X58315495Y-81470796D01*
X58291227Y-81467196D01*
X58267428Y-81461235D01*
X58244329Y-81452970D01*
X58222150Y-81442480D01*
X58201107Y-81429868D01*
X58181401Y-81415253D01*
X58163223Y-81398777D01*
X58146747Y-81380599D01*
X58132132Y-81360893D01*
X58119520Y-81339850D01*
X58109030Y-81317671D01*
X58100765Y-81294572D01*
X58094804Y-81270773D01*
X58091204Y-81246505D01*
X58090000Y-81222001D01*
X58090000Y-80321999D01*
X58091204Y-80297495D01*
X58094804Y-80273227D01*
X58100765Y-80249428D01*
X58109030Y-80226329D01*
X58119520Y-80204150D01*
X58132132Y-80183107D01*
X58146747Y-80163401D01*
X58163223Y-80145223D01*
X58181401Y-80128747D01*
X58201107Y-80114132D01*
X58222150Y-80101520D01*
X58244329Y-80091030D01*
X58267428Y-80082765D01*
X58291227Y-80076804D01*
X58315495Y-80073204D01*
X58339999Y-80072000D01*
X58990001Y-80072000D01*
X59014505Y-80073204D01*
X59014505Y-80073204D01*
G37*
D13*
X58665000Y-80772000D03*
G04 #@! TD*
D10*
G04 #@! TO.C,C4*
G36*
X20330305Y-12890204D02*
X20354573Y-12893804D01*
X20378372Y-12899765D01*
X20401471Y-12908030D01*
X20423650Y-12918520D01*
X20444693Y-12931132D01*
X20464399Y-12945747D01*
X20482577Y-12962223D01*
X20499053Y-12980401D01*
X20513668Y-13000107D01*
X20526280Y-13021150D01*
X20536770Y-13043329D01*
X20545035Y-13066428D01*
X20550996Y-13090227D01*
X20554596Y-13114495D01*
X20555800Y-13138999D01*
X20555800Y-14039001D01*
X20554596Y-14063505D01*
X20550996Y-14087773D01*
X20545035Y-14111572D01*
X20536770Y-14134671D01*
X20526280Y-14156850D01*
X20513668Y-14177893D01*
X20499053Y-14197599D01*
X20482577Y-14215777D01*
X20464399Y-14232253D01*
X20444693Y-14246868D01*
X20423650Y-14259480D01*
X20401471Y-14269970D01*
X20378372Y-14278235D01*
X20354573Y-14284196D01*
X20330305Y-14287796D01*
X20305801Y-14289000D01*
X19655799Y-14289000D01*
X19631295Y-14287796D01*
X19607027Y-14284196D01*
X19583228Y-14278235D01*
X19560129Y-14269970D01*
X19537950Y-14259480D01*
X19516907Y-14246868D01*
X19497201Y-14232253D01*
X19479023Y-14215777D01*
X19462547Y-14197599D01*
X19447932Y-14177893D01*
X19435320Y-14156850D01*
X19424830Y-14134671D01*
X19416565Y-14111572D01*
X19410604Y-14087773D01*
X19407004Y-14063505D01*
X19405800Y-14039001D01*
X19405800Y-13138999D01*
X19407004Y-13114495D01*
X19410604Y-13090227D01*
X19416565Y-13066428D01*
X19424830Y-13043329D01*
X19435320Y-13021150D01*
X19447932Y-13000107D01*
X19462547Y-12980401D01*
X19479023Y-12962223D01*
X19497201Y-12945747D01*
X19516907Y-12931132D01*
X19537950Y-12918520D01*
X19560129Y-12908030D01*
X19583228Y-12899765D01*
X19607027Y-12893804D01*
X19631295Y-12890204D01*
X19655799Y-12889000D01*
X20305801Y-12889000D01*
X20330305Y-12890204D01*
X20330305Y-12890204D01*
G37*
D13*
X19980800Y-13589000D03*
D10*
G36*
X22380305Y-12890204D02*
X22404573Y-12893804D01*
X22428372Y-12899765D01*
X22451471Y-12908030D01*
X22473650Y-12918520D01*
X22494693Y-12931132D01*
X22514399Y-12945747D01*
X22532577Y-12962223D01*
X22549053Y-12980401D01*
X22563668Y-13000107D01*
X22576280Y-13021150D01*
X22586770Y-13043329D01*
X22595035Y-13066428D01*
X22600996Y-13090227D01*
X22604596Y-13114495D01*
X22605800Y-13138999D01*
X22605800Y-14039001D01*
X22604596Y-14063505D01*
X22600996Y-14087773D01*
X22595035Y-14111572D01*
X22586770Y-14134671D01*
X22576280Y-14156850D01*
X22563668Y-14177893D01*
X22549053Y-14197599D01*
X22532577Y-14215777D01*
X22514399Y-14232253D01*
X22494693Y-14246868D01*
X22473650Y-14259480D01*
X22451471Y-14269970D01*
X22428372Y-14278235D01*
X22404573Y-14284196D01*
X22380305Y-14287796D01*
X22355801Y-14289000D01*
X21705799Y-14289000D01*
X21681295Y-14287796D01*
X21657027Y-14284196D01*
X21633228Y-14278235D01*
X21610129Y-14269970D01*
X21587950Y-14259480D01*
X21566907Y-14246868D01*
X21547201Y-14232253D01*
X21529023Y-14215777D01*
X21512547Y-14197599D01*
X21497932Y-14177893D01*
X21485320Y-14156850D01*
X21474830Y-14134671D01*
X21466565Y-14111572D01*
X21460604Y-14087773D01*
X21457004Y-14063505D01*
X21455800Y-14039001D01*
X21455800Y-13138999D01*
X21457004Y-13114495D01*
X21460604Y-13090227D01*
X21466565Y-13066428D01*
X21474830Y-13043329D01*
X21485320Y-13021150D01*
X21497932Y-13000107D01*
X21512547Y-12980401D01*
X21529023Y-12962223D01*
X21547201Y-12945747D01*
X21566907Y-12931132D01*
X21587950Y-12918520D01*
X21610129Y-12908030D01*
X21633228Y-12899765D01*
X21657027Y-12893804D01*
X21681295Y-12890204D01*
X21705799Y-12889000D01*
X22355801Y-12889000D01*
X22380305Y-12890204D01*
X22380305Y-12890204D01*
G37*
D13*
X22030800Y-13589000D03*
G04 #@! TD*
D14*
G04 #@! TO.C,U2*
X47742200Y-20558400D03*
X47742200Y-19908400D03*
X47742200Y-19258400D03*
X47742200Y-18608400D03*
X43342200Y-18608400D03*
X43342200Y-19258400D03*
X43342200Y-19908400D03*
X43342200Y-20558400D03*
G04 #@! TD*
D10*
G04 #@! TO.C,R10*
G36*
X40478142Y-21907174D02*
X40501803Y-21910684D01*
X40525007Y-21916496D01*
X40547529Y-21924554D01*
X40569153Y-21934782D01*
X40589670Y-21947079D01*
X40608883Y-21961329D01*
X40626607Y-21977393D01*
X40642671Y-21995117D01*
X40656921Y-22014330D01*
X40669218Y-22034847D01*
X40679446Y-22056471D01*
X40687504Y-22078993D01*
X40693316Y-22102197D01*
X40696826Y-22125858D01*
X40698000Y-22149750D01*
X40698000Y-23062250D01*
X40696826Y-23086142D01*
X40693316Y-23109803D01*
X40687504Y-23133007D01*
X40679446Y-23155529D01*
X40669218Y-23177153D01*
X40656921Y-23197670D01*
X40642671Y-23216883D01*
X40626607Y-23234607D01*
X40608883Y-23250671D01*
X40589670Y-23264921D01*
X40569153Y-23277218D01*
X40547529Y-23287446D01*
X40525007Y-23295504D01*
X40501803Y-23301316D01*
X40478142Y-23304826D01*
X40454250Y-23306000D01*
X39966750Y-23306000D01*
X39942858Y-23304826D01*
X39919197Y-23301316D01*
X39895993Y-23295504D01*
X39873471Y-23287446D01*
X39851847Y-23277218D01*
X39831330Y-23264921D01*
X39812117Y-23250671D01*
X39794393Y-23234607D01*
X39778329Y-23216883D01*
X39764079Y-23197670D01*
X39751782Y-23177153D01*
X39741554Y-23155529D01*
X39733496Y-23133007D01*
X39727684Y-23109803D01*
X39724174Y-23086142D01*
X39723000Y-23062250D01*
X39723000Y-22149750D01*
X39724174Y-22125858D01*
X39727684Y-22102197D01*
X39733496Y-22078993D01*
X39741554Y-22056471D01*
X39751782Y-22034847D01*
X39764079Y-22014330D01*
X39778329Y-21995117D01*
X39794393Y-21977393D01*
X39812117Y-21961329D01*
X39831330Y-21947079D01*
X39851847Y-21934782D01*
X39873471Y-21924554D01*
X39895993Y-21916496D01*
X39919197Y-21910684D01*
X39942858Y-21907174D01*
X39966750Y-21906000D01*
X40454250Y-21906000D01*
X40478142Y-21907174D01*
X40478142Y-21907174D01*
G37*
D11*
X40210500Y-22606000D03*
D10*
G36*
X42353142Y-21907174D02*
X42376803Y-21910684D01*
X42400007Y-21916496D01*
X42422529Y-21924554D01*
X42444153Y-21934782D01*
X42464670Y-21947079D01*
X42483883Y-21961329D01*
X42501607Y-21977393D01*
X42517671Y-21995117D01*
X42531921Y-22014330D01*
X42544218Y-22034847D01*
X42554446Y-22056471D01*
X42562504Y-22078993D01*
X42568316Y-22102197D01*
X42571826Y-22125858D01*
X42573000Y-22149750D01*
X42573000Y-23062250D01*
X42571826Y-23086142D01*
X42568316Y-23109803D01*
X42562504Y-23133007D01*
X42554446Y-23155529D01*
X42544218Y-23177153D01*
X42531921Y-23197670D01*
X42517671Y-23216883D01*
X42501607Y-23234607D01*
X42483883Y-23250671D01*
X42464670Y-23264921D01*
X42444153Y-23277218D01*
X42422529Y-23287446D01*
X42400007Y-23295504D01*
X42376803Y-23301316D01*
X42353142Y-23304826D01*
X42329250Y-23306000D01*
X41841750Y-23306000D01*
X41817858Y-23304826D01*
X41794197Y-23301316D01*
X41770993Y-23295504D01*
X41748471Y-23287446D01*
X41726847Y-23277218D01*
X41706330Y-23264921D01*
X41687117Y-23250671D01*
X41669393Y-23234607D01*
X41653329Y-23216883D01*
X41639079Y-23197670D01*
X41626782Y-23177153D01*
X41616554Y-23155529D01*
X41608496Y-23133007D01*
X41602684Y-23109803D01*
X41599174Y-23086142D01*
X41598000Y-23062250D01*
X41598000Y-22149750D01*
X41599174Y-22125858D01*
X41602684Y-22102197D01*
X41608496Y-22078993D01*
X41616554Y-22056471D01*
X41626782Y-22034847D01*
X41639079Y-22014330D01*
X41653329Y-21995117D01*
X41669393Y-21977393D01*
X41687117Y-21961329D01*
X41706330Y-21947079D01*
X41726847Y-21934782D01*
X41748471Y-21924554D01*
X41770993Y-21916496D01*
X41794197Y-21910684D01*
X41817858Y-21907174D01*
X41841750Y-21906000D01*
X42329250Y-21906000D01*
X42353142Y-21907174D01*
X42353142Y-21907174D01*
G37*
D11*
X42085500Y-22606000D03*
G04 #@! TD*
D10*
G04 #@! TO.C,R14*
G36*
X59281142Y-13816174D02*
X59304803Y-13819684D01*
X59328007Y-13825496D01*
X59350529Y-13833554D01*
X59372153Y-13843782D01*
X59392670Y-13856079D01*
X59411883Y-13870329D01*
X59429607Y-13886393D01*
X59445671Y-13904117D01*
X59459921Y-13923330D01*
X59472218Y-13943847D01*
X59482446Y-13965471D01*
X59490504Y-13987993D01*
X59496316Y-14011197D01*
X59499826Y-14034858D01*
X59501000Y-14058750D01*
X59501000Y-14546250D01*
X59499826Y-14570142D01*
X59496316Y-14593803D01*
X59490504Y-14617007D01*
X59482446Y-14639529D01*
X59472218Y-14661153D01*
X59459921Y-14681670D01*
X59445671Y-14700883D01*
X59429607Y-14718607D01*
X59411883Y-14734671D01*
X59392670Y-14748921D01*
X59372153Y-14761218D01*
X59350529Y-14771446D01*
X59328007Y-14779504D01*
X59304803Y-14785316D01*
X59281142Y-14788826D01*
X59257250Y-14790000D01*
X58344750Y-14790000D01*
X58320858Y-14788826D01*
X58297197Y-14785316D01*
X58273993Y-14779504D01*
X58251471Y-14771446D01*
X58229847Y-14761218D01*
X58209330Y-14748921D01*
X58190117Y-14734671D01*
X58172393Y-14718607D01*
X58156329Y-14700883D01*
X58142079Y-14681670D01*
X58129782Y-14661153D01*
X58119554Y-14639529D01*
X58111496Y-14617007D01*
X58105684Y-14593803D01*
X58102174Y-14570142D01*
X58101000Y-14546250D01*
X58101000Y-14058750D01*
X58102174Y-14034858D01*
X58105684Y-14011197D01*
X58111496Y-13987993D01*
X58119554Y-13965471D01*
X58129782Y-13943847D01*
X58142079Y-13923330D01*
X58156329Y-13904117D01*
X58172393Y-13886393D01*
X58190117Y-13870329D01*
X58209330Y-13856079D01*
X58229847Y-13843782D01*
X58251471Y-13833554D01*
X58273993Y-13825496D01*
X58297197Y-13819684D01*
X58320858Y-13816174D01*
X58344750Y-13815000D01*
X59257250Y-13815000D01*
X59281142Y-13816174D01*
X59281142Y-13816174D01*
G37*
D11*
X58801000Y-14302500D03*
D10*
G36*
X59281142Y-15691174D02*
X59304803Y-15694684D01*
X59328007Y-15700496D01*
X59350529Y-15708554D01*
X59372153Y-15718782D01*
X59392670Y-15731079D01*
X59411883Y-15745329D01*
X59429607Y-15761393D01*
X59445671Y-15779117D01*
X59459921Y-15798330D01*
X59472218Y-15818847D01*
X59482446Y-15840471D01*
X59490504Y-15862993D01*
X59496316Y-15886197D01*
X59499826Y-15909858D01*
X59501000Y-15933750D01*
X59501000Y-16421250D01*
X59499826Y-16445142D01*
X59496316Y-16468803D01*
X59490504Y-16492007D01*
X59482446Y-16514529D01*
X59472218Y-16536153D01*
X59459921Y-16556670D01*
X59445671Y-16575883D01*
X59429607Y-16593607D01*
X59411883Y-16609671D01*
X59392670Y-16623921D01*
X59372153Y-16636218D01*
X59350529Y-16646446D01*
X59328007Y-16654504D01*
X59304803Y-16660316D01*
X59281142Y-16663826D01*
X59257250Y-16665000D01*
X58344750Y-16665000D01*
X58320858Y-16663826D01*
X58297197Y-16660316D01*
X58273993Y-16654504D01*
X58251471Y-16646446D01*
X58229847Y-16636218D01*
X58209330Y-16623921D01*
X58190117Y-16609671D01*
X58172393Y-16593607D01*
X58156329Y-16575883D01*
X58142079Y-16556670D01*
X58129782Y-16536153D01*
X58119554Y-16514529D01*
X58111496Y-16492007D01*
X58105684Y-16468803D01*
X58102174Y-16445142D01*
X58101000Y-16421250D01*
X58101000Y-15933750D01*
X58102174Y-15909858D01*
X58105684Y-15886197D01*
X58111496Y-15862993D01*
X58119554Y-15840471D01*
X58129782Y-15818847D01*
X58142079Y-15798330D01*
X58156329Y-15779117D01*
X58172393Y-15761393D01*
X58190117Y-15745329D01*
X58209330Y-15731079D01*
X58229847Y-15718782D01*
X58251471Y-15708554D01*
X58273993Y-15700496D01*
X58297197Y-15694684D01*
X58320858Y-15691174D01*
X58344750Y-15690000D01*
X59257250Y-15690000D01*
X59281142Y-15691174D01*
X59281142Y-15691174D01*
G37*
D11*
X58801000Y-16177500D03*
G04 #@! TD*
D10*
G04 #@! TO.C,R11*
G36*
X45909142Y-21907174D02*
X45932803Y-21910684D01*
X45956007Y-21916496D01*
X45978529Y-21924554D01*
X46000153Y-21934782D01*
X46020670Y-21947079D01*
X46039883Y-21961329D01*
X46057607Y-21977393D01*
X46073671Y-21995117D01*
X46087921Y-22014330D01*
X46100218Y-22034847D01*
X46110446Y-22056471D01*
X46118504Y-22078993D01*
X46124316Y-22102197D01*
X46127826Y-22125858D01*
X46129000Y-22149750D01*
X46129000Y-23062250D01*
X46127826Y-23086142D01*
X46124316Y-23109803D01*
X46118504Y-23133007D01*
X46110446Y-23155529D01*
X46100218Y-23177153D01*
X46087921Y-23197670D01*
X46073671Y-23216883D01*
X46057607Y-23234607D01*
X46039883Y-23250671D01*
X46020670Y-23264921D01*
X46000153Y-23277218D01*
X45978529Y-23287446D01*
X45956007Y-23295504D01*
X45932803Y-23301316D01*
X45909142Y-23304826D01*
X45885250Y-23306000D01*
X45397750Y-23306000D01*
X45373858Y-23304826D01*
X45350197Y-23301316D01*
X45326993Y-23295504D01*
X45304471Y-23287446D01*
X45282847Y-23277218D01*
X45262330Y-23264921D01*
X45243117Y-23250671D01*
X45225393Y-23234607D01*
X45209329Y-23216883D01*
X45195079Y-23197670D01*
X45182782Y-23177153D01*
X45172554Y-23155529D01*
X45164496Y-23133007D01*
X45158684Y-23109803D01*
X45155174Y-23086142D01*
X45154000Y-23062250D01*
X45154000Y-22149750D01*
X45155174Y-22125858D01*
X45158684Y-22102197D01*
X45164496Y-22078993D01*
X45172554Y-22056471D01*
X45182782Y-22034847D01*
X45195079Y-22014330D01*
X45209329Y-21995117D01*
X45225393Y-21977393D01*
X45243117Y-21961329D01*
X45262330Y-21947079D01*
X45282847Y-21934782D01*
X45304471Y-21924554D01*
X45326993Y-21916496D01*
X45350197Y-21910684D01*
X45373858Y-21907174D01*
X45397750Y-21906000D01*
X45885250Y-21906000D01*
X45909142Y-21907174D01*
X45909142Y-21907174D01*
G37*
D11*
X45641500Y-22606000D03*
D10*
G36*
X44034142Y-21907174D02*
X44057803Y-21910684D01*
X44081007Y-21916496D01*
X44103529Y-21924554D01*
X44125153Y-21934782D01*
X44145670Y-21947079D01*
X44164883Y-21961329D01*
X44182607Y-21977393D01*
X44198671Y-21995117D01*
X44212921Y-22014330D01*
X44225218Y-22034847D01*
X44235446Y-22056471D01*
X44243504Y-22078993D01*
X44249316Y-22102197D01*
X44252826Y-22125858D01*
X44254000Y-22149750D01*
X44254000Y-23062250D01*
X44252826Y-23086142D01*
X44249316Y-23109803D01*
X44243504Y-23133007D01*
X44235446Y-23155529D01*
X44225218Y-23177153D01*
X44212921Y-23197670D01*
X44198671Y-23216883D01*
X44182607Y-23234607D01*
X44164883Y-23250671D01*
X44145670Y-23264921D01*
X44125153Y-23277218D01*
X44103529Y-23287446D01*
X44081007Y-23295504D01*
X44057803Y-23301316D01*
X44034142Y-23304826D01*
X44010250Y-23306000D01*
X43522750Y-23306000D01*
X43498858Y-23304826D01*
X43475197Y-23301316D01*
X43451993Y-23295504D01*
X43429471Y-23287446D01*
X43407847Y-23277218D01*
X43387330Y-23264921D01*
X43368117Y-23250671D01*
X43350393Y-23234607D01*
X43334329Y-23216883D01*
X43320079Y-23197670D01*
X43307782Y-23177153D01*
X43297554Y-23155529D01*
X43289496Y-23133007D01*
X43283684Y-23109803D01*
X43280174Y-23086142D01*
X43279000Y-23062250D01*
X43279000Y-22149750D01*
X43280174Y-22125858D01*
X43283684Y-22102197D01*
X43289496Y-22078993D01*
X43297554Y-22056471D01*
X43307782Y-22034847D01*
X43320079Y-22014330D01*
X43334329Y-21995117D01*
X43350393Y-21977393D01*
X43368117Y-21961329D01*
X43387330Y-21947079D01*
X43407847Y-21934782D01*
X43429471Y-21924554D01*
X43451993Y-21916496D01*
X43475197Y-21910684D01*
X43498858Y-21907174D01*
X43522750Y-21906000D01*
X44010250Y-21906000D01*
X44034142Y-21907174D01*
X44034142Y-21907174D01*
G37*
D11*
X43766500Y-22606000D03*
G04 #@! TD*
D10*
G04 #@! TO.C,C29*
G36*
X53306505Y-10720204D02*
X53330773Y-10723804D01*
X53354572Y-10729765D01*
X53377671Y-10738030D01*
X53399850Y-10748520D01*
X53420893Y-10761132D01*
X53440599Y-10775747D01*
X53458777Y-10792223D01*
X53475253Y-10810401D01*
X53489868Y-10830107D01*
X53502480Y-10851150D01*
X53512970Y-10873329D01*
X53521235Y-10896428D01*
X53527196Y-10920227D01*
X53530796Y-10944495D01*
X53532000Y-10968999D01*
X53532000Y-11619001D01*
X53530796Y-11643505D01*
X53527196Y-11667773D01*
X53521235Y-11691572D01*
X53512970Y-11714671D01*
X53502480Y-11736850D01*
X53489868Y-11757893D01*
X53475253Y-11777599D01*
X53458777Y-11795777D01*
X53440599Y-11812253D01*
X53420893Y-11826868D01*
X53399850Y-11839480D01*
X53377671Y-11849970D01*
X53354572Y-11858235D01*
X53330773Y-11864196D01*
X53306505Y-11867796D01*
X53282001Y-11869000D01*
X52381999Y-11869000D01*
X52357495Y-11867796D01*
X52333227Y-11864196D01*
X52309428Y-11858235D01*
X52286329Y-11849970D01*
X52264150Y-11839480D01*
X52243107Y-11826868D01*
X52223401Y-11812253D01*
X52205223Y-11795777D01*
X52188747Y-11777599D01*
X52174132Y-11757893D01*
X52161520Y-11736850D01*
X52151030Y-11714671D01*
X52142765Y-11691572D01*
X52136804Y-11667773D01*
X52133204Y-11643505D01*
X52132000Y-11619001D01*
X52132000Y-10968999D01*
X52133204Y-10944495D01*
X52136804Y-10920227D01*
X52142765Y-10896428D01*
X52151030Y-10873329D01*
X52161520Y-10851150D01*
X52174132Y-10830107D01*
X52188747Y-10810401D01*
X52205223Y-10792223D01*
X52223401Y-10775747D01*
X52243107Y-10761132D01*
X52264150Y-10748520D01*
X52286329Y-10738030D01*
X52309428Y-10729765D01*
X52333227Y-10723804D01*
X52357495Y-10720204D01*
X52381999Y-10719000D01*
X53282001Y-10719000D01*
X53306505Y-10720204D01*
X53306505Y-10720204D01*
G37*
D13*
X52832000Y-11294000D03*
D10*
G36*
X53306505Y-12770204D02*
X53330773Y-12773804D01*
X53354572Y-12779765D01*
X53377671Y-12788030D01*
X53399850Y-12798520D01*
X53420893Y-12811132D01*
X53440599Y-12825747D01*
X53458777Y-12842223D01*
X53475253Y-12860401D01*
X53489868Y-12880107D01*
X53502480Y-12901150D01*
X53512970Y-12923329D01*
X53521235Y-12946428D01*
X53527196Y-12970227D01*
X53530796Y-12994495D01*
X53532000Y-13018999D01*
X53532000Y-13669001D01*
X53530796Y-13693505D01*
X53527196Y-13717773D01*
X53521235Y-13741572D01*
X53512970Y-13764671D01*
X53502480Y-13786850D01*
X53489868Y-13807893D01*
X53475253Y-13827599D01*
X53458777Y-13845777D01*
X53440599Y-13862253D01*
X53420893Y-13876868D01*
X53399850Y-13889480D01*
X53377671Y-13899970D01*
X53354572Y-13908235D01*
X53330773Y-13914196D01*
X53306505Y-13917796D01*
X53282001Y-13919000D01*
X52381999Y-13919000D01*
X52357495Y-13917796D01*
X52333227Y-13914196D01*
X52309428Y-13908235D01*
X52286329Y-13899970D01*
X52264150Y-13889480D01*
X52243107Y-13876868D01*
X52223401Y-13862253D01*
X52205223Y-13845777D01*
X52188747Y-13827599D01*
X52174132Y-13807893D01*
X52161520Y-13786850D01*
X52151030Y-13764671D01*
X52142765Y-13741572D01*
X52136804Y-13717773D01*
X52133204Y-13693505D01*
X52132000Y-13669001D01*
X52132000Y-13018999D01*
X52133204Y-12994495D01*
X52136804Y-12970227D01*
X52142765Y-12946428D01*
X52151030Y-12923329D01*
X52161520Y-12901150D01*
X52174132Y-12880107D01*
X52188747Y-12860401D01*
X52205223Y-12842223D01*
X52223401Y-12825747D01*
X52243107Y-12811132D01*
X52264150Y-12798520D01*
X52286329Y-12788030D01*
X52309428Y-12779765D01*
X52333227Y-12773804D01*
X52357495Y-12770204D01*
X52381999Y-12769000D01*
X53282001Y-12769000D01*
X53306505Y-12770204D01*
X53306505Y-12770204D01*
G37*
D13*
X52832000Y-13344000D03*
G04 #@! TD*
D10*
G04 #@! TO.C,C30*
G36*
X51274505Y-12770204D02*
X51298773Y-12773804D01*
X51322572Y-12779765D01*
X51345671Y-12788030D01*
X51367850Y-12798520D01*
X51388893Y-12811132D01*
X51408599Y-12825747D01*
X51426777Y-12842223D01*
X51443253Y-12860401D01*
X51457868Y-12880107D01*
X51470480Y-12901150D01*
X51480970Y-12923329D01*
X51489235Y-12946428D01*
X51495196Y-12970227D01*
X51498796Y-12994495D01*
X51500000Y-13018999D01*
X51500000Y-13669001D01*
X51498796Y-13693505D01*
X51495196Y-13717773D01*
X51489235Y-13741572D01*
X51480970Y-13764671D01*
X51470480Y-13786850D01*
X51457868Y-13807893D01*
X51443253Y-13827599D01*
X51426777Y-13845777D01*
X51408599Y-13862253D01*
X51388893Y-13876868D01*
X51367850Y-13889480D01*
X51345671Y-13899970D01*
X51322572Y-13908235D01*
X51298773Y-13914196D01*
X51274505Y-13917796D01*
X51250001Y-13919000D01*
X50349999Y-13919000D01*
X50325495Y-13917796D01*
X50301227Y-13914196D01*
X50277428Y-13908235D01*
X50254329Y-13899970D01*
X50232150Y-13889480D01*
X50211107Y-13876868D01*
X50191401Y-13862253D01*
X50173223Y-13845777D01*
X50156747Y-13827599D01*
X50142132Y-13807893D01*
X50129520Y-13786850D01*
X50119030Y-13764671D01*
X50110765Y-13741572D01*
X50104804Y-13717773D01*
X50101204Y-13693505D01*
X50100000Y-13669001D01*
X50100000Y-13018999D01*
X50101204Y-12994495D01*
X50104804Y-12970227D01*
X50110765Y-12946428D01*
X50119030Y-12923329D01*
X50129520Y-12901150D01*
X50142132Y-12880107D01*
X50156747Y-12860401D01*
X50173223Y-12842223D01*
X50191401Y-12825747D01*
X50211107Y-12811132D01*
X50232150Y-12798520D01*
X50254329Y-12788030D01*
X50277428Y-12779765D01*
X50301227Y-12773804D01*
X50325495Y-12770204D01*
X50349999Y-12769000D01*
X51250001Y-12769000D01*
X51274505Y-12770204D01*
X51274505Y-12770204D01*
G37*
D13*
X50800000Y-13344000D03*
D10*
G36*
X51274505Y-10720204D02*
X51298773Y-10723804D01*
X51322572Y-10729765D01*
X51345671Y-10738030D01*
X51367850Y-10748520D01*
X51388893Y-10761132D01*
X51408599Y-10775747D01*
X51426777Y-10792223D01*
X51443253Y-10810401D01*
X51457868Y-10830107D01*
X51470480Y-10851150D01*
X51480970Y-10873329D01*
X51489235Y-10896428D01*
X51495196Y-10920227D01*
X51498796Y-10944495D01*
X51500000Y-10968999D01*
X51500000Y-11619001D01*
X51498796Y-11643505D01*
X51495196Y-11667773D01*
X51489235Y-11691572D01*
X51480970Y-11714671D01*
X51470480Y-11736850D01*
X51457868Y-11757893D01*
X51443253Y-11777599D01*
X51426777Y-11795777D01*
X51408599Y-11812253D01*
X51388893Y-11826868D01*
X51367850Y-11839480D01*
X51345671Y-11849970D01*
X51322572Y-11858235D01*
X51298773Y-11864196D01*
X51274505Y-11867796D01*
X51250001Y-11869000D01*
X50349999Y-11869000D01*
X50325495Y-11867796D01*
X50301227Y-11864196D01*
X50277428Y-11858235D01*
X50254329Y-11849970D01*
X50232150Y-11839480D01*
X50211107Y-11826868D01*
X50191401Y-11812253D01*
X50173223Y-11795777D01*
X50156747Y-11777599D01*
X50142132Y-11757893D01*
X50129520Y-11736850D01*
X50119030Y-11714671D01*
X50110765Y-11691572D01*
X50104804Y-11667773D01*
X50101204Y-11643505D01*
X50100000Y-11619001D01*
X50100000Y-10968999D01*
X50101204Y-10944495D01*
X50104804Y-10920227D01*
X50110765Y-10896428D01*
X50119030Y-10873329D01*
X50129520Y-10851150D01*
X50142132Y-10830107D01*
X50156747Y-10810401D01*
X50173223Y-10792223D01*
X50191401Y-10775747D01*
X50211107Y-10761132D01*
X50232150Y-10748520D01*
X50254329Y-10738030D01*
X50277428Y-10729765D01*
X50301227Y-10723804D01*
X50325495Y-10720204D01*
X50349999Y-10719000D01*
X51250001Y-10719000D01*
X51274505Y-10720204D01*
X51274505Y-10720204D01*
G37*
D13*
X50800000Y-11294000D03*
G04 #@! TD*
D10*
G04 #@! TO.C,C31*
G36*
X11142505Y-11373204D02*
X11166773Y-11376804D01*
X11190572Y-11382765D01*
X11213671Y-11391030D01*
X11235850Y-11401520D01*
X11256893Y-11414132D01*
X11276599Y-11428747D01*
X11294777Y-11445223D01*
X11311253Y-11463401D01*
X11325868Y-11483107D01*
X11338480Y-11504150D01*
X11348970Y-11526329D01*
X11357235Y-11549428D01*
X11363196Y-11573227D01*
X11366796Y-11597495D01*
X11368000Y-11621999D01*
X11368000Y-12272001D01*
X11366796Y-12296505D01*
X11363196Y-12320773D01*
X11357235Y-12344572D01*
X11348970Y-12367671D01*
X11338480Y-12389850D01*
X11325868Y-12410893D01*
X11311253Y-12430599D01*
X11294777Y-12448777D01*
X11276599Y-12465253D01*
X11256893Y-12479868D01*
X11235850Y-12492480D01*
X11213671Y-12502970D01*
X11190572Y-12511235D01*
X11166773Y-12517196D01*
X11142505Y-12520796D01*
X11118001Y-12522000D01*
X10217999Y-12522000D01*
X10193495Y-12520796D01*
X10169227Y-12517196D01*
X10145428Y-12511235D01*
X10122329Y-12502970D01*
X10100150Y-12492480D01*
X10079107Y-12479868D01*
X10059401Y-12465253D01*
X10041223Y-12448777D01*
X10024747Y-12430599D01*
X10010132Y-12410893D01*
X9997520Y-12389850D01*
X9987030Y-12367671D01*
X9978765Y-12344572D01*
X9972804Y-12320773D01*
X9969204Y-12296505D01*
X9968000Y-12272001D01*
X9968000Y-11621999D01*
X9969204Y-11597495D01*
X9972804Y-11573227D01*
X9978765Y-11549428D01*
X9987030Y-11526329D01*
X9997520Y-11504150D01*
X10010132Y-11483107D01*
X10024747Y-11463401D01*
X10041223Y-11445223D01*
X10059401Y-11428747D01*
X10079107Y-11414132D01*
X10100150Y-11401520D01*
X10122329Y-11391030D01*
X10145428Y-11382765D01*
X10169227Y-11376804D01*
X10193495Y-11373204D01*
X10217999Y-11372000D01*
X11118001Y-11372000D01*
X11142505Y-11373204D01*
X11142505Y-11373204D01*
G37*
D13*
X10668000Y-11947000D03*
D10*
G36*
X11142505Y-9323204D02*
X11166773Y-9326804D01*
X11190572Y-9332765D01*
X11213671Y-9341030D01*
X11235850Y-9351520D01*
X11256893Y-9364132D01*
X11276599Y-9378747D01*
X11294777Y-9395223D01*
X11311253Y-9413401D01*
X11325868Y-9433107D01*
X11338480Y-9454150D01*
X11348970Y-9476329D01*
X11357235Y-9499428D01*
X11363196Y-9523227D01*
X11366796Y-9547495D01*
X11368000Y-9571999D01*
X11368000Y-10222001D01*
X11366796Y-10246505D01*
X11363196Y-10270773D01*
X11357235Y-10294572D01*
X11348970Y-10317671D01*
X11338480Y-10339850D01*
X11325868Y-10360893D01*
X11311253Y-10380599D01*
X11294777Y-10398777D01*
X11276599Y-10415253D01*
X11256893Y-10429868D01*
X11235850Y-10442480D01*
X11213671Y-10452970D01*
X11190572Y-10461235D01*
X11166773Y-10467196D01*
X11142505Y-10470796D01*
X11118001Y-10472000D01*
X10217999Y-10472000D01*
X10193495Y-10470796D01*
X10169227Y-10467196D01*
X10145428Y-10461235D01*
X10122329Y-10452970D01*
X10100150Y-10442480D01*
X10079107Y-10429868D01*
X10059401Y-10415253D01*
X10041223Y-10398777D01*
X10024747Y-10380599D01*
X10010132Y-10360893D01*
X9997520Y-10339850D01*
X9987030Y-10317671D01*
X9978765Y-10294572D01*
X9972804Y-10270773D01*
X9969204Y-10246505D01*
X9968000Y-10222001D01*
X9968000Y-9571999D01*
X9969204Y-9547495D01*
X9972804Y-9523227D01*
X9978765Y-9499428D01*
X9987030Y-9476329D01*
X9997520Y-9454150D01*
X10010132Y-9433107D01*
X10024747Y-9413401D01*
X10041223Y-9395223D01*
X10059401Y-9378747D01*
X10079107Y-9364132D01*
X10100150Y-9351520D01*
X10122329Y-9341030D01*
X10145428Y-9332765D01*
X10169227Y-9326804D01*
X10193495Y-9323204D01*
X10217999Y-9322000D01*
X11118001Y-9322000D01*
X11142505Y-9323204D01*
X11142505Y-9323204D01*
G37*
D13*
X10668000Y-9897000D03*
G04 #@! TD*
D15*
G04 #@! TO.C,U5*
X54778000Y-15662000D03*
X55428000Y-15662000D03*
X56078000Y-15662000D03*
X56728000Y-15662000D03*
X56728000Y-11262000D03*
X56078000Y-11262000D03*
X55428000Y-11262000D03*
X54778000Y-11262000D03*
G04 #@! TD*
D10*
G04 #@! TO.C,R15*
G36*
X13180142Y-11627174D02*
X13203803Y-11630684D01*
X13227007Y-11636496D01*
X13249529Y-11644554D01*
X13271153Y-11654782D01*
X13291670Y-11667079D01*
X13310883Y-11681329D01*
X13328607Y-11697393D01*
X13344671Y-11715117D01*
X13358921Y-11734330D01*
X13371218Y-11754847D01*
X13381446Y-11776471D01*
X13389504Y-11798993D01*
X13395316Y-11822197D01*
X13398826Y-11845858D01*
X13400000Y-11869750D01*
X13400000Y-12357250D01*
X13398826Y-12381142D01*
X13395316Y-12404803D01*
X13389504Y-12428007D01*
X13381446Y-12450529D01*
X13371218Y-12472153D01*
X13358921Y-12492670D01*
X13344671Y-12511883D01*
X13328607Y-12529607D01*
X13310883Y-12545671D01*
X13291670Y-12559921D01*
X13271153Y-12572218D01*
X13249529Y-12582446D01*
X13227007Y-12590504D01*
X13203803Y-12596316D01*
X13180142Y-12599826D01*
X13156250Y-12601000D01*
X12243750Y-12601000D01*
X12219858Y-12599826D01*
X12196197Y-12596316D01*
X12172993Y-12590504D01*
X12150471Y-12582446D01*
X12128847Y-12572218D01*
X12108330Y-12559921D01*
X12089117Y-12545671D01*
X12071393Y-12529607D01*
X12055329Y-12511883D01*
X12041079Y-12492670D01*
X12028782Y-12472153D01*
X12018554Y-12450529D01*
X12010496Y-12428007D01*
X12004684Y-12404803D01*
X12001174Y-12381142D01*
X12000000Y-12357250D01*
X12000000Y-11869750D01*
X12001174Y-11845858D01*
X12004684Y-11822197D01*
X12010496Y-11798993D01*
X12018554Y-11776471D01*
X12028782Y-11754847D01*
X12041079Y-11734330D01*
X12055329Y-11715117D01*
X12071393Y-11697393D01*
X12089117Y-11681329D01*
X12108330Y-11667079D01*
X12128847Y-11654782D01*
X12150471Y-11644554D01*
X12172993Y-11636496D01*
X12196197Y-11630684D01*
X12219858Y-11627174D01*
X12243750Y-11626000D01*
X13156250Y-11626000D01*
X13180142Y-11627174D01*
X13180142Y-11627174D01*
G37*
D11*
X12700000Y-12113500D03*
D10*
G36*
X13180142Y-9752174D02*
X13203803Y-9755684D01*
X13227007Y-9761496D01*
X13249529Y-9769554D01*
X13271153Y-9779782D01*
X13291670Y-9792079D01*
X13310883Y-9806329D01*
X13328607Y-9822393D01*
X13344671Y-9840117D01*
X13358921Y-9859330D01*
X13371218Y-9879847D01*
X13381446Y-9901471D01*
X13389504Y-9923993D01*
X13395316Y-9947197D01*
X13398826Y-9970858D01*
X13400000Y-9994750D01*
X13400000Y-10482250D01*
X13398826Y-10506142D01*
X13395316Y-10529803D01*
X13389504Y-10553007D01*
X13381446Y-10575529D01*
X13371218Y-10597153D01*
X13358921Y-10617670D01*
X13344671Y-10636883D01*
X13328607Y-10654607D01*
X13310883Y-10670671D01*
X13291670Y-10684921D01*
X13271153Y-10697218D01*
X13249529Y-10707446D01*
X13227007Y-10715504D01*
X13203803Y-10721316D01*
X13180142Y-10724826D01*
X13156250Y-10726000D01*
X12243750Y-10726000D01*
X12219858Y-10724826D01*
X12196197Y-10721316D01*
X12172993Y-10715504D01*
X12150471Y-10707446D01*
X12128847Y-10697218D01*
X12108330Y-10684921D01*
X12089117Y-10670671D01*
X12071393Y-10654607D01*
X12055329Y-10636883D01*
X12041079Y-10617670D01*
X12028782Y-10597153D01*
X12018554Y-10575529D01*
X12010496Y-10553007D01*
X12004684Y-10529803D01*
X12001174Y-10506142D01*
X12000000Y-10482250D01*
X12000000Y-9994750D01*
X12001174Y-9970858D01*
X12004684Y-9947197D01*
X12010496Y-9923993D01*
X12018554Y-9901471D01*
X12028782Y-9879847D01*
X12041079Y-9859330D01*
X12055329Y-9840117D01*
X12071393Y-9822393D01*
X12089117Y-9806329D01*
X12108330Y-9792079D01*
X12128847Y-9779782D01*
X12150471Y-9769554D01*
X12172993Y-9761496D01*
X12196197Y-9755684D01*
X12219858Y-9752174D01*
X12243750Y-9751000D01*
X13156250Y-9751000D01*
X13180142Y-9752174D01*
X13180142Y-9752174D01*
G37*
D11*
X12700000Y-10238500D03*
G04 #@! TD*
D10*
G04 #@! TO.C,R19*
G36*
X39559142Y-49466174D02*
X39582803Y-49469684D01*
X39606007Y-49475496D01*
X39628529Y-49483554D01*
X39650153Y-49493782D01*
X39670670Y-49506079D01*
X39689883Y-49520329D01*
X39707607Y-49536393D01*
X39723671Y-49554117D01*
X39737921Y-49573330D01*
X39750218Y-49593847D01*
X39760446Y-49615471D01*
X39768504Y-49637993D01*
X39774316Y-49661197D01*
X39777826Y-49684858D01*
X39779000Y-49708750D01*
X39779000Y-50621250D01*
X39777826Y-50645142D01*
X39774316Y-50668803D01*
X39768504Y-50692007D01*
X39760446Y-50714529D01*
X39750218Y-50736153D01*
X39737921Y-50756670D01*
X39723671Y-50775883D01*
X39707607Y-50793607D01*
X39689883Y-50809671D01*
X39670670Y-50823921D01*
X39650153Y-50836218D01*
X39628529Y-50846446D01*
X39606007Y-50854504D01*
X39582803Y-50860316D01*
X39559142Y-50863826D01*
X39535250Y-50865000D01*
X39047750Y-50865000D01*
X39023858Y-50863826D01*
X39000197Y-50860316D01*
X38976993Y-50854504D01*
X38954471Y-50846446D01*
X38932847Y-50836218D01*
X38912330Y-50823921D01*
X38893117Y-50809671D01*
X38875393Y-50793607D01*
X38859329Y-50775883D01*
X38845079Y-50756670D01*
X38832782Y-50736153D01*
X38822554Y-50714529D01*
X38814496Y-50692007D01*
X38808684Y-50668803D01*
X38805174Y-50645142D01*
X38804000Y-50621250D01*
X38804000Y-49708750D01*
X38805174Y-49684858D01*
X38808684Y-49661197D01*
X38814496Y-49637993D01*
X38822554Y-49615471D01*
X38832782Y-49593847D01*
X38845079Y-49573330D01*
X38859329Y-49554117D01*
X38875393Y-49536393D01*
X38893117Y-49520329D01*
X38912330Y-49506079D01*
X38932847Y-49493782D01*
X38954471Y-49483554D01*
X38976993Y-49475496D01*
X39000197Y-49469684D01*
X39023858Y-49466174D01*
X39047750Y-49465000D01*
X39535250Y-49465000D01*
X39559142Y-49466174D01*
X39559142Y-49466174D01*
G37*
D11*
X39291500Y-50165000D03*
D10*
G36*
X37684142Y-49466174D02*
X37707803Y-49469684D01*
X37731007Y-49475496D01*
X37753529Y-49483554D01*
X37775153Y-49493782D01*
X37795670Y-49506079D01*
X37814883Y-49520329D01*
X37832607Y-49536393D01*
X37848671Y-49554117D01*
X37862921Y-49573330D01*
X37875218Y-49593847D01*
X37885446Y-49615471D01*
X37893504Y-49637993D01*
X37899316Y-49661197D01*
X37902826Y-49684858D01*
X37904000Y-49708750D01*
X37904000Y-50621250D01*
X37902826Y-50645142D01*
X37899316Y-50668803D01*
X37893504Y-50692007D01*
X37885446Y-50714529D01*
X37875218Y-50736153D01*
X37862921Y-50756670D01*
X37848671Y-50775883D01*
X37832607Y-50793607D01*
X37814883Y-50809671D01*
X37795670Y-50823921D01*
X37775153Y-50836218D01*
X37753529Y-50846446D01*
X37731007Y-50854504D01*
X37707803Y-50860316D01*
X37684142Y-50863826D01*
X37660250Y-50865000D01*
X37172750Y-50865000D01*
X37148858Y-50863826D01*
X37125197Y-50860316D01*
X37101993Y-50854504D01*
X37079471Y-50846446D01*
X37057847Y-50836218D01*
X37037330Y-50823921D01*
X37018117Y-50809671D01*
X37000393Y-50793607D01*
X36984329Y-50775883D01*
X36970079Y-50756670D01*
X36957782Y-50736153D01*
X36947554Y-50714529D01*
X36939496Y-50692007D01*
X36933684Y-50668803D01*
X36930174Y-50645142D01*
X36929000Y-50621250D01*
X36929000Y-49708750D01*
X36930174Y-49684858D01*
X36933684Y-49661197D01*
X36939496Y-49637993D01*
X36947554Y-49615471D01*
X36957782Y-49593847D01*
X36970079Y-49573330D01*
X36984329Y-49554117D01*
X37000393Y-49536393D01*
X37018117Y-49520329D01*
X37037330Y-49506079D01*
X37057847Y-49493782D01*
X37079471Y-49483554D01*
X37101993Y-49475496D01*
X37125197Y-49469684D01*
X37148858Y-49466174D01*
X37172750Y-49465000D01*
X37660250Y-49465000D01*
X37684142Y-49466174D01*
X37684142Y-49466174D01*
G37*
D11*
X37416500Y-50165000D03*
G04 #@! TD*
D10*
G04 #@! TO.C,R16*
G36*
X41748142Y-49466174D02*
X41771803Y-49469684D01*
X41795007Y-49475496D01*
X41817529Y-49483554D01*
X41839153Y-49493782D01*
X41859670Y-49506079D01*
X41878883Y-49520329D01*
X41896607Y-49536393D01*
X41912671Y-49554117D01*
X41926921Y-49573330D01*
X41939218Y-49593847D01*
X41949446Y-49615471D01*
X41957504Y-49637993D01*
X41963316Y-49661197D01*
X41966826Y-49684858D01*
X41968000Y-49708750D01*
X41968000Y-50621250D01*
X41966826Y-50645142D01*
X41963316Y-50668803D01*
X41957504Y-50692007D01*
X41949446Y-50714529D01*
X41939218Y-50736153D01*
X41926921Y-50756670D01*
X41912671Y-50775883D01*
X41896607Y-50793607D01*
X41878883Y-50809671D01*
X41859670Y-50823921D01*
X41839153Y-50836218D01*
X41817529Y-50846446D01*
X41795007Y-50854504D01*
X41771803Y-50860316D01*
X41748142Y-50863826D01*
X41724250Y-50865000D01*
X41236750Y-50865000D01*
X41212858Y-50863826D01*
X41189197Y-50860316D01*
X41165993Y-50854504D01*
X41143471Y-50846446D01*
X41121847Y-50836218D01*
X41101330Y-50823921D01*
X41082117Y-50809671D01*
X41064393Y-50793607D01*
X41048329Y-50775883D01*
X41034079Y-50756670D01*
X41021782Y-50736153D01*
X41011554Y-50714529D01*
X41003496Y-50692007D01*
X40997684Y-50668803D01*
X40994174Y-50645142D01*
X40993000Y-50621250D01*
X40993000Y-49708750D01*
X40994174Y-49684858D01*
X40997684Y-49661197D01*
X41003496Y-49637993D01*
X41011554Y-49615471D01*
X41021782Y-49593847D01*
X41034079Y-49573330D01*
X41048329Y-49554117D01*
X41064393Y-49536393D01*
X41082117Y-49520329D01*
X41101330Y-49506079D01*
X41121847Y-49493782D01*
X41143471Y-49483554D01*
X41165993Y-49475496D01*
X41189197Y-49469684D01*
X41212858Y-49466174D01*
X41236750Y-49465000D01*
X41724250Y-49465000D01*
X41748142Y-49466174D01*
X41748142Y-49466174D01*
G37*
D11*
X41480500Y-50165000D03*
D10*
G36*
X43623142Y-49466174D02*
X43646803Y-49469684D01*
X43670007Y-49475496D01*
X43692529Y-49483554D01*
X43714153Y-49493782D01*
X43734670Y-49506079D01*
X43753883Y-49520329D01*
X43771607Y-49536393D01*
X43787671Y-49554117D01*
X43801921Y-49573330D01*
X43814218Y-49593847D01*
X43824446Y-49615471D01*
X43832504Y-49637993D01*
X43838316Y-49661197D01*
X43841826Y-49684858D01*
X43843000Y-49708750D01*
X43843000Y-50621250D01*
X43841826Y-50645142D01*
X43838316Y-50668803D01*
X43832504Y-50692007D01*
X43824446Y-50714529D01*
X43814218Y-50736153D01*
X43801921Y-50756670D01*
X43787671Y-50775883D01*
X43771607Y-50793607D01*
X43753883Y-50809671D01*
X43734670Y-50823921D01*
X43714153Y-50836218D01*
X43692529Y-50846446D01*
X43670007Y-50854504D01*
X43646803Y-50860316D01*
X43623142Y-50863826D01*
X43599250Y-50865000D01*
X43111750Y-50865000D01*
X43087858Y-50863826D01*
X43064197Y-50860316D01*
X43040993Y-50854504D01*
X43018471Y-50846446D01*
X42996847Y-50836218D01*
X42976330Y-50823921D01*
X42957117Y-50809671D01*
X42939393Y-50793607D01*
X42923329Y-50775883D01*
X42909079Y-50756670D01*
X42896782Y-50736153D01*
X42886554Y-50714529D01*
X42878496Y-50692007D01*
X42872684Y-50668803D01*
X42869174Y-50645142D01*
X42868000Y-50621250D01*
X42868000Y-49708750D01*
X42869174Y-49684858D01*
X42872684Y-49661197D01*
X42878496Y-49637993D01*
X42886554Y-49615471D01*
X42896782Y-49593847D01*
X42909079Y-49573330D01*
X42923329Y-49554117D01*
X42939393Y-49536393D01*
X42957117Y-49520329D01*
X42976330Y-49506079D01*
X42996847Y-49493782D01*
X43018471Y-49483554D01*
X43040993Y-49475496D01*
X43064197Y-49469684D01*
X43087858Y-49466174D01*
X43111750Y-49465000D01*
X43599250Y-49465000D01*
X43623142Y-49466174D01*
X43623142Y-49466174D01*
G37*
D11*
X43355500Y-50165000D03*
G04 #@! TD*
D10*
G04 #@! TO.C,R13*
G36*
X59281142Y-10260174D02*
X59304803Y-10263684D01*
X59328007Y-10269496D01*
X59350529Y-10277554D01*
X59372153Y-10287782D01*
X59392670Y-10300079D01*
X59411883Y-10314329D01*
X59429607Y-10330393D01*
X59445671Y-10348117D01*
X59459921Y-10367330D01*
X59472218Y-10387847D01*
X59482446Y-10409471D01*
X59490504Y-10431993D01*
X59496316Y-10455197D01*
X59499826Y-10478858D01*
X59501000Y-10502750D01*
X59501000Y-10990250D01*
X59499826Y-11014142D01*
X59496316Y-11037803D01*
X59490504Y-11061007D01*
X59482446Y-11083529D01*
X59472218Y-11105153D01*
X59459921Y-11125670D01*
X59445671Y-11144883D01*
X59429607Y-11162607D01*
X59411883Y-11178671D01*
X59392670Y-11192921D01*
X59372153Y-11205218D01*
X59350529Y-11215446D01*
X59328007Y-11223504D01*
X59304803Y-11229316D01*
X59281142Y-11232826D01*
X59257250Y-11234000D01*
X58344750Y-11234000D01*
X58320858Y-11232826D01*
X58297197Y-11229316D01*
X58273993Y-11223504D01*
X58251471Y-11215446D01*
X58229847Y-11205218D01*
X58209330Y-11192921D01*
X58190117Y-11178671D01*
X58172393Y-11162607D01*
X58156329Y-11144883D01*
X58142079Y-11125670D01*
X58129782Y-11105153D01*
X58119554Y-11083529D01*
X58111496Y-11061007D01*
X58105684Y-11037803D01*
X58102174Y-11014142D01*
X58101000Y-10990250D01*
X58101000Y-10502750D01*
X58102174Y-10478858D01*
X58105684Y-10455197D01*
X58111496Y-10431993D01*
X58119554Y-10409471D01*
X58129782Y-10387847D01*
X58142079Y-10367330D01*
X58156329Y-10348117D01*
X58172393Y-10330393D01*
X58190117Y-10314329D01*
X58209330Y-10300079D01*
X58229847Y-10287782D01*
X58251471Y-10277554D01*
X58273993Y-10269496D01*
X58297197Y-10263684D01*
X58320858Y-10260174D01*
X58344750Y-10259000D01*
X59257250Y-10259000D01*
X59281142Y-10260174D01*
X59281142Y-10260174D01*
G37*
D11*
X58801000Y-10746500D03*
D10*
G36*
X59281142Y-12135174D02*
X59304803Y-12138684D01*
X59328007Y-12144496D01*
X59350529Y-12152554D01*
X59372153Y-12162782D01*
X59392670Y-12175079D01*
X59411883Y-12189329D01*
X59429607Y-12205393D01*
X59445671Y-12223117D01*
X59459921Y-12242330D01*
X59472218Y-12262847D01*
X59482446Y-12284471D01*
X59490504Y-12306993D01*
X59496316Y-12330197D01*
X59499826Y-12353858D01*
X59501000Y-12377750D01*
X59501000Y-12865250D01*
X59499826Y-12889142D01*
X59496316Y-12912803D01*
X59490504Y-12936007D01*
X59482446Y-12958529D01*
X59472218Y-12980153D01*
X59459921Y-13000670D01*
X59445671Y-13019883D01*
X59429607Y-13037607D01*
X59411883Y-13053671D01*
X59392670Y-13067921D01*
X59372153Y-13080218D01*
X59350529Y-13090446D01*
X59328007Y-13098504D01*
X59304803Y-13104316D01*
X59281142Y-13107826D01*
X59257250Y-13109000D01*
X58344750Y-13109000D01*
X58320858Y-13107826D01*
X58297197Y-13104316D01*
X58273993Y-13098504D01*
X58251471Y-13090446D01*
X58229847Y-13080218D01*
X58209330Y-13067921D01*
X58190117Y-13053671D01*
X58172393Y-13037607D01*
X58156329Y-13019883D01*
X58142079Y-13000670D01*
X58129782Y-12980153D01*
X58119554Y-12958529D01*
X58111496Y-12936007D01*
X58105684Y-12912803D01*
X58102174Y-12889142D01*
X58101000Y-12865250D01*
X58101000Y-12377750D01*
X58102174Y-12353858D01*
X58105684Y-12330197D01*
X58111496Y-12306993D01*
X58119554Y-12284471D01*
X58129782Y-12262847D01*
X58142079Y-12242330D01*
X58156329Y-12223117D01*
X58172393Y-12205393D01*
X58190117Y-12189329D01*
X58209330Y-12175079D01*
X58229847Y-12162782D01*
X58251471Y-12152554D01*
X58273993Y-12144496D01*
X58297197Y-12138684D01*
X58320858Y-12135174D01*
X58344750Y-12134000D01*
X59257250Y-12134000D01*
X59281142Y-12135174D01*
X59281142Y-12135174D01*
G37*
D11*
X58801000Y-12621500D03*
G04 #@! TD*
D10*
G04 #@! TO.C,R1*
G36*
X67790142Y-36343674D02*
X67813803Y-36347184D01*
X67837007Y-36352996D01*
X67859529Y-36361054D01*
X67881153Y-36371282D01*
X67901670Y-36383579D01*
X67920883Y-36397829D01*
X67938607Y-36413893D01*
X67954671Y-36431617D01*
X67968921Y-36450830D01*
X67981218Y-36471347D01*
X67991446Y-36492971D01*
X67999504Y-36515493D01*
X68005316Y-36538697D01*
X68008826Y-36562358D01*
X68010000Y-36586250D01*
X68010000Y-37073750D01*
X68008826Y-37097642D01*
X68005316Y-37121303D01*
X67999504Y-37144507D01*
X67991446Y-37167029D01*
X67981218Y-37188653D01*
X67968921Y-37209170D01*
X67954671Y-37228383D01*
X67938607Y-37246107D01*
X67920883Y-37262171D01*
X67901670Y-37276421D01*
X67881153Y-37288718D01*
X67859529Y-37298946D01*
X67837007Y-37307004D01*
X67813803Y-37312816D01*
X67790142Y-37316326D01*
X67766250Y-37317500D01*
X66853750Y-37317500D01*
X66829858Y-37316326D01*
X66806197Y-37312816D01*
X66782993Y-37307004D01*
X66760471Y-37298946D01*
X66738847Y-37288718D01*
X66718330Y-37276421D01*
X66699117Y-37262171D01*
X66681393Y-37246107D01*
X66665329Y-37228383D01*
X66651079Y-37209170D01*
X66638782Y-37188653D01*
X66628554Y-37167029D01*
X66620496Y-37144507D01*
X66614684Y-37121303D01*
X66611174Y-37097642D01*
X66610000Y-37073750D01*
X66610000Y-36586250D01*
X66611174Y-36562358D01*
X66614684Y-36538697D01*
X66620496Y-36515493D01*
X66628554Y-36492971D01*
X66638782Y-36471347D01*
X66651079Y-36450830D01*
X66665329Y-36431617D01*
X66681393Y-36413893D01*
X66699117Y-36397829D01*
X66718330Y-36383579D01*
X66738847Y-36371282D01*
X66760471Y-36361054D01*
X66782993Y-36352996D01*
X66806197Y-36347184D01*
X66829858Y-36343674D01*
X66853750Y-36342500D01*
X67766250Y-36342500D01*
X67790142Y-36343674D01*
X67790142Y-36343674D01*
G37*
D11*
X67310000Y-36830000D03*
D10*
G36*
X67790142Y-34468674D02*
X67813803Y-34472184D01*
X67837007Y-34477996D01*
X67859529Y-34486054D01*
X67881153Y-34496282D01*
X67901670Y-34508579D01*
X67920883Y-34522829D01*
X67938607Y-34538893D01*
X67954671Y-34556617D01*
X67968921Y-34575830D01*
X67981218Y-34596347D01*
X67991446Y-34617971D01*
X67999504Y-34640493D01*
X68005316Y-34663697D01*
X68008826Y-34687358D01*
X68010000Y-34711250D01*
X68010000Y-35198750D01*
X68008826Y-35222642D01*
X68005316Y-35246303D01*
X67999504Y-35269507D01*
X67991446Y-35292029D01*
X67981218Y-35313653D01*
X67968921Y-35334170D01*
X67954671Y-35353383D01*
X67938607Y-35371107D01*
X67920883Y-35387171D01*
X67901670Y-35401421D01*
X67881153Y-35413718D01*
X67859529Y-35423946D01*
X67837007Y-35432004D01*
X67813803Y-35437816D01*
X67790142Y-35441326D01*
X67766250Y-35442500D01*
X66853750Y-35442500D01*
X66829858Y-35441326D01*
X66806197Y-35437816D01*
X66782993Y-35432004D01*
X66760471Y-35423946D01*
X66738847Y-35413718D01*
X66718330Y-35401421D01*
X66699117Y-35387171D01*
X66681393Y-35371107D01*
X66665329Y-35353383D01*
X66651079Y-35334170D01*
X66638782Y-35313653D01*
X66628554Y-35292029D01*
X66620496Y-35269507D01*
X66614684Y-35246303D01*
X66611174Y-35222642D01*
X66610000Y-35198750D01*
X66610000Y-34711250D01*
X66611174Y-34687358D01*
X66614684Y-34663697D01*
X66620496Y-34640493D01*
X66628554Y-34617971D01*
X66638782Y-34596347D01*
X66651079Y-34575830D01*
X66665329Y-34556617D01*
X66681393Y-34538893D01*
X66699117Y-34522829D01*
X66718330Y-34508579D01*
X66738847Y-34496282D01*
X66760471Y-34486054D01*
X66782993Y-34477996D01*
X66806197Y-34472184D01*
X66829858Y-34468674D01*
X66853750Y-34467500D01*
X67766250Y-34467500D01*
X67790142Y-34468674D01*
X67790142Y-34468674D01*
G37*
D11*
X67310000Y-34955000D03*
G04 #@! TD*
D10*
G04 #@! TO.C,R9*
G36*
X64234142Y-37281174D02*
X64257803Y-37284684D01*
X64281007Y-37290496D01*
X64303529Y-37298554D01*
X64325153Y-37308782D01*
X64345670Y-37321079D01*
X64364883Y-37335329D01*
X64382607Y-37351393D01*
X64398671Y-37369117D01*
X64412921Y-37388330D01*
X64425218Y-37408847D01*
X64435446Y-37430471D01*
X64443504Y-37452993D01*
X64449316Y-37476197D01*
X64452826Y-37499858D01*
X64454000Y-37523750D01*
X64454000Y-38011250D01*
X64452826Y-38035142D01*
X64449316Y-38058803D01*
X64443504Y-38082007D01*
X64435446Y-38104529D01*
X64425218Y-38126153D01*
X64412921Y-38146670D01*
X64398671Y-38165883D01*
X64382607Y-38183607D01*
X64364883Y-38199671D01*
X64345670Y-38213921D01*
X64325153Y-38226218D01*
X64303529Y-38236446D01*
X64281007Y-38244504D01*
X64257803Y-38250316D01*
X64234142Y-38253826D01*
X64210250Y-38255000D01*
X63297750Y-38255000D01*
X63273858Y-38253826D01*
X63250197Y-38250316D01*
X63226993Y-38244504D01*
X63204471Y-38236446D01*
X63182847Y-38226218D01*
X63162330Y-38213921D01*
X63143117Y-38199671D01*
X63125393Y-38183607D01*
X63109329Y-38165883D01*
X63095079Y-38146670D01*
X63082782Y-38126153D01*
X63072554Y-38104529D01*
X63064496Y-38082007D01*
X63058684Y-38058803D01*
X63055174Y-38035142D01*
X63054000Y-38011250D01*
X63054000Y-37523750D01*
X63055174Y-37499858D01*
X63058684Y-37476197D01*
X63064496Y-37452993D01*
X63072554Y-37430471D01*
X63082782Y-37408847D01*
X63095079Y-37388330D01*
X63109329Y-37369117D01*
X63125393Y-37351393D01*
X63143117Y-37335329D01*
X63162330Y-37321079D01*
X63182847Y-37308782D01*
X63204471Y-37298554D01*
X63226993Y-37290496D01*
X63250197Y-37284684D01*
X63273858Y-37281174D01*
X63297750Y-37280000D01*
X64210250Y-37280000D01*
X64234142Y-37281174D01*
X64234142Y-37281174D01*
G37*
D11*
X63754000Y-37767500D03*
D10*
G36*
X64234142Y-35406174D02*
X64257803Y-35409684D01*
X64281007Y-35415496D01*
X64303529Y-35423554D01*
X64325153Y-35433782D01*
X64345670Y-35446079D01*
X64364883Y-35460329D01*
X64382607Y-35476393D01*
X64398671Y-35494117D01*
X64412921Y-35513330D01*
X64425218Y-35533847D01*
X64435446Y-35555471D01*
X64443504Y-35577993D01*
X64449316Y-35601197D01*
X64452826Y-35624858D01*
X64454000Y-35648750D01*
X64454000Y-36136250D01*
X64452826Y-36160142D01*
X64449316Y-36183803D01*
X64443504Y-36207007D01*
X64435446Y-36229529D01*
X64425218Y-36251153D01*
X64412921Y-36271670D01*
X64398671Y-36290883D01*
X64382607Y-36308607D01*
X64364883Y-36324671D01*
X64345670Y-36338921D01*
X64325153Y-36351218D01*
X64303529Y-36361446D01*
X64281007Y-36369504D01*
X64257803Y-36375316D01*
X64234142Y-36378826D01*
X64210250Y-36380000D01*
X63297750Y-36380000D01*
X63273858Y-36378826D01*
X63250197Y-36375316D01*
X63226993Y-36369504D01*
X63204471Y-36361446D01*
X63182847Y-36351218D01*
X63162330Y-36338921D01*
X63143117Y-36324671D01*
X63125393Y-36308607D01*
X63109329Y-36290883D01*
X63095079Y-36271670D01*
X63082782Y-36251153D01*
X63072554Y-36229529D01*
X63064496Y-36207007D01*
X63058684Y-36183803D01*
X63055174Y-36160142D01*
X63054000Y-36136250D01*
X63054000Y-35648750D01*
X63055174Y-35624858D01*
X63058684Y-35601197D01*
X63064496Y-35577993D01*
X63072554Y-35555471D01*
X63082782Y-35533847D01*
X63095079Y-35513330D01*
X63109329Y-35494117D01*
X63125393Y-35476393D01*
X63143117Y-35460329D01*
X63162330Y-35446079D01*
X63182847Y-35433782D01*
X63204471Y-35423554D01*
X63226993Y-35415496D01*
X63250197Y-35409684D01*
X63273858Y-35406174D01*
X63297750Y-35405000D01*
X64210250Y-35405000D01*
X64234142Y-35406174D01*
X64234142Y-35406174D01*
G37*
D11*
X63754000Y-35892500D03*
G04 #@! TD*
D10*
G04 #@! TO.C,C11*
G36*
X22380305Y-16954204D02*
X22404573Y-16957804D01*
X22428372Y-16963765D01*
X22451471Y-16972030D01*
X22473650Y-16982520D01*
X22494693Y-16995132D01*
X22514399Y-17009747D01*
X22532577Y-17026223D01*
X22549053Y-17044401D01*
X22563668Y-17064107D01*
X22576280Y-17085150D01*
X22586770Y-17107329D01*
X22595035Y-17130428D01*
X22600996Y-17154227D01*
X22604596Y-17178495D01*
X22605800Y-17202999D01*
X22605800Y-18103001D01*
X22604596Y-18127505D01*
X22600996Y-18151773D01*
X22595035Y-18175572D01*
X22586770Y-18198671D01*
X22576280Y-18220850D01*
X22563668Y-18241893D01*
X22549053Y-18261599D01*
X22532577Y-18279777D01*
X22514399Y-18296253D01*
X22494693Y-18310868D01*
X22473650Y-18323480D01*
X22451471Y-18333970D01*
X22428372Y-18342235D01*
X22404573Y-18348196D01*
X22380305Y-18351796D01*
X22355801Y-18353000D01*
X21705799Y-18353000D01*
X21681295Y-18351796D01*
X21657027Y-18348196D01*
X21633228Y-18342235D01*
X21610129Y-18333970D01*
X21587950Y-18323480D01*
X21566907Y-18310868D01*
X21547201Y-18296253D01*
X21529023Y-18279777D01*
X21512547Y-18261599D01*
X21497932Y-18241893D01*
X21485320Y-18220850D01*
X21474830Y-18198671D01*
X21466565Y-18175572D01*
X21460604Y-18151773D01*
X21457004Y-18127505D01*
X21455800Y-18103001D01*
X21455800Y-17202999D01*
X21457004Y-17178495D01*
X21460604Y-17154227D01*
X21466565Y-17130428D01*
X21474830Y-17107329D01*
X21485320Y-17085150D01*
X21497932Y-17064107D01*
X21512547Y-17044401D01*
X21529023Y-17026223D01*
X21547201Y-17009747D01*
X21566907Y-16995132D01*
X21587950Y-16982520D01*
X21610129Y-16972030D01*
X21633228Y-16963765D01*
X21657027Y-16957804D01*
X21681295Y-16954204D01*
X21705799Y-16953000D01*
X22355801Y-16953000D01*
X22380305Y-16954204D01*
X22380305Y-16954204D01*
G37*
D13*
X22030800Y-17653000D03*
D10*
G36*
X20330305Y-16954204D02*
X20354573Y-16957804D01*
X20378372Y-16963765D01*
X20401471Y-16972030D01*
X20423650Y-16982520D01*
X20444693Y-16995132D01*
X20464399Y-17009747D01*
X20482577Y-17026223D01*
X20499053Y-17044401D01*
X20513668Y-17064107D01*
X20526280Y-17085150D01*
X20536770Y-17107329D01*
X20545035Y-17130428D01*
X20550996Y-17154227D01*
X20554596Y-17178495D01*
X20555800Y-17202999D01*
X20555800Y-18103001D01*
X20554596Y-18127505D01*
X20550996Y-18151773D01*
X20545035Y-18175572D01*
X20536770Y-18198671D01*
X20526280Y-18220850D01*
X20513668Y-18241893D01*
X20499053Y-18261599D01*
X20482577Y-18279777D01*
X20464399Y-18296253D01*
X20444693Y-18310868D01*
X20423650Y-18323480D01*
X20401471Y-18333970D01*
X20378372Y-18342235D01*
X20354573Y-18348196D01*
X20330305Y-18351796D01*
X20305801Y-18353000D01*
X19655799Y-18353000D01*
X19631295Y-18351796D01*
X19607027Y-18348196D01*
X19583228Y-18342235D01*
X19560129Y-18333970D01*
X19537950Y-18323480D01*
X19516907Y-18310868D01*
X19497201Y-18296253D01*
X19479023Y-18279777D01*
X19462547Y-18261599D01*
X19447932Y-18241893D01*
X19435320Y-18220850D01*
X19424830Y-18198671D01*
X19416565Y-18175572D01*
X19410604Y-18151773D01*
X19407004Y-18127505D01*
X19405800Y-18103001D01*
X19405800Y-17202999D01*
X19407004Y-17178495D01*
X19410604Y-17154227D01*
X19416565Y-17130428D01*
X19424830Y-17107329D01*
X19435320Y-17085150D01*
X19447932Y-17064107D01*
X19462547Y-17044401D01*
X19479023Y-17026223D01*
X19497201Y-17009747D01*
X19516907Y-16995132D01*
X19537950Y-16982520D01*
X19560129Y-16972030D01*
X19583228Y-16963765D01*
X19607027Y-16957804D01*
X19631295Y-16954204D01*
X19655799Y-16953000D01*
X20305801Y-16953000D01*
X20330305Y-16954204D01*
X20330305Y-16954204D01*
G37*
D13*
X19980800Y-17653000D03*
G04 #@! TD*
D10*
G04 #@! TO.C,C28*
G36*
X18570305Y-27368204D02*
X18594573Y-27371804D01*
X18618372Y-27377765D01*
X18641471Y-27386030D01*
X18663650Y-27396520D01*
X18684693Y-27409132D01*
X18704399Y-27423747D01*
X18722577Y-27440223D01*
X18739053Y-27458401D01*
X18753668Y-27478107D01*
X18766280Y-27499150D01*
X18776770Y-27521329D01*
X18785035Y-27544428D01*
X18790996Y-27568227D01*
X18794596Y-27592495D01*
X18795800Y-27616999D01*
X18795800Y-28517001D01*
X18794596Y-28541505D01*
X18790996Y-28565773D01*
X18785035Y-28589572D01*
X18776770Y-28612671D01*
X18766280Y-28634850D01*
X18753668Y-28655893D01*
X18739053Y-28675599D01*
X18722577Y-28693777D01*
X18704399Y-28710253D01*
X18684693Y-28724868D01*
X18663650Y-28737480D01*
X18641471Y-28747970D01*
X18618372Y-28756235D01*
X18594573Y-28762196D01*
X18570305Y-28765796D01*
X18545801Y-28767000D01*
X17895799Y-28767000D01*
X17871295Y-28765796D01*
X17847027Y-28762196D01*
X17823228Y-28756235D01*
X17800129Y-28747970D01*
X17777950Y-28737480D01*
X17756907Y-28724868D01*
X17737201Y-28710253D01*
X17719023Y-28693777D01*
X17702547Y-28675599D01*
X17687932Y-28655893D01*
X17675320Y-28634850D01*
X17664830Y-28612671D01*
X17656565Y-28589572D01*
X17650604Y-28565773D01*
X17647004Y-28541505D01*
X17645800Y-28517001D01*
X17645800Y-27616999D01*
X17647004Y-27592495D01*
X17650604Y-27568227D01*
X17656565Y-27544428D01*
X17664830Y-27521329D01*
X17675320Y-27499150D01*
X17687932Y-27478107D01*
X17702547Y-27458401D01*
X17719023Y-27440223D01*
X17737201Y-27423747D01*
X17756907Y-27409132D01*
X17777950Y-27396520D01*
X17800129Y-27386030D01*
X17823228Y-27377765D01*
X17847027Y-27371804D01*
X17871295Y-27368204D01*
X17895799Y-27367000D01*
X18545801Y-27367000D01*
X18570305Y-27368204D01*
X18570305Y-27368204D01*
G37*
D13*
X18220800Y-28067000D03*
D10*
G36*
X16520305Y-27368204D02*
X16544573Y-27371804D01*
X16568372Y-27377765D01*
X16591471Y-27386030D01*
X16613650Y-27396520D01*
X16634693Y-27409132D01*
X16654399Y-27423747D01*
X16672577Y-27440223D01*
X16689053Y-27458401D01*
X16703668Y-27478107D01*
X16716280Y-27499150D01*
X16726770Y-27521329D01*
X16735035Y-27544428D01*
X16740996Y-27568227D01*
X16744596Y-27592495D01*
X16745800Y-27616999D01*
X16745800Y-28517001D01*
X16744596Y-28541505D01*
X16740996Y-28565773D01*
X16735035Y-28589572D01*
X16726770Y-28612671D01*
X16716280Y-28634850D01*
X16703668Y-28655893D01*
X16689053Y-28675599D01*
X16672577Y-28693777D01*
X16654399Y-28710253D01*
X16634693Y-28724868D01*
X16613650Y-28737480D01*
X16591471Y-28747970D01*
X16568372Y-28756235D01*
X16544573Y-28762196D01*
X16520305Y-28765796D01*
X16495801Y-28767000D01*
X15845799Y-28767000D01*
X15821295Y-28765796D01*
X15797027Y-28762196D01*
X15773228Y-28756235D01*
X15750129Y-28747970D01*
X15727950Y-28737480D01*
X15706907Y-28724868D01*
X15687201Y-28710253D01*
X15669023Y-28693777D01*
X15652547Y-28675599D01*
X15637932Y-28655893D01*
X15625320Y-28634850D01*
X15614830Y-28612671D01*
X15606565Y-28589572D01*
X15600604Y-28565773D01*
X15597004Y-28541505D01*
X15595800Y-28517001D01*
X15595800Y-27616999D01*
X15597004Y-27592495D01*
X15600604Y-27568227D01*
X15606565Y-27544428D01*
X15614830Y-27521329D01*
X15625320Y-27499150D01*
X15637932Y-27478107D01*
X15652547Y-27458401D01*
X15669023Y-27440223D01*
X15687201Y-27423747D01*
X15706907Y-27409132D01*
X15727950Y-27396520D01*
X15750129Y-27386030D01*
X15773228Y-27377765D01*
X15797027Y-27371804D01*
X15821295Y-27368204D01*
X15845799Y-27367000D01*
X16495801Y-27367000D01*
X16520305Y-27368204D01*
X16520305Y-27368204D01*
G37*
D13*
X16170800Y-28067000D03*
G04 #@! TD*
D10*
G04 #@! TO.C,C5*
G36*
X52428505Y-8445204D02*
X52452773Y-8448804D01*
X52476572Y-8454765D01*
X52499671Y-8463030D01*
X52521850Y-8473520D01*
X52542893Y-8486132D01*
X52562599Y-8500747D01*
X52580777Y-8517223D01*
X52597253Y-8535401D01*
X52611868Y-8555107D01*
X52624480Y-8576150D01*
X52634970Y-8598329D01*
X52643235Y-8621428D01*
X52649196Y-8645227D01*
X52652796Y-8669495D01*
X52654000Y-8693999D01*
X52654000Y-9594001D01*
X52652796Y-9618505D01*
X52649196Y-9642773D01*
X52643235Y-9666572D01*
X52634970Y-9689671D01*
X52624480Y-9711850D01*
X52611868Y-9732893D01*
X52597253Y-9752599D01*
X52580777Y-9770777D01*
X52562599Y-9787253D01*
X52542893Y-9801868D01*
X52521850Y-9814480D01*
X52499671Y-9824970D01*
X52476572Y-9833235D01*
X52452773Y-9839196D01*
X52428505Y-9842796D01*
X52404001Y-9844000D01*
X51753999Y-9844000D01*
X51729495Y-9842796D01*
X51705227Y-9839196D01*
X51681428Y-9833235D01*
X51658329Y-9824970D01*
X51636150Y-9814480D01*
X51615107Y-9801868D01*
X51595401Y-9787253D01*
X51577223Y-9770777D01*
X51560747Y-9752599D01*
X51546132Y-9732893D01*
X51533520Y-9711850D01*
X51523030Y-9689671D01*
X51514765Y-9666572D01*
X51508804Y-9642773D01*
X51505204Y-9618505D01*
X51504000Y-9594001D01*
X51504000Y-8693999D01*
X51505204Y-8669495D01*
X51508804Y-8645227D01*
X51514765Y-8621428D01*
X51523030Y-8598329D01*
X51533520Y-8576150D01*
X51546132Y-8555107D01*
X51560747Y-8535401D01*
X51577223Y-8517223D01*
X51595401Y-8500747D01*
X51615107Y-8486132D01*
X51636150Y-8473520D01*
X51658329Y-8463030D01*
X51681428Y-8454765D01*
X51705227Y-8448804D01*
X51729495Y-8445204D01*
X51753999Y-8444000D01*
X52404001Y-8444000D01*
X52428505Y-8445204D01*
X52428505Y-8445204D01*
G37*
D13*
X52079000Y-9144000D03*
D10*
G36*
X50378505Y-8445204D02*
X50402773Y-8448804D01*
X50426572Y-8454765D01*
X50449671Y-8463030D01*
X50471850Y-8473520D01*
X50492893Y-8486132D01*
X50512599Y-8500747D01*
X50530777Y-8517223D01*
X50547253Y-8535401D01*
X50561868Y-8555107D01*
X50574480Y-8576150D01*
X50584970Y-8598329D01*
X50593235Y-8621428D01*
X50599196Y-8645227D01*
X50602796Y-8669495D01*
X50604000Y-8693999D01*
X50604000Y-9594001D01*
X50602796Y-9618505D01*
X50599196Y-9642773D01*
X50593235Y-9666572D01*
X50584970Y-9689671D01*
X50574480Y-9711850D01*
X50561868Y-9732893D01*
X50547253Y-9752599D01*
X50530777Y-9770777D01*
X50512599Y-9787253D01*
X50492893Y-9801868D01*
X50471850Y-9814480D01*
X50449671Y-9824970D01*
X50426572Y-9833235D01*
X50402773Y-9839196D01*
X50378505Y-9842796D01*
X50354001Y-9844000D01*
X49703999Y-9844000D01*
X49679495Y-9842796D01*
X49655227Y-9839196D01*
X49631428Y-9833235D01*
X49608329Y-9824970D01*
X49586150Y-9814480D01*
X49565107Y-9801868D01*
X49545401Y-9787253D01*
X49527223Y-9770777D01*
X49510747Y-9752599D01*
X49496132Y-9732893D01*
X49483520Y-9711850D01*
X49473030Y-9689671D01*
X49464765Y-9666572D01*
X49458804Y-9642773D01*
X49455204Y-9618505D01*
X49454000Y-9594001D01*
X49454000Y-8693999D01*
X49455204Y-8669495D01*
X49458804Y-8645227D01*
X49464765Y-8621428D01*
X49473030Y-8598329D01*
X49483520Y-8576150D01*
X49496132Y-8555107D01*
X49510747Y-8535401D01*
X49527223Y-8517223D01*
X49545401Y-8500747D01*
X49565107Y-8486132D01*
X49586150Y-8473520D01*
X49608329Y-8463030D01*
X49631428Y-8454765D01*
X49655227Y-8448804D01*
X49679495Y-8445204D01*
X49703999Y-8444000D01*
X50354001Y-8444000D01*
X50378505Y-8445204D01*
X50378505Y-8445204D01*
G37*
D13*
X50029000Y-9144000D03*
G04 #@! TD*
D10*
G04 #@! TO.C,C10*
G36*
X46035105Y-16065204D02*
X46059373Y-16068804D01*
X46083172Y-16074765D01*
X46106271Y-16083030D01*
X46128450Y-16093520D01*
X46149493Y-16106132D01*
X46169199Y-16120747D01*
X46187377Y-16137223D01*
X46203853Y-16155401D01*
X46218468Y-16175107D01*
X46231080Y-16196150D01*
X46241570Y-16218329D01*
X46249835Y-16241428D01*
X46255796Y-16265227D01*
X46259396Y-16289495D01*
X46260600Y-16313999D01*
X46260600Y-17214001D01*
X46259396Y-17238505D01*
X46255796Y-17262773D01*
X46249835Y-17286572D01*
X46241570Y-17309671D01*
X46231080Y-17331850D01*
X46218468Y-17352893D01*
X46203853Y-17372599D01*
X46187377Y-17390777D01*
X46169199Y-17407253D01*
X46149493Y-17421868D01*
X46128450Y-17434480D01*
X46106271Y-17444970D01*
X46083172Y-17453235D01*
X46059373Y-17459196D01*
X46035105Y-17462796D01*
X46010601Y-17464000D01*
X45360599Y-17464000D01*
X45336095Y-17462796D01*
X45311827Y-17459196D01*
X45288028Y-17453235D01*
X45264929Y-17444970D01*
X45242750Y-17434480D01*
X45221707Y-17421868D01*
X45202001Y-17407253D01*
X45183823Y-17390777D01*
X45167347Y-17372599D01*
X45152732Y-17352893D01*
X45140120Y-17331850D01*
X45129630Y-17309671D01*
X45121365Y-17286572D01*
X45115404Y-17262773D01*
X45111804Y-17238505D01*
X45110600Y-17214001D01*
X45110600Y-16313999D01*
X45111804Y-16289495D01*
X45115404Y-16265227D01*
X45121365Y-16241428D01*
X45129630Y-16218329D01*
X45140120Y-16196150D01*
X45152732Y-16175107D01*
X45167347Y-16155401D01*
X45183823Y-16137223D01*
X45202001Y-16120747D01*
X45221707Y-16106132D01*
X45242750Y-16093520D01*
X45264929Y-16083030D01*
X45288028Y-16074765D01*
X45311827Y-16068804D01*
X45336095Y-16065204D01*
X45360599Y-16064000D01*
X46010601Y-16064000D01*
X46035105Y-16065204D01*
X46035105Y-16065204D01*
G37*
D13*
X45685600Y-16764000D03*
D10*
G36*
X48085105Y-16065204D02*
X48109373Y-16068804D01*
X48133172Y-16074765D01*
X48156271Y-16083030D01*
X48178450Y-16093520D01*
X48199493Y-16106132D01*
X48219199Y-16120747D01*
X48237377Y-16137223D01*
X48253853Y-16155401D01*
X48268468Y-16175107D01*
X48281080Y-16196150D01*
X48291570Y-16218329D01*
X48299835Y-16241428D01*
X48305796Y-16265227D01*
X48309396Y-16289495D01*
X48310600Y-16313999D01*
X48310600Y-17214001D01*
X48309396Y-17238505D01*
X48305796Y-17262773D01*
X48299835Y-17286572D01*
X48291570Y-17309671D01*
X48281080Y-17331850D01*
X48268468Y-17352893D01*
X48253853Y-17372599D01*
X48237377Y-17390777D01*
X48219199Y-17407253D01*
X48199493Y-17421868D01*
X48178450Y-17434480D01*
X48156271Y-17444970D01*
X48133172Y-17453235D01*
X48109373Y-17459196D01*
X48085105Y-17462796D01*
X48060601Y-17464000D01*
X47410599Y-17464000D01*
X47386095Y-17462796D01*
X47361827Y-17459196D01*
X47338028Y-17453235D01*
X47314929Y-17444970D01*
X47292750Y-17434480D01*
X47271707Y-17421868D01*
X47252001Y-17407253D01*
X47233823Y-17390777D01*
X47217347Y-17372599D01*
X47202732Y-17352893D01*
X47190120Y-17331850D01*
X47179630Y-17309671D01*
X47171365Y-17286572D01*
X47165404Y-17262773D01*
X47161804Y-17238505D01*
X47160600Y-17214001D01*
X47160600Y-16313999D01*
X47161804Y-16289495D01*
X47165404Y-16265227D01*
X47171365Y-16241428D01*
X47179630Y-16218329D01*
X47190120Y-16196150D01*
X47202732Y-16175107D01*
X47217347Y-16155401D01*
X47233823Y-16137223D01*
X47252001Y-16120747D01*
X47271707Y-16106132D01*
X47292750Y-16093520D01*
X47314929Y-16083030D01*
X47338028Y-16074765D01*
X47361827Y-16068804D01*
X47386095Y-16065204D01*
X47410599Y-16064000D01*
X48060601Y-16064000D01*
X48085105Y-16065204D01*
X48085105Y-16065204D01*
G37*
D13*
X47735600Y-16764000D03*
G04 #@! TD*
D10*
G04 #@! TO.C,C12*
G36*
X48085105Y-14033204D02*
X48109373Y-14036804D01*
X48133172Y-14042765D01*
X48156271Y-14051030D01*
X48178450Y-14061520D01*
X48199493Y-14074132D01*
X48219199Y-14088747D01*
X48237377Y-14105223D01*
X48253853Y-14123401D01*
X48268468Y-14143107D01*
X48281080Y-14164150D01*
X48291570Y-14186329D01*
X48299835Y-14209428D01*
X48305796Y-14233227D01*
X48309396Y-14257495D01*
X48310600Y-14281999D01*
X48310600Y-15182001D01*
X48309396Y-15206505D01*
X48305796Y-15230773D01*
X48299835Y-15254572D01*
X48291570Y-15277671D01*
X48281080Y-15299850D01*
X48268468Y-15320893D01*
X48253853Y-15340599D01*
X48237377Y-15358777D01*
X48219199Y-15375253D01*
X48199493Y-15389868D01*
X48178450Y-15402480D01*
X48156271Y-15412970D01*
X48133172Y-15421235D01*
X48109373Y-15427196D01*
X48085105Y-15430796D01*
X48060601Y-15432000D01*
X47410599Y-15432000D01*
X47386095Y-15430796D01*
X47361827Y-15427196D01*
X47338028Y-15421235D01*
X47314929Y-15412970D01*
X47292750Y-15402480D01*
X47271707Y-15389868D01*
X47252001Y-15375253D01*
X47233823Y-15358777D01*
X47217347Y-15340599D01*
X47202732Y-15320893D01*
X47190120Y-15299850D01*
X47179630Y-15277671D01*
X47171365Y-15254572D01*
X47165404Y-15230773D01*
X47161804Y-15206505D01*
X47160600Y-15182001D01*
X47160600Y-14281999D01*
X47161804Y-14257495D01*
X47165404Y-14233227D01*
X47171365Y-14209428D01*
X47179630Y-14186329D01*
X47190120Y-14164150D01*
X47202732Y-14143107D01*
X47217347Y-14123401D01*
X47233823Y-14105223D01*
X47252001Y-14088747D01*
X47271707Y-14074132D01*
X47292750Y-14061520D01*
X47314929Y-14051030D01*
X47338028Y-14042765D01*
X47361827Y-14036804D01*
X47386095Y-14033204D01*
X47410599Y-14032000D01*
X48060601Y-14032000D01*
X48085105Y-14033204D01*
X48085105Y-14033204D01*
G37*
D13*
X47735600Y-14732000D03*
D10*
G36*
X46035105Y-14033204D02*
X46059373Y-14036804D01*
X46083172Y-14042765D01*
X46106271Y-14051030D01*
X46128450Y-14061520D01*
X46149493Y-14074132D01*
X46169199Y-14088747D01*
X46187377Y-14105223D01*
X46203853Y-14123401D01*
X46218468Y-14143107D01*
X46231080Y-14164150D01*
X46241570Y-14186329D01*
X46249835Y-14209428D01*
X46255796Y-14233227D01*
X46259396Y-14257495D01*
X46260600Y-14281999D01*
X46260600Y-15182001D01*
X46259396Y-15206505D01*
X46255796Y-15230773D01*
X46249835Y-15254572D01*
X46241570Y-15277671D01*
X46231080Y-15299850D01*
X46218468Y-15320893D01*
X46203853Y-15340599D01*
X46187377Y-15358777D01*
X46169199Y-15375253D01*
X46149493Y-15389868D01*
X46128450Y-15402480D01*
X46106271Y-15412970D01*
X46083172Y-15421235D01*
X46059373Y-15427196D01*
X46035105Y-15430796D01*
X46010601Y-15432000D01*
X45360599Y-15432000D01*
X45336095Y-15430796D01*
X45311827Y-15427196D01*
X45288028Y-15421235D01*
X45264929Y-15412970D01*
X45242750Y-15402480D01*
X45221707Y-15389868D01*
X45202001Y-15375253D01*
X45183823Y-15358777D01*
X45167347Y-15340599D01*
X45152732Y-15320893D01*
X45140120Y-15299850D01*
X45129630Y-15277671D01*
X45121365Y-15254572D01*
X45115404Y-15230773D01*
X45111804Y-15206505D01*
X45110600Y-15182001D01*
X45110600Y-14281999D01*
X45111804Y-14257495D01*
X45115404Y-14233227D01*
X45121365Y-14209428D01*
X45129630Y-14186329D01*
X45140120Y-14164150D01*
X45152732Y-14143107D01*
X45167347Y-14123401D01*
X45183823Y-14105223D01*
X45202001Y-14088747D01*
X45221707Y-14074132D01*
X45242750Y-14061520D01*
X45264929Y-14051030D01*
X45288028Y-14042765D01*
X45311827Y-14036804D01*
X45336095Y-14033204D01*
X45360599Y-14032000D01*
X46010601Y-14032000D01*
X46035105Y-14033204D01*
X46035105Y-14033204D01*
G37*
D13*
X45685600Y-14732000D03*
G04 #@! TD*
D10*
G04 #@! TO.C,C16*
G36*
X14894705Y-8229304D02*
X14918973Y-8232904D01*
X14942772Y-8238865D01*
X14965871Y-8247130D01*
X14988050Y-8257620D01*
X15009093Y-8270232D01*
X15028799Y-8284847D01*
X15046977Y-8301323D01*
X15063453Y-8319501D01*
X15078068Y-8339207D01*
X15090680Y-8360250D01*
X15101170Y-8382429D01*
X15109435Y-8405528D01*
X15115396Y-8429327D01*
X15118996Y-8453595D01*
X15120200Y-8478099D01*
X15120200Y-9378101D01*
X15118996Y-9402605D01*
X15115396Y-9426873D01*
X15109435Y-9450672D01*
X15101170Y-9473771D01*
X15090680Y-9495950D01*
X15078068Y-9516993D01*
X15063453Y-9536699D01*
X15046977Y-9554877D01*
X15028799Y-9571353D01*
X15009093Y-9585968D01*
X14988050Y-9598580D01*
X14965871Y-9609070D01*
X14942772Y-9617335D01*
X14918973Y-9623296D01*
X14894705Y-9626896D01*
X14870201Y-9628100D01*
X14220199Y-9628100D01*
X14195695Y-9626896D01*
X14171427Y-9623296D01*
X14147628Y-9617335D01*
X14124529Y-9609070D01*
X14102350Y-9598580D01*
X14081307Y-9585968D01*
X14061601Y-9571353D01*
X14043423Y-9554877D01*
X14026947Y-9536699D01*
X14012332Y-9516993D01*
X13999720Y-9495950D01*
X13989230Y-9473771D01*
X13980965Y-9450672D01*
X13975004Y-9426873D01*
X13971404Y-9402605D01*
X13970200Y-9378101D01*
X13970200Y-8478099D01*
X13971404Y-8453595D01*
X13975004Y-8429327D01*
X13980965Y-8405528D01*
X13989230Y-8382429D01*
X13999720Y-8360250D01*
X14012332Y-8339207D01*
X14026947Y-8319501D01*
X14043423Y-8301323D01*
X14061601Y-8284847D01*
X14081307Y-8270232D01*
X14102350Y-8257620D01*
X14124529Y-8247130D01*
X14147628Y-8238865D01*
X14171427Y-8232904D01*
X14195695Y-8229304D01*
X14220199Y-8228100D01*
X14870201Y-8228100D01*
X14894705Y-8229304D01*
X14894705Y-8229304D01*
G37*
D13*
X14545200Y-8928100D03*
D10*
G36*
X16944705Y-8229304D02*
X16968973Y-8232904D01*
X16992772Y-8238865D01*
X17015871Y-8247130D01*
X17038050Y-8257620D01*
X17059093Y-8270232D01*
X17078799Y-8284847D01*
X17096977Y-8301323D01*
X17113453Y-8319501D01*
X17128068Y-8339207D01*
X17140680Y-8360250D01*
X17151170Y-8382429D01*
X17159435Y-8405528D01*
X17165396Y-8429327D01*
X17168996Y-8453595D01*
X17170200Y-8478099D01*
X17170200Y-9378101D01*
X17168996Y-9402605D01*
X17165396Y-9426873D01*
X17159435Y-9450672D01*
X17151170Y-9473771D01*
X17140680Y-9495950D01*
X17128068Y-9516993D01*
X17113453Y-9536699D01*
X17096977Y-9554877D01*
X17078799Y-9571353D01*
X17059093Y-9585968D01*
X17038050Y-9598580D01*
X17015871Y-9609070D01*
X16992772Y-9617335D01*
X16968973Y-9623296D01*
X16944705Y-9626896D01*
X16920201Y-9628100D01*
X16270199Y-9628100D01*
X16245695Y-9626896D01*
X16221427Y-9623296D01*
X16197628Y-9617335D01*
X16174529Y-9609070D01*
X16152350Y-9598580D01*
X16131307Y-9585968D01*
X16111601Y-9571353D01*
X16093423Y-9554877D01*
X16076947Y-9536699D01*
X16062332Y-9516993D01*
X16049720Y-9495950D01*
X16039230Y-9473771D01*
X16030965Y-9450672D01*
X16025004Y-9426873D01*
X16021404Y-9402605D01*
X16020200Y-9378101D01*
X16020200Y-8478099D01*
X16021404Y-8453595D01*
X16025004Y-8429327D01*
X16030965Y-8405528D01*
X16039230Y-8382429D01*
X16049720Y-8360250D01*
X16062332Y-8339207D01*
X16076947Y-8319501D01*
X16093423Y-8301323D01*
X16111601Y-8284847D01*
X16131307Y-8270232D01*
X16152350Y-8257620D01*
X16174529Y-8247130D01*
X16197628Y-8238865D01*
X16221427Y-8232904D01*
X16245695Y-8229304D01*
X16270199Y-8228100D01*
X16920201Y-8228100D01*
X16944705Y-8229304D01*
X16944705Y-8229304D01*
G37*
D13*
X16595200Y-8928100D03*
G04 #@! TD*
D10*
G04 #@! TO.C,C24*
G36*
X20330305Y-18986204D02*
X20354573Y-18989804D01*
X20378372Y-18995765D01*
X20401471Y-19004030D01*
X20423650Y-19014520D01*
X20444693Y-19027132D01*
X20464399Y-19041747D01*
X20482577Y-19058223D01*
X20499053Y-19076401D01*
X20513668Y-19096107D01*
X20526280Y-19117150D01*
X20536770Y-19139329D01*
X20545035Y-19162428D01*
X20550996Y-19186227D01*
X20554596Y-19210495D01*
X20555800Y-19234999D01*
X20555800Y-20135001D01*
X20554596Y-20159505D01*
X20550996Y-20183773D01*
X20545035Y-20207572D01*
X20536770Y-20230671D01*
X20526280Y-20252850D01*
X20513668Y-20273893D01*
X20499053Y-20293599D01*
X20482577Y-20311777D01*
X20464399Y-20328253D01*
X20444693Y-20342868D01*
X20423650Y-20355480D01*
X20401471Y-20365970D01*
X20378372Y-20374235D01*
X20354573Y-20380196D01*
X20330305Y-20383796D01*
X20305801Y-20385000D01*
X19655799Y-20385000D01*
X19631295Y-20383796D01*
X19607027Y-20380196D01*
X19583228Y-20374235D01*
X19560129Y-20365970D01*
X19537950Y-20355480D01*
X19516907Y-20342868D01*
X19497201Y-20328253D01*
X19479023Y-20311777D01*
X19462547Y-20293599D01*
X19447932Y-20273893D01*
X19435320Y-20252850D01*
X19424830Y-20230671D01*
X19416565Y-20207572D01*
X19410604Y-20183773D01*
X19407004Y-20159505D01*
X19405800Y-20135001D01*
X19405800Y-19234999D01*
X19407004Y-19210495D01*
X19410604Y-19186227D01*
X19416565Y-19162428D01*
X19424830Y-19139329D01*
X19435320Y-19117150D01*
X19447932Y-19096107D01*
X19462547Y-19076401D01*
X19479023Y-19058223D01*
X19497201Y-19041747D01*
X19516907Y-19027132D01*
X19537950Y-19014520D01*
X19560129Y-19004030D01*
X19583228Y-18995765D01*
X19607027Y-18989804D01*
X19631295Y-18986204D01*
X19655799Y-18985000D01*
X20305801Y-18985000D01*
X20330305Y-18986204D01*
X20330305Y-18986204D01*
G37*
D13*
X19980800Y-19685000D03*
D10*
G36*
X22380305Y-18986204D02*
X22404573Y-18989804D01*
X22428372Y-18995765D01*
X22451471Y-19004030D01*
X22473650Y-19014520D01*
X22494693Y-19027132D01*
X22514399Y-19041747D01*
X22532577Y-19058223D01*
X22549053Y-19076401D01*
X22563668Y-19096107D01*
X22576280Y-19117150D01*
X22586770Y-19139329D01*
X22595035Y-19162428D01*
X22600996Y-19186227D01*
X22604596Y-19210495D01*
X22605800Y-19234999D01*
X22605800Y-20135001D01*
X22604596Y-20159505D01*
X22600996Y-20183773D01*
X22595035Y-20207572D01*
X22586770Y-20230671D01*
X22576280Y-20252850D01*
X22563668Y-20273893D01*
X22549053Y-20293599D01*
X22532577Y-20311777D01*
X22514399Y-20328253D01*
X22494693Y-20342868D01*
X22473650Y-20355480D01*
X22451471Y-20365970D01*
X22428372Y-20374235D01*
X22404573Y-20380196D01*
X22380305Y-20383796D01*
X22355801Y-20385000D01*
X21705799Y-20385000D01*
X21681295Y-20383796D01*
X21657027Y-20380196D01*
X21633228Y-20374235D01*
X21610129Y-20365970D01*
X21587950Y-20355480D01*
X21566907Y-20342868D01*
X21547201Y-20328253D01*
X21529023Y-20311777D01*
X21512547Y-20293599D01*
X21497932Y-20273893D01*
X21485320Y-20252850D01*
X21474830Y-20230671D01*
X21466565Y-20207572D01*
X21460604Y-20183773D01*
X21457004Y-20159505D01*
X21455800Y-20135001D01*
X21455800Y-19234999D01*
X21457004Y-19210495D01*
X21460604Y-19186227D01*
X21466565Y-19162428D01*
X21474830Y-19139329D01*
X21485320Y-19117150D01*
X21497932Y-19096107D01*
X21512547Y-19076401D01*
X21529023Y-19058223D01*
X21547201Y-19041747D01*
X21566907Y-19027132D01*
X21587950Y-19014520D01*
X21610129Y-19004030D01*
X21633228Y-18995765D01*
X21657027Y-18989804D01*
X21681295Y-18986204D01*
X21705799Y-18985000D01*
X22355801Y-18985000D01*
X22380305Y-18986204D01*
X22380305Y-18986204D01*
G37*
D13*
X22030800Y-19685000D03*
G04 #@! TD*
D10*
G04 #@! TO.C,C25*
G36*
X22380305Y-14922204D02*
X22404573Y-14925804D01*
X22428372Y-14931765D01*
X22451471Y-14940030D01*
X22473650Y-14950520D01*
X22494693Y-14963132D01*
X22514399Y-14977747D01*
X22532577Y-14994223D01*
X22549053Y-15012401D01*
X22563668Y-15032107D01*
X22576280Y-15053150D01*
X22586770Y-15075329D01*
X22595035Y-15098428D01*
X22600996Y-15122227D01*
X22604596Y-15146495D01*
X22605800Y-15170999D01*
X22605800Y-16071001D01*
X22604596Y-16095505D01*
X22600996Y-16119773D01*
X22595035Y-16143572D01*
X22586770Y-16166671D01*
X22576280Y-16188850D01*
X22563668Y-16209893D01*
X22549053Y-16229599D01*
X22532577Y-16247777D01*
X22514399Y-16264253D01*
X22494693Y-16278868D01*
X22473650Y-16291480D01*
X22451471Y-16301970D01*
X22428372Y-16310235D01*
X22404573Y-16316196D01*
X22380305Y-16319796D01*
X22355801Y-16321000D01*
X21705799Y-16321000D01*
X21681295Y-16319796D01*
X21657027Y-16316196D01*
X21633228Y-16310235D01*
X21610129Y-16301970D01*
X21587950Y-16291480D01*
X21566907Y-16278868D01*
X21547201Y-16264253D01*
X21529023Y-16247777D01*
X21512547Y-16229599D01*
X21497932Y-16209893D01*
X21485320Y-16188850D01*
X21474830Y-16166671D01*
X21466565Y-16143572D01*
X21460604Y-16119773D01*
X21457004Y-16095505D01*
X21455800Y-16071001D01*
X21455800Y-15170999D01*
X21457004Y-15146495D01*
X21460604Y-15122227D01*
X21466565Y-15098428D01*
X21474830Y-15075329D01*
X21485320Y-15053150D01*
X21497932Y-15032107D01*
X21512547Y-15012401D01*
X21529023Y-14994223D01*
X21547201Y-14977747D01*
X21566907Y-14963132D01*
X21587950Y-14950520D01*
X21610129Y-14940030D01*
X21633228Y-14931765D01*
X21657027Y-14925804D01*
X21681295Y-14922204D01*
X21705799Y-14921000D01*
X22355801Y-14921000D01*
X22380305Y-14922204D01*
X22380305Y-14922204D01*
G37*
D13*
X22030800Y-15621000D03*
D10*
G36*
X20330305Y-14922204D02*
X20354573Y-14925804D01*
X20378372Y-14931765D01*
X20401471Y-14940030D01*
X20423650Y-14950520D01*
X20444693Y-14963132D01*
X20464399Y-14977747D01*
X20482577Y-14994223D01*
X20499053Y-15012401D01*
X20513668Y-15032107D01*
X20526280Y-15053150D01*
X20536770Y-15075329D01*
X20545035Y-15098428D01*
X20550996Y-15122227D01*
X20554596Y-15146495D01*
X20555800Y-15170999D01*
X20555800Y-16071001D01*
X20554596Y-16095505D01*
X20550996Y-16119773D01*
X20545035Y-16143572D01*
X20536770Y-16166671D01*
X20526280Y-16188850D01*
X20513668Y-16209893D01*
X20499053Y-16229599D01*
X20482577Y-16247777D01*
X20464399Y-16264253D01*
X20444693Y-16278868D01*
X20423650Y-16291480D01*
X20401471Y-16301970D01*
X20378372Y-16310235D01*
X20354573Y-16316196D01*
X20330305Y-16319796D01*
X20305801Y-16321000D01*
X19655799Y-16321000D01*
X19631295Y-16319796D01*
X19607027Y-16316196D01*
X19583228Y-16310235D01*
X19560129Y-16301970D01*
X19537950Y-16291480D01*
X19516907Y-16278868D01*
X19497201Y-16264253D01*
X19479023Y-16247777D01*
X19462547Y-16229599D01*
X19447932Y-16209893D01*
X19435320Y-16188850D01*
X19424830Y-16166671D01*
X19416565Y-16143572D01*
X19410604Y-16119773D01*
X19407004Y-16095505D01*
X19405800Y-16071001D01*
X19405800Y-15170999D01*
X19407004Y-15146495D01*
X19410604Y-15122227D01*
X19416565Y-15098428D01*
X19424830Y-15075329D01*
X19435320Y-15053150D01*
X19447932Y-15032107D01*
X19462547Y-15012401D01*
X19479023Y-14994223D01*
X19497201Y-14977747D01*
X19516907Y-14963132D01*
X19537950Y-14950520D01*
X19560129Y-14940030D01*
X19583228Y-14931765D01*
X19607027Y-14925804D01*
X19631295Y-14922204D01*
X19655799Y-14921000D01*
X20305801Y-14921000D01*
X20330305Y-14922204D01*
X20330305Y-14922204D01*
G37*
D13*
X19980800Y-15621000D03*
G04 #@! TD*
D10*
G04 #@! TO.C,C26*
G36*
X16520305Y-25336204D02*
X16544573Y-25339804D01*
X16568372Y-25345765D01*
X16591471Y-25354030D01*
X16613650Y-25364520D01*
X16634693Y-25377132D01*
X16654399Y-25391747D01*
X16672577Y-25408223D01*
X16689053Y-25426401D01*
X16703668Y-25446107D01*
X16716280Y-25467150D01*
X16726770Y-25489329D01*
X16735035Y-25512428D01*
X16740996Y-25536227D01*
X16744596Y-25560495D01*
X16745800Y-25584999D01*
X16745800Y-26485001D01*
X16744596Y-26509505D01*
X16740996Y-26533773D01*
X16735035Y-26557572D01*
X16726770Y-26580671D01*
X16716280Y-26602850D01*
X16703668Y-26623893D01*
X16689053Y-26643599D01*
X16672577Y-26661777D01*
X16654399Y-26678253D01*
X16634693Y-26692868D01*
X16613650Y-26705480D01*
X16591471Y-26715970D01*
X16568372Y-26724235D01*
X16544573Y-26730196D01*
X16520305Y-26733796D01*
X16495801Y-26735000D01*
X15845799Y-26735000D01*
X15821295Y-26733796D01*
X15797027Y-26730196D01*
X15773228Y-26724235D01*
X15750129Y-26715970D01*
X15727950Y-26705480D01*
X15706907Y-26692868D01*
X15687201Y-26678253D01*
X15669023Y-26661777D01*
X15652547Y-26643599D01*
X15637932Y-26623893D01*
X15625320Y-26602850D01*
X15614830Y-26580671D01*
X15606565Y-26557572D01*
X15600604Y-26533773D01*
X15597004Y-26509505D01*
X15595800Y-26485001D01*
X15595800Y-25584999D01*
X15597004Y-25560495D01*
X15600604Y-25536227D01*
X15606565Y-25512428D01*
X15614830Y-25489329D01*
X15625320Y-25467150D01*
X15637932Y-25446107D01*
X15652547Y-25426401D01*
X15669023Y-25408223D01*
X15687201Y-25391747D01*
X15706907Y-25377132D01*
X15727950Y-25364520D01*
X15750129Y-25354030D01*
X15773228Y-25345765D01*
X15797027Y-25339804D01*
X15821295Y-25336204D01*
X15845799Y-25335000D01*
X16495801Y-25335000D01*
X16520305Y-25336204D01*
X16520305Y-25336204D01*
G37*
D13*
X16170800Y-26035000D03*
D10*
G36*
X18570305Y-25336204D02*
X18594573Y-25339804D01*
X18618372Y-25345765D01*
X18641471Y-25354030D01*
X18663650Y-25364520D01*
X18684693Y-25377132D01*
X18704399Y-25391747D01*
X18722577Y-25408223D01*
X18739053Y-25426401D01*
X18753668Y-25446107D01*
X18766280Y-25467150D01*
X18776770Y-25489329D01*
X18785035Y-25512428D01*
X18790996Y-25536227D01*
X18794596Y-25560495D01*
X18795800Y-25584999D01*
X18795800Y-26485001D01*
X18794596Y-26509505D01*
X18790996Y-26533773D01*
X18785035Y-26557572D01*
X18776770Y-26580671D01*
X18766280Y-26602850D01*
X18753668Y-26623893D01*
X18739053Y-26643599D01*
X18722577Y-26661777D01*
X18704399Y-26678253D01*
X18684693Y-26692868D01*
X18663650Y-26705480D01*
X18641471Y-26715970D01*
X18618372Y-26724235D01*
X18594573Y-26730196D01*
X18570305Y-26733796D01*
X18545801Y-26735000D01*
X17895799Y-26735000D01*
X17871295Y-26733796D01*
X17847027Y-26730196D01*
X17823228Y-26724235D01*
X17800129Y-26715970D01*
X17777950Y-26705480D01*
X17756907Y-26692868D01*
X17737201Y-26678253D01*
X17719023Y-26661777D01*
X17702547Y-26643599D01*
X17687932Y-26623893D01*
X17675320Y-26602850D01*
X17664830Y-26580671D01*
X17656565Y-26557572D01*
X17650604Y-26533773D01*
X17647004Y-26509505D01*
X17645800Y-26485001D01*
X17645800Y-25584999D01*
X17647004Y-25560495D01*
X17650604Y-25536227D01*
X17656565Y-25512428D01*
X17664830Y-25489329D01*
X17675320Y-25467150D01*
X17687932Y-25446107D01*
X17702547Y-25426401D01*
X17719023Y-25408223D01*
X17737201Y-25391747D01*
X17756907Y-25377132D01*
X17777950Y-25364520D01*
X17800129Y-25354030D01*
X17823228Y-25345765D01*
X17847027Y-25339804D01*
X17871295Y-25336204D01*
X17895799Y-25335000D01*
X18545801Y-25335000D01*
X18570305Y-25336204D01*
X18570305Y-25336204D01*
G37*
D13*
X18220800Y-26035000D03*
G04 #@! TD*
D10*
G04 #@! TO.C,C27*
G36*
X18570305Y-23304204D02*
X18594573Y-23307804D01*
X18618372Y-23313765D01*
X18641471Y-23322030D01*
X18663650Y-23332520D01*
X18684693Y-23345132D01*
X18704399Y-23359747D01*
X18722577Y-23376223D01*
X18739053Y-23394401D01*
X18753668Y-23414107D01*
X18766280Y-23435150D01*
X18776770Y-23457329D01*
X18785035Y-23480428D01*
X18790996Y-23504227D01*
X18794596Y-23528495D01*
X18795800Y-23552999D01*
X18795800Y-24453001D01*
X18794596Y-24477505D01*
X18790996Y-24501773D01*
X18785035Y-24525572D01*
X18776770Y-24548671D01*
X18766280Y-24570850D01*
X18753668Y-24591893D01*
X18739053Y-24611599D01*
X18722577Y-24629777D01*
X18704399Y-24646253D01*
X18684693Y-24660868D01*
X18663650Y-24673480D01*
X18641471Y-24683970D01*
X18618372Y-24692235D01*
X18594573Y-24698196D01*
X18570305Y-24701796D01*
X18545801Y-24703000D01*
X17895799Y-24703000D01*
X17871295Y-24701796D01*
X17847027Y-24698196D01*
X17823228Y-24692235D01*
X17800129Y-24683970D01*
X17777950Y-24673480D01*
X17756907Y-24660868D01*
X17737201Y-24646253D01*
X17719023Y-24629777D01*
X17702547Y-24611599D01*
X17687932Y-24591893D01*
X17675320Y-24570850D01*
X17664830Y-24548671D01*
X17656565Y-24525572D01*
X17650604Y-24501773D01*
X17647004Y-24477505D01*
X17645800Y-24453001D01*
X17645800Y-23552999D01*
X17647004Y-23528495D01*
X17650604Y-23504227D01*
X17656565Y-23480428D01*
X17664830Y-23457329D01*
X17675320Y-23435150D01*
X17687932Y-23414107D01*
X17702547Y-23394401D01*
X17719023Y-23376223D01*
X17737201Y-23359747D01*
X17756907Y-23345132D01*
X17777950Y-23332520D01*
X17800129Y-23322030D01*
X17823228Y-23313765D01*
X17847027Y-23307804D01*
X17871295Y-23304204D01*
X17895799Y-23303000D01*
X18545801Y-23303000D01*
X18570305Y-23304204D01*
X18570305Y-23304204D01*
G37*
D13*
X18220800Y-24003000D03*
D10*
G36*
X16520305Y-23304204D02*
X16544573Y-23307804D01*
X16568372Y-23313765D01*
X16591471Y-23322030D01*
X16613650Y-23332520D01*
X16634693Y-23345132D01*
X16654399Y-23359747D01*
X16672577Y-23376223D01*
X16689053Y-23394401D01*
X16703668Y-23414107D01*
X16716280Y-23435150D01*
X16726770Y-23457329D01*
X16735035Y-23480428D01*
X16740996Y-23504227D01*
X16744596Y-23528495D01*
X16745800Y-23552999D01*
X16745800Y-24453001D01*
X16744596Y-24477505D01*
X16740996Y-24501773D01*
X16735035Y-24525572D01*
X16726770Y-24548671D01*
X16716280Y-24570850D01*
X16703668Y-24591893D01*
X16689053Y-24611599D01*
X16672577Y-24629777D01*
X16654399Y-24646253D01*
X16634693Y-24660868D01*
X16613650Y-24673480D01*
X16591471Y-24683970D01*
X16568372Y-24692235D01*
X16544573Y-24698196D01*
X16520305Y-24701796D01*
X16495801Y-24703000D01*
X15845799Y-24703000D01*
X15821295Y-24701796D01*
X15797027Y-24698196D01*
X15773228Y-24692235D01*
X15750129Y-24683970D01*
X15727950Y-24673480D01*
X15706907Y-24660868D01*
X15687201Y-24646253D01*
X15669023Y-24629777D01*
X15652547Y-24611599D01*
X15637932Y-24591893D01*
X15625320Y-24570850D01*
X15614830Y-24548671D01*
X15606565Y-24525572D01*
X15600604Y-24501773D01*
X15597004Y-24477505D01*
X15595800Y-24453001D01*
X15595800Y-23552999D01*
X15597004Y-23528495D01*
X15600604Y-23504227D01*
X15606565Y-23480428D01*
X15614830Y-23457329D01*
X15625320Y-23435150D01*
X15637932Y-23414107D01*
X15652547Y-23394401D01*
X15669023Y-23376223D01*
X15687201Y-23359747D01*
X15706907Y-23345132D01*
X15727950Y-23332520D01*
X15750129Y-23322030D01*
X15773228Y-23313765D01*
X15797027Y-23307804D01*
X15821295Y-23304204D01*
X15845799Y-23303000D01*
X16495801Y-23303000D01*
X16520305Y-23304204D01*
X16520305Y-23304204D01*
G37*
D13*
X16170800Y-24003000D03*
G04 #@! TD*
D10*
G04 #@! TO.C,R3*
G36*
X51878142Y-36766174D02*
X51901803Y-36769684D01*
X51925007Y-36775496D01*
X51947529Y-36783554D01*
X51969153Y-36793782D01*
X51989670Y-36806079D01*
X52008883Y-36820329D01*
X52026607Y-36836393D01*
X52042671Y-36854117D01*
X52056921Y-36873330D01*
X52069218Y-36893847D01*
X52079446Y-36915471D01*
X52087504Y-36937993D01*
X52093316Y-36961197D01*
X52096826Y-36984858D01*
X52098000Y-37008750D01*
X52098000Y-37921250D01*
X52096826Y-37945142D01*
X52093316Y-37968803D01*
X52087504Y-37992007D01*
X52079446Y-38014529D01*
X52069218Y-38036153D01*
X52056921Y-38056670D01*
X52042671Y-38075883D01*
X52026607Y-38093607D01*
X52008883Y-38109671D01*
X51989670Y-38123921D01*
X51969153Y-38136218D01*
X51947529Y-38146446D01*
X51925007Y-38154504D01*
X51901803Y-38160316D01*
X51878142Y-38163826D01*
X51854250Y-38165000D01*
X51366750Y-38165000D01*
X51342858Y-38163826D01*
X51319197Y-38160316D01*
X51295993Y-38154504D01*
X51273471Y-38146446D01*
X51251847Y-38136218D01*
X51231330Y-38123921D01*
X51212117Y-38109671D01*
X51194393Y-38093607D01*
X51178329Y-38075883D01*
X51164079Y-38056670D01*
X51151782Y-38036153D01*
X51141554Y-38014529D01*
X51133496Y-37992007D01*
X51127684Y-37968803D01*
X51124174Y-37945142D01*
X51123000Y-37921250D01*
X51123000Y-37008750D01*
X51124174Y-36984858D01*
X51127684Y-36961197D01*
X51133496Y-36937993D01*
X51141554Y-36915471D01*
X51151782Y-36893847D01*
X51164079Y-36873330D01*
X51178329Y-36854117D01*
X51194393Y-36836393D01*
X51212117Y-36820329D01*
X51231330Y-36806079D01*
X51251847Y-36793782D01*
X51273471Y-36783554D01*
X51295993Y-36775496D01*
X51319197Y-36769684D01*
X51342858Y-36766174D01*
X51366750Y-36765000D01*
X51854250Y-36765000D01*
X51878142Y-36766174D01*
X51878142Y-36766174D01*
G37*
D11*
X51610500Y-37465000D03*
D10*
G36*
X50003142Y-36766174D02*
X50026803Y-36769684D01*
X50050007Y-36775496D01*
X50072529Y-36783554D01*
X50094153Y-36793782D01*
X50114670Y-36806079D01*
X50133883Y-36820329D01*
X50151607Y-36836393D01*
X50167671Y-36854117D01*
X50181921Y-36873330D01*
X50194218Y-36893847D01*
X50204446Y-36915471D01*
X50212504Y-36937993D01*
X50218316Y-36961197D01*
X50221826Y-36984858D01*
X50223000Y-37008750D01*
X50223000Y-37921250D01*
X50221826Y-37945142D01*
X50218316Y-37968803D01*
X50212504Y-37992007D01*
X50204446Y-38014529D01*
X50194218Y-38036153D01*
X50181921Y-38056670D01*
X50167671Y-38075883D01*
X50151607Y-38093607D01*
X50133883Y-38109671D01*
X50114670Y-38123921D01*
X50094153Y-38136218D01*
X50072529Y-38146446D01*
X50050007Y-38154504D01*
X50026803Y-38160316D01*
X50003142Y-38163826D01*
X49979250Y-38165000D01*
X49491750Y-38165000D01*
X49467858Y-38163826D01*
X49444197Y-38160316D01*
X49420993Y-38154504D01*
X49398471Y-38146446D01*
X49376847Y-38136218D01*
X49356330Y-38123921D01*
X49337117Y-38109671D01*
X49319393Y-38093607D01*
X49303329Y-38075883D01*
X49289079Y-38056670D01*
X49276782Y-38036153D01*
X49266554Y-38014529D01*
X49258496Y-37992007D01*
X49252684Y-37968803D01*
X49249174Y-37945142D01*
X49248000Y-37921250D01*
X49248000Y-37008750D01*
X49249174Y-36984858D01*
X49252684Y-36961197D01*
X49258496Y-36937993D01*
X49266554Y-36915471D01*
X49276782Y-36893847D01*
X49289079Y-36873330D01*
X49303329Y-36854117D01*
X49319393Y-36836393D01*
X49337117Y-36820329D01*
X49356330Y-36806079D01*
X49376847Y-36793782D01*
X49398471Y-36783554D01*
X49420993Y-36775496D01*
X49444197Y-36769684D01*
X49467858Y-36766174D01*
X49491750Y-36765000D01*
X49979250Y-36765000D01*
X50003142Y-36766174D01*
X50003142Y-36766174D01*
G37*
D11*
X49735500Y-37465000D03*
G04 #@! TD*
D10*
G04 #@! TO.C,R5*
G36*
X20774742Y-9421974D02*
X20798403Y-9425484D01*
X20821607Y-9431296D01*
X20844129Y-9439354D01*
X20865753Y-9449582D01*
X20886270Y-9461879D01*
X20905483Y-9476129D01*
X20923207Y-9492193D01*
X20939271Y-9509917D01*
X20953521Y-9529130D01*
X20965818Y-9549647D01*
X20976046Y-9571271D01*
X20984104Y-9593793D01*
X20989916Y-9616997D01*
X20993426Y-9640658D01*
X20994600Y-9664550D01*
X20994600Y-10152050D01*
X20993426Y-10175942D01*
X20989916Y-10199603D01*
X20984104Y-10222807D01*
X20976046Y-10245329D01*
X20965818Y-10266953D01*
X20953521Y-10287470D01*
X20939271Y-10306683D01*
X20923207Y-10324407D01*
X20905483Y-10340471D01*
X20886270Y-10354721D01*
X20865753Y-10367018D01*
X20844129Y-10377246D01*
X20821607Y-10385304D01*
X20798403Y-10391116D01*
X20774742Y-10394626D01*
X20750850Y-10395800D01*
X19838350Y-10395800D01*
X19814458Y-10394626D01*
X19790797Y-10391116D01*
X19767593Y-10385304D01*
X19745071Y-10377246D01*
X19723447Y-10367018D01*
X19702930Y-10354721D01*
X19683717Y-10340471D01*
X19665993Y-10324407D01*
X19649929Y-10306683D01*
X19635679Y-10287470D01*
X19623382Y-10266953D01*
X19613154Y-10245329D01*
X19605096Y-10222807D01*
X19599284Y-10199603D01*
X19595774Y-10175942D01*
X19594600Y-10152050D01*
X19594600Y-9664550D01*
X19595774Y-9640658D01*
X19599284Y-9616997D01*
X19605096Y-9593793D01*
X19613154Y-9571271D01*
X19623382Y-9549647D01*
X19635679Y-9529130D01*
X19649929Y-9509917D01*
X19665993Y-9492193D01*
X19683717Y-9476129D01*
X19702930Y-9461879D01*
X19723447Y-9449582D01*
X19745071Y-9439354D01*
X19767593Y-9431296D01*
X19790797Y-9425484D01*
X19814458Y-9421974D01*
X19838350Y-9420800D01*
X20750850Y-9420800D01*
X20774742Y-9421974D01*
X20774742Y-9421974D01*
G37*
D11*
X20294600Y-9908300D03*
D10*
G36*
X20774742Y-11296974D02*
X20798403Y-11300484D01*
X20821607Y-11306296D01*
X20844129Y-11314354D01*
X20865753Y-11324582D01*
X20886270Y-11336879D01*
X20905483Y-11351129D01*
X20923207Y-11367193D01*
X20939271Y-11384917D01*
X20953521Y-11404130D01*
X20965818Y-11424647D01*
X20976046Y-11446271D01*
X20984104Y-11468793D01*
X20989916Y-11491997D01*
X20993426Y-11515658D01*
X20994600Y-11539550D01*
X20994600Y-12027050D01*
X20993426Y-12050942D01*
X20989916Y-12074603D01*
X20984104Y-12097807D01*
X20976046Y-12120329D01*
X20965818Y-12141953D01*
X20953521Y-12162470D01*
X20939271Y-12181683D01*
X20923207Y-12199407D01*
X20905483Y-12215471D01*
X20886270Y-12229721D01*
X20865753Y-12242018D01*
X20844129Y-12252246D01*
X20821607Y-12260304D01*
X20798403Y-12266116D01*
X20774742Y-12269626D01*
X20750850Y-12270800D01*
X19838350Y-12270800D01*
X19814458Y-12269626D01*
X19790797Y-12266116D01*
X19767593Y-12260304D01*
X19745071Y-12252246D01*
X19723447Y-12242018D01*
X19702930Y-12229721D01*
X19683717Y-12215471D01*
X19665993Y-12199407D01*
X19649929Y-12181683D01*
X19635679Y-12162470D01*
X19623382Y-12141953D01*
X19613154Y-12120329D01*
X19605096Y-12097807D01*
X19599284Y-12074603D01*
X19595774Y-12050942D01*
X19594600Y-12027050D01*
X19594600Y-11539550D01*
X19595774Y-11515658D01*
X19599284Y-11491997D01*
X19605096Y-11468793D01*
X19613154Y-11446271D01*
X19623382Y-11424647D01*
X19635679Y-11404130D01*
X19649929Y-11384917D01*
X19665993Y-11367193D01*
X19683717Y-11351129D01*
X19702930Y-11336879D01*
X19723447Y-11324582D01*
X19745071Y-11314354D01*
X19767593Y-11306296D01*
X19790797Y-11300484D01*
X19814458Y-11296974D01*
X19838350Y-11295800D01*
X20750850Y-11295800D01*
X20774742Y-11296974D01*
X20774742Y-11296974D01*
G37*
D11*
X20294600Y-11783300D03*
G04 #@! TD*
D10*
G04 #@! TO.C,R6*
G36*
X48146642Y-8572174D02*
X48170303Y-8575684D01*
X48193507Y-8581496D01*
X48216029Y-8589554D01*
X48237653Y-8599782D01*
X48258170Y-8612079D01*
X48277383Y-8626329D01*
X48295107Y-8642393D01*
X48311171Y-8660117D01*
X48325421Y-8679330D01*
X48337718Y-8699847D01*
X48347946Y-8721471D01*
X48356004Y-8743993D01*
X48361816Y-8767197D01*
X48365326Y-8790858D01*
X48366500Y-8814750D01*
X48366500Y-9727250D01*
X48365326Y-9751142D01*
X48361816Y-9774803D01*
X48356004Y-9798007D01*
X48347946Y-9820529D01*
X48337718Y-9842153D01*
X48325421Y-9862670D01*
X48311171Y-9881883D01*
X48295107Y-9899607D01*
X48277383Y-9915671D01*
X48258170Y-9929921D01*
X48237653Y-9942218D01*
X48216029Y-9952446D01*
X48193507Y-9960504D01*
X48170303Y-9966316D01*
X48146642Y-9969826D01*
X48122750Y-9971000D01*
X47635250Y-9971000D01*
X47611358Y-9969826D01*
X47587697Y-9966316D01*
X47564493Y-9960504D01*
X47541971Y-9952446D01*
X47520347Y-9942218D01*
X47499830Y-9929921D01*
X47480617Y-9915671D01*
X47462893Y-9899607D01*
X47446829Y-9881883D01*
X47432579Y-9862670D01*
X47420282Y-9842153D01*
X47410054Y-9820529D01*
X47401996Y-9798007D01*
X47396184Y-9774803D01*
X47392674Y-9751142D01*
X47391500Y-9727250D01*
X47391500Y-8814750D01*
X47392674Y-8790858D01*
X47396184Y-8767197D01*
X47401996Y-8743993D01*
X47410054Y-8721471D01*
X47420282Y-8699847D01*
X47432579Y-8679330D01*
X47446829Y-8660117D01*
X47462893Y-8642393D01*
X47480617Y-8626329D01*
X47499830Y-8612079D01*
X47520347Y-8599782D01*
X47541971Y-8589554D01*
X47564493Y-8581496D01*
X47587697Y-8575684D01*
X47611358Y-8572174D01*
X47635250Y-8571000D01*
X48122750Y-8571000D01*
X48146642Y-8572174D01*
X48146642Y-8572174D01*
G37*
D11*
X47879000Y-9271000D03*
D10*
G36*
X46271642Y-8572174D02*
X46295303Y-8575684D01*
X46318507Y-8581496D01*
X46341029Y-8589554D01*
X46362653Y-8599782D01*
X46383170Y-8612079D01*
X46402383Y-8626329D01*
X46420107Y-8642393D01*
X46436171Y-8660117D01*
X46450421Y-8679330D01*
X46462718Y-8699847D01*
X46472946Y-8721471D01*
X46481004Y-8743993D01*
X46486816Y-8767197D01*
X46490326Y-8790858D01*
X46491500Y-8814750D01*
X46491500Y-9727250D01*
X46490326Y-9751142D01*
X46486816Y-9774803D01*
X46481004Y-9798007D01*
X46472946Y-9820529D01*
X46462718Y-9842153D01*
X46450421Y-9862670D01*
X46436171Y-9881883D01*
X46420107Y-9899607D01*
X46402383Y-9915671D01*
X46383170Y-9929921D01*
X46362653Y-9942218D01*
X46341029Y-9952446D01*
X46318507Y-9960504D01*
X46295303Y-9966316D01*
X46271642Y-9969826D01*
X46247750Y-9971000D01*
X45760250Y-9971000D01*
X45736358Y-9969826D01*
X45712697Y-9966316D01*
X45689493Y-9960504D01*
X45666971Y-9952446D01*
X45645347Y-9942218D01*
X45624830Y-9929921D01*
X45605617Y-9915671D01*
X45587893Y-9899607D01*
X45571829Y-9881883D01*
X45557579Y-9862670D01*
X45545282Y-9842153D01*
X45535054Y-9820529D01*
X45526996Y-9798007D01*
X45521184Y-9774803D01*
X45517674Y-9751142D01*
X45516500Y-9727250D01*
X45516500Y-8814750D01*
X45517674Y-8790858D01*
X45521184Y-8767197D01*
X45526996Y-8743993D01*
X45535054Y-8721471D01*
X45545282Y-8699847D01*
X45557579Y-8679330D01*
X45571829Y-8660117D01*
X45587893Y-8642393D01*
X45605617Y-8626329D01*
X45624830Y-8612079D01*
X45645347Y-8599782D01*
X45666971Y-8589554D01*
X45689493Y-8581496D01*
X45712697Y-8575684D01*
X45736358Y-8572174D01*
X45760250Y-8571000D01*
X46247750Y-8571000D01*
X46271642Y-8572174D01*
X46271642Y-8572174D01*
G37*
D11*
X46004000Y-9271000D03*
G04 #@! TD*
D10*
G04 #@! TO.C,R7*
G36*
X52550142Y-4672174D02*
X52573803Y-4675684D01*
X52597007Y-4681496D01*
X52619529Y-4689554D01*
X52641153Y-4699782D01*
X52661670Y-4712079D01*
X52680883Y-4726329D01*
X52698607Y-4742393D01*
X52714671Y-4760117D01*
X52728921Y-4779330D01*
X52741218Y-4799847D01*
X52751446Y-4821471D01*
X52759504Y-4843993D01*
X52765316Y-4867197D01*
X52768826Y-4890858D01*
X52770000Y-4914750D01*
X52770000Y-5402250D01*
X52768826Y-5426142D01*
X52765316Y-5449803D01*
X52759504Y-5473007D01*
X52751446Y-5495529D01*
X52741218Y-5517153D01*
X52728921Y-5537670D01*
X52714671Y-5556883D01*
X52698607Y-5574607D01*
X52680883Y-5590671D01*
X52661670Y-5604921D01*
X52641153Y-5617218D01*
X52619529Y-5627446D01*
X52597007Y-5635504D01*
X52573803Y-5641316D01*
X52550142Y-5644826D01*
X52526250Y-5646000D01*
X51613750Y-5646000D01*
X51589858Y-5644826D01*
X51566197Y-5641316D01*
X51542993Y-5635504D01*
X51520471Y-5627446D01*
X51498847Y-5617218D01*
X51478330Y-5604921D01*
X51459117Y-5590671D01*
X51441393Y-5574607D01*
X51425329Y-5556883D01*
X51411079Y-5537670D01*
X51398782Y-5517153D01*
X51388554Y-5495529D01*
X51380496Y-5473007D01*
X51374684Y-5449803D01*
X51371174Y-5426142D01*
X51370000Y-5402250D01*
X51370000Y-4914750D01*
X51371174Y-4890858D01*
X51374684Y-4867197D01*
X51380496Y-4843993D01*
X51388554Y-4821471D01*
X51398782Y-4799847D01*
X51411079Y-4779330D01*
X51425329Y-4760117D01*
X51441393Y-4742393D01*
X51459117Y-4726329D01*
X51478330Y-4712079D01*
X51498847Y-4699782D01*
X51520471Y-4689554D01*
X51542993Y-4681496D01*
X51566197Y-4675684D01*
X51589858Y-4672174D01*
X51613750Y-4671000D01*
X52526250Y-4671000D01*
X52550142Y-4672174D01*
X52550142Y-4672174D01*
G37*
D11*
X52070000Y-5158500D03*
D10*
G36*
X52550142Y-6547174D02*
X52573803Y-6550684D01*
X52597007Y-6556496D01*
X52619529Y-6564554D01*
X52641153Y-6574782D01*
X52661670Y-6587079D01*
X52680883Y-6601329D01*
X52698607Y-6617393D01*
X52714671Y-6635117D01*
X52728921Y-6654330D01*
X52741218Y-6674847D01*
X52751446Y-6696471D01*
X52759504Y-6718993D01*
X52765316Y-6742197D01*
X52768826Y-6765858D01*
X52770000Y-6789750D01*
X52770000Y-7277250D01*
X52768826Y-7301142D01*
X52765316Y-7324803D01*
X52759504Y-7348007D01*
X52751446Y-7370529D01*
X52741218Y-7392153D01*
X52728921Y-7412670D01*
X52714671Y-7431883D01*
X52698607Y-7449607D01*
X52680883Y-7465671D01*
X52661670Y-7479921D01*
X52641153Y-7492218D01*
X52619529Y-7502446D01*
X52597007Y-7510504D01*
X52573803Y-7516316D01*
X52550142Y-7519826D01*
X52526250Y-7521000D01*
X51613750Y-7521000D01*
X51589858Y-7519826D01*
X51566197Y-7516316D01*
X51542993Y-7510504D01*
X51520471Y-7502446D01*
X51498847Y-7492218D01*
X51478330Y-7479921D01*
X51459117Y-7465671D01*
X51441393Y-7449607D01*
X51425329Y-7431883D01*
X51411079Y-7412670D01*
X51398782Y-7392153D01*
X51388554Y-7370529D01*
X51380496Y-7348007D01*
X51374684Y-7324803D01*
X51371174Y-7301142D01*
X51370000Y-7277250D01*
X51370000Y-6789750D01*
X51371174Y-6765858D01*
X51374684Y-6742197D01*
X51380496Y-6718993D01*
X51388554Y-6696471D01*
X51398782Y-6674847D01*
X51411079Y-6654330D01*
X51425329Y-6635117D01*
X51441393Y-6617393D01*
X51459117Y-6601329D01*
X51478330Y-6587079D01*
X51498847Y-6574782D01*
X51520471Y-6564554D01*
X51542993Y-6556496D01*
X51566197Y-6550684D01*
X51589858Y-6547174D01*
X51613750Y-6546000D01*
X52526250Y-6546000D01*
X52550142Y-6547174D01*
X52550142Y-6547174D01*
G37*
D11*
X52070000Y-7033500D03*
G04 #@! TD*
D10*
G04 #@! TO.C,R8*
G36*
X54582142Y-37154174D02*
X54605803Y-37157684D01*
X54629007Y-37163496D01*
X54651529Y-37171554D01*
X54673153Y-37181782D01*
X54693670Y-37194079D01*
X54712883Y-37208329D01*
X54730607Y-37224393D01*
X54746671Y-37242117D01*
X54760921Y-37261330D01*
X54773218Y-37281847D01*
X54783446Y-37303471D01*
X54791504Y-37325993D01*
X54797316Y-37349197D01*
X54800826Y-37372858D01*
X54802000Y-37396750D01*
X54802000Y-37884250D01*
X54800826Y-37908142D01*
X54797316Y-37931803D01*
X54791504Y-37955007D01*
X54783446Y-37977529D01*
X54773218Y-37999153D01*
X54760921Y-38019670D01*
X54746671Y-38038883D01*
X54730607Y-38056607D01*
X54712883Y-38072671D01*
X54693670Y-38086921D01*
X54673153Y-38099218D01*
X54651529Y-38109446D01*
X54629007Y-38117504D01*
X54605803Y-38123316D01*
X54582142Y-38126826D01*
X54558250Y-38128000D01*
X53645750Y-38128000D01*
X53621858Y-38126826D01*
X53598197Y-38123316D01*
X53574993Y-38117504D01*
X53552471Y-38109446D01*
X53530847Y-38099218D01*
X53510330Y-38086921D01*
X53491117Y-38072671D01*
X53473393Y-38056607D01*
X53457329Y-38038883D01*
X53443079Y-38019670D01*
X53430782Y-37999153D01*
X53420554Y-37977529D01*
X53412496Y-37955007D01*
X53406684Y-37931803D01*
X53403174Y-37908142D01*
X53402000Y-37884250D01*
X53402000Y-37396750D01*
X53403174Y-37372858D01*
X53406684Y-37349197D01*
X53412496Y-37325993D01*
X53420554Y-37303471D01*
X53430782Y-37281847D01*
X53443079Y-37261330D01*
X53457329Y-37242117D01*
X53473393Y-37224393D01*
X53491117Y-37208329D01*
X53510330Y-37194079D01*
X53530847Y-37181782D01*
X53552471Y-37171554D01*
X53574993Y-37163496D01*
X53598197Y-37157684D01*
X53621858Y-37154174D01*
X53645750Y-37153000D01*
X54558250Y-37153000D01*
X54582142Y-37154174D01*
X54582142Y-37154174D01*
G37*
D11*
X54102000Y-37640500D03*
D10*
G36*
X54582142Y-35279174D02*
X54605803Y-35282684D01*
X54629007Y-35288496D01*
X54651529Y-35296554D01*
X54673153Y-35306782D01*
X54693670Y-35319079D01*
X54712883Y-35333329D01*
X54730607Y-35349393D01*
X54746671Y-35367117D01*
X54760921Y-35386330D01*
X54773218Y-35406847D01*
X54783446Y-35428471D01*
X54791504Y-35450993D01*
X54797316Y-35474197D01*
X54800826Y-35497858D01*
X54802000Y-35521750D01*
X54802000Y-36009250D01*
X54800826Y-36033142D01*
X54797316Y-36056803D01*
X54791504Y-36080007D01*
X54783446Y-36102529D01*
X54773218Y-36124153D01*
X54760921Y-36144670D01*
X54746671Y-36163883D01*
X54730607Y-36181607D01*
X54712883Y-36197671D01*
X54693670Y-36211921D01*
X54673153Y-36224218D01*
X54651529Y-36234446D01*
X54629007Y-36242504D01*
X54605803Y-36248316D01*
X54582142Y-36251826D01*
X54558250Y-36253000D01*
X53645750Y-36253000D01*
X53621858Y-36251826D01*
X53598197Y-36248316D01*
X53574993Y-36242504D01*
X53552471Y-36234446D01*
X53530847Y-36224218D01*
X53510330Y-36211921D01*
X53491117Y-36197671D01*
X53473393Y-36181607D01*
X53457329Y-36163883D01*
X53443079Y-36144670D01*
X53430782Y-36124153D01*
X53420554Y-36102529D01*
X53412496Y-36080007D01*
X53406684Y-36056803D01*
X53403174Y-36033142D01*
X53402000Y-36009250D01*
X53402000Y-35521750D01*
X53403174Y-35497858D01*
X53406684Y-35474197D01*
X53412496Y-35450993D01*
X53420554Y-35428471D01*
X53430782Y-35406847D01*
X53443079Y-35386330D01*
X53457329Y-35367117D01*
X53473393Y-35349393D01*
X53491117Y-35333329D01*
X53510330Y-35319079D01*
X53530847Y-35306782D01*
X53552471Y-35296554D01*
X53574993Y-35288496D01*
X53598197Y-35282684D01*
X53621858Y-35279174D01*
X53645750Y-35278000D01*
X54558250Y-35278000D01*
X54582142Y-35279174D01*
X54582142Y-35279174D01*
G37*
D11*
X54102000Y-35765500D03*
G04 #@! TD*
D10*
G04 #@! TO.C,R12*
G36*
X18604142Y-10604174D02*
X18627803Y-10607684D01*
X18651007Y-10613496D01*
X18673529Y-10621554D01*
X18695153Y-10631782D01*
X18715670Y-10644079D01*
X18734883Y-10658329D01*
X18752607Y-10674393D01*
X18768671Y-10692117D01*
X18782921Y-10711330D01*
X18795218Y-10731847D01*
X18805446Y-10753471D01*
X18813504Y-10775993D01*
X18819316Y-10799197D01*
X18822826Y-10822858D01*
X18824000Y-10846750D01*
X18824000Y-11759250D01*
X18822826Y-11783142D01*
X18819316Y-11806803D01*
X18813504Y-11830007D01*
X18805446Y-11852529D01*
X18795218Y-11874153D01*
X18782921Y-11894670D01*
X18768671Y-11913883D01*
X18752607Y-11931607D01*
X18734883Y-11947671D01*
X18715670Y-11961921D01*
X18695153Y-11974218D01*
X18673529Y-11984446D01*
X18651007Y-11992504D01*
X18627803Y-11998316D01*
X18604142Y-12001826D01*
X18580250Y-12003000D01*
X18092750Y-12003000D01*
X18068858Y-12001826D01*
X18045197Y-11998316D01*
X18021993Y-11992504D01*
X17999471Y-11984446D01*
X17977847Y-11974218D01*
X17957330Y-11961921D01*
X17938117Y-11947671D01*
X17920393Y-11931607D01*
X17904329Y-11913883D01*
X17890079Y-11894670D01*
X17877782Y-11874153D01*
X17867554Y-11852529D01*
X17859496Y-11830007D01*
X17853684Y-11806803D01*
X17850174Y-11783142D01*
X17849000Y-11759250D01*
X17849000Y-10846750D01*
X17850174Y-10822858D01*
X17853684Y-10799197D01*
X17859496Y-10775993D01*
X17867554Y-10753471D01*
X17877782Y-10731847D01*
X17890079Y-10711330D01*
X17904329Y-10692117D01*
X17920393Y-10674393D01*
X17938117Y-10658329D01*
X17957330Y-10644079D01*
X17977847Y-10631782D01*
X17999471Y-10621554D01*
X18021993Y-10613496D01*
X18045197Y-10607684D01*
X18068858Y-10604174D01*
X18092750Y-10603000D01*
X18580250Y-10603000D01*
X18604142Y-10604174D01*
X18604142Y-10604174D01*
G37*
D11*
X18336500Y-11303000D03*
D10*
G36*
X16729142Y-10604174D02*
X16752803Y-10607684D01*
X16776007Y-10613496D01*
X16798529Y-10621554D01*
X16820153Y-10631782D01*
X16840670Y-10644079D01*
X16859883Y-10658329D01*
X16877607Y-10674393D01*
X16893671Y-10692117D01*
X16907921Y-10711330D01*
X16920218Y-10731847D01*
X16930446Y-10753471D01*
X16938504Y-10775993D01*
X16944316Y-10799197D01*
X16947826Y-10822858D01*
X16949000Y-10846750D01*
X16949000Y-11759250D01*
X16947826Y-11783142D01*
X16944316Y-11806803D01*
X16938504Y-11830007D01*
X16930446Y-11852529D01*
X16920218Y-11874153D01*
X16907921Y-11894670D01*
X16893671Y-11913883D01*
X16877607Y-11931607D01*
X16859883Y-11947671D01*
X16840670Y-11961921D01*
X16820153Y-11974218D01*
X16798529Y-11984446D01*
X16776007Y-11992504D01*
X16752803Y-11998316D01*
X16729142Y-12001826D01*
X16705250Y-12003000D01*
X16217750Y-12003000D01*
X16193858Y-12001826D01*
X16170197Y-11998316D01*
X16146993Y-11992504D01*
X16124471Y-11984446D01*
X16102847Y-11974218D01*
X16082330Y-11961921D01*
X16063117Y-11947671D01*
X16045393Y-11931607D01*
X16029329Y-11913883D01*
X16015079Y-11894670D01*
X16002782Y-11874153D01*
X15992554Y-11852529D01*
X15984496Y-11830007D01*
X15978684Y-11806803D01*
X15975174Y-11783142D01*
X15974000Y-11759250D01*
X15974000Y-10846750D01*
X15975174Y-10822858D01*
X15978684Y-10799197D01*
X15984496Y-10775993D01*
X15992554Y-10753471D01*
X16002782Y-10731847D01*
X16015079Y-10711330D01*
X16029329Y-10692117D01*
X16045393Y-10674393D01*
X16063117Y-10658329D01*
X16082330Y-10644079D01*
X16102847Y-10631782D01*
X16124471Y-10621554D01*
X16146993Y-10613496D01*
X16170197Y-10607684D01*
X16193858Y-10604174D01*
X16217750Y-10603000D01*
X16705250Y-10603000D01*
X16729142Y-10604174D01*
X16729142Y-10604174D01*
G37*
D11*
X16461500Y-11303000D03*
G04 #@! TD*
D10*
G04 #@! TO.C,R17*
G36*
X18400942Y-21018174D02*
X18424603Y-21021684D01*
X18447807Y-21027496D01*
X18470329Y-21035554D01*
X18491953Y-21045782D01*
X18512470Y-21058079D01*
X18531683Y-21072329D01*
X18549407Y-21088393D01*
X18565471Y-21106117D01*
X18579721Y-21125330D01*
X18592018Y-21145847D01*
X18602246Y-21167471D01*
X18610304Y-21189993D01*
X18616116Y-21213197D01*
X18619626Y-21236858D01*
X18620800Y-21260750D01*
X18620800Y-22173250D01*
X18619626Y-22197142D01*
X18616116Y-22220803D01*
X18610304Y-22244007D01*
X18602246Y-22266529D01*
X18592018Y-22288153D01*
X18579721Y-22308670D01*
X18565471Y-22327883D01*
X18549407Y-22345607D01*
X18531683Y-22361671D01*
X18512470Y-22375921D01*
X18491953Y-22388218D01*
X18470329Y-22398446D01*
X18447807Y-22406504D01*
X18424603Y-22412316D01*
X18400942Y-22415826D01*
X18377050Y-22417000D01*
X17889550Y-22417000D01*
X17865658Y-22415826D01*
X17841997Y-22412316D01*
X17818793Y-22406504D01*
X17796271Y-22398446D01*
X17774647Y-22388218D01*
X17754130Y-22375921D01*
X17734917Y-22361671D01*
X17717193Y-22345607D01*
X17701129Y-22327883D01*
X17686879Y-22308670D01*
X17674582Y-22288153D01*
X17664354Y-22266529D01*
X17656296Y-22244007D01*
X17650484Y-22220803D01*
X17646974Y-22197142D01*
X17645800Y-22173250D01*
X17645800Y-21260750D01*
X17646974Y-21236858D01*
X17650484Y-21213197D01*
X17656296Y-21189993D01*
X17664354Y-21167471D01*
X17674582Y-21145847D01*
X17686879Y-21125330D01*
X17701129Y-21106117D01*
X17717193Y-21088393D01*
X17734917Y-21072329D01*
X17754130Y-21058079D01*
X17774647Y-21045782D01*
X17796271Y-21035554D01*
X17818793Y-21027496D01*
X17841997Y-21021684D01*
X17865658Y-21018174D01*
X17889550Y-21017000D01*
X18377050Y-21017000D01*
X18400942Y-21018174D01*
X18400942Y-21018174D01*
G37*
D11*
X18133300Y-21717000D03*
D10*
G36*
X16525942Y-21018174D02*
X16549603Y-21021684D01*
X16572807Y-21027496D01*
X16595329Y-21035554D01*
X16616953Y-21045782D01*
X16637470Y-21058079D01*
X16656683Y-21072329D01*
X16674407Y-21088393D01*
X16690471Y-21106117D01*
X16704721Y-21125330D01*
X16717018Y-21145847D01*
X16727246Y-21167471D01*
X16735304Y-21189993D01*
X16741116Y-21213197D01*
X16744626Y-21236858D01*
X16745800Y-21260750D01*
X16745800Y-22173250D01*
X16744626Y-22197142D01*
X16741116Y-22220803D01*
X16735304Y-22244007D01*
X16727246Y-22266529D01*
X16717018Y-22288153D01*
X16704721Y-22308670D01*
X16690471Y-22327883D01*
X16674407Y-22345607D01*
X16656683Y-22361671D01*
X16637470Y-22375921D01*
X16616953Y-22388218D01*
X16595329Y-22398446D01*
X16572807Y-22406504D01*
X16549603Y-22412316D01*
X16525942Y-22415826D01*
X16502050Y-22417000D01*
X16014550Y-22417000D01*
X15990658Y-22415826D01*
X15966997Y-22412316D01*
X15943793Y-22406504D01*
X15921271Y-22398446D01*
X15899647Y-22388218D01*
X15879130Y-22375921D01*
X15859917Y-22361671D01*
X15842193Y-22345607D01*
X15826129Y-22327883D01*
X15811879Y-22308670D01*
X15799582Y-22288153D01*
X15789354Y-22266529D01*
X15781296Y-22244007D01*
X15775484Y-22220803D01*
X15771974Y-22197142D01*
X15770800Y-22173250D01*
X15770800Y-21260750D01*
X15771974Y-21236858D01*
X15775484Y-21213197D01*
X15781296Y-21189993D01*
X15789354Y-21167471D01*
X15799582Y-21145847D01*
X15811879Y-21125330D01*
X15826129Y-21106117D01*
X15842193Y-21088393D01*
X15859917Y-21072329D01*
X15879130Y-21058079D01*
X15899647Y-21045782D01*
X15921271Y-21035554D01*
X15943793Y-21027496D01*
X15966997Y-21021684D01*
X15990658Y-21018174D01*
X16014550Y-21017000D01*
X16502050Y-21017000D01*
X16525942Y-21018174D01*
X16525942Y-21018174D01*
G37*
D11*
X16258300Y-21717000D03*
G04 #@! TD*
D10*
G04 #@! TO.C,R18*
G36*
X46631942Y-73838674D02*
X46655603Y-73842184D01*
X46678807Y-73847996D01*
X46701329Y-73856054D01*
X46722953Y-73866282D01*
X46743470Y-73878579D01*
X46762683Y-73892829D01*
X46780407Y-73908893D01*
X46796471Y-73926617D01*
X46810721Y-73945830D01*
X46823018Y-73966347D01*
X46833246Y-73987971D01*
X46841304Y-74010493D01*
X46847116Y-74033697D01*
X46850626Y-74057358D01*
X46851800Y-74081250D01*
X46851800Y-74568750D01*
X46850626Y-74592642D01*
X46847116Y-74616303D01*
X46841304Y-74639507D01*
X46833246Y-74662029D01*
X46823018Y-74683653D01*
X46810721Y-74704170D01*
X46796471Y-74723383D01*
X46780407Y-74741107D01*
X46762683Y-74757171D01*
X46743470Y-74771421D01*
X46722953Y-74783718D01*
X46701329Y-74793946D01*
X46678807Y-74802004D01*
X46655603Y-74807816D01*
X46631942Y-74811326D01*
X46608050Y-74812500D01*
X45695550Y-74812500D01*
X45671658Y-74811326D01*
X45647997Y-74807816D01*
X45624793Y-74802004D01*
X45602271Y-74793946D01*
X45580647Y-74783718D01*
X45560130Y-74771421D01*
X45540917Y-74757171D01*
X45523193Y-74741107D01*
X45507129Y-74723383D01*
X45492879Y-74704170D01*
X45480582Y-74683653D01*
X45470354Y-74662029D01*
X45462296Y-74639507D01*
X45456484Y-74616303D01*
X45452974Y-74592642D01*
X45451800Y-74568750D01*
X45451800Y-74081250D01*
X45452974Y-74057358D01*
X45456484Y-74033697D01*
X45462296Y-74010493D01*
X45470354Y-73987971D01*
X45480582Y-73966347D01*
X45492879Y-73945830D01*
X45507129Y-73926617D01*
X45523193Y-73908893D01*
X45540917Y-73892829D01*
X45560130Y-73878579D01*
X45580647Y-73866282D01*
X45602271Y-73856054D01*
X45624793Y-73847996D01*
X45647997Y-73842184D01*
X45671658Y-73838674D01*
X45695550Y-73837500D01*
X46608050Y-73837500D01*
X46631942Y-73838674D01*
X46631942Y-73838674D01*
G37*
D11*
X46151800Y-74325000D03*
D10*
G36*
X46631942Y-75713674D02*
X46655603Y-75717184D01*
X46678807Y-75722996D01*
X46701329Y-75731054D01*
X46722953Y-75741282D01*
X46743470Y-75753579D01*
X46762683Y-75767829D01*
X46780407Y-75783893D01*
X46796471Y-75801617D01*
X46810721Y-75820830D01*
X46823018Y-75841347D01*
X46833246Y-75862971D01*
X46841304Y-75885493D01*
X46847116Y-75908697D01*
X46850626Y-75932358D01*
X46851800Y-75956250D01*
X46851800Y-76443750D01*
X46850626Y-76467642D01*
X46847116Y-76491303D01*
X46841304Y-76514507D01*
X46833246Y-76537029D01*
X46823018Y-76558653D01*
X46810721Y-76579170D01*
X46796471Y-76598383D01*
X46780407Y-76616107D01*
X46762683Y-76632171D01*
X46743470Y-76646421D01*
X46722953Y-76658718D01*
X46701329Y-76668946D01*
X46678807Y-76677004D01*
X46655603Y-76682816D01*
X46631942Y-76686326D01*
X46608050Y-76687500D01*
X45695550Y-76687500D01*
X45671658Y-76686326D01*
X45647997Y-76682816D01*
X45624793Y-76677004D01*
X45602271Y-76668946D01*
X45580647Y-76658718D01*
X45560130Y-76646421D01*
X45540917Y-76632171D01*
X45523193Y-76616107D01*
X45507129Y-76598383D01*
X45492879Y-76579170D01*
X45480582Y-76558653D01*
X45470354Y-76537029D01*
X45462296Y-76514507D01*
X45456484Y-76491303D01*
X45452974Y-76467642D01*
X45451800Y-76443750D01*
X45451800Y-75956250D01*
X45452974Y-75932358D01*
X45456484Y-75908697D01*
X45462296Y-75885493D01*
X45470354Y-75862971D01*
X45480582Y-75841347D01*
X45492879Y-75820830D01*
X45507129Y-75801617D01*
X45523193Y-75783893D01*
X45540917Y-75767829D01*
X45560130Y-75753579D01*
X45580647Y-75741282D01*
X45602271Y-75731054D01*
X45624793Y-75722996D01*
X45647997Y-75717184D01*
X45671658Y-75713674D01*
X45695550Y-75712500D01*
X46608050Y-75712500D01*
X46631942Y-75713674D01*
X46631942Y-75713674D01*
G37*
D11*
X46151800Y-76200000D03*
G04 #@! TD*
D16*
G04 #@! TO.C,U3*
X18186400Y-14038600D03*
X16916400Y-14038600D03*
X15646400Y-14038600D03*
X14376400Y-14038600D03*
X13106400Y-14038600D03*
X11836400Y-14038600D03*
X10566400Y-14038600D03*
X9296400Y-14038600D03*
X9296400Y-19438600D03*
X10566400Y-19438600D03*
X11836400Y-19438600D03*
X13106400Y-19438600D03*
X14376400Y-19438600D03*
X15646400Y-19438600D03*
X16916400Y-19438600D03*
X18186400Y-19438600D03*
G04 #@! TD*
M02*
