G04 #@! TF.GenerationSoftware,KiCad,Pcbnew,(5.0.1)-3*
G04 #@! TF.CreationDate,2019-01-09T23:58:32-05:00*
G04 #@! TF.ProjectId,SMA_Driver_V1,534D415F4472697665725F56312E6B69,rev?*
G04 #@! TF.SameCoordinates,Original*
G04 #@! TF.FileFunction,Legend,Bot*
G04 #@! TF.FilePolarity,Positive*
%FSLAX46Y46*%
G04 Gerber Fmt 4.6, Leading zero omitted, Abs format (unit mm)*
G04 Created by KiCad (PCBNEW (5.0.1)-3) date 1/9/2019 23:58:32*
%MOMM*%
%LPD*%
G01*
G04 APERTURE LIST*
%ADD10C,0.150000*%
%ADD11C,0.300000*%
%ADD12C,0.120000*%
G04 APERTURE END LIST*
D10*
X52761318Y-21185142D02*
X52814889Y-21232761D01*
X52963699Y-21280380D01*
X53058937Y-21280380D01*
X53195842Y-21232761D01*
X53279175Y-21137523D01*
X53314889Y-21042285D01*
X53338699Y-20851809D01*
X53320842Y-20708952D01*
X53249413Y-20518476D01*
X53189889Y-20423238D01*
X53082747Y-20328000D01*
X52933937Y-20280380D01*
X52838699Y-20280380D01*
X52701794Y-20328000D01*
X52660127Y-20375619D01*
X51868461Y-21280380D02*
X52344651Y-21280380D01*
X52219651Y-20280380D01*
D11*
X13508880Y-42751357D02*
X11985071Y-42751357D01*
X12746976Y-43513261D02*
X12746976Y-41989452D01*
X10080309Y-41513261D02*
X11032690Y-41513261D01*
X11127928Y-42465642D01*
X11032690Y-42370404D01*
X10842214Y-42275166D01*
X10366023Y-42275166D01*
X10175547Y-42370404D01*
X10080309Y-42465642D01*
X9985071Y-42656119D01*
X9985071Y-43132309D01*
X10080309Y-43322785D01*
X10175547Y-43418023D01*
X10366023Y-43513261D01*
X10842214Y-43513261D01*
X11032690Y-43418023D01*
X11127928Y-43322785D01*
X9413642Y-41513261D02*
X8746976Y-43513261D01*
X8080309Y-41513261D01*
X5889833Y-42465642D02*
X5223166Y-42465642D01*
X4937452Y-43513261D02*
X5889833Y-43513261D01*
X5889833Y-41513261D01*
X4937452Y-41513261D01*
X4270785Y-41513261D02*
X2937452Y-43513261D01*
X2937452Y-41513261D02*
X4270785Y-43513261D01*
X2461261Y-41513261D02*
X1318404Y-41513261D01*
X1889833Y-43513261D02*
X1889833Y-41513261D01*
X6984809Y-23765000D02*
X7175285Y-23669761D01*
X7461000Y-23669761D01*
X7746714Y-23765000D01*
X7937190Y-23955476D01*
X8032428Y-24145952D01*
X8127666Y-24526904D01*
X8127666Y-24812619D01*
X8032428Y-25193571D01*
X7937190Y-25384047D01*
X7746714Y-25574523D01*
X7461000Y-25669761D01*
X7270523Y-25669761D01*
X6984809Y-25574523D01*
X6889571Y-25479285D01*
X6889571Y-24812619D01*
X7270523Y-24812619D01*
X6032428Y-25669761D02*
X6032428Y-23669761D01*
X4889571Y-25669761D01*
X4889571Y-23669761D01*
X3937190Y-25669761D02*
X3937190Y-23669761D01*
X3461000Y-23669761D01*
X3175285Y-23765000D01*
X2984809Y-23955476D01*
X2889571Y-24145952D01*
X2794333Y-24526904D01*
X2794333Y-24812619D01*
X2889571Y-25193571D01*
X2984809Y-25384047D01*
X3175285Y-25574523D01*
X3461000Y-25669761D01*
X3937190Y-25669761D01*
X86423309Y-23320500D02*
X86613785Y-23225261D01*
X86899500Y-23225261D01*
X87185214Y-23320500D01*
X87375690Y-23510976D01*
X87470928Y-23701452D01*
X87566166Y-24082404D01*
X87566166Y-24368119D01*
X87470928Y-24749071D01*
X87375690Y-24939547D01*
X87185214Y-25130023D01*
X86899500Y-25225261D01*
X86709023Y-25225261D01*
X86423309Y-25130023D01*
X86328071Y-25034785D01*
X86328071Y-24368119D01*
X86709023Y-24368119D01*
X85470928Y-25225261D02*
X85470928Y-23225261D01*
X84328071Y-25225261D01*
X84328071Y-23225261D01*
X83375690Y-25225261D02*
X83375690Y-23225261D01*
X82899500Y-23225261D01*
X82613785Y-23320500D01*
X82423309Y-23510976D01*
X82328071Y-23701452D01*
X82232833Y-24082404D01*
X82232833Y-24368119D01*
X82328071Y-24749071D01*
X82423309Y-24939547D01*
X82613785Y-25130023D01*
X82899500Y-25225261D01*
X83375690Y-25225261D01*
X89121809Y-8778857D02*
X87598000Y-8778857D01*
X88359904Y-9540761D02*
X88359904Y-8016952D01*
X85598000Y-9540761D02*
X86740857Y-9540761D01*
X86169428Y-9540761D02*
X86169428Y-7540761D01*
X86359904Y-7826476D01*
X86550380Y-8016952D01*
X86740857Y-8112190D01*
X84836095Y-7731238D02*
X84740857Y-7636000D01*
X84550380Y-7540761D01*
X84074190Y-7540761D01*
X83883714Y-7636000D01*
X83788476Y-7731238D01*
X83693238Y-7921714D01*
X83693238Y-8112190D01*
X83788476Y-8397904D01*
X84931333Y-9540761D01*
X83693238Y-9540761D01*
X83121809Y-7540761D02*
X82455142Y-9540761D01*
X81788476Y-7540761D01*
D12*
G04 #@! TO.C,J1*
X91491800Y-71313000D02*
X88071800Y-71313000D01*
X88071800Y-71313000D02*
X88071800Y-51843000D01*
X88071800Y-51843000D02*
X91491800Y-51843000D01*
X91491800Y-51843000D02*
X91491800Y-71313000D01*
X88581800Y-61578000D02*
X88581800Y-70803000D01*
X88581800Y-70803000D02*
X89331800Y-70803000D01*
X89331800Y-70803000D02*
X89331800Y-71003000D01*
X89331800Y-71003000D02*
X90131800Y-71003000D01*
X90131800Y-71003000D02*
X90131800Y-70803000D01*
X90131800Y-70803000D02*
X90981800Y-70803000D01*
X90981800Y-70803000D02*
X90981800Y-61578000D01*
X88581800Y-61578000D02*
X88581800Y-52353000D01*
X88581800Y-52353000D02*
X89331800Y-52353000D01*
X89331800Y-52353000D02*
X89331800Y-52153000D01*
X89331800Y-52153000D02*
X90131800Y-52153000D01*
X90131800Y-52153000D02*
X90131800Y-52353000D01*
X90131800Y-52353000D02*
X90981800Y-52353000D01*
X90981800Y-52353000D02*
X90981800Y-61578000D01*
X87781800Y-71603000D02*
X88781800Y-71603000D01*
X87781800Y-71603000D02*
X87781800Y-70603000D01*
G04 #@! TO.C,R2*
X54043000Y-17315436D02*
X54043000Y-21419564D01*
X57463000Y-17315436D02*
X57463000Y-21419564D01*
D10*
G04 #@! TO.C,Q3*
X75798000Y-24902000D02*
X70798000Y-24902000D01*
X75798000Y-32502000D02*
X75798000Y-24902000D01*
X69998000Y-32502000D02*
X75798000Y-32502000D01*
X69998000Y-25702000D02*
X69998000Y-32502000D01*
X70798000Y-24902000D02*
X69998000Y-25702000D01*
G04 #@! TO.C,Q4*
X62670000Y-24902000D02*
X61870000Y-25702000D01*
X61870000Y-25702000D02*
X61870000Y-32502000D01*
X61870000Y-32502000D02*
X67670000Y-32502000D01*
X67670000Y-32502000D02*
X67670000Y-24902000D01*
X67670000Y-24902000D02*
X62670000Y-24902000D01*
G04 #@! TO.C,Q2*
X38794000Y-24762500D02*
X37994000Y-25562500D01*
X37994000Y-25562500D02*
X37994000Y-32362500D01*
X37994000Y-32362500D02*
X43794000Y-32362500D01*
X43794000Y-32362500D02*
X43794000Y-24762500D01*
X43794000Y-24762500D02*
X38794000Y-24762500D01*
G04 #@! TO.C,Q1*
X30539000Y-24775000D02*
X29739000Y-25575000D01*
X29739000Y-25575000D02*
X29739000Y-32375000D01*
X29739000Y-32375000D02*
X35539000Y-32375000D01*
X35539000Y-32375000D02*
X35539000Y-24775000D01*
X35539000Y-24775000D02*
X30539000Y-24775000D01*
D12*
G04 #@! TO.C,A1*
X83746800Y-52955000D02*
X83746800Y-85725000D01*
X83746800Y-85725000D02*
X81206800Y-88265000D01*
X81206800Y-88265000D02*
X81206800Y-90935000D01*
X81206800Y-90935000D02*
X14906800Y-90935000D01*
X14906800Y-90935000D02*
X14906800Y-87755000D01*
X14906800Y-87755000D02*
X13006800Y-87755000D01*
X13006800Y-87755000D02*
X13006800Y-78615000D01*
X13006800Y-78615000D02*
X14906800Y-78615000D01*
X14906800Y-78615000D02*
X14906800Y-58545000D01*
X14906800Y-58545000D02*
X8556800Y-58545000D01*
X8556800Y-58545000D02*
X8556800Y-46865000D01*
X8556800Y-46865000D02*
X14906800Y-46865000D01*
X14906800Y-46865000D02*
X14906800Y-37335000D01*
X14906800Y-37335000D02*
X79556800Y-37335000D01*
X79556800Y-37335000D02*
X81206800Y-38985000D01*
X81206800Y-38985000D02*
X81206800Y-50415000D01*
X81206800Y-50415000D02*
X83746800Y-52955000D01*
G04 #@! TO.C,TP1*
X82509000Y-9992000D02*
X82509000Y-14392000D01*
X82509000Y-14392000D02*
X86909000Y-14392000D01*
X86909000Y-14392000D02*
X86909000Y-9992000D01*
X86909000Y-9992000D02*
X82509000Y-9992000D01*
D10*
G04 #@! TO.C,U1*
X42809171Y-720008D02*
X42809171Y-12150008D01*
X63129171Y-720008D02*
X42809171Y-720008D01*
X42809171Y-12150008D02*
X63129171Y-12150008D01*
X63129171Y-12150008D02*
X63129171Y-720008D01*
D12*
G04 #@! TO.C,C1*
X68251000Y-1897748D02*
X68251000Y-2420252D01*
X69671000Y-1897748D02*
X69671000Y-2420252D01*
G04 #@! TO.C,C2*
X65353000Y-1888748D02*
X65353000Y-2411252D01*
X63933000Y-1888748D02*
X63933000Y-2411252D01*
G04 #@! TO.C,C3*
X66092000Y-1897748D02*
X66092000Y-2420252D01*
X67512000Y-1897748D02*
X67512000Y-2420252D01*
G04 #@! TO.C,C6*
X45137000Y-17645748D02*
X45137000Y-18168252D01*
X46557000Y-17645748D02*
X46557000Y-18168252D01*
G04 #@! TO.C,C7*
X60273000Y-17645748D02*
X60273000Y-18168252D01*
X58853000Y-17645748D02*
X58853000Y-18168252D01*
G04 #@! TO.C,C8*
X71027500Y-1005500D02*
X71652500Y-1005500D01*
X71340000Y-693000D02*
X71340000Y-1318000D01*
X74720563Y-1558000D02*
X75785000Y-2622437D01*
X71329437Y-1558000D02*
X70265000Y-2622437D01*
X71329437Y-1558000D02*
X71965000Y-1558000D01*
X74720563Y-1558000D02*
X74085000Y-1558000D01*
X75785000Y-2622437D02*
X75785000Y-7078000D01*
X70265000Y-2622437D02*
X70265000Y-7078000D01*
X70265000Y-7078000D02*
X71965000Y-7078000D01*
X75785000Y-7078000D02*
X74085000Y-7078000D01*
G04 #@! TO.C,C9*
X81754000Y-7078000D02*
X80054000Y-7078000D01*
X76234000Y-7078000D02*
X77934000Y-7078000D01*
X76234000Y-2622437D02*
X76234000Y-7078000D01*
X81754000Y-2622437D02*
X81754000Y-7078000D01*
X80689563Y-1558000D02*
X80054000Y-1558000D01*
X77298437Y-1558000D02*
X77934000Y-1558000D01*
X77298437Y-1558000D02*
X76234000Y-2622437D01*
X80689563Y-1558000D02*
X81754000Y-2622437D01*
X77309000Y-693000D02*
X77309000Y-1318000D01*
X76996500Y-1005500D02*
X77621500Y-1005500D01*
G04 #@! TO.C,C13*
X72162000Y-22192000D02*
X72162000Y-13957000D01*
X72162000Y-13957000D02*
X76682000Y-13957000D01*
X76682000Y-13957000D02*
X76682000Y-22192000D01*
G04 #@! TO.C,C14*
X66955000Y-22192000D02*
X66955000Y-13957000D01*
X66955000Y-13957000D02*
X71475000Y-13957000D01*
X71475000Y-13957000D02*
X71475000Y-22192000D01*
G04 #@! TO.C,C15*
X61875000Y-22150008D02*
X61875000Y-13915008D01*
X61875000Y-13915008D02*
X66395000Y-13915008D01*
X66395000Y-13915008D02*
X66395000Y-22150008D01*
G04 #@! TO.C,C17*
X33248000Y-13830000D02*
X33248000Y-22065000D01*
X28728000Y-13830000D02*
X33248000Y-13830000D01*
X28728000Y-22065000D02*
X28728000Y-13830000D01*
G04 #@! TO.C,C18*
X35408200Y-13560008D02*
X35408200Y-5325008D01*
X39928200Y-13560008D02*
X35408200Y-13560008D01*
X39928200Y-5325008D02*
X39928200Y-13560008D01*
G04 #@! TO.C,C19*
X69697000Y-5325008D02*
X69697000Y-13560008D01*
X69697000Y-13560008D02*
X65177000Y-13560008D01*
X65177000Y-13560008D02*
X65177000Y-5325008D01*
G04 #@! TO.C,C20*
X43789000Y-13830000D02*
X43789000Y-22065000D01*
X39269000Y-13830000D02*
X43789000Y-13830000D01*
X39269000Y-22065000D02*
X39269000Y-13830000D01*
G04 #@! TO.C,C21*
X34062000Y-22065000D02*
X34062000Y-13830000D01*
X34062000Y-13830000D02*
X38582000Y-13830000D01*
X38582000Y-13830000D02*
X38582000Y-22065000D01*
G04 #@! TO.C,R4*
X48074000Y-17336944D02*
X48074000Y-21441072D01*
X51494000Y-17336944D02*
X51494000Y-21441072D01*
G04 #@! TO.C,TP2*
X82509000Y-17485000D02*
X82509000Y-21885000D01*
X86909000Y-17485000D02*
X82509000Y-17485000D01*
X86909000Y-21885000D02*
X86909000Y-17485000D01*
X82509000Y-21885000D02*
X86909000Y-21885000D01*
G04 #@! TO.C,TP3*
X7711800Y-26375000D02*
X3311800Y-26375000D01*
X3311800Y-26375000D02*
X3311800Y-30775000D01*
X3311800Y-30775000D02*
X7711800Y-30775000D01*
X7711800Y-30775000D02*
X7711800Y-26375000D01*
G04 #@! TO.C,TP12*
X7711800Y-40300000D02*
X7711800Y-35900000D01*
X3311800Y-40300000D02*
X7711800Y-40300000D01*
X3311800Y-35900000D02*
X3311800Y-40300000D01*
X7711800Y-35900000D02*
X3311800Y-35900000D01*
G04 #@! TO.C,J1*
D10*
X86447380Y-61896666D02*
X87161666Y-61896666D01*
X87304523Y-61849047D01*
X87399761Y-61753809D01*
X87447380Y-61610952D01*
X87447380Y-61515714D01*
X87447380Y-62896666D02*
X87447380Y-62325238D01*
X87447380Y-62610952D02*
X86447380Y-62610952D01*
X86590238Y-62515714D01*
X86685476Y-62420476D01*
X86733095Y-62325238D01*
G04 #@! TO.C,R2*
X55792666Y-14422380D02*
X56126000Y-13946190D01*
X56364095Y-14422380D02*
X56364095Y-13422380D01*
X55983142Y-13422380D01*
X55887904Y-13470000D01*
X55840285Y-13517619D01*
X55792666Y-13612857D01*
X55792666Y-13755714D01*
X55840285Y-13850952D01*
X55887904Y-13898571D01*
X55983142Y-13946190D01*
X56364095Y-13946190D01*
X55411714Y-13517619D02*
X55364095Y-13470000D01*
X55268857Y-13422380D01*
X55030761Y-13422380D01*
X54935523Y-13470000D01*
X54887904Y-13517619D01*
X54840285Y-13612857D01*
X54840285Y-13708095D01*
X54887904Y-13850952D01*
X55459333Y-14422380D01*
X54840285Y-14422380D01*
G04 #@! TO.C,Q3*
X68570380Y-28797238D02*
X68618000Y-28892476D01*
X68713238Y-28987714D01*
X68856095Y-29130571D01*
X68903714Y-29225809D01*
X68903714Y-29321047D01*
X68665619Y-29273428D02*
X68713238Y-29368666D01*
X68808476Y-29463904D01*
X68998952Y-29511523D01*
X69332285Y-29511523D01*
X69522761Y-29463904D01*
X69618000Y-29368666D01*
X69665619Y-29273428D01*
X69665619Y-29082952D01*
X69618000Y-28987714D01*
X69522761Y-28892476D01*
X69332285Y-28844857D01*
X68998952Y-28844857D01*
X68808476Y-28892476D01*
X68713238Y-28987714D01*
X68665619Y-29082952D01*
X68665619Y-29273428D01*
X69665619Y-28511523D02*
X69665619Y-27892476D01*
X69284666Y-28225809D01*
X69284666Y-28082952D01*
X69237047Y-27987714D01*
X69189428Y-27940095D01*
X69094190Y-27892476D01*
X68856095Y-27892476D01*
X68760857Y-27940095D01*
X68713238Y-27987714D01*
X68665619Y-28082952D01*
X68665619Y-28368666D01*
X68713238Y-28463904D01*
X68760857Y-28511523D01*
G04 #@! TO.C,Q4*
X60442380Y-28797238D02*
X60490000Y-28892476D01*
X60585238Y-28987714D01*
X60728095Y-29130571D01*
X60775714Y-29225809D01*
X60775714Y-29321047D01*
X60537619Y-29273428D02*
X60585238Y-29368666D01*
X60680476Y-29463904D01*
X60870952Y-29511523D01*
X61204285Y-29511523D01*
X61394761Y-29463904D01*
X61490000Y-29368666D01*
X61537619Y-29273428D01*
X61537619Y-29082952D01*
X61490000Y-28987714D01*
X61394761Y-28892476D01*
X61204285Y-28844857D01*
X60870952Y-28844857D01*
X60680476Y-28892476D01*
X60585238Y-28987714D01*
X60537619Y-29082952D01*
X60537619Y-29273428D01*
X61204285Y-27987714D02*
X60537619Y-27987714D01*
X61585238Y-28225809D02*
X60870952Y-28463904D01*
X60870952Y-27844857D01*
G04 #@! TO.C,Q2*
X36566380Y-28657738D02*
X36614000Y-28752976D01*
X36709238Y-28848214D01*
X36852095Y-28991071D01*
X36899714Y-29086309D01*
X36899714Y-29181547D01*
X36661619Y-29133928D02*
X36709238Y-29229166D01*
X36804476Y-29324404D01*
X36994952Y-29372023D01*
X37328285Y-29372023D01*
X37518761Y-29324404D01*
X37614000Y-29229166D01*
X37661619Y-29133928D01*
X37661619Y-28943452D01*
X37614000Y-28848214D01*
X37518761Y-28752976D01*
X37328285Y-28705357D01*
X36994952Y-28705357D01*
X36804476Y-28752976D01*
X36709238Y-28848214D01*
X36661619Y-28943452D01*
X36661619Y-29133928D01*
X37566380Y-28324404D02*
X37614000Y-28276785D01*
X37661619Y-28181547D01*
X37661619Y-27943452D01*
X37614000Y-27848214D01*
X37566380Y-27800595D01*
X37471142Y-27752976D01*
X37375904Y-27752976D01*
X37233047Y-27800595D01*
X36661619Y-28372023D01*
X36661619Y-27752976D01*
G04 #@! TO.C,Q1*
X28311380Y-28670238D02*
X28359000Y-28765476D01*
X28454238Y-28860714D01*
X28597095Y-29003571D01*
X28644714Y-29098809D01*
X28644714Y-29194047D01*
X28406619Y-29146428D02*
X28454238Y-29241666D01*
X28549476Y-29336904D01*
X28739952Y-29384523D01*
X29073285Y-29384523D01*
X29263761Y-29336904D01*
X29359000Y-29241666D01*
X29406619Y-29146428D01*
X29406619Y-28955952D01*
X29359000Y-28860714D01*
X29263761Y-28765476D01*
X29073285Y-28717857D01*
X28739952Y-28717857D01*
X28549476Y-28765476D01*
X28454238Y-28860714D01*
X28406619Y-28955952D01*
X28406619Y-29146428D01*
X28406619Y-27765476D02*
X28406619Y-28336904D01*
X28406619Y-28051190D02*
X29406619Y-28051190D01*
X29263761Y-28146428D01*
X29168523Y-28241666D01*
X29120904Y-28336904D01*
G04 #@! TO.C,A1*
X44961085Y-92241666D02*
X44484895Y-92241666D01*
X45056323Y-92527380D02*
X44722990Y-91527380D01*
X44389657Y-92527380D01*
X43532514Y-92527380D02*
X44103942Y-92527380D01*
X43818228Y-92527380D02*
X43818228Y-91527380D01*
X43913466Y-91670238D01*
X44008704Y-91765476D01*
X44103942Y-91813095D01*
G04 #@! TO.C,U1*
X46111075Y-12872388D02*
X46111075Y-13681912D01*
X46063456Y-13777150D01*
X46015837Y-13824769D01*
X45920599Y-13872388D01*
X45730123Y-13872388D01*
X45634885Y-13824769D01*
X45587266Y-13777150D01*
X45539647Y-13681912D01*
X45539647Y-12872388D01*
X44539647Y-13872388D02*
X45111075Y-13872388D01*
X44825361Y-13872388D02*
X44825361Y-12872388D01*
X44920599Y-13015246D01*
X45015837Y-13110484D01*
X45111075Y-13158103D01*
G04 #@! TO.C,C1*
X69445142Y-4786333D02*
X69492761Y-4738714D01*
X69540380Y-4595857D01*
X69540380Y-4500619D01*
X69492761Y-4357761D01*
X69397523Y-4262523D01*
X69302285Y-4214904D01*
X69111809Y-4167285D01*
X68968952Y-4167285D01*
X68778476Y-4214904D01*
X68683238Y-4262523D01*
X68588000Y-4357761D01*
X68540380Y-4500619D01*
X68540380Y-4595857D01*
X68588000Y-4738714D01*
X68635619Y-4786333D01*
X69540380Y-5738714D02*
X69540380Y-5167285D01*
X69540380Y-5453000D02*
X68540380Y-5453000D01*
X68683238Y-5357761D01*
X68778476Y-5262523D01*
X68826095Y-5167285D01*
G04 #@! TO.C,C2*
X64873142Y-4659333D02*
X64920761Y-4611714D01*
X64968380Y-4468857D01*
X64968380Y-4373619D01*
X64920761Y-4230761D01*
X64825523Y-4135523D01*
X64730285Y-4087904D01*
X64539809Y-4040285D01*
X64396952Y-4040285D01*
X64206476Y-4087904D01*
X64111238Y-4135523D01*
X64016000Y-4230761D01*
X63968380Y-4373619D01*
X63968380Y-4468857D01*
X64016000Y-4611714D01*
X64063619Y-4659333D01*
X64063619Y-5040285D02*
X64016000Y-5087904D01*
X63968380Y-5183142D01*
X63968380Y-5421238D01*
X64016000Y-5516476D01*
X64063619Y-5564095D01*
X64158857Y-5611714D01*
X64254095Y-5611714D01*
X64396952Y-5564095D01*
X64968380Y-4992666D01*
X64968380Y-5611714D01*
G04 #@! TO.C,C6*
X46013666Y-21248642D02*
X46061285Y-21296261D01*
X46204142Y-21343880D01*
X46299380Y-21343880D01*
X46442238Y-21296261D01*
X46537476Y-21201023D01*
X46585095Y-21105785D01*
X46632714Y-20915309D01*
X46632714Y-20772452D01*
X46585095Y-20581976D01*
X46537476Y-20486738D01*
X46442238Y-20391500D01*
X46299380Y-20343880D01*
X46204142Y-20343880D01*
X46061285Y-20391500D01*
X46013666Y-20439119D01*
X45156523Y-20343880D02*
X45347000Y-20343880D01*
X45442238Y-20391500D01*
X45489857Y-20439119D01*
X45585095Y-20581976D01*
X45632714Y-20772452D01*
X45632714Y-21153404D01*
X45585095Y-21248642D01*
X45537476Y-21296261D01*
X45442238Y-21343880D01*
X45251761Y-21343880D01*
X45156523Y-21296261D01*
X45108904Y-21248642D01*
X45061285Y-21153404D01*
X45061285Y-20915309D01*
X45108904Y-20820071D01*
X45156523Y-20772452D01*
X45251761Y-20724833D01*
X45442238Y-20724833D01*
X45537476Y-20772452D01*
X45585095Y-20820071D01*
X45632714Y-20915309D01*
G04 #@! TO.C,C7*
X59729666Y-21121642D02*
X59777285Y-21169261D01*
X59920142Y-21216880D01*
X60015380Y-21216880D01*
X60158238Y-21169261D01*
X60253476Y-21074023D01*
X60301095Y-20978785D01*
X60348714Y-20788309D01*
X60348714Y-20645452D01*
X60301095Y-20454976D01*
X60253476Y-20359738D01*
X60158238Y-20264500D01*
X60015380Y-20216880D01*
X59920142Y-20216880D01*
X59777285Y-20264500D01*
X59729666Y-20312119D01*
X59396333Y-20216880D02*
X58729666Y-20216880D01*
X59158238Y-21216880D01*
G04 #@! TO.C,C8*
X75160142Y-8469333D02*
X75207761Y-8421714D01*
X75255380Y-8278857D01*
X75255380Y-8183619D01*
X75207761Y-8040761D01*
X75112523Y-7945523D01*
X75017285Y-7897904D01*
X74826809Y-7850285D01*
X74683952Y-7850285D01*
X74493476Y-7897904D01*
X74398238Y-7945523D01*
X74303000Y-8040761D01*
X74255380Y-8183619D01*
X74255380Y-8278857D01*
X74303000Y-8421714D01*
X74350619Y-8469333D01*
X74683952Y-9040761D02*
X74636333Y-8945523D01*
X74588714Y-8897904D01*
X74493476Y-8850285D01*
X74445857Y-8850285D01*
X74350619Y-8897904D01*
X74303000Y-8945523D01*
X74255380Y-9040761D01*
X74255380Y-9231238D01*
X74303000Y-9326476D01*
X74350619Y-9374095D01*
X74445857Y-9421714D01*
X74493476Y-9421714D01*
X74588714Y-9374095D01*
X74636333Y-9326476D01*
X74683952Y-9231238D01*
X74683952Y-9040761D01*
X74731571Y-8945523D01*
X74779190Y-8897904D01*
X74874428Y-8850285D01*
X75064904Y-8850285D01*
X75160142Y-8897904D01*
X75207761Y-8945523D01*
X75255380Y-9040761D01*
X75255380Y-9231238D01*
X75207761Y-9326476D01*
X75160142Y-9374095D01*
X75064904Y-9421714D01*
X74874428Y-9421714D01*
X74779190Y-9374095D01*
X74731571Y-9326476D01*
X74683952Y-9231238D01*
G04 #@! TO.C,C9*
X83288142Y-4532333D02*
X83335761Y-4484714D01*
X83383380Y-4341857D01*
X83383380Y-4246619D01*
X83335761Y-4103761D01*
X83240523Y-4008523D01*
X83145285Y-3960904D01*
X82954809Y-3913285D01*
X82811952Y-3913285D01*
X82621476Y-3960904D01*
X82526238Y-4008523D01*
X82431000Y-4103761D01*
X82383380Y-4246619D01*
X82383380Y-4341857D01*
X82431000Y-4484714D01*
X82478619Y-4532333D01*
X83383380Y-5008523D02*
X83383380Y-5199000D01*
X83335761Y-5294238D01*
X83288142Y-5341857D01*
X83145285Y-5437095D01*
X82954809Y-5484714D01*
X82573857Y-5484714D01*
X82478619Y-5437095D01*
X82431000Y-5389476D01*
X82383380Y-5294238D01*
X82383380Y-5103761D01*
X82431000Y-5008523D01*
X82478619Y-4960904D01*
X82573857Y-4913285D01*
X82811952Y-4913285D01*
X82907190Y-4960904D01*
X82954809Y-5008523D01*
X83002428Y-5103761D01*
X83002428Y-5294238D01*
X82954809Y-5389476D01*
X82907190Y-5437095D01*
X82811952Y-5484714D01*
G04 #@! TO.C,C13*
X75001357Y-19661142D02*
X75048976Y-19708761D01*
X75191833Y-19756380D01*
X75287071Y-19756380D01*
X75429928Y-19708761D01*
X75525166Y-19613523D01*
X75572785Y-19518285D01*
X75620404Y-19327809D01*
X75620404Y-19184952D01*
X75572785Y-18994476D01*
X75525166Y-18899238D01*
X75429928Y-18804000D01*
X75287071Y-18756380D01*
X75191833Y-18756380D01*
X75048976Y-18804000D01*
X75001357Y-18851619D01*
X74048976Y-19756380D02*
X74620404Y-19756380D01*
X74334690Y-19756380D02*
X74334690Y-18756380D01*
X74429928Y-18899238D01*
X74525166Y-18994476D01*
X74620404Y-19042095D01*
X73715642Y-18756380D02*
X73096595Y-18756380D01*
X73429928Y-19137333D01*
X73287071Y-19137333D01*
X73191833Y-19184952D01*
X73144214Y-19232571D01*
X73096595Y-19327809D01*
X73096595Y-19565904D01*
X73144214Y-19661142D01*
X73191833Y-19708761D01*
X73287071Y-19756380D01*
X73572785Y-19756380D01*
X73668023Y-19708761D01*
X73715642Y-19661142D01*
G04 #@! TO.C,C14*
X69730857Y-19280142D02*
X69778476Y-19327761D01*
X69921333Y-19375380D01*
X70016571Y-19375380D01*
X70159428Y-19327761D01*
X70254666Y-19232523D01*
X70302285Y-19137285D01*
X70349904Y-18946809D01*
X70349904Y-18803952D01*
X70302285Y-18613476D01*
X70254666Y-18518238D01*
X70159428Y-18423000D01*
X70016571Y-18375380D01*
X69921333Y-18375380D01*
X69778476Y-18423000D01*
X69730857Y-18470619D01*
X68778476Y-19375380D02*
X69349904Y-19375380D01*
X69064190Y-19375380D02*
X69064190Y-18375380D01*
X69159428Y-18518238D01*
X69254666Y-18613476D01*
X69349904Y-18661095D01*
X67921333Y-18708714D02*
X67921333Y-19375380D01*
X68159428Y-18327761D02*
X68397523Y-19042047D01*
X67778476Y-19042047D01*
G04 #@! TO.C,C15*
X64523857Y-19407142D02*
X64571476Y-19454761D01*
X64714333Y-19502380D01*
X64809571Y-19502380D01*
X64952428Y-19454761D01*
X65047666Y-19359523D01*
X65095285Y-19264285D01*
X65142904Y-19073809D01*
X65142904Y-18930952D01*
X65095285Y-18740476D01*
X65047666Y-18645238D01*
X64952428Y-18550000D01*
X64809571Y-18502380D01*
X64714333Y-18502380D01*
X64571476Y-18550000D01*
X64523857Y-18597619D01*
X63571476Y-19502380D02*
X64142904Y-19502380D01*
X63857190Y-19502380D02*
X63857190Y-18502380D01*
X63952428Y-18645238D01*
X64047666Y-18740476D01*
X64142904Y-18788095D01*
X62666714Y-18502380D02*
X63142904Y-18502380D01*
X63190523Y-18978571D01*
X63142904Y-18930952D01*
X63047666Y-18883333D01*
X62809571Y-18883333D01*
X62714333Y-18930952D01*
X62666714Y-18978571D01*
X62619095Y-19073809D01*
X62619095Y-19311904D01*
X62666714Y-19407142D01*
X62714333Y-19454761D01*
X62809571Y-19502380D01*
X63047666Y-19502380D01*
X63142904Y-19454761D01*
X63190523Y-19407142D01*
G04 #@! TO.C,C17*
X31757857Y-19407142D02*
X31805476Y-19454761D01*
X31948333Y-19502380D01*
X32043571Y-19502380D01*
X32186428Y-19454761D01*
X32281666Y-19359523D01*
X32329285Y-19264285D01*
X32376904Y-19073809D01*
X32376904Y-18930952D01*
X32329285Y-18740476D01*
X32281666Y-18645238D01*
X32186428Y-18550000D01*
X32043571Y-18502380D01*
X31948333Y-18502380D01*
X31805476Y-18550000D01*
X31757857Y-18597619D01*
X30805476Y-19502380D02*
X31376904Y-19502380D01*
X31091190Y-19502380D02*
X31091190Y-18502380D01*
X31186428Y-18645238D01*
X31281666Y-18740476D01*
X31376904Y-18788095D01*
X30472142Y-18502380D02*
X29805476Y-18502380D01*
X30234047Y-19502380D01*
G04 #@! TO.C,C18*
X41125342Y-8332150D02*
X41172961Y-8284531D01*
X41220580Y-8141674D01*
X41220580Y-8046436D01*
X41172961Y-7903579D01*
X41077723Y-7808341D01*
X40982485Y-7760722D01*
X40792009Y-7713103D01*
X40649152Y-7713103D01*
X40458676Y-7760722D01*
X40363438Y-7808341D01*
X40268200Y-7903579D01*
X40220580Y-8046436D01*
X40220580Y-8141674D01*
X40268200Y-8284531D01*
X40315819Y-8332150D01*
X41220580Y-9284531D02*
X41220580Y-8713103D01*
X41220580Y-8998817D02*
X40220580Y-8998817D01*
X40363438Y-8903579D01*
X40458676Y-8808341D01*
X40506295Y-8713103D01*
X40649152Y-9855960D02*
X40601533Y-9760722D01*
X40553914Y-9713103D01*
X40458676Y-9665484D01*
X40411057Y-9665484D01*
X40315819Y-9713103D01*
X40268200Y-9760722D01*
X40220580Y-9855960D01*
X40220580Y-10046436D01*
X40268200Y-10141674D01*
X40315819Y-10189293D01*
X40411057Y-10236912D01*
X40458676Y-10236912D01*
X40553914Y-10189293D01*
X40601533Y-10141674D01*
X40649152Y-10046436D01*
X40649152Y-9855960D01*
X40696771Y-9760722D01*
X40744390Y-9713103D01*
X40839628Y-9665484D01*
X41030104Y-9665484D01*
X41125342Y-9713103D01*
X41172961Y-9760722D01*
X41220580Y-9855960D01*
X41220580Y-10046436D01*
X41172961Y-10141674D01*
X41125342Y-10189293D01*
X41030104Y-10236912D01*
X40839628Y-10236912D01*
X40744390Y-10189293D01*
X40696771Y-10141674D01*
X40649152Y-10046436D01*
G04 #@! TO.C,C19*
X70894142Y-8332150D02*
X70941761Y-8284531D01*
X70989380Y-8141674D01*
X70989380Y-8046436D01*
X70941761Y-7903579D01*
X70846523Y-7808341D01*
X70751285Y-7760722D01*
X70560809Y-7713103D01*
X70417952Y-7713103D01*
X70227476Y-7760722D01*
X70132238Y-7808341D01*
X70037000Y-7903579D01*
X69989380Y-8046436D01*
X69989380Y-8141674D01*
X70037000Y-8284531D01*
X70084619Y-8332150D01*
X70989380Y-9284531D02*
X70989380Y-8713103D01*
X70989380Y-8998817D02*
X69989380Y-8998817D01*
X70132238Y-8903579D01*
X70227476Y-8808341D01*
X70275095Y-8713103D01*
X70989380Y-9760722D02*
X70989380Y-9951198D01*
X70941761Y-10046436D01*
X70894142Y-10094055D01*
X70751285Y-10189293D01*
X70560809Y-10236912D01*
X70179857Y-10236912D01*
X70084619Y-10189293D01*
X70037000Y-10141674D01*
X69989380Y-10046436D01*
X69989380Y-9855960D01*
X70037000Y-9760722D01*
X70084619Y-9713103D01*
X70179857Y-9665484D01*
X70417952Y-9665484D01*
X70513190Y-9713103D01*
X70560809Y-9760722D01*
X70608428Y-9855960D01*
X70608428Y-10046436D01*
X70560809Y-10141674D01*
X70513190Y-10189293D01*
X70417952Y-10236912D01*
G04 #@! TO.C,C20*
X42235357Y-19470642D02*
X42282976Y-19518261D01*
X42425833Y-19565880D01*
X42521071Y-19565880D01*
X42663928Y-19518261D01*
X42759166Y-19423023D01*
X42806785Y-19327785D01*
X42854404Y-19137309D01*
X42854404Y-18994452D01*
X42806785Y-18803976D01*
X42759166Y-18708738D01*
X42663928Y-18613500D01*
X42521071Y-18565880D01*
X42425833Y-18565880D01*
X42282976Y-18613500D01*
X42235357Y-18661119D01*
X41854404Y-18661119D02*
X41806785Y-18613500D01*
X41711547Y-18565880D01*
X41473452Y-18565880D01*
X41378214Y-18613500D01*
X41330595Y-18661119D01*
X41282976Y-18756357D01*
X41282976Y-18851595D01*
X41330595Y-18994452D01*
X41902023Y-19565880D01*
X41282976Y-19565880D01*
X40663928Y-18565880D02*
X40568690Y-18565880D01*
X40473452Y-18613500D01*
X40425833Y-18661119D01*
X40378214Y-18756357D01*
X40330595Y-18946833D01*
X40330595Y-19184928D01*
X40378214Y-19375404D01*
X40425833Y-19470642D01*
X40473452Y-19518261D01*
X40568690Y-19565880D01*
X40663928Y-19565880D01*
X40759166Y-19518261D01*
X40806785Y-19470642D01*
X40854404Y-19375404D01*
X40902023Y-19184928D01*
X40902023Y-18946833D01*
X40854404Y-18756357D01*
X40806785Y-18661119D01*
X40759166Y-18613500D01*
X40663928Y-18565880D01*
G04 #@! TO.C,C21*
X36964857Y-19343642D02*
X37012476Y-19391261D01*
X37155333Y-19438880D01*
X37250571Y-19438880D01*
X37393428Y-19391261D01*
X37488666Y-19296023D01*
X37536285Y-19200785D01*
X37583904Y-19010309D01*
X37583904Y-18867452D01*
X37536285Y-18676976D01*
X37488666Y-18581738D01*
X37393428Y-18486500D01*
X37250571Y-18438880D01*
X37155333Y-18438880D01*
X37012476Y-18486500D01*
X36964857Y-18534119D01*
X36583904Y-18534119D02*
X36536285Y-18486500D01*
X36441047Y-18438880D01*
X36202952Y-18438880D01*
X36107714Y-18486500D01*
X36060095Y-18534119D01*
X36012476Y-18629357D01*
X36012476Y-18724595D01*
X36060095Y-18867452D01*
X36631523Y-19438880D01*
X36012476Y-19438880D01*
X35060095Y-19438880D02*
X35631523Y-19438880D01*
X35345809Y-19438880D02*
X35345809Y-18438880D01*
X35441047Y-18581738D01*
X35536285Y-18676976D01*
X35631523Y-18724595D01*
G04 #@! TO.C,R4*
X50204666Y-14422380D02*
X50538000Y-13946190D01*
X50776095Y-14422380D02*
X50776095Y-13422380D01*
X50395142Y-13422380D01*
X50299904Y-13470000D01*
X50252285Y-13517619D01*
X50204666Y-13612857D01*
X50204666Y-13755714D01*
X50252285Y-13850952D01*
X50299904Y-13898571D01*
X50395142Y-13946190D01*
X50776095Y-13946190D01*
X49347523Y-13755714D02*
X49347523Y-14422380D01*
X49585619Y-13374761D02*
X49823714Y-14089047D01*
X49204666Y-14089047D01*
G04 #@! TD*
M02*
