G04 #@! TF.GenerationSoftware,KiCad,Pcbnew,(5.0.1)-3*
G04 #@! TF.CreationDate,2018-11-21T00:41:34-05:00*
G04 #@! TF.ProjectId,SMA_Driver_V1,534D415F4472697665725F56312E6B69,rev?*
G04 #@! TF.SameCoordinates,Original*
G04 #@! TF.FileFunction,Soldermask,Top*
G04 #@! TF.FilePolarity,Negative*
%FSLAX46Y46*%
G04 Gerber Fmt 4.6, Leading zero omitted, Abs format (unit mm)*
G04 Created by KiCad (PCBNEW (5.0.1)-3) date 11/21/2018 00:41:34*
%MOMM*%
%LPD*%
G01*
G04 APERTURE LIST*
%ADD10C,0.100000*%
G04 APERTURE END LIST*
D10*
G36*
X89525331Y-87268211D02*
X89853092Y-87403974D01*
X90148073Y-87601074D01*
X90398926Y-87851927D01*
X90596026Y-88146908D01*
X90731789Y-88474669D01*
X90801000Y-88822616D01*
X90801000Y-89177384D01*
X90731789Y-89525331D01*
X90596026Y-89853092D01*
X90398926Y-90148073D01*
X90148073Y-90398926D01*
X89853092Y-90596026D01*
X89525331Y-90731789D01*
X89177384Y-90801000D01*
X88822616Y-90801000D01*
X88474669Y-90731789D01*
X88146908Y-90596026D01*
X87851927Y-90398926D01*
X87601074Y-90148073D01*
X87403974Y-89853092D01*
X87268211Y-89525331D01*
X87199000Y-89177384D01*
X87199000Y-88822616D01*
X87268211Y-88474669D01*
X87403974Y-88146908D01*
X87601074Y-87851927D01*
X87851927Y-87601074D01*
X88146908Y-87403974D01*
X88474669Y-87268211D01*
X88822616Y-87199000D01*
X89177384Y-87199000D01*
X89525331Y-87268211D01*
X89525331Y-87268211D01*
G37*
G36*
X4525331Y-87268211D02*
X4853092Y-87403974D01*
X5148073Y-87601074D01*
X5398926Y-87851927D01*
X5596026Y-88146908D01*
X5731789Y-88474669D01*
X5801000Y-88822616D01*
X5801000Y-89177384D01*
X5731789Y-89525331D01*
X5596026Y-89853092D01*
X5398926Y-90148073D01*
X5148073Y-90398926D01*
X4853092Y-90596026D01*
X4525331Y-90731789D01*
X4177384Y-90801000D01*
X3822616Y-90801000D01*
X3474669Y-90731789D01*
X3146908Y-90596026D01*
X2851927Y-90398926D01*
X2601074Y-90148073D01*
X2403974Y-89853092D01*
X2268211Y-89525331D01*
X2199000Y-89177384D01*
X2199000Y-88822616D01*
X2268211Y-88474669D01*
X2403974Y-88146908D01*
X2601074Y-87851927D01*
X2851927Y-87601074D01*
X3146908Y-87403974D01*
X3474669Y-87268211D01*
X3822616Y-87199000D01*
X4177384Y-87199000D01*
X4525331Y-87268211D01*
X4525331Y-87268211D01*
G37*
G36*
X55843621Y-87426313D02*
X55843624Y-87426314D01*
X55843625Y-87426314D01*
X56004039Y-87474975D01*
X56004041Y-87474976D01*
X56004044Y-87474977D01*
X56151878Y-87553995D01*
X56281459Y-87660341D01*
X56387805Y-87789922D01*
X56466823Y-87937756D01*
X56515487Y-88098179D01*
X56531917Y-88265000D01*
X56515487Y-88431821D01*
X56515486Y-88431824D01*
X56515486Y-88431825D01*
X56502490Y-88474668D01*
X56466823Y-88592244D01*
X56387805Y-88740078D01*
X56281459Y-88869659D01*
X56151878Y-88976005D01*
X56004044Y-89055023D01*
X56004041Y-89055024D01*
X56004039Y-89055025D01*
X55843625Y-89103686D01*
X55843624Y-89103686D01*
X55843621Y-89103687D01*
X55718604Y-89116000D01*
X55634996Y-89116000D01*
X55509979Y-89103687D01*
X55509976Y-89103686D01*
X55509975Y-89103686D01*
X55349561Y-89055025D01*
X55349559Y-89055024D01*
X55349556Y-89055023D01*
X55201722Y-88976005D01*
X55072141Y-88869659D01*
X54965795Y-88740078D01*
X54886777Y-88592244D01*
X54851111Y-88474668D01*
X54838114Y-88431825D01*
X54838114Y-88431824D01*
X54838113Y-88431821D01*
X54821683Y-88265000D01*
X54838113Y-88098179D01*
X54886777Y-87937756D01*
X54965795Y-87789922D01*
X55072141Y-87660341D01*
X55201722Y-87553995D01*
X55349556Y-87474977D01*
X55349559Y-87474976D01*
X55349561Y-87474975D01*
X55509975Y-87426314D01*
X55509976Y-87426314D01*
X55509979Y-87426313D01*
X55634996Y-87414000D01*
X55718604Y-87414000D01*
X55843621Y-87426313D01*
X55843621Y-87426313D01*
G37*
G36*
X58383621Y-87426313D02*
X58383624Y-87426314D01*
X58383625Y-87426314D01*
X58544039Y-87474975D01*
X58544041Y-87474976D01*
X58544044Y-87474977D01*
X58691878Y-87553995D01*
X58821459Y-87660341D01*
X58927805Y-87789922D01*
X59006823Y-87937756D01*
X59055487Y-88098179D01*
X59071917Y-88265000D01*
X59055487Y-88431821D01*
X59055486Y-88431824D01*
X59055486Y-88431825D01*
X59042490Y-88474668D01*
X59006823Y-88592244D01*
X58927805Y-88740078D01*
X58821459Y-88869659D01*
X58691878Y-88976005D01*
X58544044Y-89055023D01*
X58544041Y-89055024D01*
X58544039Y-89055025D01*
X58383625Y-89103686D01*
X58383624Y-89103686D01*
X58383621Y-89103687D01*
X58258604Y-89116000D01*
X58174996Y-89116000D01*
X58049979Y-89103687D01*
X58049976Y-89103686D01*
X58049975Y-89103686D01*
X57889561Y-89055025D01*
X57889559Y-89055024D01*
X57889556Y-89055023D01*
X57741722Y-88976005D01*
X57612141Y-88869659D01*
X57505795Y-88740078D01*
X57426777Y-88592244D01*
X57391111Y-88474668D01*
X57378114Y-88431825D01*
X57378114Y-88431824D01*
X57378113Y-88431821D01*
X57361683Y-88265000D01*
X57378113Y-88098179D01*
X57426777Y-87937756D01*
X57505795Y-87789922D01*
X57612141Y-87660341D01*
X57741722Y-87553995D01*
X57889556Y-87474977D01*
X57889559Y-87474976D01*
X57889561Y-87474975D01*
X58049975Y-87426314D01*
X58049976Y-87426314D01*
X58049979Y-87426313D01*
X58174996Y-87414000D01*
X58258604Y-87414000D01*
X58383621Y-87426313D01*
X58383621Y-87426313D01*
G37*
G36*
X73623621Y-87426313D02*
X73623624Y-87426314D01*
X73623625Y-87426314D01*
X73784039Y-87474975D01*
X73784041Y-87474976D01*
X73784044Y-87474977D01*
X73931878Y-87553995D01*
X74061459Y-87660341D01*
X74167805Y-87789922D01*
X74246823Y-87937756D01*
X74295487Y-88098179D01*
X74311917Y-88265000D01*
X74295487Y-88431821D01*
X74295486Y-88431824D01*
X74295486Y-88431825D01*
X74282490Y-88474668D01*
X74246823Y-88592244D01*
X74167805Y-88740078D01*
X74061459Y-88869659D01*
X73931878Y-88976005D01*
X73784044Y-89055023D01*
X73784041Y-89055024D01*
X73784039Y-89055025D01*
X73623625Y-89103686D01*
X73623624Y-89103686D01*
X73623621Y-89103687D01*
X73498604Y-89116000D01*
X73414996Y-89116000D01*
X73289979Y-89103687D01*
X73289976Y-89103686D01*
X73289975Y-89103686D01*
X73129561Y-89055025D01*
X73129559Y-89055024D01*
X73129556Y-89055023D01*
X72981722Y-88976005D01*
X72852141Y-88869659D01*
X72745795Y-88740078D01*
X72666777Y-88592244D01*
X72631111Y-88474668D01*
X72618114Y-88431825D01*
X72618114Y-88431824D01*
X72618113Y-88431821D01*
X72601683Y-88265000D01*
X72618113Y-88098179D01*
X72666777Y-87937756D01*
X72745795Y-87789922D01*
X72852141Y-87660341D01*
X72981722Y-87553995D01*
X73129556Y-87474977D01*
X73129559Y-87474976D01*
X73129561Y-87474975D01*
X73289975Y-87426314D01*
X73289976Y-87426314D01*
X73289979Y-87426313D01*
X73414996Y-87414000D01*
X73498604Y-87414000D01*
X73623621Y-87426313D01*
X73623621Y-87426313D01*
G37*
G36*
X68543621Y-87426313D02*
X68543624Y-87426314D01*
X68543625Y-87426314D01*
X68704039Y-87474975D01*
X68704041Y-87474976D01*
X68704044Y-87474977D01*
X68851878Y-87553995D01*
X68981459Y-87660341D01*
X69087805Y-87789922D01*
X69166823Y-87937756D01*
X69215487Y-88098179D01*
X69231917Y-88265000D01*
X69215487Y-88431821D01*
X69215486Y-88431824D01*
X69215486Y-88431825D01*
X69202490Y-88474668D01*
X69166823Y-88592244D01*
X69087805Y-88740078D01*
X68981459Y-88869659D01*
X68851878Y-88976005D01*
X68704044Y-89055023D01*
X68704041Y-89055024D01*
X68704039Y-89055025D01*
X68543625Y-89103686D01*
X68543624Y-89103686D01*
X68543621Y-89103687D01*
X68418604Y-89116000D01*
X68334996Y-89116000D01*
X68209979Y-89103687D01*
X68209976Y-89103686D01*
X68209975Y-89103686D01*
X68049561Y-89055025D01*
X68049559Y-89055024D01*
X68049556Y-89055023D01*
X67901722Y-88976005D01*
X67772141Y-88869659D01*
X67665795Y-88740078D01*
X67586777Y-88592244D01*
X67551111Y-88474668D01*
X67538114Y-88431825D01*
X67538114Y-88431824D01*
X67538113Y-88431821D01*
X67521683Y-88265000D01*
X67538113Y-88098179D01*
X67586777Y-87937756D01*
X67665795Y-87789922D01*
X67772141Y-87660341D01*
X67901722Y-87553995D01*
X68049556Y-87474977D01*
X68049559Y-87474976D01*
X68049561Y-87474975D01*
X68209975Y-87426314D01*
X68209976Y-87426314D01*
X68209979Y-87426313D01*
X68334996Y-87414000D01*
X68418604Y-87414000D01*
X68543621Y-87426313D01*
X68543621Y-87426313D01*
G37*
G36*
X66003621Y-87426313D02*
X66003624Y-87426314D01*
X66003625Y-87426314D01*
X66164039Y-87474975D01*
X66164041Y-87474976D01*
X66164044Y-87474977D01*
X66311878Y-87553995D01*
X66441459Y-87660341D01*
X66547805Y-87789922D01*
X66626823Y-87937756D01*
X66675487Y-88098179D01*
X66691917Y-88265000D01*
X66675487Y-88431821D01*
X66675486Y-88431824D01*
X66675486Y-88431825D01*
X66662490Y-88474668D01*
X66626823Y-88592244D01*
X66547805Y-88740078D01*
X66441459Y-88869659D01*
X66311878Y-88976005D01*
X66164044Y-89055023D01*
X66164041Y-89055024D01*
X66164039Y-89055025D01*
X66003625Y-89103686D01*
X66003624Y-89103686D01*
X66003621Y-89103687D01*
X65878604Y-89116000D01*
X65794996Y-89116000D01*
X65669979Y-89103687D01*
X65669976Y-89103686D01*
X65669975Y-89103686D01*
X65509561Y-89055025D01*
X65509559Y-89055024D01*
X65509556Y-89055023D01*
X65361722Y-88976005D01*
X65232141Y-88869659D01*
X65125795Y-88740078D01*
X65046777Y-88592244D01*
X65011111Y-88474668D01*
X64998114Y-88431825D01*
X64998114Y-88431824D01*
X64998113Y-88431821D01*
X64981683Y-88265000D01*
X64998113Y-88098179D01*
X65046777Y-87937756D01*
X65125795Y-87789922D01*
X65232141Y-87660341D01*
X65361722Y-87553995D01*
X65509556Y-87474977D01*
X65509559Y-87474976D01*
X65509561Y-87474975D01*
X65669975Y-87426314D01*
X65669976Y-87426314D01*
X65669979Y-87426313D01*
X65794996Y-87414000D01*
X65878604Y-87414000D01*
X66003621Y-87426313D01*
X66003621Y-87426313D01*
G37*
G36*
X60923621Y-87426313D02*
X60923624Y-87426314D01*
X60923625Y-87426314D01*
X61084039Y-87474975D01*
X61084041Y-87474976D01*
X61084044Y-87474977D01*
X61231878Y-87553995D01*
X61361459Y-87660341D01*
X61467805Y-87789922D01*
X61546823Y-87937756D01*
X61595487Y-88098179D01*
X61611917Y-88265000D01*
X61595487Y-88431821D01*
X61595486Y-88431824D01*
X61595486Y-88431825D01*
X61582490Y-88474668D01*
X61546823Y-88592244D01*
X61467805Y-88740078D01*
X61361459Y-88869659D01*
X61231878Y-88976005D01*
X61084044Y-89055023D01*
X61084041Y-89055024D01*
X61084039Y-89055025D01*
X60923625Y-89103686D01*
X60923624Y-89103686D01*
X60923621Y-89103687D01*
X60798604Y-89116000D01*
X60714996Y-89116000D01*
X60589979Y-89103687D01*
X60589976Y-89103686D01*
X60589975Y-89103686D01*
X60429561Y-89055025D01*
X60429559Y-89055024D01*
X60429556Y-89055023D01*
X60281722Y-88976005D01*
X60152141Y-88869659D01*
X60045795Y-88740078D01*
X59966777Y-88592244D01*
X59931111Y-88474668D01*
X59918114Y-88431825D01*
X59918114Y-88431824D01*
X59918113Y-88431821D01*
X59901683Y-88265000D01*
X59918113Y-88098179D01*
X59966777Y-87937756D01*
X60045795Y-87789922D01*
X60152141Y-87660341D01*
X60281722Y-87553995D01*
X60429556Y-87474977D01*
X60429559Y-87474976D01*
X60429561Y-87474975D01*
X60589975Y-87426314D01*
X60589976Y-87426314D01*
X60589979Y-87426313D01*
X60714996Y-87414000D01*
X60798604Y-87414000D01*
X60923621Y-87426313D01*
X60923621Y-87426313D01*
G37*
G36*
X71083621Y-87426313D02*
X71083624Y-87426314D01*
X71083625Y-87426314D01*
X71244039Y-87474975D01*
X71244041Y-87474976D01*
X71244044Y-87474977D01*
X71391878Y-87553995D01*
X71521459Y-87660341D01*
X71627805Y-87789922D01*
X71706823Y-87937756D01*
X71755487Y-88098179D01*
X71771917Y-88265000D01*
X71755487Y-88431821D01*
X71755486Y-88431824D01*
X71755486Y-88431825D01*
X71742490Y-88474668D01*
X71706823Y-88592244D01*
X71627805Y-88740078D01*
X71521459Y-88869659D01*
X71391878Y-88976005D01*
X71244044Y-89055023D01*
X71244041Y-89055024D01*
X71244039Y-89055025D01*
X71083625Y-89103686D01*
X71083624Y-89103686D01*
X71083621Y-89103687D01*
X70958604Y-89116000D01*
X70874996Y-89116000D01*
X70749979Y-89103687D01*
X70749976Y-89103686D01*
X70749975Y-89103686D01*
X70589561Y-89055025D01*
X70589559Y-89055024D01*
X70589556Y-89055023D01*
X70441722Y-88976005D01*
X70312141Y-88869659D01*
X70205795Y-88740078D01*
X70126777Y-88592244D01*
X70091111Y-88474668D01*
X70078114Y-88431825D01*
X70078114Y-88431824D01*
X70078113Y-88431821D01*
X70061683Y-88265000D01*
X70078113Y-88098179D01*
X70126777Y-87937756D01*
X70205795Y-87789922D01*
X70312141Y-87660341D01*
X70441722Y-87553995D01*
X70589556Y-87474977D01*
X70589559Y-87474976D01*
X70589561Y-87474975D01*
X70749975Y-87426314D01*
X70749976Y-87426314D01*
X70749979Y-87426313D01*
X70874996Y-87414000D01*
X70958604Y-87414000D01*
X71083621Y-87426313D01*
X71083621Y-87426313D01*
G37*
G36*
X53303621Y-87426313D02*
X53303624Y-87426314D01*
X53303625Y-87426314D01*
X53464039Y-87474975D01*
X53464041Y-87474976D01*
X53464044Y-87474977D01*
X53611878Y-87553995D01*
X53741459Y-87660341D01*
X53847805Y-87789922D01*
X53926823Y-87937756D01*
X53975487Y-88098179D01*
X53991917Y-88265000D01*
X53975487Y-88431821D01*
X53975486Y-88431824D01*
X53975486Y-88431825D01*
X53962490Y-88474668D01*
X53926823Y-88592244D01*
X53847805Y-88740078D01*
X53741459Y-88869659D01*
X53611878Y-88976005D01*
X53464044Y-89055023D01*
X53464041Y-89055024D01*
X53464039Y-89055025D01*
X53303625Y-89103686D01*
X53303624Y-89103686D01*
X53303621Y-89103687D01*
X53178604Y-89116000D01*
X53094996Y-89116000D01*
X52969979Y-89103687D01*
X52969976Y-89103686D01*
X52969975Y-89103686D01*
X52809561Y-89055025D01*
X52809559Y-89055024D01*
X52809556Y-89055023D01*
X52661722Y-88976005D01*
X52532141Y-88869659D01*
X52425795Y-88740078D01*
X52346777Y-88592244D01*
X52311111Y-88474668D01*
X52298114Y-88431825D01*
X52298114Y-88431824D01*
X52298113Y-88431821D01*
X52281683Y-88265000D01*
X52298113Y-88098179D01*
X52346777Y-87937756D01*
X52425795Y-87789922D01*
X52532141Y-87660341D01*
X52661722Y-87553995D01*
X52809556Y-87474977D01*
X52809559Y-87474976D01*
X52809561Y-87474975D01*
X52969975Y-87426314D01*
X52969976Y-87426314D01*
X52969979Y-87426313D01*
X53094996Y-87414000D01*
X53178604Y-87414000D01*
X53303621Y-87426313D01*
X53303621Y-87426313D01*
G37*
G36*
X50763621Y-87426313D02*
X50763624Y-87426314D01*
X50763625Y-87426314D01*
X50924039Y-87474975D01*
X50924041Y-87474976D01*
X50924044Y-87474977D01*
X51071878Y-87553995D01*
X51201459Y-87660341D01*
X51307805Y-87789922D01*
X51386823Y-87937756D01*
X51435487Y-88098179D01*
X51451917Y-88265000D01*
X51435487Y-88431821D01*
X51435486Y-88431824D01*
X51435486Y-88431825D01*
X51422490Y-88474668D01*
X51386823Y-88592244D01*
X51307805Y-88740078D01*
X51201459Y-88869659D01*
X51071878Y-88976005D01*
X50924044Y-89055023D01*
X50924041Y-89055024D01*
X50924039Y-89055025D01*
X50763625Y-89103686D01*
X50763624Y-89103686D01*
X50763621Y-89103687D01*
X50638604Y-89116000D01*
X50554996Y-89116000D01*
X50429979Y-89103687D01*
X50429976Y-89103686D01*
X50429975Y-89103686D01*
X50269561Y-89055025D01*
X50269559Y-89055024D01*
X50269556Y-89055023D01*
X50121722Y-88976005D01*
X49992141Y-88869659D01*
X49885795Y-88740078D01*
X49806777Y-88592244D01*
X49771111Y-88474668D01*
X49758114Y-88431825D01*
X49758114Y-88431824D01*
X49758113Y-88431821D01*
X49741683Y-88265000D01*
X49758113Y-88098179D01*
X49806777Y-87937756D01*
X49885795Y-87789922D01*
X49992141Y-87660341D01*
X50121722Y-87553995D01*
X50269556Y-87474977D01*
X50269559Y-87474976D01*
X50269561Y-87474975D01*
X50429975Y-87426314D01*
X50429976Y-87426314D01*
X50429979Y-87426313D01*
X50554996Y-87414000D01*
X50638604Y-87414000D01*
X50763621Y-87426313D01*
X50763621Y-87426313D01*
G37*
G36*
X48223621Y-87426313D02*
X48223624Y-87426314D01*
X48223625Y-87426314D01*
X48384039Y-87474975D01*
X48384041Y-87474976D01*
X48384044Y-87474977D01*
X48531878Y-87553995D01*
X48661459Y-87660341D01*
X48767805Y-87789922D01*
X48846823Y-87937756D01*
X48895487Y-88098179D01*
X48911917Y-88265000D01*
X48895487Y-88431821D01*
X48895486Y-88431824D01*
X48895486Y-88431825D01*
X48882490Y-88474668D01*
X48846823Y-88592244D01*
X48767805Y-88740078D01*
X48661459Y-88869659D01*
X48531878Y-88976005D01*
X48384044Y-89055023D01*
X48384041Y-89055024D01*
X48384039Y-89055025D01*
X48223625Y-89103686D01*
X48223624Y-89103686D01*
X48223621Y-89103687D01*
X48098604Y-89116000D01*
X48014996Y-89116000D01*
X47889979Y-89103687D01*
X47889976Y-89103686D01*
X47889975Y-89103686D01*
X47729561Y-89055025D01*
X47729559Y-89055024D01*
X47729556Y-89055023D01*
X47581722Y-88976005D01*
X47452141Y-88869659D01*
X47345795Y-88740078D01*
X47266777Y-88592244D01*
X47231111Y-88474668D01*
X47218114Y-88431825D01*
X47218114Y-88431824D01*
X47218113Y-88431821D01*
X47201683Y-88265000D01*
X47218113Y-88098179D01*
X47266777Y-87937756D01*
X47345795Y-87789922D01*
X47452141Y-87660341D01*
X47581722Y-87553995D01*
X47729556Y-87474977D01*
X47729559Y-87474976D01*
X47729561Y-87474975D01*
X47889975Y-87426314D01*
X47889976Y-87426314D01*
X47889979Y-87426313D01*
X48014996Y-87414000D01*
X48098604Y-87414000D01*
X48223621Y-87426313D01*
X48223621Y-87426313D01*
G37*
G36*
X45683621Y-87426313D02*
X45683624Y-87426314D01*
X45683625Y-87426314D01*
X45844039Y-87474975D01*
X45844041Y-87474976D01*
X45844044Y-87474977D01*
X45991878Y-87553995D01*
X46121459Y-87660341D01*
X46227805Y-87789922D01*
X46306823Y-87937756D01*
X46355487Y-88098179D01*
X46371917Y-88265000D01*
X46355487Y-88431821D01*
X46355486Y-88431824D01*
X46355486Y-88431825D01*
X46342490Y-88474668D01*
X46306823Y-88592244D01*
X46227805Y-88740078D01*
X46121459Y-88869659D01*
X45991878Y-88976005D01*
X45844044Y-89055023D01*
X45844041Y-89055024D01*
X45844039Y-89055025D01*
X45683625Y-89103686D01*
X45683624Y-89103686D01*
X45683621Y-89103687D01*
X45558604Y-89116000D01*
X45474996Y-89116000D01*
X45349979Y-89103687D01*
X45349976Y-89103686D01*
X45349975Y-89103686D01*
X45189561Y-89055025D01*
X45189559Y-89055024D01*
X45189556Y-89055023D01*
X45041722Y-88976005D01*
X44912141Y-88869659D01*
X44805795Y-88740078D01*
X44726777Y-88592244D01*
X44691111Y-88474668D01*
X44678114Y-88431825D01*
X44678114Y-88431824D01*
X44678113Y-88431821D01*
X44661683Y-88265000D01*
X44678113Y-88098179D01*
X44726777Y-87937756D01*
X44805795Y-87789922D01*
X44912141Y-87660341D01*
X45041722Y-87553995D01*
X45189556Y-87474977D01*
X45189559Y-87474976D01*
X45189561Y-87474975D01*
X45349975Y-87426314D01*
X45349976Y-87426314D01*
X45349979Y-87426313D01*
X45474996Y-87414000D01*
X45558604Y-87414000D01*
X45683621Y-87426313D01*
X45683621Y-87426313D01*
G37*
G36*
X43827800Y-89116000D02*
X42125800Y-89116000D01*
X42125800Y-87414000D01*
X43827800Y-87414000D01*
X43827800Y-89116000D01*
X43827800Y-89116000D01*
G37*
G36*
X76163621Y-87426313D02*
X76163624Y-87426314D01*
X76163625Y-87426314D01*
X76324039Y-87474975D01*
X76324041Y-87474976D01*
X76324044Y-87474977D01*
X76471878Y-87553995D01*
X76601459Y-87660341D01*
X76707805Y-87789922D01*
X76786823Y-87937756D01*
X76835487Y-88098179D01*
X76851917Y-88265000D01*
X76835487Y-88431821D01*
X76835486Y-88431824D01*
X76835486Y-88431825D01*
X76822490Y-88474668D01*
X76786823Y-88592244D01*
X76707805Y-88740078D01*
X76601459Y-88869659D01*
X76471878Y-88976005D01*
X76324044Y-89055023D01*
X76324041Y-89055024D01*
X76324039Y-89055025D01*
X76163625Y-89103686D01*
X76163624Y-89103686D01*
X76163621Y-89103687D01*
X76038604Y-89116000D01*
X75954996Y-89116000D01*
X75829979Y-89103687D01*
X75829976Y-89103686D01*
X75829975Y-89103686D01*
X75669561Y-89055025D01*
X75669559Y-89055024D01*
X75669556Y-89055023D01*
X75521722Y-88976005D01*
X75392141Y-88869659D01*
X75285795Y-88740078D01*
X75206777Y-88592244D01*
X75171111Y-88474668D01*
X75158114Y-88431825D01*
X75158114Y-88431824D01*
X75158113Y-88431821D01*
X75141683Y-88265000D01*
X75158113Y-88098179D01*
X75206777Y-87937756D01*
X75285795Y-87789922D01*
X75392141Y-87660341D01*
X75521722Y-87553995D01*
X75669556Y-87474977D01*
X75669559Y-87474976D01*
X75669561Y-87474975D01*
X75829975Y-87426314D01*
X75829976Y-87426314D01*
X75829979Y-87426313D01*
X75954996Y-87414000D01*
X76038604Y-87414000D01*
X76163621Y-87426313D01*
X76163621Y-87426313D01*
G37*
G36*
X78703621Y-87426313D02*
X78703624Y-87426314D01*
X78703625Y-87426314D01*
X78864039Y-87474975D01*
X78864041Y-87474976D01*
X78864044Y-87474977D01*
X79011878Y-87553995D01*
X79141459Y-87660341D01*
X79247805Y-87789922D01*
X79326823Y-87937756D01*
X79375487Y-88098179D01*
X79391917Y-88265000D01*
X79375487Y-88431821D01*
X79375486Y-88431824D01*
X79375486Y-88431825D01*
X79362490Y-88474668D01*
X79326823Y-88592244D01*
X79247805Y-88740078D01*
X79141459Y-88869659D01*
X79011878Y-88976005D01*
X78864044Y-89055023D01*
X78864041Y-89055024D01*
X78864039Y-89055025D01*
X78703625Y-89103686D01*
X78703624Y-89103686D01*
X78703621Y-89103687D01*
X78578604Y-89116000D01*
X78494996Y-89116000D01*
X78369979Y-89103687D01*
X78369976Y-89103686D01*
X78369975Y-89103686D01*
X78209561Y-89055025D01*
X78209559Y-89055024D01*
X78209556Y-89055023D01*
X78061722Y-88976005D01*
X77932141Y-88869659D01*
X77825795Y-88740078D01*
X77746777Y-88592244D01*
X77711111Y-88474668D01*
X77698114Y-88431825D01*
X77698114Y-88431824D01*
X77698113Y-88431821D01*
X77681683Y-88265000D01*
X77698113Y-88098179D01*
X77746777Y-87937756D01*
X77825795Y-87789922D01*
X77932141Y-87660341D01*
X78061722Y-87553995D01*
X78209556Y-87474977D01*
X78209559Y-87474976D01*
X78209561Y-87474975D01*
X78369975Y-87426314D01*
X78369976Y-87426314D01*
X78369979Y-87426313D01*
X78494996Y-87414000D01*
X78578604Y-87414000D01*
X78703621Y-87426313D01*
X78703621Y-87426313D01*
G37*
G36*
X50268365Y-84587389D02*
X50459634Y-84666615D01*
X50631776Y-84781637D01*
X50778163Y-84928024D01*
X50893185Y-85100166D01*
X50972411Y-85291435D01*
X51012800Y-85494484D01*
X51012800Y-85701516D01*
X50972411Y-85904565D01*
X50893185Y-86095834D01*
X50778163Y-86267976D01*
X50631776Y-86414363D01*
X50459634Y-86529385D01*
X50268365Y-86608611D01*
X50065316Y-86649000D01*
X49858284Y-86649000D01*
X49655235Y-86608611D01*
X49463966Y-86529385D01*
X49291824Y-86414363D01*
X49145437Y-86267976D01*
X49030415Y-86095834D01*
X48951189Y-85904565D01*
X48910800Y-85701516D01*
X48910800Y-85494484D01*
X48951189Y-85291435D01*
X49030415Y-85100166D01*
X49145437Y-84928024D01*
X49291824Y-84781637D01*
X49463966Y-84666615D01*
X49655235Y-84587389D01*
X49858284Y-84547000D01*
X50065316Y-84547000D01*
X50268365Y-84587389D01*
X50268365Y-84587389D01*
G37*
G36*
X78208365Y-83317389D02*
X78399634Y-83396615D01*
X78571776Y-83511637D01*
X78718163Y-83658024D01*
X78833185Y-83830166D01*
X78912411Y-84021435D01*
X78952800Y-84224484D01*
X78952800Y-84431516D01*
X78912411Y-84634565D01*
X78833185Y-84825834D01*
X78718163Y-84997976D01*
X78571776Y-85144363D01*
X78399634Y-85259385D01*
X78208365Y-85338611D01*
X78005316Y-85379000D01*
X77798284Y-85379000D01*
X77595235Y-85338611D01*
X77403966Y-85259385D01*
X77231824Y-85144363D01*
X77085437Y-84997976D01*
X76970415Y-84825834D01*
X76891189Y-84634565D01*
X76850800Y-84431516D01*
X76850800Y-84224484D01*
X76891189Y-84021435D01*
X76970415Y-83830166D01*
X77085437Y-83658024D01*
X77231824Y-83511637D01*
X77403966Y-83396615D01*
X77595235Y-83317389D01*
X77798284Y-83277000D01*
X78005316Y-83277000D01*
X78208365Y-83317389D01*
X78208365Y-83317389D01*
G37*
G36*
X82018365Y-83317389D02*
X82209634Y-83396615D01*
X82381776Y-83511637D01*
X82528163Y-83658024D01*
X82643185Y-83830166D01*
X82722411Y-84021435D01*
X82762800Y-84224484D01*
X82762800Y-84431516D01*
X82722411Y-84634565D01*
X82643185Y-84825834D01*
X82528163Y-84997976D01*
X82381776Y-85144363D01*
X82209634Y-85259385D01*
X82018365Y-85338611D01*
X81815316Y-85379000D01*
X81608284Y-85379000D01*
X81405235Y-85338611D01*
X81213966Y-85259385D01*
X81041824Y-85144363D01*
X80895437Y-84997976D01*
X80780415Y-84825834D01*
X80701189Y-84634565D01*
X80660800Y-84431516D01*
X80660800Y-84224484D01*
X80701189Y-84021435D01*
X80780415Y-83830166D01*
X80895437Y-83658024D01*
X81041824Y-83511637D01*
X81213966Y-83396615D01*
X81405235Y-83317389D01*
X81608284Y-83277000D01*
X81815316Y-83277000D01*
X82018365Y-83317389D01*
X82018365Y-83317389D01*
G37*
G36*
X74398365Y-83317389D02*
X74589634Y-83396615D01*
X74761776Y-83511637D01*
X74908163Y-83658024D01*
X75023185Y-83830166D01*
X75102411Y-84021435D01*
X75142800Y-84224484D01*
X75142800Y-84431516D01*
X75102411Y-84634565D01*
X75023185Y-84825834D01*
X74908163Y-84997976D01*
X74761776Y-85144363D01*
X74589634Y-85259385D01*
X74398365Y-85338611D01*
X74195316Y-85379000D01*
X73988284Y-85379000D01*
X73785235Y-85338611D01*
X73593966Y-85259385D01*
X73421824Y-85144363D01*
X73275437Y-84997976D01*
X73160415Y-84825834D01*
X73081189Y-84634565D01*
X73040800Y-84431516D01*
X73040800Y-84224484D01*
X73081189Y-84021435D01*
X73160415Y-83830166D01*
X73275437Y-83658024D01*
X73421824Y-83511637D01*
X73593966Y-83396615D01*
X73785235Y-83317389D01*
X73988284Y-83277000D01*
X74195316Y-83277000D01*
X74398365Y-83317389D01*
X74398365Y-83317389D01*
G37*
G36*
X33082800Y-79006000D02*
X31280800Y-79006000D01*
X31280800Y-77204000D01*
X33082800Y-77204000D01*
X33082800Y-79006000D01*
X33082800Y-79006000D01*
G37*
G36*
X50862800Y-77101000D02*
X49060800Y-77101000D01*
X49060800Y-75299000D01*
X50862800Y-75299000D01*
X50862800Y-77101000D01*
X50862800Y-77101000D01*
G37*
G36*
X46736266Y-75666065D02*
X46774937Y-75677796D01*
X46810579Y-75696848D01*
X46841817Y-75722483D01*
X46867452Y-75753721D01*
X46886504Y-75789363D01*
X46898235Y-75828034D01*
X46902800Y-75874388D01*
X46902800Y-76525612D01*
X46898235Y-76571966D01*
X46886504Y-76610637D01*
X46867452Y-76646279D01*
X46841817Y-76677517D01*
X46810579Y-76703152D01*
X46774937Y-76722204D01*
X46736266Y-76733935D01*
X46689912Y-76738500D01*
X45613688Y-76738500D01*
X45567334Y-76733935D01*
X45528663Y-76722204D01*
X45493021Y-76703152D01*
X45461783Y-76677517D01*
X45436148Y-76646279D01*
X45417096Y-76610637D01*
X45405365Y-76571966D01*
X45400800Y-76525612D01*
X45400800Y-75874388D01*
X45405365Y-75828034D01*
X45417096Y-75789363D01*
X45436148Y-75753721D01*
X45461783Y-75722483D01*
X45493021Y-75696848D01*
X45528663Y-75677796D01*
X45567334Y-75666065D01*
X45613688Y-75661500D01*
X46689912Y-75661500D01*
X46736266Y-75666065D01*
X46736266Y-75666065D01*
G37*
G36*
X32292242Y-74670518D02*
X32358427Y-74677037D01*
X32471653Y-74711384D01*
X32528267Y-74728557D01*
X32556853Y-74743837D01*
X32684791Y-74812222D01*
X32720529Y-74841552D01*
X32821986Y-74924814D01*
X32905248Y-75026271D01*
X32934578Y-75062009D01*
X32934579Y-75062011D01*
X33018243Y-75218533D01*
X33018243Y-75218534D01*
X33069763Y-75388373D01*
X33087159Y-75565000D01*
X33069763Y-75741627D01*
X33066094Y-75753721D01*
X33018243Y-75911467D01*
X32944148Y-76050087D01*
X32934578Y-76067991D01*
X32905248Y-76103729D01*
X32821986Y-76205186D01*
X32720529Y-76288448D01*
X32684791Y-76317778D01*
X32684789Y-76317779D01*
X32528267Y-76401443D01*
X32471653Y-76418616D01*
X32358427Y-76452963D01*
X32292243Y-76459481D01*
X32226060Y-76466000D01*
X32137540Y-76466000D01*
X32071357Y-76459481D01*
X32005173Y-76452963D01*
X31891947Y-76418616D01*
X31835333Y-76401443D01*
X31678811Y-76317779D01*
X31678809Y-76317778D01*
X31643071Y-76288448D01*
X31541614Y-76205186D01*
X31458352Y-76103729D01*
X31429022Y-76067991D01*
X31419452Y-76050087D01*
X31345357Y-75911467D01*
X31297506Y-75753721D01*
X31293837Y-75741627D01*
X31276441Y-75565000D01*
X31293837Y-75388373D01*
X31345357Y-75218534D01*
X31345357Y-75218533D01*
X31429021Y-75062011D01*
X31429022Y-75062009D01*
X31458352Y-75026271D01*
X31541614Y-74924814D01*
X31643071Y-74841552D01*
X31678809Y-74812222D01*
X31806747Y-74743837D01*
X31835333Y-74728557D01*
X31891947Y-74711384D01*
X32005173Y-74677037D01*
X32071358Y-74670518D01*
X32137540Y-74664000D01*
X32226060Y-74664000D01*
X32292242Y-74670518D01*
X32292242Y-74670518D01*
G37*
G36*
X46736266Y-73791065D02*
X46774937Y-73802796D01*
X46810579Y-73821848D01*
X46841817Y-73847483D01*
X46867452Y-73878721D01*
X46886504Y-73914363D01*
X46898235Y-73953034D01*
X46902800Y-73999388D01*
X46902800Y-74650612D01*
X46898235Y-74696966D01*
X46886504Y-74735637D01*
X46867452Y-74771279D01*
X46841817Y-74802517D01*
X46810579Y-74828152D01*
X46774937Y-74847204D01*
X46736266Y-74858935D01*
X46689912Y-74863500D01*
X45613688Y-74863500D01*
X45567334Y-74858935D01*
X45528663Y-74847204D01*
X45493021Y-74828152D01*
X45461783Y-74802517D01*
X45436148Y-74771279D01*
X45417096Y-74735637D01*
X45405365Y-74696966D01*
X45400800Y-74650612D01*
X45400800Y-73999388D01*
X45405365Y-73953034D01*
X45417096Y-73914363D01*
X45436148Y-73878721D01*
X45461783Y-73847483D01*
X45493021Y-73821848D01*
X45528663Y-73802796D01*
X45567334Y-73791065D01*
X45613688Y-73786500D01*
X46689912Y-73786500D01*
X46736266Y-73791065D01*
X46736266Y-73791065D01*
G37*
G36*
X50072242Y-72765518D02*
X50138427Y-72772037D01*
X50251653Y-72806384D01*
X50308267Y-72823557D01*
X50446887Y-72897652D01*
X50464791Y-72907222D01*
X50500529Y-72936552D01*
X50601986Y-73019814D01*
X50685248Y-73121271D01*
X50714578Y-73157009D01*
X50714579Y-73157011D01*
X50798243Y-73313533D01*
X50798243Y-73313534D01*
X50849763Y-73483373D01*
X50867159Y-73660000D01*
X50849763Y-73836627D01*
X50826607Y-73912963D01*
X50798243Y-74006467D01*
X50771900Y-74055750D01*
X50714578Y-74162991D01*
X50685248Y-74198729D01*
X50601986Y-74300186D01*
X50500529Y-74383448D01*
X50464791Y-74412778D01*
X50464789Y-74412779D01*
X50308267Y-74496443D01*
X50251653Y-74513616D01*
X50138427Y-74547963D01*
X50072242Y-74554482D01*
X50006060Y-74561000D01*
X49917540Y-74561000D01*
X49851358Y-74554482D01*
X49785173Y-74547963D01*
X49671947Y-74513616D01*
X49615333Y-74496443D01*
X49458811Y-74412779D01*
X49458809Y-74412778D01*
X49423071Y-74383448D01*
X49321614Y-74300186D01*
X49238352Y-74198729D01*
X49209022Y-74162991D01*
X49151700Y-74055750D01*
X49125357Y-74006467D01*
X49096993Y-73912963D01*
X49073837Y-73836627D01*
X49056441Y-73660000D01*
X49073837Y-73483373D01*
X49125357Y-73313534D01*
X49125357Y-73313533D01*
X49209021Y-73157011D01*
X49209022Y-73157009D01*
X49238352Y-73121271D01*
X49321614Y-73019814D01*
X49423071Y-72936552D01*
X49458809Y-72907222D01*
X49476713Y-72897652D01*
X49615333Y-72823557D01*
X49671947Y-72806384D01*
X49785173Y-72772037D01*
X49851358Y-72765518D01*
X49917540Y-72759000D01*
X50006060Y-72759000D01*
X50072242Y-72765518D01*
X50072242Y-72765518D01*
G37*
G36*
X32292243Y-72130519D02*
X32358427Y-72137037D01*
X32471653Y-72171384D01*
X32528267Y-72188557D01*
X32666887Y-72262652D01*
X32684791Y-72272222D01*
X32720529Y-72301552D01*
X32821986Y-72384814D01*
X32905248Y-72486271D01*
X32934578Y-72522009D01*
X32934579Y-72522011D01*
X33018243Y-72678533D01*
X33018243Y-72678534D01*
X33069763Y-72848373D01*
X33087159Y-73025000D01*
X33069763Y-73201627D01*
X33035817Y-73313533D01*
X33018243Y-73371467D01*
X32958427Y-73483373D01*
X32934578Y-73527991D01*
X32905248Y-73563729D01*
X32821986Y-73665186D01*
X32720529Y-73748448D01*
X32684791Y-73777778D01*
X32684789Y-73777779D01*
X32528267Y-73861443D01*
X32471653Y-73878616D01*
X32358427Y-73912963D01*
X32292243Y-73919481D01*
X32226060Y-73926000D01*
X32137540Y-73926000D01*
X32071357Y-73919481D01*
X32005173Y-73912963D01*
X31891947Y-73878616D01*
X31835333Y-73861443D01*
X31678811Y-73777779D01*
X31678809Y-73777778D01*
X31643071Y-73748448D01*
X31541614Y-73665186D01*
X31458352Y-73563729D01*
X31429022Y-73527991D01*
X31405173Y-73483373D01*
X31345357Y-73371467D01*
X31327783Y-73313533D01*
X31293837Y-73201627D01*
X31276441Y-73025000D01*
X31293837Y-72848373D01*
X31345357Y-72678534D01*
X31345357Y-72678533D01*
X31429021Y-72522011D01*
X31429022Y-72522009D01*
X31458352Y-72486271D01*
X31541614Y-72384814D01*
X31643071Y-72301552D01*
X31678809Y-72272222D01*
X31696713Y-72262652D01*
X31835333Y-72188557D01*
X31891947Y-72171384D01*
X32005173Y-72137037D01*
X32071357Y-72130519D01*
X32137540Y-72124000D01*
X32226060Y-72124000D01*
X32292243Y-72130519D01*
X32292243Y-72130519D01*
G37*
G36*
X50072242Y-70225518D02*
X50138427Y-70232037D01*
X50251653Y-70266384D01*
X50308267Y-70283557D01*
X50446887Y-70357652D01*
X50464791Y-70367222D01*
X50500529Y-70396552D01*
X50601986Y-70479814D01*
X50685248Y-70581271D01*
X50714578Y-70617009D01*
X50714579Y-70617011D01*
X50798243Y-70773533D01*
X50798243Y-70773534D01*
X50849763Y-70943373D01*
X50867159Y-71120000D01*
X50849763Y-71296627D01*
X50842235Y-71321443D01*
X50798243Y-71466467D01*
X50724148Y-71605087D01*
X50714578Y-71622991D01*
X50685248Y-71658729D01*
X50601986Y-71760186D01*
X50500529Y-71843448D01*
X50464791Y-71872778D01*
X50464789Y-71872779D01*
X50308267Y-71956443D01*
X50251653Y-71973616D01*
X50138427Y-72007963D01*
X50072243Y-72014481D01*
X50006060Y-72021000D01*
X49917540Y-72021000D01*
X49851357Y-72014481D01*
X49785173Y-72007963D01*
X49671947Y-71973616D01*
X49615333Y-71956443D01*
X49458811Y-71872779D01*
X49458809Y-71872778D01*
X49423071Y-71843448D01*
X49321614Y-71760186D01*
X49238352Y-71658729D01*
X49209022Y-71622991D01*
X49199452Y-71605087D01*
X49125357Y-71466467D01*
X49081365Y-71321443D01*
X49073837Y-71296627D01*
X49056441Y-71120000D01*
X49073837Y-70943373D01*
X49125357Y-70773534D01*
X49125357Y-70773533D01*
X49209021Y-70617011D01*
X49209022Y-70617009D01*
X49238352Y-70581271D01*
X49321614Y-70479814D01*
X49423071Y-70396552D01*
X49458809Y-70367222D01*
X49476713Y-70357652D01*
X49615333Y-70283557D01*
X49671947Y-70266384D01*
X49785173Y-70232037D01*
X49851358Y-70225518D01*
X49917540Y-70219000D01*
X50006060Y-70219000D01*
X50072242Y-70225518D01*
X50072242Y-70225518D01*
G37*
G36*
X32292242Y-69590518D02*
X32358427Y-69597037D01*
X32471653Y-69631384D01*
X32528267Y-69648557D01*
X32666887Y-69722652D01*
X32684791Y-69732222D01*
X32720529Y-69761552D01*
X32821986Y-69844814D01*
X32890664Y-69928500D01*
X32934578Y-69982009D01*
X32934579Y-69982011D01*
X33018243Y-70138533D01*
X33021620Y-70149667D01*
X33069763Y-70308373D01*
X33087159Y-70485000D01*
X33069763Y-70661627D01*
X33035817Y-70773533D01*
X33018243Y-70831467D01*
X32958427Y-70943373D01*
X32934578Y-70987991D01*
X32905248Y-71023729D01*
X32821986Y-71125186D01*
X32720529Y-71208448D01*
X32684791Y-71237778D01*
X32684789Y-71237779D01*
X32528267Y-71321443D01*
X32471653Y-71338616D01*
X32358427Y-71372963D01*
X32292242Y-71379482D01*
X32226060Y-71386000D01*
X32137540Y-71386000D01*
X32071358Y-71379482D01*
X32005173Y-71372963D01*
X31891947Y-71338616D01*
X31835333Y-71321443D01*
X31678811Y-71237779D01*
X31678809Y-71237778D01*
X31643071Y-71208448D01*
X31541614Y-71125186D01*
X31458352Y-71023729D01*
X31429022Y-70987991D01*
X31405173Y-70943373D01*
X31345357Y-70831467D01*
X31327783Y-70773533D01*
X31293837Y-70661627D01*
X31276441Y-70485000D01*
X31293837Y-70308373D01*
X31341980Y-70149667D01*
X31345357Y-70138533D01*
X31429021Y-69982011D01*
X31429022Y-69982009D01*
X31472936Y-69928500D01*
X31541614Y-69844814D01*
X31643071Y-69761552D01*
X31678809Y-69732222D01*
X31696713Y-69722652D01*
X31835333Y-69648557D01*
X31891947Y-69631384D01*
X32005173Y-69597037D01*
X32071358Y-69590518D01*
X32137540Y-69584000D01*
X32226060Y-69584000D01*
X32292242Y-69590518D01*
X32292242Y-69590518D01*
G37*
G36*
X89901483Y-69255725D02*
X89931944Y-69264966D01*
X89960023Y-69279975D01*
X89984631Y-69300169D01*
X90004825Y-69324777D01*
X90019834Y-69352856D01*
X90029075Y-69383317D01*
X90032800Y-69421140D01*
X90032800Y-69984860D01*
X90029075Y-70022683D01*
X90019834Y-70053144D01*
X90004825Y-70081223D01*
X89984631Y-70105831D01*
X89960023Y-70126025D01*
X89931944Y-70141034D01*
X89901483Y-70150275D01*
X89863660Y-70154000D01*
X88799940Y-70154000D01*
X88762117Y-70150275D01*
X88731656Y-70141034D01*
X88703577Y-70126025D01*
X88678969Y-70105831D01*
X88658775Y-70081223D01*
X88643766Y-70053144D01*
X88634525Y-70022683D01*
X88630800Y-69984860D01*
X88630800Y-69421140D01*
X88634525Y-69383317D01*
X88643766Y-69352856D01*
X88658775Y-69324777D01*
X88678969Y-69300169D01*
X88703577Y-69279975D01*
X88731656Y-69264966D01*
X88762117Y-69255725D01*
X88799940Y-69252000D01*
X89863660Y-69252000D01*
X89901483Y-69255725D01*
X89901483Y-69255725D01*
G37*
G36*
X50072243Y-67685519D02*
X50138427Y-67692037D01*
X50251653Y-67726384D01*
X50308267Y-67743557D01*
X50446887Y-67817652D01*
X50464791Y-67827222D01*
X50500529Y-67856552D01*
X50601986Y-67939814D01*
X50679538Y-68034313D01*
X50714578Y-68077009D01*
X50714579Y-68077011D01*
X50798243Y-68233533D01*
X50798243Y-68233534D01*
X50849763Y-68403373D01*
X50867159Y-68580000D01*
X50849763Y-68756627D01*
X50844660Y-68773448D01*
X50798243Y-68926467D01*
X50724148Y-69065087D01*
X50714578Y-69082991D01*
X50685248Y-69118729D01*
X50601986Y-69220186D01*
X50516911Y-69290004D01*
X50464791Y-69332778D01*
X50464789Y-69332779D01*
X50308267Y-69416443D01*
X50252013Y-69433507D01*
X50138427Y-69467963D01*
X50072242Y-69474482D01*
X50006060Y-69481000D01*
X49917540Y-69481000D01*
X49851358Y-69474482D01*
X49785173Y-69467963D01*
X49671587Y-69433507D01*
X49615333Y-69416443D01*
X49458811Y-69332779D01*
X49458809Y-69332778D01*
X49406689Y-69290004D01*
X49321614Y-69220186D01*
X49238352Y-69118729D01*
X49209022Y-69082991D01*
X49199452Y-69065087D01*
X49125357Y-68926467D01*
X49078940Y-68773448D01*
X49073837Y-68756627D01*
X49056441Y-68580000D01*
X49073837Y-68403373D01*
X49125357Y-68233534D01*
X49125357Y-68233533D01*
X49209021Y-68077011D01*
X49209022Y-68077009D01*
X49244062Y-68034313D01*
X49321614Y-67939814D01*
X49423071Y-67856552D01*
X49458809Y-67827222D01*
X49476713Y-67817652D01*
X49615333Y-67743557D01*
X49671947Y-67726384D01*
X49785173Y-67692037D01*
X49851357Y-67685519D01*
X49917540Y-67679000D01*
X50006060Y-67679000D01*
X50072243Y-67685519D01*
X50072243Y-67685519D01*
G37*
G36*
X89670213Y-68008525D02*
X89745256Y-68031290D01*
X89755225Y-68034314D01*
X89833574Y-68076193D01*
X89902248Y-68132552D01*
X89958607Y-68201226D01*
X90000486Y-68279575D01*
X90000487Y-68279579D01*
X90026275Y-68364587D01*
X90034982Y-68453000D01*
X90026275Y-68541413D01*
X90003510Y-68616456D01*
X90000486Y-68626425D01*
X89958607Y-68704774D01*
X89902248Y-68773448D01*
X89833574Y-68829807D01*
X89755225Y-68871686D01*
X89745256Y-68874710D01*
X89670213Y-68897475D01*
X89603958Y-68904000D01*
X89059642Y-68904000D01*
X88993387Y-68897475D01*
X88918344Y-68874710D01*
X88908375Y-68871686D01*
X88830026Y-68829807D01*
X88761352Y-68773448D01*
X88704993Y-68704774D01*
X88663114Y-68626425D01*
X88660090Y-68616456D01*
X88637325Y-68541413D01*
X88628618Y-68453000D01*
X88637325Y-68364587D01*
X88663113Y-68279579D01*
X88663114Y-68279575D01*
X88704993Y-68201226D01*
X88761352Y-68132552D01*
X88830026Y-68076193D01*
X88908375Y-68034314D01*
X88918344Y-68031290D01*
X88993387Y-68008525D01*
X89059642Y-68002000D01*
X89603958Y-68002000D01*
X89670213Y-68008525D01*
X89670213Y-68008525D01*
G37*
G36*
X32292243Y-67050519D02*
X32358427Y-67057037D01*
X32471653Y-67091384D01*
X32528267Y-67108557D01*
X32666887Y-67182652D01*
X32684791Y-67192222D01*
X32720529Y-67221552D01*
X32821986Y-67304814D01*
X32905248Y-67406271D01*
X32934578Y-67442009D01*
X32934579Y-67442011D01*
X33018243Y-67598533D01*
X33033089Y-67647474D01*
X33069763Y-67768373D01*
X33087159Y-67945000D01*
X33069763Y-68121627D01*
X33045617Y-68201225D01*
X33018243Y-68291467D01*
X32979159Y-68364587D01*
X32934578Y-68447991D01*
X32930467Y-68453000D01*
X32821986Y-68585186D01*
X32720529Y-68668448D01*
X32684791Y-68697778D01*
X32671701Y-68704775D01*
X32528267Y-68781443D01*
X32471653Y-68798616D01*
X32358427Y-68832963D01*
X32292243Y-68839481D01*
X32226060Y-68846000D01*
X32137540Y-68846000D01*
X32071357Y-68839481D01*
X32005173Y-68832963D01*
X31891947Y-68798616D01*
X31835333Y-68781443D01*
X31691899Y-68704775D01*
X31678809Y-68697778D01*
X31643071Y-68668448D01*
X31541614Y-68585186D01*
X31433133Y-68453000D01*
X31429022Y-68447991D01*
X31384441Y-68364587D01*
X31345357Y-68291467D01*
X31317983Y-68201225D01*
X31293837Y-68121627D01*
X31276441Y-67945000D01*
X31293837Y-67768373D01*
X31330511Y-67647474D01*
X31345357Y-67598533D01*
X31429021Y-67442011D01*
X31429022Y-67442009D01*
X31458352Y-67406271D01*
X31541614Y-67304814D01*
X31643071Y-67221552D01*
X31678809Y-67192222D01*
X31696713Y-67182652D01*
X31835333Y-67108557D01*
X31891947Y-67091384D01*
X32005173Y-67057037D01*
X32071357Y-67050519D01*
X32137540Y-67044000D01*
X32226060Y-67044000D01*
X32292243Y-67050519D01*
X32292243Y-67050519D01*
G37*
G36*
X89670213Y-66758525D02*
X89745256Y-66781290D01*
X89755225Y-66784314D01*
X89833574Y-66826193D01*
X89902248Y-66882552D01*
X89958607Y-66951226D01*
X90000486Y-67029575D01*
X90000487Y-67029579D01*
X90026275Y-67114587D01*
X90034982Y-67203000D01*
X90026275Y-67291413D01*
X90003510Y-67366456D01*
X90000486Y-67376425D01*
X89958607Y-67454774D01*
X89902248Y-67523448D01*
X89833574Y-67579807D01*
X89755225Y-67621686D01*
X89745256Y-67624710D01*
X89670213Y-67647475D01*
X89603958Y-67654000D01*
X89059642Y-67654000D01*
X88993387Y-67647475D01*
X88918344Y-67624710D01*
X88908375Y-67621686D01*
X88830026Y-67579807D01*
X88761352Y-67523448D01*
X88704993Y-67454774D01*
X88663114Y-67376425D01*
X88660090Y-67366456D01*
X88637325Y-67291413D01*
X88628618Y-67203000D01*
X88637325Y-67114587D01*
X88663113Y-67029579D01*
X88663114Y-67029575D01*
X88704993Y-66951226D01*
X88761352Y-66882552D01*
X88830026Y-66826193D01*
X88908375Y-66784314D01*
X88918344Y-66781290D01*
X88993387Y-66758525D01*
X89059642Y-66752000D01*
X89603958Y-66752000D01*
X89670213Y-66758525D01*
X89670213Y-66758525D01*
G37*
G36*
X50072242Y-65145518D02*
X50138427Y-65152037D01*
X50251653Y-65186384D01*
X50308267Y-65203557D01*
X50446887Y-65277652D01*
X50464791Y-65287222D01*
X50500529Y-65316552D01*
X50601986Y-65399814D01*
X50685248Y-65501271D01*
X50714578Y-65537009D01*
X50714579Y-65537011D01*
X50798243Y-65693533D01*
X50815416Y-65750147D01*
X50849763Y-65863373D01*
X50867159Y-66040000D01*
X50849763Y-66216627D01*
X50826607Y-66292963D01*
X50798243Y-66386467D01*
X50792359Y-66397475D01*
X50714578Y-66542991D01*
X50685248Y-66578729D01*
X50601986Y-66680186D01*
X50514479Y-66752000D01*
X50464791Y-66792778D01*
X50464789Y-66792779D01*
X50308267Y-66876443D01*
X50251653Y-66893616D01*
X50138427Y-66927963D01*
X50072242Y-66934482D01*
X50006060Y-66941000D01*
X49917540Y-66941000D01*
X49851358Y-66934482D01*
X49785173Y-66927963D01*
X49671947Y-66893616D01*
X49615333Y-66876443D01*
X49458811Y-66792779D01*
X49458809Y-66792778D01*
X49409121Y-66752000D01*
X49321614Y-66680186D01*
X49238352Y-66578729D01*
X49209022Y-66542991D01*
X49131241Y-66397475D01*
X49125357Y-66386467D01*
X49096993Y-66292963D01*
X49073837Y-66216627D01*
X49056441Y-66040000D01*
X49073837Y-65863373D01*
X49108184Y-65750147D01*
X49125357Y-65693533D01*
X49209021Y-65537011D01*
X49209022Y-65537009D01*
X49238352Y-65501271D01*
X49321614Y-65399814D01*
X49423071Y-65316552D01*
X49458809Y-65287222D01*
X49476713Y-65277652D01*
X49615333Y-65203557D01*
X49671947Y-65186384D01*
X49785173Y-65152037D01*
X49851358Y-65145518D01*
X49917540Y-65139000D01*
X50006060Y-65139000D01*
X50072242Y-65145518D01*
X50072242Y-65145518D01*
G37*
G36*
X89670213Y-65508525D02*
X89745256Y-65531290D01*
X89755225Y-65534314D01*
X89833574Y-65576193D01*
X89902248Y-65632552D01*
X89958607Y-65701226D01*
X90000486Y-65779575D01*
X90000487Y-65779579D01*
X90026275Y-65864587D01*
X90034982Y-65953000D01*
X90026275Y-66041413D01*
X90003510Y-66116456D01*
X90000486Y-66126425D01*
X89958607Y-66204774D01*
X89902248Y-66273448D01*
X89833574Y-66329807D01*
X89755225Y-66371686D01*
X89745256Y-66374710D01*
X89670213Y-66397475D01*
X89603958Y-66404000D01*
X89059642Y-66404000D01*
X88993387Y-66397475D01*
X88918344Y-66374710D01*
X88908375Y-66371686D01*
X88830026Y-66329807D01*
X88761352Y-66273448D01*
X88704993Y-66204774D01*
X88663114Y-66126425D01*
X88660090Y-66116456D01*
X88637325Y-66041413D01*
X88628618Y-65953000D01*
X88637325Y-65864587D01*
X88663113Y-65779579D01*
X88663114Y-65779575D01*
X88704993Y-65701226D01*
X88761352Y-65632552D01*
X88830026Y-65576193D01*
X88908375Y-65534314D01*
X88918344Y-65531290D01*
X88993387Y-65508525D01*
X89059642Y-65502000D01*
X89603958Y-65502000D01*
X89670213Y-65508525D01*
X89670213Y-65508525D01*
G37*
G36*
X32292242Y-64510518D02*
X32358427Y-64517037D01*
X32471653Y-64551384D01*
X32528267Y-64568557D01*
X32666887Y-64642652D01*
X32684791Y-64652222D01*
X32720529Y-64681552D01*
X32821986Y-64764814D01*
X32905248Y-64866271D01*
X32934578Y-64902009D01*
X32934579Y-64902011D01*
X33018243Y-65058533D01*
X33018243Y-65058534D01*
X33069763Y-65228373D01*
X33087159Y-65405000D01*
X33069763Y-65581627D01*
X33054315Y-65632552D01*
X33018243Y-65751467D01*
X32958427Y-65863373D01*
X32934578Y-65907991D01*
X32905248Y-65943729D01*
X32821986Y-66045186D01*
X32720529Y-66128448D01*
X32684791Y-66157778D01*
X32684789Y-66157779D01*
X32528267Y-66241443D01*
X32471653Y-66258616D01*
X32358427Y-66292963D01*
X32292243Y-66299481D01*
X32226060Y-66306000D01*
X32137540Y-66306000D01*
X32071357Y-66299481D01*
X32005173Y-66292963D01*
X31891947Y-66258616D01*
X31835333Y-66241443D01*
X31678811Y-66157779D01*
X31678809Y-66157778D01*
X31643071Y-66128448D01*
X31541614Y-66045186D01*
X31458352Y-65943729D01*
X31429022Y-65907991D01*
X31405173Y-65863373D01*
X31345357Y-65751467D01*
X31309285Y-65632552D01*
X31293837Y-65581627D01*
X31276441Y-65405000D01*
X31293837Y-65228373D01*
X31345357Y-65058534D01*
X31345357Y-65058533D01*
X31429021Y-64902011D01*
X31429022Y-64902009D01*
X31458352Y-64866271D01*
X31541614Y-64764814D01*
X31643071Y-64681552D01*
X31678809Y-64652222D01*
X31696713Y-64642652D01*
X31835333Y-64568557D01*
X31891947Y-64551384D01*
X32005173Y-64517037D01*
X32071358Y-64510518D01*
X32137540Y-64504000D01*
X32226060Y-64504000D01*
X32292242Y-64510518D01*
X32292242Y-64510518D01*
G37*
G36*
X89670213Y-64258525D02*
X89745256Y-64281290D01*
X89755225Y-64284314D01*
X89833574Y-64326193D01*
X89902248Y-64382552D01*
X89958607Y-64451226D01*
X90000486Y-64529575D01*
X90000487Y-64529579D01*
X90026275Y-64614587D01*
X90034982Y-64703000D01*
X90026275Y-64791413D01*
X90003510Y-64866456D01*
X90000486Y-64876425D01*
X89958607Y-64954774D01*
X89902248Y-65023448D01*
X89833574Y-65079807D01*
X89755225Y-65121686D01*
X89745256Y-65124710D01*
X89670213Y-65147475D01*
X89603958Y-65154000D01*
X89059642Y-65154000D01*
X88993387Y-65147475D01*
X88918344Y-65124710D01*
X88908375Y-65121686D01*
X88830026Y-65079807D01*
X88761352Y-65023448D01*
X88704993Y-64954774D01*
X88663114Y-64876425D01*
X88660090Y-64866456D01*
X88637325Y-64791413D01*
X88628618Y-64703000D01*
X88637325Y-64614587D01*
X88663113Y-64529579D01*
X88663114Y-64529575D01*
X88704993Y-64451226D01*
X88761352Y-64382552D01*
X88830026Y-64326193D01*
X88908375Y-64284314D01*
X88918344Y-64281290D01*
X88993387Y-64258525D01*
X89059642Y-64252000D01*
X89603958Y-64252000D01*
X89670213Y-64258525D01*
X89670213Y-64258525D01*
G37*
G36*
X50072242Y-62605518D02*
X50138427Y-62612037D01*
X50251653Y-62646384D01*
X50308267Y-62663557D01*
X50446887Y-62737652D01*
X50464791Y-62747222D01*
X50500529Y-62776552D01*
X50601986Y-62859814D01*
X50685248Y-62961271D01*
X50714578Y-62997009D01*
X50714579Y-62997011D01*
X50798243Y-63153533D01*
X50798243Y-63153534D01*
X50849763Y-63323373D01*
X50867159Y-63500000D01*
X50849763Y-63676627D01*
X50841224Y-63704775D01*
X50798243Y-63846467D01*
X50724148Y-63985087D01*
X50714578Y-64002991D01*
X50685248Y-64038729D01*
X50601986Y-64140186D01*
X50500529Y-64223448D01*
X50464791Y-64252778D01*
X50464789Y-64252779D01*
X50308267Y-64336443D01*
X50251653Y-64353616D01*
X50138427Y-64387963D01*
X50072242Y-64394482D01*
X50006060Y-64401000D01*
X49917540Y-64401000D01*
X49851358Y-64394482D01*
X49785173Y-64387963D01*
X49671947Y-64353616D01*
X49615333Y-64336443D01*
X49458811Y-64252779D01*
X49458809Y-64252778D01*
X49423071Y-64223448D01*
X49321614Y-64140186D01*
X49238352Y-64038729D01*
X49209022Y-64002991D01*
X49199452Y-63985087D01*
X49125357Y-63846467D01*
X49082376Y-63704775D01*
X49073837Y-63676627D01*
X49056441Y-63500000D01*
X49073837Y-63323373D01*
X49125357Y-63153534D01*
X49125357Y-63153533D01*
X49209021Y-62997011D01*
X49209022Y-62997009D01*
X49238352Y-62961271D01*
X49321614Y-62859814D01*
X49423071Y-62776552D01*
X49458809Y-62747222D01*
X49476713Y-62737652D01*
X49615333Y-62663557D01*
X49671947Y-62646384D01*
X49785173Y-62612037D01*
X49851358Y-62605518D01*
X49917540Y-62599000D01*
X50006060Y-62599000D01*
X50072242Y-62605518D01*
X50072242Y-62605518D01*
G37*
G36*
X89670213Y-63008525D02*
X89745256Y-63031290D01*
X89755225Y-63034314D01*
X89833574Y-63076193D01*
X89902248Y-63132552D01*
X89958607Y-63201226D01*
X90000486Y-63279575D01*
X90000487Y-63279579D01*
X90026275Y-63364587D01*
X90034982Y-63453000D01*
X90026275Y-63541413D01*
X90003510Y-63616456D01*
X90000486Y-63626425D01*
X89958607Y-63704774D01*
X89902248Y-63773448D01*
X89833574Y-63829807D01*
X89755225Y-63871686D01*
X89745256Y-63874710D01*
X89670213Y-63897475D01*
X89603958Y-63904000D01*
X89059642Y-63904000D01*
X88993387Y-63897475D01*
X88918344Y-63874710D01*
X88908375Y-63871686D01*
X88830026Y-63829807D01*
X88761352Y-63773448D01*
X88704993Y-63704774D01*
X88663114Y-63626425D01*
X88660090Y-63616456D01*
X88637325Y-63541413D01*
X88628618Y-63453000D01*
X88637325Y-63364587D01*
X88663113Y-63279579D01*
X88663114Y-63279575D01*
X88704993Y-63201226D01*
X88761352Y-63132552D01*
X88830026Y-63076193D01*
X88908375Y-63034314D01*
X88918344Y-63031290D01*
X88993387Y-63008525D01*
X89059642Y-63002000D01*
X89603958Y-63002000D01*
X89670213Y-63008525D01*
X89670213Y-63008525D01*
G37*
G36*
X32292243Y-61970519D02*
X32358427Y-61977037D01*
X32471653Y-62011384D01*
X32528267Y-62028557D01*
X32666887Y-62102652D01*
X32684791Y-62112222D01*
X32720529Y-62141552D01*
X32821986Y-62224814D01*
X32905248Y-62326271D01*
X32934578Y-62362009D01*
X32934579Y-62362011D01*
X33018243Y-62518533D01*
X33018243Y-62518534D01*
X33069763Y-62688373D01*
X33087159Y-62865000D01*
X33069763Y-63041627D01*
X33059277Y-63076194D01*
X33018243Y-63211467D01*
X32981838Y-63279575D01*
X32934578Y-63367991D01*
X32905248Y-63403729D01*
X32821986Y-63505186D01*
X32720529Y-63588448D01*
X32684791Y-63617778D01*
X32684789Y-63617779D01*
X32528267Y-63701443D01*
X32471653Y-63718616D01*
X32358427Y-63752963D01*
X32292242Y-63759482D01*
X32226060Y-63766000D01*
X32137540Y-63766000D01*
X32071358Y-63759482D01*
X32005173Y-63752963D01*
X31891947Y-63718616D01*
X31835333Y-63701443D01*
X31678811Y-63617779D01*
X31678809Y-63617778D01*
X31643071Y-63588448D01*
X31541614Y-63505186D01*
X31458352Y-63403729D01*
X31429022Y-63367991D01*
X31381762Y-63279575D01*
X31345357Y-63211467D01*
X31304323Y-63076194D01*
X31293837Y-63041627D01*
X31276441Y-62865000D01*
X31293837Y-62688373D01*
X31345357Y-62518534D01*
X31345357Y-62518533D01*
X31429021Y-62362011D01*
X31429022Y-62362009D01*
X31458352Y-62326271D01*
X31541614Y-62224814D01*
X31643071Y-62141552D01*
X31678809Y-62112222D01*
X31696713Y-62102652D01*
X31835333Y-62028557D01*
X31891947Y-62011384D01*
X32005173Y-61977037D01*
X32071357Y-61970519D01*
X32137540Y-61964000D01*
X32226060Y-61964000D01*
X32292243Y-61970519D01*
X32292243Y-61970519D01*
G37*
G36*
X89670213Y-61758525D02*
X89745256Y-61781290D01*
X89755225Y-61784314D01*
X89833574Y-61826193D01*
X89902248Y-61882552D01*
X89958607Y-61951226D01*
X90000486Y-62029575D01*
X90000487Y-62029579D01*
X90026275Y-62114587D01*
X90034982Y-62203000D01*
X90026275Y-62291413D01*
X90004859Y-62362009D01*
X90000486Y-62376425D01*
X89958607Y-62454774D01*
X89902248Y-62523448D01*
X89833574Y-62579807D01*
X89755225Y-62621686D01*
X89745256Y-62624710D01*
X89670213Y-62647475D01*
X89603958Y-62654000D01*
X89059642Y-62654000D01*
X88993387Y-62647475D01*
X88918344Y-62624710D01*
X88908375Y-62621686D01*
X88830026Y-62579807D01*
X88761352Y-62523448D01*
X88704993Y-62454774D01*
X88663114Y-62376425D01*
X88658741Y-62362009D01*
X88637325Y-62291413D01*
X88628618Y-62203000D01*
X88637325Y-62114587D01*
X88663113Y-62029579D01*
X88663114Y-62029575D01*
X88704993Y-61951226D01*
X88761352Y-61882552D01*
X88830026Y-61826193D01*
X88908375Y-61784314D01*
X88918344Y-61781290D01*
X88993387Y-61758525D01*
X89059642Y-61752000D01*
X89603958Y-61752000D01*
X89670213Y-61758525D01*
X89670213Y-61758525D01*
G37*
G36*
X50072242Y-60065518D02*
X50138427Y-60072037D01*
X50251653Y-60106384D01*
X50308267Y-60123557D01*
X50446887Y-60197652D01*
X50464791Y-60207222D01*
X50500529Y-60236552D01*
X50601986Y-60319814D01*
X50685248Y-60421271D01*
X50714578Y-60457009D01*
X50714579Y-60457011D01*
X50798243Y-60613533D01*
X50798243Y-60613534D01*
X50849763Y-60783373D01*
X50867159Y-60960000D01*
X50849763Y-61136627D01*
X50826607Y-61212963D01*
X50798243Y-61306467D01*
X50749598Y-61397474D01*
X50714578Y-61462991D01*
X50685248Y-61498729D01*
X50601986Y-61600186D01*
X50500529Y-61683448D01*
X50464791Y-61712778D01*
X50464789Y-61712779D01*
X50308267Y-61796443D01*
X50251653Y-61813616D01*
X50138427Y-61847963D01*
X50072243Y-61854481D01*
X50006060Y-61861000D01*
X49917540Y-61861000D01*
X49851357Y-61854481D01*
X49785173Y-61847963D01*
X49671947Y-61813616D01*
X49615333Y-61796443D01*
X49458811Y-61712779D01*
X49458809Y-61712778D01*
X49423071Y-61683448D01*
X49321614Y-61600186D01*
X49238352Y-61498729D01*
X49209022Y-61462991D01*
X49174002Y-61397474D01*
X49125357Y-61306467D01*
X49096993Y-61212963D01*
X49073837Y-61136627D01*
X49056441Y-60960000D01*
X49073837Y-60783373D01*
X49125357Y-60613534D01*
X49125357Y-60613533D01*
X49209021Y-60457011D01*
X49209022Y-60457009D01*
X49238352Y-60421271D01*
X49321614Y-60319814D01*
X49423071Y-60236552D01*
X49458809Y-60207222D01*
X49476713Y-60197652D01*
X49615333Y-60123557D01*
X49671947Y-60106384D01*
X49785173Y-60072037D01*
X49851358Y-60065518D01*
X49917540Y-60059000D01*
X50006060Y-60059000D01*
X50072242Y-60065518D01*
X50072242Y-60065518D01*
G37*
G36*
X89670213Y-60508525D02*
X89745256Y-60531290D01*
X89755225Y-60534314D01*
X89833574Y-60576193D01*
X89902248Y-60632552D01*
X89958607Y-60701226D01*
X90000486Y-60779575D01*
X90000487Y-60779579D01*
X90026275Y-60864587D01*
X90034982Y-60953000D01*
X90026275Y-61041413D01*
X90003510Y-61116456D01*
X90000486Y-61126425D01*
X89958607Y-61204774D01*
X89902248Y-61273448D01*
X89833574Y-61329807D01*
X89755225Y-61371686D01*
X89745256Y-61374710D01*
X89670213Y-61397475D01*
X89603958Y-61404000D01*
X89059642Y-61404000D01*
X88993387Y-61397475D01*
X88918344Y-61374710D01*
X88908375Y-61371686D01*
X88830026Y-61329807D01*
X88761352Y-61273448D01*
X88704993Y-61204774D01*
X88663114Y-61126425D01*
X88660090Y-61116456D01*
X88637325Y-61041413D01*
X88628618Y-60953000D01*
X88637325Y-60864587D01*
X88663113Y-60779579D01*
X88663114Y-60779575D01*
X88704993Y-60701226D01*
X88761352Y-60632552D01*
X88830026Y-60576193D01*
X88908375Y-60534314D01*
X88918344Y-60531290D01*
X88993387Y-60508525D01*
X89059642Y-60502000D01*
X89603958Y-60502000D01*
X89670213Y-60508525D01*
X89670213Y-60508525D01*
G37*
G36*
X32292242Y-59430518D02*
X32358427Y-59437037D01*
X32471653Y-59471384D01*
X32528267Y-59488557D01*
X32666887Y-59562652D01*
X32684791Y-59572222D01*
X32720529Y-59601552D01*
X32821986Y-59684814D01*
X32905248Y-59786271D01*
X32934578Y-59822009D01*
X32934579Y-59822011D01*
X33018243Y-59978533D01*
X33035416Y-60035147D01*
X33069763Y-60148373D01*
X33087159Y-60325000D01*
X33069763Y-60501627D01*
X33047143Y-60576194D01*
X33018243Y-60671467D01*
X33002336Y-60701226D01*
X32934578Y-60827991D01*
X32905248Y-60863729D01*
X32821986Y-60965186D01*
X32729104Y-61041411D01*
X32684791Y-61077778D01*
X32684789Y-61077779D01*
X32528267Y-61161443D01*
X32471653Y-61178616D01*
X32358427Y-61212963D01*
X32292242Y-61219482D01*
X32226060Y-61226000D01*
X32137540Y-61226000D01*
X32071358Y-61219482D01*
X32005173Y-61212963D01*
X31891947Y-61178616D01*
X31835333Y-61161443D01*
X31678811Y-61077779D01*
X31678809Y-61077778D01*
X31634496Y-61041411D01*
X31541614Y-60965186D01*
X31458352Y-60863729D01*
X31429022Y-60827991D01*
X31361264Y-60701226D01*
X31345357Y-60671467D01*
X31316457Y-60576194D01*
X31293837Y-60501627D01*
X31276441Y-60325000D01*
X31293837Y-60148373D01*
X31328184Y-60035147D01*
X31345357Y-59978533D01*
X31429021Y-59822011D01*
X31429022Y-59822009D01*
X31458352Y-59786271D01*
X31541614Y-59684814D01*
X31643071Y-59601552D01*
X31678809Y-59572222D01*
X31696713Y-59562652D01*
X31835333Y-59488557D01*
X31891947Y-59471384D01*
X32005173Y-59437037D01*
X32071358Y-59430518D01*
X32137540Y-59424000D01*
X32226060Y-59424000D01*
X32292242Y-59430518D01*
X32292242Y-59430518D01*
G37*
G36*
X89670213Y-59258525D02*
X89745256Y-59281290D01*
X89755225Y-59284314D01*
X89833574Y-59326193D01*
X89902248Y-59382552D01*
X89958607Y-59451226D01*
X90000486Y-59529575D01*
X90000487Y-59529579D01*
X90026275Y-59614587D01*
X90034982Y-59703000D01*
X90026275Y-59791413D01*
X90003510Y-59866456D01*
X90000486Y-59876425D01*
X89958607Y-59954774D01*
X89902248Y-60023448D01*
X89833574Y-60079807D01*
X89755225Y-60121686D01*
X89749057Y-60123557D01*
X89670213Y-60147475D01*
X89603958Y-60154000D01*
X89059642Y-60154000D01*
X88993387Y-60147475D01*
X88914543Y-60123557D01*
X88908375Y-60121686D01*
X88830026Y-60079807D01*
X88761352Y-60023448D01*
X88704993Y-59954774D01*
X88663114Y-59876425D01*
X88660090Y-59866456D01*
X88637325Y-59791413D01*
X88628618Y-59703000D01*
X88637325Y-59614587D01*
X88663113Y-59529579D01*
X88663114Y-59529575D01*
X88704993Y-59451226D01*
X88761352Y-59382552D01*
X88830026Y-59326193D01*
X88908375Y-59284314D01*
X88918344Y-59281290D01*
X88993387Y-59258525D01*
X89059642Y-59252000D01*
X89603958Y-59252000D01*
X89670213Y-59258525D01*
X89670213Y-59258525D01*
G37*
G36*
X50072243Y-57525519D02*
X50138427Y-57532037D01*
X50251653Y-57566384D01*
X50308267Y-57583557D01*
X50427847Y-57647475D01*
X50464791Y-57667222D01*
X50500529Y-57696552D01*
X50601986Y-57779814D01*
X50685248Y-57881271D01*
X50714578Y-57917009D01*
X50714579Y-57917011D01*
X50798243Y-58073533D01*
X50798243Y-58073534D01*
X50849763Y-58243373D01*
X50867159Y-58420000D01*
X50849763Y-58596627D01*
X50826607Y-58672963D01*
X50798243Y-58766467D01*
X50742001Y-58871686D01*
X50714578Y-58922991D01*
X50685248Y-58958729D01*
X50601986Y-59060186D01*
X50500529Y-59143448D01*
X50464791Y-59172778D01*
X50464789Y-59172779D01*
X50308267Y-59256443D01*
X50251653Y-59273616D01*
X50138427Y-59307963D01*
X50072242Y-59314482D01*
X50006060Y-59321000D01*
X49917540Y-59321000D01*
X49851358Y-59314482D01*
X49785173Y-59307963D01*
X49671947Y-59273616D01*
X49615333Y-59256443D01*
X49458811Y-59172779D01*
X49458809Y-59172778D01*
X49423071Y-59143448D01*
X49321614Y-59060186D01*
X49238352Y-58958729D01*
X49209022Y-58922991D01*
X49181599Y-58871686D01*
X49125357Y-58766467D01*
X49096993Y-58672963D01*
X49073837Y-58596627D01*
X49056441Y-58420000D01*
X49073837Y-58243373D01*
X49125357Y-58073534D01*
X49125357Y-58073533D01*
X49209021Y-57917011D01*
X49209022Y-57917009D01*
X49238352Y-57881271D01*
X49321614Y-57779814D01*
X49423071Y-57696552D01*
X49458809Y-57667222D01*
X49495753Y-57647475D01*
X49615333Y-57583557D01*
X49671947Y-57566384D01*
X49785173Y-57532037D01*
X49851357Y-57525519D01*
X49917540Y-57519000D01*
X50006060Y-57519000D01*
X50072243Y-57525519D01*
X50072243Y-57525519D01*
G37*
G36*
X89670213Y-58008525D02*
X89745256Y-58031290D01*
X89755225Y-58034314D01*
X89833574Y-58076193D01*
X89902248Y-58132552D01*
X89958607Y-58201226D01*
X90000486Y-58279575D01*
X90000487Y-58279579D01*
X90026275Y-58364587D01*
X90034982Y-58453000D01*
X90026275Y-58541413D01*
X90009525Y-58596627D01*
X90000486Y-58626425D01*
X89958607Y-58704774D01*
X89902248Y-58773448D01*
X89833574Y-58829807D01*
X89755225Y-58871686D01*
X89745256Y-58874710D01*
X89670213Y-58897475D01*
X89603958Y-58904000D01*
X89059642Y-58904000D01*
X88993387Y-58897475D01*
X88918344Y-58874710D01*
X88908375Y-58871686D01*
X88830026Y-58829807D01*
X88761352Y-58773448D01*
X88704993Y-58704774D01*
X88663114Y-58626425D01*
X88654075Y-58596627D01*
X88637325Y-58541413D01*
X88628618Y-58453000D01*
X88637325Y-58364587D01*
X88663113Y-58279579D01*
X88663114Y-58279575D01*
X88704993Y-58201226D01*
X88761352Y-58132552D01*
X88830026Y-58076193D01*
X88908375Y-58034314D01*
X88918344Y-58031290D01*
X88993387Y-58008525D01*
X89059642Y-58002000D01*
X89603958Y-58002000D01*
X89670213Y-58008525D01*
X89670213Y-58008525D01*
G37*
G36*
X32292242Y-56890518D02*
X32358427Y-56897037D01*
X32471653Y-56931384D01*
X32528267Y-56948557D01*
X32666887Y-57022652D01*
X32684791Y-57032222D01*
X32720529Y-57061552D01*
X32821986Y-57144814D01*
X32869737Y-57203000D01*
X32934578Y-57282009D01*
X32939605Y-57291413D01*
X33018243Y-57438533D01*
X33023170Y-57454775D01*
X33069763Y-57608373D01*
X33087159Y-57785000D01*
X33069763Y-57961627D01*
X33035817Y-58073533D01*
X33018243Y-58131467D01*
X33017663Y-58132552D01*
X32934578Y-58287991D01*
X32905248Y-58323729D01*
X32821986Y-58425186D01*
X32720529Y-58508448D01*
X32684791Y-58537778D01*
X32684789Y-58537779D01*
X32528267Y-58621443D01*
X32511856Y-58626421D01*
X32358427Y-58672963D01*
X32292242Y-58679482D01*
X32226060Y-58686000D01*
X32137540Y-58686000D01*
X32071358Y-58679482D01*
X32005173Y-58672963D01*
X31851744Y-58626421D01*
X31835333Y-58621443D01*
X31678811Y-58537779D01*
X31678809Y-58537778D01*
X31643071Y-58508448D01*
X31541614Y-58425186D01*
X31458352Y-58323729D01*
X31429022Y-58287991D01*
X31345937Y-58132552D01*
X31345357Y-58131467D01*
X31327783Y-58073533D01*
X31293837Y-57961627D01*
X31276441Y-57785000D01*
X31293837Y-57608373D01*
X31340430Y-57454775D01*
X31345357Y-57438533D01*
X31423995Y-57291413D01*
X31429022Y-57282009D01*
X31493863Y-57203000D01*
X31541614Y-57144814D01*
X31643071Y-57061552D01*
X31678809Y-57032222D01*
X31696713Y-57022652D01*
X31835333Y-56948557D01*
X31891947Y-56931384D01*
X32005173Y-56897037D01*
X32071358Y-56890518D01*
X32137540Y-56884000D01*
X32226060Y-56884000D01*
X32292242Y-56890518D01*
X32292242Y-56890518D01*
G37*
G36*
X89670213Y-56758525D02*
X89745256Y-56781290D01*
X89755225Y-56784314D01*
X89833574Y-56826193D01*
X89902248Y-56882552D01*
X89958607Y-56951226D01*
X90000486Y-57029575D01*
X90001289Y-57032222D01*
X90026275Y-57114587D01*
X90034982Y-57203000D01*
X90026275Y-57291413D01*
X90003510Y-57366456D01*
X90000486Y-57376425D01*
X89958607Y-57454774D01*
X89902248Y-57523448D01*
X89833574Y-57579807D01*
X89755225Y-57621686D01*
X89745256Y-57624710D01*
X89670213Y-57647475D01*
X89603958Y-57654000D01*
X89059642Y-57654000D01*
X88993387Y-57647475D01*
X88918344Y-57624710D01*
X88908375Y-57621686D01*
X88830026Y-57579807D01*
X88761352Y-57523448D01*
X88704993Y-57454774D01*
X88663114Y-57376425D01*
X88660090Y-57366456D01*
X88637325Y-57291413D01*
X88628618Y-57203000D01*
X88637325Y-57114587D01*
X88662311Y-57032222D01*
X88663114Y-57029575D01*
X88704993Y-56951226D01*
X88761352Y-56882552D01*
X88830026Y-56826193D01*
X88908375Y-56784314D01*
X88918344Y-56781290D01*
X88993387Y-56758525D01*
X89059642Y-56752000D01*
X89603958Y-56752000D01*
X89670213Y-56758525D01*
X89670213Y-56758525D01*
G37*
G36*
X89670213Y-55508525D02*
X89745256Y-55531290D01*
X89755225Y-55534314D01*
X89833574Y-55576193D01*
X89902248Y-55632552D01*
X89958607Y-55701226D01*
X90000486Y-55779575D01*
X90000487Y-55779579D01*
X90026275Y-55864587D01*
X90034982Y-55953000D01*
X90026275Y-56041413D01*
X90003510Y-56116456D01*
X90000486Y-56126425D01*
X89958607Y-56204774D01*
X89902248Y-56273448D01*
X89833574Y-56329807D01*
X89755225Y-56371686D01*
X89745256Y-56374710D01*
X89670213Y-56397475D01*
X89603958Y-56404000D01*
X89059642Y-56404000D01*
X88993387Y-56397475D01*
X88918344Y-56374710D01*
X88908375Y-56371686D01*
X88830026Y-56329807D01*
X88761352Y-56273448D01*
X88704993Y-56204774D01*
X88663114Y-56126425D01*
X88660090Y-56116456D01*
X88637325Y-56041413D01*
X88628618Y-55953000D01*
X88637325Y-55864587D01*
X88663113Y-55779579D01*
X88663114Y-55779575D01*
X88704993Y-55701226D01*
X88761352Y-55632552D01*
X88830026Y-55576193D01*
X88908375Y-55534314D01*
X88918344Y-55531290D01*
X88993387Y-55508525D01*
X89059642Y-55502000D01*
X89603958Y-55502000D01*
X89670213Y-55508525D01*
X89670213Y-55508525D01*
G37*
G36*
X40586818Y-47839344D02*
X40616369Y-47842254D01*
X40702700Y-47868443D01*
X40789034Y-47894632D01*
X40948165Y-47979689D01*
X41087644Y-48094156D01*
X41202111Y-48233635D01*
X41287168Y-48392766D01*
X41293609Y-48414000D01*
X41339546Y-48565432D01*
X41339546Y-48565434D01*
X41352800Y-48700003D01*
X41352800Y-49089998D01*
X41342859Y-49190925D01*
X41339546Y-49224569D01*
X41313357Y-49310901D01*
X41287168Y-49397234D01*
X41202111Y-49556365D01*
X41087644Y-49695844D01*
X40948166Y-49810309D01*
X40948164Y-49810311D01*
X40789033Y-49895368D01*
X40616368Y-49947746D01*
X40586817Y-49950656D01*
X40436800Y-49965432D01*
X40286782Y-49950656D01*
X40257231Y-49947746D01*
X40170899Y-49921557D01*
X40084566Y-49895368D01*
X39925435Y-49810311D01*
X39785956Y-49695844D01*
X39671489Y-49556364D01*
X39586432Y-49397233D01*
X39586432Y-49397232D01*
X39534054Y-49224568D01*
X39530740Y-49190924D01*
X39520800Y-49089997D01*
X39520800Y-48700002D01*
X39534054Y-48565433D01*
X39534054Y-48565431D01*
X39579991Y-48414000D01*
X39586432Y-48392766D01*
X39671489Y-48233635D01*
X39785957Y-48094156D01*
X39925436Y-47979689D01*
X40084567Y-47894632D01*
X40170901Y-47868443D01*
X40257232Y-47842254D01*
X40286783Y-47839344D01*
X40436800Y-47824568D01*
X40586818Y-47839344D01*
X40586818Y-47839344D01*
G37*
G36*
X38046818Y-47839344D02*
X38076369Y-47842254D01*
X38162700Y-47868443D01*
X38249034Y-47894632D01*
X38408165Y-47979689D01*
X38547644Y-48094156D01*
X38662111Y-48233635D01*
X38747168Y-48392766D01*
X38753609Y-48414000D01*
X38799546Y-48565432D01*
X38799546Y-48565434D01*
X38812800Y-48700003D01*
X38812800Y-49089998D01*
X38802859Y-49190925D01*
X38799546Y-49224569D01*
X38773357Y-49310901D01*
X38747168Y-49397234D01*
X38662111Y-49556365D01*
X38547644Y-49695844D01*
X38408166Y-49810309D01*
X38408164Y-49810311D01*
X38249033Y-49895368D01*
X38076368Y-49947746D01*
X38046817Y-49950656D01*
X37896800Y-49965432D01*
X37746782Y-49950656D01*
X37717231Y-49947746D01*
X37630899Y-49921557D01*
X37544566Y-49895368D01*
X37385435Y-49810311D01*
X37245956Y-49695844D01*
X37131489Y-49556364D01*
X37046432Y-49397233D01*
X37046432Y-49397232D01*
X36994054Y-49224568D01*
X36990741Y-49190924D01*
X36980800Y-49089997D01*
X36980800Y-48700002D01*
X36994054Y-48565433D01*
X36994054Y-48565431D01*
X37039991Y-48414000D01*
X37046432Y-48392766D01*
X37131489Y-48233635D01*
X37245957Y-48094156D01*
X37385436Y-47979689D01*
X37544567Y-47894632D01*
X37630901Y-47868443D01*
X37717232Y-47842254D01*
X37746783Y-47839344D01*
X37896800Y-47824568D01*
X38046818Y-47839344D01*
X38046818Y-47839344D01*
G37*
G36*
X43892800Y-49961000D02*
X42060800Y-49961000D01*
X42060800Y-47829000D01*
X43892800Y-47829000D01*
X43892800Y-49961000D01*
X43892800Y-49961000D01*
G37*
G36*
X54759327Y-45351736D02*
X54859210Y-45371604D01*
X55141474Y-45488521D01*
X55395505Y-45658259D01*
X55611541Y-45874295D01*
X55781279Y-46128326D01*
X55898196Y-46410590D01*
X55957800Y-46710240D01*
X55957800Y-47015760D01*
X55898196Y-47315410D01*
X55781279Y-47597674D01*
X55611541Y-47851705D01*
X55395505Y-48067741D01*
X55141474Y-48237479D01*
X54859210Y-48354396D01*
X54759327Y-48374264D01*
X54559562Y-48414000D01*
X54254038Y-48414000D01*
X54054273Y-48374264D01*
X53954390Y-48354396D01*
X53672126Y-48237479D01*
X53418095Y-48067741D01*
X53202059Y-47851705D01*
X53032321Y-47597674D01*
X52915404Y-47315410D01*
X52855800Y-47015760D01*
X52855800Y-46710240D01*
X52915404Y-46410590D01*
X53032321Y-46128326D01*
X53202059Y-45874295D01*
X53418095Y-45658259D01*
X53672126Y-45488521D01*
X53954390Y-45371604D01*
X54054273Y-45351736D01*
X54254038Y-45312000D01*
X54559562Y-45312000D01*
X54759327Y-45351736D01*
X54759327Y-45351736D01*
G37*
G36*
X80748365Y-43312389D02*
X80939634Y-43391615D01*
X81111776Y-43506637D01*
X81258163Y-43653024D01*
X81373185Y-43825166D01*
X81452411Y-44016435D01*
X81492800Y-44219484D01*
X81492800Y-44426516D01*
X81452411Y-44629565D01*
X81373185Y-44820834D01*
X81258163Y-44992976D01*
X81111776Y-45139363D01*
X80939634Y-45254385D01*
X80748365Y-45333611D01*
X80545316Y-45374000D01*
X80338284Y-45374000D01*
X80135235Y-45333611D01*
X79943966Y-45254385D01*
X79771824Y-45139363D01*
X79625437Y-44992976D01*
X79510415Y-44820834D01*
X79431189Y-44629565D01*
X79390800Y-44426516D01*
X79390800Y-44219484D01*
X79431189Y-44016435D01*
X79510415Y-43825166D01*
X79625437Y-43653024D01*
X79771824Y-43506637D01*
X79943966Y-43391615D01*
X80135235Y-43312389D01*
X80338284Y-43272000D01*
X80545316Y-43272000D01*
X80748365Y-43312389D01*
X80748365Y-43312389D01*
G37*
G36*
X76303365Y-43312389D02*
X76494634Y-43391615D01*
X76666776Y-43506637D01*
X76813163Y-43653024D01*
X76928185Y-43825166D01*
X77007411Y-44016435D01*
X77047800Y-44219484D01*
X77047800Y-44426516D01*
X77007411Y-44629565D01*
X76928185Y-44820834D01*
X76813163Y-44992976D01*
X76666776Y-45139363D01*
X76494634Y-45254385D01*
X76303365Y-45333611D01*
X76100316Y-45374000D01*
X75893284Y-45374000D01*
X75690235Y-45333611D01*
X75498966Y-45254385D01*
X75326824Y-45139363D01*
X75180437Y-44992976D01*
X75065415Y-44820834D01*
X74986189Y-44629565D01*
X74945800Y-44426516D01*
X74945800Y-44219484D01*
X74986189Y-44016435D01*
X75065415Y-43825166D01*
X75180437Y-43653024D01*
X75326824Y-43506637D01*
X75498966Y-43391615D01*
X75690235Y-43312389D01*
X75893284Y-43272000D01*
X76100316Y-43272000D01*
X76303365Y-43312389D01*
X76303365Y-43312389D01*
G37*
G36*
X76163621Y-39166313D02*
X76163624Y-39166314D01*
X76163625Y-39166314D01*
X76324039Y-39214975D01*
X76324041Y-39214976D01*
X76324044Y-39214977D01*
X76471878Y-39293995D01*
X76601459Y-39400341D01*
X76707805Y-39529922D01*
X76786823Y-39677756D01*
X76835487Y-39838179D01*
X76851917Y-40005000D01*
X76835487Y-40171821D01*
X76786823Y-40332244D01*
X76707805Y-40480078D01*
X76601459Y-40609659D01*
X76471878Y-40716005D01*
X76324044Y-40795023D01*
X76324041Y-40795024D01*
X76324039Y-40795025D01*
X76163625Y-40843686D01*
X76163624Y-40843686D01*
X76163621Y-40843687D01*
X76038604Y-40856000D01*
X75954996Y-40856000D01*
X75829979Y-40843687D01*
X75829976Y-40843686D01*
X75829975Y-40843686D01*
X75669561Y-40795025D01*
X75669559Y-40795024D01*
X75669556Y-40795023D01*
X75521722Y-40716005D01*
X75392141Y-40609659D01*
X75285795Y-40480078D01*
X75206777Y-40332244D01*
X75158113Y-40171821D01*
X75141683Y-40005000D01*
X75158113Y-39838179D01*
X75206777Y-39677756D01*
X75285795Y-39529922D01*
X75392141Y-39400341D01*
X75521722Y-39293995D01*
X75669556Y-39214977D01*
X75669559Y-39214976D01*
X75669561Y-39214975D01*
X75829975Y-39166314D01*
X75829976Y-39166314D01*
X75829979Y-39166313D01*
X75954996Y-39154000D01*
X76038604Y-39154000D01*
X76163621Y-39166313D01*
X76163621Y-39166313D01*
G37*
G36*
X78703621Y-39166313D02*
X78703624Y-39166314D01*
X78703625Y-39166314D01*
X78864039Y-39214975D01*
X78864041Y-39214976D01*
X78864044Y-39214977D01*
X79011878Y-39293995D01*
X79141459Y-39400341D01*
X79247805Y-39529922D01*
X79326823Y-39677756D01*
X79375487Y-39838179D01*
X79391917Y-40005000D01*
X79375487Y-40171821D01*
X79326823Y-40332244D01*
X79247805Y-40480078D01*
X79141459Y-40609659D01*
X79011878Y-40716005D01*
X78864044Y-40795023D01*
X78864041Y-40795024D01*
X78864039Y-40795025D01*
X78703625Y-40843686D01*
X78703624Y-40843686D01*
X78703621Y-40843687D01*
X78578604Y-40856000D01*
X78494996Y-40856000D01*
X78369979Y-40843687D01*
X78369976Y-40843686D01*
X78369975Y-40843686D01*
X78209561Y-40795025D01*
X78209559Y-40795024D01*
X78209556Y-40795023D01*
X78061722Y-40716005D01*
X77932141Y-40609659D01*
X77825795Y-40480078D01*
X77746777Y-40332244D01*
X77698113Y-40171821D01*
X77681683Y-40005000D01*
X77698113Y-39838179D01*
X77746777Y-39677756D01*
X77825795Y-39529922D01*
X77932141Y-39400341D01*
X78061722Y-39293995D01*
X78209556Y-39214977D01*
X78209559Y-39214976D01*
X78209561Y-39214975D01*
X78369975Y-39166314D01*
X78369976Y-39166314D01*
X78369979Y-39166313D01*
X78494996Y-39154000D01*
X78578604Y-39154000D01*
X78703621Y-39166313D01*
X78703621Y-39166313D01*
G37*
G36*
X39083621Y-39166313D02*
X39083624Y-39166314D01*
X39083625Y-39166314D01*
X39244039Y-39214975D01*
X39244041Y-39214976D01*
X39244044Y-39214977D01*
X39391878Y-39293995D01*
X39521459Y-39400341D01*
X39627805Y-39529922D01*
X39706823Y-39677756D01*
X39755487Y-39838179D01*
X39771917Y-40005000D01*
X39755487Y-40171821D01*
X39706823Y-40332244D01*
X39627805Y-40480078D01*
X39521459Y-40609659D01*
X39391878Y-40716005D01*
X39244044Y-40795023D01*
X39244041Y-40795024D01*
X39244039Y-40795025D01*
X39083625Y-40843686D01*
X39083624Y-40843686D01*
X39083621Y-40843687D01*
X38958604Y-40856000D01*
X38874996Y-40856000D01*
X38749979Y-40843687D01*
X38749976Y-40843686D01*
X38749975Y-40843686D01*
X38589561Y-40795025D01*
X38589559Y-40795024D01*
X38589556Y-40795023D01*
X38441722Y-40716005D01*
X38312141Y-40609659D01*
X38205795Y-40480078D01*
X38126777Y-40332244D01*
X38078113Y-40171821D01*
X38061683Y-40005000D01*
X38078113Y-39838179D01*
X38126777Y-39677756D01*
X38205795Y-39529922D01*
X38312141Y-39400341D01*
X38441722Y-39293995D01*
X38589556Y-39214977D01*
X38589559Y-39214976D01*
X38589561Y-39214975D01*
X38749975Y-39166314D01*
X38749976Y-39166314D01*
X38749979Y-39166313D01*
X38874996Y-39154000D01*
X38958604Y-39154000D01*
X39083621Y-39166313D01*
X39083621Y-39166313D01*
G37*
G36*
X41623621Y-39166313D02*
X41623624Y-39166314D01*
X41623625Y-39166314D01*
X41784039Y-39214975D01*
X41784041Y-39214976D01*
X41784044Y-39214977D01*
X41931878Y-39293995D01*
X42061459Y-39400341D01*
X42167805Y-39529922D01*
X42246823Y-39677756D01*
X42295487Y-39838179D01*
X42311917Y-40005000D01*
X42295487Y-40171821D01*
X42246823Y-40332244D01*
X42167805Y-40480078D01*
X42061459Y-40609659D01*
X41931878Y-40716005D01*
X41784044Y-40795023D01*
X41784041Y-40795024D01*
X41784039Y-40795025D01*
X41623625Y-40843686D01*
X41623624Y-40843686D01*
X41623621Y-40843687D01*
X41498604Y-40856000D01*
X41414996Y-40856000D01*
X41289979Y-40843687D01*
X41289976Y-40843686D01*
X41289975Y-40843686D01*
X41129561Y-40795025D01*
X41129559Y-40795024D01*
X41129556Y-40795023D01*
X40981722Y-40716005D01*
X40852141Y-40609659D01*
X40745795Y-40480078D01*
X40666777Y-40332244D01*
X40618113Y-40171821D01*
X40601683Y-40005000D01*
X40618113Y-39838179D01*
X40666777Y-39677756D01*
X40745795Y-39529922D01*
X40852141Y-39400341D01*
X40981722Y-39293995D01*
X41129556Y-39214977D01*
X41129559Y-39214976D01*
X41129561Y-39214975D01*
X41289975Y-39166314D01*
X41289976Y-39166314D01*
X41289979Y-39166313D01*
X41414996Y-39154000D01*
X41498604Y-39154000D01*
X41623621Y-39166313D01*
X41623621Y-39166313D01*
G37*
G36*
X44163621Y-39166313D02*
X44163624Y-39166314D01*
X44163625Y-39166314D01*
X44324039Y-39214975D01*
X44324041Y-39214976D01*
X44324044Y-39214977D01*
X44471878Y-39293995D01*
X44601459Y-39400341D01*
X44707805Y-39529922D01*
X44786823Y-39677756D01*
X44835487Y-39838179D01*
X44851917Y-40005000D01*
X44835487Y-40171821D01*
X44786823Y-40332244D01*
X44707805Y-40480078D01*
X44601459Y-40609659D01*
X44471878Y-40716005D01*
X44324044Y-40795023D01*
X44324041Y-40795024D01*
X44324039Y-40795025D01*
X44163625Y-40843686D01*
X44163624Y-40843686D01*
X44163621Y-40843687D01*
X44038604Y-40856000D01*
X43954996Y-40856000D01*
X43829979Y-40843687D01*
X43829976Y-40843686D01*
X43829975Y-40843686D01*
X43669561Y-40795025D01*
X43669559Y-40795024D01*
X43669556Y-40795023D01*
X43521722Y-40716005D01*
X43392141Y-40609659D01*
X43285795Y-40480078D01*
X43206777Y-40332244D01*
X43158113Y-40171821D01*
X43141683Y-40005000D01*
X43158113Y-39838179D01*
X43206777Y-39677756D01*
X43285795Y-39529922D01*
X43392141Y-39400341D01*
X43521722Y-39293995D01*
X43669556Y-39214977D01*
X43669559Y-39214976D01*
X43669561Y-39214975D01*
X43829975Y-39166314D01*
X43829976Y-39166314D01*
X43829979Y-39166313D01*
X43954996Y-39154000D01*
X44038604Y-39154000D01*
X44163621Y-39166313D01*
X44163621Y-39166313D01*
G37*
G36*
X46703621Y-39166313D02*
X46703624Y-39166314D01*
X46703625Y-39166314D01*
X46864039Y-39214975D01*
X46864041Y-39214976D01*
X46864044Y-39214977D01*
X47011878Y-39293995D01*
X47141459Y-39400341D01*
X47247805Y-39529922D01*
X47326823Y-39677756D01*
X47375487Y-39838179D01*
X47391917Y-40005000D01*
X47375487Y-40171821D01*
X47326823Y-40332244D01*
X47247805Y-40480078D01*
X47141459Y-40609659D01*
X47011878Y-40716005D01*
X46864044Y-40795023D01*
X46864041Y-40795024D01*
X46864039Y-40795025D01*
X46703625Y-40843686D01*
X46703624Y-40843686D01*
X46703621Y-40843687D01*
X46578604Y-40856000D01*
X46494996Y-40856000D01*
X46369979Y-40843687D01*
X46369976Y-40843686D01*
X46369975Y-40843686D01*
X46209561Y-40795025D01*
X46209559Y-40795024D01*
X46209556Y-40795023D01*
X46061722Y-40716005D01*
X45932141Y-40609659D01*
X45825795Y-40480078D01*
X45746777Y-40332244D01*
X45698113Y-40171821D01*
X45681683Y-40005000D01*
X45698113Y-39838179D01*
X45746777Y-39677756D01*
X45825795Y-39529922D01*
X45932141Y-39400341D01*
X46061722Y-39293995D01*
X46209556Y-39214977D01*
X46209559Y-39214976D01*
X46209561Y-39214975D01*
X46369975Y-39166314D01*
X46369976Y-39166314D01*
X46369979Y-39166313D01*
X46494996Y-39154000D01*
X46578604Y-39154000D01*
X46703621Y-39166313D01*
X46703621Y-39166313D01*
G37*
G36*
X49243621Y-39166313D02*
X49243624Y-39166314D01*
X49243625Y-39166314D01*
X49404039Y-39214975D01*
X49404041Y-39214976D01*
X49404044Y-39214977D01*
X49551878Y-39293995D01*
X49681459Y-39400341D01*
X49787805Y-39529922D01*
X49866823Y-39677756D01*
X49915487Y-39838179D01*
X49931917Y-40005000D01*
X49915487Y-40171821D01*
X49866823Y-40332244D01*
X49787805Y-40480078D01*
X49681459Y-40609659D01*
X49551878Y-40716005D01*
X49404044Y-40795023D01*
X49404041Y-40795024D01*
X49404039Y-40795025D01*
X49243625Y-40843686D01*
X49243624Y-40843686D01*
X49243621Y-40843687D01*
X49118604Y-40856000D01*
X49034996Y-40856000D01*
X48909979Y-40843687D01*
X48909976Y-40843686D01*
X48909975Y-40843686D01*
X48749561Y-40795025D01*
X48749559Y-40795024D01*
X48749556Y-40795023D01*
X48601722Y-40716005D01*
X48472141Y-40609659D01*
X48365795Y-40480078D01*
X48286777Y-40332244D01*
X48238113Y-40171821D01*
X48221683Y-40005000D01*
X48238113Y-39838179D01*
X48286777Y-39677756D01*
X48365795Y-39529922D01*
X48472141Y-39400341D01*
X48601722Y-39293995D01*
X48749556Y-39214977D01*
X48749559Y-39214976D01*
X48749561Y-39214975D01*
X48909975Y-39166314D01*
X48909976Y-39166314D01*
X48909979Y-39166313D01*
X49034996Y-39154000D01*
X49118604Y-39154000D01*
X49243621Y-39166313D01*
X49243621Y-39166313D01*
G37*
G36*
X51783621Y-39166313D02*
X51783624Y-39166314D01*
X51783625Y-39166314D01*
X51944039Y-39214975D01*
X51944041Y-39214976D01*
X51944044Y-39214977D01*
X52091878Y-39293995D01*
X52221459Y-39400341D01*
X52327805Y-39529922D01*
X52406823Y-39677756D01*
X52455487Y-39838179D01*
X52471917Y-40005000D01*
X52455487Y-40171821D01*
X52406823Y-40332244D01*
X52327805Y-40480078D01*
X52221459Y-40609659D01*
X52091878Y-40716005D01*
X51944044Y-40795023D01*
X51944041Y-40795024D01*
X51944039Y-40795025D01*
X51783625Y-40843686D01*
X51783624Y-40843686D01*
X51783621Y-40843687D01*
X51658604Y-40856000D01*
X51574996Y-40856000D01*
X51449979Y-40843687D01*
X51449976Y-40843686D01*
X51449975Y-40843686D01*
X51289561Y-40795025D01*
X51289559Y-40795024D01*
X51289556Y-40795023D01*
X51141722Y-40716005D01*
X51012141Y-40609659D01*
X50905795Y-40480078D01*
X50826777Y-40332244D01*
X50778113Y-40171821D01*
X50761683Y-40005000D01*
X50778113Y-39838179D01*
X50826777Y-39677756D01*
X50905795Y-39529922D01*
X51012141Y-39400341D01*
X51141722Y-39293995D01*
X51289556Y-39214977D01*
X51289559Y-39214976D01*
X51289561Y-39214975D01*
X51449975Y-39166314D01*
X51449976Y-39166314D01*
X51449979Y-39166313D01*
X51574996Y-39154000D01*
X51658604Y-39154000D01*
X51783621Y-39166313D01*
X51783621Y-39166313D01*
G37*
G36*
X54323621Y-39166313D02*
X54323624Y-39166314D01*
X54323625Y-39166314D01*
X54484039Y-39214975D01*
X54484041Y-39214976D01*
X54484044Y-39214977D01*
X54631878Y-39293995D01*
X54761459Y-39400341D01*
X54867805Y-39529922D01*
X54946823Y-39677756D01*
X54995487Y-39838179D01*
X55011917Y-40005000D01*
X54995487Y-40171821D01*
X54946823Y-40332244D01*
X54867805Y-40480078D01*
X54761459Y-40609659D01*
X54631878Y-40716005D01*
X54484044Y-40795023D01*
X54484041Y-40795024D01*
X54484039Y-40795025D01*
X54323625Y-40843686D01*
X54323624Y-40843686D01*
X54323621Y-40843687D01*
X54198604Y-40856000D01*
X54114996Y-40856000D01*
X53989979Y-40843687D01*
X53989976Y-40843686D01*
X53989975Y-40843686D01*
X53829561Y-40795025D01*
X53829559Y-40795024D01*
X53829556Y-40795023D01*
X53681722Y-40716005D01*
X53552141Y-40609659D01*
X53445795Y-40480078D01*
X53366777Y-40332244D01*
X53318113Y-40171821D01*
X53301683Y-40005000D01*
X53318113Y-39838179D01*
X53366777Y-39677756D01*
X53445795Y-39529922D01*
X53552141Y-39400341D01*
X53681722Y-39293995D01*
X53829556Y-39214977D01*
X53829559Y-39214976D01*
X53829561Y-39214975D01*
X53989975Y-39166314D01*
X53989976Y-39166314D01*
X53989979Y-39166313D01*
X54114996Y-39154000D01*
X54198604Y-39154000D01*
X54323621Y-39166313D01*
X54323621Y-39166313D01*
G37*
G36*
X60923621Y-39166313D02*
X60923624Y-39166314D01*
X60923625Y-39166314D01*
X61084039Y-39214975D01*
X61084041Y-39214976D01*
X61084044Y-39214977D01*
X61231878Y-39293995D01*
X61361459Y-39400341D01*
X61467805Y-39529922D01*
X61546823Y-39677756D01*
X61595487Y-39838179D01*
X61611917Y-40005000D01*
X61595487Y-40171821D01*
X61546823Y-40332244D01*
X61467805Y-40480078D01*
X61361459Y-40609659D01*
X61231878Y-40716005D01*
X61084044Y-40795023D01*
X61084041Y-40795024D01*
X61084039Y-40795025D01*
X60923625Y-40843686D01*
X60923624Y-40843686D01*
X60923621Y-40843687D01*
X60798604Y-40856000D01*
X60714996Y-40856000D01*
X60589979Y-40843687D01*
X60589976Y-40843686D01*
X60589975Y-40843686D01*
X60429561Y-40795025D01*
X60429559Y-40795024D01*
X60429556Y-40795023D01*
X60281722Y-40716005D01*
X60152141Y-40609659D01*
X60045795Y-40480078D01*
X59966777Y-40332244D01*
X59918113Y-40171821D01*
X59901683Y-40005000D01*
X59918113Y-39838179D01*
X59966777Y-39677756D01*
X60045795Y-39529922D01*
X60152141Y-39400341D01*
X60281722Y-39293995D01*
X60429556Y-39214977D01*
X60429559Y-39214976D01*
X60429561Y-39214975D01*
X60589975Y-39166314D01*
X60589976Y-39166314D01*
X60589979Y-39166313D01*
X60714996Y-39154000D01*
X60798604Y-39154000D01*
X60923621Y-39166313D01*
X60923621Y-39166313D01*
G37*
G36*
X56863621Y-39166313D02*
X56863624Y-39166314D01*
X56863625Y-39166314D01*
X57024039Y-39214975D01*
X57024041Y-39214976D01*
X57024044Y-39214977D01*
X57171878Y-39293995D01*
X57301459Y-39400341D01*
X57407805Y-39529922D01*
X57486823Y-39677756D01*
X57535487Y-39838179D01*
X57551917Y-40005000D01*
X57535487Y-40171821D01*
X57486823Y-40332244D01*
X57407805Y-40480078D01*
X57301459Y-40609659D01*
X57171878Y-40716005D01*
X57024044Y-40795023D01*
X57024041Y-40795024D01*
X57024039Y-40795025D01*
X56863625Y-40843686D01*
X56863624Y-40843686D01*
X56863621Y-40843687D01*
X56738604Y-40856000D01*
X56654996Y-40856000D01*
X56529979Y-40843687D01*
X56529976Y-40843686D01*
X56529975Y-40843686D01*
X56369561Y-40795025D01*
X56369559Y-40795024D01*
X56369556Y-40795023D01*
X56221722Y-40716005D01*
X56092141Y-40609659D01*
X55985795Y-40480078D01*
X55906777Y-40332244D01*
X55858113Y-40171821D01*
X55841683Y-40005000D01*
X55858113Y-39838179D01*
X55906777Y-39677756D01*
X55985795Y-39529922D01*
X56092141Y-39400341D01*
X56221722Y-39293995D01*
X56369556Y-39214977D01*
X56369559Y-39214976D01*
X56369561Y-39214975D01*
X56529975Y-39166314D01*
X56529976Y-39166314D01*
X56529979Y-39166313D01*
X56654996Y-39154000D01*
X56738604Y-39154000D01*
X56863621Y-39166313D01*
X56863621Y-39166313D01*
G37*
G36*
X73623621Y-39166313D02*
X73623624Y-39166314D01*
X73623625Y-39166314D01*
X73784039Y-39214975D01*
X73784041Y-39214976D01*
X73784044Y-39214977D01*
X73931878Y-39293995D01*
X74061459Y-39400341D01*
X74167805Y-39529922D01*
X74246823Y-39677756D01*
X74295487Y-39838179D01*
X74311917Y-40005000D01*
X74295487Y-40171821D01*
X74246823Y-40332244D01*
X74167805Y-40480078D01*
X74061459Y-40609659D01*
X73931878Y-40716005D01*
X73784044Y-40795023D01*
X73784041Y-40795024D01*
X73784039Y-40795025D01*
X73623625Y-40843686D01*
X73623624Y-40843686D01*
X73623621Y-40843687D01*
X73498604Y-40856000D01*
X73414996Y-40856000D01*
X73289979Y-40843687D01*
X73289976Y-40843686D01*
X73289975Y-40843686D01*
X73129561Y-40795025D01*
X73129559Y-40795024D01*
X73129556Y-40795023D01*
X72981722Y-40716005D01*
X72852141Y-40609659D01*
X72745795Y-40480078D01*
X72666777Y-40332244D01*
X72618113Y-40171821D01*
X72601683Y-40005000D01*
X72618113Y-39838179D01*
X72666777Y-39677756D01*
X72745795Y-39529922D01*
X72852141Y-39400341D01*
X72981722Y-39293995D01*
X73129556Y-39214977D01*
X73129559Y-39214976D01*
X73129561Y-39214975D01*
X73289975Y-39166314D01*
X73289976Y-39166314D01*
X73289979Y-39166313D01*
X73414996Y-39154000D01*
X73498604Y-39154000D01*
X73623621Y-39166313D01*
X73623621Y-39166313D01*
G37*
G36*
X71083621Y-39166313D02*
X71083624Y-39166314D01*
X71083625Y-39166314D01*
X71244039Y-39214975D01*
X71244041Y-39214976D01*
X71244044Y-39214977D01*
X71391878Y-39293995D01*
X71521459Y-39400341D01*
X71627805Y-39529922D01*
X71706823Y-39677756D01*
X71755487Y-39838179D01*
X71771917Y-40005000D01*
X71755487Y-40171821D01*
X71706823Y-40332244D01*
X71627805Y-40480078D01*
X71521459Y-40609659D01*
X71391878Y-40716005D01*
X71244044Y-40795023D01*
X71244041Y-40795024D01*
X71244039Y-40795025D01*
X71083625Y-40843686D01*
X71083624Y-40843686D01*
X71083621Y-40843687D01*
X70958604Y-40856000D01*
X70874996Y-40856000D01*
X70749979Y-40843687D01*
X70749976Y-40843686D01*
X70749975Y-40843686D01*
X70589561Y-40795025D01*
X70589559Y-40795024D01*
X70589556Y-40795023D01*
X70441722Y-40716005D01*
X70312141Y-40609659D01*
X70205795Y-40480078D01*
X70126777Y-40332244D01*
X70078113Y-40171821D01*
X70061683Y-40005000D01*
X70078113Y-39838179D01*
X70126777Y-39677756D01*
X70205795Y-39529922D01*
X70312141Y-39400341D01*
X70441722Y-39293995D01*
X70589556Y-39214977D01*
X70589559Y-39214976D01*
X70589561Y-39214975D01*
X70749975Y-39166314D01*
X70749976Y-39166314D01*
X70749979Y-39166313D01*
X70874996Y-39154000D01*
X70958604Y-39154000D01*
X71083621Y-39166313D01*
X71083621Y-39166313D01*
G37*
G36*
X36543621Y-39166313D02*
X36543624Y-39166314D01*
X36543625Y-39166314D01*
X36704039Y-39214975D01*
X36704041Y-39214976D01*
X36704044Y-39214977D01*
X36851878Y-39293995D01*
X36981459Y-39400341D01*
X37087805Y-39529922D01*
X37166823Y-39677756D01*
X37215487Y-39838179D01*
X37231917Y-40005000D01*
X37215487Y-40171821D01*
X37166823Y-40332244D01*
X37087805Y-40480078D01*
X36981459Y-40609659D01*
X36851878Y-40716005D01*
X36704044Y-40795023D01*
X36704041Y-40795024D01*
X36704039Y-40795025D01*
X36543625Y-40843686D01*
X36543624Y-40843686D01*
X36543621Y-40843687D01*
X36418604Y-40856000D01*
X36334996Y-40856000D01*
X36209979Y-40843687D01*
X36209976Y-40843686D01*
X36209975Y-40843686D01*
X36049561Y-40795025D01*
X36049559Y-40795024D01*
X36049556Y-40795023D01*
X35901722Y-40716005D01*
X35772141Y-40609659D01*
X35665795Y-40480078D01*
X35586777Y-40332244D01*
X35538113Y-40171821D01*
X35521683Y-40005000D01*
X35538113Y-39838179D01*
X35586777Y-39677756D01*
X35665795Y-39529922D01*
X35772141Y-39400341D01*
X35901722Y-39293995D01*
X36049556Y-39214977D01*
X36049559Y-39214976D01*
X36049561Y-39214975D01*
X36209975Y-39166314D01*
X36209976Y-39166314D01*
X36209979Y-39166313D01*
X36334996Y-39154000D01*
X36418604Y-39154000D01*
X36543621Y-39166313D01*
X36543621Y-39166313D01*
G37*
G36*
X68543621Y-39166313D02*
X68543624Y-39166314D01*
X68543625Y-39166314D01*
X68704039Y-39214975D01*
X68704041Y-39214976D01*
X68704044Y-39214977D01*
X68851878Y-39293995D01*
X68981459Y-39400341D01*
X69087805Y-39529922D01*
X69166823Y-39677756D01*
X69215487Y-39838179D01*
X69231917Y-40005000D01*
X69215487Y-40171821D01*
X69166823Y-40332244D01*
X69087805Y-40480078D01*
X68981459Y-40609659D01*
X68851878Y-40716005D01*
X68704044Y-40795023D01*
X68704041Y-40795024D01*
X68704039Y-40795025D01*
X68543625Y-40843686D01*
X68543624Y-40843686D01*
X68543621Y-40843687D01*
X68418604Y-40856000D01*
X68334996Y-40856000D01*
X68209979Y-40843687D01*
X68209976Y-40843686D01*
X68209975Y-40843686D01*
X68049561Y-40795025D01*
X68049559Y-40795024D01*
X68049556Y-40795023D01*
X67901722Y-40716005D01*
X67772141Y-40609659D01*
X67665795Y-40480078D01*
X67586777Y-40332244D01*
X67538113Y-40171821D01*
X67521683Y-40005000D01*
X67538113Y-39838179D01*
X67586777Y-39677756D01*
X67665795Y-39529922D01*
X67772141Y-39400341D01*
X67901722Y-39293995D01*
X68049556Y-39214977D01*
X68049559Y-39214976D01*
X68049561Y-39214975D01*
X68209975Y-39166314D01*
X68209976Y-39166314D01*
X68209979Y-39166313D01*
X68334996Y-39154000D01*
X68418604Y-39154000D01*
X68543621Y-39166313D01*
X68543621Y-39166313D01*
G37*
G36*
X34003621Y-39166313D02*
X34003624Y-39166314D01*
X34003625Y-39166314D01*
X34164039Y-39214975D01*
X34164041Y-39214976D01*
X34164044Y-39214977D01*
X34311878Y-39293995D01*
X34441459Y-39400341D01*
X34547805Y-39529922D01*
X34626823Y-39677756D01*
X34675487Y-39838179D01*
X34691917Y-40005000D01*
X34675487Y-40171821D01*
X34626823Y-40332244D01*
X34547805Y-40480078D01*
X34441459Y-40609659D01*
X34311878Y-40716005D01*
X34164044Y-40795023D01*
X34164041Y-40795024D01*
X34164039Y-40795025D01*
X34003625Y-40843686D01*
X34003624Y-40843686D01*
X34003621Y-40843687D01*
X33878604Y-40856000D01*
X33794996Y-40856000D01*
X33669979Y-40843687D01*
X33669976Y-40843686D01*
X33669975Y-40843686D01*
X33509561Y-40795025D01*
X33509559Y-40795024D01*
X33509556Y-40795023D01*
X33361722Y-40716005D01*
X33232141Y-40609659D01*
X33125795Y-40480078D01*
X33046777Y-40332244D01*
X32998113Y-40171821D01*
X32981683Y-40005000D01*
X32998113Y-39838179D01*
X33046777Y-39677756D01*
X33125795Y-39529922D01*
X33232141Y-39400341D01*
X33361722Y-39293995D01*
X33509556Y-39214977D01*
X33509559Y-39214976D01*
X33509561Y-39214975D01*
X33669975Y-39166314D01*
X33669976Y-39166314D01*
X33669979Y-39166313D01*
X33794996Y-39154000D01*
X33878604Y-39154000D01*
X34003621Y-39166313D01*
X34003621Y-39166313D01*
G37*
G36*
X63463621Y-39166313D02*
X63463624Y-39166314D01*
X63463625Y-39166314D01*
X63624039Y-39214975D01*
X63624041Y-39214976D01*
X63624044Y-39214977D01*
X63771878Y-39293995D01*
X63901459Y-39400341D01*
X64007805Y-39529922D01*
X64086823Y-39677756D01*
X64135487Y-39838179D01*
X64151917Y-40005000D01*
X64135487Y-40171821D01*
X64086823Y-40332244D01*
X64007805Y-40480078D01*
X63901459Y-40609659D01*
X63771878Y-40716005D01*
X63624044Y-40795023D01*
X63624041Y-40795024D01*
X63624039Y-40795025D01*
X63463625Y-40843686D01*
X63463624Y-40843686D01*
X63463621Y-40843687D01*
X63338604Y-40856000D01*
X63254996Y-40856000D01*
X63129979Y-40843687D01*
X63129976Y-40843686D01*
X63129975Y-40843686D01*
X62969561Y-40795025D01*
X62969559Y-40795024D01*
X62969556Y-40795023D01*
X62821722Y-40716005D01*
X62692141Y-40609659D01*
X62585795Y-40480078D01*
X62506777Y-40332244D01*
X62458113Y-40171821D01*
X62441683Y-40005000D01*
X62458113Y-39838179D01*
X62506777Y-39677756D01*
X62585795Y-39529922D01*
X62692141Y-39400341D01*
X62821722Y-39293995D01*
X62969556Y-39214977D01*
X62969559Y-39214976D01*
X62969561Y-39214975D01*
X63129975Y-39166314D01*
X63129976Y-39166314D01*
X63129979Y-39166313D01*
X63254996Y-39154000D01*
X63338604Y-39154000D01*
X63463621Y-39166313D01*
X63463621Y-39166313D01*
G37*
G36*
X66003621Y-39166313D02*
X66003624Y-39166314D01*
X66003625Y-39166314D01*
X66164039Y-39214975D01*
X66164041Y-39214976D01*
X66164044Y-39214977D01*
X66311878Y-39293995D01*
X66441459Y-39400341D01*
X66547805Y-39529922D01*
X66626823Y-39677756D01*
X66675487Y-39838179D01*
X66691917Y-40005000D01*
X66675487Y-40171821D01*
X66626823Y-40332244D01*
X66547805Y-40480078D01*
X66441459Y-40609659D01*
X66311878Y-40716005D01*
X66164044Y-40795023D01*
X66164041Y-40795024D01*
X66164039Y-40795025D01*
X66003625Y-40843686D01*
X66003624Y-40843686D01*
X66003621Y-40843687D01*
X65878604Y-40856000D01*
X65794996Y-40856000D01*
X65669979Y-40843687D01*
X65669976Y-40843686D01*
X65669975Y-40843686D01*
X65509561Y-40795025D01*
X65509559Y-40795024D01*
X65509556Y-40795023D01*
X65361722Y-40716005D01*
X65232141Y-40609659D01*
X65125795Y-40480078D01*
X65046777Y-40332244D01*
X64998113Y-40171821D01*
X64981683Y-40005000D01*
X64998113Y-39838179D01*
X65046777Y-39677756D01*
X65125795Y-39529922D01*
X65232141Y-39400341D01*
X65361722Y-39293995D01*
X65509556Y-39214977D01*
X65509559Y-39214976D01*
X65509561Y-39214975D01*
X65669975Y-39166314D01*
X65669976Y-39166314D01*
X65669979Y-39166313D01*
X65794996Y-39154000D01*
X65878604Y-39154000D01*
X66003621Y-39166313D01*
X66003621Y-39166313D01*
G37*
G36*
X41822452Y-32216218D02*
X41822454Y-32216219D01*
X41822455Y-32216219D01*
X42195713Y-32370827D01*
X42435844Y-32531278D01*
X42531639Y-32595286D01*
X42817314Y-32880961D01*
X42817316Y-32880964D01*
X43041773Y-33216887D01*
X43186585Y-33566495D01*
X43196382Y-33590148D01*
X43275200Y-33986393D01*
X43275200Y-34390407D01*
X43199554Y-34770707D01*
X43196381Y-34786655D01*
X43041773Y-35159913D01*
X43041772Y-35159914D01*
X42817314Y-35495839D01*
X42531639Y-35781514D01*
X42531636Y-35781516D01*
X42195713Y-36005973D01*
X41822455Y-36160581D01*
X41822454Y-36160581D01*
X41822452Y-36160582D01*
X41426207Y-36239400D01*
X41022193Y-36239400D01*
X40625948Y-36160582D01*
X40625946Y-36160581D01*
X40625945Y-36160581D01*
X40252687Y-36005973D01*
X39916764Y-35781516D01*
X39916761Y-35781514D01*
X39631086Y-35495839D01*
X39406628Y-35159914D01*
X39406627Y-35159913D01*
X39252019Y-34786655D01*
X39248847Y-34770707D01*
X39173200Y-34390407D01*
X39173200Y-33986393D01*
X39252018Y-33590148D01*
X39261815Y-33566495D01*
X39406627Y-33216887D01*
X39631084Y-32880964D01*
X39631086Y-32880961D01*
X39916761Y-32595286D01*
X40012556Y-32531278D01*
X40252687Y-32370827D01*
X40625945Y-32216219D01*
X40625946Y-32216219D01*
X40625948Y-32216218D01*
X41022193Y-32137400D01*
X41426207Y-32137400D01*
X41822452Y-32216218D01*
X41822452Y-32216218D01*
G37*
G36*
X69569423Y-32216218D02*
X69569425Y-32216219D01*
X69569426Y-32216219D01*
X69942684Y-32370827D01*
X70182815Y-32531278D01*
X70278610Y-32595286D01*
X70564285Y-32880961D01*
X70564287Y-32880964D01*
X70788744Y-33216887D01*
X70933556Y-33566495D01*
X70943353Y-33590148D01*
X71022171Y-33986393D01*
X71022171Y-34390407D01*
X70946525Y-34770707D01*
X70943352Y-34786655D01*
X70788744Y-35159913D01*
X70788743Y-35159914D01*
X70564285Y-35495839D01*
X70278610Y-35781514D01*
X70278607Y-35781516D01*
X69942684Y-36005973D01*
X69569426Y-36160581D01*
X69569425Y-36160581D01*
X69569423Y-36160582D01*
X69173178Y-36239400D01*
X68769164Y-36239400D01*
X68372919Y-36160582D01*
X68372917Y-36160581D01*
X68372916Y-36160581D01*
X67999658Y-36005973D01*
X67663735Y-35781516D01*
X67663732Y-35781514D01*
X67378057Y-35495839D01*
X67153599Y-35159914D01*
X67153598Y-35159913D01*
X66998990Y-34786655D01*
X66995818Y-34770707D01*
X66920171Y-34390407D01*
X66920171Y-33986393D01*
X66998989Y-33590148D01*
X67008786Y-33566495D01*
X67153598Y-33216887D01*
X67378055Y-32880964D01*
X67378057Y-32880961D01*
X67663732Y-32595286D01*
X67759527Y-32531278D01*
X67999658Y-32370827D01*
X68372916Y-32216219D01*
X68372917Y-32216219D01*
X68372919Y-32216218D01*
X68769164Y-32137400D01*
X69173178Y-32137400D01*
X69569423Y-32216218D01*
X69569423Y-32216218D01*
G37*
G36*
X52981327Y-32524736D02*
X53081210Y-32544604D01*
X53363474Y-32661521D01*
X53617505Y-32831259D01*
X53833541Y-33047295D01*
X54003279Y-33301326D01*
X54113115Y-33566495D01*
X54120196Y-33583591D01*
X54179800Y-33883238D01*
X54179800Y-34188762D01*
X54140064Y-34388527D01*
X54120196Y-34488410D01*
X54003279Y-34770674D01*
X53833541Y-35024705D01*
X53617505Y-35240741D01*
X53363474Y-35410479D01*
X53081210Y-35527396D01*
X52981327Y-35547264D01*
X52781562Y-35587000D01*
X52476038Y-35587000D01*
X52276273Y-35547264D01*
X52176390Y-35527396D01*
X51894126Y-35410479D01*
X51640095Y-35240741D01*
X51424059Y-35024705D01*
X51254321Y-34770674D01*
X51137404Y-34488410D01*
X51117536Y-34388527D01*
X51077800Y-34188762D01*
X51077800Y-33883238D01*
X51137404Y-33583591D01*
X51144485Y-33566495D01*
X51254321Y-33301326D01*
X51424059Y-33047295D01*
X51640095Y-32831259D01*
X51894126Y-32661521D01*
X52176390Y-32544604D01*
X52276273Y-32524736D01*
X52476038Y-32485000D01*
X52781562Y-32485000D01*
X52981327Y-32524736D01*
X52981327Y-32524736D01*
G37*
G36*
X79600527Y-32270736D02*
X79700410Y-32290604D01*
X79982674Y-32407521D01*
X80236705Y-32577259D01*
X80452741Y-32793295D01*
X80622479Y-33047326D01*
X80739396Y-33329590D01*
X80739396Y-33329591D01*
X80799000Y-33629238D01*
X80799000Y-33934762D01*
X80759264Y-34134527D01*
X80739396Y-34234410D01*
X80622479Y-34516674D01*
X80452741Y-34770705D01*
X80236705Y-34986741D01*
X79982674Y-35156479D01*
X79700410Y-35273396D01*
X79600527Y-35293264D01*
X79400762Y-35333000D01*
X79095238Y-35333000D01*
X78895473Y-35293264D01*
X78795590Y-35273396D01*
X78513326Y-35156479D01*
X78259295Y-34986741D01*
X78043259Y-34770705D01*
X77873521Y-34516674D01*
X77756604Y-34234410D01*
X77736736Y-34134527D01*
X77697000Y-33934762D01*
X77697000Y-33629238D01*
X77756604Y-33329591D01*
X77756604Y-33329590D01*
X77873521Y-33047326D01*
X78043259Y-32793295D01*
X78259295Y-32577259D01*
X78513326Y-32407521D01*
X78795590Y-32290604D01*
X78895473Y-32270736D01*
X79095238Y-32231000D01*
X79400762Y-32231000D01*
X79600527Y-32270736D01*
X79600527Y-32270736D01*
G37*
G36*
X48514266Y-33550565D02*
X48552937Y-33562296D01*
X48588579Y-33581348D01*
X48619817Y-33606983D01*
X48645452Y-33638221D01*
X48664504Y-33673863D01*
X48676235Y-33712534D01*
X48680800Y-33758888D01*
X48680800Y-34410112D01*
X48676235Y-34456466D01*
X48664504Y-34495137D01*
X48645452Y-34530779D01*
X48619817Y-34562017D01*
X48588579Y-34587652D01*
X48552937Y-34606704D01*
X48514266Y-34618435D01*
X48467912Y-34623000D01*
X47391688Y-34623000D01*
X47345334Y-34618435D01*
X47306663Y-34606704D01*
X47271021Y-34587652D01*
X47239783Y-34562017D01*
X47214148Y-34530779D01*
X47195096Y-34495137D01*
X47183365Y-34456466D01*
X47178800Y-34410112D01*
X47178800Y-33758888D01*
X47183365Y-33712534D01*
X47195096Y-33673863D01*
X47214148Y-33638221D01*
X47239783Y-33606983D01*
X47271021Y-33581348D01*
X47306663Y-33562296D01*
X47345334Y-33550565D01*
X47391688Y-33546000D01*
X48467912Y-33546000D01*
X48514266Y-33550565D01*
X48514266Y-33550565D01*
G37*
G36*
X76454266Y-31772565D02*
X76492937Y-31784296D01*
X76528579Y-31803348D01*
X76559817Y-31828983D01*
X76585452Y-31860221D01*
X76604504Y-31895863D01*
X76616235Y-31934534D01*
X76620800Y-31980888D01*
X76620800Y-32632112D01*
X76616235Y-32678466D01*
X76604504Y-32717137D01*
X76585452Y-32752779D01*
X76559817Y-32784017D01*
X76528579Y-32809652D01*
X76492937Y-32828704D01*
X76454266Y-32840435D01*
X76407912Y-32845000D01*
X75331688Y-32845000D01*
X75285334Y-32840435D01*
X75246663Y-32828704D01*
X75211021Y-32809652D01*
X75179783Y-32784017D01*
X75154148Y-32752779D01*
X75135096Y-32717137D01*
X75123365Y-32678466D01*
X75118800Y-32632112D01*
X75118800Y-31980888D01*
X75123365Y-31934534D01*
X75135096Y-31895863D01*
X75154148Y-31860221D01*
X75179783Y-31828983D01*
X75211021Y-31803348D01*
X75246663Y-31784296D01*
X75285334Y-31772565D01*
X75331688Y-31768000D01*
X76407912Y-31768000D01*
X76454266Y-31772565D01*
X76454266Y-31772565D01*
G37*
G36*
X48514266Y-31675565D02*
X48552937Y-31687296D01*
X48588579Y-31706348D01*
X48619817Y-31731983D01*
X48645452Y-31763221D01*
X48664504Y-31798863D01*
X48676235Y-31837534D01*
X48680800Y-31883888D01*
X48680800Y-32535112D01*
X48676235Y-32581466D01*
X48664504Y-32620137D01*
X48645452Y-32655779D01*
X48619817Y-32687017D01*
X48588579Y-32712652D01*
X48552937Y-32731704D01*
X48514266Y-32743435D01*
X48467912Y-32748000D01*
X47391688Y-32748000D01*
X47345334Y-32743435D01*
X47306663Y-32731704D01*
X47271021Y-32712652D01*
X47239783Y-32687017D01*
X47214148Y-32655779D01*
X47195096Y-32620137D01*
X47183365Y-32581466D01*
X47178800Y-32535112D01*
X47178800Y-31883888D01*
X47183365Y-31837534D01*
X47195096Y-31798863D01*
X47214148Y-31763221D01*
X47239783Y-31731983D01*
X47271021Y-31706348D01*
X47306663Y-31687296D01*
X47345334Y-31675565D01*
X47391688Y-31671000D01*
X48467912Y-31671000D01*
X48514266Y-31675565D01*
X48514266Y-31675565D01*
G37*
G36*
X76454266Y-29897565D02*
X76492937Y-29909296D01*
X76528579Y-29928348D01*
X76559817Y-29953983D01*
X76585452Y-29985221D01*
X76604504Y-30020863D01*
X76616235Y-30059534D01*
X76620800Y-30105888D01*
X76620800Y-30757112D01*
X76616235Y-30803466D01*
X76604504Y-30842137D01*
X76585452Y-30877779D01*
X76559817Y-30909017D01*
X76528579Y-30934652D01*
X76492937Y-30953704D01*
X76454266Y-30965435D01*
X76407912Y-30970000D01*
X75331688Y-30970000D01*
X75285334Y-30965435D01*
X75246663Y-30953704D01*
X75211021Y-30934652D01*
X75179783Y-30909017D01*
X75154148Y-30877779D01*
X75135096Y-30842137D01*
X75123365Y-30803466D01*
X75118800Y-30757112D01*
X75118800Y-30105888D01*
X75123365Y-30059534D01*
X75135096Y-30020863D01*
X75154148Y-29985221D01*
X75179783Y-29953983D01*
X75211021Y-29928348D01*
X75246663Y-29909296D01*
X75285334Y-29897565D01*
X75331688Y-29893000D01*
X76407912Y-29893000D01*
X76454266Y-29897565D01*
X76454266Y-29897565D01*
G37*
G36*
X58774423Y-24909826D02*
X58774425Y-24909827D01*
X58774426Y-24909827D01*
X59147684Y-25064435D01*
X59147685Y-25064436D01*
X59483610Y-25288894D01*
X59769285Y-25574569D01*
X59769287Y-25574572D01*
X59993744Y-25910495D01*
X60148352Y-26283753D01*
X60148353Y-26283756D01*
X60227171Y-26680001D01*
X60227171Y-27084015D01*
X60156235Y-27440636D01*
X60148352Y-27480263D01*
X59993744Y-27853521D01*
X59993743Y-27853522D01*
X59769285Y-28189447D01*
X59483610Y-28475122D01*
X59483607Y-28475124D01*
X59147684Y-28699581D01*
X58774426Y-28854189D01*
X58774425Y-28854189D01*
X58774423Y-28854190D01*
X58378178Y-28933008D01*
X57974164Y-28933008D01*
X57577919Y-28854190D01*
X57577917Y-28854189D01*
X57577916Y-28854189D01*
X57204658Y-28699581D01*
X56868735Y-28475124D01*
X56868732Y-28475122D01*
X56583057Y-28189447D01*
X56358599Y-27853522D01*
X56358598Y-27853521D01*
X56203990Y-27480263D01*
X56196108Y-27440636D01*
X56125171Y-27084015D01*
X56125171Y-26680001D01*
X56203989Y-26283756D01*
X56203990Y-26283753D01*
X56358598Y-25910495D01*
X56583055Y-25574572D01*
X56583057Y-25574569D01*
X56868732Y-25288894D01*
X57204657Y-25064436D01*
X57204658Y-25064435D01*
X57577916Y-24909827D01*
X57577917Y-24909827D01*
X57577919Y-24909826D01*
X57974164Y-24831008D01*
X58378178Y-24831008D01*
X58774423Y-24909826D01*
X58774423Y-24909826D01*
G37*
G36*
X53694423Y-24909826D02*
X53694425Y-24909827D01*
X53694426Y-24909827D01*
X54067684Y-25064435D01*
X54067685Y-25064436D01*
X54403610Y-25288894D01*
X54689285Y-25574569D01*
X54689287Y-25574572D01*
X54913744Y-25910495D01*
X55068352Y-26283753D01*
X55068353Y-26283756D01*
X55147171Y-26680001D01*
X55147171Y-27084015D01*
X55076235Y-27440636D01*
X55068352Y-27480263D01*
X54913744Y-27853521D01*
X54913743Y-27853522D01*
X54689285Y-28189447D01*
X54403610Y-28475122D01*
X54403607Y-28475124D01*
X54067684Y-28699581D01*
X53694426Y-28854189D01*
X53694425Y-28854189D01*
X53694423Y-28854190D01*
X53298178Y-28933008D01*
X52894164Y-28933008D01*
X52497919Y-28854190D01*
X52497917Y-28854189D01*
X52497916Y-28854189D01*
X52124658Y-28699581D01*
X51788735Y-28475124D01*
X51788732Y-28475122D01*
X51503057Y-28189447D01*
X51278599Y-27853522D01*
X51278598Y-27853521D01*
X51123990Y-27480263D01*
X51116108Y-27440636D01*
X51045171Y-27084015D01*
X51045171Y-26680001D01*
X51123989Y-26283756D01*
X51123990Y-26283753D01*
X51278598Y-25910495D01*
X51503055Y-25574572D01*
X51503057Y-25574569D01*
X51788732Y-25288894D01*
X52124657Y-25064436D01*
X52124658Y-25064435D01*
X52497916Y-24909827D01*
X52497917Y-24909827D01*
X52497919Y-24909826D01*
X52894164Y-24831008D01*
X53298178Y-24831008D01*
X53694423Y-24909826D01*
X53694423Y-24909826D01*
G37*
G36*
X18684477Y-27320465D02*
X18722164Y-27331898D01*
X18756903Y-27350466D01*
X18787348Y-27375452D01*
X18812334Y-27405897D01*
X18830902Y-27440636D01*
X18842335Y-27478323D01*
X18846800Y-27523661D01*
X18846800Y-28610339D01*
X18842335Y-28655677D01*
X18830902Y-28693364D01*
X18812334Y-28728103D01*
X18787348Y-28758548D01*
X18756903Y-28783534D01*
X18722164Y-28802102D01*
X18684477Y-28813535D01*
X18639139Y-28818000D01*
X17802461Y-28818000D01*
X17757123Y-28813535D01*
X17719436Y-28802102D01*
X17684697Y-28783534D01*
X17654252Y-28758548D01*
X17629266Y-28728103D01*
X17610698Y-28693364D01*
X17599265Y-28655677D01*
X17594800Y-28610339D01*
X17594800Y-27523661D01*
X17599265Y-27478323D01*
X17610698Y-27440636D01*
X17629266Y-27405897D01*
X17654252Y-27375452D01*
X17684697Y-27350466D01*
X17719436Y-27331898D01*
X17757123Y-27320465D01*
X17802461Y-27316000D01*
X18639139Y-27316000D01*
X18684477Y-27320465D01*
X18684477Y-27320465D01*
G37*
G36*
X16634477Y-27320465D02*
X16672164Y-27331898D01*
X16706903Y-27350466D01*
X16737348Y-27375452D01*
X16762334Y-27405897D01*
X16780902Y-27440636D01*
X16792335Y-27478323D01*
X16796800Y-27523661D01*
X16796800Y-28610339D01*
X16792335Y-28655677D01*
X16780902Y-28693364D01*
X16762334Y-28728103D01*
X16737348Y-28758548D01*
X16706903Y-28783534D01*
X16672164Y-28802102D01*
X16634477Y-28813535D01*
X16589139Y-28818000D01*
X15752461Y-28818000D01*
X15707123Y-28813535D01*
X15669436Y-28802102D01*
X15634697Y-28783534D01*
X15604252Y-28758548D01*
X15579266Y-28728103D01*
X15560698Y-28693364D01*
X15549265Y-28655677D01*
X15544800Y-28610339D01*
X15544800Y-27523661D01*
X15549265Y-27478323D01*
X15560698Y-27440636D01*
X15579266Y-27405897D01*
X15604252Y-27375452D01*
X15634697Y-27350466D01*
X15669436Y-27331898D01*
X15707123Y-27320465D01*
X15752461Y-27316000D01*
X16589139Y-27316000D01*
X16634477Y-27320465D01*
X16634477Y-27320465D01*
G37*
G36*
X18684477Y-25288465D02*
X18722164Y-25299898D01*
X18756903Y-25318466D01*
X18787348Y-25343452D01*
X18812334Y-25373897D01*
X18830902Y-25408636D01*
X18842335Y-25446323D01*
X18846800Y-25491661D01*
X18846800Y-26578339D01*
X18842335Y-26623677D01*
X18830902Y-26661364D01*
X18812334Y-26696103D01*
X18787348Y-26726548D01*
X18756903Y-26751534D01*
X18722164Y-26770102D01*
X18684477Y-26781535D01*
X18639139Y-26786000D01*
X17802461Y-26786000D01*
X17757123Y-26781535D01*
X17719436Y-26770102D01*
X17684697Y-26751534D01*
X17654252Y-26726548D01*
X17629266Y-26696103D01*
X17610698Y-26661364D01*
X17599265Y-26623677D01*
X17594800Y-26578339D01*
X17594800Y-25491661D01*
X17599265Y-25446323D01*
X17610698Y-25408636D01*
X17629266Y-25373897D01*
X17654252Y-25343452D01*
X17684697Y-25318466D01*
X17719436Y-25299898D01*
X17757123Y-25288465D01*
X17802461Y-25284000D01*
X18639139Y-25284000D01*
X18684477Y-25288465D01*
X18684477Y-25288465D01*
G37*
G36*
X16634477Y-25288465D02*
X16672164Y-25299898D01*
X16706903Y-25318466D01*
X16737348Y-25343452D01*
X16762334Y-25373897D01*
X16780902Y-25408636D01*
X16792335Y-25446323D01*
X16796800Y-25491661D01*
X16796800Y-26578339D01*
X16792335Y-26623677D01*
X16780902Y-26661364D01*
X16762334Y-26696103D01*
X16737348Y-26726548D01*
X16706903Y-26751534D01*
X16672164Y-26770102D01*
X16634477Y-26781535D01*
X16589139Y-26786000D01*
X15752461Y-26786000D01*
X15707123Y-26781535D01*
X15669436Y-26770102D01*
X15634697Y-26751534D01*
X15604252Y-26726548D01*
X15579266Y-26696103D01*
X15560698Y-26661364D01*
X15549265Y-26623677D01*
X15544800Y-26578339D01*
X15544800Y-25491661D01*
X15549265Y-25446323D01*
X15560698Y-25408636D01*
X15579266Y-25373897D01*
X15604252Y-25343452D01*
X15634697Y-25318466D01*
X15669436Y-25299898D01*
X15707123Y-25288465D01*
X15752461Y-25284000D01*
X16589139Y-25284000D01*
X16634477Y-25288465D01*
X16634477Y-25288465D01*
G37*
G36*
X16634477Y-23256465D02*
X16672164Y-23267898D01*
X16706903Y-23286466D01*
X16737348Y-23311452D01*
X16762334Y-23341897D01*
X16780902Y-23376636D01*
X16792335Y-23414323D01*
X16796800Y-23459661D01*
X16796800Y-24546339D01*
X16792335Y-24591677D01*
X16780902Y-24629364D01*
X16762334Y-24664103D01*
X16737348Y-24694548D01*
X16706903Y-24719534D01*
X16672164Y-24738102D01*
X16634477Y-24749535D01*
X16589139Y-24754000D01*
X15752461Y-24754000D01*
X15707123Y-24749535D01*
X15669436Y-24738102D01*
X15634697Y-24719534D01*
X15604252Y-24694548D01*
X15579266Y-24664103D01*
X15560698Y-24629364D01*
X15549265Y-24591677D01*
X15544800Y-24546339D01*
X15544800Y-23459661D01*
X15549265Y-23414323D01*
X15560698Y-23376636D01*
X15579266Y-23341897D01*
X15604252Y-23311452D01*
X15634697Y-23286466D01*
X15669436Y-23267898D01*
X15707123Y-23256465D01*
X15752461Y-23252000D01*
X16589139Y-23252000D01*
X16634477Y-23256465D01*
X16634477Y-23256465D01*
G37*
G36*
X18684477Y-23256465D02*
X18722164Y-23267898D01*
X18756903Y-23286466D01*
X18787348Y-23311452D01*
X18812334Y-23341897D01*
X18830902Y-23376636D01*
X18842335Y-23414323D01*
X18846800Y-23459661D01*
X18846800Y-24546339D01*
X18842335Y-24591677D01*
X18830902Y-24629364D01*
X18812334Y-24664103D01*
X18787348Y-24694548D01*
X18756903Y-24719534D01*
X18722164Y-24738102D01*
X18684477Y-24749535D01*
X18639139Y-24754000D01*
X17802461Y-24754000D01*
X17757123Y-24749535D01*
X17719436Y-24738102D01*
X17684697Y-24719534D01*
X17654252Y-24694548D01*
X17629266Y-24664103D01*
X17610698Y-24629364D01*
X17599265Y-24591677D01*
X17594800Y-24546339D01*
X17594800Y-23459661D01*
X17599265Y-23414323D01*
X17610698Y-23376636D01*
X17629266Y-23341897D01*
X17654252Y-23311452D01*
X17684697Y-23286466D01*
X17719436Y-23267898D01*
X17757123Y-23256465D01*
X17802461Y-23252000D01*
X18639139Y-23252000D01*
X18684477Y-23256465D01*
X18684477Y-23256465D01*
G37*
G36*
X16630266Y-20970565D02*
X16668937Y-20982296D01*
X16704579Y-21001348D01*
X16735817Y-21026983D01*
X16761452Y-21058221D01*
X16780504Y-21093863D01*
X16792235Y-21132534D01*
X16796800Y-21178888D01*
X16796800Y-22255112D01*
X16792235Y-22301466D01*
X16780504Y-22340137D01*
X16761452Y-22375779D01*
X16735817Y-22407017D01*
X16704579Y-22432652D01*
X16668937Y-22451704D01*
X16630266Y-22463435D01*
X16583912Y-22468000D01*
X15932688Y-22468000D01*
X15886334Y-22463435D01*
X15847663Y-22451704D01*
X15812021Y-22432652D01*
X15780783Y-22407017D01*
X15755148Y-22375779D01*
X15736096Y-22340137D01*
X15724365Y-22301466D01*
X15719800Y-22255112D01*
X15719800Y-21178888D01*
X15724365Y-21132534D01*
X15736096Y-21093863D01*
X15755148Y-21058221D01*
X15780783Y-21026983D01*
X15812021Y-21001348D01*
X15847663Y-20982296D01*
X15886334Y-20970565D01*
X15932688Y-20966000D01*
X16583912Y-20966000D01*
X16630266Y-20970565D01*
X16630266Y-20970565D01*
G37*
G36*
X18505266Y-20970565D02*
X18543937Y-20982296D01*
X18579579Y-21001348D01*
X18610817Y-21026983D01*
X18636452Y-21058221D01*
X18655504Y-21093863D01*
X18667235Y-21132534D01*
X18671800Y-21178888D01*
X18671800Y-22255112D01*
X18667235Y-22301466D01*
X18655504Y-22340137D01*
X18636452Y-22375779D01*
X18610817Y-22407017D01*
X18579579Y-22432652D01*
X18543937Y-22451704D01*
X18505266Y-22463435D01*
X18458912Y-22468000D01*
X17807688Y-22468000D01*
X17761334Y-22463435D01*
X17722663Y-22451704D01*
X17687021Y-22432652D01*
X17655783Y-22407017D01*
X17630148Y-22375779D01*
X17611096Y-22340137D01*
X17599365Y-22301466D01*
X17594800Y-22255112D01*
X17594800Y-21178888D01*
X17599365Y-21132534D01*
X17611096Y-21093863D01*
X17630148Y-21058221D01*
X17655783Y-21026983D01*
X17687021Y-21001348D01*
X17722663Y-20982296D01*
X17761334Y-20970565D01*
X17807688Y-20966000D01*
X18458912Y-20966000D01*
X18505266Y-20970565D01*
X18505266Y-20970565D01*
G37*
G36*
X44831266Y-20113965D02*
X44869937Y-20125696D01*
X44905579Y-20144748D01*
X44936817Y-20170383D01*
X44962452Y-20201621D01*
X44981504Y-20237263D01*
X44993235Y-20275934D01*
X44997800Y-20322288D01*
X44997800Y-20973512D01*
X44993235Y-21019866D01*
X44981504Y-21058537D01*
X44962452Y-21094179D01*
X44936817Y-21125417D01*
X44905579Y-21151052D01*
X44869937Y-21170104D01*
X44831266Y-21181835D01*
X44784912Y-21186400D01*
X43708688Y-21186400D01*
X43662334Y-21181835D01*
X43623663Y-21170104D01*
X43588021Y-21151052D01*
X43556783Y-21125417D01*
X43531148Y-21094179D01*
X43512096Y-21058537D01*
X43500365Y-21019866D01*
X43495800Y-20973512D01*
X43495800Y-20322288D01*
X43500365Y-20275934D01*
X43512096Y-20237263D01*
X43531148Y-20201621D01*
X43556783Y-20170383D01*
X43588021Y-20144748D01*
X43623663Y-20125696D01*
X43662334Y-20113965D01*
X43708688Y-20109400D01*
X44784912Y-20109400D01*
X44831266Y-20113965D01*
X44831266Y-20113965D01*
G37*
G36*
X22494477Y-18938465D02*
X22532164Y-18949898D01*
X22566903Y-18968466D01*
X22597348Y-18993452D01*
X22622334Y-19023897D01*
X22640902Y-19058636D01*
X22652335Y-19096323D01*
X22656800Y-19141661D01*
X22656800Y-20228339D01*
X22652335Y-20273677D01*
X22640902Y-20311364D01*
X22622334Y-20346103D01*
X22597348Y-20376548D01*
X22566903Y-20401534D01*
X22532164Y-20420102D01*
X22494477Y-20431535D01*
X22449139Y-20436000D01*
X21612461Y-20436000D01*
X21567123Y-20431535D01*
X21529436Y-20420102D01*
X21494697Y-20401534D01*
X21464252Y-20376548D01*
X21439266Y-20346103D01*
X21420698Y-20311364D01*
X21409265Y-20273677D01*
X21404800Y-20228339D01*
X21404800Y-19141661D01*
X21409265Y-19096323D01*
X21420698Y-19058636D01*
X21439266Y-19023897D01*
X21464252Y-18993452D01*
X21494697Y-18968466D01*
X21529436Y-18949898D01*
X21567123Y-18938465D01*
X21612461Y-18934000D01*
X22449139Y-18934000D01*
X22494477Y-18938465D01*
X22494477Y-18938465D01*
G37*
G36*
X20444477Y-18938465D02*
X20482164Y-18949898D01*
X20516903Y-18968466D01*
X20547348Y-18993452D01*
X20572334Y-19023897D01*
X20590902Y-19058636D01*
X20602335Y-19096323D01*
X20606800Y-19141661D01*
X20606800Y-20228339D01*
X20602335Y-20273677D01*
X20590902Y-20311364D01*
X20572334Y-20346103D01*
X20547348Y-20376548D01*
X20516903Y-20401534D01*
X20482164Y-20420102D01*
X20444477Y-20431535D01*
X20399139Y-20436000D01*
X19562461Y-20436000D01*
X19517123Y-20431535D01*
X19479436Y-20420102D01*
X19444697Y-20401534D01*
X19414252Y-20376548D01*
X19389266Y-20346103D01*
X19370698Y-20311364D01*
X19359265Y-20273677D01*
X19354800Y-20228339D01*
X19354800Y-19141661D01*
X19359265Y-19096323D01*
X19370698Y-19058636D01*
X19389266Y-19023897D01*
X19414252Y-18993452D01*
X19444697Y-18968466D01*
X19479436Y-18949898D01*
X19517123Y-18938465D01*
X19562461Y-18934000D01*
X20399139Y-18934000D01*
X20444477Y-18938465D01*
X20444477Y-18938465D01*
G37*
G36*
X13476400Y-20283600D02*
X12736400Y-20283600D01*
X12736400Y-18593600D01*
X13476400Y-18593600D01*
X13476400Y-20283600D01*
X13476400Y-20283600D01*
G37*
G36*
X18556400Y-20283600D02*
X17816400Y-20283600D01*
X17816400Y-18593600D01*
X18556400Y-18593600D01*
X18556400Y-20283600D01*
X18556400Y-20283600D01*
G37*
G36*
X9666400Y-20283600D02*
X8926400Y-20283600D01*
X8926400Y-18593600D01*
X9666400Y-18593600D01*
X9666400Y-20283600D01*
X9666400Y-20283600D01*
G37*
G36*
X17286400Y-20283600D02*
X16546400Y-20283600D01*
X16546400Y-18593600D01*
X17286400Y-18593600D01*
X17286400Y-20283600D01*
X17286400Y-20283600D01*
G37*
G36*
X16016400Y-20283600D02*
X15276400Y-20283600D01*
X15276400Y-18593600D01*
X16016400Y-18593600D01*
X16016400Y-20283600D01*
X16016400Y-20283600D01*
G37*
G36*
X14746400Y-20283600D02*
X14006400Y-20283600D01*
X14006400Y-18593600D01*
X14746400Y-18593600D01*
X14746400Y-20283600D01*
X14746400Y-20283600D01*
G37*
G36*
X12206400Y-20283600D02*
X11466400Y-20283600D01*
X11466400Y-18593600D01*
X12206400Y-18593600D01*
X12206400Y-20283600D01*
X12206400Y-20283600D01*
G37*
G36*
X10936400Y-20283600D02*
X10196400Y-20283600D01*
X10196400Y-18593600D01*
X10936400Y-18593600D01*
X10936400Y-20283600D01*
X10936400Y-20283600D01*
G37*
G36*
X47066466Y-19047165D02*
X47105137Y-19058896D01*
X47140779Y-19077948D01*
X47172017Y-19103583D01*
X47197652Y-19134821D01*
X47216704Y-19170463D01*
X47228435Y-19209134D01*
X47233000Y-19255488D01*
X47233000Y-19906712D01*
X47228435Y-19953066D01*
X47216704Y-19991737D01*
X47197652Y-20027379D01*
X47172017Y-20058617D01*
X47140779Y-20084252D01*
X47105137Y-20103304D01*
X47066466Y-20115035D01*
X47020112Y-20119600D01*
X45943888Y-20119600D01*
X45897534Y-20115035D01*
X45858863Y-20103304D01*
X45823221Y-20084252D01*
X45791983Y-20058617D01*
X45766348Y-20027379D01*
X45747296Y-19991737D01*
X45735565Y-19953066D01*
X45731000Y-19906712D01*
X45731000Y-19255488D01*
X45735565Y-19209134D01*
X45747296Y-19170463D01*
X45766348Y-19134821D01*
X45791983Y-19103583D01*
X45823221Y-19077948D01*
X45858863Y-19058896D01*
X45897534Y-19047165D01*
X45943888Y-19042600D01*
X47020112Y-19042600D01*
X47066466Y-19047165D01*
X47066466Y-19047165D01*
G37*
G36*
X54106200Y-19945400D02*
X52554200Y-19945400D01*
X52554200Y-17443400D01*
X54106200Y-17443400D01*
X54106200Y-19945400D01*
X54106200Y-19945400D01*
G37*
G36*
X49706200Y-19945400D02*
X48154200Y-19945400D01*
X48154200Y-17443400D01*
X49706200Y-17443400D01*
X49706200Y-19945400D01*
X49706200Y-19945400D01*
G37*
G36*
X44831266Y-18238965D02*
X44869937Y-18250696D01*
X44905579Y-18269748D01*
X44936817Y-18295383D01*
X44962452Y-18326621D01*
X44981504Y-18362263D01*
X44993235Y-18400934D01*
X44997800Y-18447288D01*
X44997800Y-19098512D01*
X44993235Y-19144866D01*
X44981504Y-19183537D01*
X44962452Y-19219179D01*
X44936817Y-19250417D01*
X44905579Y-19276052D01*
X44869937Y-19295104D01*
X44831266Y-19306835D01*
X44784912Y-19311400D01*
X43708688Y-19311400D01*
X43662334Y-19306835D01*
X43623663Y-19295104D01*
X43588021Y-19276052D01*
X43556783Y-19250417D01*
X43531148Y-19219179D01*
X43512096Y-19183537D01*
X43500365Y-19144866D01*
X43495800Y-19098512D01*
X43495800Y-18447288D01*
X43500365Y-18400934D01*
X43512096Y-18362263D01*
X43531148Y-18326621D01*
X43556783Y-18295383D01*
X43588021Y-18269748D01*
X43623663Y-18250696D01*
X43662334Y-18238965D01*
X43708688Y-18234400D01*
X44784912Y-18234400D01*
X44831266Y-18238965D01*
X44831266Y-18238965D01*
G37*
G36*
X22494477Y-16906465D02*
X22532164Y-16917898D01*
X22566903Y-16936466D01*
X22597348Y-16961452D01*
X22622334Y-16991897D01*
X22640902Y-17026636D01*
X22652335Y-17064323D01*
X22656800Y-17109661D01*
X22656800Y-18196339D01*
X22652335Y-18241677D01*
X22640902Y-18279364D01*
X22622334Y-18314103D01*
X22597348Y-18344548D01*
X22566903Y-18369534D01*
X22532164Y-18388102D01*
X22494477Y-18399535D01*
X22449139Y-18404000D01*
X21612461Y-18404000D01*
X21567123Y-18399535D01*
X21529436Y-18388102D01*
X21494697Y-18369534D01*
X21464252Y-18344548D01*
X21439266Y-18314103D01*
X21420698Y-18279364D01*
X21409265Y-18241677D01*
X21404800Y-18196339D01*
X21404800Y-17109661D01*
X21409265Y-17064323D01*
X21420698Y-17026636D01*
X21439266Y-16991897D01*
X21464252Y-16961452D01*
X21494697Y-16936466D01*
X21529436Y-16917898D01*
X21567123Y-16906465D01*
X21612461Y-16902000D01*
X22449139Y-16902000D01*
X22494477Y-16906465D01*
X22494477Y-16906465D01*
G37*
G36*
X20444477Y-16906465D02*
X20482164Y-16917898D01*
X20516903Y-16936466D01*
X20547348Y-16961452D01*
X20572334Y-16991897D01*
X20590902Y-17026636D01*
X20602335Y-17064323D01*
X20606800Y-17109661D01*
X20606800Y-18196339D01*
X20602335Y-18241677D01*
X20590902Y-18279364D01*
X20572334Y-18314103D01*
X20547348Y-18344548D01*
X20516903Y-18369534D01*
X20482164Y-18388102D01*
X20444477Y-18399535D01*
X20399139Y-18404000D01*
X19562461Y-18404000D01*
X19517123Y-18399535D01*
X19479436Y-18388102D01*
X19444697Y-18369534D01*
X19414252Y-18344548D01*
X19389266Y-18314103D01*
X19370698Y-18279364D01*
X19359265Y-18241677D01*
X19354800Y-18196339D01*
X19354800Y-17109661D01*
X19359265Y-17064323D01*
X19370698Y-17026636D01*
X19389266Y-16991897D01*
X19414252Y-16961452D01*
X19444697Y-16936466D01*
X19479436Y-16917898D01*
X19517123Y-16906465D01*
X19562461Y-16902000D01*
X20399139Y-16902000D01*
X20444477Y-16906465D01*
X20444477Y-16906465D01*
G37*
G36*
X47066466Y-17172165D02*
X47105137Y-17183896D01*
X47140779Y-17202948D01*
X47172017Y-17228583D01*
X47197652Y-17259821D01*
X47216704Y-17295463D01*
X47228435Y-17334134D01*
X47233000Y-17380488D01*
X47233000Y-18031712D01*
X47228435Y-18078066D01*
X47216704Y-18116737D01*
X47197652Y-18152379D01*
X47172017Y-18183617D01*
X47140779Y-18209252D01*
X47105137Y-18228304D01*
X47066466Y-18240035D01*
X47020112Y-18244600D01*
X45943888Y-18244600D01*
X45897534Y-18240035D01*
X45858863Y-18228304D01*
X45823221Y-18209252D01*
X45791983Y-18183617D01*
X45766348Y-18152379D01*
X45747296Y-18116737D01*
X45735565Y-18078066D01*
X45731000Y-18031712D01*
X45731000Y-17380488D01*
X45735565Y-17334134D01*
X45747296Y-17295463D01*
X45766348Y-17259821D01*
X45791983Y-17228583D01*
X45823221Y-17202948D01*
X45858863Y-17183896D01*
X45897534Y-17172165D01*
X45943888Y-17167600D01*
X47020112Y-17167600D01*
X47066466Y-17172165D01*
X47066466Y-17172165D01*
G37*
G36*
X51737277Y-15128465D02*
X51774964Y-15139898D01*
X51809703Y-15158466D01*
X51840148Y-15183452D01*
X51865134Y-15213897D01*
X51883702Y-15248636D01*
X51895135Y-15286323D01*
X51899600Y-15331661D01*
X51899600Y-16418339D01*
X51895135Y-16463677D01*
X51883702Y-16501364D01*
X51865134Y-16536103D01*
X51840148Y-16566548D01*
X51809703Y-16591534D01*
X51774964Y-16610102D01*
X51737277Y-16621535D01*
X51691939Y-16626000D01*
X50855261Y-16626000D01*
X50809923Y-16621535D01*
X50772236Y-16610102D01*
X50737497Y-16591534D01*
X50707052Y-16566548D01*
X50682066Y-16536103D01*
X50663498Y-16501364D01*
X50652065Y-16463677D01*
X50647600Y-16418339D01*
X50647600Y-15331661D01*
X50652065Y-15286323D01*
X50663498Y-15248636D01*
X50682066Y-15213897D01*
X50707052Y-15183452D01*
X50737497Y-15158466D01*
X50772236Y-15139898D01*
X50809923Y-15128465D01*
X50855261Y-15124000D01*
X51691939Y-15124000D01*
X51737277Y-15128465D01*
X51737277Y-15128465D01*
G37*
G36*
X53787277Y-15128465D02*
X53824964Y-15139898D01*
X53859703Y-15158466D01*
X53890148Y-15183452D01*
X53915134Y-15213897D01*
X53933702Y-15248636D01*
X53945135Y-15286323D01*
X53949600Y-15331661D01*
X53949600Y-16418339D01*
X53945135Y-16463677D01*
X53933702Y-16501364D01*
X53915134Y-16536103D01*
X53890148Y-16566548D01*
X53859703Y-16591534D01*
X53824964Y-16610102D01*
X53787277Y-16621535D01*
X53741939Y-16626000D01*
X52905261Y-16626000D01*
X52859923Y-16621535D01*
X52822236Y-16610102D01*
X52787497Y-16591534D01*
X52757052Y-16566548D01*
X52732066Y-16536103D01*
X52713498Y-16501364D01*
X52702065Y-16463677D01*
X52697600Y-16418339D01*
X52697600Y-15331661D01*
X52702065Y-15286323D01*
X52713498Y-15248636D01*
X52732066Y-15213897D01*
X52757052Y-15183452D01*
X52787497Y-15158466D01*
X52822236Y-15139898D01*
X52859923Y-15128465D01*
X52905261Y-15124000D01*
X53741939Y-15124000D01*
X53787277Y-15128465D01*
X53787277Y-15128465D01*
G37*
G36*
X22494477Y-14874465D02*
X22532164Y-14885898D01*
X22566903Y-14904466D01*
X22597348Y-14929452D01*
X22622334Y-14959897D01*
X22640902Y-14994636D01*
X22652335Y-15032323D01*
X22656800Y-15077661D01*
X22656800Y-16164339D01*
X22652335Y-16209677D01*
X22640902Y-16247364D01*
X22622334Y-16282103D01*
X22597348Y-16312548D01*
X22566903Y-16337534D01*
X22532164Y-16356102D01*
X22494477Y-16367535D01*
X22449139Y-16372000D01*
X21612461Y-16372000D01*
X21567123Y-16367535D01*
X21529436Y-16356102D01*
X21494697Y-16337534D01*
X21464252Y-16312548D01*
X21439266Y-16282103D01*
X21420698Y-16247364D01*
X21409265Y-16209677D01*
X21404800Y-16164339D01*
X21404800Y-15077661D01*
X21409265Y-15032323D01*
X21420698Y-14994636D01*
X21439266Y-14959897D01*
X21464252Y-14929452D01*
X21494697Y-14904466D01*
X21529436Y-14885898D01*
X21567123Y-14874465D01*
X21612461Y-14870000D01*
X22449139Y-14870000D01*
X22494477Y-14874465D01*
X22494477Y-14874465D01*
G37*
G36*
X20444477Y-14874465D02*
X20482164Y-14885898D01*
X20516903Y-14904466D01*
X20547348Y-14929452D01*
X20572334Y-14959897D01*
X20590902Y-14994636D01*
X20602335Y-15032323D01*
X20606800Y-15077661D01*
X20606800Y-16164339D01*
X20602335Y-16209677D01*
X20590902Y-16247364D01*
X20572334Y-16282103D01*
X20547348Y-16312548D01*
X20516903Y-16337534D01*
X20482164Y-16356102D01*
X20444477Y-16367535D01*
X20399139Y-16372000D01*
X19562461Y-16372000D01*
X19517123Y-16367535D01*
X19479436Y-16356102D01*
X19444697Y-16337534D01*
X19414252Y-16312548D01*
X19389266Y-16282103D01*
X19370698Y-16247364D01*
X19359265Y-16209677D01*
X19354800Y-16164339D01*
X19354800Y-15077661D01*
X19359265Y-15032323D01*
X19370698Y-14994636D01*
X19389266Y-14959897D01*
X19414252Y-14929452D01*
X19444697Y-14904466D01*
X19479436Y-14885898D01*
X19517123Y-14874465D01*
X19562461Y-14870000D01*
X20399139Y-14870000D01*
X20444477Y-14874465D01*
X20444477Y-14874465D01*
G37*
G36*
X17286400Y-14883600D02*
X16546400Y-14883600D01*
X16546400Y-13193600D01*
X17286400Y-13193600D01*
X17286400Y-14883600D01*
X17286400Y-14883600D01*
G37*
G36*
X10936400Y-14883600D02*
X10196400Y-14883600D01*
X10196400Y-13193600D01*
X10936400Y-13193600D01*
X10936400Y-14883600D01*
X10936400Y-14883600D01*
G37*
G36*
X12206400Y-14883600D02*
X11466400Y-14883600D01*
X11466400Y-13193600D01*
X12206400Y-13193600D01*
X12206400Y-14883600D01*
X12206400Y-14883600D01*
G37*
G36*
X13476400Y-14883600D02*
X12736400Y-14883600D01*
X12736400Y-13193600D01*
X13476400Y-13193600D01*
X13476400Y-14883600D01*
X13476400Y-14883600D01*
G37*
G36*
X9666400Y-14883600D02*
X8926400Y-14883600D01*
X8926400Y-13193600D01*
X9666400Y-13193600D01*
X9666400Y-14883600D01*
X9666400Y-14883600D01*
G37*
G36*
X14746400Y-14883600D02*
X14006400Y-14883600D01*
X14006400Y-13193600D01*
X14746400Y-13193600D01*
X14746400Y-14883600D01*
X14746400Y-14883600D01*
G37*
G36*
X18556400Y-14883600D02*
X17816400Y-14883600D01*
X17816400Y-13193600D01*
X18556400Y-13193600D01*
X18556400Y-14883600D01*
X18556400Y-14883600D01*
G37*
G36*
X16016400Y-14883600D02*
X15276400Y-14883600D01*
X15276400Y-13193600D01*
X16016400Y-13193600D01*
X16016400Y-14883600D01*
X16016400Y-14883600D01*
G37*
G36*
X53787277Y-13096465D02*
X53824964Y-13107898D01*
X53859703Y-13126466D01*
X53890148Y-13151452D01*
X53915134Y-13181897D01*
X53933702Y-13216636D01*
X53945135Y-13254323D01*
X53949600Y-13299661D01*
X53949600Y-14386339D01*
X53945135Y-14431677D01*
X53933702Y-14469364D01*
X53915134Y-14504103D01*
X53890148Y-14534548D01*
X53859703Y-14559534D01*
X53824964Y-14578102D01*
X53787277Y-14589535D01*
X53741939Y-14594000D01*
X52905261Y-14594000D01*
X52859923Y-14589535D01*
X52822236Y-14578102D01*
X52787497Y-14559534D01*
X52757052Y-14534548D01*
X52732066Y-14504103D01*
X52713498Y-14469364D01*
X52702065Y-14431677D01*
X52697600Y-14386339D01*
X52697600Y-13299661D01*
X52702065Y-13254323D01*
X52713498Y-13216636D01*
X52732066Y-13181897D01*
X52757052Y-13151452D01*
X52787497Y-13126466D01*
X52822236Y-13107898D01*
X52859923Y-13096465D01*
X52905261Y-13092000D01*
X53741939Y-13092000D01*
X53787277Y-13096465D01*
X53787277Y-13096465D01*
G37*
G36*
X51737277Y-13096465D02*
X51774964Y-13107898D01*
X51809703Y-13126466D01*
X51840148Y-13151452D01*
X51865134Y-13181897D01*
X51883702Y-13216636D01*
X51895135Y-13254323D01*
X51899600Y-13299661D01*
X51899600Y-14386339D01*
X51895135Y-14431677D01*
X51883702Y-14469364D01*
X51865134Y-14504103D01*
X51840148Y-14534548D01*
X51809703Y-14559534D01*
X51774964Y-14578102D01*
X51737277Y-14589535D01*
X51691939Y-14594000D01*
X50855261Y-14594000D01*
X50809923Y-14589535D01*
X50772236Y-14578102D01*
X50737497Y-14559534D01*
X50707052Y-14534548D01*
X50682066Y-14504103D01*
X50663498Y-14469364D01*
X50652065Y-14431677D01*
X50647600Y-14386339D01*
X50647600Y-13299661D01*
X50652065Y-13254323D01*
X50663498Y-13216636D01*
X50682066Y-13181897D01*
X50707052Y-13151452D01*
X50737497Y-13126466D01*
X50772236Y-13107898D01*
X50809923Y-13096465D01*
X50855261Y-13092000D01*
X51691939Y-13092000D01*
X51737277Y-13096465D01*
X51737277Y-13096465D01*
G37*
G36*
X22494477Y-12842465D02*
X22532164Y-12853898D01*
X22566903Y-12872466D01*
X22597348Y-12897452D01*
X22622334Y-12927897D01*
X22640902Y-12962636D01*
X22652335Y-13000323D01*
X22656800Y-13045661D01*
X22656800Y-14132339D01*
X22652335Y-14177677D01*
X22640902Y-14215364D01*
X22622334Y-14250103D01*
X22597348Y-14280548D01*
X22566903Y-14305534D01*
X22532164Y-14324102D01*
X22494477Y-14335535D01*
X22449139Y-14340000D01*
X21612461Y-14340000D01*
X21567123Y-14335535D01*
X21529436Y-14324102D01*
X21494697Y-14305534D01*
X21464252Y-14280548D01*
X21439266Y-14250103D01*
X21420698Y-14215364D01*
X21409265Y-14177677D01*
X21404800Y-14132339D01*
X21404800Y-13045661D01*
X21409265Y-13000323D01*
X21420698Y-12962636D01*
X21439266Y-12927897D01*
X21464252Y-12897452D01*
X21494697Y-12872466D01*
X21529436Y-12853898D01*
X21567123Y-12842465D01*
X21612461Y-12838000D01*
X22449139Y-12838000D01*
X22494477Y-12842465D01*
X22494477Y-12842465D01*
G37*
G36*
X20444477Y-12842465D02*
X20482164Y-12853898D01*
X20516903Y-12872466D01*
X20547348Y-12897452D01*
X20572334Y-12927897D01*
X20590902Y-12962636D01*
X20602335Y-13000323D01*
X20606800Y-13045661D01*
X20606800Y-14132339D01*
X20602335Y-14177677D01*
X20590902Y-14215364D01*
X20572334Y-14250103D01*
X20547348Y-14280548D01*
X20516903Y-14305534D01*
X20482164Y-14324102D01*
X20444477Y-14335535D01*
X20399139Y-14340000D01*
X19562461Y-14340000D01*
X19517123Y-14335535D01*
X19479436Y-14324102D01*
X19444697Y-14305534D01*
X19414252Y-14280548D01*
X19389266Y-14250103D01*
X19370698Y-14215364D01*
X19359265Y-14177677D01*
X19354800Y-14132339D01*
X19354800Y-13045661D01*
X19359265Y-13000323D01*
X19370698Y-12962636D01*
X19389266Y-12927897D01*
X19414252Y-12897452D01*
X19444697Y-12872466D01*
X19479436Y-12853898D01*
X19517123Y-12842465D01*
X19562461Y-12838000D01*
X20399139Y-12838000D01*
X20444477Y-12842465D01*
X20444477Y-12842465D01*
G37*
G36*
X20879066Y-11249365D02*
X20917737Y-11261096D01*
X20953379Y-11280148D01*
X20984617Y-11305783D01*
X21010252Y-11337021D01*
X21029304Y-11372663D01*
X21041035Y-11411334D01*
X21045600Y-11457688D01*
X21045600Y-12108912D01*
X21041035Y-12155266D01*
X21029304Y-12193937D01*
X21010252Y-12229579D01*
X20984617Y-12260817D01*
X20953379Y-12286452D01*
X20917737Y-12305504D01*
X20879066Y-12317235D01*
X20832712Y-12321800D01*
X19756488Y-12321800D01*
X19710134Y-12317235D01*
X19671463Y-12305504D01*
X19635821Y-12286452D01*
X19604583Y-12260817D01*
X19578948Y-12229579D01*
X19559896Y-12193937D01*
X19548165Y-12155266D01*
X19543600Y-12108912D01*
X19543600Y-11457688D01*
X19548165Y-11411334D01*
X19559896Y-11372663D01*
X19578948Y-11337021D01*
X19604583Y-11305783D01*
X19635821Y-11280148D01*
X19671463Y-11261096D01*
X19710134Y-11249365D01*
X19756488Y-11244800D01*
X20832712Y-11244800D01*
X20879066Y-11249365D01*
X20879066Y-11249365D01*
G37*
G36*
X18708466Y-10556565D02*
X18747137Y-10568296D01*
X18782779Y-10587348D01*
X18814017Y-10612983D01*
X18839652Y-10644221D01*
X18858704Y-10679863D01*
X18870435Y-10718534D01*
X18875000Y-10764888D01*
X18875000Y-11841112D01*
X18870435Y-11887466D01*
X18858704Y-11926137D01*
X18839652Y-11961779D01*
X18814017Y-11993017D01*
X18782779Y-12018652D01*
X18747137Y-12037704D01*
X18708466Y-12049435D01*
X18662112Y-12054000D01*
X18010888Y-12054000D01*
X17964534Y-12049435D01*
X17925863Y-12037704D01*
X17890221Y-12018652D01*
X17858983Y-11993017D01*
X17833348Y-11961779D01*
X17814296Y-11926137D01*
X17802565Y-11887466D01*
X17798000Y-11841112D01*
X17798000Y-10764888D01*
X17802565Y-10718534D01*
X17814296Y-10679863D01*
X17833348Y-10644221D01*
X17858983Y-10612983D01*
X17890221Y-10587348D01*
X17925863Y-10568296D01*
X17964534Y-10556565D01*
X18010888Y-10552000D01*
X18662112Y-10552000D01*
X18708466Y-10556565D01*
X18708466Y-10556565D01*
G37*
G36*
X16833466Y-10556565D02*
X16872137Y-10568296D01*
X16907779Y-10587348D01*
X16939017Y-10612983D01*
X16964652Y-10644221D01*
X16983704Y-10679863D01*
X16995435Y-10718534D01*
X17000000Y-10764888D01*
X17000000Y-11841112D01*
X16995435Y-11887466D01*
X16983704Y-11926137D01*
X16964652Y-11961779D01*
X16939017Y-11993017D01*
X16907779Y-12018652D01*
X16872137Y-12037704D01*
X16833466Y-12049435D01*
X16787112Y-12054000D01*
X16135888Y-12054000D01*
X16089534Y-12049435D01*
X16050863Y-12037704D01*
X16015221Y-12018652D01*
X15983983Y-11993017D01*
X15958348Y-11961779D01*
X15939296Y-11926137D01*
X15927565Y-11887466D01*
X15923000Y-11841112D01*
X15923000Y-10764888D01*
X15927565Y-10718534D01*
X15939296Y-10679863D01*
X15958348Y-10644221D01*
X15983983Y-10612983D01*
X16015221Y-10587348D01*
X16050863Y-10568296D01*
X16089534Y-10556565D01*
X16135888Y-10552000D01*
X16787112Y-10552000D01*
X16833466Y-10556565D01*
X16833466Y-10556565D01*
G37*
G36*
X46551466Y-9946965D02*
X46590137Y-9958696D01*
X46625779Y-9977748D01*
X46657017Y-10003383D01*
X46682652Y-10034621D01*
X46701704Y-10070263D01*
X46713435Y-10108934D01*
X46718000Y-10155288D01*
X46718000Y-11231512D01*
X46713435Y-11277866D01*
X46701704Y-11316537D01*
X46682652Y-11352179D01*
X46657017Y-11383417D01*
X46625779Y-11409052D01*
X46590137Y-11428104D01*
X46551466Y-11439835D01*
X46505112Y-11444400D01*
X45853888Y-11444400D01*
X45807534Y-11439835D01*
X45768863Y-11428104D01*
X45733221Y-11409052D01*
X45701983Y-11383417D01*
X45676348Y-11352179D01*
X45657296Y-11316537D01*
X45645565Y-11277866D01*
X45641000Y-11231512D01*
X45641000Y-10155288D01*
X45645565Y-10108934D01*
X45657296Y-10070263D01*
X45676348Y-10034621D01*
X45701983Y-10003383D01*
X45733221Y-9977748D01*
X45768863Y-9958696D01*
X45807534Y-9946965D01*
X45853888Y-9942400D01*
X46505112Y-9942400D01*
X46551466Y-9946965D01*
X46551466Y-9946965D01*
G37*
G36*
X48426466Y-9946965D02*
X48465137Y-9958696D01*
X48500779Y-9977748D01*
X48532017Y-10003383D01*
X48557652Y-10034621D01*
X48576704Y-10070263D01*
X48588435Y-10108934D01*
X48593000Y-10155288D01*
X48593000Y-11231512D01*
X48588435Y-11277866D01*
X48576704Y-11316537D01*
X48557652Y-11352179D01*
X48532017Y-11383417D01*
X48500779Y-11409052D01*
X48465137Y-11428104D01*
X48426466Y-11439835D01*
X48380112Y-11444400D01*
X47728888Y-11444400D01*
X47682534Y-11439835D01*
X47643863Y-11428104D01*
X47608221Y-11409052D01*
X47576983Y-11383417D01*
X47551348Y-11352179D01*
X47532296Y-11316537D01*
X47520565Y-11277866D01*
X47516000Y-11231512D01*
X47516000Y-10155288D01*
X47520565Y-10108934D01*
X47532296Y-10070263D01*
X47551348Y-10034621D01*
X47576983Y-10003383D01*
X47608221Y-9977748D01*
X47643863Y-9958696D01*
X47682534Y-9946965D01*
X47728888Y-9942400D01*
X48380112Y-9942400D01*
X48426466Y-9946965D01*
X48426466Y-9946965D01*
G37*
G36*
X51559477Y-9730965D02*
X51597164Y-9742398D01*
X51631903Y-9760966D01*
X51662348Y-9785952D01*
X51687334Y-9816397D01*
X51705902Y-9851136D01*
X51717335Y-9888823D01*
X51721800Y-9934161D01*
X51721800Y-11020839D01*
X51717335Y-11066177D01*
X51705902Y-11103864D01*
X51687334Y-11138603D01*
X51662348Y-11169048D01*
X51631903Y-11194034D01*
X51597164Y-11212602D01*
X51559477Y-11224035D01*
X51514139Y-11228500D01*
X50677461Y-11228500D01*
X50632123Y-11224035D01*
X50594436Y-11212602D01*
X50559697Y-11194034D01*
X50529252Y-11169048D01*
X50504266Y-11138603D01*
X50485698Y-11103864D01*
X50474265Y-11066177D01*
X50469800Y-11020839D01*
X50469800Y-9934161D01*
X50474265Y-9888823D01*
X50485698Y-9851136D01*
X50504266Y-9816397D01*
X50529252Y-9785952D01*
X50559697Y-9760966D01*
X50594436Y-9742398D01*
X50632123Y-9730965D01*
X50677461Y-9726500D01*
X51514139Y-9726500D01*
X51559477Y-9730965D01*
X51559477Y-9730965D01*
G37*
G36*
X53609477Y-9730965D02*
X53647164Y-9742398D01*
X53681903Y-9760966D01*
X53712348Y-9785952D01*
X53737334Y-9816397D01*
X53755902Y-9851136D01*
X53767335Y-9888823D01*
X53771800Y-9934161D01*
X53771800Y-11020839D01*
X53767335Y-11066177D01*
X53755902Y-11103864D01*
X53737334Y-11138603D01*
X53712348Y-11169048D01*
X53681903Y-11194034D01*
X53647164Y-11212602D01*
X53609477Y-11224035D01*
X53564139Y-11228500D01*
X52727461Y-11228500D01*
X52682123Y-11224035D01*
X52644436Y-11212602D01*
X52609697Y-11194034D01*
X52579252Y-11169048D01*
X52554266Y-11138603D01*
X52535698Y-11103864D01*
X52524265Y-11066177D01*
X52519800Y-11020839D01*
X52519800Y-9934161D01*
X52524265Y-9888823D01*
X52535698Y-9851136D01*
X52554266Y-9816397D01*
X52579252Y-9785952D01*
X52609697Y-9760966D01*
X52644436Y-9742398D01*
X52682123Y-9730965D01*
X52727461Y-9726500D01*
X53564139Y-9726500D01*
X53609477Y-9730965D01*
X53609477Y-9730965D01*
G37*
G36*
X20879066Y-9374365D02*
X20917737Y-9386096D01*
X20953379Y-9405148D01*
X20984617Y-9430783D01*
X21010252Y-9462021D01*
X21029304Y-9497663D01*
X21041035Y-9536334D01*
X21045600Y-9582688D01*
X21045600Y-10233912D01*
X21041035Y-10280266D01*
X21029304Y-10318937D01*
X21010252Y-10354579D01*
X20984617Y-10385817D01*
X20953379Y-10411452D01*
X20917737Y-10430504D01*
X20879066Y-10442235D01*
X20832712Y-10446800D01*
X19756488Y-10446800D01*
X19710134Y-10442235D01*
X19671463Y-10430504D01*
X19635821Y-10411452D01*
X19604583Y-10385817D01*
X19578948Y-10354579D01*
X19559896Y-10318937D01*
X19548165Y-10280266D01*
X19543600Y-10233912D01*
X19543600Y-9582688D01*
X19548165Y-9536334D01*
X19559896Y-9497663D01*
X19578948Y-9462021D01*
X19604583Y-9430783D01*
X19635821Y-9405148D01*
X19671463Y-9386096D01*
X19710134Y-9374365D01*
X19756488Y-9369800D01*
X20832712Y-9369800D01*
X20879066Y-9374365D01*
X20879066Y-9374365D01*
G37*
G36*
X5777800Y-10299000D02*
X3975800Y-10299000D01*
X3975800Y-8497000D01*
X5777800Y-8497000D01*
X5777800Y-10299000D01*
X5777800Y-10299000D01*
G37*
G36*
X10067242Y-8503518D02*
X10133427Y-8510037D01*
X10246653Y-8544384D01*
X10303267Y-8561557D01*
X10441887Y-8635652D01*
X10459791Y-8645222D01*
X10495529Y-8674552D01*
X10596986Y-8757814D01*
X10680248Y-8859271D01*
X10709578Y-8895009D01*
X10709579Y-8895011D01*
X10793243Y-9051533D01*
X10793243Y-9051534D01*
X10844763Y-9221373D01*
X10862159Y-9398000D01*
X10844763Y-9574627D01*
X10810416Y-9687853D01*
X10793243Y-9744467D01*
X10771068Y-9785952D01*
X10709578Y-9900991D01*
X10682356Y-9934161D01*
X10596986Y-10038186D01*
X10511170Y-10108612D01*
X10459791Y-10150778D01*
X10459789Y-10150779D01*
X10303267Y-10234443D01*
X10246653Y-10251616D01*
X10133427Y-10285963D01*
X10067242Y-10292482D01*
X10001060Y-10299000D01*
X9912540Y-10299000D01*
X9846358Y-10292482D01*
X9780173Y-10285963D01*
X9666947Y-10251616D01*
X9610333Y-10234443D01*
X9453811Y-10150779D01*
X9453809Y-10150778D01*
X9402430Y-10108612D01*
X9316614Y-10038186D01*
X9231244Y-9934161D01*
X9204022Y-9900991D01*
X9142532Y-9785952D01*
X9120357Y-9744467D01*
X9103184Y-9687853D01*
X9068837Y-9574627D01*
X9051441Y-9398000D01*
X9068837Y-9221373D01*
X9120357Y-9051534D01*
X9120357Y-9051533D01*
X9204021Y-8895011D01*
X9204022Y-8895009D01*
X9233352Y-8859271D01*
X9316614Y-8757814D01*
X9418071Y-8674552D01*
X9453809Y-8645222D01*
X9471713Y-8635652D01*
X9610333Y-8561557D01*
X9666947Y-8544384D01*
X9780173Y-8510037D01*
X9846358Y-8503518D01*
X9912540Y-8497000D01*
X10001060Y-8497000D01*
X10067242Y-8503518D01*
X10067242Y-8503518D01*
G37*
G36*
X7527242Y-8503518D02*
X7593427Y-8510037D01*
X7706653Y-8544384D01*
X7763267Y-8561557D01*
X7901887Y-8635652D01*
X7919791Y-8645222D01*
X7955529Y-8674552D01*
X8056986Y-8757814D01*
X8140248Y-8859271D01*
X8169578Y-8895009D01*
X8169579Y-8895011D01*
X8253243Y-9051533D01*
X8253243Y-9051534D01*
X8304763Y-9221373D01*
X8322159Y-9398000D01*
X8304763Y-9574627D01*
X8270416Y-9687853D01*
X8253243Y-9744467D01*
X8231068Y-9785952D01*
X8169578Y-9900991D01*
X8142356Y-9934161D01*
X8056986Y-10038186D01*
X7971170Y-10108612D01*
X7919791Y-10150778D01*
X7919789Y-10150779D01*
X7763267Y-10234443D01*
X7706653Y-10251616D01*
X7593427Y-10285963D01*
X7527242Y-10292482D01*
X7461060Y-10299000D01*
X7372540Y-10299000D01*
X7306358Y-10292482D01*
X7240173Y-10285963D01*
X7126947Y-10251616D01*
X7070333Y-10234443D01*
X6913811Y-10150779D01*
X6913809Y-10150778D01*
X6862430Y-10108612D01*
X6776614Y-10038186D01*
X6691244Y-9934161D01*
X6664022Y-9900991D01*
X6602532Y-9785952D01*
X6580357Y-9744467D01*
X6563184Y-9687853D01*
X6528837Y-9574627D01*
X6511441Y-9398000D01*
X6528837Y-9221373D01*
X6580357Y-9051534D01*
X6580357Y-9051533D01*
X6664021Y-8895011D01*
X6664022Y-8895009D01*
X6693352Y-8859271D01*
X6776614Y-8757814D01*
X6878071Y-8674552D01*
X6913809Y-8645222D01*
X6931713Y-8635652D01*
X7070333Y-8561557D01*
X7126947Y-8544384D01*
X7240173Y-8510037D01*
X7306358Y-8503518D01*
X7372540Y-8497000D01*
X7461060Y-8497000D01*
X7527242Y-8503518D01*
X7527242Y-8503518D01*
G37*
G36*
X56845466Y-9217365D02*
X56884137Y-9229096D01*
X56919779Y-9248148D01*
X56951017Y-9273783D01*
X56976652Y-9305021D01*
X56995704Y-9340663D01*
X57007435Y-9379334D01*
X57012000Y-9425688D01*
X57012000Y-10076912D01*
X57007435Y-10123266D01*
X56995704Y-10161937D01*
X56976652Y-10197579D01*
X56951017Y-10228817D01*
X56919779Y-10254452D01*
X56884137Y-10273504D01*
X56845466Y-10285235D01*
X56799112Y-10289800D01*
X55722888Y-10289800D01*
X55676534Y-10285235D01*
X55637863Y-10273504D01*
X55602221Y-10254452D01*
X55570983Y-10228817D01*
X55545348Y-10197579D01*
X55526296Y-10161937D01*
X55514565Y-10123266D01*
X55510000Y-10076912D01*
X55510000Y-9425688D01*
X55514565Y-9379334D01*
X55526296Y-9340663D01*
X55545348Y-9305021D01*
X55570983Y-9273783D01*
X55602221Y-9248148D01*
X55637863Y-9229096D01*
X55676534Y-9217365D01*
X55722888Y-9212800D01*
X56799112Y-9212800D01*
X56845466Y-9217365D01*
X56845466Y-9217365D01*
G37*
G36*
X15008877Y-8181565D02*
X15046564Y-8192998D01*
X15081303Y-8211566D01*
X15111748Y-8236552D01*
X15136734Y-8266997D01*
X15155302Y-8301736D01*
X15166735Y-8339423D01*
X15171200Y-8384761D01*
X15171200Y-9471439D01*
X15166735Y-9516777D01*
X15155302Y-9554464D01*
X15136734Y-9589203D01*
X15111748Y-9619648D01*
X15081303Y-9644634D01*
X15046564Y-9663202D01*
X15008877Y-9674635D01*
X14963539Y-9679100D01*
X14126861Y-9679100D01*
X14081523Y-9674635D01*
X14043836Y-9663202D01*
X14009097Y-9644634D01*
X13978652Y-9619648D01*
X13953666Y-9589203D01*
X13935098Y-9554464D01*
X13923665Y-9516777D01*
X13919200Y-9471439D01*
X13919200Y-8384761D01*
X13923665Y-8339423D01*
X13935098Y-8301736D01*
X13953666Y-8266997D01*
X13978652Y-8236552D01*
X14009097Y-8211566D01*
X14043836Y-8192998D01*
X14081523Y-8181565D01*
X14126861Y-8177100D01*
X14963539Y-8177100D01*
X15008877Y-8181565D01*
X15008877Y-8181565D01*
G37*
G36*
X17058877Y-8181565D02*
X17096564Y-8192998D01*
X17131303Y-8211566D01*
X17161748Y-8236552D01*
X17186734Y-8266997D01*
X17205302Y-8301736D01*
X17216735Y-8339423D01*
X17221200Y-8384761D01*
X17221200Y-9471439D01*
X17216735Y-9516777D01*
X17205302Y-9554464D01*
X17186734Y-9589203D01*
X17161748Y-9619648D01*
X17131303Y-9644634D01*
X17096564Y-9663202D01*
X17058877Y-9674635D01*
X17013539Y-9679100D01*
X16176861Y-9679100D01*
X16131523Y-9674635D01*
X16093836Y-9663202D01*
X16059097Y-9644634D01*
X16028652Y-9619648D01*
X16003666Y-9589203D01*
X15985098Y-9554464D01*
X15973665Y-9516777D01*
X15969200Y-9471439D01*
X15969200Y-8384761D01*
X15973665Y-8339423D01*
X15985098Y-8301736D01*
X16003666Y-8266997D01*
X16028652Y-8236552D01*
X16059097Y-8211566D01*
X16093836Y-8192998D01*
X16131523Y-8181565D01*
X16176861Y-8177100D01*
X17013539Y-8177100D01*
X17058877Y-8181565D01*
X17058877Y-8181565D01*
G37*
G36*
X56845466Y-7342365D02*
X56884137Y-7354096D01*
X56919779Y-7373148D01*
X56951017Y-7398783D01*
X56976652Y-7430021D01*
X56995704Y-7465663D01*
X57007435Y-7504334D01*
X57012000Y-7550688D01*
X57012000Y-8201912D01*
X57007435Y-8248266D01*
X56995704Y-8286937D01*
X56976652Y-8322579D01*
X56951017Y-8353817D01*
X56919779Y-8379452D01*
X56884137Y-8398504D01*
X56845466Y-8410235D01*
X56799112Y-8414800D01*
X55722888Y-8414800D01*
X55676534Y-8410235D01*
X55637863Y-8398504D01*
X55602221Y-8379452D01*
X55570983Y-8353817D01*
X55545348Y-8322579D01*
X55526296Y-8286937D01*
X55514565Y-8248266D01*
X55510000Y-8201912D01*
X55510000Y-7550688D01*
X55514565Y-7504334D01*
X55526296Y-7465663D01*
X55545348Y-7430021D01*
X55570983Y-7398783D01*
X55602221Y-7373148D01*
X55637863Y-7354096D01*
X55676534Y-7342365D01*
X55722888Y-7337800D01*
X56799112Y-7337800D01*
X56845466Y-7342365D01*
X56845466Y-7342365D01*
G37*
G36*
X14449527Y-3340136D02*
X14549410Y-3360004D01*
X14831674Y-3476921D01*
X15085705Y-3646659D01*
X15301741Y-3862695D01*
X15471479Y-4116726D01*
X15496604Y-4177384D01*
X15588396Y-4398991D01*
X15637896Y-4647840D01*
X15648000Y-4698640D01*
X15648000Y-5004160D01*
X15588396Y-5303810D01*
X15471479Y-5586074D01*
X15301741Y-5840105D01*
X15085705Y-6056141D01*
X14831674Y-6225879D01*
X14549410Y-6342796D01*
X14505149Y-6351600D01*
X14249762Y-6402400D01*
X13944238Y-6402400D01*
X13688851Y-6351600D01*
X13644590Y-6342796D01*
X13362326Y-6225879D01*
X13108295Y-6056141D01*
X12892259Y-5840105D01*
X12722521Y-5586074D01*
X12605604Y-5303810D01*
X12546000Y-5004160D01*
X12546000Y-4698640D01*
X12556105Y-4647840D01*
X12605604Y-4398991D01*
X12697396Y-4177384D01*
X12722521Y-4116726D01*
X12892259Y-3862695D01*
X13108295Y-3646659D01*
X13362326Y-3476921D01*
X13644590Y-3360004D01*
X13744473Y-3340136D01*
X13944238Y-3300400D01*
X14249762Y-3300400D01*
X14449527Y-3340136D01*
X14449527Y-3340136D01*
G37*
G36*
X23949127Y-3340136D02*
X24049010Y-3360004D01*
X24331274Y-3476921D01*
X24585305Y-3646659D01*
X24801341Y-3862695D01*
X24971079Y-4116726D01*
X24996204Y-4177384D01*
X25087996Y-4398991D01*
X25137496Y-4647840D01*
X25147600Y-4698640D01*
X25147600Y-5004160D01*
X25087996Y-5303810D01*
X24971079Y-5586074D01*
X24801341Y-5840105D01*
X24585305Y-6056141D01*
X24331274Y-6225879D01*
X24049010Y-6342796D01*
X24004749Y-6351600D01*
X23749362Y-6402400D01*
X23443838Y-6402400D01*
X23188451Y-6351600D01*
X23144190Y-6342796D01*
X22861926Y-6225879D01*
X22607895Y-6056141D01*
X22391859Y-5840105D01*
X22222121Y-5586074D01*
X22105204Y-5303810D01*
X22045600Y-5004160D01*
X22045600Y-4698640D01*
X22055705Y-4647840D01*
X22105204Y-4398991D01*
X22196996Y-4177384D01*
X22222121Y-4116726D01*
X22391859Y-3862695D01*
X22607895Y-3646659D01*
X22861926Y-3476921D01*
X23144190Y-3360004D01*
X23244073Y-3340136D01*
X23443838Y-3300400D01*
X23749362Y-3300400D01*
X23949127Y-3340136D01*
X23949127Y-3340136D01*
G37*
G36*
X19021527Y-3289336D02*
X19121410Y-3309204D01*
X19403674Y-3426121D01*
X19657705Y-3595859D01*
X19873741Y-3811895D01*
X20043479Y-4065926D01*
X20089646Y-4177384D01*
X20160396Y-4348191D01*
X20220000Y-4647838D01*
X20220000Y-4953362D01*
X20209895Y-5004162D01*
X20160396Y-5253010D01*
X20043479Y-5535274D01*
X19873741Y-5789305D01*
X19657705Y-6005341D01*
X19403674Y-6175079D01*
X19121410Y-6291996D01*
X19021527Y-6311864D01*
X18821762Y-6351600D01*
X18516238Y-6351600D01*
X18316473Y-6311864D01*
X18216590Y-6291996D01*
X17934326Y-6175079D01*
X17680295Y-6005341D01*
X17464259Y-5789305D01*
X17294521Y-5535274D01*
X17177604Y-5253010D01*
X17128105Y-5004162D01*
X17118000Y-4953362D01*
X17118000Y-4647838D01*
X17177604Y-4348191D01*
X17248354Y-4177384D01*
X17294521Y-4065926D01*
X17464259Y-3811895D01*
X17680295Y-3595859D01*
X17934326Y-3426121D01*
X18216590Y-3309204D01*
X18316473Y-3289336D01*
X18516238Y-3249600D01*
X18821762Y-3249600D01*
X19021527Y-3289336D01*
X19021527Y-3289336D01*
G37*
G36*
X89525331Y-2268211D02*
X89853092Y-2403974D01*
X90148073Y-2601074D01*
X90398926Y-2851927D01*
X90596026Y-3146908D01*
X90731789Y-3474669D01*
X90801000Y-3822616D01*
X90801000Y-4177384D01*
X90731789Y-4525331D01*
X90596026Y-4853092D01*
X90398926Y-5148073D01*
X90148073Y-5398926D01*
X89853092Y-5596026D01*
X89525331Y-5731789D01*
X89177384Y-5801000D01*
X88822616Y-5801000D01*
X88474669Y-5731789D01*
X88146908Y-5596026D01*
X87851927Y-5398926D01*
X87601074Y-5148073D01*
X87403974Y-4853092D01*
X87268211Y-4525331D01*
X87199000Y-4177384D01*
X87199000Y-3822616D01*
X87268211Y-3474669D01*
X87403974Y-3146908D01*
X87601074Y-2851927D01*
X87851927Y-2601074D01*
X88146908Y-2403974D01*
X88474669Y-2268211D01*
X88822616Y-2199000D01*
X89177384Y-2199000D01*
X89525331Y-2268211D01*
X89525331Y-2268211D01*
G37*
G36*
X4525331Y-2268211D02*
X4853092Y-2403974D01*
X5148073Y-2601074D01*
X5398926Y-2851927D01*
X5596026Y-3146908D01*
X5731789Y-3474669D01*
X5801000Y-3822616D01*
X5801000Y-4177384D01*
X5731789Y-4525331D01*
X5596026Y-4853092D01*
X5398926Y-5148073D01*
X5148073Y-5398926D01*
X4853092Y-5596026D01*
X4525331Y-5731789D01*
X4177384Y-5801000D01*
X3822616Y-5801000D01*
X3474669Y-5731789D01*
X3146908Y-5596026D01*
X2851927Y-5398926D01*
X2601074Y-5148073D01*
X2403974Y-4853092D01*
X2268211Y-4525331D01*
X2199000Y-4177384D01*
X2199000Y-3822616D01*
X2268211Y-3474669D01*
X2403974Y-3146908D01*
X2601074Y-2851927D01*
X2851927Y-2601074D01*
X3146908Y-2403974D01*
X3474669Y-2268211D01*
X3822616Y-2199000D01*
X4177384Y-2199000D01*
X4525331Y-2268211D01*
X4525331Y-2268211D01*
G37*
M02*
