G04 #@! TF.GenerationSoftware,KiCad,Pcbnew,(5.0.1)-3*
G04 #@! TF.CreationDate,2018-11-21T00:41:34-05:00*
G04 #@! TF.ProjectId,SMA_Driver_V1,534D415F4472697665725F56312E6B69,rev?*
G04 #@! TF.SameCoordinates,Original*
G04 #@! TF.FileFunction,Legend,Top*
G04 #@! TF.FilePolarity,Positive*
%FSLAX46Y46*%
G04 Gerber Fmt 4.6, Leading zero omitted, Abs format (unit mm)*
G04 Created by KiCad (PCBNEW (5.0.1)-3) date 11/21/2018 00:41:34*
%MOMM*%
%LPD*%
G01*
G04 APERTURE LIST*
%ADD10C,0.120000*%
%ADD11C,0.100000*%
%ADD12C,0.150000*%
G04 APERTURE END LIST*
D10*
G04 #@! TO.C,TP21*
X75291800Y-84328000D02*
G75*
G03X75291800Y-84328000I-1200000J0D01*
G01*
G04 #@! TO.C,J2*
X3546800Y-10728000D02*
X3546800Y-9398000D01*
X4876800Y-10728000D02*
X3546800Y-10728000D01*
X6146800Y-10728000D02*
X6146800Y-8068000D01*
X6146800Y-8068000D02*
X11286800Y-8068000D01*
X6146800Y-10728000D02*
X11286800Y-10728000D01*
X11286800Y-10728000D02*
X11286800Y-8068000D01*
G04 #@! TO.C,C11*
X20744548Y-18363000D02*
X21267052Y-18363000D01*
X20744548Y-16943000D02*
X21267052Y-16943000D01*
G04 #@! TO.C,C28*
X17457052Y-28777000D02*
X16934548Y-28777000D01*
X17457052Y-27357000D02*
X16934548Y-27357000D01*
G04 #@! TO.C,C4*
X20744548Y-12879000D02*
X21267052Y-12879000D01*
X20744548Y-14299000D02*
X21267052Y-14299000D01*
G04 #@! TO.C,C5*
X51859548Y-11187500D02*
X52382052Y-11187500D01*
X51859548Y-9767500D02*
X52382052Y-9767500D01*
G04 #@! TO.C,C10*
X52037348Y-15165000D02*
X52559852Y-15165000D01*
X52037348Y-16585000D02*
X52559852Y-16585000D01*
G04 #@! TO.C,C12*
X52037348Y-14553000D02*
X52559852Y-14553000D01*
X52037348Y-13133000D02*
X52559852Y-13133000D01*
G04 #@! TO.C,C16*
X15831452Y-8218100D02*
X15308948Y-8218100D01*
X15831452Y-9638100D02*
X15308948Y-9638100D01*
G04 #@! TO.C,C24*
X20744548Y-18975000D02*
X21267052Y-18975000D01*
X20744548Y-20395000D02*
X21267052Y-20395000D01*
G04 #@! TO.C,C25*
X20744548Y-16331000D02*
X21267052Y-16331000D01*
X20744548Y-14911000D02*
X21267052Y-14911000D01*
G04 #@! TO.C,C26*
X17457052Y-25325000D02*
X16934548Y-25325000D01*
X17457052Y-26745000D02*
X16934548Y-26745000D01*
G04 #@! TO.C,C27*
X17457052Y-24713000D02*
X16934548Y-24713000D01*
X17457052Y-23293000D02*
X16934548Y-23293000D01*
G04 #@! TO.C,JP1*
X44326800Y-45495000D02*
X44326800Y-51545000D01*
X44326800Y-51545000D02*
X36526800Y-51545000D01*
X36526800Y-51545000D02*
X36526800Y-45495000D01*
X36526800Y-45495000D02*
X44326800Y-45495000D01*
X42976800Y-45595000D02*
X42976800Y-46605000D01*
X42976800Y-46605000D02*
X37896800Y-46605000D01*
X37896800Y-46605000D02*
X37896800Y-45595000D01*
G04 #@! TO.C,R3*
X75159800Y-31110422D02*
X75159800Y-31627578D01*
X76579800Y-31110422D02*
X76579800Y-31627578D01*
G04 #@! TO.C,R5*
X21004600Y-11104378D02*
X21004600Y-10587222D01*
X19584600Y-11104378D02*
X19584600Y-10587222D01*
G04 #@! TO.C,R6*
X46858422Y-11403400D02*
X47375578Y-11403400D01*
X46858422Y-9983400D02*
X47375578Y-9983400D01*
G04 #@! TO.C,R7*
X56971000Y-9072378D02*
X56971000Y-8555222D01*
X55551000Y-9072378D02*
X55551000Y-8555222D01*
G04 #@! TO.C,R8*
X47219800Y-33405578D02*
X47219800Y-32888422D01*
X48639800Y-33405578D02*
X48639800Y-32888422D01*
G04 #@! TO.C,R10*
X44956800Y-19451822D02*
X44956800Y-19968978D01*
X43536800Y-19451822D02*
X43536800Y-19968978D01*
G04 #@! TO.C,R11*
X45772000Y-18902178D02*
X45772000Y-18385022D01*
X47192000Y-18902178D02*
X47192000Y-18385022D01*
G04 #@! TO.C,R12*
X17140422Y-12013000D02*
X17657578Y-12013000D01*
X17140422Y-10593000D02*
X17657578Y-10593000D01*
G04 #@! TO.C,R17*
X17454378Y-22427000D02*
X16937222Y-22427000D01*
X17454378Y-21007000D02*
X16937222Y-21007000D01*
G04 #@! TO.C,R18*
X46861800Y-75003922D02*
X46861800Y-75521078D01*
X45441800Y-75003922D02*
X45441800Y-75521078D01*
G04 #@! TO.C,TP4*
X54328800Y-34036000D02*
G75*
G03X54328800Y-34036000I-1700000J0D01*
G01*
G04 #@! TO.C,TP5*
X25296600Y-4851400D02*
G75*
G03X25296600Y-4851400I-1700000J0D01*
G01*
G04 #@! TO.C,TP6*
X80948000Y-33782000D02*
G75*
G03X80948000Y-33782000I-1700000J0D01*
G01*
G04 #@! TO.C,TP7*
X81641800Y-44323000D02*
G75*
G03X81641800Y-44323000I-1200000J0D01*
G01*
G04 #@! TO.C,TP8*
X77196800Y-44323000D02*
G75*
G03X77196800Y-44323000I-1200000J0D01*
G01*
G04 #@! TO.C,TP9*
X51161800Y-85598000D02*
G75*
G03X51161800Y-85598000I-1200000J0D01*
G01*
G04 #@! TO.C,TP10*
X79101800Y-84328000D02*
G75*
G03X79101800Y-84328000I-1200000J0D01*
G01*
G04 #@! TO.C,TP11*
X82911800Y-84328000D02*
G75*
G03X82911800Y-84328000I-1200000J0D01*
G01*
G04 #@! TO.C,TP13*
X56106800Y-46863000D02*
G75*
G03X56106800Y-46863000I-1700000J0D01*
G01*
G04 #@! TO.C,TP14*
X20369000Y-4800600D02*
G75*
G03X20369000Y-4800600I-1700000J0D01*
G01*
G04 #@! TO.C,U2*
X50130200Y-17074400D02*
X52130200Y-17074400D01*
X51130200Y-20314400D02*
X54130200Y-20314400D01*
D11*
G04 #@! TO.C,U3*
X8541400Y-18938600D02*
X8541400Y-18638600D01*
X8541400Y-18938600D02*
X8841400Y-18938600D01*
X18941400Y-18938600D02*
X18941400Y-18638600D01*
X8841400Y-14538600D02*
X8541400Y-14538600D01*
X8541400Y-14538600D02*
X8541400Y-14838600D01*
X18941400Y-14938600D02*
X18941400Y-14538600D01*
X18941400Y-14538600D02*
X18641400Y-14538600D01*
X18641400Y-14538600D02*
X18641400Y-13938600D01*
X18641400Y-18938600D02*
X18941400Y-18938600D01*
D10*
G04 #@! TO.C,U4*
X51291800Y-57090000D02*
X48631800Y-57090000D01*
X51291800Y-74930000D02*
X51291800Y-57090000D01*
X48631800Y-74930000D02*
X48631800Y-57090000D01*
X51291800Y-74930000D02*
X48631800Y-74930000D01*
X51291800Y-76200000D02*
X51291800Y-77530000D01*
X51291800Y-77530000D02*
X49961800Y-77530000D01*
G04 #@! TO.C,A2*
X33511800Y-56455000D02*
X30851800Y-56455000D01*
X33511800Y-76835000D02*
X33511800Y-56455000D01*
X30851800Y-76835000D02*
X30851800Y-56455000D01*
X33511800Y-76835000D02*
X30851800Y-76835000D01*
X33511800Y-78105000D02*
X33511800Y-79435000D01*
X33511800Y-79435000D02*
X32181800Y-79435000D01*
G04 #@! TO.C,TP19*
X15797000Y-4851400D02*
G75*
G03X15797000Y-4851400I-1700000J0D01*
G01*
G04 #@! TO.C,REF\002A\002A*
D12*
X87666666Y-84952380D02*
X87333333Y-84476190D01*
X87095238Y-84952380D02*
X87095238Y-83952380D01*
X87476190Y-83952380D01*
X87571428Y-84000000D01*
X87619047Y-84047619D01*
X87666666Y-84142857D01*
X87666666Y-84285714D01*
X87619047Y-84380952D01*
X87571428Y-84428571D01*
X87476190Y-84476190D01*
X87095238Y-84476190D01*
X88095238Y-84428571D02*
X88428571Y-84428571D01*
X88571428Y-84952380D02*
X88095238Y-84952380D01*
X88095238Y-83952380D01*
X88571428Y-83952380D01*
X89333333Y-84428571D02*
X89000000Y-84428571D01*
X89000000Y-84952380D02*
X89000000Y-83952380D01*
X89476190Y-83952380D01*
X90000000Y-83952380D02*
X90000000Y-84190476D01*
X89761904Y-84095238D02*
X90000000Y-84190476D01*
X90238095Y-84095238D01*
X89857142Y-84380952D02*
X90000000Y-84190476D01*
X90142857Y-84380952D01*
X90761904Y-83952380D02*
X90761904Y-84190476D01*
X90523809Y-84095238D02*
X90761904Y-84190476D01*
X91000000Y-84095238D01*
X90619047Y-84380952D02*
X90761904Y-84190476D01*
X90904761Y-84380952D01*
X2666666Y-84952380D02*
X2333333Y-84476190D01*
X2095238Y-84952380D02*
X2095238Y-83952380D01*
X2476190Y-83952380D01*
X2571428Y-84000000D01*
X2619047Y-84047619D01*
X2666666Y-84142857D01*
X2666666Y-84285714D01*
X2619047Y-84380952D01*
X2571428Y-84428571D01*
X2476190Y-84476190D01*
X2095238Y-84476190D01*
X3095238Y-84428571D02*
X3428571Y-84428571D01*
X3571428Y-84952380D02*
X3095238Y-84952380D01*
X3095238Y-83952380D01*
X3571428Y-83952380D01*
X4333333Y-84428571D02*
X3999999Y-84428571D01*
X3999999Y-84952380D02*
X3999999Y-83952380D01*
X4476190Y-83952380D01*
X5000000Y-83952380D02*
X5000000Y-84190476D01*
X4761904Y-84095238D02*
X5000000Y-84190476D01*
X5238095Y-84095238D01*
X4857142Y-84380952D02*
X5000000Y-84190476D01*
X5142857Y-84380952D01*
X5761904Y-83952380D02*
X5761904Y-84190476D01*
X5523809Y-84095238D02*
X5761904Y-84190476D01*
X6000000Y-84095238D01*
X5619047Y-84380952D02*
X5761904Y-84190476D01*
X5904761Y-84380952D01*
X2666666Y47619D02*
X2333333Y523809D01*
X2095238Y47619D02*
X2095238Y1047619D01*
X2476190Y1047619D01*
X2571428Y1000000D01*
X2619047Y952380D01*
X2666666Y857142D01*
X2666666Y714285D01*
X2619047Y619047D01*
X2571428Y571428D01*
X2476190Y523809D01*
X2095238Y523809D01*
X3095238Y571428D02*
X3428571Y571428D01*
X3571428Y47619D02*
X3095238Y47619D01*
X3095238Y1047619D01*
X3571428Y1047619D01*
X4333333Y571428D02*
X3999999Y571428D01*
X3999999Y47619D02*
X3999999Y1047619D01*
X4476190Y1047619D01*
X5000000Y1047619D02*
X5000000Y809523D01*
X4761904Y904761D02*
X5000000Y809523D01*
X5238095Y904761D01*
X4857142Y619047D02*
X5000000Y809523D01*
X5142857Y619047D01*
X5761904Y1047619D02*
X5761904Y809523D01*
X5523809Y904761D02*
X5761904Y809523D01*
X6000000Y904761D01*
X5619047Y619047D02*
X5761904Y809523D01*
X5904761Y619047D01*
G04 #@! TO.C,TP21*
X72353704Y-81782380D02*
X72925133Y-81782380D01*
X72639419Y-82782380D02*
X72639419Y-81782380D01*
X73258466Y-82782380D02*
X73258466Y-81782380D01*
X73639419Y-81782380D01*
X73734657Y-81830000D01*
X73782276Y-81877619D01*
X73829895Y-81972857D01*
X73829895Y-82115714D01*
X73782276Y-82210952D01*
X73734657Y-82258571D01*
X73639419Y-82306190D01*
X73258466Y-82306190D01*
X74210847Y-81877619D02*
X74258466Y-81830000D01*
X74353704Y-81782380D01*
X74591800Y-81782380D01*
X74687038Y-81830000D01*
X74734657Y-81877619D01*
X74782276Y-81972857D01*
X74782276Y-82068095D01*
X74734657Y-82210952D01*
X74163228Y-82782380D01*
X74782276Y-82782380D01*
X75734657Y-82782380D02*
X75163228Y-82782380D01*
X75448942Y-82782380D02*
X75448942Y-81782380D01*
X75353704Y-81925238D01*
X75258466Y-82020476D01*
X75163228Y-82068095D01*
G04 #@! TO.C,J2*
X1999180Y-9731333D02*
X2713466Y-9731333D01*
X2856323Y-9778952D01*
X2951561Y-9874190D01*
X2999180Y-10017047D01*
X2999180Y-10112285D01*
X2094419Y-9302761D02*
X2046800Y-9255142D01*
X1999180Y-9159904D01*
X1999180Y-8921809D01*
X2046800Y-8826571D01*
X2094419Y-8778952D01*
X2189657Y-8731333D01*
X2284895Y-8731333D01*
X2427752Y-8778952D01*
X2999180Y-9350380D01*
X2999180Y-8731333D01*
G04 #@! TO.C,C11*
X20362942Y-16360142D02*
X20315323Y-16407761D01*
X20172466Y-16455380D01*
X20077228Y-16455380D01*
X19934371Y-16407761D01*
X19839133Y-16312523D01*
X19791514Y-16217285D01*
X19743895Y-16026809D01*
X19743895Y-15883952D01*
X19791514Y-15693476D01*
X19839133Y-15598238D01*
X19934371Y-15503000D01*
X20077228Y-15455380D01*
X20172466Y-15455380D01*
X20315323Y-15503000D01*
X20362942Y-15550619D01*
X21315323Y-16455380D02*
X20743895Y-16455380D01*
X21029609Y-16455380D02*
X21029609Y-15455380D01*
X20934371Y-15598238D01*
X20839133Y-15693476D01*
X20743895Y-15741095D01*
X22267704Y-16455380D02*
X21696276Y-16455380D01*
X21981990Y-16455380D02*
X21981990Y-15455380D01*
X21886752Y-15598238D01*
X21791514Y-15693476D01*
X21696276Y-15741095D01*
G04 #@! TO.C,C28*
X16552942Y-30074142D02*
X16505323Y-30121761D01*
X16362466Y-30169380D01*
X16267228Y-30169380D01*
X16124371Y-30121761D01*
X16029133Y-30026523D01*
X15981514Y-29931285D01*
X15933895Y-29740809D01*
X15933895Y-29597952D01*
X15981514Y-29407476D01*
X16029133Y-29312238D01*
X16124371Y-29217000D01*
X16267228Y-29169380D01*
X16362466Y-29169380D01*
X16505323Y-29217000D01*
X16552942Y-29264619D01*
X16933895Y-29264619D02*
X16981514Y-29217000D01*
X17076752Y-29169380D01*
X17314847Y-29169380D01*
X17410085Y-29217000D01*
X17457704Y-29264619D01*
X17505323Y-29359857D01*
X17505323Y-29455095D01*
X17457704Y-29597952D01*
X16886276Y-30169380D01*
X17505323Y-30169380D01*
X18076752Y-29597952D02*
X17981514Y-29550333D01*
X17933895Y-29502714D01*
X17886276Y-29407476D01*
X17886276Y-29359857D01*
X17933895Y-29264619D01*
X17981514Y-29217000D01*
X18076752Y-29169380D01*
X18267228Y-29169380D01*
X18362466Y-29217000D01*
X18410085Y-29264619D01*
X18457704Y-29359857D01*
X18457704Y-29407476D01*
X18410085Y-29502714D01*
X18362466Y-29550333D01*
X18267228Y-29597952D01*
X18076752Y-29597952D01*
X17981514Y-29645571D01*
X17933895Y-29693190D01*
X17886276Y-29788428D01*
X17886276Y-29978904D01*
X17933895Y-30074142D01*
X17981514Y-30121761D01*
X18076752Y-30169380D01*
X18267228Y-30169380D01*
X18362466Y-30121761D01*
X18410085Y-30074142D01*
X18457704Y-29978904D01*
X18457704Y-29788428D01*
X18410085Y-29693190D01*
X18362466Y-29645571D01*
X18267228Y-29597952D01*
G04 #@! TO.C,C4*
X20839133Y-12296142D02*
X20791514Y-12343761D01*
X20648657Y-12391380D01*
X20553419Y-12391380D01*
X20410561Y-12343761D01*
X20315323Y-12248523D01*
X20267704Y-12153285D01*
X20220085Y-11962809D01*
X20220085Y-11819952D01*
X20267704Y-11629476D01*
X20315323Y-11534238D01*
X20410561Y-11439000D01*
X20553419Y-11391380D01*
X20648657Y-11391380D01*
X20791514Y-11439000D01*
X20839133Y-11486619D01*
X21696276Y-11724714D02*
X21696276Y-12391380D01*
X21458180Y-11343761D02*
X21220085Y-12058047D01*
X21839133Y-12058047D01*
G04 #@! TO.C,C5*
X51954133Y-9184642D02*
X51906514Y-9232261D01*
X51763657Y-9279880D01*
X51668419Y-9279880D01*
X51525561Y-9232261D01*
X51430323Y-9137023D01*
X51382704Y-9041785D01*
X51335085Y-8851309D01*
X51335085Y-8708452D01*
X51382704Y-8517976D01*
X51430323Y-8422738D01*
X51525561Y-8327500D01*
X51668419Y-8279880D01*
X51763657Y-8279880D01*
X51906514Y-8327500D01*
X51954133Y-8375119D01*
X52858895Y-8279880D02*
X52382704Y-8279880D01*
X52335085Y-8756071D01*
X52382704Y-8708452D01*
X52477942Y-8660833D01*
X52716038Y-8660833D01*
X52811276Y-8708452D01*
X52858895Y-8756071D01*
X52906514Y-8851309D01*
X52906514Y-9089404D01*
X52858895Y-9184642D01*
X52811276Y-9232261D01*
X52716038Y-9279880D01*
X52477942Y-9279880D01*
X52382704Y-9232261D01*
X52335085Y-9184642D01*
G04 #@! TO.C,C10*
X51655742Y-14582142D02*
X51608123Y-14629761D01*
X51465266Y-14677380D01*
X51370028Y-14677380D01*
X51227171Y-14629761D01*
X51131933Y-14534523D01*
X51084314Y-14439285D01*
X51036695Y-14248809D01*
X51036695Y-14105952D01*
X51084314Y-13915476D01*
X51131933Y-13820238D01*
X51227171Y-13725000D01*
X51370028Y-13677380D01*
X51465266Y-13677380D01*
X51608123Y-13725000D01*
X51655742Y-13772619D01*
X52608123Y-14677380D02*
X52036695Y-14677380D01*
X52322409Y-14677380D02*
X52322409Y-13677380D01*
X52227171Y-13820238D01*
X52131933Y-13915476D01*
X52036695Y-13963095D01*
X53227171Y-13677380D02*
X53322409Y-13677380D01*
X53417647Y-13725000D01*
X53465266Y-13772619D01*
X53512885Y-13867857D01*
X53560504Y-14058333D01*
X53560504Y-14296428D01*
X53512885Y-14486904D01*
X53465266Y-14582142D01*
X53417647Y-14629761D01*
X53322409Y-14677380D01*
X53227171Y-14677380D01*
X53131933Y-14629761D01*
X53084314Y-14582142D01*
X53036695Y-14486904D01*
X52989076Y-14296428D01*
X52989076Y-14058333D01*
X53036695Y-13867857D01*
X53084314Y-13772619D01*
X53131933Y-13725000D01*
X53227171Y-13677380D01*
G04 #@! TO.C,C12*
X51655742Y-12550142D02*
X51608123Y-12597761D01*
X51465266Y-12645380D01*
X51370028Y-12645380D01*
X51227171Y-12597761D01*
X51131933Y-12502523D01*
X51084314Y-12407285D01*
X51036695Y-12216809D01*
X51036695Y-12073952D01*
X51084314Y-11883476D01*
X51131933Y-11788238D01*
X51227171Y-11693000D01*
X51370028Y-11645380D01*
X51465266Y-11645380D01*
X51608123Y-11693000D01*
X51655742Y-11740619D01*
X52608123Y-12645380D02*
X52036695Y-12645380D01*
X52322409Y-12645380D02*
X52322409Y-11645380D01*
X52227171Y-11788238D01*
X52131933Y-11883476D01*
X52036695Y-11931095D01*
X52989076Y-11740619D02*
X53036695Y-11693000D01*
X53131933Y-11645380D01*
X53370028Y-11645380D01*
X53465266Y-11693000D01*
X53512885Y-11740619D01*
X53560504Y-11835857D01*
X53560504Y-11931095D01*
X53512885Y-12073952D01*
X52941457Y-12645380D01*
X53560504Y-12645380D01*
G04 #@! TO.C,C16*
X14927342Y-10935242D02*
X14879723Y-10982861D01*
X14736866Y-11030480D01*
X14641628Y-11030480D01*
X14498771Y-10982861D01*
X14403533Y-10887623D01*
X14355914Y-10792385D01*
X14308295Y-10601909D01*
X14308295Y-10459052D01*
X14355914Y-10268576D01*
X14403533Y-10173338D01*
X14498771Y-10078100D01*
X14641628Y-10030480D01*
X14736866Y-10030480D01*
X14879723Y-10078100D01*
X14927342Y-10125719D01*
X15879723Y-11030480D02*
X15308295Y-11030480D01*
X15594009Y-11030480D02*
X15594009Y-10030480D01*
X15498771Y-10173338D01*
X15403533Y-10268576D01*
X15308295Y-10316195D01*
X16736866Y-10030480D02*
X16546390Y-10030480D01*
X16451152Y-10078100D01*
X16403533Y-10125719D01*
X16308295Y-10268576D01*
X16260676Y-10459052D01*
X16260676Y-10840004D01*
X16308295Y-10935242D01*
X16355914Y-10982861D01*
X16451152Y-11030480D01*
X16641628Y-11030480D01*
X16736866Y-10982861D01*
X16784485Y-10935242D01*
X16832104Y-10840004D01*
X16832104Y-10601909D01*
X16784485Y-10506671D01*
X16736866Y-10459052D01*
X16641628Y-10411433D01*
X16451152Y-10411433D01*
X16355914Y-10459052D01*
X16308295Y-10506671D01*
X16260676Y-10601909D01*
G04 #@! TO.C,C24*
X20362942Y-18392142D02*
X20315323Y-18439761D01*
X20172466Y-18487380D01*
X20077228Y-18487380D01*
X19934371Y-18439761D01*
X19839133Y-18344523D01*
X19791514Y-18249285D01*
X19743895Y-18058809D01*
X19743895Y-17915952D01*
X19791514Y-17725476D01*
X19839133Y-17630238D01*
X19934371Y-17535000D01*
X20077228Y-17487380D01*
X20172466Y-17487380D01*
X20315323Y-17535000D01*
X20362942Y-17582619D01*
X20743895Y-17582619D02*
X20791514Y-17535000D01*
X20886752Y-17487380D01*
X21124847Y-17487380D01*
X21220085Y-17535000D01*
X21267704Y-17582619D01*
X21315323Y-17677857D01*
X21315323Y-17773095D01*
X21267704Y-17915952D01*
X20696276Y-18487380D01*
X21315323Y-18487380D01*
X22172466Y-17820714D02*
X22172466Y-18487380D01*
X21934371Y-17439761D02*
X21696276Y-18154047D01*
X22315323Y-18154047D01*
G04 #@! TO.C,C25*
X20362942Y-14328142D02*
X20315323Y-14375761D01*
X20172466Y-14423380D01*
X20077228Y-14423380D01*
X19934371Y-14375761D01*
X19839133Y-14280523D01*
X19791514Y-14185285D01*
X19743895Y-13994809D01*
X19743895Y-13851952D01*
X19791514Y-13661476D01*
X19839133Y-13566238D01*
X19934371Y-13471000D01*
X20077228Y-13423380D01*
X20172466Y-13423380D01*
X20315323Y-13471000D01*
X20362942Y-13518619D01*
X20743895Y-13518619D02*
X20791514Y-13471000D01*
X20886752Y-13423380D01*
X21124847Y-13423380D01*
X21220085Y-13471000D01*
X21267704Y-13518619D01*
X21315323Y-13613857D01*
X21315323Y-13709095D01*
X21267704Y-13851952D01*
X20696276Y-14423380D01*
X21315323Y-14423380D01*
X22220085Y-13423380D02*
X21743895Y-13423380D01*
X21696276Y-13899571D01*
X21743895Y-13851952D01*
X21839133Y-13804333D01*
X22077228Y-13804333D01*
X22172466Y-13851952D01*
X22220085Y-13899571D01*
X22267704Y-13994809D01*
X22267704Y-14232904D01*
X22220085Y-14328142D01*
X22172466Y-14375761D01*
X22077228Y-14423380D01*
X21839133Y-14423380D01*
X21743895Y-14375761D01*
X21696276Y-14328142D01*
G04 #@! TO.C,C26*
X16552942Y-28042142D02*
X16505323Y-28089761D01*
X16362466Y-28137380D01*
X16267228Y-28137380D01*
X16124371Y-28089761D01*
X16029133Y-27994523D01*
X15981514Y-27899285D01*
X15933895Y-27708809D01*
X15933895Y-27565952D01*
X15981514Y-27375476D01*
X16029133Y-27280238D01*
X16124371Y-27185000D01*
X16267228Y-27137380D01*
X16362466Y-27137380D01*
X16505323Y-27185000D01*
X16552942Y-27232619D01*
X16933895Y-27232619D02*
X16981514Y-27185000D01*
X17076752Y-27137380D01*
X17314847Y-27137380D01*
X17410085Y-27185000D01*
X17457704Y-27232619D01*
X17505323Y-27327857D01*
X17505323Y-27423095D01*
X17457704Y-27565952D01*
X16886276Y-28137380D01*
X17505323Y-28137380D01*
X18362466Y-27137380D02*
X18171990Y-27137380D01*
X18076752Y-27185000D01*
X18029133Y-27232619D01*
X17933895Y-27375476D01*
X17886276Y-27565952D01*
X17886276Y-27946904D01*
X17933895Y-28042142D01*
X17981514Y-28089761D01*
X18076752Y-28137380D01*
X18267228Y-28137380D01*
X18362466Y-28089761D01*
X18410085Y-28042142D01*
X18457704Y-27946904D01*
X18457704Y-27708809D01*
X18410085Y-27613571D01*
X18362466Y-27565952D01*
X18267228Y-27518333D01*
X18076752Y-27518333D01*
X17981514Y-27565952D01*
X17933895Y-27613571D01*
X17886276Y-27708809D01*
G04 #@! TO.C,C27*
X16552942Y-26010142D02*
X16505323Y-26057761D01*
X16362466Y-26105380D01*
X16267228Y-26105380D01*
X16124371Y-26057761D01*
X16029133Y-25962523D01*
X15981514Y-25867285D01*
X15933895Y-25676809D01*
X15933895Y-25533952D01*
X15981514Y-25343476D01*
X16029133Y-25248238D01*
X16124371Y-25153000D01*
X16267228Y-25105380D01*
X16362466Y-25105380D01*
X16505323Y-25153000D01*
X16552942Y-25200619D01*
X16933895Y-25200619D02*
X16981514Y-25153000D01*
X17076752Y-25105380D01*
X17314847Y-25105380D01*
X17410085Y-25153000D01*
X17457704Y-25200619D01*
X17505323Y-25295857D01*
X17505323Y-25391095D01*
X17457704Y-25533952D01*
X16886276Y-26105380D01*
X17505323Y-26105380D01*
X17838657Y-25105380D02*
X18505323Y-25105380D01*
X18076752Y-26105380D01*
G04 #@! TO.C,JP1*
X39643466Y-51747380D02*
X39643466Y-52461666D01*
X39595847Y-52604523D01*
X39500609Y-52699761D01*
X39357752Y-52747380D01*
X39262514Y-52747380D01*
X40119657Y-52747380D02*
X40119657Y-51747380D01*
X40500609Y-51747380D01*
X40595847Y-51795000D01*
X40643466Y-51842619D01*
X40691085Y-51937857D01*
X40691085Y-52080714D01*
X40643466Y-52175952D01*
X40595847Y-52223571D01*
X40500609Y-52271190D01*
X40119657Y-52271190D01*
X41643466Y-52747380D02*
X41072038Y-52747380D01*
X41357752Y-52747380D02*
X41357752Y-51747380D01*
X41262514Y-51890238D01*
X41167276Y-51985476D01*
X41072038Y-52033095D01*
G04 #@! TO.C,R3*
X77972180Y-31535666D02*
X77495990Y-31869000D01*
X77972180Y-32107095D02*
X76972180Y-32107095D01*
X76972180Y-31726142D01*
X77019800Y-31630904D01*
X77067419Y-31583285D01*
X77162657Y-31535666D01*
X77305514Y-31535666D01*
X77400752Y-31583285D01*
X77448371Y-31630904D01*
X77495990Y-31726142D01*
X77495990Y-32107095D01*
X76972180Y-31202333D02*
X76972180Y-30583285D01*
X77353133Y-30916619D01*
X77353133Y-30773761D01*
X77400752Y-30678523D01*
X77448371Y-30630904D01*
X77543609Y-30583285D01*
X77781704Y-30583285D01*
X77876942Y-30630904D01*
X77924561Y-30678523D01*
X77972180Y-30773761D01*
X77972180Y-31059476D01*
X77924561Y-31154714D01*
X77876942Y-31202333D01*
G04 #@! TO.C,R5*
X19096980Y-11012466D02*
X18620790Y-11345800D01*
X19096980Y-11583895D02*
X18096980Y-11583895D01*
X18096980Y-11202942D01*
X18144600Y-11107704D01*
X18192219Y-11060085D01*
X18287457Y-11012466D01*
X18430314Y-11012466D01*
X18525552Y-11060085D01*
X18573171Y-11107704D01*
X18620790Y-11202942D01*
X18620790Y-11583895D01*
X18096980Y-10107704D02*
X18096980Y-10583895D01*
X18573171Y-10631514D01*
X18525552Y-10583895D01*
X18477933Y-10488657D01*
X18477933Y-10250561D01*
X18525552Y-10155323D01*
X18573171Y-10107704D01*
X18668409Y-10060085D01*
X18906504Y-10060085D01*
X19001742Y-10107704D01*
X19049361Y-10155323D01*
X19096980Y-10250561D01*
X19096980Y-10488657D01*
X19049361Y-10583895D01*
X19001742Y-10631514D01*
G04 #@! TO.C,R6*
X46950333Y-9495780D02*
X46617000Y-9019590D01*
X46378904Y-9495780D02*
X46378904Y-8495780D01*
X46759857Y-8495780D01*
X46855095Y-8543400D01*
X46902714Y-8591019D01*
X46950333Y-8686257D01*
X46950333Y-8829114D01*
X46902714Y-8924352D01*
X46855095Y-8971971D01*
X46759857Y-9019590D01*
X46378904Y-9019590D01*
X47807476Y-8495780D02*
X47617000Y-8495780D01*
X47521761Y-8543400D01*
X47474142Y-8591019D01*
X47378904Y-8733876D01*
X47331285Y-8924352D01*
X47331285Y-9305304D01*
X47378904Y-9400542D01*
X47426523Y-9448161D01*
X47521761Y-9495780D01*
X47712238Y-9495780D01*
X47807476Y-9448161D01*
X47855095Y-9400542D01*
X47902714Y-9305304D01*
X47902714Y-9067209D01*
X47855095Y-8971971D01*
X47807476Y-8924352D01*
X47712238Y-8876733D01*
X47521761Y-8876733D01*
X47426523Y-8924352D01*
X47378904Y-8971971D01*
X47331285Y-9067209D01*
G04 #@! TO.C,R7*
X55063380Y-8980466D02*
X54587190Y-9313800D01*
X55063380Y-9551895D02*
X54063380Y-9551895D01*
X54063380Y-9170942D01*
X54111000Y-9075704D01*
X54158619Y-9028085D01*
X54253857Y-8980466D01*
X54396714Y-8980466D01*
X54491952Y-9028085D01*
X54539571Y-9075704D01*
X54587190Y-9170942D01*
X54587190Y-9551895D01*
X54063380Y-8647133D02*
X54063380Y-7980466D01*
X55063380Y-8409038D01*
G04 #@! TO.C,R8*
X46732180Y-33313666D02*
X46255990Y-33647000D01*
X46732180Y-33885095D02*
X45732180Y-33885095D01*
X45732180Y-33504142D01*
X45779800Y-33408904D01*
X45827419Y-33361285D01*
X45922657Y-33313666D01*
X46065514Y-33313666D01*
X46160752Y-33361285D01*
X46208371Y-33408904D01*
X46255990Y-33504142D01*
X46255990Y-33885095D01*
X46160752Y-32742238D02*
X46113133Y-32837476D01*
X46065514Y-32885095D01*
X45970276Y-32932714D01*
X45922657Y-32932714D01*
X45827419Y-32885095D01*
X45779800Y-32837476D01*
X45732180Y-32742238D01*
X45732180Y-32551761D01*
X45779800Y-32456523D01*
X45827419Y-32408904D01*
X45922657Y-32361285D01*
X45970276Y-32361285D01*
X46065514Y-32408904D01*
X46113133Y-32456523D01*
X46160752Y-32551761D01*
X46160752Y-32742238D01*
X46208371Y-32837476D01*
X46255990Y-32885095D01*
X46351228Y-32932714D01*
X46541704Y-32932714D01*
X46636942Y-32885095D01*
X46684561Y-32837476D01*
X46732180Y-32742238D01*
X46732180Y-32551761D01*
X46684561Y-32456523D01*
X46636942Y-32408904D01*
X46541704Y-32361285D01*
X46351228Y-32361285D01*
X46255990Y-32408904D01*
X46208371Y-32456523D01*
X46160752Y-32551761D01*
G04 #@! TO.C,R10*
X46349180Y-20353257D02*
X45872990Y-20686590D01*
X46349180Y-20924685D02*
X45349180Y-20924685D01*
X45349180Y-20543733D01*
X45396800Y-20448495D01*
X45444419Y-20400876D01*
X45539657Y-20353257D01*
X45682514Y-20353257D01*
X45777752Y-20400876D01*
X45825371Y-20448495D01*
X45872990Y-20543733D01*
X45872990Y-20924685D01*
X46349180Y-19400876D02*
X46349180Y-19972304D01*
X46349180Y-19686590D02*
X45349180Y-19686590D01*
X45492038Y-19781828D01*
X45587276Y-19877066D01*
X45634895Y-19972304D01*
X45349180Y-18781828D02*
X45349180Y-18686590D01*
X45396800Y-18591352D01*
X45444419Y-18543733D01*
X45539657Y-18496114D01*
X45730133Y-18448495D01*
X45968228Y-18448495D01*
X46158704Y-18496114D01*
X46253942Y-18543733D01*
X46301561Y-18591352D01*
X46349180Y-18686590D01*
X46349180Y-18781828D01*
X46301561Y-18877066D01*
X46253942Y-18924685D01*
X46158704Y-18972304D01*
X45968228Y-19019923D01*
X45730133Y-19019923D01*
X45539657Y-18972304D01*
X45444419Y-18924685D01*
X45396800Y-18877066D01*
X45349180Y-18781828D01*
G04 #@! TO.C,R11*
X45284380Y-19286457D02*
X44808190Y-19619790D01*
X45284380Y-19857885D02*
X44284380Y-19857885D01*
X44284380Y-19476933D01*
X44332000Y-19381695D01*
X44379619Y-19334076D01*
X44474857Y-19286457D01*
X44617714Y-19286457D01*
X44712952Y-19334076D01*
X44760571Y-19381695D01*
X44808190Y-19476933D01*
X44808190Y-19857885D01*
X45284380Y-18334076D02*
X45284380Y-18905504D01*
X45284380Y-18619790D02*
X44284380Y-18619790D01*
X44427238Y-18715028D01*
X44522476Y-18810266D01*
X44570095Y-18905504D01*
X45284380Y-17381695D02*
X45284380Y-17953123D01*
X45284380Y-17667409D02*
X44284380Y-17667409D01*
X44427238Y-17762647D01*
X44522476Y-17857885D01*
X44570095Y-17953123D01*
G04 #@! TO.C,R12*
X16756142Y-10105380D02*
X16422809Y-9629190D01*
X16184714Y-10105380D02*
X16184714Y-9105380D01*
X16565666Y-9105380D01*
X16660904Y-9153000D01*
X16708523Y-9200619D01*
X16756142Y-9295857D01*
X16756142Y-9438714D01*
X16708523Y-9533952D01*
X16660904Y-9581571D01*
X16565666Y-9629190D01*
X16184714Y-9629190D01*
X17708523Y-10105380D02*
X17137095Y-10105380D01*
X17422809Y-10105380D02*
X17422809Y-9105380D01*
X17327571Y-9248238D01*
X17232333Y-9343476D01*
X17137095Y-9391095D01*
X18089476Y-9200619D02*
X18137095Y-9153000D01*
X18232333Y-9105380D01*
X18470428Y-9105380D01*
X18565666Y-9153000D01*
X18613285Y-9200619D01*
X18660904Y-9295857D01*
X18660904Y-9391095D01*
X18613285Y-9533952D01*
X18041857Y-10105380D01*
X18660904Y-10105380D01*
G04 #@! TO.C,R17*
X16552942Y-23819380D02*
X16219609Y-23343190D01*
X15981514Y-23819380D02*
X15981514Y-22819380D01*
X16362466Y-22819380D01*
X16457704Y-22867000D01*
X16505323Y-22914619D01*
X16552942Y-23009857D01*
X16552942Y-23152714D01*
X16505323Y-23247952D01*
X16457704Y-23295571D01*
X16362466Y-23343190D01*
X15981514Y-23343190D01*
X17505323Y-23819380D02*
X16933895Y-23819380D01*
X17219609Y-23819380D02*
X17219609Y-22819380D01*
X17124371Y-22962238D01*
X17029133Y-23057476D01*
X16933895Y-23105095D01*
X17838657Y-22819380D02*
X18505323Y-22819380D01*
X18076752Y-23819380D01*
G04 #@! TO.C,R18*
X48254180Y-75905357D02*
X47777990Y-76238690D01*
X48254180Y-76476785D02*
X47254180Y-76476785D01*
X47254180Y-76095833D01*
X47301800Y-76000595D01*
X47349419Y-75952976D01*
X47444657Y-75905357D01*
X47587514Y-75905357D01*
X47682752Y-75952976D01*
X47730371Y-76000595D01*
X47777990Y-76095833D01*
X47777990Y-76476785D01*
X48254180Y-74952976D02*
X48254180Y-75524404D01*
X48254180Y-75238690D02*
X47254180Y-75238690D01*
X47397038Y-75333928D01*
X47492276Y-75429166D01*
X47539895Y-75524404D01*
X47682752Y-74381547D02*
X47635133Y-74476785D01*
X47587514Y-74524404D01*
X47492276Y-74572023D01*
X47444657Y-74572023D01*
X47349419Y-74524404D01*
X47301800Y-74476785D01*
X47254180Y-74381547D01*
X47254180Y-74191071D01*
X47301800Y-74095833D01*
X47349419Y-74048214D01*
X47444657Y-74000595D01*
X47492276Y-74000595D01*
X47587514Y-74048214D01*
X47635133Y-74095833D01*
X47682752Y-74191071D01*
X47682752Y-74381547D01*
X47730371Y-74476785D01*
X47777990Y-74524404D01*
X47873228Y-74572023D01*
X48063704Y-74572023D01*
X48158942Y-74524404D01*
X48206561Y-74476785D01*
X48254180Y-74381547D01*
X48254180Y-74191071D01*
X48206561Y-74095833D01*
X48158942Y-74048214D01*
X48063704Y-74000595D01*
X47873228Y-74000595D01*
X47777990Y-74048214D01*
X47730371Y-74095833D01*
X47682752Y-74191071D01*
G04 #@! TO.C,TP4*
X52066895Y-35988380D02*
X52638323Y-35988380D01*
X52352609Y-36988380D02*
X52352609Y-35988380D01*
X52971657Y-36988380D02*
X52971657Y-35988380D01*
X53352609Y-35988380D01*
X53447847Y-36036000D01*
X53495466Y-36083619D01*
X53543085Y-36178857D01*
X53543085Y-36321714D01*
X53495466Y-36416952D01*
X53447847Y-36464571D01*
X53352609Y-36512190D01*
X52971657Y-36512190D01*
X54400228Y-36321714D02*
X54400228Y-36988380D01*
X54162133Y-35940761D02*
X53924038Y-36655047D01*
X54543085Y-36655047D01*
G04 #@! TO.C,TP5*
X23034695Y-6803780D02*
X23606123Y-6803780D01*
X23320409Y-7803780D02*
X23320409Y-6803780D01*
X23939457Y-7803780D02*
X23939457Y-6803780D01*
X24320409Y-6803780D01*
X24415647Y-6851400D01*
X24463266Y-6899019D01*
X24510885Y-6994257D01*
X24510885Y-7137114D01*
X24463266Y-7232352D01*
X24415647Y-7279971D01*
X24320409Y-7327590D01*
X23939457Y-7327590D01*
X25415647Y-6803780D02*
X24939457Y-6803780D01*
X24891838Y-7279971D01*
X24939457Y-7232352D01*
X25034695Y-7184733D01*
X25272790Y-7184733D01*
X25368028Y-7232352D01*
X25415647Y-7279971D01*
X25463266Y-7375209D01*
X25463266Y-7613304D01*
X25415647Y-7708542D01*
X25368028Y-7756161D01*
X25272790Y-7803780D01*
X25034695Y-7803780D01*
X24939457Y-7756161D01*
X24891838Y-7708542D01*
G04 #@! TO.C,TP6*
X78686095Y-35734380D02*
X79257523Y-35734380D01*
X78971809Y-36734380D02*
X78971809Y-35734380D01*
X79590857Y-36734380D02*
X79590857Y-35734380D01*
X79971809Y-35734380D01*
X80067047Y-35782000D01*
X80114666Y-35829619D01*
X80162285Y-35924857D01*
X80162285Y-36067714D01*
X80114666Y-36162952D01*
X80067047Y-36210571D01*
X79971809Y-36258190D01*
X79590857Y-36258190D01*
X81019428Y-35734380D02*
X80828952Y-35734380D01*
X80733714Y-35782000D01*
X80686095Y-35829619D01*
X80590857Y-35972476D01*
X80543238Y-36162952D01*
X80543238Y-36543904D01*
X80590857Y-36639142D01*
X80638476Y-36686761D01*
X80733714Y-36734380D01*
X80924190Y-36734380D01*
X81019428Y-36686761D01*
X81067047Y-36639142D01*
X81114666Y-36543904D01*
X81114666Y-36305809D01*
X81067047Y-36210571D01*
X81019428Y-36162952D01*
X80924190Y-36115333D01*
X80733714Y-36115333D01*
X80638476Y-36162952D01*
X80590857Y-36210571D01*
X80543238Y-36305809D01*
G04 #@! TO.C,TP7*
X79179895Y-41777380D02*
X79751323Y-41777380D01*
X79465609Y-42777380D02*
X79465609Y-41777380D01*
X80084657Y-42777380D02*
X80084657Y-41777380D01*
X80465609Y-41777380D01*
X80560847Y-41825000D01*
X80608466Y-41872619D01*
X80656085Y-41967857D01*
X80656085Y-42110714D01*
X80608466Y-42205952D01*
X80560847Y-42253571D01*
X80465609Y-42301190D01*
X80084657Y-42301190D01*
X80989419Y-41777380D02*
X81656085Y-41777380D01*
X81227514Y-42777380D01*
G04 #@! TO.C,TP8*
X74734895Y-41777380D02*
X75306323Y-41777380D01*
X75020609Y-42777380D02*
X75020609Y-41777380D01*
X75639657Y-42777380D02*
X75639657Y-41777380D01*
X76020609Y-41777380D01*
X76115847Y-41825000D01*
X76163466Y-41872619D01*
X76211085Y-41967857D01*
X76211085Y-42110714D01*
X76163466Y-42205952D01*
X76115847Y-42253571D01*
X76020609Y-42301190D01*
X75639657Y-42301190D01*
X76782514Y-42205952D02*
X76687276Y-42158333D01*
X76639657Y-42110714D01*
X76592038Y-42015476D01*
X76592038Y-41967857D01*
X76639657Y-41872619D01*
X76687276Y-41825000D01*
X76782514Y-41777380D01*
X76972990Y-41777380D01*
X77068228Y-41825000D01*
X77115847Y-41872619D01*
X77163466Y-41967857D01*
X77163466Y-42015476D01*
X77115847Y-42110714D01*
X77068228Y-42158333D01*
X76972990Y-42205952D01*
X76782514Y-42205952D01*
X76687276Y-42253571D01*
X76639657Y-42301190D01*
X76592038Y-42396428D01*
X76592038Y-42586904D01*
X76639657Y-42682142D01*
X76687276Y-42729761D01*
X76782514Y-42777380D01*
X76972990Y-42777380D01*
X77068228Y-42729761D01*
X77115847Y-42682142D01*
X77163466Y-42586904D01*
X77163466Y-42396428D01*
X77115847Y-42301190D01*
X77068228Y-42253571D01*
X76972990Y-42205952D01*
G04 #@! TO.C,TP9*
X48699895Y-83052380D02*
X49271323Y-83052380D01*
X48985609Y-84052380D02*
X48985609Y-83052380D01*
X49604657Y-84052380D02*
X49604657Y-83052380D01*
X49985609Y-83052380D01*
X50080847Y-83100000D01*
X50128466Y-83147619D01*
X50176085Y-83242857D01*
X50176085Y-83385714D01*
X50128466Y-83480952D01*
X50080847Y-83528571D01*
X49985609Y-83576190D01*
X49604657Y-83576190D01*
X50652276Y-84052380D02*
X50842752Y-84052380D01*
X50937990Y-84004761D01*
X50985609Y-83957142D01*
X51080847Y-83814285D01*
X51128466Y-83623809D01*
X51128466Y-83242857D01*
X51080847Y-83147619D01*
X51033228Y-83100000D01*
X50937990Y-83052380D01*
X50747514Y-83052380D01*
X50652276Y-83100000D01*
X50604657Y-83147619D01*
X50557038Y-83242857D01*
X50557038Y-83480952D01*
X50604657Y-83576190D01*
X50652276Y-83623809D01*
X50747514Y-83671428D01*
X50937990Y-83671428D01*
X51033228Y-83623809D01*
X51080847Y-83576190D01*
X51128466Y-83480952D01*
G04 #@! TO.C,TP10*
X76163704Y-81782380D02*
X76735133Y-81782380D01*
X76449419Y-82782380D02*
X76449419Y-81782380D01*
X77068466Y-82782380D02*
X77068466Y-81782380D01*
X77449419Y-81782380D01*
X77544657Y-81830000D01*
X77592276Y-81877619D01*
X77639895Y-81972857D01*
X77639895Y-82115714D01*
X77592276Y-82210952D01*
X77544657Y-82258571D01*
X77449419Y-82306190D01*
X77068466Y-82306190D01*
X78592276Y-82782380D02*
X78020847Y-82782380D01*
X78306561Y-82782380D02*
X78306561Y-81782380D01*
X78211323Y-81925238D01*
X78116085Y-82020476D01*
X78020847Y-82068095D01*
X79211323Y-81782380D02*
X79306561Y-81782380D01*
X79401800Y-81830000D01*
X79449419Y-81877619D01*
X79497038Y-81972857D01*
X79544657Y-82163333D01*
X79544657Y-82401428D01*
X79497038Y-82591904D01*
X79449419Y-82687142D01*
X79401800Y-82734761D01*
X79306561Y-82782380D01*
X79211323Y-82782380D01*
X79116085Y-82734761D01*
X79068466Y-82687142D01*
X79020847Y-82591904D01*
X78973228Y-82401428D01*
X78973228Y-82163333D01*
X79020847Y-81972857D01*
X79068466Y-81877619D01*
X79116085Y-81830000D01*
X79211323Y-81782380D01*
G04 #@! TO.C,TP11*
X79973704Y-81782380D02*
X80545133Y-81782380D01*
X80259419Y-82782380D02*
X80259419Y-81782380D01*
X80878466Y-82782380D02*
X80878466Y-81782380D01*
X81259419Y-81782380D01*
X81354657Y-81830000D01*
X81402276Y-81877619D01*
X81449895Y-81972857D01*
X81449895Y-82115714D01*
X81402276Y-82210952D01*
X81354657Y-82258571D01*
X81259419Y-82306190D01*
X80878466Y-82306190D01*
X82402276Y-82782380D02*
X81830847Y-82782380D01*
X82116561Y-82782380D02*
X82116561Y-81782380D01*
X82021323Y-81925238D01*
X81926085Y-82020476D01*
X81830847Y-82068095D01*
X83354657Y-82782380D02*
X82783228Y-82782380D01*
X83068942Y-82782380D02*
X83068942Y-81782380D01*
X82973704Y-81925238D01*
X82878466Y-82020476D01*
X82783228Y-82068095D01*
G04 #@! TO.C,TP13*
X53368704Y-48815380D02*
X53940133Y-48815380D01*
X53654419Y-49815380D02*
X53654419Y-48815380D01*
X54273466Y-49815380D02*
X54273466Y-48815380D01*
X54654419Y-48815380D01*
X54749657Y-48863000D01*
X54797276Y-48910619D01*
X54844895Y-49005857D01*
X54844895Y-49148714D01*
X54797276Y-49243952D01*
X54749657Y-49291571D01*
X54654419Y-49339190D01*
X54273466Y-49339190D01*
X55797276Y-49815380D02*
X55225847Y-49815380D01*
X55511561Y-49815380D02*
X55511561Y-48815380D01*
X55416323Y-48958238D01*
X55321085Y-49053476D01*
X55225847Y-49101095D01*
X56130609Y-48815380D02*
X56749657Y-48815380D01*
X56416323Y-49196333D01*
X56559180Y-49196333D01*
X56654419Y-49243952D01*
X56702038Y-49291571D01*
X56749657Y-49386809D01*
X56749657Y-49624904D01*
X56702038Y-49720142D01*
X56654419Y-49767761D01*
X56559180Y-49815380D01*
X56273466Y-49815380D01*
X56178228Y-49767761D01*
X56130609Y-49720142D01*
G04 #@! TO.C,TP14*
X17630904Y-6752980D02*
X18202333Y-6752980D01*
X17916619Y-7752980D02*
X17916619Y-6752980D01*
X18535666Y-7752980D02*
X18535666Y-6752980D01*
X18916619Y-6752980D01*
X19011857Y-6800600D01*
X19059476Y-6848219D01*
X19107095Y-6943457D01*
X19107095Y-7086314D01*
X19059476Y-7181552D01*
X19011857Y-7229171D01*
X18916619Y-7276790D01*
X18535666Y-7276790D01*
X20059476Y-7752980D02*
X19488047Y-7752980D01*
X19773761Y-7752980D02*
X19773761Y-6752980D01*
X19678523Y-6895838D01*
X19583285Y-6991076D01*
X19488047Y-7038695D01*
X20916619Y-7086314D02*
X20916619Y-7752980D01*
X20678523Y-6705361D02*
X20440428Y-7419647D01*
X21059476Y-7419647D01*
G04 #@! TO.C,U2*
X50368295Y-20646780D02*
X50368295Y-21456304D01*
X50415914Y-21551542D01*
X50463533Y-21599161D01*
X50558771Y-21646780D01*
X50749247Y-21646780D01*
X50844485Y-21599161D01*
X50892104Y-21551542D01*
X50939723Y-21456304D01*
X50939723Y-20646780D01*
X51368295Y-20742019D02*
X51415914Y-20694400D01*
X51511152Y-20646780D01*
X51749247Y-20646780D01*
X51844485Y-20694400D01*
X51892104Y-20742019D01*
X51939723Y-20837257D01*
X51939723Y-20932495D01*
X51892104Y-21075352D01*
X51320676Y-21646780D01*
X51939723Y-21646780D01*
G04 #@! TO.C,U3*
X12979495Y-20990980D02*
X12979495Y-21800504D01*
X13027114Y-21895742D01*
X13074733Y-21943361D01*
X13169971Y-21990980D01*
X13360447Y-21990980D01*
X13455685Y-21943361D01*
X13503304Y-21895742D01*
X13550923Y-21800504D01*
X13550923Y-20990980D01*
X13931876Y-20990980D02*
X14550923Y-20990980D01*
X14217590Y-21371933D01*
X14360447Y-21371933D01*
X14455685Y-21419552D01*
X14503304Y-21467171D01*
X14550923Y-21562409D01*
X14550923Y-21800504D01*
X14503304Y-21895742D01*
X14455685Y-21943361D01*
X14360447Y-21990980D01*
X14074733Y-21990980D01*
X13979495Y-21943361D01*
X13931876Y-21895742D01*
G04 #@! TO.C,U4*
X49199895Y-77982380D02*
X49199895Y-78791904D01*
X49247514Y-78887142D01*
X49295133Y-78934761D01*
X49390371Y-78982380D01*
X49580847Y-78982380D01*
X49676085Y-78934761D01*
X49723704Y-78887142D01*
X49771323Y-78791904D01*
X49771323Y-77982380D01*
X50676085Y-78315714D02*
X50676085Y-78982380D01*
X50437990Y-77934761D02*
X50199895Y-78649047D01*
X50818942Y-78649047D01*
G04 #@! TO.C,A2*
X31467514Y-80601666D02*
X31943704Y-80601666D01*
X31372276Y-80887380D02*
X31705609Y-79887380D01*
X32038942Y-80887380D01*
X32324657Y-79982619D02*
X32372276Y-79935000D01*
X32467514Y-79887380D01*
X32705609Y-79887380D01*
X32800847Y-79935000D01*
X32848466Y-79982619D01*
X32896085Y-80077857D01*
X32896085Y-80173095D01*
X32848466Y-80315952D01*
X32277038Y-80887380D01*
X32896085Y-80887380D01*
G04 #@! TO.C,TP19*
X13058904Y-6803780D02*
X13630333Y-6803780D01*
X13344619Y-7803780D02*
X13344619Y-6803780D01*
X13963666Y-7803780D02*
X13963666Y-6803780D01*
X14344619Y-6803780D01*
X14439857Y-6851400D01*
X14487476Y-6899019D01*
X14535095Y-6994257D01*
X14535095Y-7137114D01*
X14487476Y-7232352D01*
X14439857Y-7279971D01*
X14344619Y-7327590D01*
X13963666Y-7327590D01*
X15487476Y-7803780D02*
X14916047Y-7803780D01*
X15201761Y-7803780D02*
X15201761Y-6803780D01*
X15106523Y-6946638D01*
X15011285Y-7041876D01*
X14916047Y-7089495D01*
X15963666Y-7803780D02*
X16154142Y-7803780D01*
X16249380Y-7756161D01*
X16297000Y-7708542D01*
X16392238Y-7565685D01*
X16439857Y-7375209D01*
X16439857Y-6994257D01*
X16392238Y-6899019D01*
X16344619Y-6851400D01*
X16249380Y-6803780D01*
X16058904Y-6803780D01*
X15963666Y-6851400D01*
X15916047Y-6899019D01*
X15868428Y-6994257D01*
X15868428Y-7232352D01*
X15916047Y-7327590D01*
X15963666Y-7375209D01*
X16058904Y-7422828D01*
X16249380Y-7422828D01*
X16344619Y-7375209D01*
X16392238Y-7327590D01*
X16439857Y-7232352D01*
G04 #@! TO.C,REF\002A\002A*
X87666666Y47619D02*
X87333333Y523809D01*
X87095238Y47619D02*
X87095238Y1047619D01*
X87476190Y1047619D01*
X87571428Y1000000D01*
X87619047Y952380D01*
X87666666Y857142D01*
X87666666Y714285D01*
X87619047Y619047D01*
X87571428Y571428D01*
X87476190Y523809D01*
X87095238Y523809D01*
X88095238Y571428D02*
X88428571Y571428D01*
X88571428Y47619D02*
X88095238Y47619D01*
X88095238Y1047619D01*
X88571428Y1047619D01*
X89333333Y571428D02*
X89000000Y571428D01*
X89000000Y47619D02*
X89000000Y1047619D01*
X89476190Y1047619D01*
X90000000Y1047619D02*
X90000000Y809523D01*
X89761904Y904761D02*
X90000000Y809523D01*
X90238095Y904761D01*
X89857142Y619047D02*
X90000000Y809523D01*
X90142857Y619047D01*
X90761904Y1047619D02*
X90761904Y809523D01*
X90523809Y904761D02*
X90761904Y809523D01*
X91000000Y904761D01*
X90619047Y619047D02*
X90761904Y809523D01*
X90904761Y619047D01*
G04 #@! TD*
M02*
