M48
;DRILL file {KiCad (5.0.1)-3} date 11/21/2018 00:41:38
;FORMAT={-:-/ absolute / inch / decimal}
FMAT,2
INCH,TZ
T1C0.0157
T2C0.0197
T3C0.0315
T4C0.0394
T5C0.0402
T6C0.0630
T7C0.1181
%
G90
G05
M72
T1
X0.3295Y-0.765
X0.342Y-1.425
X0.342Y-1.475
X0.342Y-1.525
X0.342Y-1.575
X0.367Y-0.71
X0.367Y-0.82
X0.417Y-1.2
X0.417Y-1.335
X0.417Y-1.265
X0.487Y-1.335
X0.517Y-1.265
X0.537Y-0.3515
X0.587Y-0.2965
X0.587Y-0.4065
X0.587Y-0.945
X0.587Y-1.025
X0.587Y-1.105
X0.592Y-0.82
X0.592Y-1.2
X0.617Y-0.7075
X0.637Y-1.155
X0.917Y-0.615
X0.917Y-0.695
X0.917Y-0.775
X0.92Y-0.54
X1.047Y-1.435
X1.057Y-1.355
X1.177Y-1.385
X1.227Y-1.435
X1.297Y-1.8581
X1.367Y-1.8581
X1.617Y-3.175
X1.617Y-3.225
X1.738Y-0.421
X1.763Y-1.196
X1.775Y-2.695
X1.8Y-2.17
X1.867Y-3.125
X1.867Y-3.165
X1.872Y-2.456
X1.875Y-1.67
X1.875Y-2.07
X1.892Y-3.295
X1.9005Y-2.695
X1.9059Y-1.7891
X1.95Y-1.72
X1.961Y-0.653
X2.025Y-3.07
X2.067Y-3.22
X2.092Y-2.895
X2.132Y-1.435
X2.167Y-2.245
X2.167Y-2.345
X2.167Y-2.82
X2.1813Y-0.696
X2.1813Y-0.771
X2.217Y-0.159
X2.24Y-0.5
X2.267Y-1.505
X2.367Y-1.48
X2.717Y-2.695
X2.717Y-2.795
X2.792Y-3.32
X2.842Y-2.52
X2.842Y-2.57
X2.863Y-1.196
X2.8635Y-1.92
X2.8635Y-1.97
X2.9205Y-1.92
X2.9205Y-2.52
X2.9205Y-2.57
X3.042Y-1.97
X3.36Y-2.69
X3.36Y-2.94
X3.445Y-0.522
X3.445Y-0.562
X3.495Y-0.522
X3.495Y-0.562
T2
X3.517Y-2.2029
X3.517Y-2.2521
X3.517Y-2.3013
X3.517Y-2.3505
X3.517Y-2.3997
X3.517Y-2.4489
X3.517Y-2.4981
X3.517Y-2.5474
X3.517Y-2.5966
X3.517Y-2.6458
X3.517Y-2.695
X3.517Y-2.7442
T3
X1.3322Y-1.575
X1.4322Y-1.575
X1.5322Y-1.575
X1.6322Y-1.575
X1.692Y-3.475
X1.7322Y-1.575
X1.792Y-3.475
X1.8322Y-1.575
X1.892Y-3.475
X1.9322Y-1.575
X1.992Y-3.475
X2.0322Y-1.575
X2.092Y-3.475
X2.1322Y-1.575
X2.192Y-3.475
X2.2322Y-1.575
X2.292Y-3.475
X2.392Y-1.575
X2.392Y-3.475
X2.492Y-1.575
X2.592Y-1.575
X2.592Y-3.475
X2.692Y-1.575
X2.692Y-3.475
X2.792Y-1.575
X2.792Y-3.475
X2.892Y-1.575
X2.892Y-3.475
X2.992Y-1.575
X2.992Y-3.475
X3.092Y-1.575
X3.092Y-3.475
T4
X1.967Y-3.37
X0.192Y-0.37
X0.292Y-0.37
X0.392Y-0.37
X3.067Y-3.32
X2.992Y-1.745
X1.267Y-2.275
X1.267Y-2.375
X1.267Y-2.475
X1.267Y-2.575
X1.267Y-2.675
X1.267Y-2.775
X1.267Y-2.875
X1.267Y-2.975
X1.267Y-3.075
X3.167Y-1.745
X2.917Y-3.32
X1.967Y-2.3
X1.967Y-2.4
X1.967Y-2.5
X1.967Y-2.6
X1.967Y-2.7
X1.967Y-2.8
X1.967Y-2.9
X1.967Y-3.
X3.217Y-3.32
T5
X1.492Y-1.925
X1.592Y-1.925
X1.692Y-1.925
T6
X0.735Y-0.189
X3.12Y-1.33
X0.929Y-0.191
X2.142Y-1.845
X2.072Y-1.34
X0.555Y-0.191
T7
X2.0904Y-1.0583
X2.7154Y-1.346
X1.623Y-1.346
X2.2904Y-1.0583
T0
M30
