G04 #@! TF.GenerationSoftware,KiCad,Pcbnew,(5.0.1)-3*
G04 #@! TF.CreationDate,2018-11-21T00:41:34-05:00*
G04 #@! TF.ProjectId,SMA_Driver_V1,534D415F4472697665725F56312E6B69,rev?*
G04 #@! TF.SameCoordinates,Original*
G04 #@! TF.FileFunction,Paste,Top*
G04 #@! TF.FilePolarity,Positive*
%FSLAX46Y46*%
G04 Gerber Fmt 4.6, Leading zero omitted, Abs format (unit mm)*
G04 Created by KiCad (PCBNEW (5.0.1)-3) date 11/21/2018 00:41:34*
%MOMM*%
%LPD*%
G01*
G04 APERTURE LIST*
%ADD10C,0.100000*%
%ADD11C,1.150000*%
%ADD12C,0.975000*%
%ADD13R,1.450000X0.450000*%
%ADD14R,0.600000X1.550000*%
G04 APERTURE END LIST*
D10*
G04 #@! TO.C,C11*
G36*
X22380305Y-16954204D02*
X22404573Y-16957804D01*
X22428372Y-16963765D01*
X22451471Y-16972030D01*
X22473650Y-16982520D01*
X22494693Y-16995132D01*
X22514399Y-17009747D01*
X22532577Y-17026223D01*
X22549053Y-17044401D01*
X22563668Y-17064107D01*
X22576280Y-17085150D01*
X22586770Y-17107329D01*
X22595035Y-17130428D01*
X22600996Y-17154227D01*
X22604596Y-17178495D01*
X22605800Y-17202999D01*
X22605800Y-18103001D01*
X22604596Y-18127505D01*
X22600996Y-18151773D01*
X22595035Y-18175572D01*
X22586770Y-18198671D01*
X22576280Y-18220850D01*
X22563668Y-18241893D01*
X22549053Y-18261599D01*
X22532577Y-18279777D01*
X22514399Y-18296253D01*
X22494693Y-18310868D01*
X22473650Y-18323480D01*
X22451471Y-18333970D01*
X22428372Y-18342235D01*
X22404573Y-18348196D01*
X22380305Y-18351796D01*
X22355801Y-18353000D01*
X21705799Y-18353000D01*
X21681295Y-18351796D01*
X21657027Y-18348196D01*
X21633228Y-18342235D01*
X21610129Y-18333970D01*
X21587950Y-18323480D01*
X21566907Y-18310868D01*
X21547201Y-18296253D01*
X21529023Y-18279777D01*
X21512547Y-18261599D01*
X21497932Y-18241893D01*
X21485320Y-18220850D01*
X21474830Y-18198671D01*
X21466565Y-18175572D01*
X21460604Y-18151773D01*
X21457004Y-18127505D01*
X21455800Y-18103001D01*
X21455800Y-17202999D01*
X21457004Y-17178495D01*
X21460604Y-17154227D01*
X21466565Y-17130428D01*
X21474830Y-17107329D01*
X21485320Y-17085150D01*
X21497932Y-17064107D01*
X21512547Y-17044401D01*
X21529023Y-17026223D01*
X21547201Y-17009747D01*
X21566907Y-16995132D01*
X21587950Y-16982520D01*
X21610129Y-16972030D01*
X21633228Y-16963765D01*
X21657027Y-16957804D01*
X21681295Y-16954204D01*
X21705799Y-16953000D01*
X22355801Y-16953000D01*
X22380305Y-16954204D01*
X22380305Y-16954204D01*
G37*
D11*
X22030800Y-17653000D03*
D10*
G36*
X20330305Y-16954204D02*
X20354573Y-16957804D01*
X20378372Y-16963765D01*
X20401471Y-16972030D01*
X20423650Y-16982520D01*
X20444693Y-16995132D01*
X20464399Y-17009747D01*
X20482577Y-17026223D01*
X20499053Y-17044401D01*
X20513668Y-17064107D01*
X20526280Y-17085150D01*
X20536770Y-17107329D01*
X20545035Y-17130428D01*
X20550996Y-17154227D01*
X20554596Y-17178495D01*
X20555800Y-17202999D01*
X20555800Y-18103001D01*
X20554596Y-18127505D01*
X20550996Y-18151773D01*
X20545035Y-18175572D01*
X20536770Y-18198671D01*
X20526280Y-18220850D01*
X20513668Y-18241893D01*
X20499053Y-18261599D01*
X20482577Y-18279777D01*
X20464399Y-18296253D01*
X20444693Y-18310868D01*
X20423650Y-18323480D01*
X20401471Y-18333970D01*
X20378372Y-18342235D01*
X20354573Y-18348196D01*
X20330305Y-18351796D01*
X20305801Y-18353000D01*
X19655799Y-18353000D01*
X19631295Y-18351796D01*
X19607027Y-18348196D01*
X19583228Y-18342235D01*
X19560129Y-18333970D01*
X19537950Y-18323480D01*
X19516907Y-18310868D01*
X19497201Y-18296253D01*
X19479023Y-18279777D01*
X19462547Y-18261599D01*
X19447932Y-18241893D01*
X19435320Y-18220850D01*
X19424830Y-18198671D01*
X19416565Y-18175572D01*
X19410604Y-18151773D01*
X19407004Y-18127505D01*
X19405800Y-18103001D01*
X19405800Y-17202999D01*
X19407004Y-17178495D01*
X19410604Y-17154227D01*
X19416565Y-17130428D01*
X19424830Y-17107329D01*
X19435320Y-17085150D01*
X19447932Y-17064107D01*
X19462547Y-17044401D01*
X19479023Y-17026223D01*
X19497201Y-17009747D01*
X19516907Y-16995132D01*
X19537950Y-16982520D01*
X19560129Y-16972030D01*
X19583228Y-16963765D01*
X19607027Y-16957804D01*
X19631295Y-16954204D01*
X19655799Y-16953000D01*
X20305801Y-16953000D01*
X20330305Y-16954204D01*
X20330305Y-16954204D01*
G37*
D11*
X19980800Y-17653000D03*
G04 #@! TD*
D10*
G04 #@! TO.C,C28*
G36*
X18570305Y-27368204D02*
X18594573Y-27371804D01*
X18618372Y-27377765D01*
X18641471Y-27386030D01*
X18663650Y-27396520D01*
X18684693Y-27409132D01*
X18704399Y-27423747D01*
X18722577Y-27440223D01*
X18739053Y-27458401D01*
X18753668Y-27478107D01*
X18766280Y-27499150D01*
X18776770Y-27521329D01*
X18785035Y-27544428D01*
X18790996Y-27568227D01*
X18794596Y-27592495D01*
X18795800Y-27616999D01*
X18795800Y-28517001D01*
X18794596Y-28541505D01*
X18790996Y-28565773D01*
X18785035Y-28589572D01*
X18776770Y-28612671D01*
X18766280Y-28634850D01*
X18753668Y-28655893D01*
X18739053Y-28675599D01*
X18722577Y-28693777D01*
X18704399Y-28710253D01*
X18684693Y-28724868D01*
X18663650Y-28737480D01*
X18641471Y-28747970D01*
X18618372Y-28756235D01*
X18594573Y-28762196D01*
X18570305Y-28765796D01*
X18545801Y-28767000D01*
X17895799Y-28767000D01*
X17871295Y-28765796D01*
X17847027Y-28762196D01*
X17823228Y-28756235D01*
X17800129Y-28747970D01*
X17777950Y-28737480D01*
X17756907Y-28724868D01*
X17737201Y-28710253D01*
X17719023Y-28693777D01*
X17702547Y-28675599D01*
X17687932Y-28655893D01*
X17675320Y-28634850D01*
X17664830Y-28612671D01*
X17656565Y-28589572D01*
X17650604Y-28565773D01*
X17647004Y-28541505D01*
X17645800Y-28517001D01*
X17645800Y-27616999D01*
X17647004Y-27592495D01*
X17650604Y-27568227D01*
X17656565Y-27544428D01*
X17664830Y-27521329D01*
X17675320Y-27499150D01*
X17687932Y-27478107D01*
X17702547Y-27458401D01*
X17719023Y-27440223D01*
X17737201Y-27423747D01*
X17756907Y-27409132D01*
X17777950Y-27396520D01*
X17800129Y-27386030D01*
X17823228Y-27377765D01*
X17847027Y-27371804D01*
X17871295Y-27368204D01*
X17895799Y-27367000D01*
X18545801Y-27367000D01*
X18570305Y-27368204D01*
X18570305Y-27368204D01*
G37*
D11*
X18220800Y-28067000D03*
D10*
G36*
X16520305Y-27368204D02*
X16544573Y-27371804D01*
X16568372Y-27377765D01*
X16591471Y-27386030D01*
X16613650Y-27396520D01*
X16634693Y-27409132D01*
X16654399Y-27423747D01*
X16672577Y-27440223D01*
X16689053Y-27458401D01*
X16703668Y-27478107D01*
X16716280Y-27499150D01*
X16726770Y-27521329D01*
X16735035Y-27544428D01*
X16740996Y-27568227D01*
X16744596Y-27592495D01*
X16745800Y-27616999D01*
X16745800Y-28517001D01*
X16744596Y-28541505D01*
X16740996Y-28565773D01*
X16735035Y-28589572D01*
X16726770Y-28612671D01*
X16716280Y-28634850D01*
X16703668Y-28655893D01*
X16689053Y-28675599D01*
X16672577Y-28693777D01*
X16654399Y-28710253D01*
X16634693Y-28724868D01*
X16613650Y-28737480D01*
X16591471Y-28747970D01*
X16568372Y-28756235D01*
X16544573Y-28762196D01*
X16520305Y-28765796D01*
X16495801Y-28767000D01*
X15845799Y-28767000D01*
X15821295Y-28765796D01*
X15797027Y-28762196D01*
X15773228Y-28756235D01*
X15750129Y-28747970D01*
X15727950Y-28737480D01*
X15706907Y-28724868D01*
X15687201Y-28710253D01*
X15669023Y-28693777D01*
X15652547Y-28675599D01*
X15637932Y-28655893D01*
X15625320Y-28634850D01*
X15614830Y-28612671D01*
X15606565Y-28589572D01*
X15600604Y-28565773D01*
X15597004Y-28541505D01*
X15595800Y-28517001D01*
X15595800Y-27616999D01*
X15597004Y-27592495D01*
X15600604Y-27568227D01*
X15606565Y-27544428D01*
X15614830Y-27521329D01*
X15625320Y-27499150D01*
X15637932Y-27478107D01*
X15652547Y-27458401D01*
X15669023Y-27440223D01*
X15687201Y-27423747D01*
X15706907Y-27409132D01*
X15727950Y-27396520D01*
X15750129Y-27386030D01*
X15773228Y-27377765D01*
X15797027Y-27371804D01*
X15821295Y-27368204D01*
X15845799Y-27367000D01*
X16495801Y-27367000D01*
X16520305Y-27368204D01*
X16520305Y-27368204D01*
G37*
D11*
X16170800Y-28067000D03*
G04 #@! TD*
D10*
G04 #@! TO.C,C4*
G36*
X20330305Y-12890204D02*
X20354573Y-12893804D01*
X20378372Y-12899765D01*
X20401471Y-12908030D01*
X20423650Y-12918520D01*
X20444693Y-12931132D01*
X20464399Y-12945747D01*
X20482577Y-12962223D01*
X20499053Y-12980401D01*
X20513668Y-13000107D01*
X20526280Y-13021150D01*
X20536770Y-13043329D01*
X20545035Y-13066428D01*
X20550996Y-13090227D01*
X20554596Y-13114495D01*
X20555800Y-13138999D01*
X20555800Y-14039001D01*
X20554596Y-14063505D01*
X20550996Y-14087773D01*
X20545035Y-14111572D01*
X20536770Y-14134671D01*
X20526280Y-14156850D01*
X20513668Y-14177893D01*
X20499053Y-14197599D01*
X20482577Y-14215777D01*
X20464399Y-14232253D01*
X20444693Y-14246868D01*
X20423650Y-14259480D01*
X20401471Y-14269970D01*
X20378372Y-14278235D01*
X20354573Y-14284196D01*
X20330305Y-14287796D01*
X20305801Y-14289000D01*
X19655799Y-14289000D01*
X19631295Y-14287796D01*
X19607027Y-14284196D01*
X19583228Y-14278235D01*
X19560129Y-14269970D01*
X19537950Y-14259480D01*
X19516907Y-14246868D01*
X19497201Y-14232253D01*
X19479023Y-14215777D01*
X19462547Y-14197599D01*
X19447932Y-14177893D01*
X19435320Y-14156850D01*
X19424830Y-14134671D01*
X19416565Y-14111572D01*
X19410604Y-14087773D01*
X19407004Y-14063505D01*
X19405800Y-14039001D01*
X19405800Y-13138999D01*
X19407004Y-13114495D01*
X19410604Y-13090227D01*
X19416565Y-13066428D01*
X19424830Y-13043329D01*
X19435320Y-13021150D01*
X19447932Y-13000107D01*
X19462547Y-12980401D01*
X19479023Y-12962223D01*
X19497201Y-12945747D01*
X19516907Y-12931132D01*
X19537950Y-12918520D01*
X19560129Y-12908030D01*
X19583228Y-12899765D01*
X19607027Y-12893804D01*
X19631295Y-12890204D01*
X19655799Y-12889000D01*
X20305801Y-12889000D01*
X20330305Y-12890204D01*
X20330305Y-12890204D01*
G37*
D11*
X19980800Y-13589000D03*
D10*
G36*
X22380305Y-12890204D02*
X22404573Y-12893804D01*
X22428372Y-12899765D01*
X22451471Y-12908030D01*
X22473650Y-12918520D01*
X22494693Y-12931132D01*
X22514399Y-12945747D01*
X22532577Y-12962223D01*
X22549053Y-12980401D01*
X22563668Y-13000107D01*
X22576280Y-13021150D01*
X22586770Y-13043329D01*
X22595035Y-13066428D01*
X22600996Y-13090227D01*
X22604596Y-13114495D01*
X22605800Y-13138999D01*
X22605800Y-14039001D01*
X22604596Y-14063505D01*
X22600996Y-14087773D01*
X22595035Y-14111572D01*
X22586770Y-14134671D01*
X22576280Y-14156850D01*
X22563668Y-14177893D01*
X22549053Y-14197599D01*
X22532577Y-14215777D01*
X22514399Y-14232253D01*
X22494693Y-14246868D01*
X22473650Y-14259480D01*
X22451471Y-14269970D01*
X22428372Y-14278235D01*
X22404573Y-14284196D01*
X22380305Y-14287796D01*
X22355801Y-14289000D01*
X21705799Y-14289000D01*
X21681295Y-14287796D01*
X21657027Y-14284196D01*
X21633228Y-14278235D01*
X21610129Y-14269970D01*
X21587950Y-14259480D01*
X21566907Y-14246868D01*
X21547201Y-14232253D01*
X21529023Y-14215777D01*
X21512547Y-14197599D01*
X21497932Y-14177893D01*
X21485320Y-14156850D01*
X21474830Y-14134671D01*
X21466565Y-14111572D01*
X21460604Y-14087773D01*
X21457004Y-14063505D01*
X21455800Y-14039001D01*
X21455800Y-13138999D01*
X21457004Y-13114495D01*
X21460604Y-13090227D01*
X21466565Y-13066428D01*
X21474830Y-13043329D01*
X21485320Y-13021150D01*
X21497932Y-13000107D01*
X21512547Y-12980401D01*
X21529023Y-12962223D01*
X21547201Y-12945747D01*
X21566907Y-12931132D01*
X21587950Y-12918520D01*
X21610129Y-12908030D01*
X21633228Y-12899765D01*
X21657027Y-12893804D01*
X21681295Y-12890204D01*
X21705799Y-12889000D01*
X22355801Y-12889000D01*
X22380305Y-12890204D01*
X22380305Y-12890204D01*
G37*
D11*
X22030800Y-13589000D03*
G04 #@! TD*
D10*
G04 #@! TO.C,C5*
G36*
X53495305Y-9778704D02*
X53519573Y-9782304D01*
X53543372Y-9788265D01*
X53566471Y-9796530D01*
X53588650Y-9807020D01*
X53609693Y-9819632D01*
X53629399Y-9834247D01*
X53647577Y-9850723D01*
X53664053Y-9868901D01*
X53678668Y-9888607D01*
X53691280Y-9909650D01*
X53701770Y-9931829D01*
X53710035Y-9954928D01*
X53715996Y-9978727D01*
X53719596Y-10002995D01*
X53720800Y-10027499D01*
X53720800Y-10927501D01*
X53719596Y-10952005D01*
X53715996Y-10976273D01*
X53710035Y-11000072D01*
X53701770Y-11023171D01*
X53691280Y-11045350D01*
X53678668Y-11066393D01*
X53664053Y-11086099D01*
X53647577Y-11104277D01*
X53629399Y-11120753D01*
X53609693Y-11135368D01*
X53588650Y-11147980D01*
X53566471Y-11158470D01*
X53543372Y-11166735D01*
X53519573Y-11172696D01*
X53495305Y-11176296D01*
X53470801Y-11177500D01*
X52820799Y-11177500D01*
X52796295Y-11176296D01*
X52772027Y-11172696D01*
X52748228Y-11166735D01*
X52725129Y-11158470D01*
X52702950Y-11147980D01*
X52681907Y-11135368D01*
X52662201Y-11120753D01*
X52644023Y-11104277D01*
X52627547Y-11086099D01*
X52612932Y-11066393D01*
X52600320Y-11045350D01*
X52589830Y-11023171D01*
X52581565Y-11000072D01*
X52575604Y-10976273D01*
X52572004Y-10952005D01*
X52570800Y-10927501D01*
X52570800Y-10027499D01*
X52572004Y-10002995D01*
X52575604Y-9978727D01*
X52581565Y-9954928D01*
X52589830Y-9931829D01*
X52600320Y-9909650D01*
X52612932Y-9888607D01*
X52627547Y-9868901D01*
X52644023Y-9850723D01*
X52662201Y-9834247D01*
X52681907Y-9819632D01*
X52702950Y-9807020D01*
X52725129Y-9796530D01*
X52748228Y-9788265D01*
X52772027Y-9782304D01*
X52796295Y-9778704D01*
X52820799Y-9777500D01*
X53470801Y-9777500D01*
X53495305Y-9778704D01*
X53495305Y-9778704D01*
G37*
D11*
X53145800Y-10477500D03*
D10*
G36*
X51445305Y-9778704D02*
X51469573Y-9782304D01*
X51493372Y-9788265D01*
X51516471Y-9796530D01*
X51538650Y-9807020D01*
X51559693Y-9819632D01*
X51579399Y-9834247D01*
X51597577Y-9850723D01*
X51614053Y-9868901D01*
X51628668Y-9888607D01*
X51641280Y-9909650D01*
X51651770Y-9931829D01*
X51660035Y-9954928D01*
X51665996Y-9978727D01*
X51669596Y-10002995D01*
X51670800Y-10027499D01*
X51670800Y-10927501D01*
X51669596Y-10952005D01*
X51665996Y-10976273D01*
X51660035Y-11000072D01*
X51651770Y-11023171D01*
X51641280Y-11045350D01*
X51628668Y-11066393D01*
X51614053Y-11086099D01*
X51597577Y-11104277D01*
X51579399Y-11120753D01*
X51559693Y-11135368D01*
X51538650Y-11147980D01*
X51516471Y-11158470D01*
X51493372Y-11166735D01*
X51469573Y-11172696D01*
X51445305Y-11176296D01*
X51420801Y-11177500D01*
X50770799Y-11177500D01*
X50746295Y-11176296D01*
X50722027Y-11172696D01*
X50698228Y-11166735D01*
X50675129Y-11158470D01*
X50652950Y-11147980D01*
X50631907Y-11135368D01*
X50612201Y-11120753D01*
X50594023Y-11104277D01*
X50577547Y-11086099D01*
X50562932Y-11066393D01*
X50550320Y-11045350D01*
X50539830Y-11023171D01*
X50531565Y-11000072D01*
X50525604Y-10976273D01*
X50522004Y-10952005D01*
X50520800Y-10927501D01*
X50520800Y-10027499D01*
X50522004Y-10002995D01*
X50525604Y-9978727D01*
X50531565Y-9954928D01*
X50539830Y-9931829D01*
X50550320Y-9909650D01*
X50562932Y-9888607D01*
X50577547Y-9868901D01*
X50594023Y-9850723D01*
X50612201Y-9834247D01*
X50631907Y-9819632D01*
X50652950Y-9807020D01*
X50675129Y-9796530D01*
X50698228Y-9788265D01*
X50722027Y-9782304D01*
X50746295Y-9778704D01*
X50770799Y-9777500D01*
X51420801Y-9777500D01*
X51445305Y-9778704D01*
X51445305Y-9778704D01*
G37*
D11*
X51095800Y-10477500D03*
G04 #@! TD*
D10*
G04 #@! TO.C,C10*
G36*
X51623105Y-15176204D02*
X51647373Y-15179804D01*
X51671172Y-15185765D01*
X51694271Y-15194030D01*
X51716450Y-15204520D01*
X51737493Y-15217132D01*
X51757199Y-15231747D01*
X51775377Y-15248223D01*
X51791853Y-15266401D01*
X51806468Y-15286107D01*
X51819080Y-15307150D01*
X51829570Y-15329329D01*
X51837835Y-15352428D01*
X51843796Y-15376227D01*
X51847396Y-15400495D01*
X51848600Y-15424999D01*
X51848600Y-16325001D01*
X51847396Y-16349505D01*
X51843796Y-16373773D01*
X51837835Y-16397572D01*
X51829570Y-16420671D01*
X51819080Y-16442850D01*
X51806468Y-16463893D01*
X51791853Y-16483599D01*
X51775377Y-16501777D01*
X51757199Y-16518253D01*
X51737493Y-16532868D01*
X51716450Y-16545480D01*
X51694271Y-16555970D01*
X51671172Y-16564235D01*
X51647373Y-16570196D01*
X51623105Y-16573796D01*
X51598601Y-16575000D01*
X50948599Y-16575000D01*
X50924095Y-16573796D01*
X50899827Y-16570196D01*
X50876028Y-16564235D01*
X50852929Y-16555970D01*
X50830750Y-16545480D01*
X50809707Y-16532868D01*
X50790001Y-16518253D01*
X50771823Y-16501777D01*
X50755347Y-16483599D01*
X50740732Y-16463893D01*
X50728120Y-16442850D01*
X50717630Y-16420671D01*
X50709365Y-16397572D01*
X50703404Y-16373773D01*
X50699804Y-16349505D01*
X50698600Y-16325001D01*
X50698600Y-15424999D01*
X50699804Y-15400495D01*
X50703404Y-15376227D01*
X50709365Y-15352428D01*
X50717630Y-15329329D01*
X50728120Y-15307150D01*
X50740732Y-15286107D01*
X50755347Y-15266401D01*
X50771823Y-15248223D01*
X50790001Y-15231747D01*
X50809707Y-15217132D01*
X50830750Y-15204520D01*
X50852929Y-15194030D01*
X50876028Y-15185765D01*
X50899827Y-15179804D01*
X50924095Y-15176204D01*
X50948599Y-15175000D01*
X51598601Y-15175000D01*
X51623105Y-15176204D01*
X51623105Y-15176204D01*
G37*
D11*
X51273600Y-15875000D03*
D10*
G36*
X53673105Y-15176204D02*
X53697373Y-15179804D01*
X53721172Y-15185765D01*
X53744271Y-15194030D01*
X53766450Y-15204520D01*
X53787493Y-15217132D01*
X53807199Y-15231747D01*
X53825377Y-15248223D01*
X53841853Y-15266401D01*
X53856468Y-15286107D01*
X53869080Y-15307150D01*
X53879570Y-15329329D01*
X53887835Y-15352428D01*
X53893796Y-15376227D01*
X53897396Y-15400495D01*
X53898600Y-15424999D01*
X53898600Y-16325001D01*
X53897396Y-16349505D01*
X53893796Y-16373773D01*
X53887835Y-16397572D01*
X53879570Y-16420671D01*
X53869080Y-16442850D01*
X53856468Y-16463893D01*
X53841853Y-16483599D01*
X53825377Y-16501777D01*
X53807199Y-16518253D01*
X53787493Y-16532868D01*
X53766450Y-16545480D01*
X53744271Y-16555970D01*
X53721172Y-16564235D01*
X53697373Y-16570196D01*
X53673105Y-16573796D01*
X53648601Y-16575000D01*
X52998599Y-16575000D01*
X52974095Y-16573796D01*
X52949827Y-16570196D01*
X52926028Y-16564235D01*
X52902929Y-16555970D01*
X52880750Y-16545480D01*
X52859707Y-16532868D01*
X52840001Y-16518253D01*
X52821823Y-16501777D01*
X52805347Y-16483599D01*
X52790732Y-16463893D01*
X52778120Y-16442850D01*
X52767630Y-16420671D01*
X52759365Y-16397572D01*
X52753404Y-16373773D01*
X52749804Y-16349505D01*
X52748600Y-16325001D01*
X52748600Y-15424999D01*
X52749804Y-15400495D01*
X52753404Y-15376227D01*
X52759365Y-15352428D01*
X52767630Y-15329329D01*
X52778120Y-15307150D01*
X52790732Y-15286107D01*
X52805347Y-15266401D01*
X52821823Y-15248223D01*
X52840001Y-15231747D01*
X52859707Y-15217132D01*
X52880750Y-15204520D01*
X52902929Y-15194030D01*
X52926028Y-15185765D01*
X52949827Y-15179804D01*
X52974095Y-15176204D01*
X52998599Y-15175000D01*
X53648601Y-15175000D01*
X53673105Y-15176204D01*
X53673105Y-15176204D01*
G37*
D11*
X53323600Y-15875000D03*
G04 #@! TD*
D10*
G04 #@! TO.C,C12*
G36*
X53673105Y-13144204D02*
X53697373Y-13147804D01*
X53721172Y-13153765D01*
X53744271Y-13162030D01*
X53766450Y-13172520D01*
X53787493Y-13185132D01*
X53807199Y-13199747D01*
X53825377Y-13216223D01*
X53841853Y-13234401D01*
X53856468Y-13254107D01*
X53869080Y-13275150D01*
X53879570Y-13297329D01*
X53887835Y-13320428D01*
X53893796Y-13344227D01*
X53897396Y-13368495D01*
X53898600Y-13392999D01*
X53898600Y-14293001D01*
X53897396Y-14317505D01*
X53893796Y-14341773D01*
X53887835Y-14365572D01*
X53879570Y-14388671D01*
X53869080Y-14410850D01*
X53856468Y-14431893D01*
X53841853Y-14451599D01*
X53825377Y-14469777D01*
X53807199Y-14486253D01*
X53787493Y-14500868D01*
X53766450Y-14513480D01*
X53744271Y-14523970D01*
X53721172Y-14532235D01*
X53697373Y-14538196D01*
X53673105Y-14541796D01*
X53648601Y-14543000D01*
X52998599Y-14543000D01*
X52974095Y-14541796D01*
X52949827Y-14538196D01*
X52926028Y-14532235D01*
X52902929Y-14523970D01*
X52880750Y-14513480D01*
X52859707Y-14500868D01*
X52840001Y-14486253D01*
X52821823Y-14469777D01*
X52805347Y-14451599D01*
X52790732Y-14431893D01*
X52778120Y-14410850D01*
X52767630Y-14388671D01*
X52759365Y-14365572D01*
X52753404Y-14341773D01*
X52749804Y-14317505D01*
X52748600Y-14293001D01*
X52748600Y-13392999D01*
X52749804Y-13368495D01*
X52753404Y-13344227D01*
X52759365Y-13320428D01*
X52767630Y-13297329D01*
X52778120Y-13275150D01*
X52790732Y-13254107D01*
X52805347Y-13234401D01*
X52821823Y-13216223D01*
X52840001Y-13199747D01*
X52859707Y-13185132D01*
X52880750Y-13172520D01*
X52902929Y-13162030D01*
X52926028Y-13153765D01*
X52949827Y-13147804D01*
X52974095Y-13144204D01*
X52998599Y-13143000D01*
X53648601Y-13143000D01*
X53673105Y-13144204D01*
X53673105Y-13144204D01*
G37*
D11*
X53323600Y-13843000D03*
D10*
G36*
X51623105Y-13144204D02*
X51647373Y-13147804D01*
X51671172Y-13153765D01*
X51694271Y-13162030D01*
X51716450Y-13172520D01*
X51737493Y-13185132D01*
X51757199Y-13199747D01*
X51775377Y-13216223D01*
X51791853Y-13234401D01*
X51806468Y-13254107D01*
X51819080Y-13275150D01*
X51829570Y-13297329D01*
X51837835Y-13320428D01*
X51843796Y-13344227D01*
X51847396Y-13368495D01*
X51848600Y-13392999D01*
X51848600Y-14293001D01*
X51847396Y-14317505D01*
X51843796Y-14341773D01*
X51837835Y-14365572D01*
X51829570Y-14388671D01*
X51819080Y-14410850D01*
X51806468Y-14431893D01*
X51791853Y-14451599D01*
X51775377Y-14469777D01*
X51757199Y-14486253D01*
X51737493Y-14500868D01*
X51716450Y-14513480D01*
X51694271Y-14523970D01*
X51671172Y-14532235D01*
X51647373Y-14538196D01*
X51623105Y-14541796D01*
X51598601Y-14543000D01*
X50948599Y-14543000D01*
X50924095Y-14541796D01*
X50899827Y-14538196D01*
X50876028Y-14532235D01*
X50852929Y-14523970D01*
X50830750Y-14513480D01*
X50809707Y-14500868D01*
X50790001Y-14486253D01*
X50771823Y-14469777D01*
X50755347Y-14451599D01*
X50740732Y-14431893D01*
X50728120Y-14410850D01*
X50717630Y-14388671D01*
X50709365Y-14365572D01*
X50703404Y-14341773D01*
X50699804Y-14317505D01*
X50698600Y-14293001D01*
X50698600Y-13392999D01*
X50699804Y-13368495D01*
X50703404Y-13344227D01*
X50709365Y-13320428D01*
X50717630Y-13297329D01*
X50728120Y-13275150D01*
X50740732Y-13254107D01*
X50755347Y-13234401D01*
X50771823Y-13216223D01*
X50790001Y-13199747D01*
X50809707Y-13185132D01*
X50830750Y-13172520D01*
X50852929Y-13162030D01*
X50876028Y-13153765D01*
X50899827Y-13147804D01*
X50924095Y-13144204D01*
X50948599Y-13143000D01*
X51598601Y-13143000D01*
X51623105Y-13144204D01*
X51623105Y-13144204D01*
G37*
D11*
X51273600Y-13843000D03*
G04 #@! TD*
D10*
G04 #@! TO.C,C16*
G36*
X14894705Y-8229304D02*
X14918973Y-8232904D01*
X14942772Y-8238865D01*
X14965871Y-8247130D01*
X14988050Y-8257620D01*
X15009093Y-8270232D01*
X15028799Y-8284847D01*
X15046977Y-8301323D01*
X15063453Y-8319501D01*
X15078068Y-8339207D01*
X15090680Y-8360250D01*
X15101170Y-8382429D01*
X15109435Y-8405528D01*
X15115396Y-8429327D01*
X15118996Y-8453595D01*
X15120200Y-8478099D01*
X15120200Y-9378101D01*
X15118996Y-9402605D01*
X15115396Y-9426873D01*
X15109435Y-9450672D01*
X15101170Y-9473771D01*
X15090680Y-9495950D01*
X15078068Y-9516993D01*
X15063453Y-9536699D01*
X15046977Y-9554877D01*
X15028799Y-9571353D01*
X15009093Y-9585968D01*
X14988050Y-9598580D01*
X14965871Y-9609070D01*
X14942772Y-9617335D01*
X14918973Y-9623296D01*
X14894705Y-9626896D01*
X14870201Y-9628100D01*
X14220199Y-9628100D01*
X14195695Y-9626896D01*
X14171427Y-9623296D01*
X14147628Y-9617335D01*
X14124529Y-9609070D01*
X14102350Y-9598580D01*
X14081307Y-9585968D01*
X14061601Y-9571353D01*
X14043423Y-9554877D01*
X14026947Y-9536699D01*
X14012332Y-9516993D01*
X13999720Y-9495950D01*
X13989230Y-9473771D01*
X13980965Y-9450672D01*
X13975004Y-9426873D01*
X13971404Y-9402605D01*
X13970200Y-9378101D01*
X13970200Y-8478099D01*
X13971404Y-8453595D01*
X13975004Y-8429327D01*
X13980965Y-8405528D01*
X13989230Y-8382429D01*
X13999720Y-8360250D01*
X14012332Y-8339207D01*
X14026947Y-8319501D01*
X14043423Y-8301323D01*
X14061601Y-8284847D01*
X14081307Y-8270232D01*
X14102350Y-8257620D01*
X14124529Y-8247130D01*
X14147628Y-8238865D01*
X14171427Y-8232904D01*
X14195695Y-8229304D01*
X14220199Y-8228100D01*
X14870201Y-8228100D01*
X14894705Y-8229304D01*
X14894705Y-8229304D01*
G37*
D11*
X14545200Y-8928100D03*
D10*
G36*
X16944705Y-8229304D02*
X16968973Y-8232904D01*
X16992772Y-8238865D01*
X17015871Y-8247130D01*
X17038050Y-8257620D01*
X17059093Y-8270232D01*
X17078799Y-8284847D01*
X17096977Y-8301323D01*
X17113453Y-8319501D01*
X17128068Y-8339207D01*
X17140680Y-8360250D01*
X17151170Y-8382429D01*
X17159435Y-8405528D01*
X17165396Y-8429327D01*
X17168996Y-8453595D01*
X17170200Y-8478099D01*
X17170200Y-9378101D01*
X17168996Y-9402605D01*
X17165396Y-9426873D01*
X17159435Y-9450672D01*
X17151170Y-9473771D01*
X17140680Y-9495950D01*
X17128068Y-9516993D01*
X17113453Y-9536699D01*
X17096977Y-9554877D01*
X17078799Y-9571353D01*
X17059093Y-9585968D01*
X17038050Y-9598580D01*
X17015871Y-9609070D01*
X16992772Y-9617335D01*
X16968973Y-9623296D01*
X16944705Y-9626896D01*
X16920201Y-9628100D01*
X16270199Y-9628100D01*
X16245695Y-9626896D01*
X16221427Y-9623296D01*
X16197628Y-9617335D01*
X16174529Y-9609070D01*
X16152350Y-9598580D01*
X16131307Y-9585968D01*
X16111601Y-9571353D01*
X16093423Y-9554877D01*
X16076947Y-9536699D01*
X16062332Y-9516993D01*
X16049720Y-9495950D01*
X16039230Y-9473771D01*
X16030965Y-9450672D01*
X16025004Y-9426873D01*
X16021404Y-9402605D01*
X16020200Y-9378101D01*
X16020200Y-8478099D01*
X16021404Y-8453595D01*
X16025004Y-8429327D01*
X16030965Y-8405528D01*
X16039230Y-8382429D01*
X16049720Y-8360250D01*
X16062332Y-8339207D01*
X16076947Y-8319501D01*
X16093423Y-8301323D01*
X16111601Y-8284847D01*
X16131307Y-8270232D01*
X16152350Y-8257620D01*
X16174529Y-8247130D01*
X16197628Y-8238865D01*
X16221427Y-8232904D01*
X16245695Y-8229304D01*
X16270199Y-8228100D01*
X16920201Y-8228100D01*
X16944705Y-8229304D01*
X16944705Y-8229304D01*
G37*
D11*
X16595200Y-8928100D03*
G04 #@! TD*
D10*
G04 #@! TO.C,C24*
G36*
X20330305Y-18986204D02*
X20354573Y-18989804D01*
X20378372Y-18995765D01*
X20401471Y-19004030D01*
X20423650Y-19014520D01*
X20444693Y-19027132D01*
X20464399Y-19041747D01*
X20482577Y-19058223D01*
X20499053Y-19076401D01*
X20513668Y-19096107D01*
X20526280Y-19117150D01*
X20536770Y-19139329D01*
X20545035Y-19162428D01*
X20550996Y-19186227D01*
X20554596Y-19210495D01*
X20555800Y-19234999D01*
X20555800Y-20135001D01*
X20554596Y-20159505D01*
X20550996Y-20183773D01*
X20545035Y-20207572D01*
X20536770Y-20230671D01*
X20526280Y-20252850D01*
X20513668Y-20273893D01*
X20499053Y-20293599D01*
X20482577Y-20311777D01*
X20464399Y-20328253D01*
X20444693Y-20342868D01*
X20423650Y-20355480D01*
X20401471Y-20365970D01*
X20378372Y-20374235D01*
X20354573Y-20380196D01*
X20330305Y-20383796D01*
X20305801Y-20385000D01*
X19655799Y-20385000D01*
X19631295Y-20383796D01*
X19607027Y-20380196D01*
X19583228Y-20374235D01*
X19560129Y-20365970D01*
X19537950Y-20355480D01*
X19516907Y-20342868D01*
X19497201Y-20328253D01*
X19479023Y-20311777D01*
X19462547Y-20293599D01*
X19447932Y-20273893D01*
X19435320Y-20252850D01*
X19424830Y-20230671D01*
X19416565Y-20207572D01*
X19410604Y-20183773D01*
X19407004Y-20159505D01*
X19405800Y-20135001D01*
X19405800Y-19234999D01*
X19407004Y-19210495D01*
X19410604Y-19186227D01*
X19416565Y-19162428D01*
X19424830Y-19139329D01*
X19435320Y-19117150D01*
X19447932Y-19096107D01*
X19462547Y-19076401D01*
X19479023Y-19058223D01*
X19497201Y-19041747D01*
X19516907Y-19027132D01*
X19537950Y-19014520D01*
X19560129Y-19004030D01*
X19583228Y-18995765D01*
X19607027Y-18989804D01*
X19631295Y-18986204D01*
X19655799Y-18985000D01*
X20305801Y-18985000D01*
X20330305Y-18986204D01*
X20330305Y-18986204D01*
G37*
D11*
X19980800Y-19685000D03*
D10*
G36*
X22380305Y-18986204D02*
X22404573Y-18989804D01*
X22428372Y-18995765D01*
X22451471Y-19004030D01*
X22473650Y-19014520D01*
X22494693Y-19027132D01*
X22514399Y-19041747D01*
X22532577Y-19058223D01*
X22549053Y-19076401D01*
X22563668Y-19096107D01*
X22576280Y-19117150D01*
X22586770Y-19139329D01*
X22595035Y-19162428D01*
X22600996Y-19186227D01*
X22604596Y-19210495D01*
X22605800Y-19234999D01*
X22605800Y-20135001D01*
X22604596Y-20159505D01*
X22600996Y-20183773D01*
X22595035Y-20207572D01*
X22586770Y-20230671D01*
X22576280Y-20252850D01*
X22563668Y-20273893D01*
X22549053Y-20293599D01*
X22532577Y-20311777D01*
X22514399Y-20328253D01*
X22494693Y-20342868D01*
X22473650Y-20355480D01*
X22451471Y-20365970D01*
X22428372Y-20374235D01*
X22404573Y-20380196D01*
X22380305Y-20383796D01*
X22355801Y-20385000D01*
X21705799Y-20385000D01*
X21681295Y-20383796D01*
X21657027Y-20380196D01*
X21633228Y-20374235D01*
X21610129Y-20365970D01*
X21587950Y-20355480D01*
X21566907Y-20342868D01*
X21547201Y-20328253D01*
X21529023Y-20311777D01*
X21512547Y-20293599D01*
X21497932Y-20273893D01*
X21485320Y-20252850D01*
X21474830Y-20230671D01*
X21466565Y-20207572D01*
X21460604Y-20183773D01*
X21457004Y-20159505D01*
X21455800Y-20135001D01*
X21455800Y-19234999D01*
X21457004Y-19210495D01*
X21460604Y-19186227D01*
X21466565Y-19162428D01*
X21474830Y-19139329D01*
X21485320Y-19117150D01*
X21497932Y-19096107D01*
X21512547Y-19076401D01*
X21529023Y-19058223D01*
X21547201Y-19041747D01*
X21566907Y-19027132D01*
X21587950Y-19014520D01*
X21610129Y-19004030D01*
X21633228Y-18995765D01*
X21657027Y-18989804D01*
X21681295Y-18986204D01*
X21705799Y-18985000D01*
X22355801Y-18985000D01*
X22380305Y-18986204D01*
X22380305Y-18986204D01*
G37*
D11*
X22030800Y-19685000D03*
G04 #@! TD*
D10*
G04 #@! TO.C,C25*
G36*
X22380305Y-14922204D02*
X22404573Y-14925804D01*
X22428372Y-14931765D01*
X22451471Y-14940030D01*
X22473650Y-14950520D01*
X22494693Y-14963132D01*
X22514399Y-14977747D01*
X22532577Y-14994223D01*
X22549053Y-15012401D01*
X22563668Y-15032107D01*
X22576280Y-15053150D01*
X22586770Y-15075329D01*
X22595035Y-15098428D01*
X22600996Y-15122227D01*
X22604596Y-15146495D01*
X22605800Y-15170999D01*
X22605800Y-16071001D01*
X22604596Y-16095505D01*
X22600996Y-16119773D01*
X22595035Y-16143572D01*
X22586770Y-16166671D01*
X22576280Y-16188850D01*
X22563668Y-16209893D01*
X22549053Y-16229599D01*
X22532577Y-16247777D01*
X22514399Y-16264253D01*
X22494693Y-16278868D01*
X22473650Y-16291480D01*
X22451471Y-16301970D01*
X22428372Y-16310235D01*
X22404573Y-16316196D01*
X22380305Y-16319796D01*
X22355801Y-16321000D01*
X21705799Y-16321000D01*
X21681295Y-16319796D01*
X21657027Y-16316196D01*
X21633228Y-16310235D01*
X21610129Y-16301970D01*
X21587950Y-16291480D01*
X21566907Y-16278868D01*
X21547201Y-16264253D01*
X21529023Y-16247777D01*
X21512547Y-16229599D01*
X21497932Y-16209893D01*
X21485320Y-16188850D01*
X21474830Y-16166671D01*
X21466565Y-16143572D01*
X21460604Y-16119773D01*
X21457004Y-16095505D01*
X21455800Y-16071001D01*
X21455800Y-15170999D01*
X21457004Y-15146495D01*
X21460604Y-15122227D01*
X21466565Y-15098428D01*
X21474830Y-15075329D01*
X21485320Y-15053150D01*
X21497932Y-15032107D01*
X21512547Y-15012401D01*
X21529023Y-14994223D01*
X21547201Y-14977747D01*
X21566907Y-14963132D01*
X21587950Y-14950520D01*
X21610129Y-14940030D01*
X21633228Y-14931765D01*
X21657027Y-14925804D01*
X21681295Y-14922204D01*
X21705799Y-14921000D01*
X22355801Y-14921000D01*
X22380305Y-14922204D01*
X22380305Y-14922204D01*
G37*
D11*
X22030800Y-15621000D03*
D10*
G36*
X20330305Y-14922204D02*
X20354573Y-14925804D01*
X20378372Y-14931765D01*
X20401471Y-14940030D01*
X20423650Y-14950520D01*
X20444693Y-14963132D01*
X20464399Y-14977747D01*
X20482577Y-14994223D01*
X20499053Y-15012401D01*
X20513668Y-15032107D01*
X20526280Y-15053150D01*
X20536770Y-15075329D01*
X20545035Y-15098428D01*
X20550996Y-15122227D01*
X20554596Y-15146495D01*
X20555800Y-15170999D01*
X20555800Y-16071001D01*
X20554596Y-16095505D01*
X20550996Y-16119773D01*
X20545035Y-16143572D01*
X20536770Y-16166671D01*
X20526280Y-16188850D01*
X20513668Y-16209893D01*
X20499053Y-16229599D01*
X20482577Y-16247777D01*
X20464399Y-16264253D01*
X20444693Y-16278868D01*
X20423650Y-16291480D01*
X20401471Y-16301970D01*
X20378372Y-16310235D01*
X20354573Y-16316196D01*
X20330305Y-16319796D01*
X20305801Y-16321000D01*
X19655799Y-16321000D01*
X19631295Y-16319796D01*
X19607027Y-16316196D01*
X19583228Y-16310235D01*
X19560129Y-16301970D01*
X19537950Y-16291480D01*
X19516907Y-16278868D01*
X19497201Y-16264253D01*
X19479023Y-16247777D01*
X19462547Y-16229599D01*
X19447932Y-16209893D01*
X19435320Y-16188850D01*
X19424830Y-16166671D01*
X19416565Y-16143572D01*
X19410604Y-16119773D01*
X19407004Y-16095505D01*
X19405800Y-16071001D01*
X19405800Y-15170999D01*
X19407004Y-15146495D01*
X19410604Y-15122227D01*
X19416565Y-15098428D01*
X19424830Y-15075329D01*
X19435320Y-15053150D01*
X19447932Y-15032107D01*
X19462547Y-15012401D01*
X19479023Y-14994223D01*
X19497201Y-14977747D01*
X19516907Y-14963132D01*
X19537950Y-14950520D01*
X19560129Y-14940030D01*
X19583228Y-14931765D01*
X19607027Y-14925804D01*
X19631295Y-14922204D01*
X19655799Y-14921000D01*
X20305801Y-14921000D01*
X20330305Y-14922204D01*
X20330305Y-14922204D01*
G37*
D11*
X19980800Y-15621000D03*
G04 #@! TD*
D10*
G04 #@! TO.C,C26*
G36*
X16520305Y-25336204D02*
X16544573Y-25339804D01*
X16568372Y-25345765D01*
X16591471Y-25354030D01*
X16613650Y-25364520D01*
X16634693Y-25377132D01*
X16654399Y-25391747D01*
X16672577Y-25408223D01*
X16689053Y-25426401D01*
X16703668Y-25446107D01*
X16716280Y-25467150D01*
X16726770Y-25489329D01*
X16735035Y-25512428D01*
X16740996Y-25536227D01*
X16744596Y-25560495D01*
X16745800Y-25584999D01*
X16745800Y-26485001D01*
X16744596Y-26509505D01*
X16740996Y-26533773D01*
X16735035Y-26557572D01*
X16726770Y-26580671D01*
X16716280Y-26602850D01*
X16703668Y-26623893D01*
X16689053Y-26643599D01*
X16672577Y-26661777D01*
X16654399Y-26678253D01*
X16634693Y-26692868D01*
X16613650Y-26705480D01*
X16591471Y-26715970D01*
X16568372Y-26724235D01*
X16544573Y-26730196D01*
X16520305Y-26733796D01*
X16495801Y-26735000D01*
X15845799Y-26735000D01*
X15821295Y-26733796D01*
X15797027Y-26730196D01*
X15773228Y-26724235D01*
X15750129Y-26715970D01*
X15727950Y-26705480D01*
X15706907Y-26692868D01*
X15687201Y-26678253D01*
X15669023Y-26661777D01*
X15652547Y-26643599D01*
X15637932Y-26623893D01*
X15625320Y-26602850D01*
X15614830Y-26580671D01*
X15606565Y-26557572D01*
X15600604Y-26533773D01*
X15597004Y-26509505D01*
X15595800Y-26485001D01*
X15595800Y-25584999D01*
X15597004Y-25560495D01*
X15600604Y-25536227D01*
X15606565Y-25512428D01*
X15614830Y-25489329D01*
X15625320Y-25467150D01*
X15637932Y-25446107D01*
X15652547Y-25426401D01*
X15669023Y-25408223D01*
X15687201Y-25391747D01*
X15706907Y-25377132D01*
X15727950Y-25364520D01*
X15750129Y-25354030D01*
X15773228Y-25345765D01*
X15797027Y-25339804D01*
X15821295Y-25336204D01*
X15845799Y-25335000D01*
X16495801Y-25335000D01*
X16520305Y-25336204D01*
X16520305Y-25336204D01*
G37*
D11*
X16170800Y-26035000D03*
D10*
G36*
X18570305Y-25336204D02*
X18594573Y-25339804D01*
X18618372Y-25345765D01*
X18641471Y-25354030D01*
X18663650Y-25364520D01*
X18684693Y-25377132D01*
X18704399Y-25391747D01*
X18722577Y-25408223D01*
X18739053Y-25426401D01*
X18753668Y-25446107D01*
X18766280Y-25467150D01*
X18776770Y-25489329D01*
X18785035Y-25512428D01*
X18790996Y-25536227D01*
X18794596Y-25560495D01*
X18795800Y-25584999D01*
X18795800Y-26485001D01*
X18794596Y-26509505D01*
X18790996Y-26533773D01*
X18785035Y-26557572D01*
X18776770Y-26580671D01*
X18766280Y-26602850D01*
X18753668Y-26623893D01*
X18739053Y-26643599D01*
X18722577Y-26661777D01*
X18704399Y-26678253D01*
X18684693Y-26692868D01*
X18663650Y-26705480D01*
X18641471Y-26715970D01*
X18618372Y-26724235D01*
X18594573Y-26730196D01*
X18570305Y-26733796D01*
X18545801Y-26735000D01*
X17895799Y-26735000D01*
X17871295Y-26733796D01*
X17847027Y-26730196D01*
X17823228Y-26724235D01*
X17800129Y-26715970D01*
X17777950Y-26705480D01*
X17756907Y-26692868D01*
X17737201Y-26678253D01*
X17719023Y-26661777D01*
X17702547Y-26643599D01*
X17687932Y-26623893D01*
X17675320Y-26602850D01*
X17664830Y-26580671D01*
X17656565Y-26557572D01*
X17650604Y-26533773D01*
X17647004Y-26509505D01*
X17645800Y-26485001D01*
X17645800Y-25584999D01*
X17647004Y-25560495D01*
X17650604Y-25536227D01*
X17656565Y-25512428D01*
X17664830Y-25489329D01*
X17675320Y-25467150D01*
X17687932Y-25446107D01*
X17702547Y-25426401D01*
X17719023Y-25408223D01*
X17737201Y-25391747D01*
X17756907Y-25377132D01*
X17777950Y-25364520D01*
X17800129Y-25354030D01*
X17823228Y-25345765D01*
X17847027Y-25339804D01*
X17871295Y-25336204D01*
X17895799Y-25335000D01*
X18545801Y-25335000D01*
X18570305Y-25336204D01*
X18570305Y-25336204D01*
G37*
D11*
X18220800Y-26035000D03*
G04 #@! TD*
D10*
G04 #@! TO.C,C27*
G36*
X18570305Y-23304204D02*
X18594573Y-23307804D01*
X18618372Y-23313765D01*
X18641471Y-23322030D01*
X18663650Y-23332520D01*
X18684693Y-23345132D01*
X18704399Y-23359747D01*
X18722577Y-23376223D01*
X18739053Y-23394401D01*
X18753668Y-23414107D01*
X18766280Y-23435150D01*
X18776770Y-23457329D01*
X18785035Y-23480428D01*
X18790996Y-23504227D01*
X18794596Y-23528495D01*
X18795800Y-23552999D01*
X18795800Y-24453001D01*
X18794596Y-24477505D01*
X18790996Y-24501773D01*
X18785035Y-24525572D01*
X18776770Y-24548671D01*
X18766280Y-24570850D01*
X18753668Y-24591893D01*
X18739053Y-24611599D01*
X18722577Y-24629777D01*
X18704399Y-24646253D01*
X18684693Y-24660868D01*
X18663650Y-24673480D01*
X18641471Y-24683970D01*
X18618372Y-24692235D01*
X18594573Y-24698196D01*
X18570305Y-24701796D01*
X18545801Y-24703000D01*
X17895799Y-24703000D01*
X17871295Y-24701796D01*
X17847027Y-24698196D01*
X17823228Y-24692235D01*
X17800129Y-24683970D01*
X17777950Y-24673480D01*
X17756907Y-24660868D01*
X17737201Y-24646253D01*
X17719023Y-24629777D01*
X17702547Y-24611599D01*
X17687932Y-24591893D01*
X17675320Y-24570850D01*
X17664830Y-24548671D01*
X17656565Y-24525572D01*
X17650604Y-24501773D01*
X17647004Y-24477505D01*
X17645800Y-24453001D01*
X17645800Y-23552999D01*
X17647004Y-23528495D01*
X17650604Y-23504227D01*
X17656565Y-23480428D01*
X17664830Y-23457329D01*
X17675320Y-23435150D01*
X17687932Y-23414107D01*
X17702547Y-23394401D01*
X17719023Y-23376223D01*
X17737201Y-23359747D01*
X17756907Y-23345132D01*
X17777950Y-23332520D01*
X17800129Y-23322030D01*
X17823228Y-23313765D01*
X17847027Y-23307804D01*
X17871295Y-23304204D01*
X17895799Y-23303000D01*
X18545801Y-23303000D01*
X18570305Y-23304204D01*
X18570305Y-23304204D01*
G37*
D11*
X18220800Y-24003000D03*
D10*
G36*
X16520305Y-23304204D02*
X16544573Y-23307804D01*
X16568372Y-23313765D01*
X16591471Y-23322030D01*
X16613650Y-23332520D01*
X16634693Y-23345132D01*
X16654399Y-23359747D01*
X16672577Y-23376223D01*
X16689053Y-23394401D01*
X16703668Y-23414107D01*
X16716280Y-23435150D01*
X16726770Y-23457329D01*
X16735035Y-23480428D01*
X16740996Y-23504227D01*
X16744596Y-23528495D01*
X16745800Y-23552999D01*
X16745800Y-24453001D01*
X16744596Y-24477505D01*
X16740996Y-24501773D01*
X16735035Y-24525572D01*
X16726770Y-24548671D01*
X16716280Y-24570850D01*
X16703668Y-24591893D01*
X16689053Y-24611599D01*
X16672577Y-24629777D01*
X16654399Y-24646253D01*
X16634693Y-24660868D01*
X16613650Y-24673480D01*
X16591471Y-24683970D01*
X16568372Y-24692235D01*
X16544573Y-24698196D01*
X16520305Y-24701796D01*
X16495801Y-24703000D01*
X15845799Y-24703000D01*
X15821295Y-24701796D01*
X15797027Y-24698196D01*
X15773228Y-24692235D01*
X15750129Y-24683970D01*
X15727950Y-24673480D01*
X15706907Y-24660868D01*
X15687201Y-24646253D01*
X15669023Y-24629777D01*
X15652547Y-24611599D01*
X15637932Y-24591893D01*
X15625320Y-24570850D01*
X15614830Y-24548671D01*
X15606565Y-24525572D01*
X15600604Y-24501773D01*
X15597004Y-24477505D01*
X15595800Y-24453001D01*
X15595800Y-23552999D01*
X15597004Y-23528495D01*
X15600604Y-23504227D01*
X15606565Y-23480428D01*
X15614830Y-23457329D01*
X15625320Y-23435150D01*
X15637932Y-23414107D01*
X15652547Y-23394401D01*
X15669023Y-23376223D01*
X15687201Y-23359747D01*
X15706907Y-23345132D01*
X15727950Y-23332520D01*
X15750129Y-23322030D01*
X15773228Y-23313765D01*
X15797027Y-23307804D01*
X15821295Y-23304204D01*
X15845799Y-23303000D01*
X16495801Y-23303000D01*
X16520305Y-23304204D01*
X16520305Y-23304204D01*
G37*
D11*
X16170800Y-24003000D03*
G04 #@! TD*
D10*
G04 #@! TO.C,R3*
G36*
X76349942Y-31820174D02*
X76373603Y-31823684D01*
X76396807Y-31829496D01*
X76419329Y-31837554D01*
X76440953Y-31847782D01*
X76461470Y-31860079D01*
X76480683Y-31874329D01*
X76498407Y-31890393D01*
X76514471Y-31908117D01*
X76528721Y-31927330D01*
X76541018Y-31947847D01*
X76551246Y-31969471D01*
X76559304Y-31991993D01*
X76565116Y-32015197D01*
X76568626Y-32038858D01*
X76569800Y-32062750D01*
X76569800Y-32550250D01*
X76568626Y-32574142D01*
X76565116Y-32597803D01*
X76559304Y-32621007D01*
X76551246Y-32643529D01*
X76541018Y-32665153D01*
X76528721Y-32685670D01*
X76514471Y-32704883D01*
X76498407Y-32722607D01*
X76480683Y-32738671D01*
X76461470Y-32752921D01*
X76440953Y-32765218D01*
X76419329Y-32775446D01*
X76396807Y-32783504D01*
X76373603Y-32789316D01*
X76349942Y-32792826D01*
X76326050Y-32794000D01*
X75413550Y-32794000D01*
X75389658Y-32792826D01*
X75365997Y-32789316D01*
X75342793Y-32783504D01*
X75320271Y-32775446D01*
X75298647Y-32765218D01*
X75278130Y-32752921D01*
X75258917Y-32738671D01*
X75241193Y-32722607D01*
X75225129Y-32704883D01*
X75210879Y-32685670D01*
X75198582Y-32665153D01*
X75188354Y-32643529D01*
X75180296Y-32621007D01*
X75174484Y-32597803D01*
X75170974Y-32574142D01*
X75169800Y-32550250D01*
X75169800Y-32062750D01*
X75170974Y-32038858D01*
X75174484Y-32015197D01*
X75180296Y-31991993D01*
X75188354Y-31969471D01*
X75198582Y-31947847D01*
X75210879Y-31927330D01*
X75225129Y-31908117D01*
X75241193Y-31890393D01*
X75258917Y-31874329D01*
X75278130Y-31860079D01*
X75298647Y-31847782D01*
X75320271Y-31837554D01*
X75342793Y-31829496D01*
X75365997Y-31823684D01*
X75389658Y-31820174D01*
X75413550Y-31819000D01*
X76326050Y-31819000D01*
X76349942Y-31820174D01*
X76349942Y-31820174D01*
G37*
D12*
X75869800Y-32306500D03*
D10*
G36*
X76349942Y-29945174D02*
X76373603Y-29948684D01*
X76396807Y-29954496D01*
X76419329Y-29962554D01*
X76440953Y-29972782D01*
X76461470Y-29985079D01*
X76480683Y-29999329D01*
X76498407Y-30015393D01*
X76514471Y-30033117D01*
X76528721Y-30052330D01*
X76541018Y-30072847D01*
X76551246Y-30094471D01*
X76559304Y-30116993D01*
X76565116Y-30140197D01*
X76568626Y-30163858D01*
X76569800Y-30187750D01*
X76569800Y-30675250D01*
X76568626Y-30699142D01*
X76565116Y-30722803D01*
X76559304Y-30746007D01*
X76551246Y-30768529D01*
X76541018Y-30790153D01*
X76528721Y-30810670D01*
X76514471Y-30829883D01*
X76498407Y-30847607D01*
X76480683Y-30863671D01*
X76461470Y-30877921D01*
X76440953Y-30890218D01*
X76419329Y-30900446D01*
X76396807Y-30908504D01*
X76373603Y-30914316D01*
X76349942Y-30917826D01*
X76326050Y-30919000D01*
X75413550Y-30919000D01*
X75389658Y-30917826D01*
X75365997Y-30914316D01*
X75342793Y-30908504D01*
X75320271Y-30900446D01*
X75298647Y-30890218D01*
X75278130Y-30877921D01*
X75258917Y-30863671D01*
X75241193Y-30847607D01*
X75225129Y-30829883D01*
X75210879Y-30810670D01*
X75198582Y-30790153D01*
X75188354Y-30768529D01*
X75180296Y-30746007D01*
X75174484Y-30722803D01*
X75170974Y-30699142D01*
X75169800Y-30675250D01*
X75169800Y-30187750D01*
X75170974Y-30163858D01*
X75174484Y-30140197D01*
X75180296Y-30116993D01*
X75188354Y-30094471D01*
X75198582Y-30072847D01*
X75210879Y-30052330D01*
X75225129Y-30033117D01*
X75241193Y-30015393D01*
X75258917Y-29999329D01*
X75278130Y-29985079D01*
X75298647Y-29972782D01*
X75320271Y-29962554D01*
X75342793Y-29954496D01*
X75365997Y-29948684D01*
X75389658Y-29945174D01*
X75413550Y-29944000D01*
X76326050Y-29944000D01*
X76349942Y-29945174D01*
X76349942Y-29945174D01*
G37*
D12*
X75869800Y-30431500D03*
G04 #@! TD*
D10*
G04 #@! TO.C,R5*
G36*
X20774742Y-9421974D02*
X20798403Y-9425484D01*
X20821607Y-9431296D01*
X20844129Y-9439354D01*
X20865753Y-9449582D01*
X20886270Y-9461879D01*
X20905483Y-9476129D01*
X20923207Y-9492193D01*
X20939271Y-9509917D01*
X20953521Y-9529130D01*
X20965818Y-9549647D01*
X20976046Y-9571271D01*
X20984104Y-9593793D01*
X20989916Y-9616997D01*
X20993426Y-9640658D01*
X20994600Y-9664550D01*
X20994600Y-10152050D01*
X20993426Y-10175942D01*
X20989916Y-10199603D01*
X20984104Y-10222807D01*
X20976046Y-10245329D01*
X20965818Y-10266953D01*
X20953521Y-10287470D01*
X20939271Y-10306683D01*
X20923207Y-10324407D01*
X20905483Y-10340471D01*
X20886270Y-10354721D01*
X20865753Y-10367018D01*
X20844129Y-10377246D01*
X20821607Y-10385304D01*
X20798403Y-10391116D01*
X20774742Y-10394626D01*
X20750850Y-10395800D01*
X19838350Y-10395800D01*
X19814458Y-10394626D01*
X19790797Y-10391116D01*
X19767593Y-10385304D01*
X19745071Y-10377246D01*
X19723447Y-10367018D01*
X19702930Y-10354721D01*
X19683717Y-10340471D01*
X19665993Y-10324407D01*
X19649929Y-10306683D01*
X19635679Y-10287470D01*
X19623382Y-10266953D01*
X19613154Y-10245329D01*
X19605096Y-10222807D01*
X19599284Y-10199603D01*
X19595774Y-10175942D01*
X19594600Y-10152050D01*
X19594600Y-9664550D01*
X19595774Y-9640658D01*
X19599284Y-9616997D01*
X19605096Y-9593793D01*
X19613154Y-9571271D01*
X19623382Y-9549647D01*
X19635679Y-9529130D01*
X19649929Y-9509917D01*
X19665993Y-9492193D01*
X19683717Y-9476129D01*
X19702930Y-9461879D01*
X19723447Y-9449582D01*
X19745071Y-9439354D01*
X19767593Y-9431296D01*
X19790797Y-9425484D01*
X19814458Y-9421974D01*
X19838350Y-9420800D01*
X20750850Y-9420800D01*
X20774742Y-9421974D01*
X20774742Y-9421974D01*
G37*
D12*
X20294600Y-9908300D03*
D10*
G36*
X20774742Y-11296974D02*
X20798403Y-11300484D01*
X20821607Y-11306296D01*
X20844129Y-11314354D01*
X20865753Y-11324582D01*
X20886270Y-11336879D01*
X20905483Y-11351129D01*
X20923207Y-11367193D01*
X20939271Y-11384917D01*
X20953521Y-11404130D01*
X20965818Y-11424647D01*
X20976046Y-11446271D01*
X20984104Y-11468793D01*
X20989916Y-11491997D01*
X20993426Y-11515658D01*
X20994600Y-11539550D01*
X20994600Y-12027050D01*
X20993426Y-12050942D01*
X20989916Y-12074603D01*
X20984104Y-12097807D01*
X20976046Y-12120329D01*
X20965818Y-12141953D01*
X20953521Y-12162470D01*
X20939271Y-12181683D01*
X20923207Y-12199407D01*
X20905483Y-12215471D01*
X20886270Y-12229721D01*
X20865753Y-12242018D01*
X20844129Y-12252246D01*
X20821607Y-12260304D01*
X20798403Y-12266116D01*
X20774742Y-12269626D01*
X20750850Y-12270800D01*
X19838350Y-12270800D01*
X19814458Y-12269626D01*
X19790797Y-12266116D01*
X19767593Y-12260304D01*
X19745071Y-12252246D01*
X19723447Y-12242018D01*
X19702930Y-12229721D01*
X19683717Y-12215471D01*
X19665993Y-12199407D01*
X19649929Y-12181683D01*
X19635679Y-12162470D01*
X19623382Y-12141953D01*
X19613154Y-12120329D01*
X19605096Y-12097807D01*
X19599284Y-12074603D01*
X19595774Y-12050942D01*
X19594600Y-12027050D01*
X19594600Y-11539550D01*
X19595774Y-11515658D01*
X19599284Y-11491997D01*
X19605096Y-11468793D01*
X19613154Y-11446271D01*
X19623382Y-11424647D01*
X19635679Y-11404130D01*
X19649929Y-11384917D01*
X19665993Y-11367193D01*
X19683717Y-11351129D01*
X19702930Y-11336879D01*
X19723447Y-11324582D01*
X19745071Y-11314354D01*
X19767593Y-11306296D01*
X19790797Y-11300484D01*
X19814458Y-11296974D01*
X19838350Y-11295800D01*
X20750850Y-11295800D01*
X20774742Y-11296974D01*
X20774742Y-11296974D01*
G37*
D12*
X20294600Y-11783300D03*
G04 #@! TD*
D10*
G04 #@! TO.C,R6*
G36*
X48322142Y-9994574D02*
X48345803Y-9998084D01*
X48369007Y-10003896D01*
X48391529Y-10011954D01*
X48413153Y-10022182D01*
X48433670Y-10034479D01*
X48452883Y-10048729D01*
X48470607Y-10064793D01*
X48486671Y-10082517D01*
X48500921Y-10101730D01*
X48513218Y-10122247D01*
X48523446Y-10143871D01*
X48531504Y-10166393D01*
X48537316Y-10189597D01*
X48540826Y-10213258D01*
X48542000Y-10237150D01*
X48542000Y-11149650D01*
X48540826Y-11173542D01*
X48537316Y-11197203D01*
X48531504Y-11220407D01*
X48523446Y-11242929D01*
X48513218Y-11264553D01*
X48500921Y-11285070D01*
X48486671Y-11304283D01*
X48470607Y-11322007D01*
X48452883Y-11338071D01*
X48433670Y-11352321D01*
X48413153Y-11364618D01*
X48391529Y-11374846D01*
X48369007Y-11382904D01*
X48345803Y-11388716D01*
X48322142Y-11392226D01*
X48298250Y-11393400D01*
X47810750Y-11393400D01*
X47786858Y-11392226D01*
X47763197Y-11388716D01*
X47739993Y-11382904D01*
X47717471Y-11374846D01*
X47695847Y-11364618D01*
X47675330Y-11352321D01*
X47656117Y-11338071D01*
X47638393Y-11322007D01*
X47622329Y-11304283D01*
X47608079Y-11285070D01*
X47595782Y-11264553D01*
X47585554Y-11242929D01*
X47577496Y-11220407D01*
X47571684Y-11197203D01*
X47568174Y-11173542D01*
X47567000Y-11149650D01*
X47567000Y-10237150D01*
X47568174Y-10213258D01*
X47571684Y-10189597D01*
X47577496Y-10166393D01*
X47585554Y-10143871D01*
X47595782Y-10122247D01*
X47608079Y-10101730D01*
X47622329Y-10082517D01*
X47638393Y-10064793D01*
X47656117Y-10048729D01*
X47675330Y-10034479D01*
X47695847Y-10022182D01*
X47717471Y-10011954D01*
X47739993Y-10003896D01*
X47763197Y-9998084D01*
X47786858Y-9994574D01*
X47810750Y-9993400D01*
X48298250Y-9993400D01*
X48322142Y-9994574D01*
X48322142Y-9994574D01*
G37*
D12*
X48054500Y-10693400D03*
D10*
G36*
X46447142Y-9994574D02*
X46470803Y-9998084D01*
X46494007Y-10003896D01*
X46516529Y-10011954D01*
X46538153Y-10022182D01*
X46558670Y-10034479D01*
X46577883Y-10048729D01*
X46595607Y-10064793D01*
X46611671Y-10082517D01*
X46625921Y-10101730D01*
X46638218Y-10122247D01*
X46648446Y-10143871D01*
X46656504Y-10166393D01*
X46662316Y-10189597D01*
X46665826Y-10213258D01*
X46667000Y-10237150D01*
X46667000Y-11149650D01*
X46665826Y-11173542D01*
X46662316Y-11197203D01*
X46656504Y-11220407D01*
X46648446Y-11242929D01*
X46638218Y-11264553D01*
X46625921Y-11285070D01*
X46611671Y-11304283D01*
X46595607Y-11322007D01*
X46577883Y-11338071D01*
X46558670Y-11352321D01*
X46538153Y-11364618D01*
X46516529Y-11374846D01*
X46494007Y-11382904D01*
X46470803Y-11388716D01*
X46447142Y-11392226D01*
X46423250Y-11393400D01*
X45935750Y-11393400D01*
X45911858Y-11392226D01*
X45888197Y-11388716D01*
X45864993Y-11382904D01*
X45842471Y-11374846D01*
X45820847Y-11364618D01*
X45800330Y-11352321D01*
X45781117Y-11338071D01*
X45763393Y-11322007D01*
X45747329Y-11304283D01*
X45733079Y-11285070D01*
X45720782Y-11264553D01*
X45710554Y-11242929D01*
X45702496Y-11220407D01*
X45696684Y-11197203D01*
X45693174Y-11173542D01*
X45692000Y-11149650D01*
X45692000Y-10237150D01*
X45693174Y-10213258D01*
X45696684Y-10189597D01*
X45702496Y-10166393D01*
X45710554Y-10143871D01*
X45720782Y-10122247D01*
X45733079Y-10101730D01*
X45747329Y-10082517D01*
X45763393Y-10064793D01*
X45781117Y-10048729D01*
X45800330Y-10034479D01*
X45820847Y-10022182D01*
X45842471Y-10011954D01*
X45864993Y-10003896D01*
X45888197Y-9998084D01*
X45911858Y-9994574D01*
X45935750Y-9993400D01*
X46423250Y-9993400D01*
X46447142Y-9994574D01*
X46447142Y-9994574D01*
G37*
D12*
X46179500Y-10693400D03*
G04 #@! TD*
D10*
G04 #@! TO.C,R7*
G36*
X56741142Y-7389974D02*
X56764803Y-7393484D01*
X56788007Y-7399296D01*
X56810529Y-7407354D01*
X56832153Y-7417582D01*
X56852670Y-7429879D01*
X56871883Y-7444129D01*
X56889607Y-7460193D01*
X56905671Y-7477917D01*
X56919921Y-7497130D01*
X56932218Y-7517647D01*
X56942446Y-7539271D01*
X56950504Y-7561793D01*
X56956316Y-7584997D01*
X56959826Y-7608658D01*
X56961000Y-7632550D01*
X56961000Y-8120050D01*
X56959826Y-8143942D01*
X56956316Y-8167603D01*
X56950504Y-8190807D01*
X56942446Y-8213329D01*
X56932218Y-8234953D01*
X56919921Y-8255470D01*
X56905671Y-8274683D01*
X56889607Y-8292407D01*
X56871883Y-8308471D01*
X56852670Y-8322721D01*
X56832153Y-8335018D01*
X56810529Y-8345246D01*
X56788007Y-8353304D01*
X56764803Y-8359116D01*
X56741142Y-8362626D01*
X56717250Y-8363800D01*
X55804750Y-8363800D01*
X55780858Y-8362626D01*
X55757197Y-8359116D01*
X55733993Y-8353304D01*
X55711471Y-8345246D01*
X55689847Y-8335018D01*
X55669330Y-8322721D01*
X55650117Y-8308471D01*
X55632393Y-8292407D01*
X55616329Y-8274683D01*
X55602079Y-8255470D01*
X55589782Y-8234953D01*
X55579554Y-8213329D01*
X55571496Y-8190807D01*
X55565684Y-8167603D01*
X55562174Y-8143942D01*
X55561000Y-8120050D01*
X55561000Y-7632550D01*
X55562174Y-7608658D01*
X55565684Y-7584997D01*
X55571496Y-7561793D01*
X55579554Y-7539271D01*
X55589782Y-7517647D01*
X55602079Y-7497130D01*
X55616329Y-7477917D01*
X55632393Y-7460193D01*
X55650117Y-7444129D01*
X55669330Y-7429879D01*
X55689847Y-7417582D01*
X55711471Y-7407354D01*
X55733993Y-7399296D01*
X55757197Y-7393484D01*
X55780858Y-7389974D01*
X55804750Y-7388800D01*
X56717250Y-7388800D01*
X56741142Y-7389974D01*
X56741142Y-7389974D01*
G37*
D12*
X56261000Y-7876300D03*
D10*
G36*
X56741142Y-9264974D02*
X56764803Y-9268484D01*
X56788007Y-9274296D01*
X56810529Y-9282354D01*
X56832153Y-9292582D01*
X56852670Y-9304879D01*
X56871883Y-9319129D01*
X56889607Y-9335193D01*
X56905671Y-9352917D01*
X56919921Y-9372130D01*
X56932218Y-9392647D01*
X56942446Y-9414271D01*
X56950504Y-9436793D01*
X56956316Y-9459997D01*
X56959826Y-9483658D01*
X56961000Y-9507550D01*
X56961000Y-9995050D01*
X56959826Y-10018942D01*
X56956316Y-10042603D01*
X56950504Y-10065807D01*
X56942446Y-10088329D01*
X56932218Y-10109953D01*
X56919921Y-10130470D01*
X56905671Y-10149683D01*
X56889607Y-10167407D01*
X56871883Y-10183471D01*
X56852670Y-10197721D01*
X56832153Y-10210018D01*
X56810529Y-10220246D01*
X56788007Y-10228304D01*
X56764803Y-10234116D01*
X56741142Y-10237626D01*
X56717250Y-10238800D01*
X55804750Y-10238800D01*
X55780858Y-10237626D01*
X55757197Y-10234116D01*
X55733993Y-10228304D01*
X55711471Y-10220246D01*
X55689847Y-10210018D01*
X55669330Y-10197721D01*
X55650117Y-10183471D01*
X55632393Y-10167407D01*
X55616329Y-10149683D01*
X55602079Y-10130470D01*
X55589782Y-10109953D01*
X55579554Y-10088329D01*
X55571496Y-10065807D01*
X55565684Y-10042603D01*
X55562174Y-10018942D01*
X55561000Y-9995050D01*
X55561000Y-9507550D01*
X55562174Y-9483658D01*
X55565684Y-9459997D01*
X55571496Y-9436793D01*
X55579554Y-9414271D01*
X55589782Y-9392647D01*
X55602079Y-9372130D01*
X55616329Y-9352917D01*
X55632393Y-9335193D01*
X55650117Y-9319129D01*
X55669330Y-9304879D01*
X55689847Y-9292582D01*
X55711471Y-9282354D01*
X55733993Y-9274296D01*
X55757197Y-9268484D01*
X55780858Y-9264974D01*
X55804750Y-9263800D01*
X56717250Y-9263800D01*
X56741142Y-9264974D01*
X56741142Y-9264974D01*
G37*
D12*
X56261000Y-9751300D03*
G04 #@! TD*
D10*
G04 #@! TO.C,R8*
G36*
X48409942Y-33598174D02*
X48433603Y-33601684D01*
X48456807Y-33607496D01*
X48479329Y-33615554D01*
X48500953Y-33625782D01*
X48521470Y-33638079D01*
X48540683Y-33652329D01*
X48558407Y-33668393D01*
X48574471Y-33686117D01*
X48588721Y-33705330D01*
X48601018Y-33725847D01*
X48611246Y-33747471D01*
X48619304Y-33769993D01*
X48625116Y-33793197D01*
X48628626Y-33816858D01*
X48629800Y-33840750D01*
X48629800Y-34328250D01*
X48628626Y-34352142D01*
X48625116Y-34375803D01*
X48619304Y-34399007D01*
X48611246Y-34421529D01*
X48601018Y-34443153D01*
X48588721Y-34463670D01*
X48574471Y-34482883D01*
X48558407Y-34500607D01*
X48540683Y-34516671D01*
X48521470Y-34530921D01*
X48500953Y-34543218D01*
X48479329Y-34553446D01*
X48456807Y-34561504D01*
X48433603Y-34567316D01*
X48409942Y-34570826D01*
X48386050Y-34572000D01*
X47473550Y-34572000D01*
X47449658Y-34570826D01*
X47425997Y-34567316D01*
X47402793Y-34561504D01*
X47380271Y-34553446D01*
X47358647Y-34543218D01*
X47338130Y-34530921D01*
X47318917Y-34516671D01*
X47301193Y-34500607D01*
X47285129Y-34482883D01*
X47270879Y-34463670D01*
X47258582Y-34443153D01*
X47248354Y-34421529D01*
X47240296Y-34399007D01*
X47234484Y-34375803D01*
X47230974Y-34352142D01*
X47229800Y-34328250D01*
X47229800Y-33840750D01*
X47230974Y-33816858D01*
X47234484Y-33793197D01*
X47240296Y-33769993D01*
X47248354Y-33747471D01*
X47258582Y-33725847D01*
X47270879Y-33705330D01*
X47285129Y-33686117D01*
X47301193Y-33668393D01*
X47318917Y-33652329D01*
X47338130Y-33638079D01*
X47358647Y-33625782D01*
X47380271Y-33615554D01*
X47402793Y-33607496D01*
X47425997Y-33601684D01*
X47449658Y-33598174D01*
X47473550Y-33597000D01*
X48386050Y-33597000D01*
X48409942Y-33598174D01*
X48409942Y-33598174D01*
G37*
D12*
X47929800Y-34084500D03*
D10*
G36*
X48409942Y-31723174D02*
X48433603Y-31726684D01*
X48456807Y-31732496D01*
X48479329Y-31740554D01*
X48500953Y-31750782D01*
X48521470Y-31763079D01*
X48540683Y-31777329D01*
X48558407Y-31793393D01*
X48574471Y-31811117D01*
X48588721Y-31830330D01*
X48601018Y-31850847D01*
X48611246Y-31872471D01*
X48619304Y-31894993D01*
X48625116Y-31918197D01*
X48628626Y-31941858D01*
X48629800Y-31965750D01*
X48629800Y-32453250D01*
X48628626Y-32477142D01*
X48625116Y-32500803D01*
X48619304Y-32524007D01*
X48611246Y-32546529D01*
X48601018Y-32568153D01*
X48588721Y-32588670D01*
X48574471Y-32607883D01*
X48558407Y-32625607D01*
X48540683Y-32641671D01*
X48521470Y-32655921D01*
X48500953Y-32668218D01*
X48479329Y-32678446D01*
X48456807Y-32686504D01*
X48433603Y-32692316D01*
X48409942Y-32695826D01*
X48386050Y-32697000D01*
X47473550Y-32697000D01*
X47449658Y-32695826D01*
X47425997Y-32692316D01*
X47402793Y-32686504D01*
X47380271Y-32678446D01*
X47358647Y-32668218D01*
X47338130Y-32655921D01*
X47318917Y-32641671D01*
X47301193Y-32625607D01*
X47285129Y-32607883D01*
X47270879Y-32588670D01*
X47258582Y-32568153D01*
X47248354Y-32546529D01*
X47240296Y-32524007D01*
X47234484Y-32500803D01*
X47230974Y-32477142D01*
X47229800Y-32453250D01*
X47229800Y-31965750D01*
X47230974Y-31941858D01*
X47234484Y-31918197D01*
X47240296Y-31894993D01*
X47248354Y-31872471D01*
X47258582Y-31850847D01*
X47270879Y-31830330D01*
X47285129Y-31811117D01*
X47301193Y-31793393D01*
X47318917Y-31777329D01*
X47338130Y-31763079D01*
X47358647Y-31750782D01*
X47380271Y-31740554D01*
X47402793Y-31732496D01*
X47425997Y-31726684D01*
X47449658Y-31723174D01*
X47473550Y-31722000D01*
X48386050Y-31722000D01*
X48409942Y-31723174D01*
X48409942Y-31723174D01*
G37*
D12*
X47929800Y-32209500D03*
G04 #@! TD*
D10*
G04 #@! TO.C,R10*
G36*
X44726942Y-18286574D02*
X44750603Y-18290084D01*
X44773807Y-18295896D01*
X44796329Y-18303954D01*
X44817953Y-18314182D01*
X44838470Y-18326479D01*
X44857683Y-18340729D01*
X44875407Y-18356793D01*
X44891471Y-18374517D01*
X44905721Y-18393730D01*
X44918018Y-18414247D01*
X44928246Y-18435871D01*
X44936304Y-18458393D01*
X44942116Y-18481597D01*
X44945626Y-18505258D01*
X44946800Y-18529150D01*
X44946800Y-19016650D01*
X44945626Y-19040542D01*
X44942116Y-19064203D01*
X44936304Y-19087407D01*
X44928246Y-19109929D01*
X44918018Y-19131553D01*
X44905721Y-19152070D01*
X44891471Y-19171283D01*
X44875407Y-19189007D01*
X44857683Y-19205071D01*
X44838470Y-19219321D01*
X44817953Y-19231618D01*
X44796329Y-19241846D01*
X44773807Y-19249904D01*
X44750603Y-19255716D01*
X44726942Y-19259226D01*
X44703050Y-19260400D01*
X43790550Y-19260400D01*
X43766658Y-19259226D01*
X43742997Y-19255716D01*
X43719793Y-19249904D01*
X43697271Y-19241846D01*
X43675647Y-19231618D01*
X43655130Y-19219321D01*
X43635917Y-19205071D01*
X43618193Y-19189007D01*
X43602129Y-19171283D01*
X43587879Y-19152070D01*
X43575582Y-19131553D01*
X43565354Y-19109929D01*
X43557296Y-19087407D01*
X43551484Y-19064203D01*
X43547974Y-19040542D01*
X43546800Y-19016650D01*
X43546800Y-18529150D01*
X43547974Y-18505258D01*
X43551484Y-18481597D01*
X43557296Y-18458393D01*
X43565354Y-18435871D01*
X43575582Y-18414247D01*
X43587879Y-18393730D01*
X43602129Y-18374517D01*
X43618193Y-18356793D01*
X43635917Y-18340729D01*
X43655130Y-18326479D01*
X43675647Y-18314182D01*
X43697271Y-18303954D01*
X43719793Y-18295896D01*
X43742997Y-18290084D01*
X43766658Y-18286574D01*
X43790550Y-18285400D01*
X44703050Y-18285400D01*
X44726942Y-18286574D01*
X44726942Y-18286574D01*
G37*
D12*
X44246800Y-18772900D03*
D10*
G36*
X44726942Y-20161574D02*
X44750603Y-20165084D01*
X44773807Y-20170896D01*
X44796329Y-20178954D01*
X44817953Y-20189182D01*
X44838470Y-20201479D01*
X44857683Y-20215729D01*
X44875407Y-20231793D01*
X44891471Y-20249517D01*
X44905721Y-20268730D01*
X44918018Y-20289247D01*
X44928246Y-20310871D01*
X44936304Y-20333393D01*
X44942116Y-20356597D01*
X44945626Y-20380258D01*
X44946800Y-20404150D01*
X44946800Y-20891650D01*
X44945626Y-20915542D01*
X44942116Y-20939203D01*
X44936304Y-20962407D01*
X44928246Y-20984929D01*
X44918018Y-21006553D01*
X44905721Y-21027070D01*
X44891471Y-21046283D01*
X44875407Y-21064007D01*
X44857683Y-21080071D01*
X44838470Y-21094321D01*
X44817953Y-21106618D01*
X44796329Y-21116846D01*
X44773807Y-21124904D01*
X44750603Y-21130716D01*
X44726942Y-21134226D01*
X44703050Y-21135400D01*
X43790550Y-21135400D01*
X43766658Y-21134226D01*
X43742997Y-21130716D01*
X43719793Y-21124904D01*
X43697271Y-21116846D01*
X43675647Y-21106618D01*
X43655130Y-21094321D01*
X43635917Y-21080071D01*
X43618193Y-21064007D01*
X43602129Y-21046283D01*
X43587879Y-21027070D01*
X43575582Y-21006553D01*
X43565354Y-20984929D01*
X43557296Y-20962407D01*
X43551484Y-20939203D01*
X43547974Y-20915542D01*
X43546800Y-20891650D01*
X43546800Y-20404150D01*
X43547974Y-20380258D01*
X43551484Y-20356597D01*
X43557296Y-20333393D01*
X43565354Y-20310871D01*
X43575582Y-20289247D01*
X43587879Y-20268730D01*
X43602129Y-20249517D01*
X43618193Y-20231793D01*
X43635917Y-20215729D01*
X43655130Y-20201479D01*
X43675647Y-20189182D01*
X43697271Y-20178954D01*
X43719793Y-20170896D01*
X43742997Y-20165084D01*
X43766658Y-20161574D01*
X43790550Y-20160400D01*
X44703050Y-20160400D01*
X44726942Y-20161574D01*
X44726942Y-20161574D01*
G37*
D12*
X44246800Y-20647900D03*
G04 #@! TD*
D10*
G04 #@! TO.C,R11*
G36*
X46962142Y-19094774D02*
X46985803Y-19098284D01*
X47009007Y-19104096D01*
X47031529Y-19112154D01*
X47053153Y-19122382D01*
X47073670Y-19134679D01*
X47092883Y-19148929D01*
X47110607Y-19164993D01*
X47126671Y-19182717D01*
X47140921Y-19201930D01*
X47153218Y-19222447D01*
X47163446Y-19244071D01*
X47171504Y-19266593D01*
X47177316Y-19289797D01*
X47180826Y-19313458D01*
X47182000Y-19337350D01*
X47182000Y-19824850D01*
X47180826Y-19848742D01*
X47177316Y-19872403D01*
X47171504Y-19895607D01*
X47163446Y-19918129D01*
X47153218Y-19939753D01*
X47140921Y-19960270D01*
X47126671Y-19979483D01*
X47110607Y-19997207D01*
X47092883Y-20013271D01*
X47073670Y-20027521D01*
X47053153Y-20039818D01*
X47031529Y-20050046D01*
X47009007Y-20058104D01*
X46985803Y-20063916D01*
X46962142Y-20067426D01*
X46938250Y-20068600D01*
X46025750Y-20068600D01*
X46001858Y-20067426D01*
X45978197Y-20063916D01*
X45954993Y-20058104D01*
X45932471Y-20050046D01*
X45910847Y-20039818D01*
X45890330Y-20027521D01*
X45871117Y-20013271D01*
X45853393Y-19997207D01*
X45837329Y-19979483D01*
X45823079Y-19960270D01*
X45810782Y-19939753D01*
X45800554Y-19918129D01*
X45792496Y-19895607D01*
X45786684Y-19872403D01*
X45783174Y-19848742D01*
X45782000Y-19824850D01*
X45782000Y-19337350D01*
X45783174Y-19313458D01*
X45786684Y-19289797D01*
X45792496Y-19266593D01*
X45800554Y-19244071D01*
X45810782Y-19222447D01*
X45823079Y-19201930D01*
X45837329Y-19182717D01*
X45853393Y-19164993D01*
X45871117Y-19148929D01*
X45890330Y-19134679D01*
X45910847Y-19122382D01*
X45932471Y-19112154D01*
X45954993Y-19104096D01*
X45978197Y-19098284D01*
X46001858Y-19094774D01*
X46025750Y-19093600D01*
X46938250Y-19093600D01*
X46962142Y-19094774D01*
X46962142Y-19094774D01*
G37*
D12*
X46482000Y-19581100D03*
D10*
G36*
X46962142Y-17219774D02*
X46985803Y-17223284D01*
X47009007Y-17229096D01*
X47031529Y-17237154D01*
X47053153Y-17247382D01*
X47073670Y-17259679D01*
X47092883Y-17273929D01*
X47110607Y-17289993D01*
X47126671Y-17307717D01*
X47140921Y-17326930D01*
X47153218Y-17347447D01*
X47163446Y-17369071D01*
X47171504Y-17391593D01*
X47177316Y-17414797D01*
X47180826Y-17438458D01*
X47182000Y-17462350D01*
X47182000Y-17949850D01*
X47180826Y-17973742D01*
X47177316Y-17997403D01*
X47171504Y-18020607D01*
X47163446Y-18043129D01*
X47153218Y-18064753D01*
X47140921Y-18085270D01*
X47126671Y-18104483D01*
X47110607Y-18122207D01*
X47092883Y-18138271D01*
X47073670Y-18152521D01*
X47053153Y-18164818D01*
X47031529Y-18175046D01*
X47009007Y-18183104D01*
X46985803Y-18188916D01*
X46962142Y-18192426D01*
X46938250Y-18193600D01*
X46025750Y-18193600D01*
X46001858Y-18192426D01*
X45978197Y-18188916D01*
X45954993Y-18183104D01*
X45932471Y-18175046D01*
X45910847Y-18164818D01*
X45890330Y-18152521D01*
X45871117Y-18138271D01*
X45853393Y-18122207D01*
X45837329Y-18104483D01*
X45823079Y-18085270D01*
X45810782Y-18064753D01*
X45800554Y-18043129D01*
X45792496Y-18020607D01*
X45786684Y-17997403D01*
X45783174Y-17973742D01*
X45782000Y-17949850D01*
X45782000Y-17462350D01*
X45783174Y-17438458D01*
X45786684Y-17414797D01*
X45792496Y-17391593D01*
X45800554Y-17369071D01*
X45810782Y-17347447D01*
X45823079Y-17326930D01*
X45837329Y-17307717D01*
X45853393Y-17289993D01*
X45871117Y-17273929D01*
X45890330Y-17259679D01*
X45910847Y-17247382D01*
X45932471Y-17237154D01*
X45954993Y-17229096D01*
X45978197Y-17223284D01*
X46001858Y-17219774D01*
X46025750Y-17218600D01*
X46938250Y-17218600D01*
X46962142Y-17219774D01*
X46962142Y-17219774D01*
G37*
D12*
X46482000Y-17706100D03*
G04 #@! TD*
D10*
G04 #@! TO.C,R12*
G36*
X18604142Y-10604174D02*
X18627803Y-10607684D01*
X18651007Y-10613496D01*
X18673529Y-10621554D01*
X18695153Y-10631782D01*
X18715670Y-10644079D01*
X18734883Y-10658329D01*
X18752607Y-10674393D01*
X18768671Y-10692117D01*
X18782921Y-10711330D01*
X18795218Y-10731847D01*
X18805446Y-10753471D01*
X18813504Y-10775993D01*
X18819316Y-10799197D01*
X18822826Y-10822858D01*
X18824000Y-10846750D01*
X18824000Y-11759250D01*
X18822826Y-11783142D01*
X18819316Y-11806803D01*
X18813504Y-11830007D01*
X18805446Y-11852529D01*
X18795218Y-11874153D01*
X18782921Y-11894670D01*
X18768671Y-11913883D01*
X18752607Y-11931607D01*
X18734883Y-11947671D01*
X18715670Y-11961921D01*
X18695153Y-11974218D01*
X18673529Y-11984446D01*
X18651007Y-11992504D01*
X18627803Y-11998316D01*
X18604142Y-12001826D01*
X18580250Y-12003000D01*
X18092750Y-12003000D01*
X18068858Y-12001826D01*
X18045197Y-11998316D01*
X18021993Y-11992504D01*
X17999471Y-11984446D01*
X17977847Y-11974218D01*
X17957330Y-11961921D01*
X17938117Y-11947671D01*
X17920393Y-11931607D01*
X17904329Y-11913883D01*
X17890079Y-11894670D01*
X17877782Y-11874153D01*
X17867554Y-11852529D01*
X17859496Y-11830007D01*
X17853684Y-11806803D01*
X17850174Y-11783142D01*
X17849000Y-11759250D01*
X17849000Y-10846750D01*
X17850174Y-10822858D01*
X17853684Y-10799197D01*
X17859496Y-10775993D01*
X17867554Y-10753471D01*
X17877782Y-10731847D01*
X17890079Y-10711330D01*
X17904329Y-10692117D01*
X17920393Y-10674393D01*
X17938117Y-10658329D01*
X17957330Y-10644079D01*
X17977847Y-10631782D01*
X17999471Y-10621554D01*
X18021993Y-10613496D01*
X18045197Y-10607684D01*
X18068858Y-10604174D01*
X18092750Y-10603000D01*
X18580250Y-10603000D01*
X18604142Y-10604174D01*
X18604142Y-10604174D01*
G37*
D12*
X18336500Y-11303000D03*
D10*
G36*
X16729142Y-10604174D02*
X16752803Y-10607684D01*
X16776007Y-10613496D01*
X16798529Y-10621554D01*
X16820153Y-10631782D01*
X16840670Y-10644079D01*
X16859883Y-10658329D01*
X16877607Y-10674393D01*
X16893671Y-10692117D01*
X16907921Y-10711330D01*
X16920218Y-10731847D01*
X16930446Y-10753471D01*
X16938504Y-10775993D01*
X16944316Y-10799197D01*
X16947826Y-10822858D01*
X16949000Y-10846750D01*
X16949000Y-11759250D01*
X16947826Y-11783142D01*
X16944316Y-11806803D01*
X16938504Y-11830007D01*
X16930446Y-11852529D01*
X16920218Y-11874153D01*
X16907921Y-11894670D01*
X16893671Y-11913883D01*
X16877607Y-11931607D01*
X16859883Y-11947671D01*
X16840670Y-11961921D01*
X16820153Y-11974218D01*
X16798529Y-11984446D01*
X16776007Y-11992504D01*
X16752803Y-11998316D01*
X16729142Y-12001826D01*
X16705250Y-12003000D01*
X16217750Y-12003000D01*
X16193858Y-12001826D01*
X16170197Y-11998316D01*
X16146993Y-11992504D01*
X16124471Y-11984446D01*
X16102847Y-11974218D01*
X16082330Y-11961921D01*
X16063117Y-11947671D01*
X16045393Y-11931607D01*
X16029329Y-11913883D01*
X16015079Y-11894670D01*
X16002782Y-11874153D01*
X15992554Y-11852529D01*
X15984496Y-11830007D01*
X15978684Y-11806803D01*
X15975174Y-11783142D01*
X15974000Y-11759250D01*
X15974000Y-10846750D01*
X15975174Y-10822858D01*
X15978684Y-10799197D01*
X15984496Y-10775993D01*
X15992554Y-10753471D01*
X16002782Y-10731847D01*
X16015079Y-10711330D01*
X16029329Y-10692117D01*
X16045393Y-10674393D01*
X16063117Y-10658329D01*
X16082330Y-10644079D01*
X16102847Y-10631782D01*
X16124471Y-10621554D01*
X16146993Y-10613496D01*
X16170197Y-10607684D01*
X16193858Y-10604174D01*
X16217750Y-10603000D01*
X16705250Y-10603000D01*
X16729142Y-10604174D01*
X16729142Y-10604174D01*
G37*
D12*
X16461500Y-11303000D03*
G04 #@! TD*
D10*
G04 #@! TO.C,R17*
G36*
X18400942Y-21018174D02*
X18424603Y-21021684D01*
X18447807Y-21027496D01*
X18470329Y-21035554D01*
X18491953Y-21045782D01*
X18512470Y-21058079D01*
X18531683Y-21072329D01*
X18549407Y-21088393D01*
X18565471Y-21106117D01*
X18579721Y-21125330D01*
X18592018Y-21145847D01*
X18602246Y-21167471D01*
X18610304Y-21189993D01*
X18616116Y-21213197D01*
X18619626Y-21236858D01*
X18620800Y-21260750D01*
X18620800Y-22173250D01*
X18619626Y-22197142D01*
X18616116Y-22220803D01*
X18610304Y-22244007D01*
X18602246Y-22266529D01*
X18592018Y-22288153D01*
X18579721Y-22308670D01*
X18565471Y-22327883D01*
X18549407Y-22345607D01*
X18531683Y-22361671D01*
X18512470Y-22375921D01*
X18491953Y-22388218D01*
X18470329Y-22398446D01*
X18447807Y-22406504D01*
X18424603Y-22412316D01*
X18400942Y-22415826D01*
X18377050Y-22417000D01*
X17889550Y-22417000D01*
X17865658Y-22415826D01*
X17841997Y-22412316D01*
X17818793Y-22406504D01*
X17796271Y-22398446D01*
X17774647Y-22388218D01*
X17754130Y-22375921D01*
X17734917Y-22361671D01*
X17717193Y-22345607D01*
X17701129Y-22327883D01*
X17686879Y-22308670D01*
X17674582Y-22288153D01*
X17664354Y-22266529D01*
X17656296Y-22244007D01*
X17650484Y-22220803D01*
X17646974Y-22197142D01*
X17645800Y-22173250D01*
X17645800Y-21260750D01*
X17646974Y-21236858D01*
X17650484Y-21213197D01*
X17656296Y-21189993D01*
X17664354Y-21167471D01*
X17674582Y-21145847D01*
X17686879Y-21125330D01*
X17701129Y-21106117D01*
X17717193Y-21088393D01*
X17734917Y-21072329D01*
X17754130Y-21058079D01*
X17774647Y-21045782D01*
X17796271Y-21035554D01*
X17818793Y-21027496D01*
X17841997Y-21021684D01*
X17865658Y-21018174D01*
X17889550Y-21017000D01*
X18377050Y-21017000D01*
X18400942Y-21018174D01*
X18400942Y-21018174D01*
G37*
D12*
X18133300Y-21717000D03*
D10*
G36*
X16525942Y-21018174D02*
X16549603Y-21021684D01*
X16572807Y-21027496D01*
X16595329Y-21035554D01*
X16616953Y-21045782D01*
X16637470Y-21058079D01*
X16656683Y-21072329D01*
X16674407Y-21088393D01*
X16690471Y-21106117D01*
X16704721Y-21125330D01*
X16717018Y-21145847D01*
X16727246Y-21167471D01*
X16735304Y-21189993D01*
X16741116Y-21213197D01*
X16744626Y-21236858D01*
X16745800Y-21260750D01*
X16745800Y-22173250D01*
X16744626Y-22197142D01*
X16741116Y-22220803D01*
X16735304Y-22244007D01*
X16727246Y-22266529D01*
X16717018Y-22288153D01*
X16704721Y-22308670D01*
X16690471Y-22327883D01*
X16674407Y-22345607D01*
X16656683Y-22361671D01*
X16637470Y-22375921D01*
X16616953Y-22388218D01*
X16595329Y-22398446D01*
X16572807Y-22406504D01*
X16549603Y-22412316D01*
X16525942Y-22415826D01*
X16502050Y-22417000D01*
X16014550Y-22417000D01*
X15990658Y-22415826D01*
X15966997Y-22412316D01*
X15943793Y-22406504D01*
X15921271Y-22398446D01*
X15899647Y-22388218D01*
X15879130Y-22375921D01*
X15859917Y-22361671D01*
X15842193Y-22345607D01*
X15826129Y-22327883D01*
X15811879Y-22308670D01*
X15799582Y-22288153D01*
X15789354Y-22266529D01*
X15781296Y-22244007D01*
X15775484Y-22220803D01*
X15771974Y-22197142D01*
X15770800Y-22173250D01*
X15770800Y-21260750D01*
X15771974Y-21236858D01*
X15775484Y-21213197D01*
X15781296Y-21189993D01*
X15789354Y-21167471D01*
X15799582Y-21145847D01*
X15811879Y-21125330D01*
X15826129Y-21106117D01*
X15842193Y-21088393D01*
X15859917Y-21072329D01*
X15879130Y-21058079D01*
X15899647Y-21045782D01*
X15921271Y-21035554D01*
X15943793Y-21027496D01*
X15966997Y-21021684D01*
X15990658Y-21018174D01*
X16014550Y-21017000D01*
X16502050Y-21017000D01*
X16525942Y-21018174D01*
X16525942Y-21018174D01*
G37*
D12*
X16258300Y-21717000D03*
G04 #@! TD*
D10*
G04 #@! TO.C,R18*
G36*
X46631942Y-73838674D02*
X46655603Y-73842184D01*
X46678807Y-73847996D01*
X46701329Y-73856054D01*
X46722953Y-73866282D01*
X46743470Y-73878579D01*
X46762683Y-73892829D01*
X46780407Y-73908893D01*
X46796471Y-73926617D01*
X46810721Y-73945830D01*
X46823018Y-73966347D01*
X46833246Y-73987971D01*
X46841304Y-74010493D01*
X46847116Y-74033697D01*
X46850626Y-74057358D01*
X46851800Y-74081250D01*
X46851800Y-74568750D01*
X46850626Y-74592642D01*
X46847116Y-74616303D01*
X46841304Y-74639507D01*
X46833246Y-74662029D01*
X46823018Y-74683653D01*
X46810721Y-74704170D01*
X46796471Y-74723383D01*
X46780407Y-74741107D01*
X46762683Y-74757171D01*
X46743470Y-74771421D01*
X46722953Y-74783718D01*
X46701329Y-74793946D01*
X46678807Y-74802004D01*
X46655603Y-74807816D01*
X46631942Y-74811326D01*
X46608050Y-74812500D01*
X45695550Y-74812500D01*
X45671658Y-74811326D01*
X45647997Y-74807816D01*
X45624793Y-74802004D01*
X45602271Y-74793946D01*
X45580647Y-74783718D01*
X45560130Y-74771421D01*
X45540917Y-74757171D01*
X45523193Y-74741107D01*
X45507129Y-74723383D01*
X45492879Y-74704170D01*
X45480582Y-74683653D01*
X45470354Y-74662029D01*
X45462296Y-74639507D01*
X45456484Y-74616303D01*
X45452974Y-74592642D01*
X45451800Y-74568750D01*
X45451800Y-74081250D01*
X45452974Y-74057358D01*
X45456484Y-74033697D01*
X45462296Y-74010493D01*
X45470354Y-73987971D01*
X45480582Y-73966347D01*
X45492879Y-73945830D01*
X45507129Y-73926617D01*
X45523193Y-73908893D01*
X45540917Y-73892829D01*
X45560130Y-73878579D01*
X45580647Y-73866282D01*
X45602271Y-73856054D01*
X45624793Y-73847996D01*
X45647997Y-73842184D01*
X45671658Y-73838674D01*
X45695550Y-73837500D01*
X46608050Y-73837500D01*
X46631942Y-73838674D01*
X46631942Y-73838674D01*
G37*
D12*
X46151800Y-74325000D03*
D10*
G36*
X46631942Y-75713674D02*
X46655603Y-75717184D01*
X46678807Y-75722996D01*
X46701329Y-75731054D01*
X46722953Y-75741282D01*
X46743470Y-75753579D01*
X46762683Y-75767829D01*
X46780407Y-75783893D01*
X46796471Y-75801617D01*
X46810721Y-75820830D01*
X46823018Y-75841347D01*
X46833246Y-75862971D01*
X46841304Y-75885493D01*
X46847116Y-75908697D01*
X46850626Y-75932358D01*
X46851800Y-75956250D01*
X46851800Y-76443750D01*
X46850626Y-76467642D01*
X46847116Y-76491303D01*
X46841304Y-76514507D01*
X46833246Y-76537029D01*
X46823018Y-76558653D01*
X46810721Y-76579170D01*
X46796471Y-76598383D01*
X46780407Y-76616107D01*
X46762683Y-76632171D01*
X46743470Y-76646421D01*
X46722953Y-76658718D01*
X46701329Y-76668946D01*
X46678807Y-76677004D01*
X46655603Y-76682816D01*
X46631942Y-76686326D01*
X46608050Y-76687500D01*
X45695550Y-76687500D01*
X45671658Y-76686326D01*
X45647997Y-76682816D01*
X45624793Y-76677004D01*
X45602271Y-76668946D01*
X45580647Y-76658718D01*
X45560130Y-76646421D01*
X45540917Y-76632171D01*
X45523193Y-76616107D01*
X45507129Y-76598383D01*
X45492879Y-76579170D01*
X45480582Y-76558653D01*
X45470354Y-76537029D01*
X45462296Y-76514507D01*
X45456484Y-76491303D01*
X45452974Y-76467642D01*
X45451800Y-76443750D01*
X45451800Y-75956250D01*
X45452974Y-75932358D01*
X45456484Y-75908697D01*
X45462296Y-75885493D01*
X45470354Y-75862971D01*
X45480582Y-75841347D01*
X45492879Y-75820830D01*
X45507129Y-75801617D01*
X45523193Y-75783893D01*
X45540917Y-75767829D01*
X45560130Y-75753579D01*
X45580647Y-75741282D01*
X45602271Y-75731054D01*
X45624793Y-75722996D01*
X45647997Y-75717184D01*
X45671658Y-75713674D01*
X45695550Y-75712500D01*
X46608050Y-75712500D01*
X46631942Y-75713674D01*
X46631942Y-75713674D01*
G37*
D12*
X46151800Y-76200000D03*
G04 #@! TD*
D13*
G04 #@! TO.C,U2*
X53330200Y-19669400D03*
X53330200Y-19019400D03*
X53330200Y-18369400D03*
X53330200Y-17719400D03*
X48930200Y-17719400D03*
X48930200Y-18369400D03*
X48930200Y-19019400D03*
X48930200Y-19669400D03*
G04 #@! TD*
D14*
G04 #@! TO.C,U3*
X18186400Y-14038600D03*
X16916400Y-14038600D03*
X15646400Y-14038600D03*
X14376400Y-14038600D03*
X13106400Y-14038600D03*
X11836400Y-14038600D03*
X10566400Y-14038600D03*
X9296400Y-14038600D03*
X9296400Y-19438600D03*
X10566400Y-19438600D03*
X11836400Y-19438600D03*
X13106400Y-19438600D03*
X14376400Y-19438600D03*
X15646400Y-19438600D03*
X16916400Y-19438600D03*
X18186400Y-19438600D03*
G04 #@! TD*
M02*
